<svg width="165" height="31" viewBox="0 0 165 31" fill="none" xmlns="http://www.w3.org/2000/svg">
<g clip-path="url(#clip0_3291_48559)">
<path d="M12.0374 15.6746C10.9888 15.6746 10.4631 14.836 10.1488 14.1003C9.83449 13.3646 9.94024 12.7374 9.20596 12.7374C8.47167 12.7374 6.68878 14.9388 6.37449 17.8774C6.37449 18.1931 6.26882 20.1846 6.26882 21.2346V24.3817C6.26882 25.5346 6.16592 27.0031 6.37449 27.8417C6.58307 28.9974 6.89879 29.1017 7.73737 29.5217C8.05165 29.626 8.15737 29.7303 8.36594 29.7303V29.836H0.394531V29.7303C0.603103 29.7303 0.710205 29.626 1.02306 29.5217C1.96735 29.1017 2.17736 28.9974 2.38593 27.8417C2.59593 27.0031 2.49166 25.5346 2.49166 24.3817V16.9331V13.4717C2.38594 12.6317 2.17593 12.4231 1.75736 12.1074C1.33593 11.7931 0.917373 11.7931 0.601658 11.6889V11.5831H5.95165C6.16165 11.5831 6.16166 11.6889 6.16166 11.7931V16.6189C6.68451 14.5203 7.73449 13.156 8.36306 12.5274C8.99306 11.8988 10.0431 11.1646 11.4059 11.1646C12.0345 11.1646 12.7688 11.3732 13.2931 11.8989C13.6088 12.2146 13.9231 12.8417 13.9231 13.6817C14.0288 14.7289 13.4017 15.6746 12.0374 15.6746ZM28.9259 19.2403H17.7017C17.7017 24.2746 18.3302 26.7931 19.5902 28.2617C20.5331 29.4146 21.4774 29.6246 22.7359 29.6246C26.1974 29.6246 27.9802 26.7931 28.7159 23.856H28.9259C28.1902 27.526 25.7788 30.0446 22.1074 30.0446C20.0088 30.0446 17.7016 29.5203 16.1273 27.8403C14.4488 25.9531 13.8202 23.7503 13.8202 20.7089C13.8202 14.9389 17.0717 11.1632 21.6874 11.1632C26.9317 11.1632 29.2402 14.7289 29.2402 18.086C29.0288 18.4017 29.0288 18.8203 28.9259 19.2403ZM23.8902 12.2132C23.1559 11.4774 22.5273 11.2689 21.4788 11.2689C20.5345 11.2689 19.9045 11.4774 19.2759 12.2132C18.3316 13.2617 17.8088 15.5703 17.7017 18.926H23.8902C25.1488 18.926 25.2545 18.926 25.2545 17.0374C25.1474 14.5203 24.5202 12.8403 23.8902 12.2132ZM41.7217 30.0446C40.6731 30.0446 39.8345 30.0446 39.4145 29.7289C38.8902 29.4132 38.4716 28.5746 38.5745 27.0017C38.1559 28.4703 36.6888 30.0446 33.9602 30.0446C31.4431 30.0446 29.2402 28.576 29.2402 25.5331C29.2402 24.3803 29.5545 23.436 30.2888 22.8074C31.6517 21.5489 33.4345 21.4432 35.2174 20.7089C37.6302 19.7646 38.7845 18.6103 38.7845 17.3517V14.1003C38.7845 11.7932 38.156 11.3731 36.3731 11.3731C35.4288 11.3731 34.9045 11.5817 34.4845 12.0017C34.0659 12.4217 33.8559 13.3646 33.8559 14.6246C33.8559 15.9874 33.1217 16.5117 31.9688 16.5117C31.0245 16.5117 30.2902 15.9874 30.2902 14.9374C30.2902 14.2031 30.4988 13.6789 31.0245 13.1546C31.9688 12.0003 34.5916 11.2674 36.3745 11.2674C39.5216 11.2674 42.5631 12.4217 42.5631 15.4631C42.5631 16.8274 42.4573 23.646 42.4573 26.1632C42.4573 28.0503 42.4574 28.6803 42.8788 29.1003C42.9999 29.2298 43.1457 29.3337 43.3077 29.4058C43.4696 29.478 43.6444 29.5169 43.8217 29.5203C44.2417 29.5203 44.5559 29.4146 44.9759 29.2046V29.3103C44.4488 29.6246 43.0859 30.0446 41.7217 30.0446ZM35.8488 20.7089C34.6931 21.3374 34.1688 21.7574 33.7502 22.3874C33.3302 23.1217 33.0159 24.2746 33.0159 25.4303C33.0159 27.8417 33.9588 29.206 35.6388 29.206C35.9531 29.206 36.3731 29.206 36.6859 28.9974C37.6302 28.5774 38.4702 27.1089 38.4702 25.746V18.6131C37.9459 19.5546 37.0017 20.0789 35.8488 20.7089ZM44.4488 29.6246C44.6588 29.5203 44.9731 29.4146 45.1845 29.3103C45.9188 28.9946 46.2331 28.786 46.4431 27.6303C46.6516 26.7917 46.6516 25.4289 46.6516 24.1689V5.60172C46.6516 4.86743 46.6516 2.876 46.5474 2.14172C46.4431 1.30172 46.2331 0.986002 45.8117 0.777431C45.3931 0.461717 44.9731 0.461708 44.6588 0.357422H50.0074C50.2159 0.357422 50.216 0.357434 50.216 0.673148V24.3803C50.216 25.5331 50.2159 26.8974 50.3216 27.8403C50.5302 28.996 50.8459 29.2046 51.7888 29.5203C51.9988 29.6246 52.1045 29.6246 52.3131 29.7289V29.8346H44.446V29.6246H44.4488Z" fill="#EC1C24"/>
<path d="M63.8564 27.3153C63.2278 28.6796 61.3378 30.0438 59.4507 30.0438C57.7721 30.0438 56.7235 29.8339 55.7807 28.8881C55.0464 28.1539 54.625 27.3139 54.625 25.7424C54.625 24.9039 54.7307 13.7853 54.835 11.6867C54.2064 11.6867 52.9478 11.6867 52.3164 11.581V11.4767C54.9393 10.8481 56.6178 9.48244 58.4021 3.71387H58.505V11.371H62.7021V11.5796H58.505L58.2964 26.8953C58.2964 28.4696 58.7164 29.4124 60.4993 29.4124C61.9678 29.4124 63.1221 28.2596 63.6464 27.211L63.8564 27.3153ZM71.095 30.0438C66.8992 30.0438 62.3878 26.3724 62.3878 20.6024C62.3878 14.8353 66.8992 11.1639 71.095 11.1639C75.2921 11.1639 79.9064 14.7296 79.9064 20.6024C79.9064 26.3724 75.395 30.0438 71.095 30.0438ZM73.9278 12.5253C73.0878 11.4767 72.0392 11.2667 71.095 11.2667C70.1507 11.2667 69.1007 11.581 68.3678 12.421C67.1093 13.7853 66.375 17.2453 66.375 20.4982C66.375 23.8553 67.1093 27.1053 68.3678 28.5739C69.2078 29.6224 70.2564 29.8339 71.1992 29.8339C72.1435 29.8339 73.0878 29.6239 74.0307 28.5739C75.1864 27.211 76.0249 23.8539 76.0249 20.4982C75.9207 17.2453 75.1864 13.9953 73.9278 12.5253ZM90.8135 15.6739C89.7664 15.6739 89.2407 14.8353 88.9278 14.0996C88.6121 13.3639 88.7178 12.7367 87.9821 12.7367C87.2478 12.7367 85.4649 14.9381 85.1507 17.8767C85.1507 18.1924 85.0478 20.1839 85.0478 21.2339V24.381C85.0478 25.5339 84.9421 27.0024 85.1507 27.841C85.3607 28.9967 85.675 29.101 86.515 29.521C86.8307 29.6253 86.9335 29.7296 87.1435 29.7296V29.8353H79.2764V29.7296C79.4849 29.7296 79.5921 29.6253 79.905 29.521C80.8492 29.101 81.0593 28.9967 81.2678 27.841C81.4778 27.0024 81.3735 25.5339 81.3735 24.381V16.9324V13.471C81.2678 12.631 81.0578 12.4224 80.6392 12.1067C80.2178 11.7924 79.7993 11.7924 79.4835 11.6882V11.5824H84.8335C85.0435 11.5824 85.0435 11.6882 85.0435 11.7924V16.6182C85.5664 14.5196 86.6164 13.1553 87.245 12.5267C87.875 11.8981 88.925 11.1639 90.2878 11.1639C90.9164 11.1639 91.6507 11.3724 92.175 11.8982C92.4907 12.2139 92.805 12.841 92.805 13.681C92.8092 14.7282 92.1778 15.6739 90.8135 15.6739ZM92.8093 30.3581C91.5493 30.3581 90.5007 29.4139 90.5007 28.051C90.5007 26.6881 91.5493 25.7439 92.8093 25.7439C94.0678 25.7439 95.115 26.5824 95.115 28.051C95.0107 29.4139 94.0678 30.3581 92.8093 30.3581ZM104.871 30.0438C102.564 30.0438 100.465 29.0996 99.1021 27.7367C97.3178 25.9524 96.6893 23.4339 96.6893 20.3924C96.6893 14.6239 101.095 11.1624 104.976 11.1624C107.599 11.1624 109.591 12.1053 110.326 13.0496C110.955 13.7853 111.269 14.4124 111.269 15.0439C111.269 16.4067 110.326 16.931 109.486 16.931C108.019 16.931 107.494 15.9867 107.388 14.6239C107.074 12.2124 106.654 11.3724 104.871 11.3724C104.136 11.3724 102.984 11.6882 102.352 12.421C101.409 13.5753 100.885 16.3024 100.885 19.6581C100.885 23.8553 101.409 26.581 102.459 28.1538C103.298 29.3096 104.346 29.6224 105.291 29.6224C109.172 29.6224 110.851 26.2653 111.479 23.7482H111.688C110.639 27.3153 108.436 30.0438 104.871 30.0438ZM120.186 30.0438C115.989 30.0438 111.479 26.3724 111.479 20.6024C111.479 14.8353 115.989 11.1639 120.186 11.1639C124.382 11.1639 128.996 14.7296 128.996 20.6024C128.996 26.3724 124.381 30.0438 120.186 30.0438ZM123.018 12.5253C122.178 11.4767 121.129 11.2667 120.186 11.2667C119.242 11.2667 118.192 11.581 117.459 12.421C116.199 13.7853 115.465 17.2453 115.465 20.4982C115.465 23.8553 116.199 27.1053 117.459 28.5739C118.298 29.6224 119.346 29.8339 120.291 29.8339C121.234 29.8339 122.178 29.6239 123.122 28.5739C124.276 27.211 125.115 23.8539 125.115 20.4982C124.906 17.2453 124.172 13.9953 123.018 12.5253ZM149.975 29.6239C150.185 29.5196 150.291 29.4139 150.604 29.3096C151.444 28.9939 151.758 28.7853 151.968 27.6296C152.176 26.791 152.176 25.4282 152.176 24.1682V16.7196C152.176 14.7267 151.968 13.7839 151.548 13.1539C151.024 12.4196 150.289 11.9996 149.241 11.9996C147.352 11.9996 145.149 13.6781 144.835 16.9296C144.835 17.5581 144.731 18.2924 144.731 19.1324V24.0624C144.731 25.2167 144.625 26.5796 144.835 27.5239C145.044 28.6782 145.359 28.8867 146.198 29.2024C146.514 29.3081 146.618 29.411 146.828 29.411V29.5167H138.855V29.411C139.065 29.411 139.171 29.3081 139.484 29.2024C140.324 28.8867 140.638 28.6782 140.848 27.5239C141.056 26.6853 141.056 25.321 141.056 24.0624V16.6153C141.056 14.621 140.848 13.6767 140.322 13.0481C139.798 12.3139 139.064 11.8939 138.015 11.8939C135.916 11.8939 133.924 13.6767 133.609 16.9282C133.504 17.9767 133.504 19.2353 133.504 20.4953V23.9553C133.504 25.111 133.399 26.5782 133.609 27.4182C133.818 28.5724 134.134 28.6767 135.076 29.0967L135.705 29.3067V29.4096H127.734V29.3067C127.942 29.3067 128.049 29.201 128.362 29.0967C129.306 28.7824 129.516 28.5724 129.726 27.4182C129.935 26.5782 129.935 25.111 129.935 23.9553V16.6139C129.935 15.8782 129.935 13.7824 129.831 13.151C129.726 12.3124 129.515 12.1024 129.096 11.7881C128.676 11.4724 128.256 11.4724 127.941 11.3682V11.2639H133.291C133.499 11.2639 133.499 11.2639 133.499 11.4724L133.395 15.6696C133.919 13.7824 134.864 12.7324 135.808 11.9981C136.542 11.4739 137.905 10.8439 139.374 10.8439C141.261 10.8439 142.625 11.3682 143.359 12.311C143.779 12.8353 144.514 13.991 144.514 15.7739C145.038 13.781 146.088 12.6267 147.032 11.9967C147.975 11.2624 149.444 10.8424 150.494 10.8424C152.801 10.8424 153.955 11.5767 154.584 12.4167C155.108 13.0453 155.632 14.1996 155.632 16.4024V23.9538C155.632 25.1096 155.632 26.4724 155.842 27.4167C156.051 28.571 156.366 28.781 157.205 29.0953L157.834 29.3053V29.4082H149.966V29.6239H149.975ZM160.885 14.9381C160.465 14.9381 160.045 14.8353 159.626 14.7296C159.206 14.521 158.891 14.311 158.682 14.101C158.366 13.7867 158.158 13.4724 158.054 13.1567C157.844 12.7382 157.844 12.4224 157.844 11.8982C157.844 11.4782 157.949 11.0581 158.054 10.6396C158.262 10.2196 158.472 9.90529 158.682 9.59101C158.996 9.27529 159.311 9.06673 159.731 8.96102C160.149 8.75244 160.569 8.75243 160.989 8.75243C161.409 8.75243 161.829 8.85816 162.248 8.96102C162.668 9.17102 162.984 9.38244 163.192 9.59101C163.508 9.90672 163.716 10.2196 163.821 10.5339C164.029 10.9553 164.029 11.2696 164.029 11.7939C164.029 12.2139 163.925 12.6324 163.821 13.0524C163.612 13.4724 163.401 13.7881 163.192 14.101C162.984 14.4139 162.564 14.6253 162.144 14.7296C161.724 14.9382 161.305 14.9381 160.885 14.9381ZM160.885 14.6239C161.305 14.6239 161.619 14.5196 162.039 14.4139C162.354 14.311 162.668 14.0996 162.878 13.7867C163.088 13.5767 163.298 13.2624 163.508 12.9467C163.612 12.631 163.716 12.2124 163.716 11.8982C163.716 11.4782 163.612 11.1639 163.508 10.8496C163.395 10.5082 163.174 10.2131 162.878 10.0096C162.669 9.80101 162.354 9.59101 162.039 9.38244C161.724 9.27673 161.305 9.17244 160.991 9.17244C160.571 9.17244 160.256 9.27673 159.836 9.38244C159.495 9.4932 159.2 9.71367 158.996 10.0096C158.788 10.2196 158.578 10.5339 158.368 10.8496C158.264 11.1653 158.159 11.5839 158.159 11.8982C158.159 12.3167 158.264 12.6324 158.368 12.9467C158.472 13.261 158.684 13.5753 158.996 13.7867C159.206 13.9953 159.521 14.2053 159.836 14.4139C160.149 14.5196 160.569 14.6239 160.885 14.6239ZM159.626 10.0081H161.094C161.514 10.0081 161.934 10.1139 162.142 10.3239C162.351 10.5339 162.458 10.7439 162.458 11.0581C162.458 11.3739 162.352 11.5824 162.248 11.6882C162.144 11.8967 161.934 12.0024 161.724 12.1067L162.564 13.2624H161.724L160.989 12.2139H160.465V13.2624H159.731V10.0096H159.626V10.0081ZM161.095 11.581C161.305 11.581 161.411 11.581 161.515 11.4767C161.619 11.3724 161.619 11.2682 161.619 11.1624C161.619 10.9539 161.619 10.8467 161.515 10.8467C161.411 10.7424 161.306 10.7424 161.095 10.7424H160.361V11.6867H161.095V11.581Z" fill="#231F20"/>
</g>
<defs>
<clipPath id="clip0_3291_48559">
<rect width="163.755" height="30" fill="white" transform="translate(0.332031 0.358398)"/>
</clipPath>
</defs>
</svg>
