<svg width="341" height="252" viewBox="0 0 341 252" fill="none" xmlns="http://www.w3.org/2000/svg">
<path d="M229.304 227.419L231.61 224.248C304.513 261.316 374.435 165.39 321.047 125.745L313.874 120.728C326.112 113.034 342.639 94.8975 326.443 56.6569C309.109 15.7294 219.893 -13.3076 181.381 21.9513C149.161 -14.962 44.7961 -2.40977 24.0299 46.374C7.68241 84.7784 23.2959 103.561 34.0248 111.334C3.44992 130.792 4.99971 171.133 47.6031 186.78C43.5991 233.602 189.76 279.866 229.304 227.419Z" fill="#B6BE8F"/>
<circle cx="28.125" cy="213.019" r="9.375" fill="#B6BE8F"/>
<circle cx="6.25" cy="228.644" r="6.25" fill="#B6BE8F"/>
<path d="M82.654 78.9345L79.018 91.4805H77.182L74.266 81.3825L71.242 91.4805L69.424 91.4985L65.914 78.9345H67.66L70.396 89.5725L73.42 78.9345H75.256L78.136 89.5365L80.89 78.9345H82.654ZM89.5225 81.4365C90.2665 81.4365 90.9385 81.5985 91.5385 81.9225C92.1385 82.2345 92.6065 82.7085 92.9425 83.3445C93.2905 83.9805 93.4645 84.7545 93.4645 85.6665V91.4805H91.8445V85.9005C91.8445 84.9165 91.5985 84.1665 91.1065 83.6505C90.6145 83.1225 89.9425 82.8585 89.0905 82.8585C88.2265 82.8585 87.5365 83.1285 87.0205 83.6685C86.5165 84.2085 86.2645 84.9945 86.2645 86.0265V91.4805H84.6265V78.1605H86.2645V83.0205C86.5885 82.5165 87.0325 82.1265 87.5965 81.8505C88.1725 81.5745 88.8145 81.4365 89.5225 81.4365ZM95.7082 86.5125C95.7082 85.5045 95.9122 84.6225 96.3202 83.8665C96.7282 83.0985 97.2862 82.5045 97.9942 82.0845C98.7142 81.6645 99.5122 81.4545 100.388 81.4545C101.252 81.4545 102.002 81.6405 102.638 82.0125C103.274 82.3845 103.748 82.8525 104.06 83.4165V81.6165H105.716V91.4805H104.06V89.6445C103.736 90.2205 103.25 90.7005 102.602 91.0845C101.966 91.4565 101.222 91.6425 100.37 91.6425C99.4942 91.6425 98.7022 91.4265 97.9942 90.9945C97.2862 90.5625 96.7282 89.9565 96.3202 89.1765C95.9122 88.3965 95.7082 87.5085 95.7082 86.5125ZM104.06 86.5305C104.06 85.7865 103.91 85.1385 103.61 84.5865C103.31 84.0345 102.902 83.6145 102.386 83.3265C101.882 83.0265 101.324 82.8765 100.712 82.8765C100.1 82.8765 99.5422 83.0205 99.0382 83.3085C98.5342 83.5965 98.1322 84.0165 97.8322 84.5685C97.5322 85.1205 97.3822 85.7685 97.3822 86.5125C97.3822 87.2685 97.5322 87.9285 97.8322 88.4925C98.1322 89.0445 98.5342 89.4705 99.0382 89.7705C99.5422 90.0585 100.1 90.2025 100.712 90.2025C101.324 90.2025 101.882 90.0585 102.386 89.7705C102.902 89.4705 103.31 89.0445 103.61 88.4925C103.91 87.9285 104.06 87.2745 104.06 86.5305ZM110.662 82.9665V88.7805C110.662 89.2605 110.764 89.6025 110.968 89.8065C111.172 89.9985 111.526 90.0945 112.03 90.0945H113.236V91.4805H111.76C110.848 91.4805 110.164 91.2705 109.708 90.8505C109.252 90.4305 109.024 89.7405 109.024 88.7805V82.9665H107.746V81.6165H109.024V79.1325H110.662V81.6165H113.236V82.9665H110.662ZM116.229 77.1525L116.013 80.7345H114.879L114.645 77.1525H116.229ZM121.938 91.6425C121.182 91.6425 120.504 91.5165 119.904 91.2645C119.304 91.0005 118.83 90.6405 118.482 90.1845C118.134 89.7165 117.942 89.1825 117.906 88.5825H119.598C119.646 89.0745 119.874 89.4765 120.282 89.7885C120.702 90.1005 121.248 90.2565 121.92 90.2565C122.544 90.2565 123.036 90.1185 123.396 89.8425C123.756 89.5665 123.936 89.2185 123.936 88.7985C123.936 88.3665 123.744 88.0485 123.36 87.8445C122.976 87.6285 122.382 87.4185 121.578 87.2145C120.846 87.0225 120.246 86.8305 119.778 86.6385C119.322 86.4345 118.926 86.1405 118.59 85.7565C118.266 85.3605 118.104 84.8445 118.104 84.2085C118.104 83.7045 118.254 83.2425 118.554 82.8225C118.854 82.4025 119.28 82.0725 119.832 81.8325C120.384 81.5805 121.014 81.4545 121.722 81.4545C122.814 81.4545 123.696 81.7305 124.368 82.2825C125.04 82.8345 125.4 83.5905 125.448 84.5505H123.81C123.774 84.0345 123.564 83.6205 123.18 83.3085C122.808 82.9965 122.304 82.8405 121.668 82.8405C121.08 82.8405 120.612 82.9665 120.264 83.2185C119.916 83.4705 119.742 83.8005 119.742 84.2085C119.742 84.5325 119.844 84.8025 120.048 85.0185C120.264 85.2225 120.528 85.3905 120.84 85.5225C121.164 85.6425 121.608 85.7805 122.172 85.9365C122.88 86.1285 123.456 86.3205 123.9 86.5125C124.344 86.6925 124.722 86.9685 125.034 87.3405C125.358 87.7125 125.526 88.1985 125.538 88.7985C125.538 89.3385 125.388 89.8245 125.088 90.2565C124.788 90.6885 124.362 91.0305 123.81 91.2825C123.27 91.5225 122.646 91.6425 121.938 91.6425ZM135.007 82.9665V88.7805C135.007 89.2605 135.109 89.6025 135.313 89.8065C135.517 89.9985 135.871 90.0945 136.375 90.0945H137.581V91.4805H136.105C135.193 91.4805 134.509 91.2705 134.053 90.8505C133.597 90.4305 133.369 89.7405 133.369 88.7805V82.9665H132.091V81.6165H133.369V79.1325H135.007V81.6165H137.581V82.9665H135.007ZM144.642 81.4365C145.386 81.4365 146.058 81.5985 146.658 81.9225C147.258 82.2345 147.726 82.7085 148.062 83.3445C148.41 83.9805 148.584 84.7545 148.584 85.6665V91.4805H146.964V85.9005C146.964 84.9165 146.718 84.1665 146.226 83.6505C145.734 83.1225 145.062 82.8585 144.21 82.8585C143.346 82.8585 142.656 83.1285 142.14 83.6685C141.636 84.2085 141.384 84.9945 141.384 86.0265V91.4805H139.746V78.1605H141.384V83.0205C141.708 82.5165 142.152 82.1265 142.716 81.8505C143.292 81.5745 143.934 81.4365 144.642 81.4365ZM160.44 86.1705C160.44 86.4825 160.422 86.8125 160.386 87.1605H152.502C152.562 88.1325 152.892 88.8945 153.492 89.4465C154.104 89.9865 154.842 90.2565 155.706 90.2565C156.414 90.2565 157.002 90.0945 157.47 89.7705C157.95 89.4345 158.286 88.9905 158.478 88.4385H160.242C159.978 89.3865 159.45 90.1605 158.658 90.7605C157.866 91.3485 156.882 91.6425 155.706 91.6425C154.77 91.6425 153.93 91.4325 153.186 91.0125C152.454 90.5925 151.878 89.9985 151.458 89.2305C151.038 88.4505 150.828 87.5505 150.828 86.5305C150.828 85.5105 151.032 84.6165 151.44 83.8485C151.848 83.0805 152.418 82.4925 153.15 82.0845C153.894 81.6645 154.746 81.4545 155.706 81.4545C156.642 81.4545 157.47 81.6585 158.19 82.0665C158.91 82.4745 159.462 83.0385 159.846 83.7585C160.242 84.4665 160.44 85.2705 160.44 86.1705ZM158.748 85.8285C158.748 85.2045 158.61 84.6705 158.334 84.2265C158.058 83.7705 157.68 83.4285 157.2 83.2005C156.732 82.9605 156.21 82.8405 155.634 82.8405C154.806 82.8405 154.098 83.1045 153.51 83.6325C152.934 84.1605 152.604 84.8925 152.52 85.8285H158.748ZM169.399 83.4525C169.735 82.8645 170.227 82.3845 170.875 82.0125C171.523 81.6405 172.261 81.4545 173.089 81.4545C173.977 81.4545 174.775 81.6645 175.483 82.0845C176.191 82.5045 176.749 83.0985 177.157 83.8665C177.565 84.6225 177.769 85.5045 177.769 86.5125C177.769 87.5085 177.565 88.3965 177.157 89.1765C176.749 89.9565 176.185 90.5625 175.465 90.9945C174.757 91.4265 173.965 91.6425 173.089 91.6425C172.237 91.6425 171.487 91.4565 170.839 91.0845C170.203 90.7125 169.723 90.2385 169.399 89.6625V91.4805H167.761V78.1605H169.399V83.4525ZM176.095 86.5125C176.095 85.7685 175.945 85.1205 175.645 84.5685C175.345 84.0165 174.937 83.5965 174.421 83.3085C173.917 83.0205 173.359 82.8765 172.747 82.8765C172.147 82.8765 171.589 83.0265 171.073 83.3265C170.569 83.6145 170.161 84.0405 169.849 84.6045C169.549 85.1565 169.399 85.7985 169.399 86.5305C169.399 87.2745 169.549 87.9285 169.849 88.4925C170.161 89.0445 170.569 89.4705 171.073 89.7705C171.589 90.0585 172.147 90.2025 172.747 90.2025C173.359 90.2025 173.917 90.0585 174.421 89.7705C174.937 89.4705 175.345 89.0445 175.645 88.4925C175.945 87.9285 176.095 87.2685 176.095 86.5125ZM189.105 86.1705C189.105 86.4825 189.087 86.8125 189.051 87.1605H181.167C181.227 88.1325 181.557 88.8945 182.157 89.4465C182.769 89.9865 183.507 90.2565 184.371 90.2565C185.079 90.2565 185.667 90.0945 186.135 89.7705C186.615 89.4345 186.951 88.9905 187.143 88.4385H188.907C188.643 89.3865 188.115 90.1605 187.323 90.7605C186.531 91.3485 185.547 91.6425 184.371 91.6425C183.435 91.6425 182.595 91.4325 181.851 91.0125C181.119 90.5925 180.543 89.9985 180.123 89.2305C179.703 88.4505 179.493 87.5505 179.493 86.5305C179.493 85.5105 179.697 84.6165 180.105 83.8485C180.513 83.0805 181.083 82.4925 181.815 82.0845C182.559 81.6645 183.411 81.4545 184.371 81.4545C185.307 81.4545 186.135 81.6585 186.855 82.0665C187.575 82.4745 188.127 83.0385 188.511 83.7585C188.907 84.4665 189.105 85.2705 189.105 86.1705ZM187.413 85.8285C187.413 85.2045 187.275 84.6705 186.999 84.2265C186.723 83.7705 186.345 83.4285 185.865 83.2005C185.397 82.9605 184.875 82.8405 184.299 82.8405C183.471 82.8405 182.763 83.1045 182.175 83.6325C181.599 84.1605 181.269 84.8925 181.185 85.8285H187.413ZM194.939 91.6425C194.183 91.6425 193.505 91.5165 192.905 91.2645C192.305 91.0005 191.831 90.6405 191.483 90.1845C191.135 89.7165 190.943 89.1825 190.907 88.5825H192.599C192.647 89.0745 192.875 89.4765 193.283 89.7885C193.703 90.1005 194.249 90.2565 194.921 90.2565C195.545 90.2565 196.037 90.1185 196.397 89.8425C196.757 89.5665 196.937 89.2185 196.937 88.7985C196.937 88.3665 196.745 88.0485 196.361 87.8445C195.977 87.6285 195.383 87.4185 194.579 87.2145C193.847 87.0225 193.247 86.8305 192.779 86.6385C192.323 86.4345 191.927 86.1405 191.591 85.7565C191.267 85.3605 191.105 84.8445 191.105 84.2085C191.105 83.7045 191.255 83.2425 191.555 82.8225C191.855 82.4025 192.281 82.0725 192.833 81.8325C193.385 81.5805 194.015 81.4545 194.723 81.4545C195.815 81.4545 196.697 81.7305 197.369 82.2825C198.041 82.8345 198.401 83.5905 198.449 84.5505H196.811C196.775 84.0345 196.565 83.6205 196.181 83.3085C195.809 82.9965 195.305 82.8405 194.669 82.8405C194.081 82.8405 193.613 82.9665 193.265 83.2185C192.917 83.4705 192.743 83.8005 192.743 84.2085C192.743 84.5325 192.845 84.8025 193.049 85.0185C193.265 85.2225 193.529 85.3905 193.841 85.5225C194.165 85.6425 194.609 85.7805 195.173 85.9365C195.881 86.1285 196.457 86.3205 196.901 86.5125C197.345 86.6925 197.723 86.9685 198.035 87.3405C198.359 87.7125 198.527 88.1985 198.539 88.7985C198.539 89.3385 198.389 89.8245 198.089 90.2565C197.789 90.6885 197.363 91.0305 196.811 91.2825C196.271 91.5225 195.647 91.6425 194.939 91.6425ZM203.029 82.9665V88.7805C203.029 89.2605 203.131 89.6025 203.335 89.8065C203.539 89.9985 203.893 90.0945 204.397 90.0945H205.603V91.4805H204.127C203.215 91.4805 202.531 91.2705 202.075 90.8505C201.619 90.4305 201.391 89.7405 201.391 88.7805V82.9665H200.113V81.6165H201.391V79.1325H203.029V81.6165H205.603V82.9665H203.029ZM225.886 81.6165L222.808 91.4805H221.116L218.74 83.6505L216.364 91.4805H214.672L211.576 81.6165H213.25L215.518 89.8965L217.966 81.6165H219.64L222.034 89.9145L224.266 81.6165H225.886ZM227.08 86.5125C227.08 85.5045 227.284 84.6225 227.692 83.8665C228.1 83.0985 228.658 82.5045 229.366 82.0845C230.086 81.6645 230.884 81.4545 231.76 81.4545C232.624 81.4545 233.374 81.6405 234.01 82.0125C234.646 82.3845 235.12 82.8525 235.432 83.4165V81.6165H237.088V91.4805H235.432V89.6445C235.108 90.2205 234.622 90.7005 233.974 91.0845C233.338 91.4565 232.594 91.6425 231.742 91.6425C230.866 91.6425 230.074 91.4265 229.366 90.9945C228.658 90.5625 228.1 89.9565 227.692 89.1765C227.284 88.3965 227.08 87.5085 227.08 86.5125ZM235.432 86.5305C235.432 85.7865 235.282 85.1385 234.982 84.5865C234.682 84.0345 234.274 83.6145 233.758 83.3265C233.254 83.0265 232.696 82.8765 232.084 82.8765C231.472 82.8765 230.914 83.0205 230.41 83.3085C229.906 83.5965 229.504 84.0165 229.204 84.5685C228.904 85.1205 228.754 85.7685 228.754 86.5125C228.754 87.2685 228.904 87.9285 229.204 88.4925C229.504 89.0445 229.906 89.4705 230.41 89.7705C230.914 90.0585 231.472 90.2025 232.084 90.2025C232.696 90.2025 233.254 90.0585 233.758 89.7705C234.274 89.4705 234.682 89.0445 234.982 88.4925C235.282 87.9285 235.432 87.2745 235.432 86.5305ZM248.532 81.6165L242.592 96.1245H240.9L242.844 91.3725L238.866 81.6165H240.684L243.78 89.6085L246.84 81.6165H248.532ZM257.336 82.9665V88.7805C257.336 89.2605 257.438 89.6025 257.642 89.8065C257.846 89.9985 258.2 90.0945 258.704 90.0945H259.91V91.4805H258.434C257.522 91.4805 256.838 91.2705 256.382 90.8505C255.926 90.4305 255.698 89.7405 255.698 88.7805V82.9665H254.42V81.6165H255.698V79.1325H257.336V81.6165H259.91V82.9665H257.336ZM266.376 91.6425C265.452 91.6425 264.612 91.4325 263.856 91.0125C263.112 90.5925 262.524 89.9985 262.092 89.2305C261.672 88.4505 261.462 87.5505 261.462 86.5305C261.462 85.5225 261.678 84.6345 262.11 83.8665C262.554 83.0865 263.154 82.4925 263.91 82.0845C264.666 81.6645 265.512 81.4545 266.448 81.4545C267.384 81.4545 268.23 81.6645 268.986 82.0845C269.742 82.4925 270.336 83.0805 270.768 83.8485C271.212 84.6165 271.434 85.5105 271.434 86.5305C271.434 87.5505 271.206 88.4505 270.75 89.2305C270.306 89.9985 269.7 90.5925 268.932 91.0125C268.164 91.4325 267.312 91.6425 266.376 91.6425ZM266.376 90.2025C266.964 90.2025 267.516 90.0645 268.032 89.7885C268.548 89.5125 268.962 89.0985 269.274 88.5465C269.598 87.9945 269.76 87.3225 269.76 86.5305C269.76 85.7385 269.604 85.0665 269.292 84.5145C268.98 83.9625 268.572 83.5545 268.068 83.2905C267.564 83.0145 267.018 82.8765 266.43 82.8765C265.83 82.8765 265.278 83.0145 264.774 83.2905C264.282 83.5545 263.886 83.9625 263.586 84.5145C263.286 85.0665 263.136 85.7385 263.136 86.5305C263.136 87.3345 263.28 88.0125 263.568 88.5645C263.868 89.1165 264.264 89.5305 264.756 89.8065C265.248 90.0705 265.788 90.2025 266.376 90.2025ZM66.274 113.512C66.274 112.504 66.478 111.622 66.886 110.866C67.294 110.098 67.852 109.504 68.56 109.084C69.28 108.664 70.084 108.454 70.972 108.454C71.74 108.454 72.454 108.634 73.114 108.994C73.774 109.342 74.278 109.804 74.626 110.38V105.16H76.282V118.48H74.626V116.626C74.302 117.214 73.822 117.7 73.186 118.084C72.55 118.456 71.806 118.642 70.954 118.642C70.078 118.642 69.28 118.426 68.56 117.994C67.852 117.562 67.294 116.956 66.886 116.176C66.478 115.396 66.274 114.508 66.274 113.512ZM74.626 113.53C74.626 112.786 74.476 112.138 74.176 111.586C73.876 111.034 73.468 110.614 72.952 110.326C72.448 110.026 71.89 109.876 71.278 109.876C70.666 109.876 70.108 110.02 69.604 110.308C69.1 110.596 68.698 111.016 68.398 111.568C68.098 112.12 67.948 112.768 67.948 113.512C67.948 114.268 68.098 114.928 68.398 115.492C68.698 116.044 69.1 116.47 69.604 116.77C70.108 117.058 70.666 117.202 71.278 117.202C71.89 117.202 72.448 117.058 72.952 116.77C73.468 116.47 73.876 116.044 74.176 115.492C74.476 114.928 74.626 114.274 74.626 113.53ZM80.0761 107.014C79.7641 107.014 79.5001 106.906 79.2841 106.69C79.0681 106.474 78.9601 106.21 78.9601 105.898C78.9601 105.586 79.0681 105.322 79.2841 105.106C79.5001 104.89 79.7641 104.782 80.0761 104.782C80.3761 104.782 80.6281 104.89 80.8321 105.106C81.0481 105.322 81.1561 105.586 81.1561 105.898C81.1561 106.21 81.0481 106.474 80.8321 106.69C80.6281 106.906 80.3761 107.014 80.0761 107.014ZM80.8681 108.616V118.48H79.2301V108.616H80.8681ZM87.8538 109.966H85.7838V118.48H84.1458V109.966H82.8678V108.616H84.1458V107.914C84.1458 106.81 84.4278 106.006 84.9918 105.502C85.5678 104.986 86.4858 104.728 87.7458 104.728V106.096C87.0258 106.096 86.5158 106.24 86.2158 106.528C85.9278 106.804 85.7838 107.266 85.7838 107.914V108.616H87.8538V109.966ZM93.9576 109.966H91.8876V118.48H90.2496V109.966H88.9716V108.616H90.2496V107.914C90.2496 106.81 90.5316 106.006 91.0956 105.502C91.6716 104.986 92.5896 104.728 93.8496 104.728V106.096C93.1296 106.096 92.6196 106.24 92.3196 106.528C92.0316 106.804 91.8876 107.266 91.8876 107.914V108.616H93.9576V109.966ZM105.047 113.17C105.047 113.482 105.029 113.812 104.993 114.16H97.1094C97.1694 115.132 97.4994 115.894 98.0994 116.446C98.7114 116.986 99.4494 117.256 100.313 117.256C101.021 117.256 101.609 117.094 102.077 116.77C102.557 116.434 102.893 115.99 103.085 115.438H104.849C104.585 116.386 104.057 117.16 103.265 117.76C102.473 118.348 101.489 118.642 100.313 118.642C99.3774 118.642 98.5374 118.432 97.7934 118.012C97.0614 117.592 96.4854 116.998 96.0654 116.23C95.6454 115.45 95.4354 114.55 95.4354 113.53C95.4354 112.51 95.6394 111.616 96.0474 110.848C96.4554 110.08 97.0254 109.492 97.7574 109.084C98.5014 108.664 99.3534 108.454 100.313 108.454C101.249 108.454 102.077 108.658 102.797 109.066C103.517 109.474 104.069 110.038 104.453 110.758C104.849 111.466 105.047 112.27 105.047 113.17ZM103.355 112.828C103.355 112.204 103.217 111.67 102.941 111.226C102.665 110.77 102.287 110.428 101.807 110.2C101.339 109.96 100.817 109.84 100.241 109.84C99.4134 109.84 98.7054 110.104 98.1174 110.632C97.5414 111.16 97.2114 111.892 97.1274 112.828H103.355ZM109.028 110.218C109.316 109.654 109.724 109.216 110.252 108.904C110.792 108.592 111.446 108.436 112.214 108.436V110.128H111.782C109.946 110.128 109.028 111.124 109.028 113.116V118.48H107.39V108.616H109.028V110.218ZM123.284 113.17C123.284 113.482 123.266 113.812 123.23 114.16H115.346C115.406 115.132 115.736 115.894 116.336 116.446C116.948 116.986 117.686 117.256 118.55 117.256C119.258 117.256 119.846 117.094 120.314 116.77C120.794 116.434 121.13 115.99 121.322 115.438H123.086C122.822 116.386 122.294 117.16 121.502 117.76C120.71 118.348 119.726 118.642 118.55 118.642C117.614 118.642 116.774 118.432 116.03 118.012C115.298 117.592 114.722 116.998 114.302 116.23C113.882 115.45 113.672 114.55 113.672 113.53C113.672 112.51 113.876 111.616 114.284 110.848C114.692 110.08 115.262 109.492 115.994 109.084C116.738 108.664 117.59 108.454 118.55 108.454C119.486 108.454 120.314 108.658 121.034 109.066C121.754 109.474 122.306 110.038 122.69 110.758C123.086 111.466 123.284 112.27 123.284 113.17ZM121.592 112.828C121.592 112.204 121.454 111.67 121.178 111.226C120.902 110.77 120.524 110.428 120.044 110.2C119.576 109.96 119.054 109.84 118.478 109.84C117.65 109.84 116.942 110.104 116.354 110.632C115.778 111.16 115.448 111.892 115.364 112.828H121.592ZM130.432 108.436C131.632 108.436 132.604 108.802 133.348 109.534C134.092 110.254 134.464 111.298 134.464 112.666V118.48H132.844V112.9C132.844 111.916 132.598 111.166 132.106 110.65C131.614 110.122 130.942 109.858 130.09 109.858C129.226 109.858 128.536 110.128 128.02 110.668C127.516 111.208 127.264 111.994 127.264 113.026V118.48H125.626V108.616H127.264V110.02C127.588 109.516 128.026 109.126 128.578 108.85C129.142 108.574 129.76 108.436 130.432 108.436ZM139.318 109.966V115.78C139.318 116.26 139.42 116.602 139.624 116.806C139.828 116.998 140.182 117.094 140.686 117.094H141.892V118.48H140.416C139.504 118.48 138.82 118.27 138.364 117.85C137.908 117.43 137.68 116.74 137.68 115.78V109.966H136.402V108.616H137.68V106.132H139.318V108.616H141.892V109.966H139.318ZM144.903 107.014C144.591 107.014 144.327 106.906 144.111 106.69C143.895 106.474 143.787 106.21 143.787 105.898C143.787 105.586 143.895 105.322 144.111 105.106C144.327 104.89 144.591 104.782 144.903 104.782C145.203 104.782 145.455 104.89 145.659 105.106C145.875 105.322 145.983 105.586 145.983 105.898C145.983 106.21 145.875 106.474 145.659 106.69C145.455 106.906 145.203 107.014 144.903 107.014ZM145.695 108.616V118.48H144.057V108.616H145.695ZM148.054 113.512C148.054 112.504 148.258 111.622 148.666 110.866C149.074 110.098 149.632 109.504 150.34 109.084C151.06 108.664 151.858 108.454 152.734 108.454C153.598 108.454 154.348 108.64 154.984 109.012C155.62 109.384 156.094 109.852 156.406 110.416V108.616H158.062V118.48H156.406V116.644C156.082 117.22 155.596 117.7 154.948 118.084C154.312 118.456 153.568 118.642 152.716 118.642C151.84 118.642 151.048 118.426 150.34 117.994C149.632 117.562 149.074 116.956 148.666 116.176C148.258 115.396 148.054 114.508 148.054 113.512ZM156.406 113.53C156.406 112.786 156.256 112.138 155.956 111.586C155.656 111.034 155.248 110.614 154.732 110.326C154.228 110.026 153.67 109.876 153.058 109.876C152.446 109.876 151.888 110.02 151.384 110.308C150.88 110.596 150.478 111.016 150.178 111.568C149.878 112.12 149.728 112.768 149.728 113.512C149.728 114.268 149.878 114.928 150.178 115.492C150.478 116.044 150.88 116.47 151.384 116.77C151.888 117.058 152.446 117.202 153.058 117.202C153.67 117.202 154.228 117.058 154.732 116.77C155.248 116.47 155.656 116.044 155.956 115.492C156.256 114.928 156.406 114.274 156.406 113.53ZM163.009 109.966V115.78C163.009 116.26 163.111 116.602 163.315 116.806C163.519 116.998 163.873 117.094 164.377 117.094H165.583V118.48H164.107C163.195 118.48 162.511 118.27 162.055 117.85C161.599 117.43 161.371 116.74 161.371 115.78V109.966H160.093V108.616H161.371V106.132H163.009V108.616H165.583V109.966H163.009ZM176.747 113.17C176.747 113.482 176.729 113.812 176.693 114.16H168.809C168.869 115.132 169.199 115.894 169.799 116.446C170.411 116.986 171.149 117.256 172.013 117.256C172.721 117.256 173.309 117.094 173.777 116.77C174.257 116.434 174.593 115.99 174.785 115.438H176.549C176.285 116.386 175.757 117.16 174.965 117.76C174.173 118.348 173.189 118.642 172.013 118.642C171.077 118.642 170.237 118.432 169.493 118.012C168.761 117.592 168.185 116.998 167.765 116.23C167.345 115.45 167.135 114.55 167.135 113.53C167.135 112.51 167.339 111.616 167.747 110.848C168.155 110.08 168.725 109.492 169.457 109.084C170.201 108.664 171.053 108.454 172.013 108.454C172.949 108.454 173.777 108.658 174.497 109.066C175.217 109.474 175.769 110.038 176.153 110.758C176.549 111.466 176.747 112.27 176.747 113.17ZM175.055 112.828C175.055 112.204 174.917 111.67 174.641 111.226C174.365 110.77 173.987 110.428 173.507 110.2C173.039 109.96 172.517 109.84 171.941 109.84C171.113 109.84 170.405 110.104 169.817 110.632C169.241 111.16 168.911 111.892 168.827 112.828H175.055ZM186.066 109.966V115.78C186.066 116.26 186.168 116.602 186.372 116.806C186.576 116.998 186.93 117.094 187.434 117.094H188.64V118.48H187.164C186.252 118.48 185.568 118.27 185.112 117.85C184.656 117.43 184.428 116.74 184.428 115.78V109.966H183.15V108.616H184.428V106.132H186.066V108.616H188.64V109.966H186.066ZM195.701 108.436C196.445 108.436 197.117 108.598 197.717 108.922C198.317 109.234 198.785 109.708 199.121 110.344C199.469 110.98 199.643 111.754 199.643 112.666V118.48H198.023V112.9C198.023 111.916 197.777 111.166 197.285 110.65C196.793 110.122 196.121 109.858 195.269 109.858C194.405 109.858 193.715 110.128 193.199 110.668C192.695 111.208 192.443 111.994 192.443 113.026V118.48H190.805V105.16H192.443V110.02C192.767 109.516 193.211 109.126 193.775 108.85C194.351 108.574 194.993 108.436 195.701 108.436ZM211.498 113.17C211.498 113.482 211.48 113.812 211.444 114.16H203.56C203.62 115.132 203.95 115.894 204.55 116.446C205.162 116.986 205.9 117.256 206.764 117.256C207.472 117.256 208.06 117.094 208.528 116.77C209.008 116.434 209.344 115.99 209.536 115.438H211.3C211.036 116.386 210.508 117.16 209.716 117.76C208.924 118.348 207.94 118.642 206.764 118.642C205.828 118.642 204.988 118.432 204.244 118.012C203.512 117.592 202.936 116.998 202.516 116.23C202.096 115.45 201.886 114.55 201.886 113.53C201.886 112.51 202.09 111.616 202.498 110.848C202.906 110.08 203.476 109.492 204.208 109.084C204.952 108.664 205.804 108.454 206.764 108.454C207.7 108.454 208.528 108.658 209.248 109.066C209.968 109.474 210.52 110.038 210.904 110.758C211.3 111.466 211.498 112.27 211.498 113.17ZM209.806 112.828C209.806 112.204 209.668 111.67 209.392 111.226C209.116 110.77 208.738 110.428 208.258 110.2C207.79 109.96 207.268 109.84 206.692 109.84C205.864 109.84 205.156 110.104 204.568 110.632C203.992 111.16 203.662 111.892 203.578 112.828H209.806ZM70.9 136.966H68.83V145.48H67.192V136.966H65.914V135.616H67.192V134.914C67.192 133.81 67.474 133.006 68.038 132.502C68.614 131.986 69.532 131.728 70.792 131.728V133.096C70.072 133.096 69.562 133.24 69.262 133.528C68.974 133.804 68.83 134.266 68.83 134.914V135.616H70.9V136.966ZM81.9898 140.17C81.9898 140.482 81.9718 140.812 81.9358 141.16H74.0518C74.1118 142.132 74.4418 142.894 75.0418 143.446C75.6538 143.986 76.3918 144.256 77.2558 144.256C77.9638 144.256 78.5518 144.094 79.0198 143.77C79.4998 143.434 79.8358 142.99 80.0278 142.438H81.7918C81.5278 143.386 80.9998 144.16 80.2078 144.76C79.4158 145.348 78.4318 145.642 77.2558 145.642C76.3198 145.642 75.4798 145.432 74.7358 145.012C74.0038 144.592 73.4278 143.998 73.0078 143.23C72.5878 142.45 72.3778 141.55 72.3778 140.53C72.3778 139.51 72.5818 138.616 72.9898 137.848C73.3978 137.08 73.9678 136.492 74.6998 136.084C75.4438 135.664 76.2958 135.454 77.2558 135.454C78.1918 135.454 79.0198 135.658 79.7398 136.066C80.4598 136.474 81.0118 137.038 81.3958 137.758C81.7918 138.466 81.9898 139.27 81.9898 140.17ZM80.2978 139.828C80.2978 139.204 80.1598 138.67 79.8838 138.226C79.6078 137.77 79.2298 137.428 78.7498 137.2C78.2818 136.96 77.7598 136.84 77.1838 136.84C76.3558 136.84 75.6478 137.104 75.0598 137.632C74.4838 138.16 74.1538 138.892 74.0698 139.828H80.2978ZM83.7199 140.512C83.7199 139.504 83.9239 138.622 84.3319 137.866C84.7399 137.098 85.2979 136.504 86.0059 136.084C86.7259 135.664 87.5239 135.454 88.3999 135.454C89.2639 135.454 90.0139 135.64 90.6499 136.012C91.2859 136.384 91.7599 136.852 92.0719 137.416V135.616H93.7279V145.48H92.0719V143.644C91.7479 144.22 91.2619 144.7 90.6139 145.084C89.9779 145.456 89.2339 145.642 88.3819 145.642C87.5059 145.642 86.7139 145.426 86.0059 144.994C85.2979 144.562 84.7399 143.956 84.3319 143.176C83.9239 142.396 83.7199 141.508 83.7199 140.512ZM92.0719 140.53C92.0719 139.786 91.9219 139.138 91.6219 138.586C91.3219 138.034 90.9139 137.614 90.3979 137.326C89.8939 137.026 89.3359 136.876 88.7239 136.876C88.1119 136.876 87.5539 137.02 87.0499 137.308C86.5459 137.596 86.1439 138.016 85.8439 138.568C85.5439 139.12 85.3939 139.768 85.3939 140.512C85.3939 141.268 85.5439 141.928 85.8439 142.492C86.1439 143.044 86.5459 143.47 87.0499 143.77C87.5539 144.058 88.1119 144.202 88.7239 144.202C89.3359 144.202 89.8939 144.058 90.3979 143.77C90.9139 143.47 91.3219 143.044 91.6219 142.492C91.9219 141.928 92.0719 141.274 92.0719 140.53ZM98.674 136.966V142.78C98.674 143.26 98.776 143.602 98.98 143.806C99.184 143.998 99.538 144.094 100.042 144.094H101.248V145.48H99.772C98.86 145.48 98.176 145.27 97.72 144.85C97.264 144.43 97.036 143.74 97.036 142.78V136.966H95.758V135.616H97.036V133.132H98.674V135.616H101.248V136.966H98.674ZM112.161 135.616V145.48H110.523V144.022C110.211 144.526 109.773 144.922 109.209 145.21C108.657 145.486 108.045 145.624 107.373 145.624C106.605 145.624 105.915 145.468 105.303 145.156C104.691 144.832 104.205 144.352 103.845 143.716C103.497 143.08 103.323 142.306 103.323 141.394V135.616H104.943V141.178C104.943 142.15 105.189 142.9 105.681 143.428C106.173 143.944 106.845 144.202 107.697 144.202C108.573 144.202 109.263 143.932 109.767 143.392C110.271 142.852 110.523 142.066 110.523 141.034V135.616H112.161ZM116.744 137.218C117.032 136.654 117.44 136.216 117.968 135.904C118.508 135.592 119.162 135.436 119.93 135.436V137.128H119.498C117.662 137.128 116.744 138.124 116.744 140.116V145.48H115.106V135.616H116.744V137.218ZM131.001 140.17C131.001 140.482 130.983 140.812 130.947 141.16H123.063C123.123 142.132 123.453 142.894 124.053 143.446C124.665 143.986 125.403 144.256 126.267 144.256C126.975 144.256 127.563 144.094 128.031 143.77C128.511 143.434 128.847 142.99 129.039 142.438H130.803C130.539 143.386 130.011 144.16 129.219 144.76C128.427 145.348 127.443 145.642 126.267 145.642C125.331 145.642 124.491 145.432 123.747 145.012C123.015 144.592 122.439 143.998 122.019 143.23C121.599 142.45 121.389 141.55 121.389 140.53C121.389 139.51 121.593 138.616 122.001 137.848C122.409 137.08 122.979 136.492 123.711 136.084C124.455 135.664 125.307 135.454 126.267 135.454C127.203 135.454 128.031 135.658 128.751 136.066C129.471 136.474 130.023 137.038 130.407 137.758C130.803 138.466 131.001 139.27 131.001 140.17ZM129.309 139.828C129.309 139.204 129.171 138.67 128.895 138.226C128.619 137.77 128.241 137.428 127.761 137.2C127.293 136.96 126.771 136.84 126.195 136.84C125.367 136.84 124.659 137.104 124.071 137.632C123.495 138.16 123.165 138.892 123.081 139.828H129.309ZM136.835 145.642C136.079 145.642 135.401 145.516 134.801 145.264C134.201 145 133.727 144.64 133.379 144.184C133.031 143.716 132.839 143.182 132.803 142.582H134.495C134.543 143.074 134.771 143.476 135.179 143.788C135.599 144.1 136.145 144.256 136.817 144.256C137.441 144.256 137.933 144.118 138.293 143.842C138.653 143.566 138.833 143.218 138.833 142.798C138.833 142.366 138.641 142.048 138.257 141.844C137.873 141.628 137.279 141.418 136.475 141.214C135.743 141.022 135.143 140.83 134.675 140.638C134.219 140.434 133.823 140.14 133.487 139.756C133.163 139.36 133.001 138.844 133.001 138.208C133.001 137.704 133.151 137.242 133.451 136.822C133.751 136.402 134.177 136.072 134.729 135.832C135.281 135.58 135.911 135.454 136.619 135.454C137.711 135.454 138.593 135.73 139.265 136.282C139.937 136.834 140.297 137.59 140.345 138.55H138.707C138.671 138.034 138.461 137.62 138.077 137.308C137.705 136.996 137.201 136.84 136.565 136.84C135.977 136.84 135.509 136.966 135.161 137.218C134.813 137.47 134.639 137.8 134.639 138.208C134.639 138.532 134.741 138.802 134.945 139.018C135.161 139.222 135.425 139.39 135.737 139.522C136.061 139.642 136.505 139.78 137.069 139.936C137.777 140.128 138.353 140.32 138.797 140.512C139.241 140.692 139.619 140.968 139.931 141.34C140.255 141.712 140.423 142.198 140.435 142.798C140.435 143.338 140.285 143.824 139.985 144.256C139.685 144.688 139.259 145.03 138.707 145.282C138.167 145.522 137.543 145.642 136.835 145.642ZM151.92 136.966H149.85V145.48H148.212V136.966H146.934V135.616H148.212V134.914C148.212 133.81 148.494 133.006 149.058 132.502C149.634 131.986 150.552 131.728 151.812 131.728V133.096C151.092 133.096 150.582 133.24 150.282 133.528C149.994 133.804 149.85 134.266 149.85 134.914V135.616H151.92V136.966ZM155.648 137.218C155.936 136.654 156.344 136.216 156.872 135.904C157.412 135.592 158.066 135.436 158.834 135.436V137.128H158.402C156.566 137.128 155.648 138.124 155.648 140.116V145.48H154.01V135.616H155.648V137.218ZM165.207 145.642C164.283 145.642 163.443 145.432 162.687 145.012C161.943 144.592 161.355 143.998 160.923 143.23C160.503 142.45 160.293 141.55 160.293 140.53C160.293 139.522 160.509 138.634 160.941 137.866C161.385 137.086 161.985 136.492 162.741 136.084C163.497 135.664 164.343 135.454 165.279 135.454C166.215 135.454 167.061 135.664 167.817 136.084C168.573 136.492 169.167 137.08 169.599 137.848C170.043 138.616 170.265 139.51 170.265 140.53C170.265 141.55 170.037 142.45 169.581 143.23C169.137 143.998 168.531 144.592 167.763 145.012C166.995 145.432 166.143 145.642 165.207 145.642ZM165.207 144.202C165.795 144.202 166.347 144.064 166.863 143.788C167.379 143.512 167.793 143.098 168.105 142.546C168.429 141.994 168.591 141.322 168.591 140.53C168.591 139.738 168.435 139.066 168.123 138.514C167.811 137.962 167.403 137.554 166.899 137.29C166.395 137.014 165.849 136.876 165.261 136.876C164.661 136.876 164.109 137.014 163.605 137.29C163.113 137.554 162.717 137.962 162.417 138.514C162.117 139.066 161.967 139.738 161.967 140.53C161.967 141.334 162.111 142.012 162.399 142.564C162.699 143.116 163.095 143.53 163.587 143.806C164.079 144.07 164.619 144.202 165.207 144.202ZM184.461 135.436C185.229 135.436 185.913 135.598 186.513 135.922C187.113 136.234 187.587 136.708 187.935 137.344C188.283 137.98 188.457 138.754 188.457 139.666V145.48H186.837V139.9C186.837 138.916 186.591 138.166 186.099 137.65C185.619 137.122 184.965 136.858 184.137 136.858C183.285 136.858 182.607 137.134 182.103 137.686C181.599 138.226 181.347 139.012 181.347 140.044V145.48H179.727V139.9C179.727 138.916 179.481 138.166 178.989 137.65C178.509 137.122 177.855 136.858 177.027 136.858C176.175 136.858 175.497 137.134 174.993 137.686C174.489 138.226 174.237 139.012 174.237 140.044V145.48H172.599V135.616H174.237V137.038C174.561 136.522 174.993 136.126 175.533 135.85C176.085 135.574 176.691 135.436 177.351 135.436C178.179 135.436 178.911 135.622 179.547 135.994C180.183 136.366 180.657 136.912 180.969 137.632C181.245 136.936 181.701 136.396 182.337 136.012C182.973 135.628 183.681 135.436 184.461 135.436ZM198.3 136.966V142.78C198.3 143.26 198.402 143.602 198.606 143.806C198.81 143.998 199.164 144.094 199.668 144.094H200.874V145.48H199.398C198.486 145.48 197.802 145.27 197.346 144.85C196.89 144.43 196.662 143.74 196.662 142.78V136.966H195.384V135.616H196.662V133.132H198.3V135.616H200.874V136.966H198.3ZM207.935 135.436C208.679 135.436 209.351 135.598 209.951 135.922C210.551 136.234 211.019 136.708 211.355 137.344C211.703 137.98 211.877 138.754 211.877 139.666V145.48H210.257V139.9C210.257 138.916 210.011 138.166 209.519 137.65C209.027 137.122 208.355 136.858 207.503 136.858C206.639 136.858 205.949 137.128 205.433 137.668C204.929 138.208 204.677 138.994 204.677 140.026V145.48H203.039V132.16H204.677V137.02C205.001 136.516 205.445 136.126 206.009 135.85C206.585 135.574 207.227 135.436 207.935 135.436ZM219.035 145.642C218.111 145.642 217.271 145.432 216.515 145.012C215.771 144.592 215.183 143.998 214.751 143.23C214.331 142.45 214.121 141.55 214.121 140.53C214.121 139.522 214.337 138.634 214.769 137.866C215.213 137.086 215.813 136.492 216.569 136.084C217.325 135.664 218.171 135.454 219.107 135.454C220.043 135.454 220.889 135.664 221.645 136.084C222.401 136.492 222.995 137.08 223.427 137.848C223.871 138.616 224.093 139.51 224.093 140.53C224.093 141.55 223.865 142.45 223.409 143.23C222.965 143.998 222.359 144.592 221.591 145.012C220.823 145.432 219.971 145.642 219.035 145.642ZM219.035 144.202C219.623 144.202 220.175 144.064 220.691 143.788C221.207 143.512 221.621 143.098 221.933 142.546C222.257 141.994 222.419 141.322 222.419 140.53C222.419 139.738 222.263 139.066 221.951 138.514C221.639 137.962 221.231 137.554 220.727 137.29C220.223 137.014 219.677 136.876 219.089 136.876C218.489 136.876 217.937 137.014 217.433 137.29C216.941 137.554 216.545 137.962 216.245 138.514C215.945 139.066 215.795 139.738 215.795 140.53C215.795 141.334 215.939 142.012 216.227 142.564C216.527 143.116 216.923 143.53 217.415 143.806C217.907 144.07 218.447 144.202 219.035 144.202ZM229.918 145.642C229.162 145.642 228.484 145.516 227.884 145.264C227.284 145 226.81 144.64 226.462 144.184C226.114 143.716 225.922 143.182 225.886 142.582H227.578C227.626 143.074 227.854 143.476 228.262 143.788C228.682 144.1 229.228 144.256 229.9 144.256C230.524 144.256 231.016 144.118 231.376 143.842C231.736 143.566 231.916 143.218 231.916 142.798C231.916 142.366 231.724 142.048 231.34 141.844C230.956 141.628 230.362 141.418 229.558 141.214C228.826 141.022 228.226 140.83 227.758 140.638C227.302 140.434 226.906 140.14 226.57 139.756C226.246 139.36 226.084 138.844 226.084 138.208C226.084 137.704 226.234 137.242 226.534 136.822C226.834 136.402 227.26 136.072 227.812 135.832C228.364 135.58 228.994 135.454 229.702 135.454C230.794 135.454 231.676 135.73 232.348 136.282C233.02 136.834 233.38 137.59 233.428 138.55H231.79C231.754 138.034 231.544 137.62 231.16 137.308C230.788 136.996 230.284 136.84 229.648 136.84C229.06 136.84 228.592 136.966 228.244 137.218C227.896 137.47 227.722 137.8 227.722 138.208C227.722 138.532 227.824 138.802 228.028 139.018C228.244 139.222 228.508 139.39 228.82 139.522C229.144 139.642 229.588 139.78 230.152 139.936C230.86 140.128 231.436 140.32 231.88 140.512C232.324 140.692 232.702 140.968 233.014 141.34C233.338 141.712 233.506 142.198 233.518 142.798C233.518 143.338 233.368 143.824 233.068 144.256C232.768 144.688 232.342 145.03 231.79 145.282C231.25 145.522 230.626 145.642 229.918 145.642ZM245.011 140.17C245.011 140.482 244.993 140.812 244.957 141.16H237.073C237.133 142.132 237.463 142.894 238.063 143.446C238.675 143.986 239.413 144.256 240.277 144.256C240.985 144.256 241.573 144.094 242.041 143.77C242.521 143.434 242.857 142.99 243.049 142.438H244.813C244.549 143.386 244.021 144.16 243.229 144.76C242.437 145.348 241.453 145.642 240.277 145.642C239.341 145.642 238.501 145.432 237.757 145.012C237.025 144.592 236.449 143.998 236.029 143.23C235.609 142.45 235.399 141.55 235.399 140.53C235.399 139.51 235.603 138.616 236.011 137.848C236.419 137.08 236.989 136.492 237.721 136.084C238.465 135.664 239.317 135.454 240.277 135.454C241.213 135.454 242.041 135.658 242.761 136.066C243.481 136.474 244.033 137.038 244.417 137.758C244.813 138.466 245.011 139.27 245.011 140.17ZM243.319 139.828C243.319 139.204 243.181 138.67 242.905 138.226C242.629 137.77 242.251 137.428 241.771 137.2C241.303 136.96 240.781 136.84 240.205 136.84C239.377 136.84 238.669 137.104 238.081 137.632C237.505 138.16 237.175 138.892 237.091 139.828H243.319ZM256.634 145.642C255.71 145.642 254.87 145.432 254.114 145.012C253.37 144.592 252.782 143.998 252.35 143.23C251.93 142.45 251.72 141.55 251.72 140.53C251.72 139.522 251.936 138.634 252.368 137.866C252.812 137.086 253.412 136.492 254.168 136.084C254.924 135.664 255.77 135.454 256.706 135.454C257.642 135.454 258.488 135.664 259.244 136.084C260 136.492 260.594 137.08 261.026 137.848C261.47 138.616 261.692 139.51 261.692 140.53C261.692 141.55 261.464 142.45 261.008 143.23C260.564 143.998 259.958 144.592 259.19 145.012C258.422 145.432 257.57 145.642 256.634 145.642ZM256.634 144.202C257.222 144.202 257.774 144.064 258.29 143.788C258.806 143.512 259.22 143.098 259.532 142.546C259.856 141.994 260.018 141.322 260.018 140.53C260.018 139.738 259.862 139.066 259.55 138.514C259.238 137.962 258.83 137.554 258.326 137.29C257.822 137.014 257.276 136.876 256.688 136.876C256.088 136.876 255.536 137.014 255.032 137.29C254.54 137.554 254.144 137.962 253.844 138.514C253.544 139.066 253.394 139.738 253.394 140.53C253.394 141.334 253.538 142.012 253.826 142.564C254.126 143.116 254.522 143.53 255.014 143.806C255.506 144.07 256.046 144.202 256.634 144.202ZM268.039 136.966H265.969V145.48H264.331V136.966H263.053V135.616H264.331V134.914C264.331 133.81 264.613 133.006 265.177 132.502C265.753 131.986 266.671 131.728 267.931 131.728V133.096C267.211 133.096 266.701 133.24 266.401 133.528C266.113 133.804 265.969 134.266 265.969 134.914V135.616H268.039V136.966ZM71.188 172.642C70.264 172.642 69.424 172.432 68.668 172.012C67.924 171.592 67.336 170.998 66.904 170.23C66.484 169.45 66.274 168.55 66.274 167.53C66.274 166.522 66.49 165.634 66.922 164.866C67.366 164.086 67.966 163.492 68.722 163.084C69.478 162.664 70.324 162.454 71.26 162.454C72.196 162.454 73.042 162.664 73.798 163.084C74.554 163.492 75.148 164.08 75.58 164.848C76.024 165.616 76.246 166.51 76.246 167.53C76.246 168.55 76.018 169.45 75.562 170.23C75.118 170.998 74.512 171.592 73.744 172.012C72.976 172.432 72.124 172.642 71.188 172.642ZM71.188 171.202C71.776 171.202 72.328 171.064 72.844 170.788C73.36 170.512 73.774 170.098 74.086 169.546C74.41 168.994 74.572 168.322 74.572 167.53C74.572 166.738 74.416 166.066 74.104 165.514C73.792 164.962 73.384 164.554 72.88 164.29C72.376 164.014 71.83 163.876 71.242 163.876C70.642 163.876 70.09 164.014 69.586 164.29C69.094 164.554 68.698 164.962 68.398 165.514C68.098 166.066 67.948 166.738 67.948 167.53C67.948 168.334 68.092 169.012 68.38 169.564C68.68 170.116 69.076 170.53 69.568 170.806C70.06 171.07 70.6 171.202 71.188 171.202ZM80.5777 163.966V169.78C80.5777 170.26 80.6797 170.602 80.8837 170.806C81.0877 170.998 81.4417 171.094 81.9457 171.094H83.1517V172.48H81.6757C80.7637 172.48 80.0797 172.27 79.6237 171.85C79.1677 171.43 78.9397 170.74 78.9397 169.78V163.966H77.6617V162.616H78.9397V160.132H80.5777V162.616H83.1517V163.966H80.5777ZM90.2123 162.436C90.9563 162.436 91.6283 162.598 92.2283 162.922C92.8283 163.234 93.2963 163.708 93.6323 164.344C93.9803 164.98 94.1543 165.754 94.1543 166.666V172.48H92.5343V166.9C92.5343 165.916 92.2883 165.166 91.7963 164.65C91.3043 164.122 90.6323 163.858 89.7803 163.858C88.9163 163.858 88.2263 164.128 87.7103 164.668C87.2063 165.208 86.9543 165.994 86.9543 167.026V172.48H85.3163V159.16H86.9543V164.02C87.2783 163.516 87.7223 163.126 88.2863 162.85C88.8623 162.574 89.5043 162.436 90.2123 162.436ZM106.01 167.17C106.01 167.482 105.992 167.812 105.956 168.16H98.072C98.132 169.132 98.462 169.894 99.062 170.446C99.674 170.986 100.412 171.256 101.276 171.256C101.984 171.256 102.572 171.094 103.04 170.77C103.52 170.434 103.856 169.99 104.048 169.438H105.812C105.548 170.386 105.02 171.16 104.228 171.76C103.436 172.348 102.452 172.642 101.276 172.642C100.34 172.642 99.5 172.432 98.756 172.012C98.024 171.592 97.448 170.998 97.028 170.23C96.608 169.45 96.398 168.55 96.398 167.53C96.398 166.51 96.602 165.616 97.01 164.848C97.418 164.08 97.988 163.492 98.72 163.084C99.464 162.664 100.316 162.454 101.276 162.454C102.212 162.454 103.04 162.658 103.76 163.066C104.48 163.474 105.032 164.038 105.416 164.758C105.812 165.466 106.01 166.27 106.01 167.17ZM104.318 166.828C104.318 166.204 104.18 165.67 103.904 165.226C103.628 164.77 103.25 164.428 102.77 164.2C102.302 163.96 101.78 163.84 101.204 163.84C100.376 163.84 99.668 164.104 99.08 164.632C98.504 165.16 98.174 165.892 98.09 166.828H104.318ZM109.99 164.218C110.278 163.654 110.686 163.216 111.214 162.904C111.754 162.592 112.408 162.436 113.176 162.436V164.128H112.744C110.908 164.128 109.99 165.124 109.99 167.116V172.48H108.352V162.616H109.99V164.218ZM133.366 162.616L130.288 172.48H128.596L126.22 164.65L123.844 172.48H122.152L119.056 162.616H120.73L122.998 170.896L125.446 162.616H127.12L129.514 170.914L131.746 162.616H133.366ZM144.171 167.17C144.171 167.482 144.153 167.812 144.117 168.16H136.233C136.293 169.132 136.623 169.894 137.223 170.446C137.835 170.986 138.573 171.256 139.437 171.256C140.145 171.256 140.733 171.094 141.201 170.77C141.681 170.434 142.017 169.99 142.209 169.438H143.973C143.709 170.386 143.181 171.16 142.389 171.76C141.597 172.348 140.613 172.642 139.437 172.642C138.501 172.642 137.661 172.432 136.917 172.012C136.185 171.592 135.609 170.998 135.189 170.23C134.769 169.45 134.559 168.55 134.559 167.53C134.559 166.51 134.763 165.616 135.171 164.848C135.579 164.08 136.149 163.492 136.881 163.084C137.625 162.664 138.477 162.454 139.437 162.454C140.373 162.454 141.201 162.658 141.921 163.066C142.641 163.474 143.193 164.038 143.577 164.758C143.973 165.466 144.171 166.27 144.171 167.17ZM142.479 166.828C142.479 166.204 142.341 165.67 142.065 165.226C141.789 164.77 141.411 164.428 140.931 164.2C140.463 163.96 139.941 163.84 139.365 163.84C138.537 163.84 137.829 164.104 137.241 164.632C136.665 165.16 136.335 165.892 136.251 166.828H142.479ZM148.152 164.452C148.488 163.864 148.98 163.384 149.628 163.012C150.276 162.64 151.014 162.454 151.842 162.454C152.73 162.454 153.528 162.664 154.236 163.084C154.944 163.504 155.502 164.098 155.91 164.866C156.318 165.622 156.522 166.504 156.522 167.512C156.522 168.508 156.318 169.396 155.91 170.176C155.502 170.956 154.938 171.562 154.218 171.994C153.51 172.426 152.718 172.642 151.842 172.642C150.99 172.642 150.24 172.456 149.592 172.084C148.956 171.712 148.476 171.238 148.152 170.662V172.48H146.514V159.16H148.152V164.452ZM154.848 167.512C154.848 166.768 154.698 166.12 154.398 165.568C154.098 165.016 153.69 164.596 153.174 164.308C152.67 164.02 152.112 163.876 151.5 163.876C150.9 163.876 150.342 164.026 149.826 164.326C149.322 164.614 148.914 165.04 148.602 165.604C148.302 166.156 148.152 166.798 148.152 167.53C148.152 168.274 148.302 168.928 148.602 169.492C148.914 170.044 149.322 170.47 149.826 170.77C150.342 171.058 150.9 171.202 151.5 171.202C152.112 171.202 152.67 171.058 153.174 170.77C153.69 170.47 154.098 170.044 154.398 169.492C154.698 168.928 154.848 168.268 154.848 167.512ZM162.35 172.642C161.594 172.642 160.916 172.516 160.316 172.264C159.716 172 159.242 171.64 158.894 171.184C158.546 170.716 158.354 170.182 158.318 169.582H160.01C160.058 170.074 160.286 170.476 160.694 170.788C161.114 171.1 161.66 171.256 162.332 171.256C162.956 171.256 163.448 171.118 163.808 170.842C164.168 170.566 164.348 170.218 164.348 169.798C164.348 169.366 164.156 169.048 163.772 168.844C163.388 168.628 162.794 168.418 161.99 168.214C161.258 168.022 160.658 167.83 160.19 167.638C159.734 167.434 159.338 167.14 159.002 166.756C158.678 166.36 158.516 165.844 158.516 165.208C158.516 164.704 158.666 164.242 158.966 163.822C159.266 163.402 159.692 163.072 160.244 162.832C160.796 162.58 161.426 162.454 162.134 162.454C163.226 162.454 164.108 162.73 164.78 163.282C165.452 163.834 165.812 164.59 165.86 165.55H164.222C164.186 165.034 163.976 164.62 163.592 164.308C163.22 163.996 162.716 163.84 162.08 163.84C161.492 163.84 161.024 163.966 160.676 164.218C160.328 164.47 160.154 164.8 160.154 165.208C160.154 165.532 160.256 165.802 160.46 166.018C160.676 166.222 160.94 166.39 161.252 166.522C161.576 166.642 162.02 166.78 162.584 166.936C163.292 167.128 163.868 167.32 164.312 167.512C164.756 167.692 165.134 167.968 165.446 168.34C165.77 168.712 165.938 169.198 165.95 169.798C165.95 170.338 165.8 170.824 165.5 171.256C165.2 171.688 164.774 172.03 164.222 172.282C163.682 172.522 163.058 172.642 162.35 172.642ZM169.288 161.014C168.976 161.014 168.712 160.906 168.496 160.69C168.28 160.474 168.172 160.21 168.172 159.898C168.172 159.586 168.28 159.322 168.496 159.106C168.712 158.89 168.976 158.782 169.288 158.782C169.588 158.782 169.84 158.89 170.044 159.106C170.26 159.322 170.368 159.586 170.368 159.898C170.368 160.21 170.26 160.474 170.044 160.69C169.84 160.906 169.588 161.014 169.288 161.014ZM170.08 162.616V172.48H168.442V162.616H170.08ZM175.05 163.966V169.78C175.05 170.26 175.152 170.602 175.356 170.806C175.56 170.998 175.914 171.094 176.418 171.094H177.624V172.48H176.148C175.236 172.48 174.552 172.27 174.096 171.85C173.64 171.43 173.412 170.74 173.412 169.78V163.966H172.134V162.616H173.412V160.132H175.05V162.616H177.624V163.966H175.05ZM188.788 167.17C188.788 167.482 188.77 167.812 188.734 168.16H180.85C180.91 169.132 181.24 169.894 181.84 170.446C182.452 170.986 183.19 171.256 184.054 171.256C184.762 171.256 185.35 171.094 185.818 170.77C186.298 170.434 186.634 169.99 186.826 169.438H188.59C188.326 170.386 187.798 171.16 187.006 171.76C186.214 172.348 185.23 172.642 184.054 172.642C183.118 172.642 182.278 172.432 181.534 172.012C180.802 171.592 180.226 170.998 179.806 170.23C179.386 169.45 179.176 168.55 179.176 167.53C179.176 166.51 179.38 165.616 179.788 164.848C180.196 164.08 180.766 163.492 181.498 163.084C182.242 162.664 183.094 162.454 184.054 162.454C184.99 162.454 185.818 162.658 186.538 163.066C187.258 163.474 187.81 164.038 188.194 164.758C188.59 165.466 188.788 166.27 188.788 167.17ZM187.096 166.828C187.096 166.204 186.958 165.67 186.682 165.226C186.406 164.77 186.028 164.428 185.548 164.2C185.08 163.96 184.558 163.84 183.982 163.84C183.154 163.84 182.446 164.104 181.858 164.632C181.282 165.16 180.952 165.892 180.868 166.828H187.096ZM194.622 172.642C193.866 172.642 193.188 172.516 192.588 172.264C191.988 172 191.514 171.64 191.166 171.184C190.818 170.716 190.626 170.182 190.59 169.582H192.282C192.33 170.074 192.558 170.476 192.966 170.788C193.386 171.1 193.932 171.256 194.604 171.256C195.228 171.256 195.72 171.118 196.08 170.842C196.44 170.566 196.62 170.218 196.62 169.798C196.62 169.366 196.428 169.048 196.044 168.844C195.66 168.628 195.066 168.418 194.262 168.214C193.53 168.022 192.93 167.83 192.462 167.638C192.006 167.434 191.61 167.14 191.274 166.756C190.95 166.36 190.788 165.844 190.788 165.208C190.788 164.704 190.938 164.242 191.238 163.822C191.538 163.402 191.964 163.072 192.516 162.832C193.068 162.58 193.698 162.454 194.406 162.454C195.498 162.454 196.38 162.73 197.052 163.282C197.724 163.834 198.084 164.59 198.132 165.55H196.494C196.458 165.034 196.248 164.62 195.864 164.308C195.492 163.996 194.988 163.84 194.352 163.84C193.764 163.84 193.296 163.966 192.948 164.218C192.6 164.47 192.426 164.8 192.426 165.208C192.426 165.532 192.528 165.802 192.732 166.018C192.948 166.222 193.212 166.39 193.524 166.522C193.848 166.642 194.292 166.78 194.856 166.936C195.564 167.128 196.14 167.32 196.584 167.512C197.028 167.692 197.406 167.968 197.718 168.34C198.042 168.712 198.21 169.198 198.222 169.798C198.222 170.338 198.072 170.824 197.772 171.256C197.472 171.688 197.046 172.03 196.494 172.282C195.954 172.522 195.33 172.642 194.622 172.642ZM203.919 159.772C205.107 159.772 206.067 160.108 206.799 160.78C207.531 161.452 207.897 162.352 207.897 163.48C207.897 164.74 207.507 165.676 206.727 166.288C205.947 166.888 204.891 167.188 203.559 167.188L203.505 168.898H202.083L202.011 166.054H202.533C203.721 166.054 204.651 165.874 205.323 165.514C205.995 165.154 206.331 164.476 206.331 163.48C206.331 162.76 206.115 162.19 205.683 161.77C205.251 161.35 204.669 161.14 203.937 161.14C203.193 161.14 202.605 161.344 202.173 161.752C201.753 162.148 201.543 162.694 201.543 163.39H199.995C199.995 162.67 200.157 162.04 200.481 161.5C200.805 160.948 201.261 160.522 201.849 160.222C202.449 159.922 203.139 159.772 203.919 159.772ZM202.785 172.588C202.473 172.588 202.209 172.48 201.993 172.264C201.777 172.048 201.669 171.784 201.669 171.472C201.669 171.16 201.777 170.896 201.993 170.68C202.209 170.464 202.473 170.356 202.785 170.356C203.085 170.356 203.337 170.464 203.541 170.68C203.757 170.896 203.865 171.16 203.865 171.472C203.865 171.784 203.757 172.048 203.541 172.264C203.337 172.48 203.085 172.588 202.785 172.588Z" fill="#0A0A0A"/>
</svg>
