<svg width="51" height="50" viewBox="0 0 51 50" fill="none" xmlns="http://www.w3.org/2000/svg">
<path d="M24.9284 42.1441V11.287M24.9284 42.1441L21.8919 39.1077C20.1773 37.3931 17.8528 36.4298 15.428 36.4298H7.78351C6.52115 36.4298 5.49979 35.4065 5.49979 34.1441V10.1441C5.49979 8.88175 6.52314 7.8584 7.7855 7.8584H16.5698C18.9947 7.8584 21.3202 8.82166 23.0348 10.5363L24.9284 12.4298L26.8219 10.5363C28.5365 8.82166 30.862 7.8584 33.2869 7.8584H43.2141C44.4764 7.8584 45.4998 8.88175 45.4998 10.1441V34.1441C45.4998 35.4065 44.4764 36.4298 43.2141 36.4298H34.4297C32.0049 36.4298 29.6794 37.3931 27.9648 39.1077L24.9284 42.1441Z" stroke="#0A0A0A" stroke-width="2.5" stroke-linecap="round" stroke-linejoin="round"/>
</svg>
