<svg width="50" height="50" viewBox="0 0 50 50" fill="none" xmlns="http://www.w3.org/2000/svg">
<path d="M24.4283 42.1431V11.286M24.4283 42.1431L21.3919 39.1067C19.6773 37.3921 17.3528 36.4289 14.928 36.4289H7.28348C6.02112 36.4289 4.99976 35.4055 4.99976 34.1431V10.1431C4.99976 8.88077 6.0231 7.85742 7.28547 7.85742H16.0698C18.4946 7.85742 20.8202 8.82068 22.5348 10.5353L24.4283 12.4289L26.3219 10.5353C28.0365 8.82069 30.362 7.85742 32.7868 7.85742H42.714C43.9764 7.85742 44.9997 8.88077 44.9997 10.1431V34.1431C44.9997 35.4055 43.9764 36.4289 42.714 36.4289H33.9297C31.5049 36.4289 29.1794 37.3921 27.4647 39.1067L24.4283 42.1431Z" stroke="#0A0A0A" stroke-width="2.5" stroke-linecap="round" stroke-linejoin="round"/>
</svg>
