<svg width="66" height="66" viewBox="0 0 66 66" fill="none" xmlns="http://www.w3.org/2000/svg">
<path d="M32.2458 55.6287V14.8973M32.2458 55.6287L28.2378 51.6207C25.9745 49.3574 22.9061 48.0859 19.7054 48.0859H9.61461C7.94829 48.0859 6.6001 46.7351 6.6001 45.0687V13.3887C6.6001 11.7224 7.95092 10.3716 9.61724 10.3716H21.2126C24.4133 10.3716 27.483 11.6431 29.7463 13.9064L32.2458 16.4059L34.7453 13.9064C37.0086 11.6431 40.0783 10.3716 43.2791 10.3716H56.3829C58.0493 10.3716 59.4001 11.7224 59.4001 13.3887V45.0687C59.4001 46.7351 58.0493 48.0859 56.3829 48.0859H44.7876C41.5868 48.0859 38.5172 49.3574 36.2539 51.6207L32.2458 55.6287Z" stroke="#0A0A0A" stroke-width="2.5" stroke-linecap="round" stroke-linejoin="round"/>
</svg>
