<svg width="42" height="43" viewBox="0 0 42 43" fill="none" xmlns="http://www.w3.org/2000/svg">
<path d="M20.5192 36.3234V10.4034M20.5192 36.3234L17.9686 33.7729C16.5284 32.3326 14.5758 31.5234 12.5389 31.5234H6.11755C5.05716 31.5234 4.19922 30.6638 4.19922 29.6034V9.44344C4.19922 8.38305 5.05883 7.52344 6.11922 7.52344H13.4981C15.5349 7.52344 17.4884 8.33258 18.9286 9.77286L20.5192 11.3634L22.1098 9.77286C23.5501 8.33258 25.5035 7.52344 27.5404 7.52344H35.8792C36.9396 7.52344 37.7992 8.38305 37.7992 9.44344V29.6034C37.7992 30.6638 36.9396 31.5234 35.8792 31.5234H28.5004C26.4635 31.5234 24.5101 32.3326 23.0698 33.7729L20.5192 36.3234Z" stroke="#0A0A0A" stroke-width="1.3" stroke-linecap="round" stroke-linejoin="round"/>
</svg>
