<svg width="27" height="28" viewBox="0 0 27 28" fill="none" xmlns="http://www.w3.org/2000/svg">
<path d="M12.2516 3.61424C12.6802 2.45606 14.3183 2.45606 14.7468 3.61424L16.88 9.3789C17.0147 9.74303 17.3018 10.0301 17.6659 10.1649L23.4306 12.298C24.5888 12.7265 24.5888 14.3647 23.4306 14.7932L17.6659 16.9263C17.3018 17.0611 17.0147 17.3482 16.88 17.7123L14.7468 23.477C14.3183 24.6352 12.6802 24.6352 12.2516 23.477L10.1185 17.7123C9.98374 17.3482 9.69664 17.0611 9.33251 16.9263L3.56786 14.7932C2.40967 14.3647 2.40967 12.7265 3.56786 12.298L9.33251 10.1649C9.69664 10.0301 9.98374 9.74303 10.1185 9.3789L12.2516 3.61424Z" fill="#705429"/>
</svg>
