<svg width="27" height="28" viewBox="0 0 27 28" fill="none" xmlns="http://www.w3.org/2000/svg">
<path d="M8.10312 6.93336V7.93336C8.45879 7.93336 8.78769 7.74445 8.9669 7.43723L8.10312 6.93336ZM9.99312 3.69336V2.69336C9.63746 2.69336 9.30856 2.88227 9.12934 3.18949L9.99312 3.69336ZM17.0131 3.69336L17.8769 3.18949C17.6977 2.88227 17.3688 2.69336 17.0131 2.69336V3.69336ZM18.9031 6.93336L18.0393 7.43723C18.2186 7.74445 18.5475 7.93336 18.9031 7.93336V6.93336ZM3.70312 20.7034V9.63336H1.70312V20.7034H3.70312ZM5.40312 7.93336H8.10312V5.93336H5.40312V7.93336ZM8.9669 7.43723L10.8569 4.19723L9.12934 3.18949L7.23935 6.42949L8.9669 7.43723ZM9.99312 4.69336H17.0131V2.69336H9.99312V4.69336ZM16.1493 4.19723L18.0393 7.43723L19.7669 6.42949L17.8769 3.18949L16.1493 4.19723ZM18.9031 7.93336H21.6031V5.93336H18.9031V7.93336ZM23.3031 9.63336V20.7034H25.3031V9.63336H23.3031ZM23.3031 20.7034C23.3031 21.6422 22.542 22.4034 21.6031 22.4034V24.4034C23.6466 24.4034 25.3031 22.7468 25.3031 20.7034H23.3031ZM21.6031 7.93336C22.542 7.93336 23.3031 8.69447 23.3031 9.63336H25.3031C25.3031 7.58991 23.6466 5.93336 21.6031 5.93336V7.93336ZM3.70312 9.63336C3.70312 8.69447 4.46424 7.93336 5.40312 7.93336V5.93336C3.35967 5.93336 1.70312 7.5899 1.70312 9.63336H3.70312ZM5.40312 22.4034C4.46424 22.4034 3.70312 21.6422 3.70312 20.7034H1.70312C1.70312 22.7468 3.35967 24.4034 5.40312 24.4034V22.4034ZM16.5531 14.4934C16.5531 16.1778 15.1876 17.5434 13.5031 17.5434V19.5434C16.2922 19.5434 18.5531 17.2824 18.5531 14.4934H16.5531ZM13.5031 17.5434C11.8187 17.5434 10.4531 16.1778 10.4531 14.4934H8.45312C8.45312 17.2824 10.7141 19.5434 13.5031 19.5434V17.5434ZM10.4531 14.4934C10.4531 12.8089 11.8187 11.4434 13.5031 11.4434V9.44336C10.7141 9.44336 8.45312 11.7043 8.45312 14.4934H10.4531ZM13.5031 11.4434C15.1876 11.4434 16.5531 12.8089 16.5531 14.4934H18.5531C18.5531 11.7043 16.2922 9.44336 13.5031 9.44336V11.4434ZM21.6031 22.4034H5.40312V24.4034H21.6031V22.4034Z" fill="#0A0A0A"/>
</svg>
