<svg width="66" height="67" viewBox="0 0 66 67" fill="none" xmlns="http://www.w3.org/2000/svg">
<path d="M6.6001 7.08984C5.90974 7.08984 5.3501 7.64949 5.3501 8.33984C5.3501 9.0302 5.90974 9.58984 6.6001 9.58984V7.08984ZM12.9046 8.33984L14.1111 8.01307C13.9635 7.4682 13.4691 7.08984 12.9046 7.08984V8.33984ZM23.1493 46.1667L21.9428 46.4935C22.1056 47.0947 22.6863 47.4843 23.3044 47.4071L23.1493 46.1667ZM54.6717 42.2264L54.8268 43.4668C55.3576 43.4004 55.7874 43.0036 55.8958 42.4797L54.6717 42.2264ZM59.4001 19.3727L60.6242 19.6259C60.7003 19.2578 60.6068 18.8749 60.3694 18.5834C60.132 18.2919 59.776 18.1227 59.4001 18.1227V19.3727ZM15.8926 19.3727L14.6861 19.6994V19.6995L15.8926 19.3727ZM6.6001 9.58984H12.9046V7.08984H6.6001V9.58984ZM23.3044 47.4071L54.8268 43.4668L54.5167 40.9861L22.9943 44.9264L23.3044 47.4071ZM55.8958 42.4797L60.6242 19.6259L58.176 19.1194L53.4476 41.9732L55.8958 42.4797ZM11.698 8.66661L14.6861 19.6994L17.0992 19.0459L14.1111 8.01307L11.698 8.66661ZM14.6861 19.6995L21.9428 46.4935L24.3559 45.8399L17.0992 19.0459L14.6861 19.6995ZM59.4001 18.1227H15.8926V20.6227H59.4001V18.1227ZM31.7501 56.4848C31.7501 58.0727 30.4629 59.3598 28.8751 59.3598V61.8598C31.8436 61.8598 34.2501 59.4534 34.2501 56.4848H31.7501ZM28.8751 59.3598C27.2873 59.3598 26.0001 58.0727 26.0001 56.4848H23.5001C23.5001 59.4534 25.9066 61.8598 28.8751 61.8598V59.3598ZM26.0001 56.4848C26.0001 54.897 27.2873 53.6098 28.8751 53.6098V51.1098C25.9066 51.1098 23.5001 53.5163 23.5001 56.4848H26.0001ZM28.8751 53.6098C30.4629 53.6098 31.7501 54.897 31.7501 56.4848H34.2501C34.2501 53.5163 31.8436 51.1098 28.8751 51.1098V53.6098ZM53.7501 56.4848C53.7501 58.0727 52.4629 59.3598 50.8751 59.3598V61.8598C53.8436 61.8598 56.2501 59.4534 56.2501 56.4848H53.7501ZM50.8751 59.3598C49.2873 59.3598 48.0001 58.0727 48.0001 56.4848H45.5001C45.5001 59.4534 47.9066 61.8598 50.8751 61.8598V59.3598ZM48.0001 56.4848C48.0001 54.897 49.2873 53.6098 50.8751 53.6098V51.1098C47.9066 51.1098 45.5001 53.5163 45.5001 56.4848H48.0001ZM50.8751 53.6098C52.4629 53.6098 53.7501 54.897 53.7501 56.4848H56.2501C56.2501 53.5163 53.8436 51.1098 50.8751 51.1098V53.6098Z" fill="#0A0A0A"/>
</svg>
