<svg width="51" height="50" viewBox="0 0 51 50" fill="none" xmlns="http://www.w3.org/2000/svg">
<path d="M41.75 32.498C41.75 33.1884 42.3096 33.748 43 33.748C43.6904 33.748 44.25 33.1884 44.25 32.498H41.75ZM6.75 32.498C6.75 33.1884 7.30964 33.748 8 33.748C8.69036 33.748 9.25 33.1884 9.25 32.498H6.75ZM12.375 9.99805H38.625V7.49805H12.375V9.99805ZM41.75 12.9788V32.498H44.25V12.9788H41.75ZM9.25 32.498V12.9788H6.75V32.498H9.25ZM38.625 9.99805C40.3907 9.99805 41.75 11.3717 41.75 12.9788H44.25C44.25 9.9127 41.6918 7.49805 38.625 7.49805V9.99805ZM12.375 7.49805C9.30823 7.49805 6.75 9.9127 6.75 12.9788H9.25C9.25 11.3717 10.6093 9.99805 12.375 9.99805V7.49805ZM8 34.998H43V32.498H8V34.998ZM44.25 36.248V38.748H46.75V36.248H44.25ZM43 39.998H8V42.498H43V39.998ZM6.75 38.748V36.248H4.25V38.748H6.75ZM8 39.998C7.30964 39.998 6.75 39.4384 6.75 38.748H4.25C4.25 40.8191 5.92893 42.498 8 42.498V39.998ZM44.25 38.748C44.25 39.4384 43.6904 39.998 43 39.998V42.498C45.0711 42.498 46.75 40.8191 46.75 38.748H44.25ZM43 34.998C43.6904 34.998 44.25 35.5577 44.25 36.248H46.75C46.75 34.177 45.0711 32.498 43 32.498V34.998ZM8 32.498C5.92893 32.498 4.25 34.177 4.25 36.248H6.75C6.75 35.5577 7.30964 34.998 8 34.998V32.498Z" fill="#0A0A0A"/>
</svg>
