<svg width="62" height="112" viewBox="0 0 62 112" fill="none" xmlns="http://www.w3.org/2000/svg">
<path d="M52.6274 0.443109C53.7459 0.445723 54.9175 0.665607 56.066 0.826527C57.2145 0.987446 58.498 1.02724 59.6522 1.9683C60.3757 2.5514 60.9045 3.43212 61.1529 4.47408C61.2002 4.67659 61.2232 4.87165 61.231 5.05566C61.4616 6.32573 60.9925 7.42855 60.147 7.57376C59.462 7.68991 58.7059 7.18773 58.1537 6.38424C57.2181 6.1907 56.2893 6.09652 55.3733 5.98031C55.3826 5.97665 55.3919 5.97299 55.3919 5.97299C55.3582 5.96924 55.3338 5.96178 55.3058 5.97276C55.2814 5.96535 55.2721 5.96906 55.2477 5.96164C55.2291 5.96896 55.2047 5.96152 55.1896 5.95045L55.1989 5.94679C55.1896 5.95044 55.1803 5.95408 55.1559 5.94667C55.1559 5.94667 55.1466 5.95031 55.1408 5.93558C54.3224 5.84903 53.5214 5.80669 52.7249 5.83058C51.9028 5.89857 51.1074 6.00715 50.3223 6.19667C49.9664 6.30255 49.6371 6.44898 49.2986 6.59905C48.4701 7.06078 47.6763 7.61082 46.9185 8.19781C45.6612 9.23625 44.3888 10.2637 43.2081 11.4422C42.5688 12.0846 41.8784 12.6791 41.2681 13.3952C40.6612 14.0929 40.0509 14.8091 39.4592 15.5179C38.8393 16.3739 38.2102 17.2335 37.5961 18.1042C37.2816 18.534 37.011 19.0485 36.7138 19.5225C36.4423 19.9524 36.1672 20.4007 35.8863 20.8342C35.0795 22.3079 34.3006 23.7707 33.5564 25.3219C32.7959 26.9135 32.0958 28.5493 31.4015 30.1999C30.9928 31.3471 30.5899 32.5089 30.1812 33.6561C29.9733 34.2481 29.8165 34.888 29.6388 35.5021C29.4612 36.1162 29.2777 36.7155 29.1 37.3297C28.6777 39.0435 28.2623 40.7205 27.9155 42.4897C27.5324 44.3581 27.2225 46.2488 26.915 48.1726C26.6161 50.5012 26.3474 52.852 26.1031 55.2102C25.8776 57.4249 25.8066 59.732 25.7298 62.0243C25.7192 63.6103 25.7087 65.1963 25.762 66.8081C25.8083 68.4568 25.9069 70.102 26.0113 71.7618C26.159 73.2856 26.3066 74.8093 26.5066 76.3296C26.7043 77.8167 26.9299 79.2929 27.1671 80.7985C27.8369 84.4982 28.4846 88.2237 29.4125 91.9241C29.3848 91.7989 29.3628 91.6884 29.3258 91.5669C29.49 92.1487 29.6635 92.7268 29.8464 93.3013C30.1948 94.2699 30.5619 95.2312 30.9627 96.1963C31.5279 97.607 31.2245 99.1039 30.3403 99.4514C29.4282 99.8099 28.2391 98.9166 27.6681 97.4912C26.7288 95.156 25.8848 92.8173 25.3502 90.3911C24.7141 87.4605 24.1512 84.5521 23.6348 81.6255C23.131 78.8129 22.6982 75.9895 22.4212 73.2069C22.2574 71.5874 22.1389 70.0011 22.0297 68.4112C21.9389 66.9501 21.9121 65.515 21.8609 64.0723C21.8489 63.5498 21.8613 63.0346 21.8586 62.5084C21.8656 61.7062 21.8483 60.8966 21.8798 60.1019C21.9224 58.8435 21.9406 57.5777 22.0227 56.3378C22.2234 53.6225 22.4392 50.9184 22.7734 48.2697C23.4641 42.9466 24.3697 37.7602 25.7757 32.9724C26.4688 30.6079 27.1805 28.2361 28.093 26.0745C28.5458 25.0121 28.9719 23.9091 29.4606 22.8836C29.9493 21.8581 30.4149 20.7736 30.9454 19.7997C31.5272 18.7376 32.0614 17.6092 32.685 16.5987C33.2701 15.6543 33.861 14.7247 34.4461 13.7804C34.7119 13.3357 35.0439 12.9501 35.3363 12.546C35.6672 12.0758 36.004 11.6203 36.3442 11.1464C36.6401 10.7239 36.9895 10.3825 37.3121 10.0006C37.6918 9.54515 38.0867 9.10087 38.4664 8.64546C39.0197 8.00279 39.6472 7.46699 40.2329 6.87959C40.7522 6.36932 41.2982 5.89957 41.8327 5.40038C43.4533 3.94697 45.1135 2.51199 46.9567 1.51539C47.2371 1.35414 47.5291 1.22238 47.827 1.10533C49.3055 0.575216 50.9625 0.41713 52.6274 0.443109Z" fill="black"/>
<path d="M55.178 5.92095L55.1687 5.92461C55.1687 5.92461 55.1687 5.92461 55.1594 5.92827C55.1687 5.92461 55.1687 5.92461 55.178 5.92095Z" fill="black"/>
<path d="M55.2024 5.92838L55.1931 5.93204C55.1931 5.93204 55.1931 5.93204 55.2024 5.92838Z" fill="black"/>
<path d="M55.3187 5.95079C55.3431 5.9582 55.3617 5.95083 55.3768 5.9619C55.3524 5.95449 55.3373 5.94347 55.3187 5.95079Z" fill="black"/>
<path d="M3.97176 67.3276C4.00071 67.4013 4.02389 67.4602 4.05636 67.5155C5.75385 71.2876 7.68298 74.8836 9.58647 78.5237C10.5556 80.3879 11.4781 82.2704 12.4344 84.1567C13.4464 86.1572 14.4804 88.1321 15.5296 90.1179C16.1314 91.1571 16.7332 92.1962 17.3293 93.2205C17.6215 93.718 17.9394 94.1713 18.2537 94.6431C18.5646 95.1332 18.8789 95.605 19.1898 96.0951C19.8046 96.976 20.4137 97.8423 21.0379 98.7195C21.5994 99.5194 22.2051 100.268 22.798 101.038C23.629 102.004 24.4414 102.978 25.305 103.863C25.7253 104.276 26.1432 104.656 26.5798 105.029C26.7912 105.184 27.0177 105.35 27.2383 105.501C27.3626 105.571 27.487 105.642 27.6113 105.712C27.7298 105.767 27.8575 105.819 27.9796 105.856C28.1016 105.893 28.2178 105.916 28.3434 105.934C28.5887 105.957 28.8281 105.965 29.0618 105.958C29.4409 105.911 29.805 105.853 30.1667 105.762C30.5692 105.638 30.9601 105.484 31.3487 105.297C31.3301 105.305 31.3114 105.312 31.3079 105.33C31.7129 105.103 32.1062 104.846 32.488 104.56C32.8175 104.278 33.1296 103.951 33.4266 103.613C33.8483 103.073 34.2283 102.482 34.5931 101.879C34.803 101.456 35.028 101.045 35.238 100.622C35.47 100.174 35.6452 99.6626 35.832 99.181L35.8227 99.1847C36.0248 98.578 36.2304 97.9529 36.4266 97.3314C36.6244 96.5223 36.8337 95.7427 36.9919 94.9151C37.2029 93.8116 37.3953 92.7156 37.5854 91.5863C37.8905 89.7655 38.1711 87.9373 38.4367 86.098C38.7838 83.4273 39.067 80.7306 39.3293 78.0082C39.5976 75.1643 39.9449 72.3575 40.0889 69.4434C40.0813 69.1232 40.0887 68.8142 40.0811 68.494C40.0788 68.4609 40.0823 68.4424 40.0707 68.4129C39.7891 67.0949 40.2443 65.9295 41.1328 65.7844C42.1015 65.6247 43.2614 66.7167 43.6963 68.1786C43.9265 68.9555 43.9566 69.7432 43.9637 70.4718C43.9672 71.2188 43.952 71.9731 43.9009 72.6905C43.7954 74.0076 43.6655 75.3173 43.5449 76.6234C43.2816 79.2612 43.052 81.9028 42.7735 84.5295C42.4893 87.1415 42.1203 89.7018 41.7211 92.2399C41.5052 93.5494 41.2892 94.859 41.0733 96.1685C40.8573 97.478 40.5694 98.7137 40.2571 99.942C39.9576 101.148 39.5768 102.284 39.1298 103.362C38.6852 104.472 38.1929 105.516 37.5985 106.464C37.1323 107.191 36.6581 107.871 36.1176 108.492C35.2639 109.49 34.206 110.161 33.0902 110.685C31.9837 111.205 30.6962 111.456 29.3873 111.324C28.1271 111.207 26.8527 110.534 25.6009 109.564C23.9147 108.253 22.406 106.465 20.9031 104.692C20.4249 104.131 19.9853 103.504 19.5292 102.918C19.1568 102.435 18.7936 101.949 18.4339 101.444C17.5279 100.15 16.6369 98.8674 15.7658 97.5259C15.4074 96.9694 15.0211 96.4239 14.6906 95.8565C14.2303 95.0679 13.7792 94.2757 13.3131 93.4725C12.1036 91.3795 10.9978 89.1947 9.88268 87.0137C8.79424 84.8732 7.70932 82.7143 6.62088 80.5738C5.56491 78.4885 4.45886 76.44 3.39005 74.3768C2.88812 73.4004 2.40833 72.3984 1.94363 71.4074C1.51367 70.5049 1.05933 69.5949 0.694518 68.6668C0.129315 67.2561 0.423416 65.7628 1.31688 65.4116C2.19649 64.9978 3.40076 65.9022 3.97176 67.3276Z" fill="black"/>
<path d="M35.7855 99.1993L35.789 99.1808C35.7948 99.1956 35.7948 99.1956 35.7855 99.1993Z" fill="black"/>
</svg>
