<svg width="40" height="40" viewBox="0 0 40 40" fill="none" xmlns="http://www.w3.org/2000/svg">
<g clip-path="url(#clip0_116_734)">
<path fill-rule="evenodd" clip-rule="evenodd" d="M20 0C8.96 0 0 8.96 0 20C0 31.04 8.96 40 20 40C31.02 40 40 31.04 40 20C40 8.96 31.02 0 20 0ZM33.21 9.22C35.6725 12.218 37.0354 15.968 37.0725 19.8475C36.5075 19.74 30.8675 18.59 25.185 19.305C25.055 19.025 24.945 18.72 24.815 18.4175C24.4675 17.5925 24.0775 16.7475 23.6875 15.9425C29.9775 13.385 32.8425 9.6975 33.2125 9.2175L33.21 9.22ZM20 2.95C24.3375 2.95 28.3075 4.575 31.325 7.245C31.02 7.68 28.4375 11.1275 22.365 13.405C19.565 8.265 16.465 4.055 15.9875 3.405C17.303 3.09901 18.6494 2.94632 20 2.95ZM12.7325 4.555C15.0222 7.72727 17.137 11.0222 19.0675 14.425C11.085 16.55 4.035 16.5075 3.275 16.5075C3.82554 13.9222 4.96538 11.4988 6.60576 9.4261C8.24615 7.35339 10.3428 5.68478 12.7325 4.555ZM2.9075 20.025V19.5C3.645 19.525 11.9325 19.6325 20.4575 17.0725C20.955 18.025 21.41 19.0025 21.845 19.9775L21.17 20.1725C12.365 23.015 7.68 30.78 7.2875 31.4325C4.46767 28.3011 2.90734 24.2364 2.9075 20.0225V20.025ZM20 37.0925C16.2044 37.0955 12.5169 35.8282 9.525 33.4925C9.825 32.8625 13.2975 26.1825 22.9275 22.82C22.9725 22.7975 22.9925 22.7975 23.0375 22.7775C24.6602 26.9687 25.8799 31.3049 26.68 35.7275C24.5705 36.6357 22.2967 37.1003 20 37.0925ZM29.525 34.165C29.35 33.1225 28.4375 28.135 26.205 21.995C31.5625 21.15 36.2475 22.5375 36.8325 22.7325C36.4687 25.0393 35.6315 27.2459 34.3734 29.2134C33.1154 31.1809 31.4638 32.8668 29.5225 34.165H29.525Z" fill="black"/>
</g>
<defs>
<clipPath id="clip0_116_734">
<rect width="40" height="40" fill="white"/>
</clipPath>
</defs>
</svg>
