<svg width="32" height="44" viewBox="0 0 32 44" fill="none" xmlns="http://www.w3.org/2000/svg">
<g clip-path="url(#clip0_570_736)">
<path d="M7.99642 43.3876C12.4094 43.3876 15.991 40.2036 15.991 36.2804V29.1732H7.99642C3.58341 29.1732 0.00183105 32.3573 0.00183105 36.2804C0.00183105 40.2036 3.58341 43.3876 7.99642 43.3876Z" fill="#0ACF83"/>
<path d="M0.00183105 22.0654C0.00183105 18.1422 3.58341 14.9582 7.99642 14.9582H15.991V29.1726H7.99642C3.58341 29.1726 0.00183105 25.9885 0.00183105 22.0654Z" fill="#A259FF"/>
<path d="M0.00170898 7.85133C0.00170898 3.92816 3.58329 0.744141 7.9963 0.744141H15.9909V14.9585H7.9963C3.58329 14.9585 0.00170898 11.7745 0.00170898 7.85133Z" fill="#F24E1E"/>
<path d="M15.9911 0.744141H23.9857C28.3987 0.744141 31.9803 3.92816 31.9803 7.85133C31.9803 11.7745 28.3987 14.9585 23.9857 14.9585H15.9911V0.744141Z" fill="#FF7262"/>
<path d="M31.9803 22.0654C31.9803 25.9885 28.3987 29.1726 23.9857 29.1726C19.5727 29.1726 15.9911 25.9885 15.9911 22.0654C15.9911 18.1422 19.5727 14.9582 23.9857 14.9582C28.3987 14.9582 31.9803 18.1422 31.9803 22.0654Z" fill="#1ABCFE"/>
</g>
<defs>
<clipPath id="clip0_570_736">
<rect width="31.9824" height="42.6431" fill="white" transform="translate(0 0.744141)"/>
</clipPath>
</defs>
</svg>
