<svg width="51" height="50" viewBox="0 0 51 50" fill="none" xmlns="http://www.w3.org/2000/svg">
<path d="M31.7511 5.00195V12.502C31.7511 13.8827 32.8704 15.002 34.2511 15.002H41.7511M18.0011 15.002H23.0011M18.0011 22.502H33.0012M18.0011 30.002H33.0012M38.0011 8.75195C36.8885 7.75641 35.7339 6.57566 35.005 5.80878C34.52 5.29848 33.8498 5.00195 33.1458 5.00195H14.2506C11.4891 5.00195 9.25058 7.24051 9.25056 10.0019L9.25037 40.0018C9.25035 42.7632 11.4889 45.0018 14.2503 45.0018L36.7504 45.0019C39.5118 45.0019 41.7504 42.7634 41.7505 40.0021L41.7511 13.4974C41.7511 12.8582 41.5073 12.2437 41.0636 11.7835C40.2432 10.9325 38.8732 9.5322 38.0011 8.75195Z" stroke="#0A0A0A" stroke-width="2.5" stroke-linecap="round" stroke-linejoin="round"/>
</svg>
