<svg width="66" height="66" viewBox="0 0 66 66" fill="none" xmlns="http://www.w3.org/2000/svg">
<path d="M41.2516 6.60107V16.5011C41.2516 18.3236 42.729 19.8011 44.5516 19.8011H54.4516M23.1016 19.8011H29.7016M23.1016 29.7011H42.9016M23.1016 39.6011H42.9016M49.5016 11.5511C48.0329 10.237 46.5088 8.67836 45.5467 7.66609C44.9064 6.99249 44.0218 6.60107 43.0925 6.60107H18.1508C14.5057 6.60107 11.5508 9.55597 11.5508 13.201L11.5505 52.8009C11.5505 56.446 14.5054 59.4009 18.1505 59.4009L47.8506 59.401C51.4957 59.4011 54.4506 56.4462 54.4507 52.8012L54.4515 17.8151C54.4516 16.9713 54.1297 16.1602 53.544 15.5527C52.4611 14.4294 50.6527 12.581 49.5016 11.5511Z" stroke="#0A0A0A" stroke-width="2.5" stroke-linecap="round" stroke-linejoin="round"/>
</svg>
