<svg width="51" height="50" viewBox="0 0 51 50" fill="none" xmlns="http://www.w3.org/2000/svg">
<path d="M24.25 44.9999H11.75C8.98855 44.9999 6.74998 42.7613 6.75 39.9999L6.75019 9.99997C6.75021 7.23856 8.98878 5 11.7502 5H34.2507C37.0122 5 39.2508 7.23858 39.2508 10V20M41.75 41.25L44.25 43.75M15.5008 15H30.5008M15.5008 22.5H30.5008M15.5008 30H23.0008M43 36.25C43 39.7018 40.2018 42.5 36.75 42.5C33.2982 42.5 30.5 39.7018 30.5 36.25C30.5 32.7982 33.2982 30 36.75 30C40.2018 30 43 32.7982 43 36.25Z" stroke="#0A0A0A" stroke-width="2.5" stroke-linecap="round" stroke-linejoin="round"/>
</svg>
