<svg width="42" height="43" viewBox="0 0 42 43" fill="none" xmlns="http://www.w3.org/2000/svg">
<path fill-rule="evenodd" clip-rule="evenodd" d="M23.9335 8.4773C23.1854 5.406 18.8146 5.406 18.0665 8.4773C17.9548 8.93881 17.7357 9.36744 17.427 9.72829C17.1184 10.0891 16.7289 10.372 16.2903 10.5539C15.8517 10.7358 15.3763 10.8116 14.9029 10.775C14.4294 10.7385 13.9713 10.5907 13.5658 10.3437C10.8646 8.69781 7.77352 11.7888 9.41945 14.49C10.4826 16.2343 9.53955 18.5102 7.55499 18.9926C4.48167 19.7387 4.48167 24.1114 7.55499 24.8556C8.01663 24.9674 8.44533 25.1867 8.80619 25.4956C9.16704 25.8045 9.44985 26.1942 9.63157 26.633C9.81329 27.0719 9.8888 27.5475 9.85194 28.021C9.81508 28.4946 9.66689 28.9527 9.41945 29.3582C7.77352 32.0594 10.8646 35.1503 13.5658 33.5044C13.9712 33.257 14.4294 33.1088 14.903 33.072C15.3765 33.0351 15.8521 33.1106 16.291 33.2923C16.7298 33.474 17.1196 33.7568 17.4284 34.1177C17.7373 34.4785 17.9566 34.9072 18.0684 35.3689C18.8146 38.4421 23.1874 38.4421 23.9316 35.3689C24.0438 34.9075 24.2633 34.4791 24.5722 34.1185C24.8812 33.7579 25.2708 33.4753 25.7096 33.2936C26.1483 33.1119 26.6237 33.0363 27.0971 33.073C27.5706 33.1096 28.0287 33.2574 28.4342 33.5044C31.1354 35.1503 34.2265 32.0594 32.5806 29.3582C32.3335 28.9526 32.1857 28.4945 32.1491 28.0211C32.1124 27.5477 32.188 27.0723 32.3697 26.6336C32.5514 26.1948 32.834 25.8052 33.1946 25.4962C33.5552 25.1873 33.9836 24.9678 34.445 24.8556C37.5183 24.1094 37.5183 19.7368 34.445 18.9926C33.9834 18.8807 33.5547 18.6614 33.1938 18.3526C32.833 18.0437 32.5502 17.654 32.3684 17.2151C32.1867 16.7762 32.1112 16.3007 32.1481 15.8271C32.1849 15.3536 32.3331 14.8954 32.5806 14.49C34.2265 11.7888 31.1354 8.69781 28.4342 10.3437C28.0288 10.5911 27.5706 10.7393 27.097 10.7762C26.6235 10.813 26.1479 10.7375 25.709 10.5558C25.2702 10.3741 24.8804 10.0913 24.5716 9.73045C24.2627 9.3696 24.0434 8.94091 23.9316 8.47927L23.9335 8.4773Z" stroke="#0A0A0A" stroke-width="1.3"/>
<path d="M24.5 21.9238C24.5 23.8568 22.933 25.4238 21 25.4238C19.067 25.4238 17.5 23.8568 17.5 21.9238C17.5 19.9908 19.067 18.4238 21 18.4238C22.933 18.4238 24.5 19.9908 24.5 21.9238Z" stroke="#0A0A0A" stroke-width="1.3"/>
</svg>
