<svg width="66" height="66" viewBox="0 0 66 66" fill="none" xmlns="http://www.w3.org/2000/svg">
<path fill-rule="evenodd" clip-rule="evenodd" d="M37.6098 11.8697C36.4342 7.04342 29.5658 7.04342 28.3902 11.8697C28.2146 12.595 27.8704 13.2685 27.3854 13.8356C26.9003 14.4026 26.2883 14.8472 25.599 15.133C24.9098 15.4188 24.1628 15.5379 23.4188 15.4805C22.6748 15.4231 21.9549 15.1908 21.3176 14.8027C17.0729 12.2162 12.2155 17.0735 14.802 21.3182C16.4727 24.0593 14.9907 27.6357 11.8721 28.3937C7.04263 29.5663 7.04263 36.4376 11.8721 37.6071C12.5976 37.7828 13.2712 38.1274 13.8383 38.6128C14.4054 39.0981 14.8498 39.7106 15.1353 40.4002C15.4209 41.0898 15.5395 41.8371 15.4816 42.5813C15.4237 43.3255 15.1908 44.0454 14.802 44.6826C12.2155 48.9273 17.0729 53.7845 21.3176 51.1981C21.9548 50.8093 22.6748 50.5764 23.4189 50.5185C24.1631 50.4606 24.9104 50.5792 25.6001 50.8648C26.2897 51.1503 26.9022 51.5947 27.3875 52.1618C27.8729 52.7288 28.2175 53.4025 28.3933 54.1279C29.5658 58.9574 36.4373 58.9574 37.6067 54.1279C37.7831 53.4029 38.128 52.7297 38.6135 52.163C39.099 51.5964 39.7113 51.1522 40.4008 50.8668C41.0902 50.5813 41.8372 50.4625 42.5812 50.5201C43.3252 50.5777 44.0451 50.81 44.6824 51.1981C48.9271 53.7845 53.7845 48.9273 51.198 44.6826C50.8099 44.0453 50.5776 43.3254 50.52 42.5814C50.4624 41.8375 50.5812 41.0904 50.8667 40.401C51.1521 39.7116 51.5963 39.0993 52.1629 38.6138C52.7296 38.1283 53.4028 37.7834 54.1279 37.6071C58.9574 36.4345 58.9574 29.5632 54.1279 28.3937C53.4024 28.218 52.7288 27.8734 52.1617 27.388C51.5946 26.9026 51.1502 26.2902 50.8647 25.6006C50.5791 24.9109 50.4605 24.1636 50.5184 23.4195C50.5763 22.6753 50.8092 21.9553 51.198 21.3182C53.7845 17.0735 48.9271 12.2162 44.6824 14.8027C44.0452 15.1915 43.3252 15.4244 42.5811 15.4823C41.8369 15.5402 41.0896 15.4215 40.3999 15.136C39.7103 14.8504 39.0978 14.406 38.6125 13.839C38.1271 13.2719 37.7825 12.5983 37.6067 11.8728L37.6098 11.8697Z" stroke="#0A0A0A" stroke-width="2.5"/>
<path d="M38.5 33C38.5 36.0376 36.0376 38.5 33 38.5C29.9624 38.5 27.5 36.0376 27.5 33C27.5 29.9624 29.9624 27.5 33 27.5C36.0376 27.5 38.5 29.9624 38.5 33Z" stroke="#0A0A0A" stroke-width="2.5"/>
</svg>
