<svg width="66" height="66" viewBox="0 0 66 66" fill="none" xmlns="http://www.w3.org/2000/svg">
<path d="M33.4801 59.5458V21.1458M29.0114 18.8422C29.4868 18.9489 29.9877 18.8181 30.33 18.4758C30.6722 18.1336 30.8028 17.6324 30.6963 17.1572C30.2696 15.4143 28.6979 9.57817 27.084 7.96429C25.0733 5.95359 21.8008 5.94522 19.8001 7.94596C17.7995 9.94657 17.8076 13.2191 19.8184 15.2299C21.4587 16.8702 27.2685 18.4156 29.0114 18.8422ZM33.8914 17.1571C33.7848 17.6325 33.9155 18.1334 34.2578 18.4757C34.6001 18.818 35.1012 18.9485 35.5764 18.842C37.3193 18.4154 43.1555 16.8436 44.7693 15.2298C46.78 13.2191 46.7884 9.94657 44.7877 7.94583C42.7871 5.94523 39.5146 5.95332 37.5037 7.96415C35.8634 9.60444 34.3181 15.4142 33.8914 17.1571ZM8.5201 34.5858H57.4801C58.5405 34.5858 59.4001 33.7262 59.4001 32.6658V23.0658C59.4001 22.0054 58.5405 21.1458 57.4801 21.1458H8.5201C7.45971 21.1458 6.6001 22.0054 6.6001 23.0658V32.6658C6.6001 33.7262 7.45971 34.5858 8.5201 34.5858ZM54.6001 34.5858V57.6258C54.6001 58.6862 53.7405 59.5458 52.6801 59.5458H13.3201C12.2597 59.5458 11.4001 58.6862 11.4001 57.6258V34.5858H54.6001Z" stroke="#0A0A0A" stroke-width="2.5" stroke-linecap="round" stroke-linejoin="round"/>
</svg>
