<svg width="51" height="50" viewBox="0 0 51 50" fill="none" xmlns="http://www.w3.org/2000/svg">
<path d="M25.8636 45.1103V16.0194M22.4782 14.2742C22.8384 14.355 23.2179 14.256 23.4772 13.9967C23.7365 13.7374 23.8354 13.3577 23.7547 12.9977C23.4315 11.6774 22.2408 7.25602 21.0181 6.03339C19.4949 4.51014 17.0157 4.50379 15.5 6.01951C13.9844 7.53512 13.9905 10.0143 15.5139 11.5376C16.7565 12.7803 21.1579 13.951 22.4782 14.2742ZM26.1753 12.9976C26.0944 13.3578 26.1935 13.7373 26.4528 13.9966C26.7121 14.2559 27.0917 14.3548 27.4517 14.2741C28.7721 13.9509 33.1935 12.7602 34.4161 11.5375C35.9393 10.0143 35.9457 7.53512 34.43 6.0194C32.9144 4.5038 30.4352 4.50992 28.9118 6.03328C27.6692 7.27593 26.4985 11.6773 26.1753 12.9976ZM6.95455 26.2012H44.0454C44.8488 26.2012 45.5 25.55 45.5 24.7467V17.474C45.5 16.6706 44.8488 16.0194 44.0454 16.0194H6.95455C6.15122 16.0194 5.5 16.6706 5.5 17.4739V24.7467C5.5 25.55 6.15122 26.2012 6.95455 26.2012ZM41.8636 26.2012V43.6558C41.8636 44.4591 41.2124 45.1103 40.4091 45.1103H10.5909C9.78759 45.1103 9.13636 44.4591 9.13636 43.6558V26.2012H41.8636Z" stroke="black" stroke-width="2.5" stroke-linecap="round" stroke-linejoin="round"/>
</svg>
