<svg width="27" height="28" viewBox="0 0 27 28" fill="none" xmlns="http://www.w3.org/2000/svg">
<path d="M12.9318 3.60437C13.1642 3.1335 13.8356 3.1335 14.068 3.60437L17.0763 9.69976C17.1685 9.88674 17.3469 10.0163 17.5533 10.0463L24.2799 11.0238C24.7996 11.0993 25.007 11.7378 24.631 12.1044L19.7636 16.849C19.6143 16.9945 19.5461 17.2042 19.5814 17.4097L20.7304 24.1092C20.8192 24.6267 20.276 25.0214 19.8112 24.777L13.7947 21.614C13.6101 21.5169 13.3897 21.5169 13.2051 21.614L7.18859 24.777C6.72381 25.0214 6.18061 24.6267 6.26937 24.1092L7.41843 17.4097C7.45367 17.2042 7.38554 16.9945 7.23623 16.849L2.36877 12.1044C1.99276 11.7378 2.20025 11.0993 2.71987 11.0238L9.44654 10.0463C9.65288 10.0163 9.83126 9.88674 9.92354 9.69976L12.9318 3.60437Z" stroke="#0A0A0A" stroke-width="2" stroke-linejoin="round"/>
</svg>
