<svg width="27" height="28" viewBox="0 0 27 28" fill="none" xmlns="http://www.w3.org/2000/svg">
<path d="M10.2602 10.8112V9.81122C9.70791 9.81122 9.26019 10.2589 9.26019 10.8112H10.2602ZM10.3678 10.8112H11.3678C11.3678 10.2589 10.9201 9.81122 10.3678 9.81122V10.8112ZM16.7402 10.8112V9.81122C16.1879 9.81122 15.7402 10.2589 15.7402 10.8112H16.7402ZM16.8358 10.8112H17.8358C17.8358 10.2589 17.3881 9.81122 16.8358 9.81122V10.8112ZM10.3678 10.8977V11.8977C10.9201 11.8977 11.3678 11.45 11.3678 10.8977H10.3678ZM10.2602 10.8977H9.26019C9.26019 11.45 9.70791 11.8977 10.2602 11.8977V10.8977ZM16.8358 10.8977V11.8977C17.3881 11.8977 17.8358 11.45 17.8358 10.8977H16.8358ZM16.7402 10.8977H15.7402C15.7402 11.45 16.1879 11.8977 16.7402 11.8977V10.8977ZM10.6064 16.8089C10.3157 16.3393 9.69941 16.1943 9.22981 16.485C8.76021 16.7757 8.61518 17.392 8.90586 17.8616L10.6064 16.8089ZM18.0945 17.8616C18.3852 17.392 18.2402 16.7757 17.7706 16.485C17.301 16.1943 16.6846 16.3393 16.394 16.8089L18.0945 17.8616ZM23.3002 14.0512C23.3002 19.4636 18.9126 23.8512 13.5002 23.8512V25.8512C20.0172 25.8512 25.3002 20.5682 25.3002 14.0512H23.3002ZM13.5002 23.8512C8.0878 23.8512 3.7002 19.4636 3.7002 14.0512H1.7002C1.7002 20.5682 6.98323 25.8512 13.5002 25.8512V23.8512ZM3.7002 14.0512C3.7002 8.63883 8.0878 4.25122 13.5002 4.25122V2.25122C6.98323 2.25122 1.7002 7.53426 1.7002 14.0512H3.7002ZM13.5002 4.25122C18.9126 4.25122 23.3002 8.63883 23.3002 14.0512H25.3002C25.3002 7.53426 20.0172 2.25122 13.5002 2.25122V4.25122ZM10.2602 11.8112H10.3678V9.81122H10.2602V11.8112ZM16.7402 11.8112H16.8358V9.81122H16.7402V11.8112ZM9.36777 10.8112V10.8977H11.3678V10.8112H9.36777ZM10.3678 9.8977H10.2602V11.8977H10.3678V9.8977ZM11.2602 10.8977V10.8112H9.26019V10.8977H11.2602ZM15.8358 10.8112V10.8977H17.8358V10.8112H15.8358ZM16.8358 9.8977H16.7402V11.8977H16.8358V9.8977ZM17.7402 10.8977V10.8112H15.7402V10.8977H17.7402ZM13.5002 18.4512C12.2955 18.4512 11.224 17.8067 10.6064 16.8089L8.90586 17.8616C9.8631 19.408 11.5568 20.4512 13.5002 20.4512V18.4512ZM16.394 16.8089C15.7763 17.8067 14.7049 18.4512 13.5002 18.4512V20.4512C15.4436 20.4512 17.1373 19.408 18.0945 17.8616L16.394 16.8089Z" fill="#0A0A0A"/>
</svg>
