<svg width="27" height="28" viewBox="0 0 27 28" fill="none" xmlns="http://www.w3.org/2000/svg">
<path d="M3.93352 21.0683C3.54299 21.4588 3.54299 22.092 3.93352 22.4825C4.32404 22.873 4.95721 22.873 5.34773 22.4825L3.93352 21.0683ZM9.70312 16.7129L10.4102 16.0058C10.0197 15.6153 9.38654 15.6153 8.99602 16.0058L9.70312 16.7129ZM12.2344 19.2441L11.5273 19.9512C11.9178 20.3418 12.551 20.3418 12.9415 19.9512L12.2344 19.2441ZM17.9297 13.5488L18.6368 12.8417C18.2463 12.4512 17.6131 12.4512 17.2226 12.8417L17.9297 13.5488ZM22.2851 19.3184C22.6756 19.709 23.3088 19.709 23.6993 19.3184C24.0898 18.9279 24.0898 18.2947 23.6993 17.9042L22.2851 19.3184ZM5.34773 22.4825L10.4102 17.42L8.99602 16.0058L3.93352 21.0683L5.34773 22.4825ZM8.99602 17.42L11.5273 19.9512L12.9415 18.537L10.4102 16.0058L8.99602 17.42ZM12.9415 19.9512L18.6368 14.2559L17.2226 12.8417L11.5273 18.537L12.9415 19.9512ZM17.2226 14.2559L22.2851 19.3184L23.6993 17.9042L18.6368 12.8417L17.2226 14.2559ZM7.17188 4.42383H19.8281V2.42383H7.17188V4.42383ZM22.625 7.2207V19.877H24.625V7.2207H22.625ZM19.8281 22.6738H7.17188V24.6738H19.8281V22.6738ZM4.375 19.877V7.2207H2.375V19.877H4.375ZM7.17188 22.6738C5.6272 22.6738 4.375 21.4216 4.375 19.877H2.375C2.375 22.5262 4.52263 24.6738 7.17188 24.6738V22.6738ZM22.625 19.877C22.625 21.4216 21.3728 22.6738 19.8281 22.6738V24.6738C22.4774 24.6738 24.625 22.5262 24.625 19.877H22.625ZM19.8281 4.42383C21.3728 4.42383 22.625 5.67603 22.625 7.2207H24.625C24.625 4.57146 22.4774 2.42383 19.8281 2.42383V4.42383ZM7.17188 2.42383C4.52263 2.42383 2.375 4.57146 2.375 7.2207H4.375C4.375 5.67603 5.6272 4.42383 7.17188 4.42383V2.42383ZM9.96875 9.11914C9.96875 9.61533 9.56651 10.0176 9.07031 10.0176V12.0176C10.6711 12.0176 11.9688 10.7199 11.9688 9.11914H9.96875ZM9.07031 10.0176C8.57412 10.0176 8.17188 9.61533 8.17188 9.11914H6.17188C6.17188 10.7199 7.46955 12.0176 9.07031 12.0176V10.0176ZM8.17188 9.11914C8.17188 8.62295 8.57412 8.2207 9.07031 8.2207V6.2207C7.46955 6.2207 6.17188 7.51838 6.17188 9.11914H8.17188ZM9.07031 8.2207C9.56651 8.2207 9.96875 8.62295 9.96875 9.11914H11.9688C11.9688 7.51838 10.6711 6.2207 9.07031 6.2207V8.2207Z" fill="#0A0A0A"/>
</svg>
