<svg width="66" height="67" viewBox="0 0 66 67" fill="none" xmlns="http://www.w3.org/2000/svg">
<path d="M54.8501 43.0072C54.8501 43.6976 55.4097 44.2572 56.1001 44.2572C56.7905 44.2572 57.3501 43.6976 57.3501 43.0072H54.8501ZM8.6501 43.0072C8.6501 43.6976 9.20974 44.2572 9.9001 44.2572C10.5905 44.2572 11.1501 43.6976 11.1501 43.0072H8.6501ZM15.6751 12.9072H50.3251V10.4072H15.6751V12.9072ZM54.8501 17.2418V43.0072H57.3501V17.2418H54.8501ZM11.1501 43.0072V17.2418H8.6501V43.0072H11.1501ZM50.3251 12.9072C52.864 12.9072 54.8501 14.8871 54.8501 17.2418H57.3501C57.3501 13.428 54.1651 10.4072 50.3251 10.4072V12.9072ZM15.6751 10.4072C11.8351 10.4072 8.6501 13.428 8.6501 17.2418H11.1501C11.1501 14.8871 13.1362 12.9072 15.6751 12.9072V10.4072ZM9.9001 45.9072H56.1001V43.4072H9.9001V45.9072ZM58.1501 47.9572V51.2572H60.6501V47.9572H58.1501ZM56.1001 53.3072H9.9001V55.8072H56.1001V53.3072ZM7.8501 51.2572V47.9572H5.3501V51.2572H7.8501ZM9.9001 53.3072C8.76791 53.3072 7.8501 52.3894 7.8501 51.2572H5.3501C5.3501 53.7701 7.3872 55.8072 9.9001 55.8072V53.3072ZM58.1501 51.2572C58.1501 52.3894 57.2323 53.3072 56.1001 53.3072V55.8072C58.613 55.8072 60.6501 53.7701 60.6501 51.2572H58.1501ZM56.1001 45.9072C57.2323 45.9072 58.1501 46.825 58.1501 47.9572H60.6501C60.6501 45.4443 58.613 43.4072 56.1001 43.4072V45.9072ZM9.9001 43.4072C7.3872 43.4072 5.3501 45.4443 5.3501 47.9572H7.8501C7.8501 46.825 8.76791 45.9072 9.9001 45.9072V43.4072Z" fill="#0A0A0A"/>
</svg>
