<svg width="21" height="38" viewBox="0 0 21 38" fill="none" xmlns="http://www.w3.org/2000/svg">
<path d="M0.484689 20.0186L17.9003 36.6124C18.1909 36.8894 18.577 37.0439 18.9784 37.0439C19.3799 37.0439 19.766 36.8894 20.0566 36.6124L20.0753 36.5936C20.2167 36.4594 20.3292 36.2977 20.4062 36.1185C20.4831 35.9394 20.5227 35.7464 20.5227 35.5515C20.5227 35.3565 20.4831 35.1635 20.4062 34.9844C20.3292 34.8052 20.2167 34.6436 20.0753 34.5093L3.67531 18.8843L20.0753 3.26552C20.2167 3.13123 20.3292 2.96959 20.4062 2.79042C20.4831 2.61126 20.5227 2.41831 20.5227 2.22334C20.5227 2.02835 20.4831 1.83541 20.4062 1.65625C20.3292 1.47709 20.2167 1.31544 20.0753 1.18115L20.0566 1.1624C19.766 0.88538 19.3799 0.730846 18.9784 0.730846C18.577 0.730846 18.1909 0.88538 17.9003 1.1624L0.484689 17.7561C0.331525 17.9021 0.20959 18.0776 0.126275 18.272C0.0429606 18.4665 0 18.6758 0 18.8874C0 19.0989 0.0429606 19.3083 0.126275 19.5028C0.20959 19.6972 0.331525 19.8727 0.484689 20.0186Z" fill="black"/>
</svg>
