<svg width="27" height="28" viewBox="0 0 27 28" fill="none" xmlns="http://www.w3.org/2000/svg">
<path d="M3.63279 6.92578L20.7334 23.6206M3.63279 6.92578C4.26904 6.19941 5.21934 5.73828 6.28106 5.73828H12.062M3.63279 6.92578C3.12107 7.50999 2.8125 8.26577 2.8125 9.09122V21.3853C2.8125 23.2371 4.36543 24.7383 6.28106 24.7383H18.9991C20.9147 24.7383 22.4677 23.2371 22.4677 21.3853V16.3559M12.062 16.3559L4.54678 23.6206M20.2565 7.16328V7.09185M24.1875 7.08067C24.1875 9.55893 20.2565 12.8633 20.2565 12.8633C20.2565 12.8633 16.3254 9.55893 16.3254 7.08067C16.3254 5.02761 18.0854 3.36328 20.2565 3.36328C22.4275 3.36328 24.1875 5.02761 24.1875 7.08067Z" stroke="#0A0A0A" stroke-width="2" stroke-linecap="round" stroke-linejoin="round"/>
</svg>
