<svg width="157" height="104" viewBox="0 0 157 104" fill="none" xmlns="http://www.w3.org/2000/svg">
<path d="M128.891 51.9145C128.891 79.9899 105.019 102.829 75.4705 102.829C45.9221 102.829 22.0497 79.9899 22.0497 51.9145C22.0497 23.8391 45.9221 1 75.4705 1C105.019 1 128.891 23.8391 128.891 51.9145Z" stroke="#445E2C" stroke-width="2"/>
<path d="M1 51.9204C20.1076 39.9782 43.9921 39.9782 72.6535 51.9204C101.315 63.8627 125.199 63.8627 144.307 51.9204" stroke="#445E2C" stroke-width="2" stroke-linecap="round"/>
<path d="M10.4348 54.1325L13.1325 61.0562L11.7437 61.5973L9.98909 57.0939L9.88883 62.32L8.83738 62.7297L5.2179 58.9529L6.97255 63.4563L5.58384 63.9974L2.88616 57.0737L4.46333 56.4592L8.67129 60.7493L8.86751 54.7432L10.4348 54.1325Z" fill="#445E2C"/>
<path d="M17.0706 52.9725C16.8139 53.0282 16.5816 52.9952 16.3736 52.8733C16.171 52.743 16.0433 52.5565 15.9906 52.3138C15.9379 52.071 15.9774 51.8518 16.1092 51.6562C16.2464 51.452 16.4434 51.3221 16.7 51.2664C16.9566 51.2106 17.1862 51.2479 17.3888 51.3782C17.5968 51.5001 17.7272 51.6824 17.7799 51.9251C17.8327 52.1678 17.7904 52.3913 17.6532 52.5954C17.5214 52.791 17.3272 52.9167 17.0706 52.9725ZM17.9375 53.5032L19.1894 59.2665L17.733 59.5828L16.4811 53.8195L17.9375 53.5032Z" fill="#445E2C"/>
<path d="M30.2188 51.6528L27.2541 60.5974L25.6727 60.7207L26.7178 57.6921L23.9145 52.1446L25.5808 52.0146L27.4189 56.0036L28.6374 51.7762L30.2188 51.6528Z" fill="#445E2C"/>
<path d="M41.3563 51.8133L40.8611 57.6902L39.3653 57.5641L39.4279 56.8215C39.2155 57.06 38.9475 57.2404 38.6238 57.3627C38.3078 57.4785 37.9694 57.5213 37.6087 57.4909C37.1491 57.4521 36.7505 57.3224 36.413 57.1016C36.076 56.8738 35.8208 56.5639 35.6473 56.1718C35.4815 55.7732 35.4206 55.3122 35.4647 54.7889L35.7553 51.3413L37.2404 51.4664L36.9677 54.7019C36.9284 55.1686 37.0147 55.5391 37.2266 55.8134C37.4391 56.0806 37.747 56.2312 38.1501 56.2651C38.5602 56.2997 38.8924 56.2031 39.1467 55.9752C39.4015 55.7403 39.5486 55.3895 39.5879 54.9227L39.8606 51.6872L41.3563 51.8133Z" fill="#445E2C"/>
<path d="M49.5956 59.1124L48.2635 56.1896L47.654 58.6269L46.2081 58.2653L48.1192 50.6229L49.5651 50.9844L48.4778 55.3324L51.0057 53.3857L52.8853 53.8558L49.6474 56.0967L51.4752 59.5825L49.5956 59.1124Z" fill="#445E2C"/>
<path d="M58.9248 54.9683C58.681 54.8708 58.507 54.7133 58.4028 54.4959C58.3079 54.2745 58.3065 54.0485 58.3987 53.8179C58.4909 53.5872 58.6464 53.4277 58.8651 53.3394C59.0931 53.247 59.329 53.2496 59.5728 53.3471C59.8167 53.4446 59.9861 53.604 60.081 53.8254C60.1852 54.0428 60.1911 54.2668 60.0989 54.4975C60.0067 54.7282 59.8467 54.8896 59.6187 54.9819C59.3999 55.0703 59.1686 55.0657 58.9248 54.9683ZM59.3461 55.8933L57.157 61.3697L55.7731 60.8165L57.9622 55.3401L59.3461 55.8933Z" fill="#445E2C"/>
<path d="M91.704 53.2438L90.287 52.782L88.6585 46.888L87.0784 51.7362L85.6614 51.2744L87.9672 44.1994L89.3842 44.6612L91.0094 50.5653L92.5928 45.7069L94.0099 46.1687L91.704 53.2438Z" fill="#445E2C"/>
<path d="M101.797 55.7706C101.233 55.7093 100.738 55.5307 100.313 55.2348C99.8895 54.9318 99.5718 54.5368 99.3605 54.0499C99.1563 53.5637 99.0867 53.0207 99.1518 52.421C99.2169 51.8212 99.4048 51.3062 99.7156 50.8759C100.034 50.4464 100.435 50.1331 100.921 49.9359C101.407 49.7316 101.932 49.6601 102.497 49.7214C103.061 49.7826 103.559 49.9651 103.99 50.2689C104.422 50.5656 104.743 50.9574 104.954 51.4444C105.173 51.9321 105.249 52.4758 105.184 53.0756C105.119 53.6753 104.924 54.1895 104.599 54.6183C104.282 55.0478 103.876 55.3643 103.383 55.5678C102.897 55.765 102.369 55.8326 101.797 55.7706ZM101.937 54.4794C102.206 54.5085 102.463 54.4722 102.71 54.3704C102.964 54.2624 103.176 54.0855 103.345 53.8397C103.515 53.594 103.62 53.2841 103.66 52.9102C103.721 52.3528 103.619 51.9098 103.355 51.5814C103.098 51.2466 102.759 51.0562 102.335 51.0103C101.912 50.9643 101.539 51.0774 101.217 51.3494C100.903 51.6151 100.715 52.0267 100.655 52.5841C100.594 53.1415 100.685 53.5868 100.927 53.92C101.177 54.247 101.514 54.4334 101.937 54.4794Z" fill="#445E2C"/>
<path d="M112.593 55.1751L115.216 54.9825L115.306 56.2034L110.995 56.52L110.907 55.3203L113.222 51.6704L110.663 51.8583L110.574 50.6374L114.842 50.3239L114.93 51.5236L112.593 55.1751Z" fill="#445E2C"/>
<path d="M121.177 52.7795C121.03 52.2015 121.014 51.6602 121.128 51.1555C121.248 50.6491 121.474 50.2258 121.805 49.8857C122.144 49.5439 122.557 49.3111 123.045 49.1874C123.472 49.0794 123.865 49.0713 124.225 49.1631C124.592 49.2532 124.905 49.4046 125.164 49.6173L124.957 48.802L126.412 48.4335L127.86 54.1507L126.405 54.5192L126.194 53.6833C126.076 53.9987 125.874 54.2876 125.589 54.5501C125.31 54.804 124.956 54.985 124.53 55.093C124.048 55.2149 123.577 55.2026 123.115 55.056C122.66 54.9076 122.259 54.6395 121.912 54.2515C121.57 53.8549 121.325 53.3642 121.177 52.7795ZM125.681 51.6606C125.592 51.3097 125.448 51.0279 125.248 50.815C125.045 50.5953 124.811 50.4497 124.544 50.3783C124.275 50.2999 124.007 50.2947 123.738 50.3627C123.47 50.4306 123.239 50.5587 123.045 50.7469C122.851 50.9351 122.714 51.1748 122.634 51.4659C122.559 51.7485 122.565 52.0617 122.652 52.4057C122.739 52.7497 122.885 53.035 123.089 53.2616C123.298 53.4796 123.533 53.6286 123.795 53.7087C124.064 53.7871 124.329 53.7931 124.59 53.7269C124.859 53.659 125.093 53.53 125.294 53.3401C125.493 53.1432 125.63 52.9036 125.705 52.621C125.778 52.3316 125.77 52.0115 125.681 51.6606Z" fill="#445E2C"/>
<path d="M138.371 43.8179L139.354 49.8834L137.904 50.5756L135.159 47.3204L135.963 51.5017L134.502 52.1985L130.397 47.623L131.761 46.972L134.637 50.5773L133.721 46.0367L135.143 45.3583L138.072 48.9264L137.084 44.4322L138.371 43.8179Z" fill="#445E2C"/>
<path d="M144.066 44.1676C143.709 43.6905 143.485 43.197 143.396 42.6874C143.313 42.1735 143.359 41.6959 143.534 41.2546C143.714 40.809 144.006 40.4352 144.41 40.1332C144.762 39.8694 145.122 39.7107 145.489 39.657C145.863 39.5991 146.21 39.6185 146.531 39.7153L146.026 39.0421L147.228 38.1424L150.763 42.8631L149.562 43.7629L149.045 43.0726C149.057 43.4091 148.983 43.7532 148.82 44.1051C148.66 44.4471 148.403 44.7499 148.051 45.0137C147.654 45.3115 147.213 45.4815 146.731 45.5237C146.254 45.5617 145.78 45.4684 145.311 45.2438C144.843 45.0092 144.428 44.6505 144.066 44.1676ZM147.794 41.4025C147.577 41.1128 147.335 40.9082 147.068 40.7888C146.797 40.6637 146.525 40.6195 146.251 40.6562C145.973 40.6872 145.723 40.7857 145.501 40.9516C145.28 41.1175 145.116 41.3246 145.009 41.5729C144.902 41.8212 144.868 42.0952 144.906 42.3947C144.946 42.6843 145.072 42.9711 145.285 43.2551C145.497 43.5392 145.741 43.7466 146.017 43.8774C146.293 43.9982 146.568 44.0453 146.84 44.0185C147.119 43.9875 147.366 43.8911 147.582 43.7295C147.803 43.5636 147.97 43.3543 148.082 43.1017C148.19 42.8435 148.225 42.5696 148.185 42.28C148.141 41.9847 148.011 41.6922 147.794 41.4025Z" fill="#445E2C"/>
</svg>
