<svg width="61" height="61" viewBox="0 0 61 61" fill="none" xmlns="http://www.w3.org/2000/svg">
<rect width="61" height="61" rx="30.5" fill="#46601F"/>
<path d="M32.0389 25.2385C31.6854 24.8142 31.0548 24.7569 30.6305 25.1104C30.2063 25.464 30.1489 26.0946 30.5025 26.5188L32.0389 25.2385ZM35.1219 30.5001L35.8902 31.1403C36.1992 30.7695 36.1992 30.2308 35.8902 29.86L35.1219 30.5001ZM30.5025 34.4814C30.1489 34.9057 30.2062 35.5363 30.6305 35.8898C31.0548 36.2434 31.6854 36.1861 32.0389 35.7618L30.5025 34.4814ZM25.879 29.5001C25.3267 29.5001 24.879 29.9479 24.879 30.5001C24.879 31.0524 25.3267 31.5001 25.879 31.5001V29.5001ZM30.5025 26.5188L34.3537 31.1403L35.8902 29.86L32.0389 25.2385L30.5025 26.5188ZM34.3537 29.86L30.5025 34.4814L32.0389 35.7618L35.8902 31.1403L34.3537 29.86ZM35.1219 29.5001L25.879 29.5001V31.5001L35.1219 31.5001V29.5001ZM37.1876 23.8129C40.8809 27.5061 40.8809 33.4941 37.1876 37.1873L38.6019 38.6015C43.0761 34.1272 43.0761 26.873 38.6019 22.3987L37.1876 23.8129ZM37.1876 37.1873C33.4944 40.8806 27.5065 40.8806 23.8132 37.1873L22.399 38.6015C26.8733 43.0758 34.1276 43.0758 38.6019 38.6015L37.1876 37.1873ZM23.8132 37.1873C20.12 33.4941 20.12 27.5061 23.8132 23.8129L22.399 22.3987C17.9247 26.873 17.9247 34.1272 22.399 38.6015L23.8132 37.1873ZM23.8132 23.8129C27.5065 20.1197 33.4944 20.1197 37.1876 23.8129L38.6019 22.3987C34.1276 17.9244 26.8733 17.9244 22.399 22.3987L23.8132 23.8129Z" fill="#FEFEFE"/>
</svg>
