<svg width="42" height="43" viewBox="0 0 42 43" fill="none" xmlns="http://www.w3.org/2000/svg">
<path d="M26.2508 4.92617V11.2262C26.2508 12.386 27.191 13.3262 28.3508 13.3262H34.6507M26.2508 4.92617H27.4223C28.0137 4.92617 28.5766 5.17526 28.984 5.60391C29.5963 6.24808 30.5661 7.23992 31.5008 8.07617C32.2333 8.73158 33.3841 9.9078 34.0732 10.6227C34.4459 11.0092 34.6508 11.5254 34.6508 12.0624L34.6507 13.3262M26.2508 4.92617H10.5001M34.6507 13.3262L34.6504 37.4762M7.35013 15.4262V34.326C7.35011 36.6456 9.23051 38.5261 11.5501 38.5261H25.2001M35.7008 40.6262L6.30078 2.82617" stroke="black" stroke-width="1.3" stroke-linecap="round" stroke-linejoin="round"/>
</svg>
