<svg width="61" height="61" viewBox="0 0 61 61" fill="none" xmlns="http://www.w3.org/2000/svg">
<rect width="61" height="61" rx="30.5" fill="#46601F"/>
<path d="M33.7685 20.043V23.9644C33.7685 24.6863 34.3537 25.2715 35.0756 25.2715H38.997M26.5792 25.2715H29.1935M26.5792 29.193H34.4221M26.5792 33.1144H34.4221M37.0363 22.0037C36.4546 21.4832 35.8509 20.8658 35.4698 20.4648C35.2162 20.198 34.8658 20.043 34.4977 20.043H24.6182C23.1743 20.043 22.0039 21.2134 22.0039 22.6572L22.0038 38.3429C22.0038 39.7867 23.1742 40.9572 24.6181 40.9572L36.3824 40.9572C37.8262 40.9572 38.9967 39.7868 38.9967 38.343L38.997 24.4849C38.997 24.1507 38.8695 23.8294 38.6376 23.5887C38.2086 23.1438 37.4923 22.4116 37.0363 22.0037Z" stroke="#FEFEFE" stroke-width="2" stroke-linecap="round" stroke-linejoin="round"/>
</svg>
