<svg width="27" height="28" viewBox="0 0 27 28" fill="none" xmlns="http://www.w3.org/2000/svg">
<path d="M16.8115 23.6738V12.5758C16.8115 11.8855 16.2518 11.3258 15.5615 11.3258H11.2459C10.5556 11.3258 9.99594 11.8855 9.99594 12.5758V23.6738M16.8115 23.6738L16.8099 18.9392C16.8097 18.2487 17.3694 17.6888 18.0599 17.6888H22.375C23.0654 17.6888 23.625 18.2485 23.625 18.9388V22.4238C23.625 23.1142 23.0654 23.6738 22.375 23.6738H16.8115ZM16.8115 23.6738H9.99594M9.99594 23.6738V4.67383C9.99594 3.98347 9.4363 3.42383 8.74594 3.42383H4.625C3.93464 3.42383 3.375 3.98347 3.375 4.67383V22.4238C3.375 23.1142 3.93464 23.6738 4.625 23.6738H9.99594Z" stroke="#0A0A0A" stroke-width="2" stroke-linecap="round" stroke-linejoin="round"/>
</svg>
