<svg width="66" height="66" viewBox="0 0 66 66" fill="none" xmlns="http://www.w3.org/2000/svg">
<path d="M31.35 59.3999H14.85C11.2049 59.3999 8.24998 56.445 8.25 52.7999L8.25026 13.2001C8.25028 9.555 11.2052 6.6001 14.8503 6.6001H44.551C48.1961 6.6001 51.151 9.55502 51.151 13.2001V26.4001M54.45 54.4501L57.75 57.7501M19.801 19.8001H39.601M19.801 29.7001H39.601M19.801 39.6001H29.701M56.1 47.8501C56.1 52.4064 52.4063 56.1001 47.85 56.1001C43.2937 56.1001 39.6 52.4064 39.6 47.8501C39.6 43.2937 43.2937 39.6001 47.85 39.6001C52.4063 39.6001 56.1 43.2937 56.1 47.8501Z" stroke="#0A0A0A" stroke-width="2.5" stroke-linecap="round" stroke-linejoin="round"/>
</svg>
