<svg width="66" height="67" viewBox="0 0 66 67" fill="none" xmlns="http://www.w3.org/2000/svg">
<path d="M31.35 59.5093H14.85C11.2049 59.5093 8.24998 56.5544 8.25 52.9093L8.25026 13.3094C8.25028 9.66437 11.2052 6.70947 14.8503 6.70947H44.551C48.1961 6.70947 51.151 9.66439 51.151 13.3095V26.5095M54.45 54.5595L57.75 57.8595M19.801 19.9095H39.601M19.801 29.8095H39.601M19.801 39.7095H29.701M56.1 47.9595C56.1 52.5158 52.4063 56.2095 47.85 56.2095C43.2937 56.2095 39.6 52.5158 39.6 47.9595C39.6 43.4031 43.2937 39.7095 47.85 39.7095C52.4063 39.7095 56.1 43.4031 56.1 47.9595Z" stroke="#0A0A0A" stroke-width="2.5" stroke-linecap="round" stroke-linejoin="round"/>
</svg>
