<svg width="21" height="38" viewBox="0 0 21 38" fill="none" xmlns="http://www.w3.org/2000/svg">
<path d="M20.5153 20.0186L3.09969 36.6124C2.8091 36.8894 2.42303 37.0439 2.02156 37.0439C1.62009 37.0439 1.23403 36.8894 0.943438 36.6124L0.924686 36.5936C0.783327 36.4594 0.670765 36.2977 0.593847 36.1185C0.51693 35.9394 0.477264 35.7464 0.477264 35.5515C0.477264 35.3565 0.51693 35.1635 0.593847 34.9844C0.670765 34.8052 0.783327 34.6436 0.924686 34.5093L17.3247 18.8843L0.924686 3.26552C0.783327 3.13123 0.670765 2.96959 0.593847 2.79042C0.51693 2.61126 0.477264 2.41831 0.477264 2.22334C0.477264 2.02835 0.51693 1.83541 0.593847 1.65625C0.670765 1.47709 0.783327 1.31544 0.924686 1.18115L0.943438 1.1624C1.23403 0.88538 1.62009 0.730846 2.02156 0.730846C2.42303 0.730846 2.8091 0.88538 3.09969 1.1624L20.5153 17.7561C20.6685 17.9021 20.7904 18.0776 20.8737 18.272C20.957 18.4665 21 18.6758 21 18.8874C21 19.0989 20.957 19.3083 20.8737 19.5028C20.7904 19.6972 20.6685 19.8727 20.5153 20.0186Z" fill="black"/>
</svg>
