<svg width="66" height="67" viewBox="0 0 66 67" fill="none" xmlns="http://www.w3.org/2000/svg">
<path d="M25.0801 25.1895V23.9395C24.3897 23.9395 23.8301 24.4991 23.8301 25.1895H25.0801ZM25.3431 25.1895H26.5931C26.5931 24.4991 26.0334 23.9395 25.3431 23.9395V25.1895ZM40.9201 25.1895V23.9395C40.2297 23.9395 39.6701 24.4991 39.6701 25.1895H40.9201ZM41.1539 25.1895H42.4039C42.4039 24.4991 41.8442 23.9395 41.1539 23.9395V25.1895ZM25.3431 25.4009V26.6509C26.0334 26.6509 26.5931 26.0912 26.5931 25.4009H25.3431ZM25.0801 25.4009H23.8301C23.8301 26.0912 24.3897 26.6509 25.0801 26.6509V25.4009ZM41.1539 25.4009V26.6509C41.8442 26.6509 42.4039 26.0912 42.4039 25.4009H41.1539ZM40.9201 25.4009H39.6701C39.6701 26.0912 40.2297 26.6509 40.9201 26.6509V25.4009ZM32.9999 39.72V38.47V39.72ZM41.0892 45.5501C41.4525 46.1371 42.2229 46.3184 42.8099 45.955C43.3969 45.5916 43.5782 44.8212 43.2149 44.2342L41.0892 45.5501ZM22.7849 44.2342C22.4215 44.8212 22.6028 45.5916 23.1898 45.955C23.7768 46.3184 24.5473 46.1371 24.9106 45.5501L22.7849 44.2342ZM58.1501 33.1095C58.1501 46.9994 46.8901 58.2595 33.0001 58.2595V60.7595C48.2708 60.7595 60.6501 48.3801 60.6501 33.1095H58.1501ZM33.0001 58.2595C19.1101 58.2595 7.8501 46.9994 7.8501 33.1095H5.3501C5.3501 48.3801 17.7294 60.7595 33.0001 60.7595V58.2595ZM7.8501 33.1095C7.8501 19.2195 19.1101 7.95947 33.0001 7.95947V5.45947C17.7294 5.45947 5.3501 17.8388 5.3501 33.1095H7.8501ZM33.0001 7.95947C46.8901 7.95947 58.1501 19.2195 58.1501 33.1095H60.6501C60.6501 17.8388 48.2708 5.45947 33.0001 5.45947V7.95947ZM25.0801 26.4395H25.3431V23.9395H25.0801V26.4395ZM40.9201 26.4395H41.1539V23.9395H40.9201V26.4395ZM24.0931 25.1895V25.4009H26.5931V25.1895H24.0931ZM25.3431 24.1509H25.0801V26.6509H25.3431V24.1509ZM26.3301 25.4009V25.1895H23.8301V25.4009H26.3301ZM39.9039 25.1895V25.4009H42.4039V25.1895H39.9039ZM41.1539 24.1509H40.9201V26.6509H41.1539V24.1509ZM42.1701 25.4009V25.1895H39.6701V25.4009H42.1701ZM32.9999 40.97C36.3858 40.97 39.3766 42.7834 41.0892 45.5501L43.2149 44.2342C41.0778 40.7818 37.3093 38.47 32.9999 38.47V40.97ZM24.9106 45.5501C26.6232 42.7834 29.6139 40.97 32.9999 40.97V38.47C28.6905 38.47 24.922 40.7818 22.7849 44.2342L24.9106 45.5501Z" fill="#0A0A0A"/>
</svg>
