<svg width="27" height="28" viewBox="0 0 27 28" fill="none" xmlns="http://www.w3.org/2000/svg">
<path d="M6.4125 11.0434C5.86022 11.0434 5.4125 11.4911 5.4125 12.0434C5.4125 12.5956 5.86022 13.0434 6.4125 13.0434V11.0434ZM10.9688 12.0434L11.6759 12.7505C12.0664 12.3599 12.0664 11.7268 11.6759 11.3363L10.9688 12.0434ZM8.23664 13.3613C7.84612 13.7518 7.84612 14.3849 8.23664 14.7755C8.62717 15.166 9.26033 15.166 9.65086 14.7755L8.23664 13.3613ZM9.65086 9.31125C9.26033 8.92073 8.62717 8.92073 8.23664 9.31125C7.84612 9.70178 7.84612 10.3349 8.23664 10.7255L9.65086 9.31125ZM20.0813 17.0934C20.6335 17.0934 21.0813 16.6456 21.0813 16.0934C21.0813 15.5411 20.6335 15.0934 20.0813 15.0934V17.0934ZM15.525 16.0934L14.8179 15.3863C14.4274 15.7768 14.4274 16.4099 14.8179 16.8005L15.525 16.0934ZM18.2571 14.7755C18.6476 14.3849 18.6476 13.7518 18.2571 13.3613C17.8666 12.9707 17.2334 12.9707 16.8429 13.3613L18.2571 14.7755ZM16.8429 18.8255C17.2334 19.216 17.8666 19.216 18.2571 18.8255C18.6476 18.4349 18.6476 17.8018 18.2571 17.4113L16.8429 18.8255ZM5.4 4.94336H12.4875V2.94336H5.4V4.94336ZM12.9938 19.1434H5.4V21.1434H12.9938V19.1434ZM4.375 18.1184V5.96836H2.375V18.1184H4.375ZM13.5125 5.96836V9.00586H15.5125V5.96836H13.5125ZM5.4 19.1434C4.83391 19.1434 4.375 18.6845 4.375 18.1184H2.375C2.375 19.789 3.72934 21.1434 5.4 21.1434V19.1434ZM12.4875 4.94336C13.0536 4.94336 13.5125 5.40227 13.5125 5.96836H15.5125C15.5125 4.2977 14.1582 2.94336 12.4875 2.94336V4.94336ZM5.4 2.94336C3.72934 2.94336 2.375 4.2977 2.375 5.96836H4.375C4.375 5.40227 4.83391 4.94336 5.4 4.94336V2.94336ZM14.5125 8.99336H21.6V6.99336H14.5125V8.99336ZM22.625 10.0184V22.1684H24.625V10.0184H22.625ZM21.6 23.1934H14.5125V25.1934H21.6V23.1934ZM13.4875 22.1684V10.0184H11.4875V22.1684H13.4875ZM14.5125 23.1934C13.9464 23.1934 13.4875 22.7345 13.4875 22.1684H11.4875C11.4875 23.839 12.8418 25.1934 14.5125 25.1934V23.1934ZM22.625 22.1684C22.625 22.7345 22.1661 23.1934 21.6 23.1934V25.1934C23.2707 25.1934 24.625 23.839 24.625 22.1684H22.625ZM21.6 8.99336C22.1661 8.99336 22.625 9.45227 22.625 10.0184H24.625C24.625 8.3477 23.2707 6.99336 21.6 6.99336V8.99336ZM14.5125 6.99336C12.8418 6.99336 11.4875 8.3477 11.4875 10.0184H13.4875C13.4875 9.45227 13.9464 8.99336 14.5125 8.99336V6.99336ZM6.4125 13.0434H10.9688V11.0434H6.4125V13.0434ZM9.65086 14.7755L11.6759 12.7505L10.2616 11.3363L8.23664 13.3613L9.65086 14.7755ZM11.6759 11.3363L9.65086 9.31125L8.23664 10.7255L10.2616 12.7505L11.6759 11.3363ZM20.0813 15.0934H15.525V17.0934H20.0813V15.0934ZM16.8429 13.3613L14.8179 15.3863L16.2321 16.8005L18.2571 14.7755L16.8429 13.3613ZM14.8179 16.8005L16.8429 18.8255L18.2571 17.4113L16.2321 15.3863L14.8179 16.8005Z" fill="#0A0A0A"/>
</svg>
