<svg width="27" height="28" viewBox="0 0 27 28" fill="none" xmlns="http://www.w3.org/2000/svg">
<path d="M10.2604 10.8112V9.81122C9.70815 9.81122 9.26044 10.2589 9.26044 10.8112H10.2604ZM10.368 10.8112H11.368C11.368 10.2589 10.9203 9.81122 10.368 9.81122V10.8112ZM16.7404 10.8112V9.81122C16.1882 9.81122 15.7404 10.2589 15.7404 10.8112H16.7404ZM16.8361 10.8112H17.8361C17.8361 10.2589 17.3884 9.81122 16.8361 9.81122V10.8112ZM10.368 10.8977V11.8977C10.9203 11.8977 11.368 11.45 11.368 10.8977H10.368ZM10.2604 10.8977H9.26044C9.26044 11.45 9.70815 11.8977 10.2604 11.8977V10.8977ZM16.8361 10.8977V11.8977C17.3884 11.8977 17.8361 11.45 17.8361 10.8977H16.8361ZM16.7404 10.8977H15.7404C15.7404 11.45 16.1882 11.8977 16.7404 11.8977V10.8977ZM10.6067 16.8089C10.316 16.3393 9.69965 16.1943 9.23006 16.485C8.76046 16.7757 8.61542 17.392 8.9061 17.8616L10.6067 16.8089ZM18.0948 17.8616C18.3855 17.392 18.2404 16.7757 17.7708 16.485C17.3012 16.1943 16.6849 16.3393 16.3942 16.8089L18.0948 17.8616ZM23.3004 14.0512C23.3004 19.4636 18.9128 23.8512 13.5004 23.8512V25.8512C20.0174 25.8512 25.3004 20.5682 25.3004 14.0512H23.3004ZM13.5004 23.8512C8.08805 23.8512 3.70044 19.4636 3.70044 14.0512H1.70044C1.70044 20.5682 6.98348 25.8512 13.5004 25.8512V23.8512ZM3.70044 14.0512C3.70044 8.63883 8.08805 4.25122 13.5004 4.25122V2.25122C6.98348 2.25122 1.70044 7.53426 1.70044 14.0512H3.70044ZM13.5004 4.25122C18.9128 4.25122 23.3004 8.63883 23.3004 14.0512H25.3004C25.3004 7.53426 20.0174 2.25122 13.5004 2.25122V4.25122ZM10.2604 11.8112H10.368V9.81122H10.2604V11.8112ZM16.7404 11.8112H16.8361V9.81122H16.7404V11.8112ZM9.36802 10.8112V10.8977H11.368V10.8112H9.36802ZM10.368 9.8977H10.2604V11.8977H10.368V9.8977ZM11.2604 10.8977V10.8112H9.26044V10.8977H11.2604ZM15.8361 10.8112V10.8977H17.8361V10.8112H15.8361ZM16.8361 9.8977H16.7404V11.8977H16.8361V9.8977ZM17.7404 10.8977V10.8112H15.7404V10.8977H17.7404ZM13.5004 18.4512C12.2958 18.4512 11.2243 17.8067 10.6067 16.8089L8.9061 17.8616C9.86335 19.408 11.557 20.4512 13.5004 20.4512V18.4512ZM16.3942 16.8089C15.7766 17.8067 14.7051 18.4512 13.5004 18.4512V20.4512C15.4439 20.4512 17.1375 19.408 18.0948 17.8616L16.3942 16.8089Z" fill="#0A0A0A"/>
</svg>
