<svg width="66" height="67" viewBox="0 0 66 67" fill="none" xmlns="http://www.w3.org/2000/svg">
<path d="M25.0811 25.189V23.939C24.3907 23.939 23.8311 24.4986 23.8311 25.189H25.0811ZM25.344 25.189H26.594C26.594 24.4986 26.0344 23.939 25.344 23.939V25.189ZM40.9211 25.189V23.939C40.2307 23.939 39.6711 24.4986 39.6711 25.189H40.9211ZM41.1548 25.189H42.4048C42.4048 24.4986 41.8452 23.939 41.1548 23.939V25.189ZM25.344 25.4004V26.6504C26.0344 26.6504 26.594 26.0907 26.594 25.4004H25.344ZM25.0811 25.4004H23.8311C23.8311 26.0907 24.3907 26.6504 25.0811 26.6504V25.4004ZM41.1548 25.4004V26.6504C41.8452 26.6504 42.4048 26.0907 42.4048 25.4004H41.1548ZM40.9211 25.4004H39.6711C39.6711 26.0907 40.2307 26.6504 40.9211 26.6504V25.4004ZM24.9118 40.4788C24.5484 39.8918 23.778 39.7105 23.191 40.0738C22.604 40.4372 22.4227 41.2076 22.7861 41.7946L24.9118 40.4788ZM43.2161 41.7946C43.5794 41.2076 43.3981 40.4372 42.8111 40.0738C42.2241 39.7105 41.4537 39.8918 41.0903 40.4788L43.2161 41.7946ZM58.1511 33.109C58.1511 46.9989 46.891 58.259 33.0011 58.259V60.759C48.2717 60.759 60.6511 48.3797 60.6511 33.109H58.1511ZM33.0011 58.259C19.1111 58.259 7.85107 46.9989 7.85107 33.109H5.35107C5.35107 48.3797 17.7304 60.759 33.0011 60.759V58.259ZM7.85107 33.109C7.85107 19.219 19.1111 7.95898 33.0011 7.95898V5.45898C17.7304 5.45898 5.35107 17.8383 5.35107 33.109H7.85107ZM33.0011 7.95898C46.891 7.95898 58.1511 19.219 58.1511 33.109H60.6511C60.6511 17.8383 48.2717 5.45898 33.0011 5.45898V7.95898ZM25.0811 26.439H25.344V23.939H25.0811V26.439ZM40.9211 26.439H41.1548V23.939H40.9211V26.439ZM24.094 25.189V25.4004H26.594V25.189H24.094ZM25.344 24.1504H25.0811V26.6504H25.344V24.1504ZM26.3311 25.4004V25.189H23.8311V25.4004H26.3311ZM39.9048 25.189V25.4004H42.4048V25.189H39.9048ZM41.1548 24.1504H40.9211V26.6504H41.1548V24.1504ZM42.1711 25.4004V25.189H39.6711V25.4004H42.1711ZM33.0011 45.0588C29.6151 45.0588 26.6244 43.2454 24.9118 40.4788L22.7861 41.7946C24.9232 45.2471 28.6917 47.5588 33.0011 47.5588V45.0588ZM41.0903 40.4788C39.3778 43.2454 36.387 45.0588 33.0011 45.0588V47.5588C37.3105 47.5588 41.079 45.2471 43.2161 41.7946L41.0903 40.4788Z" fill="#0A0A0A"/>
</svg>
