<svg width="27" height="28" viewBox="0 0 27 28" fill="none" xmlns="http://www.w3.org/2000/svg">
<path d="M12.9314 3.75159C13.1638 3.28072 13.8353 3.28072 14.0676 3.75159L17.0759 9.84698C17.1682 10.034 17.3466 10.1636 17.5529 10.1935L24.2796 11.171C24.7992 11.2465 25.0067 11.8851 24.6307 12.2516L19.7632 16.9962C19.6139 17.1417 19.5458 17.3514 19.581 17.5569L20.7301 24.2564C20.8188 24.7739 20.2756 25.1686 19.8108 24.9243L13.7943 21.7612C13.6098 21.6642 13.3893 21.6642 13.2047 21.7612L7.18822 24.9243C6.72345 25.1686 6.18024 24.7739 6.26901 24.2564L7.41806 17.5569C7.45331 17.3514 7.38517 17.1417 7.23586 16.9962L2.3684 12.2516C1.99239 11.8851 2.19988 11.2465 2.71951 11.171L9.44617 10.1935C9.65251 10.1636 9.83089 10.034 9.92317 9.84698L12.9314 3.75159Z" fill="#B7966E"/>
</svg>
