<svg width="51" height="50" viewBox="0 0 51 50" fill="none" xmlns="http://www.w3.org/2000/svg">
<path d="M24.4471 5.65495C24.8774 4.78298 26.1208 4.78298 26.5512 5.65495L32.122 16.9427C32.2929 17.289 32.6233 17.529 33.0054 17.5845L45.4622 19.3946C46.4244 19.5344 46.8087 20.7169 46.1124 21.3957L37.0985 30.182C36.822 30.4515 36.6959 30.8398 36.7611 31.2204L38.889 43.6269C39.0534 44.5852 38.0474 45.3161 37.1868 44.8636L26.0451 39.0061C25.7033 38.8264 25.295 38.8264 24.9532 39.0061L13.8115 44.8636C12.9508 45.3161 11.9449 44.5852 12.1093 43.6269L14.2372 31.2204C14.3024 30.8398 14.1763 30.4515 13.8997 30.182L4.88594 21.3957C4.18963 20.7169 4.57386 19.5344 5.53614 19.3946L17.9929 17.5845C18.375 17.529 18.7054 17.289 18.8763 16.9427L24.4471 5.65495Z" stroke="black" stroke-width="2.5" stroke-linejoin="round"/>
</svg>
