<svg width="33" height="34" viewBox="0 0 33 34" fill="none" xmlns="http://www.w3.org/2000/svg">
<path d="M14.975 4.57559C15.4988 3.16003 17.5009 3.16003 18.0247 4.57558L20.6319 11.6213C20.7966 12.0663 21.1475 12.4172 21.5925 12.5819L28.6382 15.189C30.0538 15.7128 30.0538 17.715 28.6382 18.2388L21.5925 20.8459C21.1475 21.0106 20.7966 21.3615 20.6319 21.8066L18.0247 28.8522C17.5009 30.2678 15.4988 30.2678 14.975 28.8522L12.3678 21.8066C12.2032 21.3615 11.8523 21.0106 11.4072 20.8459L4.36154 18.2388C2.94598 17.715 2.94598 15.7128 4.36153 15.189L11.4072 12.5819C11.8523 12.4172 12.2032 12.0663 12.3678 11.6213L14.975 4.57559Z" fill="#705429"/>
</svg>
