<svg width="33" height="33" viewBox="0 0 33 33" fill="none" xmlns="http://www.w3.org/2000/svg">
<path d="M14.975 4.36148C15.4988 2.94592 17.5009 2.94591 18.0247 4.36147L20.6319 11.4072C20.7966 11.8522 21.1475 12.2031 21.5925 12.3678L28.6382 14.9749C30.0538 15.4987 30.0538 17.5009 28.6382 18.0247L21.5925 20.6318C21.1475 20.7965 20.7966 21.1474 20.6319 21.5924L18.0247 28.6381C17.5009 30.0537 15.4988 30.0537 14.975 28.6381L12.3678 21.5924C12.2032 21.1474 11.8523 20.7965 11.4072 20.6318L4.36154 18.0247C2.94598 17.5009 2.94598 15.4987 4.36153 14.9749L11.4072 12.3678C11.8523 12.2031 12.2032 11.8522 12.3678 11.4072L14.975 4.36148Z" fill="#B7966E"/>
</svg>
