<svg width="61" height="61" viewBox="0 0 61 61" fill="none" xmlns="http://www.w3.org/2000/svg">
<rect width="61" height="61" rx="30.5" fill="#46601F"/>
<path d="M40.1964 31.0765C40.1964 30.5953 39.8062 30.2051 39.325 30.2051C38.8437 30.2051 38.4535 30.5953 38.4535 31.0765H40.1964ZM30.0107 22.7211C30.492 22.7211 30.8821 22.3309 30.8821 21.8497C30.8821 21.3684 30.492 20.9782 30.0107 20.9782V22.7211ZM35.5393 31.0765C35.5393 30.5953 35.1491 30.2051 34.6678 30.2051C34.1866 30.2051 33.7964 30.5953 33.7964 31.0765H35.5393ZM30.0107 27.3345C30.492 27.3345 30.8821 26.9444 30.8821 26.4631C30.8821 25.9818 30.492 25.5917 30.0107 25.5917V27.3345ZM34.7403 27.4319C35.0823 27.0932 35.0849 26.5415 34.7462 26.1995C34.4074 25.8576 33.8557 25.855 33.5138 26.1937L34.7403 27.4319ZM29.3974 30.2715C29.0555 30.6102 29.0529 31.1619 29.3916 31.5039C29.7303 31.8458 30.2821 31.8484 30.624 31.5097L29.3974 30.2715ZM40.3036 23.9585L40.9169 24.5776C41.152 24.3446 41.2349 23.9985 41.1308 23.6843C41.0266 23.3701 40.7534 23.142 40.4257 23.0957L40.3036 23.9585ZM36.5988 27.6285L36.3256 28.4559C36.6368 28.5587 36.9793 28.4782 37.2121 28.2476L36.5988 27.6285ZM33.3058 24.3663L32.6925 23.7472C32.4563 23.9811 32.3738 24.3291 32.4798 24.6442L33.3058 24.3663ZM37.0105 20.6963L37.873 20.5719C37.826 20.2462 37.5995 19.9747 37.2875 19.87C36.9754 19.7654 36.631 19.8456 36.3972 20.0772L37.0105 20.6963ZM34.129 26.8129L33.3031 27.0908C33.3906 27.3508 33.5953 27.5544 33.8558 27.6404L34.129 26.8129ZM37.4221 23.5507L36.5596 23.6751C36.6149 24.0584 36.9165 24.3593 37.3 24.4135L37.4221 23.5507ZM38.4535 31.0765C38.4535 35.6834 34.6813 39.432 30.0107 39.432V41.1749C35.6283 41.1749 40.1964 36.6614 40.1964 31.0765H38.4535ZM30.0107 39.432C25.3401 39.432 21.5679 35.6834 21.5679 31.0765H19.825C19.825 36.6614 24.3931 41.1749 30.0107 41.1749V39.432ZM21.5679 31.0765C21.5679 26.4697 25.3401 22.7211 30.0107 22.7211V20.9782C24.3931 20.9782 19.825 25.4917 19.825 31.0765H21.5679ZM33.7964 31.0765C33.7964 33.1355 32.1093 34.8186 30.0107 34.8186V36.5614C33.0563 36.5614 35.5393 34.1135 35.5393 31.0765H33.7964ZM30.0107 34.8186C27.9122 34.8186 26.225 33.1355 26.225 31.0765H24.4821C24.4821 34.1135 26.9651 36.5614 30.0107 36.5614V34.8186ZM26.225 31.0765C26.225 29.0176 27.9122 27.3345 30.0107 27.3345V25.5917C26.9651 25.5917 24.4821 28.0396 24.4821 31.0765H26.225ZM33.5138 26.1937L29.3974 30.2715L30.624 31.5097L34.7403 27.4319L33.5138 26.1937ZM39.6903 23.3394L35.9856 27.0094L37.2121 28.2476L40.9169 24.5776L39.6903 23.3394ZM33.919 24.9854L37.6238 21.3154L36.3972 20.0772L32.6925 23.7472L33.919 24.9854ZM36.8721 26.801L34.4023 25.9854L33.8558 27.6404L36.3256 28.4559L36.8721 26.801ZM34.955 26.535L34.1317 24.0883L32.4798 24.6442L33.3031 27.0908L34.955 26.535ZM36.148 20.8207L36.5596 23.6751L38.2846 23.4263L37.873 20.5719L36.148 20.8207ZM37.3 24.4135L40.1815 24.8213L40.4257 23.0957L37.5442 22.6879L37.3 24.4135Z" fill="#FEFEFE"/>
</svg>
