<svg width="155" height="629" viewBox="0 0 155 629" fill="none" xmlns="http://www.w3.org/2000/svg">
<path d="M67.9318 6.88098V18.001H66.1078V10.385L62.7158 18.001H61.4518L58.0438 10.385V18.001H56.2198V6.88098H58.1878L62.0918 15.601L65.9798 6.88098H67.9318ZM74.3131 18.145C73.4811 18.145 72.7291 17.9583 72.0571 17.585C71.3851 17.201 70.8571 16.6676 70.4731 15.985C70.0891 15.2916 69.8971 14.4916 69.8971 13.585C69.8971 12.689 70.0945 11.8943 70.4891 11.201C70.8838 10.5076 71.4225 9.97431 72.1051 9.60098C72.7878 9.22764 73.5505 9.04098 74.3931 9.04098C75.2358 9.04098 75.9985 9.22764 76.6811 9.60098C77.3638 9.97431 77.9025 10.5076 78.2971 11.201C78.6918 11.8943 78.8891 12.689 78.8891 13.585C78.8891 14.481 78.6865 15.2756 78.2811 15.969C77.8758 16.6623 77.3211 17.201 76.6171 17.585C75.9238 17.9583 75.1558 18.145 74.3131 18.145ZM74.3131 16.561C74.7825 16.561 75.2198 16.449 75.6251 16.225C76.0411 16.001 76.3771 15.665 76.6331 15.217C76.8891 14.769 77.0171 14.225 77.0171 13.585C77.0171 12.945 76.8945 12.4063 76.6491 11.969C76.4038 11.521 76.0785 11.185 75.6731 10.961C75.2678 10.737 74.8305 10.625 74.3611 10.625C73.8918 10.625 73.4545 10.737 73.0491 10.961C72.6545 11.185 72.3398 11.521 72.1051 11.969C71.8705 12.4063 71.7531 12.945 71.7531 13.585C71.7531 14.5343 71.9931 15.2703 72.4731 15.793C72.9638 16.305 73.5771 16.561 74.3131 16.561ZM84.6763 18.145C83.8443 18.145 83.0923 17.9583 82.4203 17.585C81.7483 17.201 81.2203 16.6676 80.8363 15.985C80.4523 15.2916 80.2603 14.4916 80.2603 13.585C80.2603 12.689 80.4576 11.8943 80.8523 11.201C81.2469 10.5076 81.7856 9.97431 82.4683 9.60098C83.1509 9.22764 83.9136 9.04098 84.7563 9.04098C85.5989 9.04098 86.3616 9.22764 87.0443 9.60098C87.7269 9.97431 88.2656 10.5076 88.6603 11.201C89.0549 11.8943 89.2523 12.689 89.2523 13.585C89.2523 14.481 89.0496 15.2756 88.6443 15.969C88.2389 16.6623 87.6843 17.201 86.9803 17.585C86.2869 17.9583 85.5189 18.145 84.6763 18.145ZM84.6763 16.561C85.1456 16.561 85.5829 16.449 85.9883 16.225C86.4043 16.001 86.7403 15.665 86.9963 15.217C87.2523 14.769 87.3803 14.225 87.3803 13.585C87.3803 12.945 87.2576 12.4063 87.0123 11.969C86.7669 11.521 86.4416 11.185 86.0363 10.961C85.6309 10.737 85.1936 10.625 84.7243 10.625C84.2549 10.625 83.8176 10.737 83.4123 10.961C83.0176 11.185 82.7029 11.521 82.4683 11.969C82.2336 12.4063 82.1163 12.945 82.1163 13.585C82.1163 14.5343 82.3563 15.2703 82.8363 15.793C83.3269 16.305 83.9403 16.561 84.6763 16.561ZM90.6074 13.553C90.6074 12.6676 90.7887 11.8836 91.1514 11.201C91.5247 10.5183 92.0261 9.99031 92.6554 9.61698C93.2954 9.23298 94.0047 9.04098 94.7834 9.04098C95.3594 9.04098 95.9247 9.16898 96.4794 9.42498C97.0447 9.67031 97.4927 10.001 97.8234 10.417V6.16098H99.6634V18.001H97.8234V16.673C97.5247 17.0996 97.1087 17.4516 96.5754 17.729C96.0527 18.0063 95.4501 18.145 94.7674 18.145C93.9994 18.145 93.2954 17.953 92.6554 17.569C92.0261 17.1743 91.5247 16.6303 91.1514 15.937C90.7887 15.233 90.6074 14.4383 90.6074 13.553ZM97.8234 13.585C97.8234 12.977 97.6954 12.449 97.4394 12.001C97.1941 11.553 96.8687 11.2116 96.4634 10.977C96.0581 10.7423 95.6207 10.625 95.1514 10.625C94.6821 10.625 94.2447 10.7423 93.8394 10.977C93.4341 11.201 93.1034 11.537 92.8474 11.985C92.6021 12.4223 92.4794 12.945 92.4794 13.553C92.4794 14.161 92.6021 14.6943 92.8474 15.153C93.1034 15.6116 93.4341 15.9636 93.8394 16.209C94.2554 16.4436 94.6927 16.561 95.1514 16.561C95.6207 16.561 96.0581 16.4436 96.4634 16.209C96.8687 15.9743 97.1941 15.633 97.4394 15.185C97.6954 14.7263 97.8234 14.193 97.8234 13.585Z" fill="#1E1E1E"/>
<g filter="url(#filter0_ddd_2245_15008)">
<rect width="128" height="128" transform="translate(14.0645 54.001)" fill="#80CAFF"/>
<path d="M25.2474 73.4795C25.2474 72.6635 25.4314 71.9315 25.7994 71.2835C26.1674 70.6275 26.6674 70.1155 27.2994 69.7475C27.9394 69.3795 28.6474 69.1955 29.4234 69.1955C30.3354 69.1955 31.1314 69.4155 31.8114 69.8555C32.4914 70.2955 32.9874 70.9195 33.2994 71.7275H31.9914C31.7594 71.2235 31.4234 70.8355 30.9834 70.5635C30.5514 70.2915 30.0314 70.1555 29.4234 70.1555C28.8394 70.1555 28.3154 70.2915 27.8514 70.5635C27.3874 70.8355 27.0234 71.2235 26.7594 71.7275C26.4954 72.2235 26.3634 72.8075 26.3634 73.4795C26.3634 74.1435 26.4954 74.7275 26.7594 75.2315C27.0234 75.7275 27.3874 76.1115 27.8514 76.3835C28.3154 76.6555 28.8394 76.7915 29.4234 76.7915C30.0314 76.7915 30.5514 76.6595 30.9834 76.3955C31.4234 76.1235 31.7594 75.7355 31.9914 75.2315H33.2994C32.9874 76.0315 32.4914 76.6515 31.8114 77.0915C31.1314 77.5235 30.3354 77.7395 29.4234 77.7395C28.6474 77.7395 27.9394 77.5595 27.2994 77.1995C26.6674 76.8315 26.1674 76.3235 25.7994 75.6755C25.4314 75.0275 25.2474 74.2955 25.2474 73.4795ZM38.189 70.9715C38.685 70.9715 39.133 71.0795 39.533 71.2955C39.933 71.5035 40.245 71.8195 40.469 72.2435C40.701 72.6675 40.817 73.1835 40.817 73.7915V77.6675H39.737V73.9475C39.737 73.2915 39.573 72.7915 39.245 72.4475C38.917 72.0955 38.469 71.9195 37.901 71.9195C37.325 71.9195 36.865 72.0995 36.521 72.4595C36.185 72.8195 36.017 73.3435 36.017 74.0315V77.6675H34.925V68.7875H36.017V72.0275C36.233 71.6915 36.529 71.4315 36.905 71.2475C37.289 71.0635 37.717 70.9715 38.189 70.9715ZM45.4688 77.7755C44.8528 77.7755 44.2928 77.6355 43.7888 77.3555C43.2928 77.0755 42.9008 76.6795 42.6128 76.1675C42.3328 75.6475 42.1928 75.0475 42.1928 74.3675C42.1928 73.6955 42.3368 73.1035 42.6248 72.5915C42.9208 72.0715 43.3208 71.6755 43.8248 71.4035C44.3288 71.1235 44.8928 70.9835 45.5168 70.9835C46.1408 70.9835 46.7048 71.1235 47.2088 71.4035C47.7128 71.6755 48.1088 72.0675 48.3968 72.5795C48.6928 73.0915 48.8408 73.6875 48.8408 74.3675C48.8408 75.0475 48.6888 75.6475 48.3848 76.1675C48.0888 76.6795 47.6848 77.0755 47.1728 77.3555C46.6608 77.6355 46.0928 77.7755 45.4688 77.7755ZM45.4688 76.8155C45.8608 76.8155 46.2288 76.7235 46.5728 76.5395C46.9168 76.3555 47.1928 76.0795 47.4008 75.7115C47.6168 75.3435 47.7248 74.8955 47.7248 74.3675C47.7248 73.8395 47.6208 73.3915 47.4128 73.0235C47.2048 72.6555 46.9328 72.3835 46.5968 72.2075C46.2608 72.0235 45.8968 71.9315 45.5048 71.9315C45.1048 71.9315 44.7368 72.0235 44.4008 72.2075C44.0728 72.3835 43.8088 72.6555 43.6088 73.0235C43.4088 73.3915 43.3088 73.8395 43.3088 74.3675C43.3088 74.9035 43.4048 75.3555 43.5968 75.7235C43.7968 76.0915 44.0608 76.3675 44.3888 76.5515C44.7168 76.7275 45.0768 76.8155 45.4688 76.8155ZM53.1445 77.7755C52.5285 77.7755 51.9685 77.6355 51.4645 77.3555C50.9685 77.0755 50.5765 76.6795 50.2885 76.1675C50.0085 75.6475 49.8685 75.0475 49.8685 74.3675C49.8685 73.6955 50.0125 73.1035 50.3005 72.5915C50.5965 72.0715 50.9965 71.6755 51.5005 71.4035C52.0045 71.1235 52.5685 70.9835 53.1925 70.9835C53.8165 70.9835 54.3805 71.1235 54.8845 71.4035C55.3885 71.6755 55.7845 72.0675 56.0725 72.5795C56.3685 73.0915 56.5165 73.6875 56.5165 74.3675C56.5165 75.0475 56.3645 75.6475 56.0605 76.1675C55.7645 76.6795 55.3605 77.0755 54.8485 77.3555C54.3365 77.6355 53.7685 77.7755 53.1445 77.7755ZM53.1445 76.8155C53.5365 76.8155 53.9045 76.7235 54.2485 76.5395C54.5925 76.3555 54.8685 76.0795 55.0765 75.7115C55.2925 75.3435 55.4005 74.8955 55.4005 74.3675C55.4005 73.8395 55.2965 73.3915 55.0885 73.0235C54.8805 72.6555 54.6085 72.3835 54.2725 72.2075C53.9365 72.0235 53.5725 71.9315 53.1805 71.9315C52.7805 71.9315 52.4125 72.0235 52.0765 72.2075C51.7485 72.3835 51.4845 72.6555 51.2845 73.0235C51.0845 73.3915 50.9845 73.8395 50.9845 74.3675C50.9845 74.9035 51.0805 75.3555 51.2725 75.7235C51.4725 76.0915 51.7365 76.3675 52.0645 76.5515C52.3925 76.7275 52.7525 76.8155 53.1445 76.8155ZM60.2803 77.7755C59.7763 77.7755 59.3243 77.6915 58.9243 77.5235C58.5243 77.3475 58.2083 77.1075 57.9763 76.8035C57.7443 76.4915 57.6163 76.1355 57.5923 75.7355H58.7203C58.7523 76.0635 58.9043 76.3315 59.1763 76.5395C59.4563 76.7475 59.8203 76.8515 60.2683 76.8515C60.6843 76.8515 61.0123 76.7595 61.2523 76.5755C61.4923 76.3915 61.6123 76.1595 61.6123 75.8795C61.6123 75.5915 61.4843 75.3795 61.2283 75.2435C60.9723 75.0995 60.5763 74.9595 60.0403 74.8235C59.5523 74.6955 59.1523 74.5675 58.8403 74.4395C58.5363 74.3035 58.2723 74.1075 58.0483 73.8515C57.8323 73.5875 57.7243 73.2435 57.7243 72.8195C57.7243 72.4835 57.8243 72.1755 58.0243 71.8955C58.2243 71.6155 58.5083 71.3955 58.8763 71.2355C59.2443 71.0675 59.6643 70.9835 60.1363 70.9835C60.8643 70.9835 61.4523 71.1675 61.9003 71.5355C62.3483 71.9035 62.5883 72.4075 62.6203 73.0475H61.5283C61.5043 72.7035 61.3643 72.4275 61.1083 72.2195C60.8603 72.0115 60.5243 71.9075 60.1003 71.9075C59.7083 71.9075 59.3963 71.9915 59.1643 72.1595C58.9323 72.3275 58.8163 72.5475 58.8163 72.8195C58.8163 73.0355 58.8843 73.2155 59.0203 73.3595C59.1643 73.4955 59.3403 73.6075 59.5483 73.6955C59.7643 73.7755 60.0603 73.8675 60.4363 73.9715C60.9083 74.0995 61.2923 74.2275 61.5883 74.3555C61.8843 74.4755 62.1363 74.6595 62.3443 74.9075C62.5603 75.1555 62.6723 75.4795 62.6803 75.8795C62.6803 76.2395 62.5803 76.5635 62.3803 76.8515C62.1803 77.1395 61.8963 77.3675 61.5283 77.5355C61.1683 77.6955 60.7523 77.7755 60.2803 77.7755ZM70.2219 74.1275C70.2219 74.3355 70.2099 74.5555 70.1859 74.7875H64.9299C64.9699 75.4355 65.1899 75.9435 65.5899 76.3115C65.9979 76.6715 66.4899 76.8515 67.0659 76.8515C67.5379 76.8515 67.9299 76.7435 68.2419 76.5275C68.5619 76.3035 68.7859 76.0075 68.9139 75.6395H70.0899C69.9139 76.2715 69.5619 76.7875 69.0339 77.1875C68.5059 77.5795 67.8499 77.7755 67.0659 77.7755C66.4419 77.7755 65.8819 77.6355 65.3859 77.3555C64.8979 77.0755 64.5139 76.6795 64.2339 76.1675C63.9539 75.6475 63.8139 75.0475 63.8139 74.3675C63.8139 73.6875 63.9499 73.0915 64.2219 72.5795C64.4939 72.0675 64.8739 71.6755 65.3619 71.4035C65.8579 71.1235 66.4259 70.9835 67.0659 70.9835C67.6899 70.9835 68.2419 71.1195 68.7219 71.3915C69.2019 71.6635 69.5699 72.0395 69.8259 72.5195C70.0899 72.9915 70.2219 73.5275 70.2219 74.1275ZM69.0939 73.8995C69.0939 73.4835 69.0019 73.1275 68.8179 72.8315C68.6339 72.5275 68.3819 72.2995 68.0619 72.1475C67.7499 71.9875 67.4019 71.9075 67.0179 71.9075C66.4659 71.9075 65.9939 72.0835 65.6019 72.4355C65.2179 72.7875 64.9979 73.2755 64.9419 73.8995H69.0939ZM83.6225 71.0915L81.5705 77.6675H80.4425L78.8585 72.4475L77.2745 77.6675H76.1465L74.0825 71.0915H75.1985L76.7105 76.6115L78.3425 71.0915H79.4585L81.0545 76.6235L82.5425 71.0915H83.6225ZM87.9702 70.9715C88.4662 70.9715 88.9142 71.0795 89.3142 71.2955C89.7142 71.5035 90.0262 71.8195 90.2502 72.2435C90.4822 72.6675 90.5982 73.1835 90.5982 73.7915V77.6675H89.5182V73.9475C89.5182 73.2915 89.3542 72.7915 89.0262 72.4475C88.6982 72.0955 88.2502 71.9195 87.6822 71.9195C87.1062 71.9195 86.6462 72.0995 86.3022 72.4595C85.9662 72.8195 85.7982 73.3435 85.7982 74.0315V77.6675H84.7062V68.7875H85.7982V72.0275C86.0142 71.6915 86.3102 71.4315 86.6862 71.2475C87.0702 71.0635 87.4982 70.9715 87.9702 70.9715ZM91.974 74.3555C91.974 73.6835 92.11 73.0955 92.382 72.5915C92.654 72.0795 93.026 71.6835 93.498 71.4035C93.978 71.1235 94.51 70.9835 95.094 70.9835C95.67 70.9835 96.17 71.1075 96.594 71.3555C97.018 71.6035 97.334 71.9155 97.542 72.2915V71.0915H98.646V77.6675H97.542V76.4435C97.326 76.8275 97.002 77.1475 96.57 77.4035C96.146 77.6515 95.65 77.7755 95.082 77.7755C94.498 77.7755 93.97 77.6315 93.498 77.3435C93.026 77.0555 92.654 76.6515 92.382 76.1315C92.11 75.6115 91.974 75.0195 91.974 74.3555ZM97.542 74.3675C97.542 73.8715 97.442 73.4395 97.242 73.0715C97.042 72.7035 96.77 72.4235 96.426 72.2315C96.09 72.0315 95.718 71.9315 95.31 71.9315C94.902 71.9315 94.53 72.0275 94.194 72.2195C93.858 72.4115 93.59 72.6915 93.39 73.0595C93.19 73.4275 93.09 73.8595 93.09 74.3555C93.09 74.8595 93.19 75.2995 93.39 75.6755C93.59 76.0435 93.858 76.3275 94.194 76.5275C94.53 76.7195 94.902 76.8155 95.31 76.8155C95.718 76.8155 96.09 76.7195 96.426 76.5275C96.77 76.3275 97.042 76.0435 97.242 75.6755C97.442 75.2995 97.542 74.8635 97.542 74.3675ZM101.823 71.9915V75.8675C101.823 76.1875 101.891 76.4155 102.027 76.5515C102.163 76.6795 102.399 76.7435 102.735 76.7435H103.539V77.6675H102.555C101.947 77.6675 101.491 77.5275 101.187 77.2475C100.883 76.9675 100.731 76.5075 100.731 75.8675V71.9915H99.8794V71.0915H100.731V69.4355H101.823V71.0915H103.539V71.9915H101.823ZM109.154 69.3035V77.6675H108.062V69.3035H109.154ZM25.2474 92.3555C25.2474 91.6835 25.3834 91.0955 25.6554 90.5915C25.9274 90.0795 26.2994 89.6835 26.7714 89.4035C27.2514 89.1235 27.7834 88.9835 28.3674 88.9835C28.9434 88.9835 29.4434 89.1075 29.8674 89.3555C30.2914 89.6035 30.6074 89.9155 30.8154 90.2915V89.0915H31.9194V95.6675H30.8154V94.4435C30.5994 94.8275 30.2754 95.1475 29.8434 95.4035C29.4194 95.6515 28.9234 95.7755 28.3554 95.7755C27.7714 95.7755 27.2434 95.6315 26.7714 95.3435C26.2994 95.0555 25.9274 94.6515 25.6554 94.1315C25.3834 93.6115 25.2474 93.0195 25.2474 92.3555ZM30.8154 92.3675C30.8154 91.8715 30.7154 91.4395 30.5154 91.0715C30.3154 90.7035 30.0434 90.4235 29.6994 90.2315C29.3634 90.0315 28.9914 89.9315 28.5834 89.9315C28.1754 89.9315 27.8034 90.0275 27.4674 90.2195C27.1314 90.4115 26.8634 90.6915 26.6634 91.0595C26.4634 91.4275 26.3634 91.8595 26.3634 92.3555C26.3634 92.8595 26.4634 93.2995 26.6634 93.6755C26.8634 94.0435 27.1314 94.3275 27.4674 94.5275C27.8034 94.7195 28.1754 94.8155 28.5834 94.8155C28.9914 94.8155 29.3634 94.7195 29.6994 94.5275C30.0434 94.3275 30.3154 94.0435 30.5154 93.6755C30.7154 93.2995 30.8154 92.8635 30.8154 92.3675ZM41.6728 88.9715C42.1848 88.9715 42.6408 89.0795 43.0408 89.2955C43.4408 89.5035 43.7568 89.8195 43.9888 90.2435C44.2208 90.6675 44.3368 91.1835 44.3368 91.7915V95.6675H43.2568V91.9475C43.2568 91.2915 43.0928 90.7915 42.7648 90.4475C42.4448 90.0955 42.0088 89.9195 41.4568 89.9195C40.8888 89.9195 40.4368 90.1035 40.1008 90.4715C39.7648 90.8315 39.5968 91.3555 39.5968 92.0435V95.6675H38.5168V91.9475C38.5168 91.2915 38.3528 90.7915 38.0248 90.4475C37.7048 90.0955 37.2688 89.9195 36.7168 89.9195C36.1488 89.9195 35.6968 90.1035 35.3608 90.4715C35.0248 90.8315 34.8568 91.3555 34.8568 92.0435V95.6675H33.7648V89.0915H34.8568V90.0395C35.0728 89.6955 35.3608 89.4315 35.7208 89.2475C36.0888 89.0635 36.4928 88.9715 36.9328 88.9715C37.4848 88.9715 37.9728 89.0955 38.3968 89.3435C38.8208 89.5915 39.1368 89.9555 39.3448 90.4355C39.5288 89.9715 39.8328 89.6115 40.2568 89.3555C40.6808 89.0995 41.1528 88.9715 41.6728 88.9715ZM48.9193 92.3675C48.9193 91.6875 49.0553 91.0955 49.3273 90.5915C49.5993 90.0795 49.9753 89.6835 50.4553 89.4035C50.9433 89.1235 51.4993 88.9835 52.1233 88.9835C52.9313 88.9835 53.5953 89.1795 54.1153 89.5715C54.6433 89.9635 54.9913 90.5075 55.1593 91.2035H53.9833C53.8713 90.8035 53.6513 90.4875 53.3233 90.2555C53.0033 90.0235 52.6033 89.9075 52.1233 89.9075C51.4993 89.9075 50.9953 90.1235 50.6113 90.5555C50.2273 90.9795 50.0353 91.5835 50.0353 92.3675C50.0353 93.1595 50.2273 93.7715 50.6113 94.2035C50.9953 94.6355 51.4993 94.8515 52.1233 94.8515C52.6033 94.8515 53.0033 94.7395 53.3233 94.5155C53.6433 94.2915 53.8633 93.9715 53.9833 93.5555H55.1593C54.9833 94.2275 54.6313 94.7675 54.1033 95.1755C53.5753 95.5755 52.9153 95.7755 52.1233 95.7755C51.4993 95.7755 50.9433 95.6355 50.4553 95.3555C49.9753 95.0755 49.5993 94.6795 49.3273 94.1675C49.0553 93.6555 48.9193 93.0555 48.9193 92.3675ZM57.7084 90.1595C57.9004 89.7835 58.1724 89.4915 58.5244 89.2835C58.8844 89.0755 59.3204 88.9715 59.8324 88.9715V90.0995H59.5444C58.3204 90.0995 57.7084 90.7635 57.7084 92.0915V95.6675H56.6164V89.0915H57.7084V90.1595ZM60.6849 92.3555C60.6849 91.6835 60.8209 91.0955 61.0929 90.5915C61.3649 90.0795 61.7369 89.6835 62.2089 89.4035C62.6889 89.1235 63.2209 88.9835 63.8049 88.9835C64.3809 88.9835 64.8809 89.1075 65.3049 89.3555C65.7289 89.6035 66.0449 89.9155 66.2529 90.2915V89.0915H67.3569V95.6675H66.2529V94.4435C66.0369 94.8275 65.7129 95.1475 65.2809 95.4035C64.8569 95.6515 64.3609 95.7755 63.7929 95.7755C63.2089 95.7755 62.6809 95.6315 62.2089 95.3435C61.7369 95.0555 61.3649 94.6515 61.0929 94.1315C60.8209 93.6115 60.6849 93.0195 60.6849 92.3555ZM66.2529 92.3675C66.2529 91.8715 66.1529 91.4395 65.9529 91.0715C65.7529 90.7035 65.4809 90.4235 65.1369 90.2315C64.8009 90.0315 64.4289 89.9315 64.0209 89.9315C63.6129 89.9315 63.2409 90.0275 62.9049 90.2195C62.5689 90.4115 62.3009 90.6915 62.1009 91.0595C61.9009 91.4275 61.8009 91.8595 61.8009 92.3555C61.8009 92.8595 61.9009 93.2995 62.1009 93.6755C62.3009 94.0435 62.5689 94.3275 62.9049 94.5275C63.2409 94.7195 63.6129 94.8155 64.0209 94.8155C64.4289 94.8155 64.8009 94.7195 65.1369 94.5275C65.4809 94.3275 65.7529 94.0435 65.9529 93.6755C66.1529 93.2995 66.2529 92.8635 66.2529 92.3675ZM71.6503 94.6595L73.6903 89.0915H74.8543L72.2743 95.6675H71.0023L68.4223 89.0915H69.5983L71.6503 94.6595ZM76.4929 88.0235C76.2849 88.0235 76.1089 87.9515 75.9649 87.8075C75.8209 87.6635 75.7489 87.4875 75.7489 87.2795C75.7489 87.0715 75.8209 86.8955 75.9649 86.7515C76.1089 86.6075 76.2849 86.5355 76.4929 86.5355C76.6929 86.5355 76.8609 86.6075 76.9969 86.7515C77.1409 86.8955 77.2129 87.0715 77.2129 87.2795C77.2129 87.4875 77.1409 87.6635 76.9969 87.8075C76.8609 87.9515 76.6929 88.0235 76.4929 88.0235ZM77.0209 89.0915V95.6675H75.9289V89.0915H77.0209ZM82.086 88.9715C82.886 88.9715 83.534 89.2155 84.03 89.7035C84.526 90.1835 84.774 90.8795 84.774 91.7915V95.6675H83.694V91.9475C83.694 91.2915 83.53 90.7915 83.202 90.4475C82.874 90.0955 82.426 89.9195 81.858 89.9195C81.282 89.9195 80.822 90.0995 80.478 90.4595C80.142 90.8195 79.974 91.3435 79.974 92.0315V95.6675H78.882V89.0915H79.974V90.0275C80.19 89.6915 80.482 89.4315 80.85 89.2475C81.226 89.0635 81.638 88.9715 82.086 88.9715ZM89.2698 88.9835C89.8378 88.9835 90.3338 89.1075 90.7578 89.3555C91.1898 89.6035 91.5098 89.9155 91.7178 90.2915V89.0915H92.8218V95.8115C92.8218 96.4115 92.6938 96.9435 92.4378 97.4075C92.1818 97.8795 91.8138 98.2475 91.3338 98.5115C90.8618 98.7755 90.3098 98.9075 89.6778 98.9075C88.8138 98.9075 88.0938 98.7035 87.5178 98.2955C86.9418 97.8875 86.6018 97.3315 86.4978 96.6275H87.5778C87.6978 97.0275 87.9458 97.3475 88.3218 97.5875C88.6978 97.8355 89.1498 97.9595 89.6778 97.9595C90.2778 97.9595 90.7658 97.7715 91.1418 97.3955C91.5258 97.0195 91.7178 96.4915 91.7178 95.8115V94.4315C91.5018 94.8155 91.1818 95.1355 90.7578 95.3915C90.3338 95.6475 89.8378 95.7755 89.2698 95.7755C88.6858 95.7755 88.1538 95.6315 87.6738 95.3435C87.2018 95.0555 86.8298 94.6515 86.5578 94.1315C86.2858 93.6115 86.1498 93.0195 86.1498 92.3555C86.1498 91.6835 86.2858 91.0955 86.5578 90.5915C86.8298 90.0795 87.2018 89.6835 87.6738 89.4035C88.1538 89.1235 88.6858 88.9835 89.2698 88.9835ZM91.7178 92.3675C91.7178 91.8715 91.6178 91.4395 91.4178 91.0715C91.2178 90.7035 90.9458 90.4235 90.6018 90.2315C90.2658 90.0315 89.8938 89.9315 89.4858 89.9315C89.0778 89.9315 88.7058 90.0275 88.3698 90.2195C88.0338 90.4115 87.7658 90.6915 87.5658 91.0595C87.3658 91.4275 87.2658 91.8595 87.2658 92.3555C87.2658 92.8595 87.3658 93.2995 87.5658 93.6755C87.7658 94.0435 88.0338 94.3275 88.3698 94.5275C88.7058 94.7195 89.0778 94.8155 89.4858 94.8155C89.8938 94.8155 90.2658 94.7195 90.6018 94.5275C90.9458 94.3275 91.2178 94.0435 91.4178 93.6755C91.6178 93.2995 91.7178 92.8635 91.7178 92.3675ZM28.4634 115.899C27.6954 115.147 27.0954 114.191 26.6634 113.031C26.2394 111.871 26.0274 110.619 26.0274 109.275C26.0274 107.899 26.2514 106.615 26.6994 105.423C27.1554 104.223 27.8034 103.235 28.6434 102.459H29.7834V102.567C28.8874 103.407 28.2114 104.419 27.7554 105.603C27.3074 106.779 27.0834 108.003 27.0834 109.275C27.0834 110.515 27.2954 111.699 27.7194 112.827C28.1514 113.955 28.7794 114.943 29.6034 115.791V115.899H28.4634ZM39.0127 106.971C39.5247 106.971 39.9807 107.079 40.3807 107.295C40.7807 107.503 41.0967 107.819 41.3287 108.243C41.5607 108.667 41.6767 109.183 41.6767 109.791V113.667H40.5967V109.947C40.5967 109.291 40.4327 108.791 40.1047 108.447C39.7847 108.095 39.3487 107.919 38.7967 107.919C38.2287 107.919 37.7767 108.103 37.4407 108.471C37.1047 108.831 36.9367 109.355 36.9367 110.043V113.667H35.8567V109.947C35.8567 109.291 35.6927 108.791 35.3647 108.447C35.0447 108.095 34.6087 107.919 34.0567 107.919C33.4887 107.919 33.0367 108.103 32.7007 108.471C32.3647 108.831 32.1967 109.355 32.1967 110.043V113.667H31.1047V107.091H32.1967V108.039C32.4127 107.695 32.7007 107.431 33.0607 107.247C33.4287 107.063 33.8327 106.971 34.2727 106.971C34.8247 106.971 35.3127 107.095 35.7367 107.343C36.1607 107.591 36.4767 107.955 36.6847 108.435C36.8687 107.971 37.1727 107.611 37.5967 107.355C38.0207 107.099 38.4927 106.971 39.0127 106.971ZM46.3359 113.775C45.7199 113.775 45.1599 113.635 44.6559 113.355C44.1599 113.075 43.7679 112.679 43.4799 112.167C43.1999 111.647 43.0599 111.047 43.0599 110.367C43.0599 109.695 43.2039 109.103 43.4919 108.591C43.7879 108.071 44.1879 107.675 44.6919 107.403C45.1959 107.123 45.7599 106.983 46.3839 106.983C47.0079 106.983 47.5719 107.123 48.0759 107.403C48.5799 107.675 48.9759 108.067 49.2639 108.579C49.5599 109.091 49.7079 109.687 49.7079 110.367C49.7079 111.047 49.5559 111.647 49.2519 112.167C48.9559 112.679 48.5519 113.075 48.0399 113.355C47.5279 113.635 46.9599 113.775 46.3359 113.775ZM46.3359 112.815C46.7279 112.815 47.0959 112.723 47.4399 112.539C47.7839 112.355 48.0599 112.079 48.2679 111.711C48.4839 111.343 48.5919 110.895 48.5919 110.367C48.5919 109.839 48.4879 109.391 48.2799 109.023C48.0719 108.655 47.7999 108.383 47.4639 108.207C47.1279 108.023 46.7639 107.931 46.3719 107.931C45.9719 107.931 45.6039 108.023 45.2679 108.207C44.9399 108.383 44.6759 108.655 44.4759 109.023C44.2759 109.391 44.1759 109.839 44.1759 110.367C44.1759 110.903 44.2719 111.355 44.4639 111.723C44.6639 112.091 44.9279 112.367 45.2559 112.551C45.5839 112.727 45.9439 112.815 46.3359 112.815ZM54.0117 113.775C53.3957 113.775 52.8357 113.635 52.3317 113.355C51.8357 113.075 51.4437 112.679 51.1557 112.167C50.8757 111.647 50.7357 111.047 50.7357 110.367C50.7357 109.695 50.8797 109.103 51.1677 108.591C51.4637 108.071 51.8637 107.675 52.3677 107.403C52.8717 107.123 53.4357 106.983 54.0597 106.983C54.6837 106.983 55.2477 107.123 55.7517 107.403C56.2557 107.675 56.6517 108.067 56.9397 108.579C57.2357 109.091 57.3837 109.687 57.3837 110.367C57.3837 111.047 57.2317 111.647 56.9277 112.167C56.6317 112.679 56.2277 113.075 55.7157 113.355C55.2037 113.635 54.6357 113.775 54.0117 113.775ZM54.0117 112.815C54.4037 112.815 54.7717 112.723 55.1157 112.539C55.4597 112.355 55.7357 112.079 55.9437 111.711C56.1597 111.343 56.2677 110.895 56.2677 110.367C56.2677 109.839 56.1637 109.391 55.9557 109.023C55.7477 108.655 55.4757 108.383 55.1397 108.207C54.8037 108.023 54.4397 107.931 54.0477 107.931C53.6477 107.931 53.2797 108.023 52.9437 108.207C52.6157 108.383 52.3517 108.655 52.1517 109.023C51.9517 109.391 51.8517 109.839 51.8517 110.367C51.8517 110.903 51.9477 111.355 52.1397 111.723C52.3397 112.091 52.6037 112.367 52.9317 112.551C53.2597 112.727 53.6197 112.815 54.0117 112.815ZM58.4115 110.355C58.4115 109.683 58.5475 109.095 58.8195 108.591C59.0915 108.079 59.4635 107.683 59.9355 107.403C60.4155 107.123 60.9515 106.983 61.5435 106.983C62.0555 106.983 62.5315 107.103 62.9715 107.343C63.4115 107.575 63.7475 107.883 63.9795 108.267V104.787H65.0835V113.667H63.9795V112.431C63.7635 112.823 63.4435 113.147 63.0195 113.403C62.5955 113.651 62.0995 113.775 61.5315 113.775C60.9475 113.775 60.4155 113.631 59.9355 113.343C59.4635 113.055 59.0915 112.651 58.8195 112.131C58.5475 111.611 58.4115 111.019 58.4115 110.355ZM63.9795 110.367C63.9795 109.871 63.8795 109.439 63.6795 109.071C63.4795 108.703 63.2075 108.423 62.8635 108.231C62.5275 108.031 62.1555 107.931 61.7475 107.931C61.3395 107.931 60.9675 108.027 60.6315 108.219C60.2955 108.411 60.0275 108.691 59.8275 109.059C59.6275 109.427 59.5275 109.859 59.5275 110.355C59.5275 110.859 59.6275 111.299 59.8275 111.675C60.0275 112.043 60.2955 112.327 60.6315 112.527C60.9675 112.719 61.3395 112.815 61.7475 112.815C62.1555 112.815 62.5275 112.719 62.8635 112.527C63.2075 112.327 63.4795 112.043 63.6795 111.675C63.8795 111.299 63.9795 110.863 63.9795 110.367ZM66.5809 115.899V115.791C67.4049 114.943 68.0289 113.955 68.4529 112.827C68.8849 111.699 69.1009 110.515 69.1009 109.275C69.1009 108.003 68.8729 106.779 68.4169 105.603C67.9689 104.419 67.2969 103.407 66.4009 102.567V102.459H67.5409C68.3809 103.235 69.0249 104.223 69.4729 105.423C69.9289 106.615 70.1569 107.899 70.1569 109.275C70.1569 110.619 69.9409 111.871 69.5089 113.031C69.0849 114.191 68.4889 115.147 67.7209 115.899H66.5809Z" fill="#0A0A0A"/>
</g>
<g filter="url(#filter1_ddd_2245_15008)">
<rect width="128" height="128" transform="translate(13.8145 142.274)" fill="#FFC470"/>
<path d="M33.8894 157.637V165.941H32.7974V159.749L30.0374 165.941H29.2694L26.4974 159.737V165.941H25.4054V157.637H26.5814L29.6534 164.501L32.7254 157.637H33.8894ZM38.6094 166.049C37.9934 166.049 37.4334 165.909 36.9294 165.629C36.4334 165.349 36.0414 164.953 35.7534 164.441C35.4734 163.921 35.3334 163.321 35.3334 162.641C35.3334 161.969 35.4774 161.377 35.7654 160.865C36.0614 160.345 36.4614 159.949 36.9654 159.677C37.4694 159.397 38.0334 159.257 38.6574 159.257C39.2814 159.257 39.8454 159.397 40.3494 159.677C40.8534 159.949 41.2494 160.341 41.5374 160.853C41.8334 161.365 41.9814 161.961 41.9814 162.641C41.9814 163.321 41.8294 163.921 41.5254 164.441C41.2294 164.953 40.8254 165.349 40.3134 165.629C39.8014 165.909 39.2334 166.049 38.6094 166.049ZM38.6094 165.089C39.0014 165.089 39.3694 164.997 39.7134 164.813C40.0574 164.629 40.3334 164.353 40.5414 163.985C40.7574 163.617 40.8654 163.169 40.8654 162.641C40.8654 162.113 40.7614 161.665 40.5534 161.297C40.3454 160.929 40.0734 160.657 39.7374 160.481C39.4014 160.297 39.0374 160.205 38.6454 160.205C38.2454 160.205 37.8774 160.297 37.5414 160.481C37.2134 160.657 36.9494 160.929 36.7494 161.297C36.5494 161.665 36.4494 162.113 36.4494 162.641C36.4494 163.177 36.5454 163.629 36.7374 163.997C36.9374 164.365 37.2014 164.641 37.5294 164.825C37.8574 165.001 38.2174 165.089 38.6094 165.089ZM46.2852 166.049C45.6692 166.049 45.1092 165.909 44.6052 165.629C44.1092 165.349 43.7172 164.953 43.4292 164.441C43.1492 163.921 43.0092 163.321 43.0092 162.641C43.0092 161.969 43.1532 161.377 43.4412 160.865C43.7372 160.345 44.1372 159.949 44.6412 159.677C45.1452 159.397 45.7092 159.257 46.3332 159.257C46.9572 159.257 47.5212 159.397 48.0252 159.677C48.5292 159.949 48.9252 160.341 49.2132 160.853C49.5092 161.365 49.6572 161.961 49.6572 162.641C49.6572 163.321 49.5052 163.921 49.2012 164.441C48.9052 164.953 48.5012 165.349 47.9892 165.629C47.4772 165.909 46.9092 166.049 46.2852 166.049ZM46.2852 165.089C46.6772 165.089 47.0452 164.997 47.3892 164.813C47.7332 164.629 48.0092 164.353 48.2172 163.985C48.4332 163.617 48.5412 163.169 48.5412 162.641C48.5412 162.113 48.4372 161.665 48.2292 161.297C48.0212 160.929 47.7492 160.657 47.4132 160.481C47.0772 160.297 46.7132 160.205 46.3212 160.205C45.9212 160.205 45.5532 160.297 45.2172 160.481C44.8892 160.657 44.6252 160.929 44.4252 161.297C44.2252 161.665 44.1252 162.113 44.1252 162.641C44.1252 163.177 44.2212 163.629 44.4132 163.997C44.6132 164.365 44.8772 164.641 45.2052 164.825C45.5332 165.001 45.8932 165.089 46.2852 165.089ZM50.6849 162.629C50.6849 161.957 50.8209 161.369 51.0929 160.865C51.3649 160.353 51.7369 159.957 52.2089 159.677C52.6889 159.397 53.2249 159.257 53.8169 159.257C54.3289 159.257 54.8049 159.377 55.2449 159.617C55.6849 159.849 56.0209 160.157 56.2529 160.541V157.061H57.3569V165.941H56.2529V164.705C56.0369 165.097 55.7169 165.421 55.2929 165.677C54.8689 165.925 54.3729 166.049 53.8049 166.049C53.2209 166.049 52.6889 165.905 52.2089 165.617C51.7369 165.329 51.3649 164.925 51.0929 164.405C50.8209 163.885 50.6849 163.293 50.6849 162.629ZM56.2529 162.641C56.2529 162.145 56.1529 161.713 55.9529 161.345C55.7529 160.977 55.4809 160.697 55.1369 160.505C54.8009 160.305 54.4289 160.205 54.0209 160.205C53.6129 160.205 53.2409 160.301 52.9049 160.493C52.5689 160.685 52.3009 160.965 52.1009 161.333C51.9009 161.701 51.8009 162.133 51.8009 162.629C51.8009 163.133 51.9009 163.573 52.1009 163.949C52.3009 164.317 52.5689 164.601 52.9049 164.801C53.2409 164.993 53.6129 165.089 54.0209 165.089C54.4289 165.089 54.8009 164.993 55.1369 164.801C55.4809 164.601 55.7529 164.317 55.9529 163.949C56.1529 163.573 56.2529 163.137 56.2529 162.641Z" fill="#0A0A0A"/>
</g>
<path d="M14.5 524.404C14.5 524.128 14.2761 523.904 14 523.904C13.7239 523.904 13.5 524.128 13.5 524.404H14.5ZM77.6464 589.758C77.8417 589.953 78.1583 589.953 78.3536 589.758L81.5355 586.576C81.7308 586.381 81.7308 586.064 81.5355 585.869C81.3403 585.674 81.0237 585.674 80.8284 585.869L78 588.697L75.1716 585.869C74.9763 585.674 74.6597 585.674 74.4645 585.869C74.2692 586.064 74.2692 586.381 74.4645 586.576L77.6464 589.758ZM78 589.404H78.5H78ZM13.5 524.404V553.217H14.5V524.404H13.5ZM38 577.717H65.8125V576.717H38V577.717ZM65.8125 577.717C72.2673 577.717 77.5 582.949 77.5 589.404H78.5C78.5 582.397 72.8196 576.717 65.8125 576.717V577.717ZM13.5 553.217C13.5 566.748 24.469 577.717 38 577.717V576.717C25.0213 576.717 14.5 566.195 14.5 553.217H13.5Z" fill="#757575"/>
<path d="M142.5 524.404C142.5 524.128 142.276 523.904 142 523.904C141.724 523.904 141.5 524.128 141.5 524.404H142.5ZM77.6464 589.758C77.8417 589.953 78.1583 589.953 78.3536 589.758L81.5355 586.576C81.7308 586.381 81.7308 586.064 81.5355 585.869C81.3403 585.674 81.0237 585.674 80.8284 585.869L78 588.697L75.1716 585.869C74.9763 585.674 74.6597 585.674 74.4645 585.869C74.2692 586.064 74.2692 586.381 74.4645 586.576L77.6464 589.758ZM78 589.404H78.5H78ZM141.5 524.404V553.217H142.5V524.404H141.5ZM118 576.717H90.1875V577.717H118V576.717ZM90.1875 576.717C83.1804 576.717 77.5 582.397 77.5 589.404H78.5C78.5 582.949 83.7327 577.717 90.1875 577.717V576.717ZM141.5 553.217C141.5 566.195 130.979 576.717 118 576.717V577.717C131.531 577.717 142.5 566.748 142.5 553.217H141.5Z" fill="#757575"/>
<path d="M10.5526 611.481L6.87258 618.569V622.601H5.04858V618.569L1.35258 611.481H3.38458L5.96058 616.937L8.53658 611.481H10.5526ZM15.9841 622.745C15.1521 622.745 14.4001 622.558 13.7281 622.185C13.0561 621.801 12.5281 621.268 12.1441 620.585C11.7601 619.892 11.5681 619.092 11.5681 618.185C11.5681 617.289 11.7654 616.494 12.1601 615.801C12.5547 615.108 13.0934 614.574 13.7761 614.201C14.4587 613.828 15.2214 613.641 16.0641 613.641C16.9067 613.641 17.6694 613.828 18.3521 614.201C19.0347 614.574 19.5734 615.108 19.9681 615.801C20.3627 616.494 20.5601 617.289 20.5601 618.185C20.5601 619.081 20.3574 619.876 19.9521 620.569C19.5467 621.262 18.9921 621.801 18.2881 622.185C17.5947 622.558 16.8267 622.745 15.9841 622.745ZM15.9841 621.161C16.4534 621.161 16.8907 621.049 17.2961 620.825C17.7121 620.601 18.0481 620.265 18.3041 619.817C18.5601 619.369 18.6881 618.825 18.6881 618.185C18.6881 617.545 18.5654 617.006 18.3201 616.569C18.0747 616.121 17.7494 615.785 17.3441 615.561C16.9387 615.337 16.5014 615.225 16.0321 615.225C15.5627 615.225 15.1254 615.337 14.7201 615.561C14.3254 615.785 14.0107 616.121 13.7761 616.569C13.5414 617.006 13.4241 617.545 13.4241 618.185C13.4241 619.134 13.6641 619.87 14.1441 620.393C14.6347 620.905 15.2481 621.161 15.9841 621.161ZM30.5072 613.785V622.601H28.6832V621.561C28.3952 621.924 28.0165 622.212 27.5472 622.425C27.0885 622.628 26.5979 622.729 26.0752 622.729C25.3819 622.729 24.7579 622.585 24.2032 622.297C23.6592 622.009 23.2272 621.582 22.9072 621.017C22.5979 620.452 22.4432 619.769 22.4432 618.969V613.785H24.2512V618.697C24.2512 619.486 24.4485 620.094 24.8432 620.521C25.2379 620.937 25.7765 621.145 26.4592 621.145C27.1419 621.145 27.6805 620.937 28.0752 620.521C28.4805 620.094 28.6832 619.486 28.6832 618.697V613.785H30.5072ZM34.8978 615.065C35.1645 614.617 35.5165 614.27 35.9538 614.025C36.4018 613.769 36.9298 613.641 37.5378 613.641V615.529H37.0738C36.3592 615.529 35.8152 615.71 35.4418 616.073C35.0792 616.436 34.8978 617.065 34.8978 617.961V622.601H33.0738V613.785H34.8978V615.065ZM43.0827 618.185C43.0827 617.278 43.264 616.484 43.6267 615.801C44 615.108 44.512 614.574 45.1627 614.201C45.8134 613.828 46.56 613.641 47.4027 613.641C48.4694 613.641 49.3494 613.897 50.0427 614.409C50.7467 614.91 51.2214 615.63 51.4667 616.569H49.4987C49.3387 616.132 49.0827 615.79 48.7307 615.545C48.3787 615.3 47.936 615.177 47.4027 615.177C46.656 615.177 46.0587 615.444 45.6107 615.977C45.1734 616.5 44.9547 617.236 44.9547 618.185C44.9547 619.134 45.1734 619.876 45.6107 620.409C46.0587 620.942 46.656 621.209 47.4027 621.209C48.4587 621.209 49.1574 620.745 49.4987 619.817H51.4667C51.2107 620.713 50.7307 621.428 50.0267 621.961C49.3227 622.484 48.448 622.745 47.4027 622.745C46.56 622.745 45.8134 622.558 45.1627 622.185C44.512 621.801 44 621.268 43.6267 620.585C43.264 619.892 43.0827 619.092 43.0827 618.185ZM61.4285 613.785V622.601H59.6045V621.561C59.3165 621.924 58.9378 622.212 58.4685 622.425C58.0098 622.628 57.5191 622.729 56.9965 622.729C56.3031 622.729 55.6791 622.585 55.1245 622.297C54.5805 622.009 54.1485 621.582 53.8285 621.017C53.5191 620.452 53.3645 619.769 53.3645 618.969V613.785H55.1725V618.697C55.1725 619.486 55.3698 620.094 55.7645 620.521C56.1591 620.937 56.6978 621.145 57.3805 621.145C58.0631 621.145 58.6018 620.937 58.9965 620.521C59.4018 620.094 59.6045 619.486 59.6045 618.697V613.785H61.4285ZM65.8191 615.065C66.0857 614.617 66.4377 614.27 66.8751 614.025C67.3231 613.769 67.8511 613.641 68.4591 613.641V615.529H67.9951C67.2804 615.529 66.7364 615.71 66.3631 616.073C66.0004 616.436 65.8191 617.065 65.8191 617.961V622.601H63.9951V613.785H65.8191V615.065ZM72.1197 615.065C72.3864 614.617 72.7384 614.27 73.1757 614.025C73.6237 613.769 74.1517 613.641 74.7597 613.641V615.529H74.2957C73.581 615.529 73.037 615.71 72.6637 616.073C72.301 616.436 72.1197 617.065 72.1197 617.961V622.601H70.2957V613.785H72.1197V615.065ZM84.6763 617.977C84.6763 618.308 84.655 618.606 84.6123 618.873H77.8763C77.9297 619.577 78.191 620.142 78.6603 620.569C79.1297 620.996 79.7057 621.209 80.3883 621.209C81.3697 621.209 82.063 620.798 82.4683 619.977H84.4363C84.1697 620.788 83.6843 621.454 82.9803 621.977C82.287 622.489 81.423 622.745 80.3883 622.745C79.5457 622.745 78.7883 622.558 78.1163 622.185C77.455 621.801 76.9323 621.268 76.5483 620.585C76.175 619.892 75.9883 619.092 75.9883 618.185C75.9883 617.278 76.1697 616.484 76.5323 615.801C76.9057 615.108 77.423 614.574 78.0843 614.201C78.7563 613.828 79.5243 613.641 80.3883 613.641C81.2203 613.641 81.9617 613.822 82.6123 614.185C83.263 614.548 83.7697 615.06 84.1323 615.721C84.495 616.372 84.6763 617.124 84.6763 617.977ZM82.7723 617.401C82.7617 616.729 82.5217 616.19 82.0523 615.785C81.583 615.38 81.0017 615.177 80.3083 615.177C79.679 615.177 79.1403 615.38 78.6923 615.785C78.2443 616.18 77.9777 616.718 77.8923 617.401H82.7723ZM91.0793 613.641C91.7727 613.641 92.3913 613.785 92.9353 614.073C93.49 614.361 93.922 614.788 94.2313 615.353C94.5407 615.918 94.6953 616.601 94.6953 617.401V622.601H92.8873V617.673C92.8873 616.884 92.69 616.281 92.2953 615.865C91.9007 615.438 91.362 615.225 90.6793 615.225C89.9967 615.225 89.4527 615.438 89.0473 615.865C88.6527 616.281 88.4553 616.884 88.4553 617.673V622.601H86.6313V613.785H88.4553V614.793C88.754 614.43 89.1327 614.148 89.5913 613.945C90.0607 613.742 90.5567 613.641 91.0793 613.641ZM99.31 615.273V620.153C99.31 620.484 99.3846 620.724 99.534 620.873C99.694 621.012 99.9606 621.081 100.334 621.081H101.454V622.601H100.014C99.1926 622.601 98.5633 622.409 98.126 622.025C97.6886 621.641 97.47 621.017 97.47 620.153V615.273H96.43V613.785H97.47V611.593H99.31V613.785H101.454V615.273H99.31ZM118.283 613.641C118.977 613.641 119.595 613.785 120.139 614.073C120.694 614.361 121.126 614.788 121.435 615.353C121.755 615.918 121.915 616.601 121.915 617.401V622.601H120.107V617.673C120.107 616.884 119.91 616.281 119.515 615.865C119.121 615.438 118.582 615.225 117.899 615.225C117.217 615.225 116.673 615.438 116.267 615.865C115.873 616.281 115.675 616.884 115.675 617.673V622.601H113.867V617.673C113.867 616.884 113.67 616.281 113.275 615.865C112.881 615.438 112.342 615.225 111.659 615.225C110.977 615.225 110.433 615.438 110.027 615.865C109.633 616.281 109.435 616.884 109.435 617.673V622.601H107.611V613.785H109.435V614.793C109.734 614.43 110.113 614.148 110.571 613.945C111.03 613.742 111.521 613.641 112.043 613.641C112.747 613.641 113.377 613.79 113.931 614.089C114.486 614.388 114.913 614.82 115.211 615.385C115.478 614.852 115.894 614.43 116.459 614.121C117.025 613.801 117.633 613.641 118.283 613.641ZM128.22 622.745C127.388 622.745 126.636 622.558 125.964 622.185C125.292 621.801 124.764 621.268 124.38 620.585C123.996 619.892 123.804 619.092 123.804 618.185C123.804 617.289 124.002 616.494 124.396 615.801C124.791 615.108 125.33 614.574 126.012 614.201C126.695 613.828 127.458 613.641 128.3 613.641C129.143 613.641 129.906 613.828 130.588 614.201C131.271 614.574 131.81 615.108 132.204 615.801C132.599 616.494 132.796 617.289 132.796 618.185C132.796 619.081 132.594 619.876 132.188 620.569C131.783 621.262 131.228 621.801 130.524 622.185C129.831 622.558 129.063 622.745 128.22 622.745ZM128.22 621.161C128.69 621.161 129.127 621.049 129.532 620.825C129.948 620.601 130.284 620.265 130.54 619.817C130.796 619.369 130.924 618.825 130.924 618.185C130.924 617.545 130.802 617.006 130.556 616.569C130.311 616.121 129.986 615.785 129.58 615.561C129.175 615.337 128.738 615.225 128.268 615.225C127.799 615.225 127.362 615.337 126.956 615.561C126.562 615.785 126.247 616.121 126.012 616.569C125.778 617.006 125.66 617.545 125.66 618.185C125.66 619.134 125.9 619.87 126.38 620.393C126.871 620.905 127.484 621.161 128.22 621.161ZM138.583 622.745C137.751 622.745 136.999 622.558 136.327 622.185C135.655 621.801 135.127 621.268 134.743 620.585C134.359 619.892 134.167 619.092 134.167 618.185C134.167 617.289 134.365 616.494 134.759 615.801C135.154 615.108 135.693 614.574 136.375 614.201C137.058 613.828 137.821 613.641 138.663 613.641C139.506 613.641 140.269 613.828 140.951 614.201C141.634 614.574 142.173 615.108 142.567 615.801C142.962 616.494 143.159 617.289 143.159 618.185C143.159 619.081 142.957 619.876 142.551 620.569C142.146 621.262 141.591 621.801 140.887 622.185C140.194 622.558 139.426 622.745 138.583 622.745ZM138.583 621.161C139.053 621.161 139.49 621.049 139.895 620.825C140.311 620.601 140.647 620.265 140.903 619.817C141.159 619.369 141.287 618.825 141.287 618.185C141.287 617.545 141.165 617.006 140.919 616.569C140.674 616.121 140.349 615.785 139.943 615.561C139.538 615.337 139.101 615.225 138.631 615.225C138.162 615.225 137.725 615.337 137.319 615.561C136.925 615.785 136.61 616.121 136.375 616.569C136.141 617.006 136.023 617.545 136.023 618.185C136.023 619.134 136.263 619.87 136.743 620.393C137.234 620.905 137.847 621.161 138.583 621.161ZM144.515 618.153C144.515 617.268 144.696 616.484 145.059 615.801C145.432 615.118 145.933 614.59 146.563 614.217C147.203 613.833 147.912 613.641 148.691 613.641C149.267 613.641 149.832 613.769 150.387 614.025C150.952 614.27 151.4 614.601 151.731 615.017V610.761H153.571V622.601H151.731V621.273C151.432 621.7 151.016 622.052 150.483 622.329C149.96 622.606 149.357 622.745 148.675 622.745C147.907 622.745 147.203 622.553 146.563 622.169C145.933 621.774 145.432 621.23 145.059 620.537C144.696 619.833 144.515 619.038 144.515 618.153ZM151.731 618.185C151.731 617.577 151.603 617.049 151.347 616.601C151.101 616.153 150.776 615.812 150.371 615.577C149.965 615.342 149.528 615.225 149.059 615.225C148.589 615.225 148.152 615.342 147.747 615.577C147.341 615.801 147.011 616.137 146.755 616.585C146.509 617.022 146.387 617.545 146.387 618.153C146.387 618.761 146.509 619.294 146.755 619.753C147.011 620.212 147.341 620.564 147.747 620.809C148.163 621.044 148.6 621.161 149.059 621.161C149.528 621.161 149.965 621.044 150.371 620.809C150.776 620.574 151.101 620.233 151.347 619.785C151.603 619.326 151.731 618.793 151.731 618.185Z" fill="#1E1E1E"/>
<defs>
<filter id="filter0_ddd_2245_15008" x="4.06445" y="52.001" width="148" height="148" filterUnits="userSpaceOnUse" color-interpolation-filters="sRGB">
<feFlood flood-opacity="0" result="BackgroundImageFix"/>
<feColorMatrix in="SourceAlpha" type="matrix" values="0 0 0 0 0 0 0 0 0 0 0 0 0 0 0 0 0 0 127 0" result="hardAlpha"/>
<feOffset dy="2.5"/>
<feGaussianBlur stdDeviation="1"/>
<feColorMatrix type="matrix" values="0 0 0 0 0 0 0 0 0 0 0 0 0 0 0 0 0 0 0.02 0"/>
<feBlend mode="normal" in2="BackgroundImageFix" result="effect1_dropShadow_2245_15008"/>
<feColorMatrix in="SourceAlpha" type="matrix" values="0 0 0 0 0 0 0 0 0 0 0 0 0 0 0 0 0 0 127 0" result="hardAlpha"/>
<feOffset dy="3"/>
<feGaussianBlur stdDeviation="2.5"/>
<feColorMatrix type="matrix" values="0 0 0 0 0 0 0 0 0 0 0 0 0 0 0 0 0 0 0.04 0"/>
<feBlend mode="normal" in2="effect1_dropShadow_2245_15008" result="effect2_dropShadow_2245_15008"/>
<feColorMatrix in="SourceAlpha" type="matrix" values="0 0 0 0 0 0 0 0 0 0 0 0 0 0 0 0 0 0 127 0" result="hardAlpha"/>
<feOffset dy="8"/>
<feGaussianBlur stdDeviation="5"/>
<feColorMatrix type="matrix" values="0 0 0 0 0 0 0 0 0 0 0 0 0 0 0 0 0 0 0.08 0"/>
<feBlend mode="normal" in2="effect2_dropShadow_2245_15008" result="effect3_dropShadow_2245_15008"/>
<feBlend mode="normal" in="SourceGraphic" in2="effect3_dropShadow_2245_15008" result="shape"/>
</filter>
<filter id="filter1_ddd_2245_15008" x="3.81445" y="140.274" width="148" height="148" filterUnits="userSpaceOnUse" color-interpolation-filters="sRGB">
<feFlood flood-opacity="0" result="BackgroundImageFix"/>
<feColorMatrix in="SourceAlpha" type="matrix" values="0 0 0 0 0 0 0 0 0 0 0 0 0 0 0 0 0 0 127 0" result="hardAlpha"/>
<feOffset dy="2.5"/>
<feGaussianBlur stdDeviation="1"/>
<feColorMatrix type="matrix" values="0 0 0 0 0 0 0 0 0 0 0 0 0 0 0 0 0 0 0.02 0"/>
<feBlend mode="normal" in2="BackgroundImageFix" result="effect1_dropShadow_2245_15008"/>
<feColorMatrix in="SourceAlpha" type="matrix" values="0 0 0 0 0 0 0 0 0 0 0 0 0 0 0 0 0 0 127 0" result="hardAlpha"/>
<feOffset dy="3"/>
<feGaussianBlur stdDeviation="2.5"/>
<feColorMatrix type="matrix" values="0 0 0 0 0 0 0 0 0 0 0 0 0 0 0 0 0 0 0.04 0"/>
<feBlend mode="normal" in2="effect1_dropShadow_2245_15008" result="effect2_dropShadow_2245_15008"/>
<feColorMatrix in="SourceAlpha" type="matrix" values="0 0 0 0 0 0 0 0 0 0 0 0 0 0 0 0 0 0 127 0" result="hardAlpha"/>
<feOffset dy="8"/>
<feGaussianBlur stdDeviation="5"/>
<feColorMatrix type="matrix" values="0 0 0 0 0 0 0 0 0 0 0 0 0 0 0 0 0 0 0.08 0"/>
<feBlend mode="normal" in2="effect2_dropShadow_2245_15008" result="effect3_dropShadow_2245_15008"/>
<feBlend mode="normal" in="SourceGraphic" in2="effect3_dropShadow_2245_15008" result="shape"/>
</filter>
</defs>
</svg>
