<svg width="284" height="506" viewBox="0 0 284 506" fill="none" xmlns="http://www.w3.org/2000/svg">
<path d="M57.3209 8.352V11.616H61.1609V13.104H57.3209V16.512H61.6409V18H55.4969V6.864H61.6409V8.352H57.3209ZM63.4395 13.552C63.4395 12.6667 63.6208 11.8827 63.9835 11.2C64.3568 10.5173 64.8582 9.98933 65.4875 9.616C66.1275 9.232 66.8315 9.04 67.5995 9.04C68.2928 9.04 68.8955 9.17867 69.4075 9.456C69.9302 9.72267 70.3462 10.0587 70.6555 10.464V9.184H72.4955V18H70.6555V16.688C70.3462 17.104 69.9248 17.4507 69.3915 17.728C68.8582 18.0053 68.2502 18.144 67.5675 18.144C66.8102 18.144 66.1168 17.952 65.4875 17.568C64.8582 17.1733 64.3568 16.6293 63.9835 15.936C63.6208 15.232 63.4395 14.4373 63.4395 13.552ZM70.6555 13.584C70.6555 12.976 70.5275 12.448 70.2715 12C70.0262 11.552 69.7008 11.2107 69.2955 10.976C68.8902 10.7413 68.4528 10.624 67.9835 10.624C67.5142 10.624 67.0768 10.7413 66.6715 10.976C66.2662 11.2 65.9355 11.536 65.6795 11.984C65.4342 12.4213 65.3115 12.944 65.3115 13.552C65.3115 14.16 65.4342 14.6933 65.6795 15.152C65.9355 15.6107 66.2662 15.9627 66.6715 16.208C67.0875 16.4427 67.5248 16.56 67.9835 16.56C68.4528 16.56 68.8902 16.4427 69.2955 16.208C69.7008 15.9733 70.0262 15.632 70.2715 15.184C70.5275 14.7253 70.6555 14.192 70.6555 13.584ZM78.2512 18.144C77.5579 18.144 76.9339 18.0213 76.3792 17.776C75.8352 17.52 75.4032 17.1787 75.0832 16.752C74.7632 16.3147 74.5926 15.8293 74.5712 15.296H76.4592C76.4912 15.6693 76.6672 15.984 76.9872 16.24C77.3179 16.4853 77.7286 16.608 78.2192 16.608C78.7312 16.608 79.1259 16.512 79.4032 16.32C79.6912 16.1173 79.8352 15.8613 79.8352 15.552C79.8352 15.2213 79.6752 14.976 79.3552 14.816C79.0459 14.656 78.5499 14.48 77.8672 14.288C77.2059 14.1067 76.6672 13.9307 76.2512 13.76C75.8352 13.5893 75.4726 13.328 75.1632 12.976C74.8646 12.624 74.7152 12.16 74.7152 11.584C74.7152 11.1147 74.8539 10.688 75.1312 10.304C75.4086 9.90933 75.8032 9.6 76.3152 9.376C76.8379 9.152 77.4352 9.04 78.1072 9.04C79.1099 9.04 79.9152 9.296 80.5232 9.808C81.1419 10.3093 81.4726 10.9973 81.5152 11.872H79.6912C79.6592 11.4773 79.4992 11.1627 79.2112 10.928C78.9232 10.6933 78.5339 10.576 78.0432 10.576C77.5632 10.576 77.1952 10.6667 76.9392 10.848C76.6832 11.0293 76.5552 11.2693 76.5552 11.568C76.5552 11.8027 76.6406 12 76.8112 12.16C76.9819 12.32 77.1899 12.448 77.4352 12.544C77.6806 12.6293 78.0432 12.7413 78.5232 12.88C79.1632 13.0507 79.6859 13.2267 80.0912 13.408C80.5072 13.5787 80.8646 13.8347 81.1632 14.176C81.4619 14.5173 81.6166 14.9707 81.6272 15.536C81.6272 16.0373 81.4886 16.4853 81.2112 16.88C80.9339 17.2747 80.5392 17.584 80.0272 17.808C79.5259 18.032 78.9339 18.144 78.2512 18.144ZM91.6941 9.184L86.2861 22.144H84.3981L86.1901 17.856L82.7181 9.184H84.7501L87.2301 15.904L89.8061 9.184H91.6941Z" fill="#1E1E1E"/>
<g filter="url(#filter0_ddd_1940_17037)">
<rect width="128" height="128" transform="translate(9.99988 54)" fill="#FFD966"/>
<path d="M22.6825 69.3025V77.6665H21.5905V69.3025H22.6825ZM25.8757 71.9905V75.8665C25.8757 76.1865 25.9437 76.4145 26.0797 76.5505C26.2157 76.6785 26.4517 76.7425 26.7877 76.7425H27.5917V77.6665H26.6077C25.9997 77.6665 25.5437 77.5265 25.2397 77.2465C24.9357 76.9665 24.7837 76.5065 24.7837 75.8665V71.9905H23.9317V71.0905H24.7837V69.4345H25.8757V71.0905H27.5917V71.9905H25.8757ZM40.874 71.0905L38.822 77.6665H37.694L36.11 72.4465L34.526 77.6665H33.398L31.334 71.0905H32.45L33.962 76.6105L35.594 71.0905H36.71L38.306 76.6225L39.794 71.0905H40.874ZM41.5497 74.3545C41.5497 73.6825 41.6857 73.0945 41.9577 72.5905C42.2297 72.0785 42.6017 71.6825 43.0737 71.4025C43.5537 71.1225 44.0857 70.9825 44.6697 70.9825C45.2457 70.9825 45.7457 71.1065 46.1697 71.3545C46.5937 71.6025 46.9097 71.9145 47.1177 72.2905V71.0905H48.2217V77.6665H47.1177V76.4425C46.9017 76.8265 46.5777 77.1465 46.1457 77.4025C45.7217 77.6505 45.2257 77.7745 44.6577 77.7745C44.0737 77.7745 43.5457 77.6305 43.0737 77.3425C42.6017 77.0545 42.2297 76.6505 41.9577 76.1305C41.6857 75.6105 41.5497 75.0185 41.5497 74.3545ZM47.1177 74.3665C47.1177 73.8705 47.0177 73.4385 46.8177 73.0705C46.6177 72.7025 46.3457 72.4225 46.0017 72.2305C45.6657 72.0305 45.2937 71.9305 44.8857 71.9305C44.4777 71.9305 44.1057 72.0265 43.7697 72.2185C43.4337 72.4105 43.1657 72.6905 42.9657 73.0585C42.7657 73.4265 42.6657 73.8585 42.6657 74.3545C42.6657 74.8585 42.7657 75.2985 42.9657 75.6745C43.1657 76.0425 43.4337 76.3265 43.7697 76.5265C44.1057 76.7185 44.4777 76.8145 44.8857 76.8145C45.2937 76.8145 45.6657 76.7185 46.0017 76.5265C46.3457 76.3265 46.6177 76.0425 46.8177 75.6745C47.0177 75.2985 47.1177 74.8625 47.1177 74.3665ZM52.3951 77.7745C51.8911 77.7745 51.4391 77.6905 51.0391 77.5225C50.6391 77.3465 50.3231 77.1065 50.0911 76.8025C49.8591 76.4905 49.7311 76.1345 49.7071 75.7345H50.8351C50.8671 76.0625 51.0191 76.3305 51.2911 76.5385C51.5711 76.7465 51.9351 76.8505 52.3831 76.8505C52.7991 76.8505 53.1271 76.7585 53.3671 76.5745C53.6071 76.3905 53.7271 76.1585 53.7271 75.8785C53.7271 75.5905 53.5991 75.3785 53.3431 75.2425C53.0871 75.0985 52.6911 74.9585 52.1551 74.8225C51.6671 74.6945 51.2671 74.5665 50.9551 74.4385C50.6511 74.3025 50.3871 74.1065 50.1631 73.8505C49.9471 73.5865 49.8391 73.2425 49.8391 72.8185C49.8391 72.4825 49.9391 72.1745 50.1391 71.8945C50.3391 71.6145 50.6231 71.3945 50.9911 71.2345C51.3591 71.0665 51.7791 70.9825 52.2511 70.9825C52.9791 70.9825 53.5671 71.1665 54.0151 71.5345C54.4631 71.9025 54.7031 72.4065 54.7351 73.0465H53.6431C53.6191 72.7025 53.4791 72.4265 53.2231 72.2185C52.9751 72.0105 52.6391 71.9065 52.2151 71.9065C51.8231 71.9065 51.5111 71.9905 51.2791 72.1585C51.0471 72.3265 50.9311 72.5465 50.9311 72.8185C50.9311 73.0345 50.9991 73.2145 51.1351 73.3585C51.2791 73.4945 51.4551 73.6065 51.6631 73.6945C51.8791 73.7745 52.1751 73.8665 52.5511 73.9705C53.0231 74.0985 53.4071 74.2265 53.7031 74.3545C53.9991 74.4745 54.2511 74.6585 54.4591 74.9065C54.6751 75.1545 54.7871 75.4785 54.7951 75.8785C54.7951 76.2385 54.6951 76.5625 54.4951 76.8505C54.2951 77.1385 54.0111 77.3665 53.6431 77.5345C53.2831 77.6945 52.8671 77.7745 52.3951 77.7745ZM65.5358 74.1265C65.5358 74.3345 65.5238 74.5545 65.4998 74.7865H60.2438C60.2838 75.4345 60.5038 75.9425 60.9038 76.3105C61.3118 76.6705 61.8038 76.8505 62.3798 76.8505C62.8518 76.8505 63.2438 76.7425 63.5558 76.5265C63.8758 76.3025 64.0998 76.0065 64.2278 75.6385H65.4038C65.2278 76.2705 64.8758 76.7865 64.3478 77.1865C63.8198 77.5785 63.1638 77.7745 62.3798 77.7745C61.7558 77.7745 61.1958 77.6345 60.6998 77.3545C60.2118 77.0745 59.8278 76.6785 59.5478 76.1665C59.2678 75.6465 59.1278 75.0465 59.1278 74.3665C59.1278 73.6865 59.2638 73.0905 59.5358 72.5785C59.8078 72.0665 60.1878 71.6745 60.6758 71.4025C61.1718 71.1225 61.7398 70.9825 62.3798 70.9825C63.0038 70.9825 63.5558 71.1185 64.0358 71.3905C64.5158 71.6625 64.8838 72.0385 65.1398 72.5185C65.4038 72.9905 65.5358 73.5265 65.5358 74.1265ZM64.4078 73.8985C64.4078 73.4825 64.3158 73.1265 64.1318 72.8305C63.9478 72.5265 63.6958 72.2985 63.3758 72.1465C63.0638 71.9865 62.7158 71.9065 62.3318 71.9065C61.7798 71.9065 61.3078 72.0825 60.9158 72.4345C60.5318 72.7865 60.3118 73.2745 60.2558 73.8985H64.4078ZM66.5693 74.3545C66.5693 73.6825 66.7053 73.0945 66.9773 72.5905C67.2493 72.0785 67.6213 71.6825 68.0933 71.4025C68.5733 71.1225 69.1053 70.9825 69.6893 70.9825C70.2653 70.9825 70.7653 71.1065 71.1893 71.3545C71.6133 71.6025 71.9293 71.9145 72.1373 72.2905V71.0905H73.2413V77.6665H72.1373V76.4425C71.9213 76.8265 71.5973 77.1465 71.1653 77.4025C70.7413 77.6505 70.2453 77.7745 69.6773 77.7745C69.0933 77.7745 68.5653 77.6305 68.0933 77.3425C67.6213 77.0545 67.2493 76.6505 66.9773 76.1305C66.7053 75.6105 66.5693 75.0185 66.5693 74.3545ZM72.1373 74.3665C72.1373 73.8705 72.0373 73.4385 71.8373 73.0705C71.6373 72.7025 71.3653 72.4225 71.0213 72.2305C70.6853 72.0305 70.3133 71.9305 69.9053 71.9305C69.4973 71.9305 69.1253 72.0265 68.7893 72.2185C68.4533 72.4105 68.1853 72.6905 67.9853 73.0585C67.7853 73.4265 67.6853 73.8585 67.6853 74.3545C67.6853 74.8585 67.7853 75.2985 67.9853 75.6745C68.1853 76.0425 68.4533 76.3265 68.7893 76.5265C69.1253 76.7185 69.4973 76.8145 69.9053 76.8145C70.3133 76.8145 70.6853 76.7185 71.0213 76.5265C71.3653 76.3265 71.6373 76.0425 71.8373 75.6745C72.0373 75.2985 72.1373 74.8625 72.1373 74.3665ZM77.4146 77.7745C76.9106 77.7745 76.4586 77.6905 76.0586 77.5225C75.6586 77.3465 75.3426 77.1065 75.1106 76.8025C74.8786 76.4905 74.7506 76.1345 74.7266 75.7345H75.8546C75.8866 76.0625 76.0386 76.3305 76.3106 76.5385C76.5906 76.7465 76.9546 76.8505 77.4026 76.8505C77.8186 76.8505 78.1466 76.7585 78.3866 76.5745C78.6266 76.3905 78.7466 76.1585 78.7466 75.8785C78.7466 75.5905 78.6186 75.3785 78.3626 75.2425C78.1066 75.0985 77.7106 74.9585 77.1746 74.8225C76.6866 74.6945 76.2866 74.5665 75.9746 74.4385C75.6706 74.3025 75.4066 74.1065 75.1826 73.8505C74.9666 73.5865 74.8586 73.2425 74.8586 72.8185C74.8586 72.4825 74.9586 72.1745 75.1586 71.8945C75.3586 71.6145 75.6426 71.3945 76.0106 71.2345C76.3786 71.0665 76.7986 70.9825 77.2706 70.9825C77.9986 70.9825 78.5866 71.1665 79.0346 71.5345C79.4826 71.9025 79.7226 72.4065 79.7546 73.0465H78.6626C78.6386 72.7025 78.4986 72.4265 78.2426 72.2185C77.9946 72.0105 77.6586 71.9065 77.2346 71.9065C76.8426 71.9065 76.5306 71.9905 76.2986 72.1585C76.0666 72.3265 75.9506 72.5465 75.9506 72.8185C75.9506 73.0345 76.0186 73.2145 76.1546 73.3585C76.2986 73.4945 76.4746 73.6065 76.6826 73.6945C76.8986 73.7745 77.1946 73.8665 77.5706 73.9705C78.0426 74.0985 78.4266 74.2265 78.7226 74.3545C79.0186 74.4745 79.2706 74.6585 79.4786 74.9065C79.6946 75.1545 79.8066 75.4785 79.8146 75.8785C79.8146 76.2385 79.7146 76.5625 79.5146 76.8505C79.3146 77.1385 79.0306 77.3665 78.6626 77.5345C78.3026 77.6945 77.8866 77.7745 77.4146 77.7745ZM87.0202 71.0905L83.0602 80.7625H81.9322L83.2282 77.5945L80.5762 71.0905H81.7882L83.8522 76.4185L85.8922 71.0905H87.0202ZM92.6491 71.9905V75.8665C92.6491 76.1865 92.7171 76.4145 92.8531 76.5505C92.9891 76.6785 93.2251 76.7425 93.5611 76.7425H94.3651V77.6665H93.3811C92.7731 77.6665 92.3171 77.5265 92.0131 77.2465C91.7091 76.9665 91.5571 76.5065 91.5571 75.8665V71.9905H90.7051V71.0905H91.5571V69.4345H92.6491V71.0905H94.3651V71.9905H92.6491ZM98.5562 77.7745C97.9402 77.7745 97.3802 77.6345 96.8762 77.3545C96.3802 77.0745 95.9882 76.6785 95.7002 76.1665C95.4202 75.6465 95.2802 75.0465 95.2802 74.3665C95.2802 73.6945 95.4242 73.1025 95.7122 72.5905C96.0082 72.0705 96.4082 71.6745 96.9122 71.4025C97.4162 71.1225 97.9802 70.9825 98.6042 70.9825C99.2282 70.9825 99.7922 71.1225 100.296 71.4025C100.8 71.6745 101.196 72.0665 101.484 72.5785C101.78 73.0905 101.928 73.6865 101.928 74.3665C101.928 75.0465 101.776 75.6465 101.472 76.1665C101.176 76.6785 100.772 77.0745 100.26 77.3545C99.7482 77.6345 99.1802 77.7745 98.5562 77.7745ZM98.5562 76.8145C98.9482 76.8145 99.3162 76.7225 99.6602 76.5385C100.004 76.3545 100.28 76.0785 100.488 75.7105C100.704 75.3425 100.812 74.8945 100.812 74.3665C100.812 73.8385 100.708 73.3905 100.5 73.0225C100.292 72.6545 100.02 72.3825 99.6842 72.2065C99.3482 72.0225 98.9842 71.9305 98.5922 71.9305C98.1922 71.9305 97.8242 72.0225 97.4882 72.2065C97.1602 72.3825 96.8962 72.6545 96.6962 73.0225C96.4962 73.3905 96.3962 73.8385 96.3962 74.3665C96.3962 74.9025 96.4922 75.3545 96.6842 75.7225C96.8842 76.0905 97.1482 76.3665 97.4762 76.5505C97.8042 76.7265 98.1642 76.8145 98.5562 76.8145ZM24.2665 89.9905H22.8865V95.6665H21.7945V89.9905H20.9425V89.0905H21.7945V88.6225C21.7945 87.8865 21.9825 87.3505 22.3585 87.0145C22.7425 86.6705 23.3545 86.4985 24.1945 86.4985V87.4105C23.7145 87.4105 23.3745 87.5065 23.1745 87.6985C22.9825 87.8825 22.8865 88.1905 22.8865 88.6225V89.0905H24.2665V89.9905ZM26.1038 88.0225C25.8958 88.0225 25.7198 87.9505 25.5758 87.8065C25.4318 87.6625 25.3598 87.4865 25.3598 87.2785C25.3598 87.0705 25.4318 86.8945 25.5758 86.7505C25.7198 86.6065 25.8958 86.5345 26.1038 86.5345C26.3038 86.5345 26.4718 86.6065 26.6078 86.7505C26.7518 86.8945 26.8238 87.0705 26.8238 87.2785C26.8238 87.4865 26.7518 87.6625 26.6078 87.8065C26.4718 87.9505 26.3038 88.0225 26.1038 88.0225ZM26.6318 89.0905V95.6665H25.5398V89.0905H26.6318ZM31.6969 88.9705C32.4969 88.9705 33.1449 89.2145 33.6409 89.7025C34.1369 90.1825 34.3849 90.8785 34.3849 91.7905V95.6665H33.3049V91.9465C33.3049 91.2905 33.1409 90.7905 32.8129 90.4465C32.4849 90.0945 32.0369 89.9185 31.4689 89.9185C30.8929 89.9185 30.4329 90.0985 30.0889 90.4585C29.7529 90.8185 29.5849 91.3425 29.5849 92.0305V95.6665H28.4929V89.0905H29.5849V90.0265C29.8009 89.6905 30.0929 89.4305 30.4609 89.2465C30.8369 89.0625 31.2489 88.9705 31.6969 88.9705ZM35.7607 92.3545C35.7607 91.6825 35.8967 91.0945 36.1687 90.5905C36.4407 90.0785 36.8127 89.6825 37.2847 89.4025C37.7647 89.1225 38.3007 88.9825 38.8927 88.9825C39.4047 88.9825 39.8807 89.1025 40.3207 89.3425C40.7607 89.5745 41.0967 89.8825 41.3287 90.2665V86.7865H42.4327V95.6665H41.3287V94.4305C41.1127 94.8225 40.7927 95.1465 40.3687 95.4025C39.9447 95.6505 39.4487 95.7745 38.8807 95.7745C38.2967 95.7745 37.7647 95.6305 37.2847 95.3425C36.8127 95.0545 36.4407 94.6505 36.1687 94.1305C35.8967 93.6105 35.7607 93.0185 35.7607 92.3545ZM41.3287 92.3665C41.3287 91.8705 41.2287 91.4385 41.0287 91.0705C40.8287 90.7025 40.5567 90.4225 40.2127 90.2305C39.8767 90.0305 39.5047 89.9305 39.0967 89.9305C38.6887 89.9305 38.3167 90.0265 37.9807 90.2185C37.6447 90.4105 37.3767 90.6905 37.1767 91.0585C36.9767 91.4265 36.8767 91.8585 36.8767 92.3545C36.8767 92.8585 36.9767 93.2985 37.1767 93.6745C37.3767 94.0425 37.6447 94.3265 37.9807 94.5265C38.3167 94.7185 38.6887 94.8145 39.0967 94.8145C39.5047 94.8145 39.8767 94.7185 40.2127 94.5265C40.5567 94.3265 40.8287 94.0425 41.0287 93.6745C41.2287 93.2985 41.3287 92.8625 41.3287 92.3665ZM48.5693 90.1585C48.7613 89.7825 49.0333 89.4905 49.3853 89.2825C49.7453 89.0745 50.1813 88.9705 50.6933 88.9705V90.0985H50.4053C49.1813 90.0985 48.5693 90.7625 48.5693 92.0905V95.6665H47.4773V89.0905H48.5693V90.1585ZM57.9538 92.1265C57.9538 92.3345 57.9418 92.5545 57.9178 92.7865H52.6618C52.7018 93.4345 52.9218 93.9425 53.3218 94.3105C53.7298 94.6705 54.2218 94.8505 54.7978 94.8505C55.2698 94.8505 55.6618 94.7425 55.9738 94.5265C56.2938 94.3025 56.5178 94.0065 56.6458 93.6385H57.8218C57.6458 94.2705 57.2938 94.7865 56.7658 95.1865C56.2378 95.5785 55.5818 95.7745 54.7978 95.7745C54.1738 95.7745 53.6138 95.6345 53.1178 95.3545C52.6298 95.0745 52.2458 94.6785 51.9658 94.1665C51.6858 93.6465 51.5458 93.0465 51.5458 92.3665C51.5458 91.6865 51.6818 91.0905 51.9538 90.5785C52.2258 90.0665 52.6058 89.6745 53.0938 89.4025C53.5898 89.1225 54.1578 88.9825 54.7978 88.9825C55.4218 88.9825 55.9738 89.1185 56.4538 89.3905C56.9338 89.6625 57.3018 90.0385 57.5578 90.5185C57.8218 90.9905 57.9538 91.5265 57.9538 92.1265ZM56.8258 91.8985C56.8258 91.4825 56.7338 91.1265 56.5498 90.8305C56.3658 90.5265 56.1138 90.2985 55.7938 90.1465C55.4818 89.9865 55.1338 89.9065 54.7498 89.9065C54.1978 89.9065 53.7258 90.0825 53.3338 90.4345C52.9498 90.7865 52.7298 91.2745 52.6738 91.8985H56.8258ZM61.7232 95.7745C61.2192 95.7745 60.7672 95.6905 60.3672 95.5225C59.9672 95.3465 59.6512 95.1065 59.4192 94.8025C59.1872 94.4905 59.0592 94.1345 59.0352 93.7345H60.1632C60.1952 94.0625 60.3472 94.3305 60.6192 94.5385C60.8992 94.7465 61.2632 94.8505 61.7112 94.8505C62.1272 94.8505 62.4552 94.7585 62.6952 94.5745C62.9352 94.3905 63.0552 94.1585 63.0552 93.8785C63.0552 93.5905 62.9272 93.3785 62.6712 93.2425C62.4152 93.0985 62.0192 92.9585 61.4832 92.8225C60.9952 92.6945 60.5952 92.5665 60.2832 92.4385C59.9792 92.3025 59.7152 92.1065 59.4912 91.8505C59.2752 91.5865 59.1672 91.2425 59.1672 90.8185C59.1672 90.4825 59.2672 90.1745 59.4672 89.8945C59.6672 89.6145 59.9512 89.3945 60.3192 89.2345C60.6872 89.0665 61.1072 88.9825 61.5792 88.9825C62.3072 88.9825 62.8952 89.1665 63.3432 89.5345C63.7912 89.9025 64.0312 90.4065 64.0632 91.0465H62.9712C62.9472 90.7025 62.8072 90.4265 62.5512 90.2185C62.3032 90.0105 61.9672 89.9065 61.5432 89.9065C61.1512 89.9065 60.8392 89.9905 60.6072 90.1585C60.3752 90.3265 60.2592 90.5465 60.2592 90.8185C60.2592 91.0345 60.3272 91.2145 60.4632 91.3585C60.6072 91.4945 60.7832 91.6065 60.9912 91.6945C61.2072 91.7745 61.5032 91.8665 61.8792 91.9705C62.3512 92.0985 62.7352 92.2265 63.0312 92.3545C63.3272 92.4745 63.5792 92.6585 63.7872 92.9065C64.0032 93.1545 64.1152 93.4785 64.1232 93.8785C64.1232 94.2385 64.0232 94.5625 63.8232 94.8505C63.6232 95.1385 63.3392 95.3665 62.9712 95.5345C62.6112 95.6945 62.1952 95.7745 61.7232 95.7745ZM66.9968 89.9905V93.8665C66.9968 94.1865 67.0648 94.4145 67.2008 94.5505C67.3368 94.6785 67.5728 94.7425 67.9088 94.7425H68.7128V95.6665H67.7288C67.1208 95.6665 66.6648 95.5265 66.3608 95.2465C66.0568 94.9665 65.9048 94.5065 65.9048 93.8665V89.9905H65.0528V89.0905H65.9048V87.4345H66.9968V89.0905H68.7128V89.9905H66.9968ZM69.6278 92.3545C69.6278 91.6825 69.7638 91.0945 70.0358 90.5905C70.3078 90.0785 70.6798 89.6825 71.1518 89.4025C71.6318 89.1225 72.1638 88.9825 72.7478 88.9825C73.3238 88.9825 73.8238 89.1065 74.2478 89.3545C74.6718 89.6025 74.9878 89.9145 75.1958 90.2905V89.0905H76.2998V95.6665H75.1958V94.4425C74.9798 94.8265 74.6558 95.1465 74.2238 95.4025C73.7998 95.6505 73.3038 95.7745 72.7358 95.7745C72.1518 95.7745 71.6238 95.6305 71.1518 95.3425C70.6798 95.0545 70.3078 94.6505 70.0358 94.1305C69.7638 93.6105 69.6278 93.0185 69.6278 92.3545ZM75.1958 92.3665C75.1958 91.8705 75.0958 91.4385 74.8958 91.0705C74.6958 90.7025 74.4238 90.4225 74.0798 90.2305C73.7438 90.0305 73.3718 89.9305 72.9638 89.9305C72.5558 89.9305 72.1838 90.0265 71.8478 90.2185C71.5118 90.4105 71.2438 90.6905 71.0438 91.0585C70.8438 91.4265 70.7438 91.8585 70.7438 92.3545C70.7438 92.8585 70.8438 93.2985 71.0438 93.6745C71.2438 94.0425 71.5118 94.3265 71.8478 94.5265C72.1838 94.7185 72.5558 94.8145 72.9638 94.8145C73.3718 94.8145 73.7438 94.7185 74.0798 94.5265C74.4238 94.3265 74.6958 94.0425 74.8958 93.6745C75.0958 93.2985 75.1958 92.8625 75.1958 92.3665ZM83.9772 89.0905V95.6665H82.8852V94.6945C82.6772 95.0305 82.3852 95.2945 82.0092 95.4865C81.6412 95.6705 81.2332 95.7625 80.7852 95.7625C80.2732 95.7625 79.8132 95.6585 79.4052 95.4505C78.9972 95.2345 78.6732 94.9145 78.4332 94.4905C78.2012 94.0665 78.0852 93.5505 78.0852 92.9425V89.0905H79.1652V92.7985C79.1652 93.4465 79.3292 93.9465 79.6572 94.2985C79.9852 94.6425 80.4332 94.8145 81.0012 94.8145C81.5852 94.8145 82.0452 94.6345 82.3812 94.2745C82.7172 93.9145 82.8852 93.3905 82.8852 92.7025V89.0905H83.9772ZM86.913 90.1585C87.105 89.7825 87.377 89.4905 87.729 89.2825C88.089 89.0745 88.525 88.9705 89.037 88.9705V90.0985H88.749C87.525 90.0985 86.913 90.7625 86.913 92.0905V95.6665H85.821V89.0905H86.913V90.1585ZM89.8896 92.3545C89.8896 91.6825 90.0256 91.0945 90.2976 90.5905C90.5696 90.0785 90.9416 89.6825 91.4136 89.4025C91.8936 89.1225 92.4256 88.9825 93.0096 88.9825C93.5856 88.9825 94.0856 89.1065 94.5096 89.3545C94.9336 89.6025 95.2496 89.9145 95.4576 90.2905V89.0905H96.5616V95.6665H95.4576V94.4425C95.2416 94.8265 94.9176 95.1465 94.4856 95.4025C94.0616 95.6505 93.5656 95.7745 92.9976 95.7745C92.4136 95.7745 91.8856 95.6305 91.4136 95.3425C90.9416 95.0545 90.5696 94.6505 90.2976 94.1305C90.0256 93.6105 89.8896 93.0185 89.8896 92.3545ZM95.4576 92.3665C95.4576 91.8705 95.3576 91.4385 95.1576 91.0705C94.9576 90.7025 94.6856 90.4225 94.3416 90.2305C94.0056 90.0305 93.6336 89.9305 93.2256 89.9305C92.8176 89.9305 92.4456 90.0265 92.1096 90.2185C91.7736 90.4105 91.5056 90.6905 91.3056 91.0585C91.1056 91.4265 91.0056 91.8585 91.0056 92.3545C91.0056 92.8585 91.1056 93.2985 91.3056 93.6745C91.5056 94.0425 91.7736 94.3265 92.1096 94.5265C92.4456 94.7185 92.8176 94.8145 93.2256 94.8145C93.6336 94.8145 94.0056 94.7185 94.3416 94.5265C94.6856 94.3265 94.9576 94.0425 95.1576 93.6745C95.3576 93.2985 95.4576 92.8625 95.4576 92.3665ZM101.611 88.9705C102.411 88.9705 103.059 89.2145 103.555 89.7025C104.051 90.1825 104.299 90.8785 104.299 91.7905V95.6665H103.219V91.9465C103.219 91.2905 103.055 90.7905 102.727 90.4465C102.399 90.0945 101.951 89.9185 101.383 89.9185C100.807 89.9185 100.347 90.0985 100.003 90.4585C99.6669 90.8185 99.4989 91.3425 99.4989 92.0305V95.6665H98.4069V89.0905H99.4989V90.0265C99.7149 89.6905 100.007 89.4305 100.375 89.2465C100.751 89.0625 101.163 88.9705 101.611 88.9705ZM107.415 89.9905V93.8665C107.415 94.1865 107.483 94.4145 107.619 94.5505C107.755 94.6785 107.991 94.7425 108.327 94.7425H109.131V95.6665H108.147C107.539 95.6665 107.083 95.5265 106.779 95.2465C106.475 94.9665 106.323 94.5065 106.323 93.8665V89.9905H105.471V89.0905H106.323V87.4345H107.415V89.0905H109.131V89.9905H107.415ZM112.782 95.7745C112.278 95.7745 111.826 95.6905 111.426 95.5225C111.026 95.3465 110.71 95.1065 110.478 94.8025C110.246 94.4905 110.118 94.1345 110.094 93.7345H111.222C111.254 94.0625 111.406 94.3305 111.678 94.5385C111.958 94.7465 112.322 94.8505 112.77 94.8505C113.186 94.8505 113.514 94.7585 113.754 94.5745C113.994 94.3905 114.114 94.1585 114.114 93.8785C114.114 93.5905 113.986 93.3785 113.73 93.2425C113.474 93.0985 113.078 92.9585 112.542 92.8225C112.054 92.6945 111.654 92.5665 111.342 92.4385C111.038 92.3025 110.774 92.1065 110.55 91.8505C110.334 91.5865 110.226 91.2425 110.226 90.8185C110.226 90.4825 110.326 90.1745 110.526 89.8945C110.726 89.6145 111.01 89.3945 111.378 89.2345C111.746 89.0665 112.166 88.9825 112.638 88.9825C113.366 88.9825 113.954 89.1665 114.402 89.5345C114.85 89.9025 115.09 90.4065 115.122 91.0465H114.03C114.006 90.7025 113.866 90.4265 113.61 90.2185C113.362 90.0105 113.026 89.9065 112.602 89.9065C112.21 89.9065 111.898 89.9905 111.666 90.1585C111.434 90.3265 111.318 90.5465 111.318 90.8185C111.318 91.0345 111.386 91.2145 111.522 91.3585C111.666 91.4945 111.842 91.6065 112.05 91.6945C112.266 91.7745 112.562 91.8665 112.938 91.9705C113.41 92.0985 113.794 92.2265 114.09 92.3545C114.386 92.4745 114.638 92.6585 114.846 92.9065C115.062 93.1545 115.174 93.4785 115.182 93.8785C115.182 94.2385 115.082 94.5625 114.882 94.8505C114.682 95.1385 114.398 95.3665 114.03 95.5345C113.67 95.6945 113.254 95.7745 112.782 95.7745Z" fill="#0A0A0A"/>
</g>
<g filter="url(#filter1_ddd_1940_17037)">
<rect width="128" height="128" transform="translate(9.99979 121.354)" fill="#FFC470"/>
<path d="M22.6824 136.656V145.02H21.5904V136.656H22.6824ZM25.8756 139.344V143.22C25.8756 143.54 25.9436 143.768 26.0796 143.904C26.2156 144.032 26.4516 144.096 26.7876 144.096H27.5916V145.02H26.6076C25.9996 145.02 25.5436 144.88 25.2396 144.6C24.9356 144.32 24.7836 143.86 24.7836 143.22V139.344H23.9316V138.444H24.7836V136.788H25.8756V138.444H27.5916V139.344H25.8756ZM40.8739 138.444L38.8219 145.02H37.6939L36.1099 139.8L34.5259 145.02H33.3979L31.3339 138.444H32.4499L33.9619 143.964L35.5939 138.444H36.7099L38.3059 143.976L39.7939 138.444H40.8739ZM41.5496 141.708C41.5496 141.036 41.6856 140.448 41.9576 139.944C42.2296 139.432 42.6016 139.036 43.0736 138.756C43.5536 138.476 44.0856 138.336 44.6696 138.336C45.2456 138.336 45.7456 138.46 46.1696 138.708C46.5936 138.956 46.9096 139.268 47.1176 139.644V138.444H48.2216V145.02H47.1176V143.796C46.9016 144.18 46.5776 144.5 46.1456 144.756C45.7216 145.004 45.2256 145.128 44.6576 145.128C44.0736 145.128 43.5456 144.984 43.0736 144.696C42.6016 144.408 42.2296 144.004 41.9576 143.484C41.6856 142.964 41.5496 142.372 41.5496 141.708ZM47.1176 141.72C47.1176 141.224 47.0176 140.792 46.8176 140.424C46.6176 140.056 46.3456 139.776 46.0016 139.584C45.6656 139.384 45.2936 139.284 44.8856 139.284C44.4776 139.284 44.1056 139.38 43.7696 139.572C43.4336 139.764 43.1656 140.044 42.9656 140.412C42.7656 140.78 42.6656 141.212 42.6656 141.708C42.6656 142.212 42.7656 142.652 42.9656 143.028C43.1656 143.396 43.4336 143.68 43.7696 143.88C44.1056 144.072 44.4776 144.168 44.8856 144.168C45.2936 144.168 45.6656 144.072 46.0016 143.88C46.3456 143.68 46.6176 143.396 46.8176 143.028C47.0176 142.652 47.1176 142.216 47.1176 141.72ZM52.395 145.128C51.891 145.128 51.439 145.044 51.039 144.876C50.639 144.7 50.323 144.46 50.091 144.156C49.859 143.844 49.731 143.488 49.707 143.088H50.835C50.867 143.416 51.019 143.684 51.291 143.892C51.571 144.1 51.935 144.204 52.383 144.204C52.799 144.204 53.127 144.112 53.367 143.928C53.607 143.744 53.727 143.512 53.727 143.232C53.727 142.944 53.599 142.732 53.343 142.596C53.087 142.452 52.691 142.312 52.155 142.176C51.667 142.048 51.267 141.92 50.955 141.792C50.651 141.656 50.387 141.46 50.163 141.204C49.947 140.94 49.839 140.596 49.839 140.172C49.839 139.836 49.939 139.528 50.139 139.248C50.339 138.968 50.623 138.748 50.991 138.588C51.359 138.42 51.779 138.336 52.251 138.336C52.979 138.336 53.567 138.52 54.015 138.888C54.463 139.256 54.703 139.76 54.735 140.4H53.643C53.619 140.056 53.479 139.78 53.223 139.572C52.975 139.364 52.639 139.26 52.215 139.26C51.823 139.26 51.511 139.344 51.279 139.512C51.047 139.68 50.931 139.9 50.931 140.172C50.931 140.388 50.999 140.568 51.135 140.712C51.279 140.848 51.455 140.96 51.663 141.048C51.879 141.128 52.175 141.22 52.551 141.324C53.023 141.452 53.407 141.58 53.703 141.708C53.999 141.828 54.251 142.012 54.459 142.26C54.675 142.508 54.787 142.832 54.795 143.232C54.795 143.592 54.695 143.916 54.495 144.204C54.295 144.492 54.011 144.72 53.643 144.888C53.283 145.048 52.867 145.128 52.395 145.128ZM62.7398 138.324C63.5398 138.324 64.1878 138.568 64.6838 139.056C65.1798 139.536 65.4278 140.232 65.4278 141.144V145.02H64.3478V141.3C64.3478 140.644 64.1838 140.144 63.8558 139.8C63.5278 139.448 63.0798 139.272 62.5118 139.272C61.9358 139.272 61.4758 139.452 61.1318 139.812C60.7958 140.172 60.6278 140.696 60.6278 141.384V145.02H59.5358V138.444H60.6278V139.38C60.8438 139.044 61.1358 138.784 61.5038 138.6C61.8798 138.416 62.2918 138.324 62.7398 138.324ZM70.0795 145.128C69.4635 145.128 68.9035 144.988 68.3995 144.708C67.9035 144.428 67.5115 144.032 67.2235 143.52C66.9435 143 66.8035 142.4 66.8035 141.72C66.8035 141.048 66.9475 140.456 67.2355 139.944C67.5315 139.424 67.9315 139.028 68.4355 138.756C68.9395 138.476 69.5035 138.336 70.1275 138.336C70.7515 138.336 71.3155 138.476 71.8195 138.756C72.3235 139.028 72.7195 139.42 73.0075 139.932C73.3035 140.444 73.4515 141.04 73.4515 141.72C73.4515 142.4 73.2995 143 72.9955 143.52C72.6995 144.032 72.2955 144.428 71.7835 144.708C71.2715 144.988 70.7035 145.128 70.0795 145.128ZM70.0795 144.168C70.4715 144.168 70.8395 144.076 71.1835 143.892C71.5275 143.708 71.8035 143.432 72.0115 143.064C72.2275 142.696 72.3355 142.248 72.3355 141.72C72.3355 141.192 72.2315 140.744 72.0235 140.376C71.8155 140.008 71.5435 139.736 71.2075 139.56C70.8715 139.376 70.5075 139.284 70.1155 139.284C69.7155 139.284 69.3475 139.376 69.0115 139.56C68.6835 139.736 68.4195 140.008 68.2195 140.376C68.0195 140.744 67.9195 141.192 67.9195 141.72C67.9195 142.256 68.0155 142.708 68.2075 143.076C68.4075 143.444 68.6715 143.72 68.9995 143.904C69.3275 144.08 69.6875 144.168 70.0795 144.168ZM76.2193 139.344V143.22C76.2193 143.54 76.2873 143.768 76.4233 143.904C76.5593 144.032 76.7953 144.096 77.1313 144.096H77.9353V145.02H76.9513C76.3433 145.02 75.8873 144.88 75.5833 144.6C75.2793 144.32 75.1273 143.86 75.1273 143.22V139.344H74.2753V138.444H75.1273V136.788H76.2193V138.444H77.9353V139.344H76.2193ZM21.1824 159.708C21.1824 159.036 21.3184 158.448 21.5904 157.944C21.8624 157.432 22.2344 157.036 22.7064 156.756C23.1864 156.476 23.7224 156.336 24.3144 156.336C24.8264 156.336 25.3024 156.456 25.7424 156.696C26.1824 156.928 26.5184 157.236 26.7504 157.62V154.14H27.8544V163.02H26.7504V161.784C26.5344 162.176 26.2144 162.5 25.7904 162.756C25.3664 163.004 24.8704 163.128 24.3024 163.128C23.7184 163.128 23.1864 162.984 22.7064 162.696C22.2344 162.408 21.8624 162.004 21.5904 161.484C21.3184 160.964 21.1824 160.372 21.1824 159.708ZM26.7504 159.72C26.7504 159.224 26.6504 158.792 26.4504 158.424C26.2504 158.056 25.9784 157.776 25.6344 157.584C25.2984 157.384 24.9264 157.284 24.5184 157.284C24.1104 157.284 23.7384 157.38 23.4024 157.572C23.0664 157.764 22.7984 158.044 22.5984 158.412C22.3984 158.78 22.2984 159.212 22.2984 159.708C22.2984 160.212 22.3984 160.652 22.5984 161.028C22.7984 161.396 23.0664 161.68 23.4024 161.88C23.7384 162.072 24.1104 162.168 24.5184 162.168C24.9264 162.168 25.2984 162.072 25.6344 161.88C25.9784 161.68 26.2504 161.396 26.4504 161.028C26.6504 160.652 26.7504 160.216 26.7504 159.72ZM30.2638 155.376C30.0558 155.376 29.8798 155.304 29.7358 155.16C29.5918 155.016 29.5198 154.84 29.5198 154.632C29.5198 154.424 29.5918 154.248 29.7358 154.104C29.8798 153.96 30.0558 153.888 30.2638 153.888C30.4638 153.888 30.6318 153.96 30.7678 154.104C30.9118 154.248 30.9838 154.424 30.9838 154.632C30.9838 154.84 30.9118 155.016 30.7678 155.16C30.6318 155.304 30.4638 155.376 30.2638 155.376ZM30.7918 156.444V163.02H29.6998V156.444H30.7918ZM35.3289 157.344H33.9489V163.02H32.8569V157.344H32.0049V156.444H32.8569V155.976C32.8569 155.24 33.0449 154.704 33.4209 154.368C33.8049 154.024 34.4169 153.852 35.2569 153.852V154.764C34.7769 154.764 34.4369 154.86 34.2369 155.052C34.0449 155.236 33.9489 155.544 33.9489 155.976V156.444H35.3289V157.344ZM39.2782 157.344H37.8982V163.02H36.8062V157.344H35.9542V156.444H36.8062V155.976C36.8062 155.24 36.9942 154.704 37.3702 154.368C37.7542 154.024 38.3662 153.852 39.2062 153.852V154.764C38.7262 154.764 38.3862 154.86 38.1862 155.052C37.9942 155.236 37.8982 155.544 37.8982 155.976V156.444H39.2782V157.344ZM41.1154 155.376C40.9074 155.376 40.7314 155.304 40.5874 155.16C40.4434 155.016 40.3714 154.84 40.3714 154.632C40.3714 154.424 40.4434 154.248 40.5874 154.104C40.7314 153.96 40.9074 153.888 41.1154 153.888C41.3154 153.888 41.4834 153.96 41.6194 154.104C41.7634 154.248 41.8354 154.424 41.8354 154.632C41.8354 154.84 41.7634 155.016 41.6194 155.16C41.4834 155.304 41.3154 155.376 41.1154 155.376ZM41.6434 156.444V163.02H40.5514V156.444H41.6434ZM43.0965 159.72C43.0965 159.04 43.2325 158.448 43.5045 157.944C43.7765 157.432 44.1525 157.036 44.6325 156.756C45.1205 156.476 45.6765 156.336 46.3005 156.336C47.1085 156.336 47.7725 156.532 48.2925 156.924C48.8205 157.316 49.1685 157.86 49.3365 158.556H48.1605C48.0485 158.156 47.8285 157.84 47.5005 157.608C47.1805 157.376 46.7805 157.26 46.3005 157.26C45.6765 157.26 45.1725 157.476 44.7885 157.908C44.4045 158.332 44.2125 158.936 44.2125 159.72C44.2125 160.512 44.4045 161.124 44.7885 161.556C45.1725 161.988 45.6765 162.204 46.3005 162.204C46.7805 162.204 47.1805 162.092 47.5005 161.868C47.8205 161.644 48.0405 161.324 48.1605 160.908H49.3365C49.1605 161.58 48.8085 162.12 48.2805 162.528C47.7525 162.928 47.0925 163.128 46.3005 163.128C45.6765 163.128 45.1205 162.988 44.6325 162.708C44.1525 162.428 43.7765 162.032 43.5045 161.52C43.2325 161.008 43.0965 160.408 43.0965 159.72ZM56.6256 156.444V163.02H55.5336V162.048C55.3256 162.384 55.0336 162.648 54.6576 162.84C54.2896 163.024 53.8816 163.116 53.4336 163.116C52.9216 163.116 52.4616 163.012 52.0536 162.804C51.6456 162.588 51.3216 162.268 51.0816 161.844C50.8496 161.42 50.7336 160.904 50.7336 160.296V156.444H51.8136V160.152C51.8136 160.8 51.9776 161.3 52.3056 161.652C52.6336 161.996 53.0816 162.168 53.6496 162.168C54.2336 162.168 54.6936 161.988 55.0296 161.628C55.3656 161.268 55.5336 160.744 55.5336 160.056V156.444H56.6256ZM59.5613 154.14V163.02H58.4693V154.14H59.5613ZM62.7545 157.344V161.22C62.7545 161.54 62.8225 161.768 62.9585 161.904C63.0945 162.032 63.3305 162.096 63.6665 162.096H64.4705V163.02H63.4865C62.8785 163.02 62.4225 162.88 62.1185 162.6C61.8145 162.32 61.6625 161.86 61.6625 161.22V157.344H60.8105V156.444H61.6625V154.788H62.7545V156.444H64.4705V157.344H62.7545ZM66.9216 161.508L65.5776 164.736H64.8456L65.7216 161.508H66.9216ZM70.9637 159.72C70.9637 159.04 71.0997 158.448 71.3717 157.944C71.6437 157.432 72.0197 157.036 72.4997 156.756C72.9877 156.476 73.5437 156.336 74.1677 156.336C74.9757 156.336 75.6397 156.532 76.1597 156.924C76.6877 157.316 77.0357 157.86 77.2037 158.556H76.0277C75.9157 158.156 75.6957 157.84 75.3677 157.608C75.0477 157.376 74.6477 157.26 74.1677 157.26C73.5437 157.26 73.0397 157.476 72.6557 157.908C72.2717 158.332 72.0797 158.936 72.0797 159.72C72.0797 160.512 72.2717 161.124 72.6557 161.556C73.0397 161.988 73.5437 162.204 74.1677 162.204C74.6477 162.204 75.0477 162.092 75.3677 161.868C75.6877 161.644 75.9077 161.324 76.0277 160.908H77.2037C77.0277 161.58 76.6757 162.12 76.1477 162.528C75.6197 162.928 74.9597 163.128 74.1677 163.128C73.5437 163.128 72.9877 162.988 72.4997 162.708C72.0197 162.428 71.6437 162.032 71.3717 161.52C71.0997 161.008 70.9637 160.408 70.9637 159.72ZM78.2528 159.708C78.2528 159.036 78.3888 158.448 78.6608 157.944C78.9328 157.432 79.3048 157.036 79.7768 156.756C80.2568 156.476 80.7888 156.336 81.3728 156.336C81.9488 156.336 82.4488 156.46 82.8728 156.708C83.2968 156.956 83.6128 157.268 83.8208 157.644V156.444H84.9248V163.02H83.8208V161.796C83.6048 162.18 83.2808 162.5 82.8488 162.756C82.4248 163.004 81.9288 163.128 81.3608 163.128C80.7768 163.128 80.2488 162.984 79.7768 162.696C79.3048 162.408 78.9328 162.004 78.6608 161.484C78.3888 160.964 78.2528 160.372 78.2528 159.708ZM83.8208 159.72C83.8208 159.224 83.7208 158.792 83.5208 158.424C83.3208 158.056 83.0488 157.776 82.7048 157.584C82.3688 157.384 81.9968 157.284 81.5888 157.284C81.1808 157.284 80.8088 157.38 80.4728 157.572C80.1368 157.764 79.8688 158.044 79.6688 158.412C79.4688 158.78 79.3688 159.212 79.3688 159.708C79.3688 160.212 79.4688 160.652 79.6688 161.028C79.8688 161.396 80.1368 161.68 80.4728 161.88C80.8088 162.072 81.1808 162.168 81.5888 162.168C81.9968 162.168 82.3688 162.072 82.7048 161.88C83.0488 161.68 83.3208 161.396 83.5208 161.028C83.7208 160.652 83.8208 160.216 83.8208 159.72ZM89.9741 156.324C90.7741 156.324 91.4221 156.568 91.9181 157.056C92.4141 157.536 92.6621 158.232 92.6621 159.144V163.02H91.5821V159.3C91.5821 158.644 91.4181 158.144 91.0901 157.8C90.7621 157.448 90.3141 157.272 89.7461 157.272C89.1701 157.272 88.7101 157.452 88.3661 157.812C88.0301 158.172 87.8621 158.696 87.8621 159.384V163.02H86.7701V156.444H87.8621V157.38C88.0781 157.044 88.3701 156.784 88.7381 156.6C89.1141 156.416 89.5261 156.324 89.9741 156.324ZM100.321 157.344H98.9411V163.02H97.8491V157.344H96.9971V156.444H97.8491V155.976C97.8491 155.24 98.0371 154.704 98.4131 154.368C98.7971 154.024 99.4091 153.852 100.249 153.852V154.764C99.7691 154.764 99.4291 154.86 99.2291 155.052C99.0371 155.236 98.9411 155.544 98.9411 155.976V156.444H100.321V157.344ZM102.158 155.376C101.95 155.376 101.774 155.304 101.63 155.16C101.486 155.016 101.414 154.84 101.414 154.632C101.414 154.424 101.486 154.248 101.63 154.104C101.774 153.96 101.95 153.888 102.158 153.888C102.358 153.888 102.526 153.96 102.662 154.104C102.806 154.248 102.878 154.424 102.878 154.632C102.878 154.84 102.806 155.016 102.662 155.16C102.526 155.304 102.358 155.376 102.158 155.376ZM102.686 156.444V163.02H101.594V156.444H102.686ZM107.751 156.324C108.551 156.324 109.199 156.568 109.695 157.056C110.191 157.536 110.439 158.232 110.439 159.144V163.02H109.359V159.3C109.359 158.644 109.195 158.144 108.867 157.8C108.539 157.448 108.091 157.272 107.523 157.272C106.947 157.272 106.487 157.452 106.143 157.812C105.807 158.172 105.639 158.696 105.639 159.384V163.02H104.547V156.444H105.639V157.38C105.855 157.044 106.147 156.784 106.515 156.6C106.891 156.416 107.303 156.324 107.751 156.324ZM111.815 159.708C111.815 159.036 111.951 158.448 112.223 157.944C112.495 157.432 112.867 157.036 113.339 156.756C113.819 156.476 114.355 156.336 114.947 156.336C115.459 156.336 115.935 156.456 116.375 156.696C116.815 156.928 117.151 157.236 117.383 157.62V154.14H118.487V163.02H117.383V161.784C117.167 162.176 116.847 162.5 116.423 162.756C115.999 163.004 115.503 163.128 114.935 163.128C114.351 163.128 113.819 162.984 113.339 162.696C112.867 162.408 112.495 162.004 112.223 161.484C111.951 160.964 111.815 160.372 111.815 159.708ZM117.383 159.72C117.383 159.224 117.283 158.792 117.083 158.424C116.883 158.056 116.611 157.776 116.267 157.584C115.931 157.384 115.559 157.284 115.151 157.284C114.743 157.284 114.371 157.38 114.035 157.572C113.699 157.764 113.431 158.044 113.231 158.412C113.031 158.78 112.931 159.212 112.931 159.708C112.931 160.212 113.031 160.652 113.231 161.028C113.431 161.396 113.699 161.68 114.035 161.88C114.371 162.072 114.743 162.168 115.151 162.168C115.559 162.168 115.931 162.072 116.267 161.88C116.611 161.68 116.883 161.396 117.083 161.028C117.283 160.652 117.383 160.216 117.383 159.72ZM27.5904 177.48C27.5904 177.688 27.5784 177.908 27.5544 178.14H22.2984C22.3384 178.788 22.5584 179.296 22.9584 179.664C23.3664 180.024 23.8584 180.204 24.4344 180.204C24.9064 180.204 25.2984 180.096 25.6104 179.88C25.9304 179.656 26.1544 179.36 26.2824 178.992H27.4584C27.2824 179.624 26.9304 180.14 26.4024 180.54C25.8744 180.932 25.2184 181.128 24.4344 181.128C23.8104 181.128 23.2504 180.988 22.7544 180.708C22.2664 180.428 21.8824 180.032 21.6024 179.52C21.3224 179 21.1824 178.4 21.1824 177.72C21.1824 177.04 21.3184 176.444 21.5904 175.932C21.8624 175.42 22.2424 175.028 22.7304 174.756C23.2264 174.476 23.7944 174.336 24.4344 174.336C25.0584 174.336 25.6104 174.472 26.0904 174.744C26.5704 175.016 26.9384 175.392 27.1944 175.872C27.4584 176.344 27.5904 176.88 27.5904 177.48ZM26.4624 177.252C26.4624 176.836 26.3704 176.48 26.1864 176.184C26.0024 175.88 25.7504 175.652 25.4304 175.5C25.1184 175.34 24.7704 175.26 24.3864 175.26C23.8344 175.26 23.3624 175.436 22.9704 175.788C22.5864 176.14 22.3664 176.628 22.3104 177.252H26.4624ZM28.6238 177.708C28.6238 177.036 28.7598 176.448 29.0318 175.944C29.3038 175.432 29.6758 175.036 30.1478 174.756C30.6278 174.476 31.1598 174.336 31.7438 174.336C32.3198 174.336 32.8198 174.46 33.2438 174.708C33.6678 174.956 33.9838 175.268 34.1918 175.644V174.444H35.2958V181.02H34.1918V179.796C33.9758 180.18 33.6518 180.5 33.2198 180.756C32.7958 181.004 32.2998 181.128 31.7318 181.128C31.1478 181.128 30.6198 180.984 30.1478 180.696C29.6758 180.408 29.3038 180.004 29.0318 179.484C28.7598 178.964 28.6238 178.372 28.6238 177.708ZM34.1918 177.72C34.1918 177.224 34.0918 176.792 33.8918 176.424C33.6918 176.056 33.4198 175.776 33.0758 175.584C32.7398 175.384 32.3678 175.284 31.9598 175.284C31.5518 175.284 31.1798 175.38 30.8438 175.572C30.5078 175.764 30.2398 176.044 30.0398 176.412C29.8398 176.78 29.7398 177.212 29.7398 177.708C29.7398 178.212 29.8398 178.652 30.0398 179.028C30.2398 179.396 30.5078 179.68 30.8438 179.88C31.1798 180.072 31.5518 180.168 31.9598 180.168C32.3678 180.168 32.7398 180.072 33.0758 179.88C33.4198 179.68 33.6918 179.396 33.8918 179.028C34.0918 178.652 34.1918 178.216 34.1918 177.72ZM39.4692 181.128C38.9652 181.128 38.5132 181.044 38.1132 180.876C37.7132 180.7 37.3972 180.46 37.1652 180.156C36.9332 179.844 36.8052 179.488 36.7812 179.088H37.9092C37.9412 179.416 38.0932 179.684 38.3652 179.892C38.6452 180.1 39.0092 180.204 39.4572 180.204C39.8732 180.204 40.2012 180.112 40.4412 179.928C40.6812 179.744 40.8012 179.512 40.8012 179.232C40.8012 178.944 40.6732 178.732 40.4172 178.596C40.1612 178.452 39.7652 178.312 39.2292 178.176C38.7412 178.048 38.3412 177.92 38.0292 177.792C37.7252 177.656 37.4612 177.46 37.2372 177.204C37.0212 176.94 36.9132 176.596 36.9132 176.172C36.9132 175.836 37.0132 175.528 37.2132 175.248C37.4132 174.968 37.6972 174.748 38.0652 174.588C38.4332 174.42 38.8532 174.336 39.3252 174.336C40.0532 174.336 40.6412 174.52 41.0892 174.888C41.5372 175.256 41.7772 175.76 41.8092 176.4H40.7172C40.6932 176.056 40.5532 175.78 40.2972 175.572C40.0492 175.364 39.7132 175.26 39.2892 175.26C38.8972 175.26 38.5852 175.344 38.3532 175.512C38.1212 175.68 38.0052 175.9 38.0052 176.172C38.0052 176.388 38.0732 176.568 38.2092 176.712C38.3532 176.848 38.5292 176.96 38.7372 177.048C38.9532 177.128 39.2492 177.22 39.6252 177.324C40.0972 177.452 40.4812 177.58 40.7772 177.708C41.0732 177.828 41.3252 178.012 41.5332 178.26C41.7492 178.508 41.8612 178.832 41.8692 179.232C41.8692 179.592 41.7692 179.916 41.5692 180.204C41.3692 180.492 41.0852 180.72 40.7172 180.888C40.3572 181.048 39.9412 181.128 39.4692 181.128ZM43.9748 173.376C43.7668 173.376 43.5908 173.304 43.4468 173.16C43.3028 173.016 43.2308 172.84 43.2308 172.632C43.2308 172.424 43.3028 172.248 43.4468 172.104C43.5908 171.96 43.7668 171.888 43.9748 171.888C44.1748 171.888 44.3428 171.96 44.4788 172.104C44.6228 172.248 44.6948 172.424 44.6948 172.632C44.6948 172.84 44.6228 173.016 44.4788 173.16C44.3428 173.304 44.1748 173.376 43.9748 173.376ZM44.5028 174.444V181.02H43.4108V174.444H44.5028ZM47.4559 172.14V181.02H46.3639V172.14H47.4559ZM54.981 174.444L51.021 184.116H49.893L51.189 180.948L48.537 174.444H49.749L51.813 179.772L53.853 174.444H54.981Z" fill="#0A0A0A"/>
</g>
<g filter="url(#filter2_ddd_1940_17037)">
<rect width="128" height="128" transform="translate(9.99979 204)" fill="#FFBDF2"/>
<path d="M22.6824 219.302V227.666H21.5904V219.302H22.6824ZM25.8756 221.99V225.866C25.8756 226.186 25.9436 226.414 26.0796 226.55C26.2156 226.678 26.4516 226.742 26.7876 226.742H27.5916V227.666H26.6076C25.9996 227.666 25.5436 227.526 25.2396 227.246C24.9356 226.966 24.7836 226.506 24.7836 225.866V221.99H23.9316V221.09H24.7836V219.434H25.8756V221.09H27.5916V221.99H25.8756ZM40.8739 221.09L38.8219 227.666H37.6939L36.1099 222.446L34.5259 227.666H33.3979L31.3339 221.09H32.4499L33.9619 226.61L35.5939 221.09H36.7099L38.3059 226.622L39.7939 221.09H40.8739ZM41.5496 224.354C41.5496 223.682 41.6856 223.094 41.9576 222.59C42.2296 222.078 42.6016 221.682 43.0736 221.402C43.5536 221.122 44.0856 220.982 44.6696 220.982C45.2456 220.982 45.7456 221.106 46.1696 221.354C46.5936 221.602 46.9096 221.914 47.1176 222.29V221.09H48.2216V227.666H47.1176V226.442C46.9016 226.826 46.5776 227.146 46.1456 227.402C45.7216 227.65 45.2256 227.774 44.6576 227.774C44.0736 227.774 43.5456 227.63 43.0736 227.342C42.6016 227.054 42.2296 226.65 41.9576 226.13C41.6856 225.61 41.5496 225.018 41.5496 224.354ZM47.1176 224.366C47.1176 223.87 47.0176 223.438 46.8176 223.07C46.6176 222.702 46.3456 222.422 46.0016 222.23C45.6656 222.03 45.2936 221.93 44.8856 221.93C44.4776 221.93 44.1056 222.026 43.7696 222.218C43.4336 222.41 43.1656 222.69 42.9656 223.058C42.7656 223.426 42.6656 223.858 42.6656 224.354C42.6656 224.858 42.7656 225.298 42.9656 225.674C43.1656 226.042 43.4336 226.326 43.7696 226.526C44.1056 226.718 44.4776 226.814 44.8856 226.814C45.2936 226.814 45.6656 226.718 46.0016 226.526C46.3456 226.326 46.6176 226.042 46.8176 225.674C47.0176 225.298 47.1176 224.862 47.1176 224.366ZM52.395 227.774C51.891 227.774 51.439 227.69 51.039 227.522C50.639 227.346 50.323 227.106 50.091 226.802C49.859 226.49 49.731 226.134 49.707 225.734H50.835C50.867 226.062 51.019 226.33 51.291 226.538C51.571 226.746 51.935 226.85 52.383 226.85C52.799 226.85 53.127 226.758 53.367 226.574C53.607 226.39 53.727 226.158 53.727 225.878C53.727 225.59 53.599 225.378 53.343 225.242C53.087 225.098 52.691 224.958 52.155 224.822C51.667 224.694 51.267 224.566 50.955 224.438C50.651 224.302 50.387 224.106 50.163 223.85C49.947 223.586 49.839 223.242 49.839 222.818C49.839 222.482 49.939 222.174 50.139 221.894C50.339 221.614 50.623 221.394 50.991 221.234C51.359 221.066 51.779 220.982 52.251 220.982C52.979 220.982 53.567 221.166 54.015 221.534C54.463 221.902 54.703 222.406 54.735 223.046H53.643C53.619 222.702 53.479 222.426 53.223 222.218C52.975 222.01 52.639 221.906 52.215 221.906C51.823 221.906 51.511 221.99 51.279 222.158C51.047 222.326 50.931 222.546 50.931 222.818C50.931 223.034 50.999 223.214 51.135 223.358C51.279 223.494 51.455 223.606 51.663 223.694C51.879 223.774 52.175 223.866 52.551 223.97C53.023 224.098 53.407 224.226 53.703 224.354C53.999 224.474 54.251 224.658 54.459 224.906C54.675 225.154 54.787 225.478 54.795 225.878C54.795 226.238 54.695 226.562 54.495 226.85C54.295 227.138 54.011 227.366 53.643 227.534C53.283 227.694 52.867 227.774 52.395 227.774ZM65.5358 224.126C65.5358 224.334 65.5238 224.554 65.4998 224.786H60.2438C60.2838 225.434 60.5038 225.942 60.9038 226.31C61.3118 226.67 61.8038 226.85 62.3798 226.85C62.8518 226.85 63.2438 226.742 63.5558 226.526C63.8758 226.302 64.0998 226.006 64.2278 225.638H65.4038C65.2278 226.27 64.8758 226.786 64.3478 227.186C63.8198 227.578 63.1638 227.774 62.3798 227.774C61.7558 227.774 61.1958 227.634 60.6998 227.354C60.2118 227.074 59.8278 226.678 59.5478 226.166C59.2678 225.646 59.1278 225.046 59.1278 224.366C59.1278 223.686 59.2638 223.09 59.5358 222.578C59.8078 222.066 60.1878 221.674 60.6758 221.402C61.1718 221.122 61.7398 220.982 62.3798 220.982C63.0038 220.982 63.5558 221.118 64.0358 221.39C64.5158 221.662 64.8838 222.038 65.1398 222.518C65.4038 222.99 65.5358 223.526 65.5358 224.126ZM64.4078 223.898C64.4078 223.482 64.3158 223.126 64.1318 222.83C63.9478 222.526 63.6958 222.298 63.3758 222.146C63.0638 221.986 62.7158 221.906 62.3318 221.906C61.7798 221.906 61.3078 222.082 60.9158 222.434C60.5318 222.786 60.3118 223.274 60.2558 223.898H64.4078ZM66.5692 224.354C66.5692 223.682 66.7052 223.094 66.9772 222.59C67.2492 222.078 67.6212 221.682 68.0932 221.402C68.5732 221.122 69.1052 220.982 69.6892 220.982C70.2652 220.982 70.7652 221.106 71.1892 221.354C71.6132 221.602 71.9292 221.914 72.1372 222.29V221.09H73.2412V227.666H72.1372V226.442C71.9212 226.826 71.5972 227.146 71.1652 227.402C70.7412 227.65 70.2452 227.774 69.6772 227.774C69.0932 227.774 68.5652 227.63 68.0932 227.342C67.6212 227.054 67.2492 226.65 66.9772 226.13C66.7052 225.61 66.5692 225.018 66.5692 224.354ZM72.1372 224.366C72.1372 223.87 72.0372 223.438 71.8372 223.07C71.6372 222.702 71.3652 222.422 71.0212 222.23C70.6852 222.03 70.3132 221.93 69.9052 221.93C69.4972 221.93 69.1252 222.026 68.7892 222.218C68.4532 222.41 68.1852 222.69 67.9852 223.058C67.7852 223.426 67.6852 223.858 67.6852 224.354C67.6852 224.858 67.7852 225.298 67.9852 225.674C68.1852 226.042 68.4532 226.326 68.7892 226.526C69.1252 226.718 69.4972 226.814 69.9052 226.814C70.3132 226.814 70.6852 226.718 71.0212 226.526C71.3652 226.326 71.6372 226.042 71.8372 225.674C72.0372 225.298 72.1372 224.862 72.1372 224.366ZM77.4145 227.774C76.9105 227.774 76.4585 227.69 76.0585 227.522C75.6585 227.346 75.3425 227.106 75.1105 226.802C74.8785 226.49 74.7505 226.134 74.7265 225.734H75.8545C75.8865 226.062 76.0385 226.33 76.3105 226.538C76.5905 226.746 76.9545 226.85 77.4025 226.85C77.8185 226.85 78.1465 226.758 78.3865 226.574C78.6265 226.39 78.7465 226.158 78.7465 225.878C78.7465 225.59 78.6185 225.378 78.3625 225.242C78.1065 225.098 77.7105 224.958 77.1745 224.822C76.6865 224.694 76.2865 224.566 75.9745 224.438C75.6705 224.302 75.4065 224.106 75.1825 223.85C74.9665 223.586 74.8585 223.242 74.8585 222.818C74.8585 222.482 74.9585 222.174 75.1585 221.894C75.3585 221.614 75.6425 221.394 76.0105 221.234C76.3785 221.066 76.7985 220.982 77.2705 220.982C77.9985 220.982 78.5865 221.166 79.0345 221.534C79.4825 221.902 79.7225 222.406 79.7545 223.046H78.6625C78.6385 222.702 78.4985 222.426 78.2425 222.218C77.9945 222.01 77.6585 221.906 77.2345 221.906C76.8425 221.906 76.5305 221.99 76.2985 222.158C76.0665 222.326 75.9505 222.546 75.9505 222.818C75.9505 223.034 76.0185 223.214 76.1545 223.358C76.2985 223.494 76.4745 223.606 76.6825 223.694C76.8985 223.774 77.1945 223.866 77.5705 223.97C78.0425 224.098 78.4265 224.226 78.7225 224.354C79.0185 224.474 79.2705 224.658 79.4785 224.906C79.6945 225.154 79.8065 225.478 79.8145 225.878C79.8145 226.238 79.7145 226.562 79.5145 226.85C79.3145 227.138 79.0305 227.366 78.6625 227.534C78.3025 227.694 77.8865 227.774 77.4145 227.774ZM87.0201 221.09L83.0601 230.762H81.9321L83.2281 227.594L80.5761 221.09H81.7881L83.8521 226.418L85.8921 221.09H87.0201ZM94.125 229.898C93.357 229.146 92.757 228.19 92.325 227.03C91.901 225.87 91.689 224.618 91.689 223.274C91.689 221.898 91.913 220.614 92.361 219.422C92.817 218.222 93.465 217.234 94.305 216.458H95.445V216.566C94.549 217.406 93.873 218.418 93.417 219.602C92.969 220.778 92.745 222.002 92.745 223.274C92.745 224.514 92.957 225.698 93.381 226.826C93.813 227.954 94.441 228.942 95.265 229.79V229.898H94.125ZM101.926 219.842L98.5902 227.666H97.4862L100.87 219.95H96.2382V219.014H101.926V219.842ZM102.969 229.898V229.79C103.793 228.942 104.417 227.954 104.841 226.826C105.273 225.698 105.489 224.514 105.489 223.274C105.489 222.002 105.261 220.778 104.805 219.602C104.357 218.418 103.685 217.406 102.789 216.566V216.458H103.929C104.769 217.234 105.413 218.222 105.861 219.422C106.317 220.614 106.545 221.898 106.545 223.274C106.545 224.618 106.329 225.87 105.897 227.03C105.473 228.19 104.877 229.146 104.109 229.898H102.969Z" fill="#0A0A0A"/>
</g>
<path d="M202.327 6.88V8.368H197.607V11.648H201.287V13.136H197.607V18H195.783V6.88H202.327ZM212.162 9.184V18H210.338V16.96C210.05 17.3227 209.671 17.6107 209.202 17.824C208.743 18.0267 208.252 18.128 207.73 18.128C207.036 18.128 206.412 17.984 205.858 17.696C205.314 17.408 204.882 16.9813 204.562 16.416C204.252 15.8507 204.098 15.168 204.098 14.368V9.184H205.906V14.096C205.906 14.8853 206.103 15.4933 206.498 15.92C206.892 16.336 207.431 16.544 208.114 16.544C208.796 16.544 209.335 16.336 209.73 15.92C210.135 15.4933 210.338 14.8853 210.338 14.096V9.184H212.162ZM219.176 9.04C219.87 9.04 220.488 9.184 221.032 9.472C221.587 9.76 222.019 10.1867 222.328 10.752C222.638 11.3173 222.792 12 222.792 12.8V18H220.984V13.072C220.984 12.2827 220.787 11.68 220.392 11.264C219.998 10.8373 219.459 10.624 218.776 10.624C218.094 10.624 217.55 10.8373 217.144 11.264C216.75 11.68 216.552 12.2827 216.552 13.072V18H214.728V9.184H216.552V10.192C216.851 9.82933 217.23 9.54667 217.688 9.344C218.158 9.14133 218.654 9.04 219.176 9.04Z" fill="#1E1E1E"/>
<g filter="url(#filter3_ddd_1940_17037)">
<rect width="128" height="128" transform="translate(145.751 54.0898)" fill="#FFD966"/>
<path d="M159.994 77.8403C159.442 77.8403 158.946 77.7443 158.506 77.5523C158.074 77.3523 157.734 77.0803 157.486 76.7363C157.238 76.3843 157.11 75.9803 157.102 75.5243H158.266C158.306 75.9163 158.466 76.2483 158.746 76.5203C159.034 76.7843 159.45 76.9163 159.994 76.9163C160.514 76.9163 160.922 76.7883 161.218 76.5323C161.522 76.2683 161.674 75.9323 161.674 75.5243C161.674 75.2043 161.586 74.9443 161.41 74.7443C161.234 74.5443 161.014 74.3923 160.75 74.2883C160.486 74.1843 160.13 74.0723 159.682 73.9523C159.13 73.8083 158.686 73.6643 158.35 73.5203C158.022 73.3763 157.738 73.1523 157.498 72.8483C157.266 72.5363 157.15 72.1203 157.15 71.6003C157.15 71.1443 157.266 70.7403 157.498 70.3883C157.73 70.0363 158.054 69.7643 158.47 69.5723C158.894 69.3803 159.378 69.2843 159.922 69.2843C160.706 69.2843 161.346 69.4803 161.842 69.8723C162.346 70.2643 162.63 70.7843 162.694 71.4323H161.494C161.454 71.1123 161.286 70.8323 160.99 70.5923C160.694 70.3443 160.302 70.2203 159.814 70.2203C159.358 70.2203 158.986 70.3403 158.698 70.5803C158.41 70.8123 158.266 71.1403 158.266 71.5643C158.266 71.8683 158.35 72.1163 158.518 72.3083C158.694 72.5003 158.906 72.6483 159.154 72.7523C159.41 72.8483 159.766 72.9603 160.222 73.0883C160.774 73.2403 161.218 73.3923 161.554 73.5443C161.89 73.6883 162.178 73.9163 162.418 74.2283C162.658 74.5323 162.778 74.9483 162.778 75.4763C162.778 75.8843 162.67 76.2683 162.454 76.6283C162.238 76.9883 161.918 77.2803 161.494 77.5043C161.07 77.7283 160.57 77.8403 159.994 77.8403ZM170.385 74.2163C170.385 74.4243 170.373 74.6443 170.349 74.8763H165.093C165.133 75.5243 165.353 76.0323 165.753 76.4003C166.161 76.7603 166.653 76.9403 167.229 76.9403C167.701 76.9403 168.093 76.8323 168.405 76.6163C168.725 76.3923 168.949 76.0963 169.077 75.7283H170.253C170.077 76.3603 169.725 76.8763 169.197 77.2763C168.669 77.6683 168.013 77.8643 167.229 77.8643C166.605 77.8643 166.045 77.7243 165.549 77.4443C165.061 77.1643 164.677 76.7683 164.397 76.2563C164.117 75.7363 163.977 75.1363 163.977 74.4563C163.977 73.7763 164.113 73.1803 164.385 72.6683C164.657 72.1563 165.037 71.7643 165.525 71.4923C166.021 71.2123 166.589 71.0723 167.229 71.0723C167.853 71.0723 168.405 71.2083 168.885 71.4803C169.365 71.7523 169.733 72.1283 169.989 72.6083C170.253 73.0803 170.385 73.6163 170.385 74.2163ZM169.257 73.9883C169.257 73.5723 169.165 73.2163 168.981 72.9203C168.797 72.6163 168.545 72.3883 168.225 72.2363C167.913 72.0763 167.565 71.9963 167.181 71.9963C166.629 71.9963 166.157 72.1723 165.765 72.5243C165.381 72.8763 165.161 73.3643 165.105 73.9883H169.257ZM171.418 74.4443C171.418 73.7723 171.554 73.1843 171.826 72.6803C172.098 72.1683 172.47 71.7723 172.942 71.4923C173.422 71.2123 173.954 71.0723 174.538 71.0723C175.114 71.0723 175.614 71.1963 176.038 71.4443C176.462 71.6923 176.778 72.0043 176.986 72.3803V71.1803H178.09V77.7563H176.986V76.5323C176.77 76.9163 176.446 77.2363 176.014 77.4923C175.59 77.7403 175.094 77.8643 174.526 77.8643C173.942 77.8643 173.414 77.7203 172.942 77.4323C172.47 77.1443 172.098 76.7403 171.826 76.2203C171.554 75.7003 171.418 75.1083 171.418 74.4443ZM176.986 74.4563C176.986 73.9603 176.886 73.5283 176.686 73.1603C176.486 72.7923 176.214 72.5123 175.87 72.3203C175.534 72.1203 175.162 72.0203 174.754 72.0203C174.346 72.0203 173.974 72.1163 173.638 72.3083C173.302 72.5003 173.034 72.7803 172.834 73.1483C172.634 73.5163 172.534 73.9483 172.534 74.4443C172.534 74.9483 172.634 75.3883 172.834 75.7643C173.034 76.1323 173.302 76.4163 173.638 76.6163C173.974 76.8083 174.346 76.9043 174.754 76.9043C175.162 76.9043 175.534 76.8083 175.87 76.6163C176.214 76.4163 176.486 76.1323 176.686 75.7643C176.886 75.3883 176.986 74.9523 176.986 74.4563ZM181.027 72.2483C181.219 71.8723 181.491 71.5803 181.843 71.3723C182.203 71.1643 182.639 71.0603 183.151 71.0603V72.1883H182.863C181.639 72.1883 181.027 72.8523 181.027 74.1803V77.7563H179.935V71.1803H181.027V72.2483ZM184.004 74.4563C184.004 73.7763 184.14 73.1843 184.412 72.6803C184.684 72.1683 185.06 71.7723 185.54 71.4923C186.028 71.2123 186.584 71.0723 187.208 71.0723C188.016 71.0723 188.68 71.2683 189.2 71.6603C189.728 72.0523 190.076 72.5963 190.244 73.2923H189.068C188.956 72.8923 188.736 72.5763 188.408 72.3443C188.088 72.1123 187.688 71.9963 187.208 71.9963C186.584 71.9963 186.08 72.2123 185.696 72.6443C185.312 73.0683 185.12 73.6723 185.12 74.4563C185.12 75.2483 185.312 75.8603 185.696 76.2923C186.08 76.7243 186.584 76.9403 187.208 76.9403C187.688 76.9403 188.088 76.8283 188.408 76.6043C188.728 76.3803 188.948 76.0603 189.068 75.6443H190.244C190.068 76.3163 189.716 76.8563 189.188 77.2643C188.66 77.6643 188 77.8643 187.208 77.8643C186.584 77.8643 186.028 77.7243 185.54 77.4443C185.06 77.1643 184.684 76.7683 184.412 76.2563C184.14 75.7443 184.004 75.1443 184.004 74.4563ZM194.965 71.0603C195.461 71.0603 195.909 71.1683 196.309 71.3843C196.709 71.5923 197.021 71.9083 197.245 72.3323C197.477 72.7563 197.593 73.2723 197.593 73.8803V77.7563H196.513V74.0363C196.513 73.3803 196.349 72.8803 196.021 72.5363C195.693 72.1843 195.245 72.0083 194.677 72.0083C194.101 72.0083 193.641 72.1883 193.297 72.5483C192.961 72.9083 192.793 73.4323 192.793 74.1203V77.7563H191.701V68.8763H192.793V72.1163C193.009 71.7803 193.305 71.5203 193.681 71.3363C194.065 71.1523 194.493 71.0603 194.965 71.0603ZM199.941 70.1123C199.733 70.1123 199.557 70.0403 199.413 69.8963C199.269 69.7523 199.197 69.5763 199.197 69.3683C199.197 69.1603 199.269 68.9843 199.413 68.8403C199.557 68.6963 199.733 68.6243 199.941 68.6243C200.141 68.6243 200.309 68.6963 200.445 68.8403C200.589 68.9843 200.661 69.1603 200.661 69.3683C200.661 69.5763 200.589 69.7523 200.445 69.8963C200.309 70.0403 200.141 70.1123 199.941 70.1123ZM200.469 71.1803V77.7563H199.377V71.1803H200.469ZM205.534 71.0603C206.334 71.0603 206.982 71.3043 207.478 71.7923C207.974 72.2723 208.222 72.9683 208.222 73.8803V77.7563H207.142V74.0363C207.142 73.3803 206.978 72.8803 206.65 72.5363C206.322 72.1843 205.874 72.0083 205.306 72.0083C204.73 72.0083 204.27 72.1883 203.926 72.5483C203.59 72.9083 203.422 73.4323 203.422 74.1203V77.7563H202.33V71.1803H203.422V72.1163C203.638 71.7803 203.93 71.5203 204.298 71.3363C204.674 71.1523 205.086 71.0603 205.534 71.0603ZM212.718 71.0723C213.286 71.0723 213.782 71.1963 214.206 71.4443C214.638 71.6923 214.958 72.0043 215.166 72.3803V71.1803H216.27V77.9003C216.27 78.5003 216.142 79.0323 215.886 79.4963C215.63 79.9683 215.262 80.3363 214.782 80.6003C214.31 80.8643 213.758 80.9963 213.126 80.9963C212.262 80.9963 211.542 80.7923 210.966 80.3843C210.39 79.9763 210.05 79.4203 209.946 78.7163H211.026C211.146 79.1163 211.394 79.4363 211.77 79.6763C212.146 79.9243 212.598 80.0483 213.126 80.0483C213.726 80.0483 214.214 79.8603 214.59 79.4843C214.974 79.1083 215.166 78.5803 215.166 77.9003V76.5203C214.95 76.9043 214.63 77.2243 214.206 77.4803C213.782 77.7363 213.286 77.8643 212.718 77.8643C212.134 77.8643 211.602 77.7203 211.122 77.4323C210.65 77.1443 210.278 76.7403 210.006 76.2203C209.734 75.7003 209.598 75.1083 209.598 74.4443C209.598 73.7723 209.734 73.1843 210.006 72.6803C210.278 72.1683 210.65 71.7723 211.122 71.4923C211.602 71.2123 212.134 71.0723 212.718 71.0723ZM215.166 74.4563C215.166 73.9603 215.066 73.5283 214.866 73.1603C214.666 72.7923 214.394 72.5123 214.05 72.3203C213.714 72.1203 213.342 72.0203 212.934 72.0203C212.526 72.0203 212.154 72.1163 211.818 72.3083C211.482 72.5003 211.214 72.7803 211.014 73.1483C210.814 73.5163 210.714 73.9483 210.714 74.4443C210.714 74.9483 210.814 75.3883 211.014 75.7643C211.214 76.1323 211.482 76.4163 211.818 76.6163C212.154 76.8083 212.526 76.9043 212.934 76.9043C213.342 76.9043 213.714 76.8083 214.05 76.6163C214.394 76.4163 214.666 76.1323 214.866 75.7643C215.066 75.3883 215.166 74.9523 215.166 74.4563ZM220.906 74.4443C220.906 73.7723 221.042 73.1843 221.314 72.6803C221.586 72.1683 221.958 71.7723 222.43 71.4923C222.91 71.2123 223.442 71.0723 224.026 71.0723C224.602 71.0723 225.102 71.1963 225.526 71.4443C225.95 71.6923 226.266 72.0043 226.474 72.3803V71.1803H227.578V77.7563H226.474V76.5323C226.258 76.9163 225.934 77.2363 225.502 77.4923C225.078 77.7403 224.582 77.8643 224.014 77.8643C223.43 77.8643 222.902 77.7203 222.43 77.4323C221.958 77.1443 221.586 76.7403 221.314 76.2203C221.042 75.7003 220.906 75.1083 220.906 74.4443ZM226.474 74.4563C226.474 73.9603 226.374 73.5283 226.174 73.1603C225.974 72.7923 225.702 72.5123 225.358 72.3203C225.022 72.1203 224.65 72.0203 224.242 72.0203C223.834 72.0203 223.462 72.1163 223.126 72.3083C222.79 72.5003 222.522 72.7803 222.322 73.1483C222.122 73.5163 222.022 73.9483 222.022 74.4443C222.022 74.9483 222.122 75.3883 222.322 75.7643C222.522 76.1323 222.79 76.4163 223.126 76.6163C223.462 76.8083 223.834 76.9043 224.242 76.9043C224.65 76.9043 225.022 76.8083 225.358 76.6163C225.702 76.4163 225.974 76.1323 226.174 75.7643C226.374 75.3883 226.474 74.9523 226.474 74.4563ZM232.628 71.0603C233.428 71.0603 234.076 71.3043 234.572 71.7923C235.068 72.2723 235.316 72.9683 235.316 73.8803V77.7563H234.236V74.0363C234.236 73.3803 234.072 72.8803 233.744 72.5363C233.416 72.1843 232.968 72.0083 232.4 72.0083C231.824 72.0083 231.364 72.1883 231.02 72.5483C230.684 72.9083 230.516 73.4323 230.516 74.1203V77.7563H229.424V71.1803H230.516V72.1163C230.732 71.7803 231.024 71.5203 231.392 71.3363C231.768 71.1523 232.18 71.0603 232.628 71.0603ZM236.691 74.4443C236.691 73.7723 236.827 73.1843 237.099 72.6803C237.371 72.1683 237.743 71.7723 238.215 71.4923C238.695 71.2123 239.231 71.0723 239.823 71.0723C240.335 71.0723 240.811 71.1923 241.251 71.4323C241.691 71.6643 242.027 71.9723 242.259 72.3563V68.8763H243.363V77.7563H242.259V76.5203C242.043 76.9123 241.723 77.2363 241.299 77.4923C240.875 77.7403 240.379 77.8643 239.811 77.8643C239.227 77.8643 238.695 77.7203 238.215 77.4323C237.743 77.1443 237.371 76.7403 237.099 76.2203C236.827 75.7003 236.691 75.1083 236.691 74.4443ZM242.259 74.4563C242.259 73.9603 242.159 73.5283 241.959 73.1603C241.759 72.7923 241.487 72.5123 241.143 72.3203C240.807 72.1203 240.435 72.0203 240.027 72.0203C239.619 72.0203 239.247 72.1163 238.911 72.3083C238.575 72.5003 238.307 72.7803 238.107 73.1483C237.907 73.5163 237.807 73.9483 237.807 74.4443C237.807 74.9483 237.907 75.3883 238.107 75.7643C238.307 76.1323 238.575 76.4163 238.911 76.6163C239.247 76.8083 239.619 76.9043 240.027 76.9043C240.435 76.9043 240.807 76.8083 241.143 76.6163C241.487 76.4163 241.759 76.1323 241.959 75.7643C242.159 75.3883 242.259 74.9523 242.259 74.4563ZM156.934 92.4443C156.934 91.7723 157.07 91.1843 157.342 90.6803C157.614 90.1683 157.986 89.7723 158.458 89.4923C158.938 89.2123 159.474 89.0723 160.066 89.0723C160.578 89.0723 161.054 89.1923 161.494 89.4323C161.934 89.6643 162.27 89.9723 162.502 90.3563V86.8763H163.606V95.7563H162.502V94.5203C162.286 94.9123 161.966 95.2363 161.542 95.4923C161.118 95.7403 160.622 95.8643 160.054 95.8643C159.47 95.8643 158.938 95.7203 158.458 95.4323C157.986 95.1443 157.614 94.7403 157.342 94.2203C157.07 93.7003 156.934 93.1083 156.934 92.4443ZM162.502 92.4563C162.502 91.9603 162.402 91.5283 162.202 91.1603C162.002 90.7923 161.73 90.5123 161.386 90.3203C161.05 90.1203 160.678 90.0203 160.27 90.0203C159.862 90.0203 159.49 90.1163 159.154 90.3083C158.818 90.5003 158.55 90.7803 158.35 91.1483C158.15 91.5163 158.05 91.9483 158.05 92.4443C158.05 92.9483 158.15 93.3883 158.35 93.7643C158.55 94.1323 158.818 94.4163 159.154 94.6163C159.49 94.8083 159.862 94.9043 160.27 94.9043C160.678 94.9043 161.05 94.8083 161.386 94.6163C161.73 94.4163 162.002 94.1323 162.202 93.7643C162.402 93.3883 162.502 92.9523 162.502 92.4563ZM171.451 92.2163C171.451 92.4243 171.439 92.6443 171.415 92.8763H166.159C166.199 93.5243 166.419 94.0323 166.819 94.4003C167.227 94.7603 167.719 94.9403 168.295 94.9403C168.767 94.9403 169.159 94.8323 169.471 94.6163C169.791 94.3923 170.015 94.0963 170.143 93.7283H171.319C171.143 94.3603 170.791 94.8763 170.263 95.2763C169.735 95.6683 169.079 95.8643 168.295 95.8643C167.671 95.8643 167.111 95.7243 166.615 95.4443C166.127 95.1643 165.743 94.7683 165.463 94.2563C165.183 93.7363 165.043 93.1363 165.043 92.4563C165.043 91.7763 165.179 91.1803 165.451 90.6683C165.723 90.1563 166.103 89.7643 166.591 89.4923C167.087 89.2123 167.655 89.0723 168.295 89.0723C168.919 89.0723 169.471 89.2083 169.951 89.4803C170.431 89.7523 170.799 90.1283 171.055 90.6083C171.319 91.0803 171.451 91.6163 171.451 92.2163ZM170.323 91.9883C170.323 91.5723 170.231 91.2163 170.047 90.9203C169.863 90.6163 169.611 90.3883 169.291 90.2363C168.979 90.0763 168.631 89.9963 168.247 89.9963C167.695 89.9963 167.223 90.1723 166.831 90.5243C166.447 90.8763 166.227 91.3643 166.171 91.9883H170.323ZM172.484 92.4563C172.484 91.7763 172.62 91.1843 172.892 90.6803C173.164 90.1683 173.54 89.7723 174.02 89.4923C174.508 89.2123 175.064 89.0723 175.688 89.0723C176.496 89.0723 177.16 89.2683 177.68 89.6603C178.208 90.0523 178.556 90.5963 178.724 91.2923H177.548C177.436 90.8923 177.216 90.5763 176.888 90.3443C176.568 90.1123 176.168 89.9963 175.688 89.9963C175.064 89.9963 174.56 90.2123 174.176 90.6443C173.792 91.0683 173.6 91.6723 173.6 92.4563C173.6 93.2483 173.792 93.8603 174.176 94.2923C174.56 94.7243 175.064 94.9403 175.688 94.9403C176.168 94.9403 176.568 94.8283 176.888 94.6043C177.208 94.3803 177.428 94.0603 177.548 93.6443H178.724C178.548 94.3163 178.196 94.8563 177.668 95.2643C177.14 95.6643 176.48 95.8643 175.688 95.8643C175.064 95.8643 174.508 95.7243 174.02 95.4443C173.54 95.1643 173.164 94.7683 172.892 94.2563C172.62 93.7443 172.484 93.1443 172.484 92.4563ZM180.745 88.1123C180.537 88.1123 180.361 88.0403 180.217 87.8963C180.073 87.7523 180.001 87.5763 180.001 87.3683C180.001 87.1603 180.073 86.9843 180.217 86.8403C180.361 86.6963 180.537 86.6243 180.745 86.6243C180.945 86.6243 181.113 86.6963 181.249 86.8403C181.393 86.9843 181.465 87.1603 181.465 87.3683C181.465 87.5763 181.393 87.7523 181.249 87.8963C181.113 88.0403 180.945 88.1123 180.745 88.1123ZM181.273 89.1803V95.7563H180.181V89.1803H181.273ZM182.727 92.4443C182.727 91.7723 182.863 91.1843 183.135 90.6803C183.407 90.1683 183.779 89.7723 184.251 89.4923C184.731 89.2123 185.267 89.0723 185.859 89.0723C186.371 89.0723 186.847 89.1923 187.287 89.4323C187.727 89.6643 188.063 89.9723 188.295 90.3563V86.8763H189.399V95.7563H188.295V94.5203C188.079 94.9123 187.759 95.2363 187.335 95.4923C186.911 95.7403 186.415 95.8643 185.847 95.8643C185.263 95.8643 184.731 95.7203 184.251 95.4323C183.779 95.1443 183.407 94.7403 183.135 94.2203C182.863 93.7003 182.727 93.1083 182.727 92.4443ZM188.295 92.4563C188.295 91.9603 188.195 91.5283 187.995 91.1603C187.795 90.7923 187.523 90.5123 187.179 90.3203C186.843 90.1203 186.471 90.0203 186.063 90.0203C185.655 90.0203 185.283 90.1163 184.947 90.3083C184.611 90.5003 184.343 90.7803 184.143 91.1483C183.943 91.5163 183.843 91.9483 183.843 92.4443C183.843 92.9483 183.943 93.3883 184.143 93.7643C184.343 94.1323 184.611 94.4163 184.947 94.6163C185.283 94.8083 185.655 94.9043 186.063 94.9043C186.471 94.9043 186.843 94.8083 187.179 94.6163C187.523 94.4163 187.795 94.1323 187.995 93.7643C188.195 93.3883 188.295 92.9523 188.295 92.4563ZM191.808 88.1123C191.6 88.1123 191.424 88.0403 191.28 87.8963C191.136 87.7523 191.064 87.5763 191.064 87.3683C191.064 87.1603 191.136 86.9843 191.28 86.8403C191.424 86.6963 191.6 86.6243 191.808 86.6243C192.008 86.6243 192.176 86.6963 192.312 86.8403C192.456 86.9843 192.528 87.1603 192.528 87.3683C192.528 87.5763 192.456 87.7523 192.312 87.8963C192.176 88.0403 192.008 88.1123 191.808 88.1123ZM192.336 89.1803V95.7563H191.244V89.1803H192.336ZM197.401 89.0603C198.201 89.0603 198.849 89.3043 199.345 89.7923C199.841 90.2723 200.089 90.9683 200.089 91.8803V95.7563H199.009V92.0363C199.009 91.3803 198.845 90.8803 198.517 90.5363C198.189 90.1843 197.741 90.0083 197.173 90.0083C196.597 90.0083 196.137 90.1883 195.793 90.5483C195.457 90.9083 195.289 91.4323 195.289 92.1203V95.7563H194.197V89.1803H195.289V90.1163C195.505 89.7803 195.797 89.5203 196.165 89.3363C196.541 89.1523 196.953 89.0603 197.401 89.0603ZM204.585 89.0723C205.153 89.0723 205.649 89.1963 206.073 89.4443C206.505 89.6923 206.825 90.0043 207.033 90.3803V89.1803H208.137V95.9003C208.137 96.5003 208.009 97.0323 207.753 97.4963C207.497 97.9683 207.129 98.3363 206.649 98.6003C206.177 98.8643 205.625 98.9963 204.993 98.9963C204.129 98.9963 203.409 98.7923 202.833 98.3843C202.257 97.9763 201.917 97.4203 201.813 96.7163H202.893C203.013 97.1163 203.261 97.4363 203.637 97.6763C204.013 97.9243 204.465 98.0483 204.993 98.0483C205.593 98.0483 206.081 97.8603 206.457 97.4843C206.841 97.1083 207.033 96.5803 207.033 95.9003V94.5203C206.817 94.9043 206.497 95.2243 206.073 95.4803C205.649 95.7363 205.153 95.8643 204.585 95.8643C204.001 95.8643 203.469 95.7203 202.989 95.4323C202.517 95.1443 202.145 94.7403 201.873 94.2203C201.601 93.7003 201.465 93.1083 201.465 92.4443C201.465 91.7723 201.601 91.1843 201.873 90.6803C202.145 90.1683 202.517 89.7723 202.989 89.4923C203.469 89.2123 204.001 89.0723 204.585 89.0723ZM207.033 92.4563C207.033 91.9603 206.933 91.5283 206.733 91.1603C206.533 90.7923 206.261 90.5123 205.917 90.3203C205.581 90.1203 205.209 90.0203 204.801 90.0203C204.393 90.0203 204.021 90.1163 203.685 90.3083C203.349 90.5003 203.081 90.7803 202.881 91.1483C202.681 91.5163 202.581 91.9483 202.581 92.4443C202.581 92.9483 202.681 93.3883 202.881 93.7643C203.081 94.1323 203.349 94.4163 203.685 94.6163C204.021 94.8083 204.393 94.9043 204.801 94.9043C205.209 94.9043 205.581 94.8083 205.917 94.6163C206.261 94.4163 206.533 94.1323 206.733 93.7643C206.933 93.3883 207.033 92.9523 207.033 92.4563ZM158.434 108.248C158.626 107.872 158.898 107.58 159.25 107.372C159.61 107.164 160.046 107.06 160.558 107.06V108.188H160.27C159.046 108.188 158.434 108.852 158.434 110.18V113.756H157.342V107.18H158.434V108.248ZM167.818 110.216C167.818 110.424 167.806 110.644 167.782 110.876H162.526C162.566 111.524 162.786 112.032 163.186 112.4C163.594 112.76 164.086 112.94 164.662 112.94C165.134 112.94 165.526 112.832 165.838 112.616C166.158 112.392 166.382 112.096 166.51 111.728H167.686C167.51 112.36 167.158 112.876 166.63 113.276C166.102 113.668 165.446 113.864 164.662 113.864C164.038 113.864 163.478 113.724 162.982 113.444C162.494 113.164 162.11 112.768 161.83 112.256C161.55 111.736 161.41 111.136 161.41 110.456C161.41 109.776 161.546 109.18 161.818 108.668C162.09 108.156 162.47 107.764 162.958 107.492C163.454 107.212 164.022 107.072 164.662 107.072C165.286 107.072 165.838 107.208 166.318 107.48C166.798 107.752 167.166 108.128 167.422 108.608C167.686 109.08 167.818 109.616 167.818 110.216ZM166.69 109.988C166.69 109.572 166.598 109.216 166.414 108.92C166.23 108.616 165.978 108.388 165.658 108.236C165.346 108.076 164.998 107.996 164.614 107.996C164.062 107.996 163.59 108.172 163.198 108.524C162.814 108.876 162.594 109.364 162.538 109.988H166.69ZM171.588 113.864C171.084 113.864 170.632 113.78 170.232 113.612C169.832 113.436 169.516 113.196 169.284 112.892C169.052 112.58 168.924 112.224 168.9 111.824H170.028C170.06 112.152 170.212 112.42 170.484 112.628C170.764 112.836 171.128 112.94 171.576 112.94C171.992 112.94 172.32 112.848 172.56 112.664C172.8 112.48 172.92 112.248 172.92 111.968C172.92 111.68 172.792 111.468 172.536 111.332C172.28 111.188 171.884 111.048 171.348 110.912C170.86 110.784 170.46 110.656 170.148 110.528C169.844 110.392 169.58 110.196 169.356 109.94C169.14 109.676 169.032 109.332 169.032 108.908C169.032 108.572 169.132 108.264 169.332 107.984C169.532 107.704 169.816 107.484 170.184 107.324C170.552 107.156 170.972 107.072 171.444 107.072C172.172 107.072 172.76 107.256 173.208 107.624C173.656 107.992 173.896 108.496 173.928 109.136H172.836C172.812 108.792 172.672 108.516 172.416 108.308C172.168 108.1 171.832 107.996 171.408 107.996C171.016 107.996 170.704 108.08 170.472 108.248C170.24 108.416 170.124 108.636 170.124 108.908C170.124 109.124 170.192 109.304 170.328 109.448C170.472 109.584 170.648 109.696 170.856 109.784C171.072 109.864 171.368 109.956 171.744 110.06C172.216 110.188 172.6 110.316 172.896 110.444C173.192 110.564 173.444 110.748 173.652 110.996C173.868 111.244 173.98 111.568 173.988 111.968C173.988 112.328 173.888 112.652 173.688 112.94C173.488 113.228 173.204 113.456 172.836 113.624C172.476 113.784 172.06 113.864 171.588 113.864ZM176.861 108.08V111.956C176.861 112.276 176.929 112.504 177.065 112.64C177.201 112.768 177.437 112.832 177.773 112.832H178.577V113.756H177.593C176.985 113.756 176.529 113.616 176.225 113.336C175.921 113.056 175.769 112.596 175.769 111.956V108.08H174.917V107.18H175.769V105.524H176.861V107.18H178.577V108.08H176.861ZM179.492 110.444C179.492 109.772 179.628 109.184 179.9 108.68C180.172 108.168 180.544 107.772 181.016 107.492C181.496 107.212 182.028 107.072 182.612 107.072C183.188 107.072 183.688 107.196 184.112 107.444C184.536 107.692 184.852 108.004 185.06 108.38V107.18H186.164V113.756H185.06V112.532C184.844 112.916 184.52 113.236 184.088 113.492C183.664 113.74 183.168 113.864 182.6 113.864C182.016 113.864 181.488 113.72 181.016 113.432C180.544 113.144 180.172 112.74 179.9 112.22C179.628 111.7 179.492 111.108 179.492 110.444ZM185.06 110.456C185.06 109.96 184.96 109.528 184.76 109.16C184.56 108.792 184.288 108.512 183.944 108.32C183.608 108.12 183.236 108.02 182.828 108.02C182.42 108.02 182.048 108.116 181.712 108.308C181.376 108.5 181.108 108.78 180.908 109.148C180.708 109.516 180.608 109.948 180.608 110.444C180.608 110.948 180.708 111.388 180.908 111.764C181.108 112.132 181.376 112.416 181.712 112.616C182.048 112.808 182.42 112.904 182.828 112.904C183.236 112.904 183.608 112.808 183.944 112.616C184.288 112.416 184.56 112.132 184.76 111.764C184.96 111.388 185.06 110.952 185.06 110.456ZM193.842 107.18V113.756H192.75V112.784C192.542 113.12 192.25 113.384 191.874 113.576C191.506 113.76 191.098 113.852 190.65 113.852C190.138 113.852 189.678 113.748 189.27 113.54C188.862 113.324 188.538 113.004 188.298 112.58C188.066 112.156 187.95 111.64 187.95 111.032V107.18H189.03V110.888C189.03 111.536 189.194 112.036 189.522 112.388C189.85 112.732 190.298 112.904 190.866 112.904C191.45 112.904 191.91 112.724 192.246 112.364C192.582 112.004 192.75 111.48 192.75 110.792V107.18H193.842ZM196.777 108.248C196.969 107.872 197.241 107.58 197.593 107.372C197.953 107.164 198.389 107.06 198.901 107.06V108.188H198.613C197.389 108.188 196.777 108.852 196.777 110.18V113.756H195.685V107.18H196.777V108.248ZM199.754 110.444C199.754 109.772 199.89 109.184 200.162 108.68C200.434 108.168 200.806 107.772 201.278 107.492C201.758 107.212 202.29 107.072 202.874 107.072C203.45 107.072 203.95 107.196 204.374 107.444C204.798 107.692 205.114 108.004 205.322 108.38V107.18H206.426V113.756H205.322V112.532C205.106 112.916 204.782 113.236 204.35 113.492C203.926 113.74 203.43 113.864 202.862 113.864C202.278 113.864 201.75 113.72 201.278 113.432C200.806 113.144 200.434 112.74 200.162 112.22C199.89 111.7 199.754 111.108 199.754 110.444ZM205.322 110.456C205.322 109.96 205.222 109.528 205.022 109.16C204.822 108.792 204.55 108.512 204.206 108.32C203.87 108.12 203.498 108.02 203.09 108.02C202.682 108.02 202.31 108.116 201.974 108.308C201.638 108.5 201.37 108.78 201.17 109.148C200.97 109.516 200.87 109.948 200.87 110.444C200.87 110.948 200.97 111.388 201.17 111.764C201.37 112.132 201.638 112.416 201.974 112.616C202.31 112.808 202.682 112.904 203.09 112.904C203.498 112.904 203.87 112.808 204.206 112.616C204.55 112.416 204.822 112.132 205.022 111.764C205.222 111.388 205.322 110.952 205.322 110.456ZM211.475 107.06C212.275 107.06 212.923 107.304 213.419 107.792C213.915 108.272 214.163 108.968 214.163 109.88V113.756H213.083V110.036C213.083 109.38 212.919 108.88 212.591 108.536C212.263 108.184 211.815 108.008 211.247 108.008C210.671 108.008 210.211 108.188 209.867 108.548C209.531 108.908 209.363 109.432 209.363 110.12V113.756H208.271V107.18H209.363V108.116C209.579 107.78 209.871 107.52 210.239 107.336C210.615 107.152 211.027 107.06 211.475 107.06ZM217.279 108.08V111.956C217.279 112.276 217.347 112.504 217.483 112.64C217.619 112.768 217.855 112.832 218.191 112.832H218.995V113.756H218.011C217.403 113.756 216.947 113.616 216.643 113.336C216.339 113.056 216.187 112.596 216.187 111.956V108.08H215.335V107.18H216.187V105.524H217.279V107.18H218.995V108.08H217.279ZM222.646 113.864C222.142 113.864 221.69 113.78 221.29 113.612C220.89 113.436 220.574 113.196 220.342 112.892C220.11 112.58 219.982 112.224 219.958 111.824H221.086C221.118 112.152 221.27 112.42 221.542 112.628C221.822 112.836 222.186 112.94 222.634 112.94C223.05 112.94 223.378 112.848 223.618 112.664C223.858 112.48 223.978 112.248 223.978 111.968C223.978 111.68 223.85 111.468 223.594 111.332C223.338 111.188 222.942 111.048 222.406 110.912C221.918 110.784 221.518 110.656 221.206 110.528C220.902 110.392 220.638 110.196 220.414 109.94C220.198 109.676 220.09 109.332 220.09 108.908C220.09 108.572 220.19 108.264 220.39 107.984C220.59 107.704 220.874 107.484 221.242 107.324C221.61 107.156 222.03 107.072 222.502 107.072C223.23 107.072 223.818 107.256 224.266 107.624C224.714 107.992 224.954 108.496 224.986 109.136H223.894C223.87 108.792 223.73 108.516 223.474 108.308C223.226 108.1 222.89 107.996 222.466 107.996C222.074 107.996 221.762 108.08 221.53 108.248C221.298 108.416 221.182 108.636 221.182 108.908C221.182 109.124 221.25 109.304 221.386 109.448C221.53 109.584 221.706 109.696 221.914 109.784C222.13 109.864 222.426 109.956 222.802 110.06C223.274 110.188 223.658 110.316 223.954 110.444C224.25 110.564 224.502 110.748 224.71 110.996C224.926 111.244 225.038 111.568 225.046 111.968C225.046 112.328 224.946 112.652 224.746 112.94C224.546 113.228 224.262 113.456 223.894 113.624C223.534 113.784 223.118 113.864 222.646 113.864ZM238.547 107.18L236.495 113.756H235.367L233.783 108.536L232.199 113.756H231.071L229.007 107.18H230.123L231.635 112.7L233.267 107.18H234.383L235.979 112.712L237.467 107.18H238.547ZM245.631 110.216C245.631 110.424 245.619 110.644 245.595 110.876H240.339C240.379 111.524 240.599 112.032 240.999 112.4C241.407 112.76 241.899 112.94 242.475 112.94C242.947 112.94 243.339 112.832 243.651 112.616C243.971 112.392 244.195 112.096 244.323 111.728H245.499C245.323 112.36 244.971 112.876 244.443 113.276C243.915 113.668 243.259 113.864 242.475 113.864C241.851 113.864 241.291 113.724 240.795 113.444C240.307 113.164 239.923 112.768 239.643 112.256C239.363 111.736 239.223 111.136 239.223 110.456C239.223 109.776 239.359 109.18 239.631 108.668C239.903 108.156 240.283 107.764 240.771 107.492C241.267 107.212 241.835 107.072 242.475 107.072C243.099 107.072 243.651 107.208 244.131 107.48C244.611 107.752 244.979 108.128 245.235 108.608C245.499 109.08 245.631 109.616 245.631 110.216ZM244.503 109.988C244.503 109.572 244.411 109.216 244.227 108.92C244.043 108.616 243.791 108.388 243.471 108.236C243.159 108.076 242.811 107.996 242.427 107.996C241.875 107.996 241.403 108.172 241.011 108.524C240.627 108.876 240.407 109.364 240.351 109.988H244.503ZM248.164 108.248C248.356 107.872 248.628 107.58 248.98 107.372C249.34 107.164 249.776 107.06 250.288 107.06V108.188H250C248.776 108.188 248.164 108.852 248.164 110.18V113.756H247.072V107.18H248.164V108.248ZM257.549 110.216C257.549 110.424 257.537 110.644 257.513 110.876H252.257C252.297 111.524 252.517 112.032 252.917 112.4C253.325 112.76 253.817 112.94 254.393 112.94C254.865 112.94 255.257 112.832 255.569 112.616C255.889 112.392 256.113 112.096 256.241 111.728H257.417C257.241 112.36 256.889 112.876 256.361 113.276C255.833 113.668 255.177 113.864 254.393 113.864C253.769 113.864 253.209 113.724 252.713 113.444C252.225 113.164 251.841 112.768 251.561 112.256C251.281 111.736 251.141 111.136 251.141 110.456C251.141 109.776 251.277 109.18 251.549 108.668C251.821 108.156 252.201 107.764 252.689 107.492C253.185 107.212 253.753 107.072 254.393 107.072C255.017 107.072 255.569 107.208 256.049 107.48C256.529 107.752 256.897 108.128 257.153 108.608C257.417 109.08 257.549 109.616 257.549 110.216ZM256.421 109.988C256.421 109.572 256.329 109.216 256.145 108.92C255.961 108.616 255.709 108.388 255.389 108.236C255.077 108.076 254.729 107.996 254.345 107.996C253.793 107.996 253.321 108.172 252.929 108.524C252.545 108.876 252.325 109.364 252.269 109.988H256.421ZM160.018 126.08H158.638V131.756H157.546V126.08H156.694V125.18H157.546V124.712C157.546 123.976 157.734 123.44 158.11 123.104C158.494 122.76 159.106 122.588 159.946 122.588V123.5C159.466 123.5 159.126 123.596 158.926 123.788C158.734 123.972 158.638 124.28 158.638 124.712V125.18H160.018V126.08ZM167.123 125.18V131.756H166.031V130.784C165.823 131.12 165.531 131.384 165.155 131.576C164.787 131.76 164.379 131.852 163.931 131.852C163.419 131.852 162.959 131.748 162.551 131.54C162.143 131.324 161.819 131.004 161.579 130.58C161.347 130.156 161.231 129.64 161.231 129.032V125.18H162.311V128.888C162.311 129.536 162.475 130.036 162.803 130.388C163.131 130.732 163.579 130.904 164.147 130.904C164.731 130.904 165.191 130.724 165.527 130.364C165.863 130.004 166.031 129.48 166.031 128.792V125.18H167.123ZM172.171 125.06C172.971 125.06 173.619 125.304 174.115 125.792C174.611 126.272 174.859 126.968 174.859 127.88V131.756H173.779V128.036C173.779 127.38 173.615 126.88 173.287 126.536C172.959 126.184 172.511 126.008 171.943 126.008C171.367 126.008 170.907 126.188 170.563 126.548C170.227 126.908 170.059 127.432 170.059 128.12V131.756H168.967V125.18H170.059V126.116C170.275 125.78 170.567 125.52 170.935 125.336C171.311 125.152 171.723 125.06 172.171 125.06Z" fill="#0A0A0A"/>
</g>
<g filter="url(#filter4_ddd_1940_17037)">
<rect width="128" height="128" transform="translate(145.751 140.743)" fill="#FFBDF2"/>
<path d="M158.434 156.045V164.409H157.342V156.045H158.434ZM161.627 158.733V162.609C161.627 162.929 161.695 163.157 161.831 163.293C161.967 163.421 162.203 163.485 162.539 163.485H163.343V164.409H162.359C161.751 164.409 161.295 164.269 160.991 163.989C160.687 163.709 160.535 163.249 160.535 162.609V158.733H159.683V157.833H160.535V156.177H161.627V157.833H163.343V158.733H161.627ZM176.625 157.833L174.573 164.409H173.445L171.861 159.189L170.277 164.409H169.149L167.085 157.833H168.201L169.713 163.353L171.345 157.833H172.461L174.057 163.365L175.545 157.833H176.625ZM177.301 161.097C177.301 160.425 177.437 159.837 177.709 159.333C177.981 158.821 178.353 158.425 178.825 158.145C179.305 157.865 179.837 157.725 180.421 157.725C180.997 157.725 181.497 157.849 181.921 158.097C182.345 158.345 182.661 158.657 182.869 159.033V157.833H183.973V164.409H182.869V163.185C182.653 163.569 182.329 163.889 181.897 164.145C181.473 164.393 180.977 164.517 180.409 164.517C179.825 164.517 179.297 164.373 178.825 164.085C178.353 163.797 177.981 163.393 177.709 162.873C177.437 162.353 177.301 161.761 177.301 161.097ZM182.869 161.109C182.869 160.613 182.769 160.181 182.569 159.813C182.369 159.445 182.097 159.165 181.753 158.973C181.417 158.773 181.045 158.673 180.637 158.673C180.229 158.673 179.857 158.769 179.521 158.961C179.185 159.153 178.917 159.433 178.717 159.801C178.517 160.169 178.417 160.601 178.417 161.097C178.417 161.601 178.517 162.041 178.717 162.417C178.917 162.785 179.185 163.069 179.521 163.269C179.857 163.461 180.229 163.557 180.637 163.557C181.045 163.557 181.417 163.461 181.753 163.269C182.097 163.069 182.369 162.785 182.569 162.417C182.769 162.041 182.869 161.605 182.869 161.109ZM188.146 164.517C187.642 164.517 187.19 164.433 186.79 164.265C186.39 164.089 186.074 163.849 185.842 163.545C185.61 163.233 185.482 162.877 185.458 162.477H186.586C186.618 162.805 186.77 163.073 187.042 163.281C187.322 163.489 187.686 163.593 188.134 163.593C188.55 163.593 188.878 163.501 189.118 163.317C189.358 163.133 189.478 162.901 189.478 162.621C189.478 162.333 189.35 162.121 189.094 161.985C188.838 161.841 188.442 161.701 187.906 161.565C187.418 161.437 187.018 161.309 186.706 161.181C186.402 161.045 186.138 160.849 185.914 160.593C185.698 160.329 185.59 159.985 185.59 159.561C185.59 159.225 185.69 158.917 185.89 158.637C186.09 158.357 186.374 158.137 186.742 157.977C187.11 157.809 187.53 157.725 188.002 157.725C188.73 157.725 189.318 157.909 189.766 158.277C190.214 158.645 190.454 159.149 190.486 159.789H189.394C189.37 159.445 189.23 159.169 188.974 158.961C188.726 158.753 188.39 158.649 187.966 158.649C187.574 158.649 187.262 158.733 187.03 158.901C186.798 159.069 186.682 159.289 186.682 159.561C186.682 159.777 186.75 159.957 186.886 160.101C187.03 160.237 187.206 160.349 187.414 160.437C187.63 160.517 187.926 160.609 188.302 160.713C188.774 160.841 189.158 160.969 189.454 161.097C189.75 161.217 190.002 161.401 190.21 161.649C190.426 161.897 190.538 162.221 190.546 162.621C190.546 162.981 190.446 163.305 190.246 163.593C190.046 163.881 189.762 164.109 189.394 164.277C189.034 164.437 188.618 164.517 188.146 164.517ZM197.963 158.733H196.583V164.409H195.491V158.733H194.639V157.833H195.491V157.365C195.491 156.629 195.679 156.093 196.055 155.757C196.439 155.413 197.051 155.241 197.891 155.241V156.153C197.411 156.153 197.071 156.249 196.871 156.441C196.679 156.625 196.583 156.933 196.583 157.365V157.833H197.963V158.733ZM205.068 157.833V164.409H203.976V163.437C203.768 163.773 203.476 164.037 203.1 164.229C202.732 164.413 202.324 164.505 201.876 164.505C201.364 164.505 200.904 164.401 200.496 164.193C200.088 163.977 199.764 163.657 199.524 163.233C199.292 162.809 199.176 162.293 199.176 161.685V157.833H200.256V161.541C200.256 162.189 200.42 162.689 200.748 163.041C201.076 163.385 201.524 163.557 202.092 163.557C202.676 163.557 203.136 163.377 203.472 163.017C203.808 162.657 203.976 162.133 203.976 161.445V157.833H205.068ZM210.116 157.713C210.916 157.713 211.564 157.957 212.06 158.445C212.556 158.925 212.804 159.621 212.804 160.533V164.409H211.724V160.689C211.724 160.033 211.56 159.533 211.232 159.189C210.904 158.837 210.456 158.661 209.888 158.661C209.312 158.661 208.852 158.841 208.508 159.201C208.172 159.561 208.004 160.085 208.004 160.773V164.409H206.912V157.833H208.004V158.769C208.22 158.433 208.512 158.173 208.88 157.989C209.256 157.805 209.668 157.713 210.116 157.713ZM220.595 166.641C219.827 165.889 219.227 164.933 218.795 163.773C218.371 162.613 218.159 161.361 218.159 160.017C218.159 158.641 218.383 157.357 218.831 156.165C219.287 154.965 219.935 153.977 220.775 153.201H221.915V153.309C221.019 154.149 220.343 155.161 219.887 156.345C219.439 157.521 219.215 158.745 219.215 160.017C219.215 161.257 219.427 162.441 219.851 163.569C220.283 164.697 220.911 165.685 221.735 166.533V166.641H220.595ZM222.768 156.729V155.733H225.024V164.409H223.92V156.729H222.768ZM226.9 159.981C226.9 158.605 227.124 157.533 227.572 156.765C228.02 155.989 228.804 155.601 229.924 155.601C231.036 155.601 231.816 155.989 232.264 156.765C232.712 157.533 232.936 158.605 232.936 159.981C232.936 161.381 232.712 162.469 232.264 163.245C231.816 164.021 231.036 164.409 229.924 164.409C228.804 164.409 228.02 164.021 227.572 163.245C227.124 162.469 226.9 161.381 226.9 159.981ZM231.856 159.981C231.856 159.285 231.808 158.697 231.712 158.217C231.624 157.729 231.436 157.337 231.148 157.041C230.868 156.745 230.46 156.597 229.924 156.597C229.38 156.597 228.964 156.745 228.676 157.041C228.396 157.337 228.208 157.729 228.112 158.217C228.024 158.697 227.98 159.285 227.98 159.981C227.98 160.701 228.024 161.305 228.112 161.793C228.208 162.281 228.396 162.673 228.676 162.969C228.964 163.265 229.38 163.413 229.924 163.413C230.46 163.413 230.868 163.265 231.148 162.969C231.436 162.673 231.624 162.281 231.712 161.793C231.808 161.305 231.856 160.701 231.856 159.981ZM234.267 166.641V166.533C235.091 165.685 235.715 164.697 236.139 163.569C236.571 162.441 236.787 161.257 236.787 160.017C236.787 158.745 236.559 157.521 236.103 156.345C235.655 155.161 234.983 154.149 234.087 153.309V153.201H235.227C236.067 153.977 236.711 154.965 237.159 156.165C237.615 157.357 237.843 158.641 237.843 160.017C237.843 161.361 237.627 162.613 237.195 163.773C236.771 164.933 236.175 165.889 235.407 166.641H234.267Z" fill="#0A0A0A"/>
</g>
<path d="M10.7913 405.998C10.7913 405.722 10.5674 405.498 10.2913 405.498C10.0151 405.498 9.79126 405.722 9.79126 405.998H10.7913ZM140.813 467.552C141.008 467.748 141.325 467.748 141.52 467.552L144.702 464.37C144.897 464.175 144.897 463.858 144.702 463.663C144.507 463.468 144.19 463.468 143.995 463.663L141.166 466.492L138.338 463.663C138.143 463.468 137.826 463.468 137.631 463.663C137.436 463.858 137.436 464.175 137.631 464.37L140.813 467.552ZM141.166 467.199H141.666H141.166ZM9.79126 405.998V431.723H10.7913V405.998H9.79126ZM34.2913 456.223H129.691V455.223H34.2913V456.223ZM129.691 456.223C135.753 456.223 140.666 461.137 140.666 467.199H141.666C141.666 460.585 136.305 455.223 129.691 455.223V456.223ZM9.79126 431.723C9.79126 445.254 20.7603 456.223 34.2913 456.223V455.223C21.3126 455.223 10.7913 444.702 10.7913 431.723H9.79126Z" fill="#757575"/>
<path d="M272.543 406.376C272.543 406.1 272.32 405.876 272.043 405.876C271.767 405.876 271.543 406.1 271.543 406.376H272.543ZM140.815 467.931C141.01 468.126 141.327 468.126 141.522 467.931L144.704 464.749C144.899 464.553 144.899 464.237 144.704 464.042C144.508 463.846 144.192 463.846 143.997 464.042L141.168 466.87L138.34 464.042C138.145 463.846 137.828 463.846 137.633 464.042C137.437 464.237 137.437 464.553 137.633 464.749L140.815 467.931ZM141.168 467.577H141.668H141.168ZM271.543 406.376V432.102H272.543V406.376H271.543ZM248.043 455.602H152.643V456.602H248.043V455.602ZM152.643 455.602C146.03 455.602 140.668 460.964 140.668 467.577H141.668C141.668 461.516 146.582 456.602 152.643 456.602V455.602ZM271.543 432.102C271.543 445.081 261.022 455.602 248.043 455.602V456.602C261.574 456.602 272.543 445.633 272.543 432.102H271.543Z" fill="#757575"/>
<path d="M118.643 491.516C118.643 492.081 118.51 492.614 118.243 493.116C117.977 493.617 117.55 494.028 116.963 494.348C116.377 494.657 115.625 494.812 114.707 494.812H112.691V499.324H110.867V488.204H114.707C115.561 488.204 116.281 488.353 116.867 488.652C117.465 488.94 117.907 489.334 118.195 489.836C118.494 490.337 118.643 490.897 118.643 491.516ZM114.707 493.324C115.401 493.324 115.918 493.169 116.259 492.86C116.601 492.54 116.771 492.092 116.771 491.516C116.771 490.3 116.083 489.692 114.707 489.692H112.691V493.324H114.707ZM124.367 499.468C123.535 499.468 122.783 499.281 122.111 498.908C121.439 498.524 120.911 497.99 120.527 497.308C120.143 496.614 119.951 495.814 119.951 494.908C119.951 494.012 120.148 493.217 120.543 492.524C120.938 491.83 121.476 491.297 122.159 490.924C122.842 490.55 123.604 490.364 124.447 490.364C125.29 490.364 126.052 490.55 126.735 490.924C127.418 491.297 127.956 491.83 128.351 492.524C128.746 493.217 128.943 494.012 128.943 494.908C128.943 495.804 128.74 496.598 128.335 497.292C127.93 497.985 127.375 498.524 126.671 498.908C125.978 499.281 125.21 499.468 124.367 499.468ZM124.367 497.884C124.836 497.884 125.274 497.772 125.679 497.548C126.095 497.324 126.431 496.988 126.687 496.54C126.943 496.092 127.071 495.548 127.071 494.908C127.071 494.268 126.948 493.729 126.703 493.292C126.458 492.844 126.132 492.508 125.727 492.284C125.322 492.06 124.884 491.948 124.415 491.948C123.946 491.948 123.508 492.06 123.103 492.284C122.708 492.508 122.394 492.844 122.159 493.292C121.924 493.729 121.807 494.268 121.807 494.908C121.807 495.857 122.047 496.593 122.527 497.116C123.018 497.628 123.631 497.884 124.367 497.884ZM134.106 499.468C133.413 499.468 132.789 499.345 132.234 499.1C131.69 498.844 131.258 498.502 130.938 498.076C130.618 497.638 130.448 497.153 130.426 496.62H132.314C132.346 496.993 132.522 497.308 132.842 497.564C133.173 497.809 133.584 497.932 134.074 497.932C134.586 497.932 134.981 497.836 135.258 497.644C135.546 497.441 135.69 497.185 135.69 496.876C135.69 496.545 135.53 496.3 135.21 496.14C134.901 495.98 134.405 495.804 133.722 495.612C133.061 495.43 132.522 495.254 132.106 495.084C131.69 494.913 131.328 494.652 131.018 494.3C130.72 493.948 130.57 493.484 130.57 492.908C130.57 492.438 130.709 492.012 130.986 491.628C131.264 491.233 131.658 490.924 132.17 490.7C132.693 490.476 133.29 490.364 133.962 490.364C134.965 490.364 135.77 490.62 136.378 491.132C136.997 491.633 137.328 492.321 137.37 493.196H135.546C135.514 492.801 135.354 492.486 135.066 492.252C134.778 492.017 134.389 491.9 133.898 491.9C133.418 491.9 133.05 491.99 132.794 492.172C132.538 492.353 132.41 492.593 132.41 492.892C132.41 493.126 132.496 493.324 132.666 493.484C132.837 493.644 133.045 493.772 133.29 493.868C133.536 493.953 133.898 494.065 134.378 494.204C135.018 494.374 135.541 494.55 135.946 494.732C136.362 494.902 136.72 495.158 137.018 495.5C137.317 495.841 137.472 496.294 137.482 496.86C137.482 497.361 137.344 497.809 137.066 498.204C136.789 498.598 136.394 498.908 135.882 499.132C135.381 499.356 134.789 499.468 134.106 499.468ZM140.541 489.34C140.21 489.34 139.933 489.228 139.709 489.004C139.485 488.78 139.373 488.502 139.373 488.172C139.373 487.841 139.485 487.564 139.709 487.34C139.933 487.116 140.21 487.004 140.541 487.004C140.861 487.004 141.133 487.116 141.357 487.34C141.581 487.564 141.693 487.841 141.693 488.172C141.693 488.502 141.581 488.78 141.357 489.004C141.133 489.228 140.861 489.34 140.541 489.34ZM141.437 490.508V499.324H139.613V490.508H141.437ZM146.12 491.996V496.876C146.12 497.206 146.195 497.446 146.344 497.596C146.504 497.734 146.771 497.804 147.144 497.804H148.264V499.324H146.824C146.003 499.324 145.373 499.132 144.936 498.748C144.499 498.364 144.28 497.74 144.28 496.876V491.996H143.24V490.508H144.28V488.316H146.12V490.508H148.264V491.996H146.12ZM151.033 489.34C150.702 489.34 150.425 489.228 150.201 489.004C149.977 488.78 149.865 488.502 149.865 488.172C149.865 487.841 149.977 487.564 150.201 487.34C150.425 487.116 150.702 487.004 151.033 487.004C151.353 487.004 151.625 487.116 151.849 487.34C152.073 487.564 152.185 487.841 152.185 488.172C152.185 488.502 152.073 488.78 151.849 489.004C151.625 489.228 151.353 489.34 151.033 489.34ZM151.929 490.508V499.324H150.105V490.508H151.929ZM157.892 497.692L160.388 490.508H162.324L158.964 499.324H156.788L153.444 490.508H155.396L157.892 497.692ZM171.942 494.7C171.942 495.03 171.921 495.329 171.878 495.596H165.142C165.196 496.3 165.457 496.865 165.926 497.292C166.396 497.718 166.972 497.932 167.654 497.932C168.636 497.932 169.329 497.521 169.734 496.7H171.702C171.436 497.51 170.95 498.177 170.246 498.7C169.553 499.212 168.689 499.468 167.654 499.468C166.812 499.468 166.054 499.281 165.382 498.908C164.721 498.524 164.198 497.99 163.814 497.308C163.441 496.614 163.254 495.814 163.254 494.908C163.254 494.001 163.436 493.206 163.798 492.524C164.172 491.83 164.689 491.297 165.35 490.924C166.022 490.55 166.79 490.364 167.654 490.364C168.486 490.364 169.228 490.545 169.878 490.908C170.529 491.27 171.036 491.782 171.398 492.444C171.761 493.094 171.942 493.846 171.942 494.7ZM170.038 494.124C170.028 493.452 169.788 492.913 169.318 492.508C168.849 492.102 168.268 491.9 167.574 491.9C166.945 491.9 166.406 492.102 165.958 492.508C165.51 492.902 165.244 493.441 165.158 494.124H170.038Z" fill="#1E1E1E"/>
<defs>
<filter id="filter0_ddd_1940_17037" x="-0.00012207" y="52" width="148" height="148" filterUnits="userSpaceOnUse" color-interpolation-filters="sRGB">
<feFlood flood-opacity="0" result="BackgroundImageFix"/>
<feColorMatrix in="SourceAlpha" type="matrix" values="0 0 0 0 0 0 0 0 0 0 0 0 0 0 0 0 0 0 127 0" result="hardAlpha"/>
<feOffset dy="2.5"/>
<feGaussianBlur stdDeviation="1"/>
<feColorMatrix type="matrix" values="0 0 0 0 0 0 0 0 0 0 0 0 0 0 0 0 0 0 0.02 0"/>
<feBlend mode="normal" in2="BackgroundImageFix" result="effect1_dropShadow_1940_17037"/>
<feColorMatrix in="SourceAlpha" type="matrix" values="0 0 0 0 0 0 0 0 0 0 0 0 0 0 0 0 0 0 127 0" result="hardAlpha"/>
<feOffset dy="3"/>
<feGaussianBlur stdDeviation="2.5"/>
<feColorMatrix type="matrix" values="0 0 0 0 0 0 0 0 0 0 0 0 0 0 0 0 0 0 0.04 0"/>
<feBlend mode="normal" in2="effect1_dropShadow_1940_17037" result="effect2_dropShadow_1940_17037"/>
<feColorMatrix in="SourceAlpha" type="matrix" values="0 0 0 0 0 0 0 0 0 0 0 0 0 0 0 0 0 0 127 0" result="hardAlpha"/>
<feOffset dy="8"/>
<feGaussianBlur stdDeviation="5"/>
<feColorMatrix type="matrix" values="0 0 0 0 0 0 0 0 0 0 0 0 0 0 0 0 0 0 0.08 0"/>
<feBlend mode="normal" in2="effect2_dropShadow_1940_17037" result="effect3_dropShadow_1940_17037"/>
<feBlend mode="normal" in="SourceGraphic" in2="effect3_dropShadow_1940_17037" result="shape"/>
</filter>
<filter id="filter1_ddd_1940_17037" x="-0.000213623" y="119.354" width="148" height="148" filterUnits="userSpaceOnUse" color-interpolation-filters="sRGB">
<feFlood flood-opacity="0" result="BackgroundImageFix"/>
<feColorMatrix in="SourceAlpha" type="matrix" values="0 0 0 0 0 0 0 0 0 0 0 0 0 0 0 0 0 0 127 0" result="hardAlpha"/>
<feOffset dy="2.5"/>
<feGaussianBlur stdDeviation="1"/>
<feColorMatrix type="matrix" values="0 0 0 0 0 0 0 0 0 0 0 0 0 0 0 0 0 0 0.02 0"/>
<feBlend mode="normal" in2="BackgroundImageFix" result="effect1_dropShadow_1940_17037"/>
<feColorMatrix in="SourceAlpha" type="matrix" values="0 0 0 0 0 0 0 0 0 0 0 0 0 0 0 0 0 0 127 0" result="hardAlpha"/>
<feOffset dy="3"/>
<feGaussianBlur stdDeviation="2.5"/>
<feColorMatrix type="matrix" values="0 0 0 0 0 0 0 0 0 0 0 0 0 0 0 0 0 0 0.04 0"/>
<feBlend mode="normal" in2="effect1_dropShadow_1940_17037" result="effect2_dropShadow_1940_17037"/>
<feColorMatrix in="SourceAlpha" type="matrix" values="0 0 0 0 0 0 0 0 0 0 0 0 0 0 0 0 0 0 127 0" result="hardAlpha"/>
<feOffset dy="8"/>
<feGaussianBlur stdDeviation="5"/>
<feColorMatrix type="matrix" values="0 0 0 0 0 0 0 0 0 0 0 0 0 0 0 0 0 0 0.08 0"/>
<feBlend mode="normal" in2="effect2_dropShadow_1940_17037" result="effect3_dropShadow_1940_17037"/>
<feBlend mode="normal" in="SourceGraphic" in2="effect3_dropShadow_1940_17037" result="shape"/>
</filter>
<filter id="filter2_ddd_1940_17037" x="-0.000213623" y="202" width="148" height="148" filterUnits="userSpaceOnUse" color-interpolation-filters="sRGB">
<feFlood flood-opacity="0" result="BackgroundImageFix"/>
<feColorMatrix in="SourceAlpha" type="matrix" values="0 0 0 0 0 0 0 0 0 0 0 0 0 0 0 0 0 0 127 0" result="hardAlpha"/>
<feOffset dy="2.5"/>
<feGaussianBlur stdDeviation="1"/>
<feColorMatrix type="matrix" values="0 0 0 0 0 0 0 0 0 0 0 0 0 0 0 0 0 0 0.02 0"/>
<feBlend mode="normal" in2="BackgroundImageFix" result="effect1_dropShadow_1940_17037"/>
<feColorMatrix in="SourceAlpha" type="matrix" values="0 0 0 0 0 0 0 0 0 0 0 0 0 0 0 0 0 0 127 0" result="hardAlpha"/>
<feOffset dy="3"/>
<feGaussianBlur stdDeviation="2.5"/>
<feColorMatrix type="matrix" values="0 0 0 0 0 0 0 0 0 0 0 0 0 0 0 0 0 0 0.04 0"/>
<feBlend mode="normal" in2="effect1_dropShadow_1940_17037" result="effect2_dropShadow_1940_17037"/>
<feColorMatrix in="SourceAlpha" type="matrix" values="0 0 0 0 0 0 0 0 0 0 0 0 0 0 0 0 0 0 127 0" result="hardAlpha"/>
<feOffset dy="8"/>
<feGaussianBlur stdDeviation="5"/>
<feColorMatrix type="matrix" values="0 0 0 0 0 0 0 0 0 0 0 0 0 0 0 0 0 0 0.08 0"/>
<feBlend mode="normal" in2="effect2_dropShadow_1940_17037" result="effect3_dropShadow_1940_17037"/>
<feBlend mode="normal" in="SourceGraphic" in2="effect3_dropShadow_1940_17037" result="shape"/>
</filter>
<filter id="filter3_ddd_1940_17037" x="135.75" y="52.0898" width="148" height="148" filterUnits="userSpaceOnUse" color-interpolation-filters="sRGB">
<feFlood flood-opacity="0" result="BackgroundImageFix"/>
<feColorMatrix in="SourceAlpha" type="matrix" values="0 0 0 0 0 0 0 0 0 0 0 0 0 0 0 0 0 0 127 0" result="hardAlpha"/>
<feOffset dy="2.5"/>
<feGaussianBlur stdDeviation="1"/>
<feColorMatrix type="matrix" values="0 0 0 0 0 0 0 0 0 0 0 0 0 0 0 0 0 0 0.02 0"/>
<feBlend mode="normal" in2="BackgroundImageFix" result="effect1_dropShadow_1940_17037"/>
<feColorMatrix in="SourceAlpha" type="matrix" values="0 0 0 0 0 0 0 0 0 0 0 0 0 0 0 0 0 0 127 0" result="hardAlpha"/>
<feOffset dy="3"/>
<feGaussianBlur stdDeviation="2.5"/>
<feColorMatrix type="matrix" values="0 0 0 0 0 0 0 0 0 0 0 0 0 0 0 0 0 0 0.04 0"/>
<feBlend mode="normal" in2="effect1_dropShadow_1940_17037" result="effect2_dropShadow_1940_17037"/>
<feColorMatrix in="SourceAlpha" type="matrix" values="0 0 0 0 0 0 0 0 0 0 0 0 0 0 0 0 0 0 127 0" result="hardAlpha"/>
<feOffset dy="8"/>
<feGaussianBlur stdDeviation="5"/>
<feColorMatrix type="matrix" values="0 0 0 0 0 0 0 0 0 0 0 0 0 0 0 0 0 0 0.08 0"/>
<feBlend mode="normal" in2="effect2_dropShadow_1940_17037" result="effect3_dropShadow_1940_17037"/>
<feBlend mode="normal" in="SourceGraphic" in2="effect3_dropShadow_1940_17037" result="shape"/>
</filter>
<filter id="filter4_ddd_1940_17037" x="135.75" y="138.742" width="148" height="148" filterUnits="userSpaceOnUse" color-interpolation-filters="sRGB">
<feFlood flood-opacity="0" result="BackgroundImageFix"/>
<feColorMatrix in="SourceAlpha" type="matrix" values="0 0 0 0 0 0 0 0 0 0 0 0 0 0 0 0 0 0 127 0" result="hardAlpha"/>
<feOffset dy="2.5"/>
<feGaussianBlur stdDeviation="1"/>
<feColorMatrix type="matrix" values="0 0 0 0 0 0 0 0 0 0 0 0 0 0 0 0 0 0 0.02 0"/>
<feBlend mode="normal" in2="BackgroundImageFix" result="effect1_dropShadow_1940_17037"/>
<feColorMatrix in="SourceAlpha" type="matrix" values="0 0 0 0 0 0 0 0 0 0 0 0 0 0 0 0 0 0 127 0" result="hardAlpha"/>
<feOffset dy="3"/>
<feGaussianBlur stdDeviation="2.5"/>
<feColorMatrix type="matrix" values="0 0 0 0 0 0 0 0 0 0 0 0 0 0 0 0 0 0 0.04 0"/>
<feBlend mode="normal" in2="effect1_dropShadow_1940_17037" result="effect2_dropShadow_1940_17037"/>
<feColorMatrix in="SourceAlpha" type="matrix" values="0 0 0 0 0 0 0 0 0 0 0 0 0 0 0 0 0 0 127 0" result="hardAlpha"/>
<feOffset dy="8"/>
<feGaussianBlur stdDeviation="5"/>
<feColorMatrix type="matrix" values="0 0 0 0 0 0 0 0 0 0 0 0 0 0 0 0 0 0 0.08 0"/>
<feBlend mode="normal" in2="effect2_dropShadow_1940_17037" result="effect3_dropShadow_1940_17037"/>
<feBlend mode="normal" in="SourceGraphic" in2="effect3_dropShadow_1940_17037" result="shape"/>
</filter>
</defs>
</svg>
