<svg width="199" height="629" viewBox="0 0 199 629" fill="none" xmlns="http://www.w3.org/2000/svg">
<path d="M105.057 6.88098V18.001H103.233V10.385L99.8413 18.001H98.5773L95.1693 10.385V18.001H93.3453V6.88098H95.3133L99.2173 15.601L103.105 6.88098H105.057ZM111.439 18.145C110.607 18.145 109.855 17.9583 109.183 17.585C108.511 17.201 107.983 16.6676 107.599 15.985C107.215 15.2916 107.023 14.4916 107.023 13.585C107.023 12.689 107.22 11.8943 107.615 11.201C108.009 10.5076 108.548 9.97431 109.231 9.60098C109.913 9.22764 110.676 9.04098 111.519 9.04098C112.361 9.04098 113.124 9.22764 113.807 9.60098C114.489 9.97431 115.028 10.5076 115.423 11.201C115.817 11.8943 116.015 12.689 116.015 13.585C116.015 14.481 115.812 15.2756 115.407 15.969C115.001 16.6623 114.447 17.201 113.743 17.585C113.049 17.9583 112.281 18.145 111.439 18.145ZM111.439 16.561C111.908 16.561 112.345 16.449 112.751 16.225C113.167 16.001 113.503 15.665 113.759 15.217C114.015 14.769 114.143 14.225 114.143 13.585C114.143 12.945 114.02 12.4063 113.775 11.969C113.529 11.521 113.204 11.185 112.799 10.961C112.393 10.737 111.956 10.625 111.487 10.625C111.017 10.625 110.58 10.737 110.175 10.961C109.78 11.185 109.465 11.521 109.231 11.969C108.996 12.4063 108.879 12.945 108.879 13.585C108.879 14.5343 109.119 15.2703 109.599 15.793C110.089 16.305 110.703 16.561 111.439 16.561ZM121.802 18.145C120.97 18.145 120.218 17.9583 119.546 17.585C118.874 17.201 118.346 16.6676 117.962 15.985C117.578 15.2916 117.386 14.4916 117.386 13.585C117.386 12.689 117.583 11.8943 117.978 11.201C118.372 10.5076 118.911 9.97431 119.594 9.60098C120.276 9.22764 121.039 9.04098 121.882 9.04098C122.724 9.04098 123.487 9.22764 124.17 9.60098C124.852 9.97431 125.391 10.5076 125.786 11.201C126.18 11.8943 126.378 12.689 126.378 13.585C126.378 14.481 126.175 15.2756 125.77 15.969C125.364 16.6623 124.81 17.201 124.106 17.585C123.412 17.9583 122.644 18.145 121.802 18.145ZM121.802 16.561C122.271 16.561 122.708 16.449 123.114 16.225C123.53 16.001 123.866 15.665 124.122 15.217C124.378 14.769 124.506 14.225 124.506 13.585C124.506 12.945 124.383 12.4063 124.138 11.969C123.892 11.521 123.567 11.185 123.162 10.961C122.756 10.737 122.319 10.625 121.85 10.625C121.38 10.625 120.943 10.737 120.538 10.961C120.143 11.185 119.828 11.521 119.594 11.969C119.359 12.4063 119.242 12.945 119.242 13.585C119.242 14.5343 119.482 15.2703 119.962 15.793C120.452 16.305 121.066 16.561 121.802 16.561ZM127.733 13.553C127.733 12.6676 127.914 11.8836 128.277 11.201C128.65 10.5183 129.152 9.99031 129.781 9.61698C130.421 9.23298 131.13 9.04098 131.909 9.04098C132.485 9.04098 133.05 9.16898 133.605 9.42498C134.17 9.67031 134.618 10.001 134.949 10.417V6.16098H136.789V18.001H134.949V16.673C134.65 17.0996 134.234 17.4516 133.701 17.729C133.178 18.0063 132.576 18.145 131.893 18.145C131.125 18.145 130.421 17.953 129.781 17.569C129.152 17.1743 128.65 16.6303 128.277 15.937C127.914 15.233 127.733 14.4383 127.733 13.553ZM134.949 13.585C134.949 12.977 134.821 12.449 134.565 12.001C134.32 11.553 133.994 11.2116 133.589 10.977C133.184 10.7423 132.746 10.625 132.277 10.625C131.808 10.625 131.37 10.7423 130.965 10.977C130.56 11.201 130.229 11.537 129.973 11.985C129.728 12.4223 129.605 12.945 129.605 13.553C129.605 14.161 129.728 14.6943 129.973 15.153C130.229 15.6116 130.56 15.9636 130.965 16.209C131.381 16.4436 131.818 16.561 132.277 16.561C132.746 16.561 133.184 16.4436 133.589 16.209C133.994 15.9743 134.32 15.633 134.565 15.185C134.821 14.7263 134.949 14.193 134.949 13.585Z" fill="#1E1E1E"/>
<g filter="url(#filter0_ddd_2069_16325)">
<rect width="128" height="128" transform="translate(51.1899 54.001)" fill="#80CAFF"/>
<path d="M62.3726 73.4795C62.3726 72.6635 62.5566 71.9315 62.9246 71.2835C63.2926 70.6275 63.7926 70.1155 64.4246 69.7475C65.0646 69.3795 65.7726 69.1955 66.5486 69.1955C67.4606 69.1955 68.2566 69.4155 68.9366 69.8555C69.6166 70.2955 70.1126 70.9195 70.4246 71.7275H69.1166C68.8846 71.2235 68.5486 70.8355 68.1086 70.5635C67.6766 70.2915 67.1566 70.1555 66.5486 70.1555C65.9646 70.1555 65.4406 70.2915 64.9766 70.5635C64.5126 70.8355 64.1486 71.2235 63.8846 71.7275C63.6206 72.2235 63.4886 72.8075 63.4886 73.4795C63.4886 74.1435 63.6206 74.7275 63.8846 75.2315C64.1486 75.7275 64.5126 76.1115 64.9766 76.3835C65.4406 76.6555 65.9646 76.7915 66.5486 76.7915C67.1566 76.7915 67.6766 76.6595 68.1086 76.3955C68.5486 76.1235 68.8846 75.7355 69.1166 75.2315H70.4246C70.1126 76.0315 69.6166 76.6515 68.9366 77.0915C68.2566 77.5235 67.4606 77.7395 66.5486 77.7395C65.7726 77.7395 65.0646 77.5595 64.4246 77.1995C63.7926 76.8315 63.2926 76.3235 62.9246 75.6755C62.5566 75.0275 62.3726 74.2955 62.3726 73.4795ZM75.3141 70.9715C75.8101 70.9715 76.2581 71.0795 76.6581 71.2955C77.0581 71.5035 77.3701 71.8195 77.5941 72.2435C77.8261 72.6675 77.9421 73.1835 77.9421 73.7915V77.6675H76.8621V73.9475C76.8621 73.2915 76.6981 72.7915 76.3701 72.4475C76.0421 72.0955 75.5941 71.9195 75.0261 71.9195C74.4501 71.9195 73.9901 72.0995 73.6461 72.4595C73.3101 72.8195 73.1421 73.3435 73.1421 74.0315V77.6675H72.0501V68.7875H73.1421V72.0275C73.3581 71.6915 73.6541 71.4315 74.0301 71.2475C74.4141 71.0635 74.8421 70.9715 75.3141 70.9715ZM82.5939 77.7755C81.9779 77.7755 81.4179 77.6355 80.9139 77.3555C80.4179 77.0755 80.0259 76.6795 79.7379 76.1675C79.4579 75.6475 79.3179 75.0475 79.3179 74.3675C79.3179 73.6955 79.4619 73.1035 79.7499 72.5915C80.0459 72.0715 80.4459 71.6755 80.9499 71.4035C81.4539 71.1235 82.0179 70.9835 82.6419 70.9835C83.2659 70.9835 83.8299 71.1235 84.3339 71.4035C84.8379 71.6755 85.2339 72.0675 85.5219 72.5795C85.8179 73.0915 85.9659 73.6875 85.9659 74.3675C85.9659 75.0475 85.8139 75.6475 85.5099 76.1675C85.2139 76.6795 84.8099 77.0755 84.2979 77.3555C83.7859 77.6355 83.2179 77.7755 82.5939 77.7755ZM82.5939 76.8155C82.9859 76.8155 83.3539 76.7235 83.6979 76.5395C84.0419 76.3555 84.3179 76.0795 84.5259 75.7115C84.7419 75.3435 84.8499 74.8955 84.8499 74.3675C84.8499 73.8395 84.7459 73.3915 84.5379 73.0235C84.3299 72.6555 84.0579 72.3835 83.7219 72.2075C83.3859 72.0235 83.0219 71.9315 82.6299 71.9315C82.2299 71.9315 81.8619 72.0235 81.5259 72.2075C81.1979 72.3835 80.9339 72.6555 80.7339 73.0235C80.5339 73.3915 80.4339 73.8395 80.4339 74.3675C80.4339 74.9035 80.5299 75.3555 80.7219 75.7235C80.9219 76.0915 81.1859 76.3675 81.5139 76.5515C81.8419 76.7275 82.2019 76.8155 82.5939 76.8155ZM90.2697 77.7755C89.6537 77.7755 89.0937 77.6355 88.5897 77.3555C88.0937 77.0755 87.7017 76.6795 87.4137 76.1675C87.1337 75.6475 86.9937 75.0475 86.9937 74.3675C86.9937 73.6955 87.1377 73.1035 87.4257 72.5915C87.7217 72.0715 88.1217 71.6755 88.6257 71.4035C89.1297 71.1235 89.6937 70.9835 90.3177 70.9835C90.9417 70.9835 91.5057 71.1235 92.0097 71.4035C92.5137 71.6755 92.9097 72.0675 93.1977 72.5795C93.4937 73.0915 93.6417 73.6875 93.6417 74.3675C93.6417 75.0475 93.4897 75.6475 93.1857 76.1675C92.8897 76.6795 92.4857 77.0755 91.9737 77.3555C91.4617 77.6355 90.8937 77.7755 90.2697 77.7755ZM90.2697 76.8155C90.6617 76.8155 91.0297 76.7235 91.3737 76.5395C91.7177 76.3555 91.9937 76.0795 92.2017 75.7115C92.4177 75.3435 92.5257 74.8955 92.5257 74.3675C92.5257 73.8395 92.4217 73.3915 92.2137 73.0235C92.0057 72.6555 91.7337 72.3835 91.3977 72.2075C91.0617 72.0235 90.6977 71.9315 90.3057 71.9315C89.9057 71.9315 89.5377 72.0235 89.2017 72.2075C88.8737 72.3835 88.6097 72.6555 88.4097 73.0235C88.2097 73.3915 88.1097 73.8395 88.1097 74.3675C88.1097 74.9035 88.2057 75.3555 88.3977 75.7235C88.5977 76.0915 88.8617 76.3675 89.1897 76.5515C89.5177 76.7275 89.8777 76.8155 90.2697 76.8155ZM97.4054 77.7755C96.9014 77.7755 96.4494 77.6915 96.0494 77.5235C95.6494 77.3475 95.3334 77.1075 95.1014 76.8035C94.8694 76.4915 94.7414 76.1355 94.7174 75.7355H95.8454C95.8774 76.0635 96.0294 76.3315 96.3014 76.5395C96.5814 76.7475 96.9454 76.8515 97.3934 76.8515C97.8094 76.8515 98.1374 76.7595 98.3774 76.5755C98.6174 76.3915 98.7374 76.1595 98.7374 75.8795C98.7374 75.5915 98.6094 75.3795 98.3534 75.2435C98.0974 75.0995 97.7014 74.9595 97.1654 74.8235C96.6774 74.6955 96.2774 74.5675 95.9654 74.4395C95.6614 74.3035 95.3974 74.1075 95.1734 73.8515C94.9574 73.5875 94.8494 73.2435 94.8494 72.8195C94.8494 72.4835 94.9494 72.1755 95.1494 71.8955C95.3494 71.6155 95.6334 71.3955 96.0014 71.2355C96.3694 71.0675 96.7894 70.9835 97.2614 70.9835C97.9894 70.9835 98.5774 71.1675 99.0254 71.5355C99.4734 71.9035 99.7134 72.4075 99.7454 73.0475H98.6534C98.6294 72.7035 98.4894 72.4275 98.2334 72.2195C97.9854 72.0115 97.6494 71.9075 97.2254 71.9075C96.8334 71.9075 96.5214 71.9915 96.2894 72.1595C96.0574 72.3275 95.9414 72.5475 95.9414 72.8195C95.9414 73.0355 96.0094 73.2155 96.1454 73.3595C96.2894 73.4955 96.4654 73.6075 96.6734 73.6955C96.8894 73.7755 97.1854 73.8675 97.5614 73.9715C98.0334 74.0995 98.4174 74.2275 98.7134 74.3555C99.0094 74.4755 99.2614 74.6595 99.4694 74.9075C99.6854 75.1555 99.7974 75.4795 99.8054 75.8795C99.8054 76.2395 99.7054 76.5635 99.5054 76.8515C99.3054 77.1395 99.0214 77.3675 98.6534 77.5355C98.2934 77.6955 97.8774 77.7755 97.4054 77.7755ZM107.347 74.1275C107.347 74.3355 107.335 74.5555 107.311 74.7875H102.055C102.095 75.4355 102.315 75.9435 102.715 76.3115C103.123 76.6715 103.615 76.8515 104.191 76.8515C104.663 76.8515 105.055 76.7435 105.367 76.5275C105.687 76.3035 105.911 76.0075 106.039 75.6395H107.215C107.039 76.2715 106.687 76.7875 106.159 77.1875C105.631 77.5795 104.975 77.7755 104.191 77.7755C103.567 77.7755 103.007 77.6355 102.511 77.3555C102.023 77.0755 101.639 76.6795 101.359 76.1675C101.079 75.6475 100.939 75.0475 100.939 74.3675C100.939 73.6875 101.075 73.0915 101.347 72.5795C101.619 72.0675 101.999 71.6755 102.487 71.4035C102.983 71.1235 103.551 70.9835 104.191 70.9835C104.815 70.9835 105.367 71.1195 105.847 71.3915C106.327 71.6635 106.695 72.0395 106.951 72.5195C107.215 72.9915 107.347 73.5275 107.347 74.1275ZM106.219 73.8995C106.219 73.4835 106.127 73.1275 105.943 72.8315C105.759 72.5275 105.507 72.2995 105.187 72.1475C104.875 71.9875 104.527 71.9075 104.143 71.9075C103.591 71.9075 103.119 72.0835 102.727 72.4355C102.343 72.7875 102.123 73.2755 102.067 73.8995H106.219ZM120.748 71.0915L118.696 77.6675H117.568L115.984 72.4475L114.4 77.6675H113.272L111.208 71.0915H112.324L113.836 76.6115L115.468 71.0915H116.584L118.18 76.6235L119.668 71.0915H120.748ZM125.095 70.9715C125.591 70.9715 126.039 71.0795 126.439 71.2955C126.839 71.5035 127.151 71.8195 127.375 72.2435C127.607 72.6675 127.723 73.1835 127.723 73.7915V77.6675H126.643V73.9475C126.643 73.2915 126.479 72.7915 126.151 72.4475C125.823 72.0955 125.375 71.9195 124.807 71.9195C124.231 71.9195 123.771 72.0995 123.427 72.4595C123.091 72.8195 122.923 73.3435 122.923 74.0315V77.6675H121.831V68.7875H122.923V72.0275C123.139 71.6915 123.435 71.4315 123.811 71.2475C124.195 71.0635 124.623 70.9715 125.095 70.9715ZM129.099 74.3555C129.099 73.6835 129.235 73.0955 129.507 72.5915C129.779 72.0795 130.151 71.6835 130.623 71.4035C131.103 71.1235 131.635 70.9835 132.219 70.9835C132.795 70.9835 133.295 71.1075 133.719 71.3555C134.143 71.6035 134.459 71.9155 134.667 72.2915V71.0915H135.771V77.6675H134.667V76.4435C134.451 76.8275 134.127 77.1475 133.695 77.4035C133.271 77.6515 132.775 77.7755 132.207 77.7755C131.623 77.7755 131.095 77.6315 130.623 77.3435C130.151 77.0555 129.779 76.6515 129.507 76.1315C129.235 75.6115 129.099 75.0195 129.099 74.3555ZM134.667 74.3675C134.667 73.8715 134.567 73.4395 134.367 73.0715C134.167 72.7035 133.895 72.4235 133.551 72.2315C133.215 72.0315 132.843 71.9315 132.435 71.9315C132.027 71.9315 131.655 72.0275 131.319 72.2195C130.983 72.4115 130.715 72.6915 130.515 73.0595C130.315 73.4275 130.215 73.8595 130.215 74.3555C130.215 74.8595 130.315 75.2995 130.515 75.6755C130.715 76.0435 130.983 76.3275 131.319 76.5275C131.655 76.7195 132.027 76.8155 132.435 76.8155C132.843 76.8155 133.215 76.7195 133.551 76.5275C133.895 76.3275 134.167 76.0435 134.367 75.6755C134.567 75.2995 134.667 74.8635 134.667 74.3675ZM138.949 71.9915V75.8675C138.949 76.1875 139.017 76.4155 139.153 76.5515C139.289 76.6795 139.525 76.7435 139.861 76.7435H140.665V77.6675H139.681C139.073 77.6675 138.617 77.5275 138.313 77.2475C138.009 76.9675 137.857 76.5075 137.857 75.8675V71.9915H137.005V71.0915H137.857V69.4355H138.949V71.0915H140.665V71.9915H138.949ZM146.279 69.3035V77.6675H145.187V69.3035H146.279ZM62.3726 92.3555C62.3726 91.6835 62.5086 91.0955 62.7806 90.5915C63.0526 90.0795 63.4246 89.6835 63.8966 89.4035C64.3766 89.1235 64.9086 88.9835 65.4926 88.9835C66.0686 88.9835 66.5686 89.1075 66.9926 89.3555C67.4166 89.6035 67.7326 89.9155 67.9406 90.2915V89.0915H69.0446V95.6675H67.9406V94.4435C67.7246 94.8275 67.4006 95.1475 66.9686 95.4035C66.5446 95.6515 66.0486 95.7755 65.4806 95.7755C64.8966 95.7755 64.3686 95.6315 63.8966 95.3435C63.4246 95.0555 63.0526 94.6515 62.7806 94.1315C62.5086 93.6115 62.3726 93.0195 62.3726 92.3555ZM67.9406 92.3675C67.9406 91.8715 67.8406 91.4395 67.6406 91.0715C67.4406 90.7035 67.1686 90.4235 66.8246 90.2315C66.4886 90.0315 66.1166 89.9315 65.7086 89.9315C65.3006 89.9315 64.9286 90.0275 64.5926 90.2195C64.2566 90.4115 63.9886 90.6915 63.7886 91.0595C63.5886 91.4275 63.4886 91.8595 63.4886 92.3555C63.4886 92.8595 63.5886 93.2995 63.7886 93.6755C63.9886 94.0435 64.2566 94.3275 64.5926 94.5275C64.9286 94.7195 65.3006 94.8155 65.7086 94.8155C66.1166 94.8155 66.4886 94.7195 66.8246 94.5275C67.1686 94.3275 67.4406 94.0435 67.6406 93.6755C67.8406 93.2995 67.9406 92.8635 67.9406 92.3675ZM78.7979 88.9715C79.3099 88.9715 79.7659 89.0795 80.1659 89.2955C80.5659 89.5035 80.8819 89.8195 81.1139 90.2435C81.3459 90.6675 81.4619 91.1835 81.4619 91.7915V95.6675H80.3819V91.9475C80.3819 91.2915 80.2179 90.7915 79.8899 90.4475C79.5699 90.0955 79.1339 89.9195 78.5819 89.9195C78.0139 89.9195 77.5619 90.1035 77.2259 90.4715C76.8899 90.8315 76.7219 91.3555 76.7219 92.0435V95.6675H75.6419V91.9475C75.6419 91.2915 75.4779 90.7915 75.1499 90.4475C74.8299 90.0955 74.3939 89.9195 73.8419 89.9195C73.2739 89.9195 72.8219 90.1035 72.4859 90.4715C72.1499 90.8315 71.9819 91.3555 71.9819 92.0435V95.6675H70.8899V89.0915H71.9819V90.0395C72.1979 89.6955 72.4859 89.4315 72.8459 89.2475C73.2139 89.0635 73.6179 88.9715 74.0579 88.9715C74.6099 88.9715 75.0979 89.0955 75.5219 89.3435C75.9459 89.5915 76.2619 89.9555 76.4699 90.4355C76.6539 89.9715 76.9579 89.6115 77.3819 89.3555C77.8059 89.0995 78.2779 88.9715 78.7979 88.9715ZM86.0444 92.3675C86.0444 91.6875 86.1804 91.0955 86.4524 90.5915C86.7244 90.0795 87.1004 89.6835 87.5804 89.4035C88.0684 89.1235 88.6244 88.9835 89.2484 88.9835C90.0564 88.9835 90.7204 89.1795 91.2404 89.5715C91.7684 89.9635 92.1164 90.5075 92.2844 91.2035H91.1084C90.9964 90.8035 90.7764 90.4875 90.4484 90.2555C90.1284 90.0235 89.7284 89.9075 89.2484 89.9075C88.6244 89.9075 88.1204 90.1235 87.7364 90.5555C87.3524 90.9795 87.1604 91.5835 87.1604 92.3675C87.1604 93.1595 87.3524 93.7715 87.7364 94.2035C88.1204 94.6355 88.6244 94.8515 89.2484 94.8515C89.7284 94.8515 90.1284 94.7395 90.4484 94.5155C90.7684 94.2915 90.9884 93.9715 91.1084 93.5555H92.2844C92.1084 94.2275 91.7564 94.7675 91.2284 95.1755C90.7004 95.5755 90.0404 95.7755 89.2484 95.7755C88.6244 95.7755 88.0684 95.6355 87.5804 95.3555C87.1004 95.0755 86.7244 94.6795 86.4524 94.1675C86.1804 93.6555 86.0444 93.0555 86.0444 92.3675ZM94.8335 90.1595C95.0255 89.7835 95.2975 89.4915 95.6495 89.2835C96.0095 89.0755 96.4455 88.9715 96.9575 88.9715V90.0995H96.6695C95.4455 90.0995 94.8335 90.7635 94.8335 92.0915V95.6675H93.7415V89.0915H94.8335V90.1595ZM97.8101 92.3555C97.8101 91.6835 97.9461 91.0955 98.2181 90.5915C98.4901 90.0795 98.8621 89.6835 99.3341 89.4035C99.8141 89.1235 100.346 88.9835 100.93 88.9835C101.506 88.9835 102.006 89.1075 102.43 89.3555C102.854 89.6035 103.17 89.9155 103.378 90.2915V89.0915H104.482V95.6675H103.378V94.4435C103.162 94.8275 102.838 95.1475 102.406 95.4035C101.982 95.6515 101.486 95.7755 100.918 95.7755C100.334 95.7755 99.8061 95.6315 99.3341 95.3435C98.8621 95.0555 98.4901 94.6515 98.2181 94.1315C97.9461 93.6115 97.8101 93.0195 97.8101 92.3555ZM103.378 92.3675C103.378 91.8715 103.278 91.4395 103.078 91.0715C102.878 90.7035 102.606 90.4235 102.262 90.2315C101.926 90.0315 101.554 89.9315 101.146 89.9315C100.738 89.9315 100.366 90.0275 100.03 90.2195C99.6941 90.4115 99.4261 90.6915 99.2261 91.0595C99.0261 91.4275 98.9261 91.8595 98.9261 92.3555C98.9261 92.8595 99.0261 93.2995 99.2261 93.6755C99.4261 94.0435 99.6941 94.3275 100.03 94.5275C100.366 94.7195 100.738 94.8155 101.146 94.8155C101.554 94.8155 101.926 94.7195 102.262 94.5275C102.606 94.3275 102.878 94.0435 103.078 93.6755C103.278 93.2995 103.378 92.8635 103.378 92.3675ZM108.775 94.6595L110.815 89.0915H111.979L109.399 95.6675H108.127L105.547 89.0915H106.723L108.775 94.6595ZM113.618 88.0235C113.41 88.0235 113.234 87.9515 113.09 87.8075C112.946 87.6635 112.874 87.4875 112.874 87.2795C112.874 87.0715 112.946 86.8955 113.09 86.7515C113.234 86.6075 113.41 86.5355 113.618 86.5355C113.818 86.5355 113.986 86.6075 114.122 86.7515C114.266 86.8955 114.338 87.0715 114.338 87.2795C114.338 87.4875 114.266 87.6635 114.122 87.8075C113.986 87.9515 113.818 88.0235 113.618 88.0235ZM114.146 89.0915V95.6675H113.054V89.0915H114.146ZM119.211 88.9715C120.011 88.9715 120.659 89.2155 121.155 89.7035C121.651 90.1835 121.899 90.8795 121.899 91.7915V95.6675H120.819V91.9475C120.819 91.2915 120.655 90.7915 120.327 90.4475C119.999 90.0955 119.551 89.9195 118.983 89.9195C118.407 89.9195 117.947 90.0995 117.603 90.4595C117.267 90.8195 117.099 91.3435 117.099 92.0315V95.6675H116.007V89.0915H117.099V90.0275C117.315 89.6915 117.607 89.4315 117.975 89.2475C118.351 89.0635 118.763 88.9715 119.211 88.9715ZM126.395 88.9835C126.963 88.9835 127.459 89.1075 127.883 89.3555C128.315 89.6035 128.635 89.9155 128.843 90.2915V89.0915H129.947V95.8115C129.947 96.4115 129.819 96.9435 129.563 97.4075C129.307 97.8795 128.939 98.2475 128.459 98.5115C127.987 98.7755 127.435 98.9075 126.803 98.9075C125.939 98.9075 125.219 98.7035 124.643 98.2955C124.067 97.8875 123.727 97.3315 123.623 96.6275H124.703C124.823 97.0275 125.071 97.3475 125.447 97.5875C125.823 97.8355 126.275 97.9595 126.803 97.9595C127.403 97.9595 127.891 97.7715 128.267 97.3955C128.651 97.0195 128.843 96.4915 128.843 95.8115V94.4315C128.627 94.8155 128.307 95.1355 127.883 95.3915C127.459 95.6475 126.963 95.7755 126.395 95.7755C125.811 95.7755 125.279 95.6315 124.799 95.3435C124.327 95.0555 123.955 94.6515 123.683 94.1315C123.411 93.6115 123.275 93.0195 123.275 92.3555C123.275 91.6835 123.411 91.0955 123.683 90.5915C123.955 90.0795 124.327 89.6835 124.799 89.4035C125.279 89.1235 125.811 88.9835 126.395 88.9835ZM128.843 92.3675C128.843 91.8715 128.743 91.4395 128.543 91.0715C128.343 90.7035 128.071 90.4235 127.727 90.2315C127.391 90.0315 127.019 89.9315 126.611 89.9315C126.203 89.9315 125.831 90.0275 125.495 90.2195C125.159 90.4115 124.891 90.6915 124.691 91.0595C124.491 91.4275 124.391 91.8595 124.391 92.3555C124.391 92.8595 124.491 93.2995 124.691 93.6755C124.891 94.0435 125.159 94.3275 125.495 94.5275C125.831 94.7195 126.203 94.8155 126.611 94.8155C127.019 94.8155 127.391 94.7195 127.727 94.5275C128.071 94.3275 128.343 94.0435 128.543 93.6755C128.743 93.2995 128.843 92.8635 128.843 92.3675ZM65.5886 115.899C64.8206 115.147 64.2206 114.191 63.7886 113.031C63.3646 111.871 63.1526 110.619 63.1526 109.275C63.1526 107.899 63.3766 106.615 63.8246 105.423C64.2806 104.223 64.9286 103.235 65.7686 102.459H66.9086V102.567C66.0126 103.407 65.3366 104.419 64.8806 105.603C64.4326 106.779 64.2086 108.003 64.2086 109.275C64.2086 110.515 64.4206 111.699 64.8446 112.827C65.2766 113.955 65.9046 114.943 66.7286 115.791V115.899H65.5886ZM76.1378 106.971C76.6498 106.971 77.1058 107.079 77.5058 107.295C77.9058 107.503 78.2218 107.819 78.4538 108.243C78.6858 108.667 78.8018 109.183 78.8018 109.791V113.667H77.7218V109.947C77.7218 109.291 77.5578 108.791 77.2298 108.447C76.9098 108.095 76.4738 107.919 75.9218 107.919C75.3538 107.919 74.9018 108.103 74.5658 108.471C74.2298 108.831 74.0618 109.355 74.0618 110.043V113.667H72.9818V109.947C72.9818 109.291 72.8178 108.791 72.4898 108.447C72.1698 108.095 71.7338 107.919 71.1818 107.919C70.6138 107.919 70.1618 108.103 69.8258 108.471C69.4898 108.831 69.3218 109.355 69.3218 110.043V113.667H68.2298V107.091H69.3218V108.039C69.5378 107.695 69.8258 107.431 70.1858 107.247C70.5538 107.063 70.9578 106.971 71.3978 106.971C71.9498 106.971 72.4378 107.095 72.8618 107.343C73.2858 107.591 73.6018 107.955 73.8098 108.435C73.9938 107.971 74.2978 107.611 74.7218 107.355C75.1458 107.099 75.6178 106.971 76.1378 106.971ZM83.4611 113.775C82.8451 113.775 82.2851 113.635 81.7811 113.355C81.2851 113.075 80.8931 112.679 80.6051 112.167C80.3251 111.647 80.1851 111.047 80.1851 110.367C80.1851 109.695 80.3291 109.103 80.6171 108.591C80.9131 108.071 81.3131 107.675 81.8171 107.403C82.3211 107.123 82.8851 106.983 83.5091 106.983C84.1331 106.983 84.6971 107.123 85.2011 107.403C85.7051 107.675 86.1011 108.067 86.3891 108.579C86.6851 109.091 86.8331 109.687 86.8331 110.367C86.8331 111.047 86.6811 111.647 86.3771 112.167C86.0811 112.679 85.6771 113.075 85.1651 113.355C84.6531 113.635 84.0851 113.775 83.4611 113.775ZM83.4611 112.815C83.8531 112.815 84.2211 112.723 84.5651 112.539C84.9091 112.355 85.1851 112.079 85.3931 111.711C85.6091 111.343 85.7171 110.895 85.7171 110.367C85.7171 109.839 85.6131 109.391 85.4051 109.023C85.1971 108.655 84.9251 108.383 84.5891 108.207C84.2531 108.023 83.8891 107.931 83.4971 107.931C83.0971 107.931 82.7291 108.023 82.3931 108.207C82.0651 108.383 81.8011 108.655 81.6011 109.023C81.4011 109.391 81.3011 109.839 81.3011 110.367C81.3011 110.903 81.3971 111.355 81.5891 111.723C81.7891 112.091 82.0531 112.367 82.3811 112.551C82.7091 112.727 83.0691 112.815 83.4611 112.815ZM91.1368 113.775C90.5208 113.775 89.9608 113.635 89.4568 113.355C88.9608 113.075 88.5688 112.679 88.2808 112.167C88.0008 111.647 87.8608 111.047 87.8608 110.367C87.8608 109.695 88.0048 109.103 88.2928 108.591C88.5888 108.071 88.9888 107.675 89.4928 107.403C89.9968 107.123 90.5608 106.983 91.1848 106.983C91.8088 106.983 92.3728 107.123 92.8768 107.403C93.3808 107.675 93.7768 108.067 94.0648 108.579C94.3608 109.091 94.5088 109.687 94.5088 110.367C94.5088 111.047 94.3568 111.647 94.0528 112.167C93.7568 112.679 93.3528 113.075 92.8408 113.355C92.3288 113.635 91.7608 113.775 91.1368 113.775ZM91.1368 112.815C91.5288 112.815 91.8968 112.723 92.2408 112.539C92.5848 112.355 92.8608 112.079 93.0688 111.711C93.2848 111.343 93.3928 110.895 93.3928 110.367C93.3928 109.839 93.2888 109.391 93.0808 109.023C92.8728 108.655 92.6008 108.383 92.2648 108.207C91.9288 108.023 91.5648 107.931 91.1728 107.931C90.7728 107.931 90.4048 108.023 90.0688 108.207C89.7408 108.383 89.4768 108.655 89.2768 109.023C89.0768 109.391 88.9768 109.839 88.9768 110.367C88.9768 110.903 89.0728 111.355 89.2648 111.723C89.4648 112.091 89.7288 112.367 90.0568 112.551C90.3848 112.727 90.7448 112.815 91.1368 112.815ZM95.5366 110.355C95.5366 109.683 95.6726 109.095 95.9446 108.591C96.2166 108.079 96.5886 107.683 97.0606 107.403C97.5406 107.123 98.0766 106.983 98.6686 106.983C99.1806 106.983 99.6566 107.103 100.097 107.343C100.537 107.575 100.873 107.883 101.105 108.267V104.787H102.209V113.667H101.105V112.431C100.889 112.823 100.569 113.147 100.145 113.403C99.7206 113.651 99.2246 113.775 98.6566 113.775C98.0726 113.775 97.5406 113.631 97.0606 113.343C96.5886 113.055 96.2166 112.651 95.9446 112.131C95.6726 111.611 95.5366 111.019 95.5366 110.355ZM101.105 110.367C101.105 109.871 101.005 109.439 100.805 109.071C100.605 108.703 100.333 108.423 99.9886 108.231C99.6526 108.031 99.2806 107.931 98.8726 107.931C98.4646 107.931 98.0926 108.027 97.7566 108.219C97.4206 108.411 97.1526 108.691 96.9526 109.059C96.7526 109.427 96.6526 109.859 96.6526 110.355C96.6526 110.859 96.7526 111.299 96.9526 111.675C97.1526 112.043 97.4206 112.327 97.7566 112.527C98.0926 112.719 98.4646 112.815 98.8726 112.815C99.2806 112.815 99.6526 112.719 99.9886 112.527C100.333 112.327 100.605 112.043 100.805 111.675C101.005 111.299 101.105 110.863 101.105 110.367ZM103.706 115.899V115.791C104.53 114.943 105.154 113.955 105.578 112.827C106.01 111.699 106.226 110.515 106.226 109.275C106.226 108.003 105.998 106.779 105.542 105.603C105.094 104.419 104.422 103.407 103.526 102.567V102.459H104.666C105.506 103.235 106.15 104.223 106.598 105.423C107.054 106.615 107.282 107.899 107.282 109.275C107.282 110.619 107.066 111.871 106.634 113.031C106.21 114.191 105.614 115.147 104.846 115.899H103.706Z" fill="#0A0A0A"/>
</g>
<g filter="url(#filter1_ddd_2069_16325)">
<rect width="128" height="128" transform="translate(50.9399 142.274)" fill="#FFC470"/>
<path d="M71.0146 157.637V165.941H69.9226V159.749L67.1626 165.941H66.3946L63.6226 159.737V165.941H62.5306V157.637H63.7066L66.7786 164.501L69.8506 157.637H71.0146ZM75.7345 166.049C75.1185 166.049 74.5585 165.909 74.0545 165.629C73.5585 165.349 73.1665 164.953 72.8785 164.441C72.5985 163.921 72.4585 163.321 72.4585 162.641C72.4585 161.969 72.6025 161.377 72.8905 160.865C73.1865 160.345 73.5865 159.949 74.0905 159.677C74.5945 159.397 75.1585 159.257 75.7825 159.257C76.4065 159.257 76.9705 159.397 77.4745 159.677C77.9785 159.949 78.3745 160.341 78.6625 160.853C78.9585 161.365 79.1065 161.961 79.1065 162.641C79.1065 163.321 78.9545 163.921 78.6505 164.441C78.3545 164.953 77.9505 165.349 77.4385 165.629C76.9265 165.909 76.3585 166.049 75.7345 166.049ZM75.7345 165.089C76.1265 165.089 76.4945 164.997 76.8385 164.813C77.1825 164.629 77.4585 164.353 77.6665 163.985C77.8825 163.617 77.9905 163.169 77.9905 162.641C77.9905 162.113 77.8865 161.665 77.6785 161.297C77.4705 160.929 77.1985 160.657 76.8625 160.481C76.5265 160.297 76.1625 160.205 75.7705 160.205C75.3705 160.205 75.0025 160.297 74.6665 160.481C74.3385 160.657 74.0745 160.929 73.8745 161.297C73.6745 161.665 73.5745 162.113 73.5745 162.641C73.5745 163.177 73.6705 163.629 73.8625 163.997C74.0625 164.365 74.3265 164.641 74.6545 164.825C74.9825 165.001 75.3425 165.089 75.7345 165.089ZM83.4103 166.049C82.7943 166.049 82.2343 165.909 81.7303 165.629C81.2343 165.349 80.8423 164.953 80.5543 164.441C80.2743 163.921 80.1343 163.321 80.1343 162.641C80.1343 161.969 80.2783 161.377 80.5663 160.865C80.8623 160.345 81.2623 159.949 81.7663 159.677C82.2703 159.397 82.8343 159.257 83.4583 159.257C84.0823 159.257 84.6463 159.397 85.1503 159.677C85.6543 159.949 86.0503 160.341 86.3383 160.853C86.6343 161.365 86.7823 161.961 86.7823 162.641C86.7823 163.321 86.6303 163.921 86.3263 164.441C86.0303 164.953 85.6263 165.349 85.1143 165.629C84.6023 165.909 84.0343 166.049 83.4103 166.049ZM83.4103 165.089C83.8023 165.089 84.1703 164.997 84.5143 164.813C84.8583 164.629 85.1343 164.353 85.3423 163.985C85.5583 163.617 85.6663 163.169 85.6663 162.641C85.6663 162.113 85.5623 161.665 85.3543 161.297C85.1463 160.929 84.8743 160.657 84.5383 160.481C84.2023 160.297 83.8383 160.205 83.4463 160.205C83.0463 160.205 82.6783 160.297 82.3423 160.481C82.0143 160.657 81.7503 160.929 81.5503 161.297C81.3503 161.665 81.2503 162.113 81.2503 162.641C81.2503 163.177 81.3463 163.629 81.5383 163.997C81.7383 164.365 82.0023 164.641 82.3303 164.825C82.6583 165.001 83.0183 165.089 83.4103 165.089ZM87.8101 162.629C87.8101 161.957 87.9461 161.369 88.2181 160.865C88.4901 160.353 88.8621 159.957 89.3341 159.677C89.8141 159.397 90.3501 159.257 90.9421 159.257C91.4541 159.257 91.9301 159.377 92.3701 159.617C92.8101 159.849 93.1461 160.157 93.3781 160.541V157.061H94.4821V165.941H93.3781V164.705C93.1621 165.097 92.8421 165.421 92.4181 165.677C91.9941 165.925 91.4981 166.049 90.9301 166.049C90.3461 166.049 89.8141 165.905 89.3341 165.617C88.8621 165.329 88.4901 164.925 88.2181 164.405C87.9461 163.885 87.8101 163.293 87.8101 162.629ZM93.3781 162.641C93.3781 162.145 93.2781 161.713 93.0781 161.345C92.8781 160.977 92.6061 160.697 92.2621 160.505C91.9261 160.305 91.5541 160.205 91.1461 160.205C90.7381 160.205 90.3661 160.301 90.0301 160.493C89.6941 160.685 89.4261 160.965 89.2261 161.333C89.0261 161.701 88.9261 162.133 88.9261 162.629C88.9261 163.133 89.0261 163.573 89.2261 163.949C89.4261 164.317 89.6941 164.601 90.0301 164.801C90.3661 164.993 90.7381 165.089 91.1461 165.089C91.5541 165.089 91.9261 164.993 92.2621 164.801C92.6061 164.601 92.8781 164.317 93.0781 163.949C93.2781 163.573 93.3781 163.137 93.3781 162.641Z" fill="#0A0A0A"/>
</g>
<path d="M51.5649 525.601C51.5649 525.325 51.3411 525.101 51.0649 525.101C50.7888 525.101 50.5649 525.325 50.5649 525.601H51.5649ZM114.711 590.955C114.907 591.15 115.223 591.15 115.418 590.955L118.6 587.773C118.796 587.577 118.796 587.261 118.6 587.066C118.405 586.87 118.089 586.87 117.893 587.066L115.065 589.894L112.237 587.066C112.041 586.87 111.725 586.87 111.529 587.066C111.334 587.261 111.334 587.577 111.529 587.773L114.711 590.955ZM115.065 590.601H115.565H115.065ZM50.5649 525.601V554.414H51.5649V525.601H50.5649ZM75.0649 578.914H102.877V577.914H75.0649V578.914ZM102.877 578.914C109.332 578.914 114.565 584.146 114.565 590.601H115.565C115.565 583.594 109.885 577.914 102.877 577.914V578.914ZM50.5649 554.414C50.5649 567.945 61.534 578.914 75.0649 578.914V577.914C62.0863 577.914 51.5649 567.392 51.5649 554.414H50.5649Z" fill="#757575"/>
<path d="M179.565 525.601C179.565 525.325 179.341 525.101 179.065 525.101C178.789 525.101 178.565 525.325 178.565 525.601H179.565ZM114.711 590.955C114.907 591.15 115.223 591.15 115.418 590.955L118.6 587.773C118.796 587.577 118.796 587.261 118.6 587.066C118.405 586.87 118.089 586.87 117.893 587.066L115.065 589.894L112.237 587.066C112.041 586.87 111.725 586.87 111.529 587.066C111.334 587.261 111.334 587.577 111.529 587.773L114.711 590.955ZM115.065 590.601H115.565H115.065ZM178.565 525.601V554.414H179.565V525.601H178.565ZM155.065 577.914H127.252V578.914H155.065V577.914ZM127.252 577.914C120.245 577.914 114.565 583.594 114.565 590.601H115.565C115.565 584.146 120.798 578.914 127.252 578.914V577.914ZM178.565 554.414C178.565 567.392 168.044 577.914 155.065 577.914V578.914C168.596 578.914 179.565 567.945 179.565 554.414H178.565Z" fill="#757575"/>
<path d="M47.6781 611.481L43.9981 618.569V622.601H42.1741V618.569L38.4781 611.481H40.5101L43.0861 616.937L45.6621 611.481H47.6781ZM53.1096 622.745C52.2776 622.745 51.5256 622.558 50.8536 622.185C50.1816 621.801 49.6536 621.268 49.2696 620.585C48.8856 619.892 48.6936 619.092 48.6936 618.185C48.6936 617.289 48.8909 616.494 49.2856 615.801C49.6802 615.108 50.2189 614.574 50.9016 614.201C51.5842 613.828 52.3469 613.641 53.1896 613.641C54.0322 613.641 54.7949 613.828 55.4776 614.201C56.1602 614.574 56.6989 615.108 57.0936 615.801C57.4882 616.494 57.6856 617.289 57.6856 618.185C57.6856 619.081 57.4829 619.876 57.0776 620.569C56.6722 621.262 56.1176 621.801 55.4136 622.185C54.7202 622.558 53.9522 622.745 53.1096 622.745ZM53.1096 621.161C53.5789 621.161 54.0162 621.049 54.4216 620.825C54.8376 620.601 55.1736 620.265 55.4296 619.817C55.6856 619.369 55.8136 618.825 55.8136 618.185C55.8136 617.545 55.6909 617.006 55.4456 616.569C55.2002 616.121 54.8749 615.785 54.4696 615.561C54.0642 615.337 53.6269 615.225 53.1576 615.225C52.6882 615.225 52.2509 615.337 51.8456 615.561C51.4509 615.785 51.1362 616.121 50.9016 616.569C50.6669 617.006 50.5496 617.545 50.5496 618.185C50.5496 619.134 50.7896 619.87 51.2696 620.393C51.7602 620.905 52.3736 621.161 53.1096 621.161ZM67.6327 613.785V622.601H65.8087V621.561C65.5207 621.924 65.142 622.212 64.6727 622.425C64.214 622.628 63.7234 622.729 63.2007 622.729C62.5074 622.729 61.8834 622.585 61.3287 622.297C60.7847 622.009 60.3527 621.582 60.0327 621.017C59.7234 620.452 59.5687 619.769 59.5687 618.969V613.785H61.3767V618.697C61.3767 619.486 61.574 620.094 61.9687 620.521C62.3634 620.937 62.902 621.145 63.5847 621.145C64.2674 621.145 64.806 620.937 65.2007 620.521C65.606 620.094 65.8087 619.486 65.8087 618.697V613.785H67.6327ZM72.0233 615.065C72.29 614.617 72.642 614.27 73.0793 614.025C73.5273 613.769 74.0553 613.641 74.6633 613.641V615.529H74.1993C73.4847 615.529 72.9407 615.71 72.5673 616.073C72.2047 616.436 72.0233 617.065 72.0233 617.961V622.601H70.1993V613.785H72.0233V615.065ZM80.2082 618.185C80.2082 617.278 80.3895 616.484 80.7522 615.801C81.1255 615.108 81.6375 614.574 82.2882 614.201C82.9389 613.828 83.6855 613.641 84.5282 613.641C85.5949 613.641 86.4749 613.897 87.1682 614.409C87.8722 614.91 88.3469 615.63 88.5922 616.569H86.6242C86.4642 616.132 86.2082 615.79 85.8562 615.545C85.5042 615.3 85.0615 615.177 84.5282 615.177C83.7815 615.177 83.1842 615.444 82.7362 615.977C82.2989 616.5 82.0802 617.236 82.0802 618.185C82.0802 619.134 82.2989 619.876 82.7362 620.409C83.1842 620.942 83.7815 621.209 84.5282 621.209C85.5842 621.209 86.2829 620.745 86.6242 619.817H88.5922C88.3362 620.713 87.8562 621.428 87.1522 621.961C86.4482 622.484 85.5735 622.745 84.5282 622.745C83.6855 622.745 82.9389 622.558 82.2882 622.185C81.6375 621.801 81.1255 621.268 80.7522 620.585C80.3895 619.892 80.2082 619.092 80.2082 618.185ZM98.5539 613.785V622.601H96.7299V621.561C96.4419 621.924 96.0633 622.212 95.5939 622.425C95.1353 622.628 94.6446 622.729 94.1219 622.729C93.4286 622.729 92.8046 622.585 92.2499 622.297C91.7059 622.009 91.2739 621.582 90.9539 621.017C90.6446 620.452 90.4899 619.769 90.4899 618.969V613.785H92.2979V618.697C92.2979 619.486 92.4953 620.094 92.8899 620.521C93.2846 620.937 93.8233 621.145 94.5059 621.145C95.1886 621.145 95.7273 620.937 96.1219 620.521C96.5273 620.094 96.7299 619.486 96.7299 618.697V613.785H98.5539ZM102.945 615.065C103.211 614.617 103.563 614.27 104.001 614.025C104.449 613.769 104.977 613.641 105.585 613.641V615.529H105.121C104.406 615.529 103.862 615.71 103.489 616.073C103.126 616.436 102.945 617.065 102.945 617.961V622.601H101.121V613.785H102.945V615.065ZM109.245 615.065C109.512 614.617 109.864 614.27 110.301 614.025C110.749 613.769 111.277 613.641 111.885 613.641V615.529H111.421C110.707 615.529 110.163 615.71 109.789 616.073C109.427 616.436 109.245 617.065 109.245 617.961V622.601H107.421V613.785H109.245V615.065ZM121.802 617.977C121.802 618.308 121.78 618.606 121.738 618.873H115.002C115.055 619.577 115.316 620.142 115.786 620.569C116.255 620.996 116.831 621.209 117.514 621.209C118.495 621.209 119.188 620.798 119.594 619.977H121.562C121.295 620.788 120.81 621.454 120.106 621.977C119.412 622.489 118.548 622.745 117.514 622.745C116.671 622.745 115.914 622.558 115.242 622.185C114.58 621.801 114.058 621.268 113.674 620.585C113.3 619.892 113.114 619.092 113.114 618.185C113.114 617.278 113.295 616.484 113.658 615.801C114.031 615.108 114.548 614.574 115.21 614.201C115.882 613.828 116.65 613.641 117.514 613.641C118.346 613.641 119.087 613.822 119.738 614.185C120.388 614.548 120.895 615.06 121.258 615.721C121.62 616.372 121.802 617.124 121.802 617.977ZM119.898 617.401C119.887 616.729 119.647 616.19 119.178 615.785C118.708 615.38 118.127 615.177 117.434 615.177C116.804 615.177 116.266 615.38 115.818 615.785C115.37 616.18 115.103 616.718 115.018 617.401H119.898ZM128.205 613.641C128.898 613.641 129.517 613.785 130.061 614.073C130.615 614.361 131.047 614.788 131.357 615.353C131.666 615.918 131.821 616.601 131.821 617.401V622.601H130.013V617.673C130.013 616.884 129.815 616.281 129.421 615.865C129.026 615.438 128.487 615.225 127.805 615.225C127.122 615.225 126.578 615.438 126.173 615.865C125.778 616.281 125.581 616.884 125.581 617.673V622.601H123.757V613.785H125.581V614.793C125.879 614.43 126.258 614.148 126.717 613.945C127.186 613.742 127.682 613.641 128.205 613.641ZM136.435 615.273V620.153C136.435 620.484 136.51 620.724 136.659 620.873C136.819 621.012 137.086 621.081 137.459 621.081H138.579V622.601H137.139C136.318 622.601 135.689 622.409 135.251 622.025C134.814 621.641 134.595 621.017 134.595 620.153V615.273H133.555V613.785H134.595V611.593H136.435V613.785H138.579V615.273H136.435ZM155.409 613.641C156.102 613.641 156.721 613.785 157.265 614.073C157.819 614.361 158.251 614.788 158.561 615.353C158.881 615.918 159.041 616.601 159.041 617.401V622.601H157.233V617.673C157.233 616.884 157.035 616.281 156.641 615.865C156.246 615.438 155.707 615.225 155.025 615.225C154.342 615.225 153.798 615.438 153.393 615.865C152.998 616.281 152.801 616.884 152.801 617.673V622.601H150.993V617.673C150.993 616.884 150.795 616.281 150.401 615.865C150.006 615.438 149.467 615.225 148.785 615.225C148.102 615.225 147.558 615.438 147.153 615.865C146.758 616.281 146.561 616.884 146.561 617.673V622.601H144.737V613.785H146.561V614.793C146.859 614.43 147.238 614.148 147.697 613.945C148.155 613.742 148.646 613.641 149.169 613.641C149.873 613.641 150.502 613.79 151.057 614.089C151.611 614.388 152.038 614.82 152.337 615.385C152.603 614.852 153.019 614.43 153.585 614.121C154.15 613.801 154.758 613.641 155.409 613.641ZM165.346 622.745C164.514 622.745 163.762 622.558 163.09 622.185C162.418 621.801 161.89 621.268 161.506 620.585C161.122 619.892 160.93 619.092 160.93 618.185C160.93 617.289 161.127 616.494 161.522 615.801C161.916 615.108 162.455 614.574 163.138 614.201C163.82 613.828 164.583 613.641 165.426 613.641C166.268 613.641 167.031 613.828 167.714 614.201C168.396 614.574 168.935 615.108 169.33 615.801C169.724 616.494 169.922 617.289 169.922 618.185C169.922 619.081 169.719 619.876 169.314 620.569C168.908 621.262 168.354 621.801 167.65 622.185C166.956 622.558 166.188 622.745 165.346 622.745ZM165.346 621.161C165.815 621.161 166.252 621.049 166.658 620.825C167.074 620.601 167.41 620.265 167.666 619.817C167.922 619.369 168.05 618.825 168.05 618.185C168.05 617.545 167.927 617.006 167.682 616.569C167.436 616.121 167.111 615.785 166.706 615.561C166.3 615.337 165.863 615.225 165.394 615.225C164.924 615.225 164.487 615.337 164.082 615.561C163.687 615.785 163.372 616.121 163.138 616.569C162.903 617.006 162.786 617.545 162.786 618.185C162.786 619.134 163.026 619.87 163.506 620.393C163.996 620.905 164.61 621.161 165.346 621.161ZM175.709 622.745C174.877 622.745 174.125 622.558 173.453 622.185C172.781 621.801 172.253 621.268 171.869 620.585C171.485 619.892 171.293 619.092 171.293 618.185C171.293 617.289 171.49 616.494 171.885 615.801C172.28 615.108 172.818 614.574 173.501 614.201C174.184 613.828 174.946 613.641 175.789 613.641C176.632 613.641 177.394 613.828 178.077 614.201C178.76 614.574 179.298 615.108 179.693 615.801C180.088 616.494 180.285 617.289 180.285 618.185C180.285 619.081 180.082 619.876 179.677 620.569C179.272 621.262 178.717 621.801 178.013 622.185C177.32 622.558 176.552 622.745 175.709 622.745ZM175.709 621.161C176.178 621.161 176.616 621.049 177.021 620.825C177.437 620.601 177.773 620.265 178.029 619.817C178.285 619.369 178.413 618.825 178.413 618.185C178.413 617.545 178.29 617.006 178.045 616.569C177.8 616.121 177.474 615.785 177.069 615.561C176.664 615.337 176.226 615.225 175.757 615.225C175.288 615.225 174.85 615.337 174.445 615.561C174.05 615.785 173.736 616.121 173.501 616.569C173.266 617.006 173.149 617.545 173.149 618.185C173.149 619.134 173.389 619.87 173.869 620.393C174.36 620.905 174.973 621.161 175.709 621.161ZM181.64 618.153C181.64 617.268 181.821 616.484 182.184 615.801C182.557 615.118 183.059 614.59 183.688 614.217C184.328 613.833 185.037 613.641 185.816 613.641C186.392 613.641 186.957 613.769 187.512 614.025C188.077 614.27 188.525 614.601 188.856 615.017V610.761H190.696V622.601H188.856V621.273C188.557 621.7 188.141 622.052 187.608 622.329C187.085 622.606 186.483 622.745 185.8 622.745C185.032 622.745 184.328 622.553 183.688 622.169C183.059 621.774 182.557 621.23 182.184 620.537C181.821 619.833 181.64 619.038 181.64 618.153ZM188.856 618.185C188.856 617.577 188.728 617.049 188.472 616.601C188.227 616.153 187.901 615.812 187.496 615.577C187.091 615.342 186.653 615.225 186.184 615.225C185.715 615.225 185.277 615.342 184.872 615.577C184.467 615.801 184.136 616.137 183.88 616.585C183.635 617.022 183.512 617.545 183.512 618.153C183.512 618.761 183.635 619.294 183.88 619.753C184.136 620.212 184.467 620.564 184.872 620.809C185.288 621.044 185.725 621.161 186.184 621.161C186.653 621.161 187.091 621.044 187.496 620.809C187.901 620.574 188.227 620.233 188.472 619.785C188.728 619.326 188.856 618.793 188.856 618.185Z" fill="#1E1E1E"/>
<defs>
<filter id="filter0_ddd_2069_16325" x="41.1899" y="52.001" width="148" height="148" filterUnits="userSpaceOnUse" color-interpolation-filters="sRGB">
<feFlood flood-opacity="0" result="BackgroundImageFix"/>
<feColorMatrix in="SourceAlpha" type="matrix" values="0 0 0 0 0 0 0 0 0 0 0 0 0 0 0 0 0 0 127 0" result="hardAlpha"/>
<feOffset dy="2.5"/>
<feGaussianBlur stdDeviation="1"/>
<feColorMatrix type="matrix" values="0 0 0 0 0 0 0 0 0 0 0 0 0 0 0 0 0 0 0.02 0"/>
<feBlend mode="normal" in2="BackgroundImageFix" result="effect1_dropShadow_2069_16325"/>
<feColorMatrix in="SourceAlpha" type="matrix" values="0 0 0 0 0 0 0 0 0 0 0 0 0 0 0 0 0 0 127 0" result="hardAlpha"/>
<feOffset dy="3"/>
<feGaussianBlur stdDeviation="2.5"/>
<feColorMatrix type="matrix" values="0 0 0 0 0 0 0 0 0 0 0 0 0 0 0 0 0 0 0.04 0"/>
<feBlend mode="normal" in2="effect1_dropShadow_2069_16325" result="effect2_dropShadow_2069_16325"/>
<feColorMatrix in="SourceAlpha" type="matrix" values="0 0 0 0 0 0 0 0 0 0 0 0 0 0 0 0 0 0 127 0" result="hardAlpha"/>
<feOffset dy="8"/>
<feGaussianBlur stdDeviation="5"/>
<feColorMatrix type="matrix" values="0 0 0 0 0 0 0 0 0 0 0 0 0 0 0 0 0 0 0.08 0"/>
<feBlend mode="normal" in2="effect2_dropShadow_2069_16325" result="effect3_dropShadow_2069_16325"/>
<feBlend mode="normal" in="SourceGraphic" in2="effect3_dropShadow_2069_16325" result="shape"/>
</filter>
<filter id="filter1_ddd_2069_16325" x="40.9399" y="140.274" width="148" height="148" filterUnits="userSpaceOnUse" color-interpolation-filters="sRGB">
<feFlood flood-opacity="0" result="BackgroundImageFix"/>
<feColorMatrix in="SourceAlpha" type="matrix" values="0 0 0 0 0 0 0 0 0 0 0 0 0 0 0 0 0 0 127 0" result="hardAlpha"/>
<feOffset dy="2.5"/>
<feGaussianBlur stdDeviation="1"/>
<feColorMatrix type="matrix" values="0 0 0 0 0 0 0 0 0 0 0 0 0 0 0 0 0 0 0.02 0"/>
<feBlend mode="normal" in2="BackgroundImageFix" result="effect1_dropShadow_2069_16325"/>
<feColorMatrix in="SourceAlpha" type="matrix" values="0 0 0 0 0 0 0 0 0 0 0 0 0 0 0 0 0 0 127 0" result="hardAlpha"/>
<feOffset dy="3"/>
<feGaussianBlur stdDeviation="2.5"/>
<feColorMatrix type="matrix" values="0 0 0 0 0 0 0 0 0 0 0 0 0 0 0 0 0 0 0.04 0"/>
<feBlend mode="normal" in2="effect1_dropShadow_2069_16325" result="effect2_dropShadow_2069_16325"/>
<feColorMatrix in="SourceAlpha" type="matrix" values="0 0 0 0 0 0 0 0 0 0 0 0 0 0 0 0 0 0 127 0" result="hardAlpha"/>
<feOffset dy="8"/>
<feGaussianBlur stdDeviation="5"/>
<feColorMatrix type="matrix" values="0 0 0 0 0 0 0 0 0 0 0 0 0 0 0 0 0 0 0.08 0"/>
<feBlend mode="normal" in2="effect2_dropShadow_2069_16325" result="effect3_dropShadow_2069_16325"/>
<feBlend mode="normal" in="SourceGraphic" in2="effect3_dropShadow_2069_16325" result="shape"/>
</filter>
</defs>
</svg>
