<svg width="35" height="36" viewBox="0 0 35 36" fill="none" xmlns="http://www.w3.org/2000/svg">
<path d="M21.9235 14.6588H24.1351C24.7216 14.6588 25.2841 14.8918 25.6989 15.3065C26.1136 15.7213 26.3466 16.2838 26.3466 16.8703V27.4857C26.3466 28.0723 26.1136 28.6348 25.6989 29.0495C25.2841 29.4643 24.7216 29.6973 24.1351 29.6973H10.8658C10.2793 29.6973 9.71679 29.4643 9.30204 29.0495C8.8873 28.6348 8.6543 28.0723 8.6543 27.4857V16.8703C8.6543 16.2838 8.8873 15.7213 9.30204 15.3065C9.71679 14.8918 10.2793 14.6588 10.8658 14.6588H13.0774M21.9235 11.1203L17.5005 6.69727M17.5005 6.69727L13.0774 11.1203M17.5005 6.69727V21.791" stroke="#0A0A0A" stroke-width="1.5" stroke-linecap="round" stroke-linejoin="round"/>
</svg>
