<svg width="35" height="36" viewBox="0 0 35 36" fill="none" xmlns="http://www.w3.org/2000/svg">
<path d="M30.8827 14.6316C30.8827 16.0842 30.3056 17.4774 29.2784 18.5045C28.2513 19.5317 26.8581 20.1088 25.4054 20.1088C24.0711 20.117 22.7813 19.629 21.7866 18.7395C21.1681 19.8974 20.2384 20.8595 19.1022 21.517C17.966 22.1746 16.6686 22.5015 15.3565 22.4608C14.0444 22.4201 12.7698 22.0135 11.6765 21.2868C10.5832 20.5601 9.71487 19.5423 9.16938 18.3483C8.63139 18.743 7.97816 18.9493 7.31102 18.9351C6.84862 18.9351 6.39076 18.844 5.96356 18.6671C5.53637 18.4901 5.14822 18.2308 4.82126 17.9038C4.4943 17.5768 4.23493 17.1887 4.05797 16.7615C3.88102 16.3343 3.78996 15.8764 3.78996 15.414C3.78002 14.7215 3.98037 14.0423 4.36455 13.466C4.74873 12.8897 5.29865 12.4435 5.94171 12.1864C5.77528 11.6488 5.70899 11.0852 5.74612 10.5236C5.75475 9.28918 6.13991 8.08674 6.85018 7.07704C7.56046 6.06734 8.562 5.29847 9.72092 4.87318C10.8798 4.44788 12.1409 4.38643 13.3357 4.69702C14.5305 5.00762 15.6021 5.67548 16.4071 6.61134C17.5441 5.78471 18.9137 5.33958 20.3194 5.33984C21.5503 5.33915 22.7523 5.71306 23.7656 6.41188C24.7789 7.1107 25.5555 8.10134 25.9923 9.25214C27.3326 9.37448 28.5784 9.99481 29.4837 10.9907C30.3891 11.9866 30.8883 13.2857 30.8827 14.6316Z" stroke="#0A0A0A" stroke-width="1.48625" stroke-linecap="round" stroke-linejoin="round"/>
<path d="M25.4054 20.1084C25.4054 20.1084 20.6128 20.9887 20.6128 31.8453H15.6246C15.6246 31.8453 15.918 24.3141 11.0277 20.6952" stroke="#0A0A0A" stroke-width="1.48625" stroke-linecap="round" stroke-linejoin="round"/>
</svg>
