<svg width="35" height="36" viewBox="0 0 35 36" fill="none" xmlns="http://www.w3.org/2000/svg">
<path d="M30.1677 20.6355L23.223 8.70064L23.2118 8.68198C22.6089 7.71143 21.7684 6.91068 20.7698 6.35543C19.7712 5.80019 18.6475 5.50879 17.505 5.50879C16.3624 5.50879 15.2387 5.80019 14.2401 6.35543C13.2416 6.91068 12.4011 7.71143 11.7982 8.68198L11.787 8.70064L4.8323 20.6355C4.20313 21.653 3.85706 22.8201 3.82986 24.0161C3.80266 25.2121 4.09531 26.3937 4.67757 27.4387C5.25984 28.4838 6.11059 29.3544 7.14193 29.9607C8.17327 30.5669 9.34777 30.8867 10.5441 30.8871H24.4559C25.6522 30.8867 26.8267 30.5669 27.8581 29.9607C28.8894 29.3544 29.7402 28.4838 30.3224 27.4387C30.9047 26.3937 31.1973 25.2121 31.1701 24.0161C31.1429 22.8201 30.7969 21.653 30.1677 20.6355ZM21.73 29.3942H13.27V23.1736C13.27 23.1076 13.2962 23.0443 13.3428 22.9976C13.3895 22.951 13.4528 22.9247 13.5188 22.9247H21.4812C21.5472 22.9247 21.6105 22.951 21.6572 22.9976C21.7038 23.0443 21.73 23.1076 21.73 23.1736V29.3942ZM29.0219 26.7094C28.5745 27.5278 27.9137 28.2097 27.1097 28.6824C26.3057 29.1552 25.3886 29.4012 24.4559 29.3942H23.223V23.1736C23.223 22.7116 23.0395 22.2686 22.7128 21.9419C22.3862 21.6153 21.9432 21.4318 21.4812 21.4318H13.5188C13.0568 21.4318 12.6138 21.6153 12.2872 21.9419C11.9605 22.2686 11.777 22.7116 11.777 23.1736V29.3942H10.5441C9.61286 29.3939 8.69864 29.1447 7.89603 28.6725C7.09343 28.2002 6.43161 27.5221 5.97906 26.7082C5.52652 25.8943 5.29969 24.9743 5.32206 24.0434C5.34443 23.1124 5.61518 22.2043 6.10629 21.4131L6.11624 21.3957L13.0672 9.4608C13.5367 8.7085 14.19 8.08807 14.9655 7.65793C15.741 7.22779 16.6132 7.00209 17.5 7.00209C18.3868 7.00209 19.259 7.22779 20.0345 7.65793C20.81 8.08807 21.4633 8.7085 21.9328 9.4608L28.8838 21.3957L28.8937 21.4131C29.3916 22.202 29.6663 23.1111 29.6886 24.0437C29.711 24.9763 29.4801 25.8975 29.0206 26.7094H29.0219Z" fill="#0A0A0A"/>
</svg>
