<svg width="35" height="36" viewBox="0 0 35 36" fill="none" xmlns="http://www.w3.org/2000/svg">
<path d="M17.5001 32.7807L25.521 24.7599C27.1073 23.1735 28.1875 21.1524 28.6252 18.9521C29.0628 16.7518 28.8381 14.4712 27.9796 12.3985C27.1211 10.3259 25.6672 8.55443 23.8019 7.30808C21.9366 6.06172 19.7435 5.39648 17.5001 5.39648C15.2568 5.39648 13.0637 6.06172 11.1984 7.30808C9.33309 8.55443 7.87924 10.3259 7.02071 12.3985C6.16217 14.4712 5.93752 16.7518 6.37515 18.9521C6.81277 21.1524 7.89303 23.1735 9.47931 24.7599L17.5001 32.7807Z" stroke="#0A0A0A" stroke-width="1.5" stroke-linejoin="round"/>
<g clip-path="url(#clip0_1940_18988)">
<path d="M13.2825 10.7031H13.2725C13.226 10.7041 13.18 10.7135 13.1368 10.7309C13.0744 10.7556 13.0195 10.7962 12.9776 10.8487C12.9357 10.9011 12.9082 10.9636 12.8979 11.03C12.8855 11.1024 12.5078 13.4744 12.5078 14.5574C12.5078 15.2897 12.8485 15.9427 13.3789 16.3651C13.5716 16.52 13.6641 16.6881 13.6641 16.8284V17.2138C13.6641 17.2277 13.6633 17.2416 13.6618 17.2554C13.641 17.4559 13.5454 18.357 13.4552 19.2836C13.3666 20.197 13.2787 21.1722 13.2787 21.4952C13.2787 21.904 13.4411 22.2962 13.7302 22.5853C14.0194 22.8744 14.4115 23.0369 14.8204 23.0369C15.2293 23.0369 15.6214 22.8744 15.9106 22.5853C16.1997 22.2962 16.3621 21.904 16.3621 21.4952C16.3621 21.1714 16.2742 20.197 16.1856 19.2836C16.1197 18.6075 16.0508 17.9317 15.979 17.2562L15.9767 17.2138V16.8284C15.9767 16.6873 16.0692 16.52 16.2619 16.3651C16.5335 16.1486 16.7529 15.8736 16.9037 15.5607C17.0545 15.2477 17.1329 14.9048 17.133 14.5574C17.133 13.4721 16.7529 11.0893 16.7429 11.0292C16.7316 10.9567 16.6998 10.889 16.6513 10.834C16.6029 10.779 16.5397 10.7389 16.4693 10.7185C16.4369 10.7091 16.4035 10.7039 16.3698 10.7031H16.3544H16.3552C16.2525 10.7039 16.1542 10.7453 16.0819 10.8182C16.0096 10.8911 15.969 10.9897 15.969 11.0924V14.1758C15.97 14.226 15.9612 14.2758 15.943 14.3225C15.9248 14.3692 15.8976 14.4118 15.8629 14.448C15.8283 14.4842 15.7868 14.5132 15.7409 14.5334C15.695 14.5535 15.6456 14.5645 15.5955 14.5655C15.5454 14.5666 15.4956 14.5578 15.4489 14.5396C15.4021 14.5214 15.3595 14.4942 15.3233 14.4595C15.2871 14.4248 15.2581 14.3833 15.238 14.3374C15.2178 14.2916 15.2069 14.2421 15.2058 14.192V11.0886C15.2058 10.9863 15.1652 10.8883 15.0929 10.816C15.0206 10.7437 14.9226 10.7031 14.8204 10.7031C14.7182 10.7031 14.6201 10.7437 14.5479 10.816C14.4756 10.8883 14.435 10.9863 14.435 11.0886V14.172L14.4357 14.1967C14.433 14.2979 14.3901 14.3938 14.3166 14.4634C14.2431 14.533 14.145 14.5706 14.0437 14.5678C13.9425 14.5651 13.8466 14.5222 13.777 14.4487C13.7074 14.3752 13.6698 14.277 13.6726 14.1758V11.0932C13.6726 10.9899 13.6316 10.8908 13.5586 10.8176C13.4856 10.7445 13.3858 10.7033 13.2825 10.7031ZM18.2893 14.172C18.2893 13.252 18.6547 12.3697 19.3053 11.7191C19.9558 11.0686 20.8381 10.7031 21.7581 10.7031C21.8603 10.7031 21.9584 10.7437 22.0307 10.816C22.1029 10.8883 22.1436 10.9863 22.1436 11.0886V16.4676L22.159 16.6403C22.2191 17.3329 22.2776 18.0257 22.3347 18.7185C22.4303 19.8802 22.529 21.1552 22.529 21.4952C22.529 21.904 22.3666 22.2962 22.0774 22.5853C21.7883 22.8744 21.3962 23.0369 20.9873 23.0369C20.5784 23.0369 20.1862 22.8744 19.8971 22.5853C19.608 22.2962 19.4455 21.904 19.4455 21.4952C19.4455 21.156 19.5442 19.8802 19.6398 18.7185C19.6876 18.1319 19.7362 17.5645 19.7724 17.1444L19.7955 16.87H19.4455C19.1389 16.87 18.8448 16.7482 18.6279 16.5313C18.4111 16.3145 18.2893 16.0204 18.2893 15.7137V14.172Z" fill="#0A0A0A"/>
</g>
<defs>
<clipPath id="clip0_1940_18988">
<rect width="12.5265" height="12.5265" fill="white" transform="translate(11.2549 10.6064)"/>
</clipPath>
</defs>
</svg>
