<svg width="35" height="36" viewBox="0 0 35 36" fill="none" xmlns="http://www.w3.org/2000/svg">
<path d="M30.3881 15.114C30.287 14.7943 30.0922 14.5124 29.8289 14.3048C29.5656 14.0972 29.246 13.9736 28.9115 13.9499L21.8057 13.3756L19.0672 6.74744C18.9394 6.43676 18.7222 6.17106 18.4431 5.98408C18.1641 5.7971 17.8357 5.69727 17.4998 5.69727C17.1639 5.69727 16.8355 5.7971 16.5564 5.98408C16.2774 6.17106 16.0602 6.43676 15.9324 6.74744L13.1939 13.3732L6.08806 13.9499C5.75332 13.9738 5.43349 14.0978 5.17016 14.3058C4.90682 14.5138 4.71216 14.7962 4.61147 15.1164C4.50652 15.4356 4.49846 15.7788 4.58829 16.1027C4.67812 16.4265 4.86183 16.7166 5.11625 16.9361L10.5414 21.6077L8.89028 28.5955C8.81281 28.9226 8.83409 29.2652 8.95145 29.5801C9.06881 29.895 9.27696 30.1681 9.54956 30.3646C9.81879 30.5641 10.142 30.6776 10.4768 30.6902C10.8116 30.7028 11.1425 30.614 11.426 30.4354L17.4998 26.7015L23.5831 30.4413C23.8665 30.6199 24.1974 30.7087 24.5322 30.6961C24.867 30.6835 25.1902 30.57 25.4595 30.3705C25.7321 30.174 25.9402 29.9009 26.0576 29.586C26.1749 29.2711 26.1962 28.9285 26.1187 28.6014L24.4676 21.6136L29.8833 16.9361C30.1382 16.7164 30.3222 16.426 30.4121 16.1016C30.5019 15.7773 30.4936 15.4336 30.3881 15.114ZM28.9563 15.8653L23.2139 20.8187C23.1159 20.9032 23.043 21.013 23.0031 21.1361C22.9632 21.2592 22.9578 21.3909 22.9875 21.5169L24.7424 28.9222C24.7578 28.9781 24.7552 29.0374 24.7351 29.0918C24.715 29.1462 24.6784 29.1929 24.6304 29.2253C24.5868 29.259 24.5339 29.2782 24.4789 29.2803C24.424 29.2824 24.3697 29.2673 24.3237 29.2371L17.8701 25.272C17.7587 25.2036 17.6305 25.1674 17.4998 25.1674C17.3691 25.1674 17.2409 25.2036 17.1295 25.272L10.6759 29.236C10.6299 29.2662 10.5756 29.2813 10.5207 29.2791C10.4657 29.277 10.4128 29.2578 10.3692 29.2242C10.3201 29.1925 10.2823 29.1462 10.2611 29.0917C10.2399 29.0373 10.2365 28.9776 10.2513 28.9211L12.0062 21.5157C12.0359 21.3897 12.0305 21.258 11.9906 21.1349C11.9507 21.0118 11.8778 20.902 11.7798 20.8175L6.03735 15.8641C5.9923 15.8274 5.9598 15.7776 5.94437 15.7216C5.92894 15.6656 5.93134 15.6061 5.95126 15.5515C5.96664 15.4977 5.99843 15.4501 6.04219 15.4152C6.08595 15.3803 6.13951 15.3599 6.19539 15.3569L13.734 14.7484C13.8639 14.7378 13.9884 14.6916 14.0937 14.6148C14.199 14.538 14.281 14.4337 14.3308 14.3132L17.2356 7.28406C17.2559 7.23202 17.2914 7.18732 17.3374 7.1558C17.3835 7.12428 17.4381 7.10742 17.4939 7.10742C17.5497 7.10742 17.6043 7.12428 17.6504 7.1558C17.6964 7.18732 17.7319 7.23202 17.7522 7.28406L20.657 14.3132C20.7068 14.4337 20.7888 14.538 20.8941 14.6148C20.9994 14.6916 21.1239 14.7378 21.2538 14.7484L28.7924 15.3569C28.8483 15.3599 28.9018 15.3803 28.9456 15.4152C28.9894 15.4501 29.0212 15.4977 29.0365 15.5515C29.0574 15.6057 29.0609 15.665 29.0465 15.7212C29.0321 15.7774 29.0006 15.8278 28.9563 15.8653Z" fill="#0A0A0A"/>
</svg>
