<svg width="35" height="36" viewBox="0 0 35 36" fill="none" xmlns="http://www.w3.org/2000/svg">
<path d="M30.388 15.114C30.2869 14.7943 30.0921 14.5124 29.8288 14.3048C29.5655 14.0972 29.2459 13.9736 28.9114 13.9499L21.8056 13.3756L19.0671 6.74744C18.9393 6.43676 18.7221 6.17106 18.443 5.98408C18.164 5.7971 17.8356 5.69727 17.4997 5.69727C17.1638 5.69727 16.8354 5.7971 16.5564 5.98408C16.2773 6.17106 16.0601 6.43676 15.9323 6.74744L13.1938 13.3732L6.08797 13.9499C5.75323 13.9738 5.4334 14.0978 5.17007 14.3058C4.90673 14.5138 4.71206 14.7962 4.61138 15.1164C4.50643 15.4356 4.49836 15.7788 4.5882 16.1027C4.67803 16.4265 4.86174 16.7166 5.11616 16.9361L10.5413 21.6077L8.89019 28.5955C8.81271 28.9226 8.834 29.2652 8.95136 29.5801C9.06872 29.895 9.27687 30.1681 9.54947 30.3646C9.8187 30.5641 10.1419 30.6776 10.4767 30.6902C10.8116 30.7028 11.1424 30.614 11.4259 30.4354L17.4997 26.7015L23.583 30.4413C23.8665 30.6199 24.1973 30.7087 24.5321 30.6961C24.8669 30.6835 25.1901 30.57 25.4594 30.3705C25.732 30.174 25.9401 29.9009 26.0575 29.586C26.1748 29.2711 26.1961 28.9285 26.1186 28.6014L24.4675 21.6136L29.8832 16.9361C30.1381 16.7164 30.3221 16.426 30.412 16.1016C30.5018 15.7773 30.4935 15.4336 30.388 15.114ZM28.9562 15.8653L23.2138 20.8187C23.1158 20.9032 23.0429 21.013 23.003 21.1361C22.9631 21.2592 22.9577 21.3909 22.9874 21.5169L24.7423 28.9222C24.7577 28.9781 24.7551 29.0374 24.735 29.0918C24.7149 29.1462 24.6783 29.1929 24.6303 29.2253C24.5867 29.259 24.5338 29.2782 24.4788 29.2803C24.4239 29.2824 24.3696 29.2673 24.3236 29.2371L17.87 25.272C17.7586 25.2036 17.6304 25.1674 17.4997 25.1674C17.369 25.1674 17.2408 25.2036 17.1294 25.272L10.6758 29.236C10.6298 29.2662 10.5755 29.2813 10.5206 29.2791C10.4656 29.277 10.4127 29.2578 10.3691 29.2242C10.3201 29.1925 10.2822 29.1462 10.261 29.0917C10.2399 29.0373 10.2364 28.9776 10.2512 28.9211L12.0061 21.5157C12.0358 21.3897 12.0304 21.258 11.9905 21.1349C11.9506 21.0118 11.8777 20.902 11.7797 20.8175L6.03726 15.8641C5.99221 15.8274 5.95971 15.7776 5.94428 15.7216C5.92885 15.6656 5.93125 15.6061 5.95116 15.5515C5.96655 15.4977 5.99834 15.4501 6.0421 15.4152C6.08586 15.3803 6.13941 15.3599 6.1953 15.3569L13.7339 14.7484C13.8638 14.7378 13.9883 14.6916 14.0936 14.6148C14.1989 14.538 14.2809 14.4337 14.3307 14.3132L17.2355 7.28406C17.2558 7.23202 17.2913 7.18732 17.3373 7.1558C17.3834 7.12428 17.438 7.10742 17.4938 7.10742C17.5496 7.10742 17.6042 7.12428 17.6503 7.1558C17.6963 7.18732 17.7318 7.23202 17.7521 7.28406L20.6569 14.3132C20.7067 14.4337 20.7887 14.538 20.894 14.6148C20.9993 14.6916 21.1238 14.7378 21.2537 14.7484L28.7923 15.3569C28.8482 15.3599 28.9018 15.3803 28.9455 15.4152C28.9893 15.4501 29.0211 15.4977 29.0364 15.5515C29.0573 15.6057 29.0608 15.665 29.0464 15.7212C29.032 15.7774 29.0005 15.8278 28.9562 15.8653Z" fill="#0A0A0A"/>
</svg>
