<svg width="35" height="36" viewBox="0 0 35 36" fill="none" xmlns="http://www.w3.org/2000/svg">
<path d="M22.0132 13.0165C22.0132 15.2031 20.0561 17.0858 17.5 17.0858C14.9439 17.0858 12.9868 15.2031 12.9868 13.0165C12.9868 10.83 14.9439 8.94727 17.5 8.94727C20.0561 8.94727 22.0132 10.83 22.0132 13.0165ZM26.5342 26.3925C26.6498 26.8702 26.2549 27.4473 25.5 27.4473H9.5C8.74511 27.4473 8.35022 26.8702 8.46583 26.3925C8.58044 25.919 8.74032 25.4538 8.94454 25.0023C9.40388 23.9869 10.0792 23.0597 10.9354 22.2757C11.7918 21.4916 12.8119 20.8664 13.9391 20.4389C15.0664 20.0114 16.2765 19.7906 17.5 19.7906C18.7235 19.7906 19.9336 20.0114 21.0609 20.4389C22.1881 20.8664 23.2082 21.4916 24.0646 22.2757C24.9208 23.0597 25.5961 23.9869 26.0555 25.0023C26.2597 25.4538 26.4196 25.919 26.5342 26.3925Z" stroke="#0A0A0A" stroke-width="1.5"/>
</svg>
