<svg width="35" height="36" viewBox="0 0 35 36" fill="none" xmlns="http://www.w3.org/2000/svg">
<path d="M25.7032 18.1973C25.7032 17.2908 25.3431 16.4214 24.7021 15.7804C24.0611 15.1394 23.1917 14.7793 22.2852 14.7793C21.3787 14.7793 20.5093 15.1394 19.8684 15.7804C19.2274 16.4214 18.8673 17.2908 18.8673 18.1973M9.29694 5.89258V18.1973M12.7149 5.20898V12.0449M16.1329 4.52539V12.0449M6.56256 7.94336L9.29694 7.5168M28.4376 4.52539L19.5508 5.91445M6.56256 11.3613L9.29694 11.1904M28.4376 9.99414L19.5508 10.5492M7.80807 18.1973H27.1934C29.3837 18.1973 30.1876 18.7031 29.6407 20.907C28.6755 24.7939 25.9452 25.7592 23.4214 28.2953C22.8089 28.9105 23.7631 29.8225 23.7631 30.5006C23.7631 31.7775 22.5505 31.8691 21.5825 31.8691H13.4204C12.4524 31.8691 11.2383 31.7775 11.2397 30.502C11.2397 29.8375 12.1653 28.8832 11.5815 28.2953C9.05768 25.7592 6.32741 24.7939 5.36217 20.907C4.8153 18.7045 5.6192 18.1973 7.80944 18.1973" stroke="#0A0A0A" stroke-width="1.5" stroke-linecap="round" stroke-linejoin="round"/>
</svg>
