<svg width="35" height="36" viewBox="0 0 35 36" fill="none" xmlns="http://www.w3.org/2000/svg">
<path d="M30.1677 20.6355L23.223 8.70064L23.2118 8.68198C22.6088 7.71143 21.7684 6.91068 20.7698 6.35543C19.7712 5.80019 18.6475 5.50879 17.5049 5.50879C16.3624 5.50879 15.2387 5.80019 14.2401 6.35543C13.2415 6.91068 12.401 7.71143 11.7981 8.68198L11.7869 8.70064L4.83227 20.6355C4.2031 21.653 3.85703 22.8201 3.82983 24.0161C3.80263 25.2121 4.09528 26.3937 4.67754 27.4387C5.25981 28.4838 6.11056 29.3544 7.1419 29.9607C8.17324 30.5669 9.34774 30.8867 10.5441 30.8871H24.4559C25.6522 30.8867 26.8267 30.5669 27.858 29.9607C28.8894 29.3544 29.7401 28.4838 30.3224 27.4387C30.9047 26.3937 31.1973 25.2121 31.1701 24.0161C31.1429 22.8201 30.7968 21.653 30.1677 20.6355ZM21.73 29.3942H13.2699V23.1736C13.2699 23.1076 13.2962 23.0443 13.3428 22.9976C13.3895 22.951 13.4528 22.9247 13.5188 22.9247H21.4812C21.5472 22.9247 21.6105 22.951 21.6571 22.9976C21.7038 23.0443 21.73 23.1076 21.73 23.1736V29.3942ZM29.0218 26.7094C28.5745 27.5278 27.9137 28.2097 27.1097 28.6824C26.3057 29.1552 25.3886 29.4012 24.4559 29.3942H23.223V23.1736C23.223 22.7116 23.0394 22.2686 22.7128 21.9419C22.3862 21.6153 21.9431 21.4318 21.4812 21.4318H13.5188C13.0568 21.4318 12.6138 21.6153 12.2871 21.9419C11.9605 22.2686 11.777 22.7116 11.777 23.1736V29.3942H10.5441C9.61283 29.3939 8.69861 29.1447 7.896 28.6725C7.0934 28.2002 6.43158 27.5221 5.97903 26.7082C5.52649 25.8943 5.29966 24.9743 5.32203 24.0434C5.3444 23.1124 5.61515 22.2043 6.10626 21.4131L6.11621 21.3957L13.0671 9.4608C13.5367 8.7085 14.1899 8.08807 14.9654 7.65793C15.7409 7.22779 16.6132 7.00209 17.5 7.00209C18.3868 7.00209 19.259 7.22779 20.0345 7.65793C20.81 8.08807 21.4633 8.7085 21.9328 9.4608L28.8837 21.3957L28.8937 21.4131C29.3915 22.202 29.6663 23.1111 29.6886 24.0437C29.711 24.9763 29.4801 25.8975 29.0206 26.7094H29.0218Z" fill="#0A0A0A"/>
</svg>
