<svg width="35" height="36" viewBox="0 0 35 36" fill="none" xmlns="http://www.w3.org/2000/svg">
<path d="M25.7031 18.1973C25.7031 17.2908 25.343 16.4214 24.702 15.7804C24.061 15.1394 23.1916 14.7793 22.2851 14.7793C21.3786 14.7793 20.5092 15.1394 19.8682 15.7804C19.2272 16.4214 18.8671 17.2908 18.8671 18.1973M9.29682 5.89258V18.1973M12.7148 5.20898V12.0449M16.1328 4.52539V12.0449M6.56244 7.94336L9.29682 7.5168M28.4374 4.52539L19.5507 5.91445M6.56244 11.3613L9.29682 11.1904M28.4374 9.99414L19.5507 10.5492M7.80795 18.1973H27.1933C29.3835 18.1973 30.1874 18.7031 29.6406 20.907C28.6753 24.7939 25.9451 25.7592 23.4212 28.2953C22.8087 28.9105 23.763 29.8225 23.763 30.5006C23.763 31.7775 22.5503 31.8691 21.5824 31.8691H13.4203C12.4523 31.8691 11.2382 31.7775 11.2396 30.502C11.2396 29.8375 12.1652 28.8832 11.5814 28.2953C9.05756 25.7592 6.32728 24.7939 5.36205 20.907C4.81518 18.7045 5.61908 18.1973 7.80932 18.1973" stroke="#0A0A0A" stroke-width="1.5" stroke-linecap="round" stroke-linejoin="round"/>
</svg>
