<svg width="35" height="36" viewBox="0 0 35 36" fill="none" xmlns="http://www.w3.org/2000/svg">
<path d="M17.5 32.7807L25.5208 24.7599C27.1071 23.1735 28.1873 21.1524 28.625 18.9521C29.0626 16.7518 28.8379 14.4712 27.9794 12.3985C27.1209 10.3259 25.667 8.55443 23.8017 7.30808C21.9364 6.06172 19.7434 5.39648 17.5 5.39648C15.2566 5.39648 13.0636 6.06172 11.1982 7.30808C9.33292 8.55443 7.87907 10.3259 7.02053 12.3985C6.162 14.4712 5.93734 16.7518 6.37497 18.9521C6.8126 21.1524 7.89285 23.1735 9.47914 24.7599L17.5 32.7807Z" stroke="#0A0A0A" stroke-width="1.5" stroke-linejoin="round"/>
<g clip-path="url(#clip0_1940_18988)">
<path d="M13.2827 10.7031H13.2726C13.2261 10.7041 13.1801 10.7135 13.137 10.7309C13.0745 10.7556 13.0196 10.7962 12.9777 10.8487C12.9358 10.9011 12.9083 10.9636 12.898 11.03C12.8857 11.1024 12.5079 13.4744 12.5079 14.5574C12.5079 15.2897 12.8487 15.9427 13.379 16.3651C13.5717 16.52 13.6642 16.6881 13.6642 16.8284V17.2138C13.6642 17.2277 13.6635 17.2416 13.6619 17.2554C13.6411 17.4559 13.5455 18.357 13.4553 19.2836C13.3667 20.197 13.2788 21.1722 13.2788 21.4952C13.2788 21.904 13.4412 22.2962 13.7304 22.5853C14.0195 22.8744 14.4116 23.0369 14.8205 23.0369C15.2294 23.0369 15.6216 22.8744 15.9107 22.5853C16.1998 22.2962 16.3622 21.904 16.3622 21.4952C16.3622 21.1714 16.2744 20.197 16.1857 19.2836C16.1198 18.6075 16.0509 17.9317 15.9791 17.2562L15.9768 17.2138V16.8284C15.9768 16.6873 16.0693 16.52 16.262 16.3651C16.5337 16.1486 16.753 15.8736 16.9038 15.5607C17.0546 15.2477 17.133 14.9048 17.1331 14.5574C17.1331 13.4721 16.7531 11.0893 16.743 11.0292C16.7317 10.9567 16.6999 10.889 16.6515 10.834C16.603 10.779 16.5398 10.7389 16.4694 10.7185C16.4371 10.7091 16.4036 10.7039 16.3699 10.7031H16.3545H16.3553C16.2526 10.7039 16.1544 10.7453 16.082 10.8182C16.0097 10.8911 15.9691 10.9897 15.9691 11.0924V14.1758C15.9702 14.226 15.9613 14.2758 15.9432 14.3225C15.925 14.3692 15.8977 14.4118 15.8631 14.448C15.8284 14.4842 15.7869 14.5132 15.741 14.5334C15.6951 14.5535 15.6457 14.5645 15.5956 14.5655C15.5455 14.5666 15.4957 14.5578 15.449 14.5396C15.4023 14.5214 15.3596 14.4942 15.3234 14.4595C15.2873 14.4248 15.2583 14.3833 15.2381 14.3374C15.2179 14.2916 15.207 14.2421 15.206 14.192V11.0886C15.206 10.9863 15.1653 10.8883 15.0931 10.816C15.0208 10.7437 14.9227 10.7031 14.8205 10.7031C14.7183 10.7031 14.6203 10.7437 14.548 10.816C14.4757 10.8883 14.4351 10.9863 14.4351 11.0886V14.172L14.4359 14.1967C14.4331 14.2979 14.3903 14.3938 14.3167 14.4634C14.2432 14.533 14.1451 14.5706 14.0439 14.5678C13.9427 14.5651 13.8467 14.5222 13.7771 14.4487C13.7075 14.3752 13.67 14.277 13.6727 14.1758V11.0932C13.6727 10.9899 13.6317 10.8908 13.5587 10.8176C13.4858 10.7445 13.386 10.7033 13.2827 10.7031ZM18.2894 14.172C18.2894 13.252 18.6549 12.3697 19.3054 11.7191C19.9559 11.0686 20.8383 10.7031 21.7583 10.7031C21.8605 10.7031 21.9585 10.7437 22.0308 10.816C22.1031 10.8883 22.1437 10.9863 22.1437 11.0886V16.4676L22.1591 16.6403C22.2192 17.3329 22.2778 18.0257 22.3349 18.7185C22.4304 19.8802 22.5291 21.1552 22.5291 21.4952C22.5291 21.904 22.3667 22.2962 22.0776 22.5853C21.7884 22.8744 21.3963 23.0369 20.9874 23.0369C20.5785 23.0369 20.1864 22.8744 19.8972 22.5853C19.6081 22.2962 19.4457 21.904 19.4457 21.4952C19.4457 21.156 19.5443 19.8802 19.6399 18.7185C19.6877 18.1319 19.7363 17.5645 19.7725 17.1444L19.7956 16.87H19.4457C19.139 16.87 18.8449 16.7482 18.6281 16.5313C18.4112 16.3145 18.2894 16.0204 18.2894 15.7137V14.172Z" fill="#0A0A0A"/>
</g>
<defs>
<clipPath id="clip0_1940_18988">
<rect width="12.5265" height="12.5265" fill="white" transform="translate(11.2553 10.6064)"/>
</clipPath>
</defs>
</svg>
