<svg width="35" height="36" viewBox="0 0 35 36" fill="none" xmlns="http://www.w3.org/2000/svg">
<path d="M23.4062 4.52539V4.91598C23.4062 6.44408 22.7992 7.90961 21.7186 8.99014C20.6381 10.0707 19.1726 10.6777 17.6445 10.6777V10.2871C17.6445 8.75898 18.2515 7.29345 19.332 6.21292C20.4126 5.13239 21.8781 4.52539 23.4062 4.52539Z" stroke="#0A0A0A" stroke-width="1.43572" stroke-linejoin="round"/>
<path d="M4.9491 28.2559H31.0234C31.0234 29.2142 30.6427 30.1332 29.9651 30.8108C29.2875 31.4885 28.3684 31.8691 27.4101 31.8691H8.46477C7.50647 31.8691 6.58738 31.4885 5.90975 30.8108C5.23213 30.1332 4.85147 29.2142 4.85147 28.2559H4.9491Z" stroke="#0A0A0A" stroke-width="1.43572" stroke-linecap="round" stroke-linejoin="round"/>
<path d="M21.9413 24.545L21.2577 17.2208C21.1635 16.4001 20.7753 15.6414 20.1649 15.0848C19.5545 14.5283 18.7633 14.2116 17.9375 14.1934C17.0947 14.1879 16.2797 14.4939 15.6488 15.0527C15.018 15.6114 14.6158 16.3836 14.5195 17.2208L13.8359 24.545" stroke="#0A0A0A" stroke-width="1.43572" stroke-linecap="round" stroke-linejoin="round"/>
<path d="M14.7145 16.3416C14.5087 15.759 14.124 15.2564 13.6154 14.9056C13.1067 14.5548 12.5002 14.3738 11.8825 14.3885C11.119 14.4091 10.3894 14.7085 9.83162 15.2303C9.27384 15.7521 8.92645 16.4601 8.85512 17.2206L7.68329 23.8612" stroke="#0A0A0A" stroke-width="1.43572" stroke-linecap="round" stroke-linejoin="round"/>
<path d="M21.1601 16.3418C21.3893 15.7749 21.7798 15.2876 22.2832 14.9404C22.7866 14.5933 23.3807 14.4014 23.9921 14.3887C24.7556 14.4092 25.4852 14.7086 26.043 15.2304C26.6008 15.7522 26.9481 16.4602 27.0195 17.2207L28.1914 23.8613" stroke="#0A0A0A" stroke-width="1.43572" stroke-linecap="round" stroke-linejoin="round"/>
</svg>
