<svg width="35" height="36" viewBox="0 0 35 36" fill="none" xmlns="http://www.w3.org/2000/svg">
<path d="M22.113 22.3682C19.48 23.9646 17.977 27.2715 17.5 28.1973V13.665C17.915 12.862 19.102 10.5605 21.132 8.99747C21.987 8.33867 22.414 8.00927 22.957 8.30853C23.5 8.60994 23.5 9.27304 23.5 10.5982V20.1141C23.5 20.831 23.5 21.1895 23.363 21.4403C23.227 21.6922 22.855 21.9172 22.113 22.3682Z" stroke="#252525" stroke-width="1.5" stroke-linecap="round" stroke-linejoin="round"/>
<path d="M17.5 13.4563C16.813 12.6791 14.822 10.8341 11.48 10.1882C9.788 9.85986 8.942 9.69624 8.22 10.3238C7.5 10.9525 7.5 11.9708 7.5 14.0107V21.3403C7.5 23.2048 7.5 24.137 7.963 24.7194C8.425 25.3006 9.443 25.4987 11.481 25.8927C13.296 26.2436 14.713 26.8045 15.739 27.3675C16.749 27.9208 17.253 28.1974 17.5 28.1974C17.747 28.1974 18.252 27.9208 19.26 27.3675C20.287 26.8045 21.704 26.2436 23.52 25.8927C25.556 25.4987 26.575 25.3006 27.037 24.7194C27.5 24.137 27.5 23.2048 27.5 21.3393V14.0118C27.5 11.973 27.5 10.9535 26.78 10.3249C26.057 9.69624 24.5 10.1882 23.5 10.974" stroke="#252525" stroke-width="1.5" stroke-linecap="round" stroke-linejoin="round"/>
</svg>
