<svg width="35" height="36" viewBox="0 0 35 36" fill="none" xmlns="http://www.w3.org/2000/svg">
<path d="M23.4062 4.52539V4.91598C23.4062 6.44408 22.7992 7.90961 21.7187 8.99014C20.6382 10.0707 19.1726 10.6777 17.6445 10.6777V10.2871C17.6445 8.75898 18.2516 7.29345 19.3321 6.21292C20.4126 5.13239 21.8781 4.52539 23.4062 4.52539Z" stroke="#0A0A0A" stroke-width="1.43572" stroke-linejoin="round"/>
<path d="M4.9492 28.2559H31.0235C31.0235 29.2142 30.6428 30.1332 29.9652 30.8108C29.2876 31.4885 28.3685 31.8691 27.4102 31.8691H8.46486C7.50656 31.8691 6.58747 31.4885 5.90984 30.8108C5.23222 30.1332 4.85156 29.2142 4.85156 28.2559H4.9492Z" stroke="#0A0A0A" stroke-width="1.43572" stroke-linecap="round" stroke-linejoin="round"/>
<path d="M21.9414 24.545L21.2578 17.2208C21.1636 16.4001 20.7754 15.6414 20.165 15.0848C19.5546 14.5283 18.7633 14.2116 17.9375 14.1934C17.0948 14.1879 16.2797 14.4939 15.6489 15.0527C15.018 15.6114 14.6158 16.3836 14.5195 17.2208L13.8359 24.545" stroke="#0A0A0A" stroke-width="1.43572" stroke-linecap="round" stroke-linejoin="round"/>
<path d="M14.7148 16.3416C14.509 15.759 14.1243 15.2564 13.6157 14.9056C13.107 14.5548 12.5005 14.3738 11.8828 14.3885C11.1193 14.4091 10.3897 14.7085 9.83193 15.2303C9.27415 15.7521 8.92675 16.4601 8.85542 17.2206L7.68359 23.8612" stroke="#0A0A0A" stroke-width="1.43572" stroke-linecap="round" stroke-linejoin="round"/>
<path d="M21.1602 16.3418C21.3893 15.7749 21.7798 15.2876 22.2832 14.9404C22.7866 14.5933 23.3808 14.4014 23.9922 14.3887C24.7557 14.4092 25.4853 14.7086 26.043 15.2304C26.6008 15.7522 26.9482 16.4602 27.0195 17.2207L28.1914 23.8613" stroke="#0A0A0A" stroke-width="1.43572" stroke-linecap="round" stroke-linejoin="round"/>
</svg>
