<svg width="35" height="36" viewBox="0 0 35 36" fill="none" xmlns="http://www.w3.org/2000/svg">
<path d="M14.4402 23.9684L11.6553 26.7533C12.0703 27.2358 12.3075 27.8458 12.3275 28.4818C12.3027 29.1272 12.0287 29.7379 11.5631 30.1856C11.0976 30.6332 10.4766 30.8831 9.83073 30.8826C9.19401 30.8826 8.58338 30.6296 8.13315 30.1794C7.68292 29.7292 7.42998 29.1186 7.42998 28.4818C6.79326 28.4818 6.18263 28.2289 5.7324 27.7787C5.28218 27.3285 5.02924 26.7178 5.02924 26.0811C5.02876 25.4352 5.27861 24.8143 5.72628 24.3487C6.17394 23.8831 6.78458 23.6092 7.42998 23.5843C8.06604 23.6043 8.67608 23.8415 9.15854 24.2565L11.9434 21.4717" stroke="#0A0A0A" stroke-width="1.5" stroke-linecap="round" stroke-linejoin="round"/>
<path d="M27.3082 8.60388L28.7486 10.0443C29.6693 10.9786 30.1855 12.2377 30.1855 13.5494C30.1855 14.8612 29.6693 16.1202 28.7486 17.0545L28.1724 17.6307C25.4923 20.2465 22.1859 22.1312 18.5694 23.1044L14.5362 24.0647L13.1918 22.7203L11.8474 21.3758L12.9037 17.3426C13.8004 13.723 15.6972 10.4285 18.3774 7.83566L18.9536 7.16343C19.8878 6.2427 21.1469 5.72656 22.4587 5.72656C23.7704 5.72656 25.0295 6.2427 25.9637 7.16343L27.3082 8.60388Z" stroke="#0A0A0A" stroke-width="1.5" stroke-linecap="round" stroke-linejoin="round"/>
</svg>
