<svg width="35" height="36" viewBox="0 0 35 36" fill="none" xmlns="http://www.w3.org/2000/svg">
<path d="M30.7344 13.9321C30.776 14.7405 30.7023 15.5507 30.5156 16.3383C30.1783 18.1998 29.4325 19.9633 28.3319 21.5019C27.2313 23.0405 25.8032 24.3159 24.1505 25.2364C22.4978 26.1569 20.6616 26.6996 18.774 26.8252C16.8865 26.9509 14.9945 26.6566 13.2344 25.9633C12.6932 25.7749 12.1785 25.5176 11.7031 25.1977L10.9375 24.7602C10.9375 24.6508 10.8281 24.5414 10.8281 24.4321C10.3888 23.2417 10.1665 21.9822 10.1719 20.7133V20.0571C10.0823 19.737 10.0453 19.4046 10.0625 19.0727C10.0537 16.367 10.8954 13.727 12.4687 11.5258C11.1176 10.8199 9.61812 10.4451 8.09375 10.4321H7.32812C8.14461 9.56965 9.12813 8.88247 10.2187 8.41237C11.3094 7.94228 12.4843 7.69911 13.6719 7.6977C14.5215 7.69161 15.3679 7.802 16.1875 8.02581C18.2323 6.79034 20.5798 6.14668 22.9688 6.16646C25.1416 6.15295 27.2838 6.67909 29.2031 7.6977C30.2092 9.62181 30.7345 11.7608 30.7344 13.9321Z" stroke="#0A0A0A" stroke-width="1.5" stroke-linecap="round" stroke-linejoin="round"/>
<path d="M10.8281 24.7598L10.3906 27.9316L10.0625 31.2129L7.21876 28.3691L4.375 25.5254L7.65625 25.1973L10.8281 24.7598Z" stroke="#0A0A0A" stroke-width="1.5" stroke-linecap="round" stroke-linejoin="round"/>
<path d="M28.6563 20.3848C25.5134 20.3559 22.509 19.0871 20.2968 16.8545C18.0846 14.6218 16.8436 11.6059 16.8438 8.46289" stroke="#0A0A0A" stroke-width="1.5" stroke-linecap="round" stroke-linejoin="round"/>
<path d="M23.625 12.0723C24.2895 12.0723 24.8281 11.5336 24.8281 10.8691C24.8281 10.2047 24.2895 9.66602 23.625 9.66602C22.9605 9.66602 22.4219 10.2047 22.4219 10.8691C22.4219 11.5336 22.9605 12.0723 23.625 12.0723Z" fill="#0A0A0A"/>
</svg>
