<svg width="35" height="36" viewBox="0 0 35 36" fill="none" xmlns="http://www.w3.org/2000/svg">
<path d="M30.8831 14.6316C30.8831 16.0842 30.3061 17.4774 29.2789 18.5045C28.2517 19.5317 26.8585 20.1088 25.4059 20.1088C24.0715 20.117 22.7817 19.629 21.787 18.7395C21.1686 19.8974 20.2388 20.8595 19.1026 21.517C17.9664 22.1746 16.669 22.5015 15.3569 22.4608C14.0448 22.4201 12.7702 22.0135 11.6769 21.2868C10.5837 20.5601 9.7153 19.5423 9.16981 18.3483C8.63182 18.743 7.97859 18.9493 7.31144 18.9351C6.84905 18.9351 6.39119 18.844 5.96399 18.6671C5.53679 18.4901 5.14865 18.2308 4.82169 17.9038C4.49473 17.5768 4.23535 17.1887 4.0584 16.7615C3.88145 16.3343 3.79039 15.8764 3.79039 15.414C3.78045 14.7215 3.9808 14.0423 4.36498 13.466C4.74915 12.8897 5.29907 12.4435 5.94214 12.1864C5.77571 11.6488 5.70942 11.0852 5.74654 10.5236C5.75517 9.28918 6.14034 8.08674 6.85061 7.07704C7.56088 6.06734 8.56243 5.29847 9.72135 4.87318C10.8803 4.44788 12.1414 4.38643 13.3362 4.69702C14.5309 5.00762 15.6025 5.67548 16.4076 6.61134C17.5445 5.78471 18.9142 5.33958 20.3199 5.33984C21.5508 5.33915 22.7527 5.71306 23.766 6.41188C24.7793 7.1107 25.556 8.10134 25.9927 9.25214C27.3331 9.37448 28.5788 9.99481 29.4842 10.9907C30.3895 11.9866 30.8887 13.2857 30.8831 14.6316Z" stroke="#0A0A0A" stroke-width="1.48625" stroke-linecap="round" stroke-linejoin="round"/>
<path d="M25.406 20.1084C25.406 20.1084 20.6135 20.9887 20.6135 31.8453H15.6253C15.6253 31.8453 15.9187 24.3141 11.0283 20.6952" stroke="#0A0A0A" stroke-width="1.48625" stroke-linecap="round" stroke-linejoin="round"/>
</svg>
