<svg width="35" height="36" viewBox="0 0 35 36" fill="none" xmlns="http://www.w3.org/2000/svg">
<path d="M14.4402 23.9684L11.6554 26.7533C12.0704 27.2358 12.3076 27.8458 12.3276 28.4818C12.3027 29.1272 12.0288 29.7379 11.5632 30.1856C11.0976 30.6332 10.4767 30.8831 9.83079 30.8826C9.19407 30.8826 8.58344 30.6296 8.13321 30.1794C7.68298 29.7292 7.43004 29.1186 7.43004 28.4818C6.79333 28.4818 6.18269 28.2289 5.73247 27.7787C5.28224 27.3285 5.0293 26.7178 5.0293 26.0811C5.02882 25.4352 5.27868 24.8143 5.72634 24.3487C6.174 23.8831 6.78464 23.6092 7.43004 23.5843C8.0661 23.6043 8.67615 23.8415 9.1586 24.2565L11.9435 21.4717" stroke="#0A0A0A" stroke-width="1.5" stroke-linecap="round" stroke-linejoin="round"/>
<path d="M27.3085 8.60388L28.7489 10.0443C29.6697 10.9786 30.1858 12.2377 30.1858 13.5494C30.1858 14.8612 29.6697 16.1202 28.7489 17.0545L28.1727 17.6307C25.4926 20.2465 22.1862 22.1312 18.5697 23.1044L14.5365 24.0647L13.1921 22.7203L11.8477 21.3758L12.904 17.3426C13.8007 13.723 15.6975 10.4285 18.3777 7.83566L18.9539 7.16343C19.8881 6.2427 21.1472 5.72656 22.459 5.72656C23.7707 5.72656 25.0298 6.2427 25.9641 7.16343L27.3085 8.60388Z" stroke="#0A0A0A" stroke-width="1.5" stroke-linecap="round" stroke-linejoin="round"/>
</svg>
