<svg width="35" height="36" viewBox="0 0 35 36" fill="none" xmlns="http://www.w3.org/2000/svg">
<path d="M27.5 28.1973L22.6745 23.3718M22.6745 23.3718C23.4999 22.5463 24.1547 21.5664 24.6014 20.488C25.0481 19.4095 25.278 18.2536 25.278 17.0863C25.278 15.919 25.0481 14.7631 24.6014 13.6846C24.1547 12.6061 23.4999 11.6262 22.6745 10.8008C21.8491 9.97538 20.8692 9.32062 19.7907 8.8739C18.7122 8.42719 17.5563 8.19727 16.389 8.19727C15.2217 8.19727 14.0658 8.42719 12.9873 8.8739C11.9089 9.32062 10.929 9.97538 10.1035 10.8008C8.43652 12.4678 7.5 14.7288 7.5 17.0863C7.5 19.4438 8.43652 21.7048 10.1035 23.3718C11.7705 25.0388 14.0315 25.9753 16.389 25.9753C18.7465 25.9753 21.0075 25.0388 22.6745 23.3718Z" stroke="#0A0A0A" stroke-width="1.5" stroke-linecap="round" stroke-linejoin="round"/>
</svg>
