<svg width="35" height="36" viewBox="0 0 35 36" fill="none" xmlns="http://www.w3.org/2000/svg">
<path d="M21.9856 29.9893C21.9856 30.1771 21.911 30.3571 21.7782 30.4899C21.6455 30.6227 21.4654 30.6973 21.2776 30.6973H13.726C13.5382 30.6973 13.3581 30.6227 13.2254 30.4899C13.0926 30.3571 13.018 30.1771 13.018 29.9893C13.018 29.8015 13.0926 29.6215 13.2254 29.4887C13.3581 29.3559 13.5382 29.2813 13.726 29.2813H21.2776C21.4654 29.2813 21.6455 29.3559 21.7782 29.4887C21.911 29.6215 21.9856 29.8015 21.9856 29.9893ZM29.0287 10.7834C27.9875 8.74701 26.4233 7.02435 24.4965 5.79222C24.3381 5.70069 24.1504 5.67405 23.9727 5.71789C23.7951 5.76173 23.6413 5.87264 23.5437 6.02736C23.446 6.18209 23.412 6.36862 23.4489 6.54783C23.4857 6.72705 23.5905 6.88504 23.7413 6.98868C25.4621 8.08103 26.8562 9.61743 27.7767 11.4359C27.8196 11.5184 27.8783 11.5917 27.9494 11.6515C28.0206 11.7113 28.1028 11.7566 28.1915 11.7846C28.2801 11.8127 28.3734 11.823 28.466 11.815C28.5587 11.807 28.6488 11.7808 28.7313 11.7379C28.8138 11.6951 28.8871 11.6364 28.9469 11.5653C29.0068 11.4941 29.052 11.4119 29.08 11.3232C29.1081 11.2346 29.1184 11.1413 29.1104 11.0487C29.1024 10.956 29.0762 10.8659 29.0334 10.7834H29.0287ZM7.24574 11.4359C8.16628 9.61743 9.56041 8.08103 11.2811 6.98868C11.4319 6.88504 11.5367 6.72705 11.5736 6.54783C11.6104 6.36862 11.5765 6.18209 11.4788 6.02736C11.3812 5.87264 11.2274 5.76173 11.0498 5.71789C10.8721 5.67405 10.6844 5.70069 10.526 5.79222C8.59918 7.02435 7.03494 8.74701 5.99382 10.7834C5.94223 10.8662 5.90831 10.9587 5.89418 11.0552C5.88006 11.1518 5.88603 11.2502 5.91172 11.3443C5.93741 11.4384 5.98228 11.5261 6.04349 11.6021C6.10471 11.678 6.18096 11.7405 6.26747 11.7856C6.35397 11.8307 6.44885 11.8574 6.54617 11.8641C6.64349 11.8708 6.74114 11.8573 6.83299 11.8244C6.92485 11.7916 7.00892 11.7401 7.07995 11.6733C7.15098 11.6064 7.20742 11.5256 7.24574 11.4359ZM28.3667 24.4353C28.5131 24.6856 28.5911 24.97 28.5928 25.2599C28.5945 25.5499 28.5199 25.8351 28.3764 26.0871C28.2329 26.339 28.0256 26.5488 27.7753 26.6952C27.5251 26.8417 27.2407 26.9197 26.9508 26.9214H8.0717C7.78237 26.9201 7.49847 26.8428 7.2484 26.6973C6.99833 26.5518 6.79087 26.3431 6.64678 26.0922C6.50269 25.8413 6.42703 25.557 6.42736 25.2676C6.4277 24.9783 6.50402 24.6941 6.64869 24.4436C7.73306 22.5651 8.30769 19.915 8.30769 16.7739C8.30769 14.333 9.27735 11.9921 11.0033 10.2661C12.7293 8.54005 15.0703 7.57039 17.5112 7.57039C19.9522 7.57039 22.2931 8.54005 24.0191 10.2661C25.7451 11.9921 26.7148 14.333 26.7148 16.7739C26.7148 19.9598 27.2741 22.5368 28.3762 24.4353H28.3667ZM27.1431 25.1433C25.923 23.0276 25.2989 20.2123 25.2989 16.7739C25.2989 14.7085 24.4784 12.7277 23.0179 11.2673C21.5575 9.8068 19.5766 8.98632 17.5112 8.98632C15.4458 8.98632 13.465 9.8068 12.0046 11.2673C10.5441 12.7277 9.72362 14.7085 9.72362 16.7739C9.72362 20.2147 9.09943 23.0276 7.86993 25.1515C7.84922 25.1874 7.83831 25.2281 7.83831 25.2695C7.83831 25.311 7.84922 25.3517 7.86993 25.3875C7.88936 25.4237 7.91834 25.4538 7.95371 25.4746C7.98908 25.4954 8.02949 25.5061 8.07052 25.5055H26.9508C26.9918 25.5061 27.0322 25.4954 27.0676 25.4746C27.103 25.4538 27.1319 25.4237 27.1514 25.3875C27.1723 25.3518 27.1834 25.3111 27.1836 25.2697C27.1838 25.2283 27.1731 25.1875 27.1526 25.1515L27.1431 25.1433Z" fill="#0A0A0A"/>
</svg>
