<svg width="35" height="36" viewBox="0 0 35 36" fill="none" xmlns="http://www.w3.org/2000/svg">
<path d="M21.9231 14.6588H24.1346C24.7211 14.6588 25.2837 14.8918 25.6984 15.3065C26.1131 15.7213 26.3461 16.2838 26.3461 16.8703V27.4857C26.3461 28.0723 26.1131 28.6348 25.6984 29.0495C25.2837 29.4643 24.7211 29.6973 24.1346 29.6973H10.8654C10.2788 29.6973 9.71633 29.4643 9.30158 29.0495C8.88684 28.6348 8.65384 28.0723 8.65384 27.4857V16.8703C8.65384 16.2838 8.88684 15.7213 9.30158 15.3065C9.71633 14.8918 10.2788 14.6588 10.8654 14.6588H13.0769M21.9231 11.1203L17.5 6.69727M17.5 6.69727L13.0769 11.1203M17.5 6.69727V21.791" stroke="#0A0A0A" stroke-width="1.5" stroke-linecap="round" stroke-linejoin="round"/>
</svg>
