<svg width="35" height="36" viewBox="0 0 35 36" fill="none" xmlns="http://www.w3.org/2000/svg">
<path d="M21.9857 29.9893C21.9857 30.1771 21.9111 30.3571 21.7783 30.4899C21.6456 30.6227 21.4655 30.6973 21.2777 30.6973H13.7261C13.5383 30.6973 13.3583 30.6227 13.2255 30.4899C13.0927 30.3571 13.0181 30.1771 13.0181 29.9893C13.0181 29.8015 13.0927 29.6215 13.2255 29.4887C13.3583 29.3559 13.5383 29.2813 13.7261 29.2813H21.2777C21.4655 29.2813 21.6456 29.3559 21.7783 29.4887C21.9111 29.6215 21.9857 29.8015 21.9857 29.9893ZM29.0288 10.7834C27.9877 8.74701 26.4234 7.02435 24.4966 5.79222C24.3382 5.70069 24.1505 5.67405 23.9728 5.71789C23.7952 5.76173 23.6414 5.87264 23.5438 6.02736C23.4461 6.18209 23.4122 6.36862 23.449 6.54783C23.4859 6.72705 23.5907 6.88504 23.7415 6.98868C25.4622 8.08103 26.8563 9.61743 27.7769 11.4359C27.8197 11.5184 27.8784 11.5917 27.9495 11.6515C28.0207 11.7113 28.1029 11.7566 28.1916 11.7846C28.2802 11.8127 28.3735 11.823 28.4662 11.815C28.5588 11.807 28.6489 11.7808 28.7314 11.7379C28.8139 11.6951 28.8872 11.6364 28.947 11.5653C29.0069 11.4941 29.0521 11.4119 29.0802 11.3232C29.1082 11.2346 29.1185 11.1413 29.1105 11.0487C29.1025 10.956 29.0763 10.8659 29.0335 10.7834H29.0288ZM7.24586 11.4359C8.1664 9.61743 9.56053 8.08103 11.2813 6.98868C11.4321 6.88504 11.5369 6.72705 11.5737 6.54783C11.6106 6.36862 11.5766 6.18209 11.479 6.02736C11.3813 5.87264 11.2275 5.76173 11.0499 5.71789C10.8722 5.67405 10.6845 5.70069 10.5261 5.79222C8.5993 7.02435 7.03506 8.74701 5.99394 10.7834C5.94236 10.8662 5.90843 10.9587 5.89431 11.0552C5.88018 11.1518 5.88615 11.2502 5.91184 11.3443C5.93754 11.4384 5.9824 11.5261 6.04362 11.6021C6.10483 11.678 6.18109 11.7405 6.26759 11.7856C6.35409 11.8307 6.44898 11.8574 6.54629 11.8641C6.64361 11.8708 6.74126 11.8573 6.83311 11.8244C6.92497 11.7916 7.00905 11.7401 7.08007 11.6733C7.1511 11.6064 7.20754 11.5256 7.24586 11.4359ZM28.3668 24.4353C28.5133 24.6856 28.5912 24.97 28.5929 25.2599C28.5946 25.5499 28.52 25.8351 28.3765 26.0871C28.233 26.339 28.0257 26.5488 27.7755 26.6952C27.5252 26.8417 27.2408 26.9197 26.9509 26.9214H8.07182C7.78249 26.9201 7.49859 26.8428 7.24852 26.6973C6.99845 26.5518 6.79099 26.3431 6.6469 26.0922C6.50281 25.8413 6.42715 25.557 6.42749 25.2676C6.42782 24.9783 6.50414 24.6941 6.64881 24.4436C7.73318 22.5651 8.30781 19.915 8.30781 16.7739C8.30781 14.333 9.27747 11.9921 11.0035 10.2661C12.7295 8.54005 15.0704 7.57039 17.5114 7.57039C19.9523 7.57039 22.2933 8.54005 24.0193 10.2661C25.7453 11.9921 26.7149 14.333 26.7149 16.7739C26.7149 19.9598 27.2742 22.5368 28.3763 24.4353H28.3668ZM27.1432 25.1433C25.9232 23.0276 25.299 20.2123 25.299 16.7739C25.299 14.7085 24.4785 12.7277 23.018 11.2673C21.5576 9.8068 19.5768 8.98632 17.5114 8.98632C15.446 8.98632 13.4651 9.8068 12.0047 11.2673C10.5442 12.7277 9.72374 14.7085 9.72374 16.7739C9.72374 20.2147 9.09955 23.0276 7.87005 25.1515C7.84934 25.1874 7.83843 25.2281 7.83843 25.2695C7.83843 25.311 7.84934 25.3517 7.87005 25.3875C7.88949 25.4237 7.91847 25.4538 7.95384 25.4746C7.98921 25.4954 8.02961 25.5061 8.07064 25.5055H26.9509C26.9919 25.5061 27.0323 25.4954 27.0677 25.4746C27.1031 25.4538 27.1321 25.4237 27.1515 25.3875C27.1724 25.3518 27.1835 25.3111 27.1837 25.2697C27.1839 25.2283 27.1732 25.1875 27.1527 25.1515L27.1432 25.1433Z" fill="#0A0A0A"/>
</svg>
