<svg width="158" height="169" viewBox="0 0 158 169" fill="none" xmlns="http://www.w3.org/2000/svg">
<rect y="0.697266" width="158" height="168" rx="13.7873" fill="#C65310"/>
<path d="M52.8948 67.1406L49.5983 58.2813H51.9934L55.2899 67.1406H52.8948ZM47.4865 59.4402V57.4314H50.1134V59.4402H47.4865ZM47.4865 51.0187V48.9841H50.1134V51.0187H47.4865ZM52.8433 54.65V53.7743H55.1869V54.65H52.8433ZM55.1869 53.8001H52.8433C52.8433 52.9073 52.5944 52.2205 52.0964 51.7398C51.6157 51.259 50.9461 51.0187 50.0876 51.0187V48.9841C51.1006 48.9841 51.9848 49.1901 52.7403 49.6022C53.5129 49.9971 54.1138 50.5637 54.5431 51.302C54.9723 52.0231 55.1869 52.8558 55.1869 53.8001ZM55.1869 54.6242C55.1869 55.5685 54.9723 56.4098 54.5431 57.1481C54.1138 57.8692 53.5129 58.4358 52.7403 58.8479C51.9848 59.2428 51.1006 59.4402 50.0876 59.4402V57.4314C50.9461 57.4314 51.6157 57.1824 52.0964 56.6845C52.5944 56.1866 52.8433 55.4999 52.8433 54.6242H55.1869ZM45.967 67.1406V48.9841H48.3106V67.1406H45.967ZM61.752 67.1406V65.1061H68.8858V67.1406H61.752ZM62.1383 59.1312V57.0451H67.3406V59.1312H62.1383ZM60.4385 48.9841H62.7821V67.1406H60.4385V48.9841ZM62.0095 48.9841H68.6282V51.0187H62.0095V48.9841ZM81.3696 63.0715C81.3696 62.4362 81.1893 61.8782 80.8288 61.3975C80.4682 60.8996 80.0046 60.436 79.4381 60.0068C78.8715 59.5776 78.262 59.1397 77.6095 58.6933C76.9743 58.2469 76.3733 57.7576 75.8067 57.2254C75.2402 56.6931 74.7766 56.0922 74.416 55.4226C74.0555 54.7358 73.8752 53.946 73.8752 53.0532H76.2188C76.2188 53.6713 76.3991 54.2293 76.7596 54.7272C77.1202 55.208 77.5838 55.6715 78.1504 56.1179C78.7169 56.5472 79.3179 56.985 79.9531 57.4314C80.6056 57.8778 81.2151 58.3671 81.7817 58.8994C82.3482 59.4144 82.8118 60.0154 83.1724 60.7021C83.5329 61.3717 83.7132 62.1615 83.7132 63.0715H81.3696ZM73.8752 53.1047C73.8752 52.1604 74.0898 51.3535 74.5191 50.6839C74.9483 50.0143 75.5492 49.4992 76.3218 49.1386C77.0944 48.7781 77.9787 48.5978 78.9745 48.5978V50.6066C78.116 50.6066 77.4378 50.8298 76.9399 51.2762C76.4592 51.7226 76.2188 52.3321 76.2188 53.1047H73.8752ZM83.7132 63.02C83.7132 63.9471 83.4986 64.7541 83.0694 65.4409C82.6401 66.1105 82.0392 66.6255 81.2666 66.9861C80.5111 67.3467 79.6269 67.5269 78.6139 67.5269V65.4924C79.4724 65.4924 80.142 65.2778 80.6227 64.8485C81.1206 64.4021 81.3696 63.7926 81.3696 63.02H83.7132ZM81.3953 52.873C81.3095 52.1003 81.0348 51.5337 80.5712 51.1732C80.1248 50.7955 79.5926 50.6066 78.9745 50.6066V48.5978C79.7814 48.5978 80.5111 48.7609 81.1636 49.0871C81.816 49.4133 82.3568 49.8597 82.7861 50.4263C83.2153 50.9929 83.4814 51.6625 83.5844 52.4351L81.3953 52.873ZM75.5235 62.0413C75.6265 63.123 75.9441 63.9729 76.4764 64.591C77.0258 65.1919 77.7383 65.4924 78.6139 65.4924V67.5269C77.1545 67.5269 75.9613 67.0805 75.0341 66.1877C74.1242 65.2949 73.5747 64.0587 73.3859 62.4792L75.5235 62.0413ZM87.5968 51.0187V48.9841H98.2847V51.0187H87.5968ZM91.7689 67.1406V48.9841H94.1126V67.1406H91.7689ZM110.12 62.711V53.388H112.463V62.711H110.12ZM102.291 62.711V53.388H104.634V62.711H102.291ZM112.463 53.4138H110.12C110.12 52.521 109.871 51.8342 109.373 51.3535C108.892 50.8727 108.223 50.6324 107.364 50.6324V48.5978C108.377 48.5978 109.261 48.8038 110.017 49.2159C110.789 49.6108 111.39 50.1774 111.82 50.9157C112.249 51.6368 112.463 52.4695 112.463 53.4138ZM102.291 53.4138C102.291 52.4695 102.505 51.6368 102.934 50.9157C103.364 50.1774 103.965 49.6108 104.737 49.2159C105.51 48.8038 106.394 48.5978 107.39 48.5978V50.6324C106.531 50.6324 105.853 50.8727 105.355 51.3535C104.875 51.8342 104.634 52.521 104.634 53.4138H102.291ZM112.463 62.6852C112.463 63.6467 112.249 64.488 111.82 65.2091C111.39 65.9302 110.789 66.4968 110.017 66.9088C109.261 67.3209 108.377 67.5269 107.364 67.5269V65.4924C108.223 65.4924 108.892 65.252 109.373 64.7713C109.871 64.2734 110.12 63.578 110.12 62.6852H112.463ZM102.291 62.6852H104.634C104.634 63.578 104.875 64.2734 105.355 64.7713C105.853 65.252 106.531 65.4924 107.39 65.4924V67.5269C106.394 67.5269 105.51 67.3209 104.737 66.9088C103.965 66.4968 103.364 65.9302 102.934 65.2091C102.505 64.488 102.291 63.6467 102.291 62.6852Z" fill="#FEFEFE"/>
<path fill-rule="evenodd" clip-rule="evenodd" d="M123.996 73.8975C124.077 72.4775 122.916 71.3232 121.494 71.3232H78.9999L36.5058 71.3232C35.0835 71.3232 33.9228 72.4775 34.0039 73.8976C34.6337 84.9121 39.2876 95.3487 47.131 103.192C52.5673 108.628 59.2493 112.532 66.5062 114.626C66.4341 114.864 66.3953 115.115 66.3953 115.376V125.678C66.3953 127.1 67.5483 128.253 68.9707 128.253H89.5739C90.9962 128.253 92.1493 127.1 92.1493 125.678V115.376C92.1493 115.061 92.0927 114.759 91.9891 114.48C99.0545 112.353 105.557 108.504 110.869 103.192C118.712 95.3487 123.366 84.9121 123.996 73.8975Z" fill="#FEFEFE"/>
</svg>
