<svg width="194" height="189" viewBox="0 0 194 189" fill="none" xmlns="http://www.w3.org/2000/svg">
<rect width="193" height="188.729" transform="translate(0.5 0.0292969)" fill="#C65310"/>
<path d="M58.4237 64.0293L53.5521 50.9371H57.0916L61.9631 64.0293H58.4237ZM50.4313 52.6497V49.6812H54.3133V52.6497H50.4313ZM50.4313 40.2046V37.1979H54.3133V40.2046H50.4313ZM58.3475 45.5708V44.2768H61.8109V45.5708H58.3475ZM61.8109 44.3149H58.3475C58.3475 42.9955 57.9796 41.9806 57.2438 41.2702C56.5334 40.5598 55.5439 40.2046 54.2753 40.2046V37.1979C55.7722 37.1979 57.0789 37.5024 58.1953 38.1113C59.3371 38.6949 60.2251 39.5322 60.8594 40.6232C61.4937 41.6888 61.8109 42.9194 61.8109 44.3149ZM61.8109 45.5328C61.8109 46.9283 61.4937 48.1715 60.8594 49.2625C60.2251 50.3282 59.3371 51.1655 58.1953 51.7744C57.0789 52.358 55.7722 52.6497 54.2753 52.6497V49.6812C55.5439 49.6812 56.5334 49.3133 57.2438 48.5775C57.9796 47.8417 58.3475 46.8268 58.3475 45.5328H61.8109ZM48.1859 64.0293V37.1979H51.6492V64.0293H48.1859ZM71.5126 64.0293V61.0227H82.0548V64.0293H71.5126ZM72.0835 52.193V49.1103H79.7713V52.193H72.0835ZM69.5716 37.1979H73.0349V64.0293H69.5716V37.1979ZM71.8932 37.1979H81.6742V40.2046H71.8932V37.1979ZM100.503 58.016C100.503 57.0772 100.237 56.2526 99.704 55.5422C99.1711 54.8064 98.4861 54.1213 97.6488 53.487C96.8115 52.8527 95.9108 52.2057 94.9466 51.546C94.0078 50.8864 93.1198 50.1632 92.2825 49.3767C91.4452 48.5902 90.7602 47.7021 90.2273 46.7126C89.6945 45.6977 89.4281 44.5306 89.4281 43.2112H92.8915C92.8915 44.1246 93.1579 44.9492 93.6907 45.685C94.2235 46.3954 94.9086 47.0805 95.7459 47.7402C96.5831 48.3745 97.4712 49.0215 98.41 49.6812C99.3741 50.3409 100.275 51.064 101.112 51.8505C101.949 52.6117 102.634 53.4997 103.167 54.5146C103.7 55.5041 103.967 56.6713 103.967 58.016H100.503ZM89.4281 43.2873C89.4281 41.8918 89.7453 40.6993 90.3796 39.7098C91.0139 38.7203 91.9019 37.9591 93.0437 37.4263C94.1855 36.8934 95.4921 36.627 96.9637 36.627V39.5956C95.6951 39.5956 94.6929 39.9255 93.9571 40.5851C93.2467 41.2448 92.8915 42.1455 92.8915 43.2873H89.4281ZM103.967 57.9399C103.967 59.31 103.649 60.5025 103.015 61.5174C102.381 62.5069 101.493 63.2681 100.351 63.8009C99.2346 64.3338 97.9279 64.6002 96.4309 64.6002V61.5935C97.6995 61.5935 98.6891 61.2764 99.3995 60.6421C100.135 59.9824 100.503 59.0817 100.503 57.9399H103.967ZM100.541 42.9448C100.414 41.803 100.008 40.9657 99.3234 40.4329C98.6637 39.8747 97.8771 39.5956 96.9637 39.5956V36.627C98.1562 36.627 99.2346 36.8681 100.199 37.3501C101.163 37.8322 101.962 38.4919 102.596 39.3292C103.231 40.1665 103.624 41.156 103.776 42.2978L100.541 42.9448ZM91.8639 56.4937C92.0161 58.0921 92.4855 59.3481 93.272 60.2615C94.084 61.1495 95.1369 61.5935 96.4309 61.5935V64.6002C94.2743 64.6002 92.5109 63.9405 91.1408 62.6211C89.796 61.3018 88.9841 59.4749 88.705 57.1407L91.8639 56.4937ZM109.78 40.2046V37.1979H125.574V40.2046H109.78ZM115.946 64.0293V37.1979H119.409V64.0293H115.946ZM143.25 57.4832V43.706H146.713V57.4832H143.25ZM131.68 57.4832V43.706H135.143V57.4832H131.68ZM146.713 43.744H143.25C143.25 42.4246 142.882 41.4097 142.146 40.6993C141.436 39.9889 140.446 39.6337 139.178 39.6337V36.627C140.675 36.627 141.981 36.9315 143.098 37.5404C144.239 38.124 145.128 38.9613 145.762 40.0523C146.396 41.118 146.713 42.3485 146.713 43.744ZM131.68 43.744C131.68 42.3485 131.997 41.118 132.632 40.0523C133.266 38.9613 134.154 38.124 135.296 37.5404C136.437 36.9315 137.744 36.627 139.216 36.627V39.6337C137.947 39.6337 136.945 39.9889 136.209 40.6993C135.499 41.4097 135.143 42.4246 135.143 43.744H131.68ZM146.713 57.4451C146.713 58.866 146.396 60.1093 145.762 61.1749C145.128 62.2405 144.239 63.0778 143.098 63.6868C141.981 64.2957 140.675 64.6002 139.178 64.6002V61.5935C140.446 61.5935 141.436 61.2383 142.146 60.5279C142.882 59.7921 143.25 58.7645 143.25 57.4451H146.713ZM131.68 57.4451H135.143C135.143 58.7645 135.499 59.7921 136.209 60.5279C136.945 61.2383 137.947 61.5935 139.216 61.5935V64.6002C137.744 64.6002 136.437 64.2957 135.296 63.6868C134.154 63.0778 133.266 62.2405 132.632 61.1749C131.997 60.1093 131.68 58.866 131.68 57.4451Z" fill="white"/>
<path fill-rule="evenodd" clip-rule="evenodd" d="M163.494 78.4371C163.614 76.3386 161.899 74.6328 159.797 74.6328H97L34.2032 74.6328C32.1012 74.6328 30.386 76.3386 30.5059 78.4371C31.4365 94.7143 38.314 110.137 49.9048 121.728C57.9381 129.761 67.8123 135.531 78.5359 138.625C78.43 138.975 78.373 139.346 78.373 139.73V154.953C78.373 157.055 80.077 158.759 82.1789 158.759H112.626C114.728 158.759 116.432 157.055 116.432 154.953V139.73C116.432 139.266 116.349 138.821 116.196 138.409C126.637 135.266 136.245 129.578 144.095 121.728C155.686 110.137 162.563 94.7143 163.494 78.4371Z" fill="white"/>
</svg>
