<svg width="182" height="192" viewBox="0 0 182 192" fill="none" xmlns="http://www.w3.org/2000/svg">
<rect width="181" height="191" transform="translate(0.5 0.0292969)" fill="#C65310"/>
<path fill-rule="evenodd" clip-rule="evenodd" d="M84.7601 43.1604C84.7601 49.6122 80.1071 54.9772 73.9738 56.0828L73.9738 116.684C73.9738 117.979 72.924 119.029 71.629 119.029C70.3339 119.029 69.2841 117.979 69.2841 116.684L69.2841 56.0828C63.1508 54.9772 58.4978 49.6122 58.4978 43.1604C58.4978 35.9083 64.3768 30.0293 71.629 30.0293C78.8811 30.0293 84.7601 35.9083 84.7601 43.1604ZM99.6628 33.1036C99.6628 31.8086 98.613 30.7588 97.318 30.7588C96.023 30.7588 94.9731 31.8086 94.9731 33.1036V49.5176V49.8365L95.0583 50.1438C95.0891 50.2547 95.103 50.3559 95.1232 50.6403L95.1276 50.7023C95.147 50.9834 95.1789 51.4451 95.3042 51.9737C95.5879 53.1706 96.261 54.4092 97.617 56.0772C99.4714 58.3584 102.445 59.0996 104.67 59.3505C105.512 59.4454 106.334 59.4796 107.088 59.4776L107.088 115.955C107.088 117.25 108.138 118.3 109.433 118.3C110.728 118.3 111.778 117.25 111.778 115.955V59.4754C112.422 59.4662 113.107 59.4293 113.805 59.3505C116.03 59.0996 119.004 58.3584 120.858 56.0772C122.214 54.4093 122.887 53.1706 123.171 51.9737C123.296 51.4451 123.328 50.9834 123.348 50.7024L123.352 50.6403C123.372 50.356 123.386 50.2548 123.417 50.1438L123.502 49.8365V49.5176V33.1037C123.502 31.8086 122.452 30.7588 121.157 30.7588C119.862 30.7588 118.812 31.8086 118.812 33.1037V49.2403C118.719 49.6813 118.692 50.0521 118.674 50.307C118.651 50.6391 118.641 50.7523 118.608 50.8921C118.555 51.1137 118.365 51.7102 117.219 53.119C116.573 53.9146 115.199 54.4739 113.28 54.6904C112.767 54.7482 112.259 54.7766 111.778 54.7852L111.778 33.1036C111.778 31.8086 110.728 30.7588 109.433 30.7588C108.138 30.7588 107.088 31.8086 107.088 33.1036V54.7879C106.496 54.79 105.849 54.764 105.196 54.6903C103.276 54.4739 101.903 53.9146 101.256 53.119C100.111 51.7102 99.92 51.1137 99.8675 50.892C99.8343 50.7523 99.8247 50.6391 99.8011 50.307C99.7829 50.0521 99.7564 49.6813 99.6628 49.2402V33.1036Z" fill="white"/>
<path d="M38.5975 154.029H34.2643V123.04H44.2002C45.6884 123.04 47.1036 123.2 48.4459 123.521C49.7882 123.813 50.9554 124.295 51.9475 124.966C52.9689 125.637 53.7713 126.527 54.3549 127.636C54.9385 128.715 55.2303 130.043 55.2303 131.619C55.2303 133.895 54.53 135.733 53.1293 137.134C51.7287 138.535 49.9195 139.425 47.7018 139.804L56.3684 154.029H51.1159L43.2372 140.242H38.5975V154.029ZM38.5975 136.609H43.5874C44.6087 136.609 45.5571 136.521 46.4325 136.346C47.3079 136.171 48.0666 135.894 48.7085 135.514C49.3797 135.106 49.9049 134.595 50.2843 133.982C50.6636 133.34 50.8533 132.553 50.8533 131.619C50.8533 130.685 50.6636 129.912 50.2843 129.299C49.9049 128.657 49.3943 128.146 48.7523 127.767C48.1395 127.388 47.41 127.125 46.5638 126.979C45.7175 126.804 44.8275 126.717 43.8938 126.717H38.5975V136.609ZM77.7957 141.817C77.7665 141 77.6206 140.242 77.358 139.541C77.1246 138.812 76.7598 138.184 76.2638 137.659C75.7969 137.134 75.1987 136.725 74.4692 136.434C73.7688 136.113 72.9372 135.952 71.9743 135.952C71.0988 135.952 70.2672 136.113 69.4793 136.434C68.7206 136.725 68.0495 137.134 67.4659 137.659C66.9115 138.184 66.4446 138.812 66.0652 139.541C65.7151 140.242 65.5108 141 65.4524 141.817H77.7957ZM81.9539 143.481C81.9539 143.714 81.9539 143.947 81.9539 144.181C81.9539 144.414 81.9393 144.648 81.9102 144.881H65.4524C65.4816 145.757 65.6713 146.588 66.0215 147.376C66.4008 148.135 66.8969 148.806 67.5097 149.39C68.1224 149.944 68.8228 150.382 69.6106 150.703C70.4277 151.024 71.2885 151.184 72.1931 151.184C73.5938 151.184 74.8047 150.878 75.8261 150.265C76.8474 149.652 77.6498 148.908 78.2334 148.033L81.1223 150.353C80.0134 151.812 78.7003 152.891 77.1829 153.592C75.6947 154.263 74.0315 154.598 72.1931 154.598C70.6174 154.598 69.1584 154.336 67.8161 153.81C66.4738 153.285 65.3211 152.556 64.3582 151.622C63.3952 150.659 62.6365 149.506 62.0821 148.164C61.5277 146.822 61.2505 145.334 61.2505 143.699C61.2505 142.095 61.5131 140.621 62.0384 139.279C62.5928 137.907 63.3515 136.74 64.3144 135.777C65.2774 134.814 66.4154 134.07 67.7285 133.545C69.0416 132.99 70.4569 132.713 71.9743 132.713C73.4916 132.713 74.8631 132.961 76.0887 133.457C77.3434 133.953 78.3939 134.668 79.2402 135.602C80.1156 136.536 80.7867 137.674 81.2536 139.016C81.7205 140.329 81.9539 141.817 81.9539 143.481ZM101.092 138.535C100.625 137.776 99.9688 137.163 99.1226 136.696C98.2763 136.2 97.328 135.952 96.2775 135.952C95.8106 135.952 95.3437 136.01 94.8768 136.127C94.4099 136.215 93.9868 136.375 93.6075 136.609C93.2573 136.813 92.9655 137.09 92.7321 137.44C92.5278 137.761 92.4257 138.17 92.4257 138.666C92.4257 139.541 92.8196 140.198 93.6075 140.636C94.3953 141.044 95.5771 141.423 97.1529 141.774C98.145 142.007 99.0642 142.284 99.9104 142.605C100.757 142.926 101.486 143.335 102.099 143.831C102.741 144.298 103.237 144.867 103.587 145.538C103.937 146.209 104.112 146.997 104.112 147.901C104.112 149.127 103.879 150.163 103.412 151.009C102.945 151.855 102.318 152.556 101.53 153.11C100.771 153.635 99.8958 154.015 98.9037 154.248C97.9116 154.482 96.8903 154.598 95.8398 154.598C94.264 154.598 92.7175 154.292 91.2001 153.679C89.7119 153.066 88.4717 152.133 87.4796 150.878L90.4122 148.383C90.9667 149.2 91.7253 149.886 92.6883 150.44C93.6804 150.995 94.7601 151.272 95.9273 151.272C96.4526 151.272 96.9486 151.228 97.4155 151.14C97.9116 151.024 98.3493 150.849 98.7286 150.615C99.1372 150.382 99.4581 150.075 99.6916 149.696C99.925 149.317 100.042 148.835 100.042 148.252C100.042 147.289 99.5749 146.574 98.6411 146.107C97.7365 145.64 96.3942 145.202 94.6142 144.794C93.9139 144.619 93.199 144.414 92.4694 144.181C91.7691 143.918 91.1271 143.568 90.5435 143.13C89.9599 142.693 89.4785 142.153 89.0991 141.511C88.749 140.84 88.5739 140.023 88.5739 139.06C88.5739 137.951 88.7927 137.003 89.2304 136.215C89.6973 135.398 90.2955 134.741 91.025 134.245C91.7545 133.72 92.5862 133.34 93.5199 133.107C94.4537 132.844 95.4167 132.713 96.4088 132.713C97.897 132.713 99.3268 133.005 100.698 133.588C102.099 134.172 103.179 135.018 103.937 136.127L101.092 138.535ZM121.679 136.652H116.164V147.464C116.164 148.718 116.397 149.623 116.864 150.177C117.331 150.703 118.075 150.965 119.097 150.965C119.476 150.965 119.884 150.922 120.322 150.834C120.76 150.747 121.154 150.615 121.504 150.44L121.635 153.81C121.139 153.986 120.585 154.117 119.972 154.204C119.388 154.321 118.776 154.379 118.134 154.379C116.179 154.379 114.676 153.84 113.625 152.76C112.604 151.68 112.093 150.061 112.093 147.901V136.652H108.11V133.282H112.093V127.329H116.164V133.282H121.679V136.652ZM149.128 143.612C149.128 145.217 148.836 146.69 148.252 148.033C147.698 149.375 146.91 150.542 145.889 151.534C144.896 152.497 143.715 153.256 142.343 153.81C140.972 154.336 139.498 154.598 137.922 154.598C136.347 154.598 134.873 154.336 133.502 153.81C132.13 153.256 130.948 152.497 129.956 151.534C128.964 150.542 128.176 149.375 127.593 148.033C127.038 146.69 126.761 145.217 126.761 143.612C126.761 142.007 127.038 140.548 127.593 139.235C128.176 137.893 128.964 136.74 129.956 135.777C130.948 134.814 132.13 134.07 133.502 133.545C134.873 132.99 136.347 132.713 137.922 132.713C139.498 132.713 140.972 132.99 142.343 133.545C143.715 134.07 144.896 134.814 145.889 135.777C146.91 136.74 147.698 137.893 148.252 139.235C148.836 140.548 149.128 142.007 149.128 143.612ZM144.838 143.612C144.838 142.62 144.678 141.671 144.357 140.767C144.065 139.862 143.627 139.074 143.044 138.403C142.46 137.703 141.73 137.148 140.855 136.74C140.009 136.331 139.031 136.127 137.922 136.127C136.814 136.127 135.821 136.331 134.946 136.74C134.1 137.148 133.385 137.703 132.801 138.403C132.218 139.074 131.765 139.862 131.444 140.767C131.153 141.671 131.007 142.62 131.007 143.612C131.007 144.604 131.153 145.552 131.444 146.457C131.765 147.362 132.218 148.164 132.801 148.864C133.385 149.565 134.1 150.119 134.946 150.528C135.821 150.936 136.814 151.14 137.922 151.14C139.031 151.14 140.009 150.936 140.855 150.528C141.73 150.119 142.46 149.565 143.044 148.864C143.627 148.164 144.065 147.362 144.357 146.457C144.678 145.552 144.838 144.604 144.838 143.612Z" fill="white"/>
</svg>
