<svg width="61" height="61" viewBox="0 0 61 61" fill="none" xmlns="http://www.w3.org/2000/svg">
<rect x="0.5" y="0.697266" width="60" height="60" rx="10" fill="#C65310"/>
<path fill-rule="evenodd" clip-rule="evenodd" d="M54.4978 27.0988C54.542 26.3257 53.9101 25.6973 53.1357 25.6973H30L6.86433 25.6973C6.08993 25.6973 5.45799 26.3257 5.50219 27.0988C5.84504 33.0957 8.37885 38.7779 12.6491 43.0481C15.5655 45.9645 19.1403 48.0709 23.0242 49.2227C23.0014 49.3229 22.9894 49.4272 22.9894 49.5343V55.143C22.9894 55.9174 23.6172 56.5451 24.3916 56.5451H35.6089C36.3833 56.5451 37.011 55.9174 37.011 55.143V49.5343C37.011 49.4272 36.999 49.3228 36.9763 49.2226C40.86 48.0708 44.4346 45.9644 47.3509 43.0481C51.6212 38.7779 54.155 33.0957 54.4978 27.0988Z" fill="#FEFEFE"/>
<path d="M19.7506 18.397C19.033 18.811 18.7869 19.7283 19.2009 20.4459C19.6149 21.1634 20.5322 21.4096 21.2497 20.9956L19.7506 18.397ZM21.2497 20.9956L47.2497 5.99557L45.7506 3.39701L19.7506 18.397L21.2497 20.9956Z" fill="#FEFEFE"/>
<path d="M22.7252 21.2291C21.9343 21.4756 21.493 22.3165 21.7395 23.1074C21.986 23.8983 22.8269 24.3397 23.6178 24.0932L22.7252 21.2291ZM23.6178 24.0932L52.2751 15.1622L51.3825 12.2981L22.7252 21.2291L23.6178 24.0932Z" fill="#FEFEFE"/>
<path d="M32.26 45.6963L29.74 38.8963H32.04L34.56 45.6963H32.26ZM28.52 39.9763V38.0763H30.22V39.9763H28.52ZM28.52 33.3763V31.4963H30.22V33.3763H28.52ZM32.08 36.0963V35.3763H34.4V36.0963H32.08ZM34.4 35.3963H32.08C32.08 34.7563 31.9133 34.263 31.58 33.9163C31.2467 33.5563 30.7867 33.3763 30.2 33.3763V31.4963C31.0267 31.4963 31.7533 31.663 32.38 31.9963C33.0067 32.3296 33.5 32.7896 33.86 33.3763C34.22 33.963 34.4 34.6363 34.4 35.3963ZM34.4 36.0763C34.4 36.8363 34.22 37.5096 33.86 38.0963C33.5 38.683 33.0067 39.143 32.38 39.4763C31.7533 39.8096 31.0267 39.9763 30.2 39.9763V38.0763C30.7867 38.0763 31.2467 37.903 31.58 37.5563C31.9133 37.1963 32.08 36.703 32.08 36.0763H34.4ZM26.7 45.6963V31.4963H29.02V45.6963H26.7Z" fill="#953B1D"/>
</svg>
