<svg width="196" height="81" viewBox="0 0 196 81" fill="none" xmlns="http://www.w3.org/2000/svg">
<path d="M23.924 59.0293L15.3907 44.2026H10.7507V59.0293H4.67065V21.9626H17.4707C20.3151 21.9626 22.7151 22.4604 24.6707 23.456C26.6618 24.4515 28.1373 25.7848 29.0973 27.456C30.0929 29.1271 30.5907 30.9937 30.5907 33.056C30.5907 35.4737 29.8795 37.6782 28.4573 39.6693C27.0707 41.6249 24.9195 42.9582 22.004 43.6693L31.1773 59.0293H23.924ZM10.7507 39.3493H17.4707C19.7462 39.3493 21.4529 38.7804 22.5907 37.6426C23.764 36.5048 24.3507 34.976 24.3507 33.056C24.3507 31.136 23.7818 29.6426 22.644 28.576C21.5062 27.4737 19.7818 26.9226 17.4707 26.9226H10.7507V39.3493ZM49.7819 26.8693V37.7493H62.5819V42.7093H49.7819V54.0693H64.1819V59.0293H43.7019V21.9093H64.1819V26.8693H49.7819ZM89.2173 59.4026C86.7284 59.4026 84.4884 58.976 82.4973 58.1226C80.5062 57.2337 78.9418 55.9893 77.804 54.3893C76.6662 52.7893 76.0973 50.9226 76.0973 48.7893H82.604C82.7462 50.3893 83.3684 51.7049 84.4707 52.736C85.6084 53.7671 87.1907 54.2826 89.2173 54.2826C91.3151 54.2826 92.9507 53.7849 94.124 52.7893C95.2973 51.7582 95.884 50.4426 95.884 48.8426C95.884 47.5982 95.5107 46.5849 94.764 45.8026C94.0529 45.0204 93.1462 44.416 92.044 43.9893C90.9773 43.5626 89.484 43.1004 87.564 42.6026C85.1462 41.9626 83.1729 41.3226 81.644 40.6826C80.1507 40.0071 78.8707 38.976 77.804 37.5893C76.7373 36.2026 76.204 34.3537 76.204 32.0426C76.204 29.9093 76.7373 28.0426 77.804 26.4426C78.8707 24.8426 80.364 23.616 82.284 22.7626C84.204 21.9093 86.4262 21.4826 88.9507 21.4826C92.5418 21.4826 95.4751 22.3893 97.7507 24.2026C100.062 25.9804 101.342 28.4337 101.591 31.5626H94.8707C94.764 30.2115 94.124 29.056 92.9507 28.096C91.7773 27.136 90.2307 26.656 88.3107 26.656C86.5684 26.656 85.1462 27.1004 84.044 27.9893C82.9418 28.8782 82.3907 30.1582 82.3907 31.8293C82.3907 32.9671 82.7284 33.9093 83.404 34.656C84.1151 35.3671 85.004 35.936 86.0707 36.3626C87.1373 36.7893 88.5951 37.2515 90.444 37.7493C92.8973 38.4249 94.8884 39.1004 96.4173 39.776C97.9818 40.4515 99.2973 41.5004 100.364 42.9226C101.466 44.3093 102.017 46.176 102.017 48.5226C102.017 50.4071 101.502 52.1849 100.471 53.856C99.4751 55.5271 97.9995 56.8782 96.044 57.9093C94.124 58.9049 91.8484 59.4026 89.2173 59.4026ZM138.471 21.9626V26.9226H128.605V59.0293H122.525V26.9226H112.605V21.9626H138.471ZM166.869 59.4026C163.42 59.4026 160.238 58.6026 157.322 57.0026C154.442 55.3671 152.149 53.1093 150.442 50.2293C148.771 47.3137 147.936 44.0426 147.936 40.416C147.936 36.7893 148.771 33.536 150.442 30.656C152.149 27.776 154.442 25.536 157.322 23.936C160.238 22.3004 163.42 21.4826 166.869 21.4826C170.353 21.4826 173.536 22.3004 176.416 23.936C179.331 25.536 181.625 27.776 183.296 30.656C184.967 33.536 185.802 36.7893 185.802 40.416C185.802 44.0426 184.967 47.3137 183.296 50.2293C181.625 53.1093 179.331 55.3671 176.416 57.0026C173.536 58.6026 170.353 59.4026 166.869 59.4026ZM166.869 54.1226C169.322 54.1226 171.509 53.5715 173.429 52.4693C175.349 51.3315 176.842 49.7315 177.909 47.6693C179.011 45.5715 179.562 43.1537 179.562 40.416C179.562 37.6782 179.011 35.2782 177.909 33.216C176.842 31.1537 175.349 29.5715 173.429 28.4693C171.509 27.3671 169.322 26.816 166.869 26.816C164.416 26.816 162.229 27.3671 160.309 28.4693C158.389 29.5715 156.878 31.1537 155.776 33.216C154.709 35.2782 154.176 37.6782 154.176 40.416C154.176 43.1537 154.709 45.5715 155.776 47.6693C156.878 49.7315 158.389 51.3315 160.309 52.4693C162.229 53.5715 164.416 54.1226 166.869 54.1226Z" fill="#953B1D"/>
<path d="M192.192 56.5636C193.375 57.1916 194.843 56.7421 195.471 55.5597C196.099 54.3773 195.649 52.9096 194.467 52.2816L192.192 56.5636ZM176.503 48.2309L192.192 56.5636L194.467 52.2816L178.777 43.9488L176.503 48.2309Z" fill="#953B1D"/>
</svg>
