<svg width="93" height="87" viewBox="0 0 93 87" fill="none" xmlns="http://www.w3.org/2000/svg">
<path d="M19.5255 20L16.1191 10.8453H18.5941L22.0005 20H19.5255ZM13.9369 12.0429V9.9671H16.6514V12.0429H13.9369ZM13.9369 3.34059V1.23821H16.6514V3.34059H13.9369ZM19.4723 7.09295V6.18813H21.894V7.09295H19.4723ZM21.894 6.21474H19.4723C19.4723 5.29218 19.215 4.58251 18.7005 4.08574C18.2038 3.58898 17.5118 3.34059 16.6248 3.34059V1.23821C17.6715 1.23821 18.5852 1.45111 19.3658 1.87691C20.1642 2.28497 20.7852 2.87044 21.2287 3.63333C21.6723 4.37848 21.894 5.23895 21.894 6.21474ZM21.894 7.06634C21.894 8.04213 21.6723 8.91147 21.2287 9.67436C20.7852 10.4195 20.1642 11.005 19.3658 11.4308C18.5852 11.8388 17.6715 12.0429 16.6248 12.0429V9.9671C17.5118 9.9671 18.2038 9.70985 18.7005 9.19534C19.215 8.68083 19.4723 7.97116 19.4723 7.06634H21.894ZM12.3668 20V1.23821H14.7885V20H12.3668ZM28.6779 20V17.8976H36.0496V20H28.6779ZM29.0771 11.7235V9.56791H34.4528V11.7235H29.0771ZM27.3207 1.23821H29.7424V20H27.3207V1.23821ZM28.944 1.23821H35.7835V3.34059H28.944V1.23821ZM48.9496 15.7952C48.9496 15.1388 48.7633 14.5622 48.3907 14.0654C48.0181 13.5509 47.5391 13.0719 46.9536 12.6283C46.3681 12.1848 45.7383 11.7324 45.0641 11.2711C44.4077 10.8098 43.7867 10.3042 43.2013 9.7542C42.6158 9.20421 42.1368 8.58325 41.7642 7.89133C41.3916 7.18166 41.2053 6.36555 41.2053 5.44298H43.6271C43.6271 6.08168 43.8133 6.65828 44.1859 7.17279C44.5585 7.66956 45.0375 8.14858 45.623 8.60986C46.2085 9.0534 46.8294 9.50582 47.4859 9.9671C48.1601 10.4284 48.7899 10.934 49.3754 11.484C49.9608 12.0163 50.4399 12.6372 50.8124 13.3469C51.185 14.0388 51.3713 14.8549 51.3713 15.7952H48.9496ZM41.2053 5.49621C41.2053 4.52041 41.4271 3.68656 41.8706 2.99463C42.3142 2.30271 42.9351 1.77046 43.7335 1.39788C44.5319 1.02531 45.4456 0.839023 46.4746 0.839023V2.9148C45.5875 2.9148 44.8867 3.14544 44.3722 3.60672C43.8754 4.068 43.6271 4.69783 43.6271 5.49621H41.2053ZM51.3713 15.742C51.3713 16.7001 51.1495 17.5339 50.706 18.2436C50.2624 18.9355 49.6415 19.4678 48.8431 19.8403C48.0625 20.2129 47.1488 20.3992 46.102 20.3992V18.2968C46.9891 18.2968 47.681 18.075 48.1778 17.6315C48.6923 17.1702 48.9496 16.5404 48.9496 15.742H51.3713ZM48.9762 5.25669C48.8875 4.45832 48.6036 3.87284 48.1246 3.50027C47.6633 3.10995 47.1133 2.9148 46.4746 2.9148V0.839023C47.3085 0.839023 48.0625 1.00757 48.7367 1.34466C49.4108 1.68175 49.9697 2.14303 50.4132 2.72851C50.8568 3.31398 51.1318 4.00591 51.2382 4.80428L48.9762 5.25669ZM42.9085 14.7307C43.015 15.8485 43.3432 16.7267 43.8932 17.3654C44.4609 17.9863 45.1972 18.2968 46.102 18.2968V20.3992C44.594 20.3992 43.3609 19.9379 42.4029 19.0153C41.4626 18.0928 40.8948 16.8154 40.6997 15.1831L42.9085 14.7307ZM55.4363 3.34059V1.23821H66.4805V3.34059H55.4363ZM59.7476 20V1.23821H62.1693V20H59.7476ZM78.8401 15.4227V5.78894H81.2619V15.4227H78.8401ZM70.7499 15.4227V5.78894H73.1717V15.4227H70.7499ZM81.2619 5.81555H78.8401C78.8401 4.89299 78.5829 4.18332 78.0684 3.68656C77.5716 3.18979 76.8797 2.94141 75.9926 2.94141V0.839023C77.0394 0.839023 77.9531 1.05192 78.7337 1.47772C79.5321 1.88578 80.153 2.47125 80.5966 3.23414C81.0401 3.97929 81.2619 4.83976 81.2619 5.81555ZM70.7499 5.81555C70.7499 4.83976 70.9717 3.97929 71.4153 3.23414C71.8588 2.47125 72.4798 1.88578 73.2781 1.47772C74.0765 1.05192 74.9902 0.839023 76.0192 0.839023V2.94141C75.1321 2.94141 74.4313 3.18979 73.9168 3.68656C73.4201 4.18332 73.1717 4.89299 73.1717 5.81555H70.7499ZM81.2619 15.396C81.2619 16.3896 81.0401 17.2589 80.5966 18.0041C80.153 18.7492 79.5321 19.3347 78.7337 19.7605C77.9531 20.1863 77.0394 20.3992 75.9926 20.3992V18.2968C76.8797 18.2968 77.5716 18.0484 78.0684 17.5517C78.5829 17.0371 78.8401 16.3186 78.8401 15.396H81.2619ZM70.7499 15.396H73.1717C73.1717 16.3186 73.4201 17.0371 73.9168 17.5517C74.4313 18.0484 75.1321 18.2968 76.0192 18.2968V20.3992C74.9902 20.3992 74.0765 20.1863 73.2781 19.7605C72.4798 19.3347 71.8588 18.7492 71.4153 18.0041C70.9717 17.2589 70.7499 16.3896 70.7499 15.396Z" fill="#C65310"/>
<path fill-rule="evenodd" clip-rule="evenodd" d="M92.9958 29.8476C93.0797 28.3803 91.8803 27.1875 90.4106 27.1875H46.5L2.58943 27.1875C1.11967 27.1875 -0.0797437 28.3803 0.00414932 29.8476C0.654873 41.2294 5.46393 52.0139 13.5688 60.1187C19.1861 65.7361 26.0906 69.7702 33.5891 71.934C33.515 72.1786 33.4751 72.4381 33.4751 72.7069V83.3519C33.4751 84.8217 34.6666 86.0132 36.1363 86.0132H57.4263C58.8961 86.0132 60.0876 84.8217 60.0876 83.3519V72.7069C60.0876 72.3821 60.0294 72.0709 59.9228 71.7831C67.2235 69.5854 73.942 65.608 79.4312 60.1187C87.5361 52.0139 92.3451 41.2294 92.9958 29.8476Z" fill="#C65310"/>
</svg>
