<svg width="346" height="207" viewBox="0 0 346 207" fill="none" xmlns="http://www.w3.org/2000/svg">
<g filter="url(#filter0_d_857_12656)">
<rect x="4" width="338" height="199" rx="10" fill="#C65310"/>
<rect x="4.5" y="0.5" width="337" height="198" rx="9.5" stroke="#D9D9D9"/>
<path d="M141.465 75L137.546 64.4672H140.393L144.312 75H141.465ZM135.035 65.845V63.4568H138.158V65.845H135.035ZM135.035 55.8327V53.4139H138.158V55.8327H135.035ZM141.404 60.15V59.1089H144.19V60.15H141.404ZM144.19 59.1395H141.404C141.404 58.0781 141.108 57.2616 140.516 56.69C139.944 56.1185 139.148 55.8327 138.127 55.8327V53.4139C139.332 53.4139 140.383 53.6588 141.281 54.1487C142.2 54.6182 142.914 55.2918 143.424 56.1695C143.935 57.0269 144.19 58.0169 144.19 59.1395ZM144.19 60.1193C144.19 61.242 143.935 62.2422 143.424 63.12C142.914 63.9773 142.2 64.6509 141.281 65.1408C140.383 65.6103 139.332 65.845 138.127 65.845V63.4568C139.148 63.4568 139.944 63.1608 140.516 62.5688C141.108 61.9769 141.404 61.1604 141.404 60.1193H144.19ZM133.228 75V53.4139H136.015V75H133.228ZM151.995 75V72.5811H160.476V75H151.995ZM152.454 65.4776V62.9975H158.639V65.4776H152.454ZM150.434 53.4139H153.22V75H150.434V53.4139ZM152.301 53.4139H160.17V55.8327H152.301V53.4139ZM175.318 70.1623C175.318 69.407 175.104 68.7436 174.675 68.172C174.247 67.5801 173.696 67.0289 173.022 66.5186C172.348 66.0083 171.624 65.4878 170.848 64.9571C170.093 64.4264 169.378 63.8446 168.705 63.2118C168.031 62.579 167.48 61.8646 167.051 61.0685C166.623 60.252 166.408 59.313 166.408 58.2516H169.195C169.195 58.9864 169.409 59.6499 169.838 60.2418C170.266 60.8134 170.817 61.3645 171.491 61.8952C172.165 62.4055 172.879 62.926 173.634 63.4568C174.41 63.9875 175.135 64.5692 175.808 65.202C176.482 65.8144 177.033 66.5288 177.462 67.3453C177.89 68.1414 178.105 69.0804 178.105 70.1623H175.318ZM166.408 58.3128C166.408 57.1902 166.663 56.2308 167.174 55.4347C167.684 54.6386 168.399 54.0262 169.317 53.5976C170.236 53.1689 171.287 52.9546 172.471 52.9546V55.3428C171.45 55.3428 170.644 55.6082 170.052 56.1389C169.48 56.6696 169.195 57.3943 169.195 58.3128H166.408ZM178.105 70.101C178.105 71.2033 177.849 72.1627 177.339 72.9792C176.829 73.7753 176.114 74.3876 175.196 74.8163C174.298 75.2449 173.246 75.4593 172.042 75.4593V73.0404C173.063 73.0404 173.859 72.7853 174.43 72.2749C175.022 71.7442 175.318 71.0196 175.318 70.101H178.105ZM175.349 58.0373C175.247 57.1187 174.92 56.4451 174.369 56.0164C173.838 55.5674 173.206 55.3428 172.471 55.3428V52.9546C173.43 52.9546 174.298 53.1485 175.073 53.5363C175.849 53.9242 176.492 54.4549 177.002 55.1285C177.513 55.8021 177.829 56.5982 177.952 57.5168L175.349 58.0373ZM168.368 68.9375C168.49 70.2235 168.868 71.2339 169.501 71.9688C170.154 72.6832 171.001 73.0404 172.042 73.0404V75.4593C170.307 75.4593 168.888 74.9286 167.786 73.8671C166.704 72.8057 166.051 71.336 165.827 69.458L168.368 68.9375ZM182.782 55.8327V53.4139H195.488V55.8327H182.782ZM187.742 75V53.4139H190.528V75H187.742ZM209.709 69.7336V58.6496H212.495V69.7336H209.709ZM200.401 69.7336V58.6496H203.187V69.7336H200.401ZM212.495 58.6803H209.709C209.709 57.6188 209.413 56.8023 208.821 56.2308C208.249 55.6592 207.453 55.3734 206.432 55.3734V52.9546C207.637 52.9546 208.688 53.1995 209.586 53.6894C210.505 54.1589 211.219 54.8325 211.729 55.7103C212.24 56.5676 212.495 57.5576 212.495 58.6803ZM200.401 58.6803C200.401 57.5576 200.656 56.5676 201.166 55.7103C201.676 54.8325 202.391 54.1589 203.309 53.6894C204.228 53.1995 205.279 52.9546 206.463 52.9546V55.3734C205.442 55.3734 204.636 55.6592 204.044 56.2308C203.473 56.8023 203.187 57.6188 203.187 58.6803H200.401ZM212.495 69.703C212.495 70.8461 212.24 71.8463 211.729 72.7036C211.219 73.5609 210.505 74.2345 209.586 74.7244C208.688 75.2143 207.637 75.4593 206.432 75.4593V73.0404C207.453 73.0404 208.249 72.7546 208.821 72.1831C209.413 71.5911 209.709 70.7644 209.709 69.703H212.495ZM200.401 69.703H203.187C203.187 70.7644 203.473 71.5911 204.044 72.1831C204.636 72.7546 205.442 73.0404 206.463 73.0404V75.4593C205.279 75.4593 204.228 75.2143 203.309 74.7244C202.391 74.2345 201.676 73.5609 201.166 72.7036C200.656 71.8463 200.401 70.8461 200.401 69.703Z" fill="white"/>
<path fill-rule="evenodd" clip-rule="evenodd" d="M225.995 85.944C226.092 84.2557 224.712 82.8834 223.021 82.8834H172.5L121.979 82.8834C120.288 82.8834 118.908 84.2557 119.005 85.944C119.753 99.0392 125.286 111.447 134.611 120.772C141.074 127.235 149.018 131.876 157.645 134.366C157.56 134.647 157.514 134.946 157.514 135.255V147.502C157.514 149.193 158.885 150.564 160.576 150.564H185.071C186.762 150.564 188.133 149.193 188.133 147.502V135.255C188.133 134.881 188.066 134.523 187.944 134.192C196.343 131.664 204.073 127.088 210.389 120.772C219.713 111.447 225.246 99.0392 225.995 85.944Z" fill="white"/>
</g>
<defs>
<filter id="filter0_d_857_12656" x="0" y="0" width="346" height="207" filterUnits="userSpaceOnUse" color-interpolation-filters="sRGB">
<feFlood flood-opacity="0" result="BackgroundImageFix"/>
<feColorMatrix in="SourceAlpha" type="matrix" values="0 0 0 0 0 0 0 0 0 0 0 0 0 0 0 0 0 0 127 0" result="hardAlpha"/>
<feOffset dy="4"/>
<feGaussianBlur stdDeviation="2"/>
<feComposite in2="hardAlpha" operator="out"/>
<feColorMatrix type="matrix" values="0 0 0 0 0 0 0 0 0 0 0 0 0 0 0 0 0 0 0.25 0"/>
<feBlend mode="normal" in2="BackgroundImageFix" result="effect1_dropShadow_857_12656"/>
<feBlend mode="normal" in="SourceGraphic" in2="effect1_dropShadow_857_12656" result="shape"/>
</filter>
</defs>
</svg>
