<svg width="146" height="90" viewBox="0 0 146 90" fill="none" xmlns="http://www.w3.org/2000/svg">
<path d="M2.71082 75.4419C1.46091 75.4419 0.447667 76.4552 0.447667 77.7051C0.447667 78.955 1.46091 79.9682 2.71082 79.9682V75.4419ZM2.71082 79.9682H145.289V75.4419H2.71082V79.9682Z" fill="#953B1D"/>
<path d="M2.71082 84.4947C1.46091 84.4947 0.447667 85.5079 0.447667 86.7578C0.447667 88.0077 1.46091 89.021 2.71082 89.021V84.4947ZM2.71082 89.021H145.289V84.4947H2.71082V89.021Z" fill="#953B1D"/>
<path d="M19.5396 45.7578L13.2661 28.8295H18.9919L25.2654 45.7578H19.5396ZM10.229 31.5181V26.7881H14.4611V31.5181H10.229ZM10.229 15.0876V10.4074H14.4611V15.0876H10.229ZM19.0915 21.859V20.0665H24.867V21.859H19.0915ZM24.867 20.1163H19.0915C19.0915 18.5231 18.6766 17.2949 17.8468 16.4319C17.0169 15.5357 15.8718 15.0876 14.4113 15.0876V10.4074C16.4693 10.4074 18.2783 10.8223 19.8383 11.6522C21.3984 12.482 22.6265 13.6271 23.5227 15.0876C24.4189 16.5481 24.867 18.2243 24.867 20.1163ZM24.867 21.8092C24.867 23.7012 24.4189 25.3774 23.5227 26.8379C22.6265 28.2984 21.3984 29.4435 19.8383 30.2733C18.2783 31.1032 16.4693 31.5181 14.4113 31.5181V26.7881C15.8718 26.7881 17.0169 26.3566 17.8468 25.4936C18.6766 24.5974 19.0915 23.3692 19.0915 21.8092H24.867ZM5.69817 45.7578V10.4074H11.4737V45.7578H5.69817ZM39.0154 45.7578V41.0278H52.4087V45.7578H39.0154ZM39.5133 30.5223V25.7425H49.4213V30.5223H39.5133ZM35.2314 10.4074H41.0069V45.7578H35.2314V10.4074ZM39.5133 10.4074H51.9108V15.0876H39.5133V10.4074ZM76.5222 37.5924C76.5222 36.4306 76.1737 35.4182 75.4767 34.5552C74.7796 33.659 73.8668 32.8126 72.7383 32.016C71.6429 31.2193 70.4645 30.4227 69.2032 29.6261C67.9419 28.7963 66.7469 27.8835 65.6184 26.8877C64.523 25.8587 63.6102 24.6638 62.88 23.3028C62.1829 21.9419 61.8344 20.3487 61.8344 18.5231H67.61C67.61 19.6516 67.9585 20.664 68.6555 21.5602C69.3858 22.4564 70.2986 23.3028 71.3939 24.0995C72.5225 24.8961 73.7174 25.7093 74.9788 26.5392C76.2401 27.3358 77.4185 28.2486 78.5138 29.2776C79.6424 30.2733 80.5552 31.4517 81.2522 32.8126C81.9493 34.1403 82.2978 35.7336 82.2978 37.5924H76.5222ZM61.8344 18.5729C61.8344 16.7805 62.2825 15.2204 63.1787 13.8927C64.0749 12.5318 65.3031 11.4862 66.8631 10.756C68.4564 9.99252 70.2654 9.6108 72.2902 9.6108V14.3408C70.8297 14.3408 69.6845 14.7225 68.8547 15.4859C68.0249 16.2162 67.61 17.2452 67.61 18.5729H61.8344ZM82.2978 37.5426C82.2978 39.3682 81.8497 40.9448 80.9535 42.2726C80.0573 43.6003 78.8291 44.6459 77.2691 45.4093C75.709 46.1395 73.9 46.5047 71.8421 46.5047V41.8245C73.3025 41.8245 74.4477 41.4427 75.2775 40.6793C76.1073 39.9159 76.5222 38.8703 76.5222 37.5426H82.2978ZM76.5222 18.5231C76.3563 17.129 75.875 16.0834 75.0784 15.3864C74.3149 14.6893 73.3855 14.3408 72.2902 14.3408V9.6108C73.983 9.6108 75.4933 9.94273 76.821 10.6066C78.1487 11.2704 79.2275 12.1998 80.0573 13.3948C80.9203 14.5565 81.468 15.934 81.7003 17.5273L76.5222 18.5231ZM66.3652 35.4016C66.5312 37.3932 67.0955 38.9699 68.0581 40.1316C69.0207 41.2602 70.282 41.8245 71.8421 41.8245V46.5047C68.8215 46.5047 66.3652 45.6084 64.4732 43.816C62.6144 42.0236 61.5025 39.5342 61.1374 36.3476L66.3652 35.4016ZM89.8265 15.0876V10.4074H111.734V15.0876H89.8265ZM97.8923 45.7578V10.4074H103.668V45.7578H97.8923ZM135.07 36.8455V19.2699H140.846V36.8455H135.07ZM119.984 36.8455V19.2699H125.76V36.8455H119.984ZM140.846 19.3695H135.07C135.07 17.7762 134.655 16.5481 133.825 15.6851C132.996 14.7889 131.85 14.3408 130.39 14.3408V9.66059C132.448 9.66059 134.257 10.0755 135.817 10.9053C137.377 11.7351 138.605 12.8803 139.501 14.3408C140.398 15.8013 140.846 17.4775 140.846 19.3695ZM119.984 19.3695C119.984 17.4775 120.432 15.8013 121.328 14.3408C122.225 12.8803 123.453 11.7351 125.013 10.9053C126.606 10.0755 128.415 9.66059 130.44 9.66059V14.3408C128.979 14.3408 127.834 14.7889 127.004 15.6851C126.174 16.5481 125.76 17.7762 125.76 19.3695H119.984ZM140.846 36.7957C140.846 38.6877 140.398 40.364 139.501 41.8245C138.605 43.2849 137.377 44.4301 135.817 45.2599C134.257 46.0897 132.448 46.5047 130.39 46.5047V41.7747C131.85 41.7747 132.996 41.3432 133.825 40.4801C134.655 39.5839 135.07 38.3558 135.07 36.7957H140.846ZM119.984 36.7957H125.76C125.76 38.3558 126.174 39.5839 127.004 40.4801C127.834 41.3432 128.979 41.7747 130.44 41.7747V46.5047C128.415 46.5047 126.606 46.0897 125.013 45.2599C123.453 44.4301 122.225 43.2849 121.328 41.8245C120.432 40.364 119.984 38.6877 119.984 36.7957Z" fill="#953B1D"/>
</svg>
