<svg width="242" height="191" viewBox="0 0 242 191" fill="none" xmlns="http://www.w3.org/2000/svg">
<rect width="240.336" height="190" transform="translate(0.832031 0.0292969)" fill="#C65310"/>
<path d="M50.96 111.029L43.4347 98.1093H38.448V111.029H34.3227V79.432H44.5227C46.9103 79.432 48.92 79.84 50.552 80.656C52.2143 81.472 53.4534 82.5751 54.2694 83.9653C55.0854 85.3555 55.4934 86.9422 55.4934 88.7253C55.4934 90.9013 54.8587 92.8204 53.5894 94.4826C52.3503 96.1449 50.4765 97.248 47.968 97.792L55.9014 111.029H50.96ZM38.448 94.8H44.5227C46.7591 94.8 48.4365 94.256 49.5547 93.168C50.6729 92.0497 51.232 90.5689 51.232 88.7253C51.232 86.8515 50.6729 85.4009 49.5547 84.3733C48.4667 83.3457 46.7894 82.832 44.5227 82.832H38.448V94.8ZM75.0954 82.7866V93.3493H86.6101V96.7493H75.0954V107.629H87.9701V111.029H70.9701V79.3866H87.9701V82.7866H75.0954ZM113.298 111.347C111.212 111.347 109.339 110.984 107.676 110.259C106.044 109.503 104.76 108.476 103.823 107.176C102.886 105.846 102.403 104.32 102.372 102.597H106.77C106.921 104.078 107.525 105.332 108.583 106.36C109.671 107.357 111.243 107.856 113.298 107.856C115.262 107.856 116.803 107.372 117.922 106.405C119.07 105.408 119.644 104.139 119.644 102.597C119.644 101.388 119.312 100.406 118.647 99.6506C117.982 98.8951 117.151 98.3209 116.154 97.928C115.156 97.5351 113.811 97.112 112.119 96.6586C110.034 96.1146 108.356 95.5706 107.087 95.0266C105.848 94.4826 104.775 93.6364 103.868 92.488C102.992 91.3093 102.554 89.7377 102.554 87.7733C102.554 86.0506 102.992 84.5244 103.868 83.1946C104.745 81.8649 105.969 80.8373 107.54 80.112C109.142 79.3866 110.971 79.024 113.026 79.024C115.987 79.024 118.405 79.7644 120.279 81.2453C122.183 82.7262 123.256 84.6906 123.498 87.1386H118.964C118.813 85.9297 118.179 84.872 117.06 83.9653C115.942 83.0284 114.461 82.56 112.618 82.56C110.895 82.56 109.49 83.0133 108.402 83.92C107.314 84.7964 106.77 86.0355 106.77 87.6373C106.77 88.7857 107.087 89.7226 107.722 90.448C108.387 91.1733 109.187 91.7324 110.124 92.1253C111.091 92.488 112.436 92.9111 114.159 93.3946C116.244 93.9689 117.922 94.5431 119.191 95.1173C120.46 95.6613 121.548 96.5226 122.455 97.7013C123.362 98.8497 123.815 100.421 123.815 102.416C123.815 103.957 123.407 105.408 122.591 106.768C121.775 108.128 120.566 109.231 118.964 110.077C117.363 110.924 115.474 111.347 113.298 111.347ZM158.4 79.432V82.7866H149.787V111.029H145.662V82.7866H137.003V79.432H158.4ZM186.87 111.347C183.939 111.347 181.264 110.667 178.846 109.307C176.429 107.916 174.51 105.997 173.089 103.549C171.699 101.071 171.004 98.2906 171.004 95.208C171.004 92.1253 171.699 89.36 173.089 86.912C174.51 84.4337 176.429 82.5146 178.846 81.1546C181.264 79.7644 183.939 79.0693 186.87 79.0693C189.832 79.0693 192.522 79.7644 194.94 81.1546C197.358 82.5146 199.262 84.4186 200.652 86.8666C202.042 89.3146 202.737 92.0951 202.737 95.208C202.737 98.3209 202.042 101.101 200.652 103.549C199.262 105.997 197.358 107.916 194.94 109.307C192.522 110.667 189.832 111.347 186.87 111.347ZM186.87 107.765C189.077 107.765 191.056 107.252 192.809 106.224C194.592 105.196 195.982 103.731 196.98 101.827C198.007 99.9226 198.521 97.7164 198.521 95.208C198.521 92.6693 198.007 90.4631 196.98 88.5893C195.982 86.6853 194.607 85.2195 192.854 84.192C191.102 83.1644 189.107 82.6506 186.87 82.6506C184.634 82.6506 182.639 83.1644 180.886 84.192C179.134 85.2195 177.743 86.6853 176.716 88.5893C175.718 90.4631 175.22 92.6693 175.22 95.208C175.22 97.7164 175.718 99.9226 176.716 101.827C177.743 103.731 179.134 105.196 180.886 106.224C182.67 107.252 184.664 107.765 186.87 107.765Z" fill="white"/>
<path d="M210.201 109.932C211.206 110.466 212.454 110.084 212.988 109.079C213.522 108.074 213.139 106.826 212.134 106.292L210.201 109.932ZM196.865 102.849L210.201 109.932L212.134 106.292L198.799 99.2094L196.865 102.849Z" fill="white"/>
</svg>
