<svg width="182" height="82" viewBox="0 0 182 82" fill="none" xmlns="http://www.w3.org/2000/svg">
<path fill-rule="evenodd" clip-rule="evenodd" d="M14.6775 23.8963C20.2958 22.8832 24.5581 17.9686 24.5581 12.0584C24.5581 5.41493 19.1724 0.0292969 12.5289 0.0292969C5.88539 0.0292969 0.499756 5.41493 0.499756 12.0584C0.499756 17.969 4.76252 22.8839 10.3814 23.8965L10.3814 79.411C10.3814 80.5973 11.3431 81.559 12.5295 81.559C13.7158 81.559 14.6775 80.5973 14.6775 79.411L14.6775 23.8963Z" fill="#953B1D"/>
<path d="M41.3311 53.3203H37.3615V24.9314H46.4636C47.8269 24.9314 49.1234 25.0784 50.353 25.3725C51.5827 25.6398 52.6519 26.0808 53.5608 26.6957C54.4964 27.3105 55.2315 28.1258 55.7661 29.1416C56.3008 30.1307 56.5681 31.347 56.5681 32.7905C56.5681 34.8755 55.9265 36.5596 54.6434 37.8427C53.3603 39.1258 51.7029 39.9412 49.6713 40.2887L57.6106 53.3203H52.7989L45.5814 40.6896H41.3311V53.3203ZM41.3311 37.3616H45.9022C46.8378 37.3616 47.7066 37.2814 48.5085 37.121C49.3105 36.9606 50.0055 36.7066 50.5936 36.3591C51.2084 35.9849 51.6896 35.5171 52.0371 34.9557C52.3846 34.3676 52.5584 33.6459 52.5584 32.7905C52.5584 31.9351 52.3846 31.2267 52.0371 30.6653C51.6896 30.0772 51.2218 29.6094 50.6337 29.2619C50.0723 28.9144 49.404 28.6738 48.6288 28.5401C47.8536 28.3798 47.0383 28.2996 46.1829 28.2996H41.3311V37.3616ZM77.2398 42.1331C77.2131 41.3847 77.0795 40.6896 76.8389 40.0481C76.625 39.3798 76.2909 38.8051 75.8364 38.3239C75.4087 37.8427 74.8607 37.4685 74.1924 37.2012C73.5509 36.9071 72.789 36.7601 71.9069 36.7601C71.105 36.7601 70.3431 36.9071 69.6213 37.2012C68.9263 37.4685 68.3115 37.8427 67.7769 38.3239C67.269 38.8051 66.8413 39.3798 66.4938 40.0481C66.173 40.6896 65.9859 41.3847 65.9324 42.1331H77.2398ZM81.0491 43.6568C81.0491 43.8707 81.0491 44.0846 81.0491 44.2984C81.0491 44.5123 81.0357 44.7261 81.009 44.94H65.9324C65.9591 45.7419 66.1329 46.5038 66.4537 47.2255C66.8012 47.9205 67.2556 48.5354 67.817 49.07C68.3783 49.5779 69.0199 49.9789 69.7416 50.2729C70.4901 50.567 71.2787 50.714 72.1074 50.714C73.3905 50.714 74.4999 50.4333 75.4355 49.8719C76.3711 49.3106 77.1062 48.6289 77.6408 47.827L80.2872 49.9521C79.2714 51.2887 78.0685 52.2778 76.6785 52.9193C75.3152 53.5342 73.7915 53.8416 72.1074 53.8416C70.6639 53.8416 69.3273 53.601 68.0977 53.1198C66.868 52.6387 65.8121 51.9704 64.93 51.115C64.0478 50.2328 63.3528 49.1769 62.8449 47.9473C62.337 46.7176 62.083 45.3543 62.083 43.8573C62.083 42.3871 62.3236 41.0372 62.8048 39.8075C63.3127 38.5511 64.0077 37.4819 64.8899 36.5997C65.772 35.7176 66.8145 35.0359 68.0175 34.5547C69.2204 34.0468 70.5169 33.7929 71.9069 33.7929C73.2969 33.7929 74.5533 34.0201 75.6761 34.4746C76.8255 34.929 77.7878 35.5839 78.5631 36.4393C79.365 37.2947 79.9798 38.3373 80.4075 39.5669C80.8352 40.7698 81.0491 42.1331 81.0491 43.6568ZM98.5814 39.1258C98.1537 38.4308 97.5522 37.8695 96.777 37.4418C96.0018 36.9873 95.133 36.7601 94.1706 36.7601C93.7429 36.7601 93.3152 36.8136 92.8875 36.9205C92.4598 37.0007 92.0722 37.1477 91.7247 37.3616C91.4039 37.5487 91.1366 37.8026 90.9228 38.1234C90.7356 38.4175 90.6421 38.7917 90.6421 39.2461C90.6421 40.0481 91.003 40.6495 91.7247 41.0505C92.4465 41.4248 93.5291 41.7723 94.9726 42.0931C95.8815 42.3069 96.7235 42.5609 97.4987 42.8549C98.2739 43.1489 98.9422 43.5232 99.5036 43.9776C100.092 44.4053 100.546 44.9266 100.867 45.5414C101.188 46.1563 101.348 46.878 101.348 47.7067C101.348 48.8294 101.134 49.7784 100.707 50.5536C100.279 51.3288 99.7041 51.9704 98.9823 52.4783C98.2873 52.9594 97.4854 53.3069 96.5765 53.5208C95.6676 53.7347 94.732 53.8416 93.7697 53.8416C92.3262 53.8416 90.9094 53.5609 89.5194 52.9995C88.156 52.4382 87.02 51.5828 86.1111 50.4333L88.7976 48.1478C89.3055 48.8962 90.0005 49.5244 90.8827 50.0323C91.7915 50.5402 92.7806 50.7942 93.8499 50.7942C94.331 50.7942 94.7855 50.7541 95.2132 50.6739C95.6676 50.567 96.0686 50.4066 96.4161 50.1927C96.7903 49.9789 97.0844 49.6982 97.2982 49.3507C97.5121 49.0032 97.619 48.5621 97.619 48.0275C97.619 47.1453 97.1913 46.4904 96.3359 46.0627C95.5072 45.635 94.2776 45.234 92.6469 44.8598C92.0054 44.6994 91.3505 44.5123 90.6822 44.2984C90.0406 44.0578 89.4525 43.737 88.9179 43.3361C88.3833 42.9351 87.9422 42.4406 87.5947 41.8525C87.2739 41.2376 87.1135 40.4892 87.1135 39.607C87.1135 38.5912 87.314 37.7224 87.715 37.0007C88.1427 36.2522 88.6907 35.6507 89.359 35.1963C90.0273 34.7151 90.7891 34.3676 91.6445 34.1538C92.4999 33.9132 93.3821 33.7929 94.2909 33.7929C95.6542 33.7929 96.9641 34.0602 98.2205 34.5948C99.5036 35.1295 100.493 35.9047 101.188 36.9205L98.5814 39.1258ZM117.441 37.4017H112.388V47.3057C112.388 48.4552 112.602 49.2838 113.03 49.7917C113.458 50.2729 114.139 50.5135 115.075 50.5135C115.422 50.5135 115.797 50.4734 116.198 50.3932C116.599 50.313 116.959 50.1927 117.28 50.0323L117.4 53.1198C116.946 53.2802 116.438 53.4005 115.877 53.4807C115.342 53.5876 114.781 53.6411 114.193 53.6411C112.402 53.6411 111.025 53.1466 110.063 52.1575C109.127 51.1684 108.659 49.6848 108.659 47.7067V37.4017H105.01V34.3142H108.659V28.8609H112.388V34.3142H117.441V37.4017ZM142.586 43.7771C142.586 45.2474 142.318 46.5973 141.784 47.827C141.276 49.0566 140.554 50.1259 139.618 51.0348C138.71 51.9169 137.627 52.6119 136.371 53.1198C135.114 53.601 133.764 53.8416 132.321 53.8416C130.877 53.8416 129.527 53.601 128.271 53.1198C127.015 52.6119 125.932 51.9169 125.023 51.0348C124.114 50.1259 123.392 49.0566 122.858 47.827C122.35 46.5973 122.096 45.2474 122.096 43.7771C122.096 42.3069 122.35 40.9703 122.858 39.7674C123.392 38.5378 124.114 37.4819 125.023 36.5997C125.932 35.7176 127.015 35.0359 128.271 34.5547C129.527 34.0468 130.877 33.7929 132.321 33.7929C133.764 33.7929 135.114 34.0468 136.371 34.5547C137.627 35.0359 138.71 35.7176 139.618 36.5997C140.554 37.4819 141.276 38.5378 141.784 39.7674C142.318 40.9703 142.586 42.3069 142.586 43.7771ZM138.656 43.7771C138.656 42.8683 138.509 41.9995 138.215 41.1708C137.948 40.3421 137.547 39.6204 137.012 39.0056C136.478 38.364 135.809 37.8561 135.007 37.4819C134.232 37.1076 133.337 36.9205 132.321 36.9205C131.305 36.9205 130.396 37.1076 129.594 37.4819C128.819 37.8561 128.164 38.364 127.629 39.0056C127.095 39.6204 126.68 40.3421 126.386 41.1708C126.119 41.9995 125.985 42.8683 125.985 43.7771C125.985 44.686 126.119 45.5548 126.386 46.3835C126.68 47.2121 127.095 47.9473 127.629 48.5888C128.164 49.2304 128.819 49.7383 129.594 50.1125C130.396 50.4868 131.305 50.6739 132.321 50.6739C133.337 50.6739 134.232 50.4868 135.007 50.1125C135.809 49.7383 136.478 49.2304 137.012 48.5888C137.547 47.9473 137.948 47.2121 138.215 46.3835C138.509 45.5548 138.656 44.686 138.656 43.7771Z" fill="#953B1D"/>
<path fill-rule="evenodd" clip-rule="evenodd" d="M157.514 0.697266C158.701 0.697266 159.662 1.65899 159.662 2.84534V17.6277C159.748 18.0318 159.772 18.3714 159.789 18.6049C159.811 18.9092 159.819 19.0129 159.85 19.1409C159.898 19.3439 160.073 19.8903 161.122 21.1809C161.714 21.9097 162.972 22.4222 164.731 22.6204C165.33 22.6879 165.922 22.7117 166.464 22.7098L166.464 2.84534C166.464 1.65899 167.426 0.697266 168.612 0.697266C169.799 0.697266 170.761 1.65899 170.761 2.84534L170.761 22.7073C171.201 22.6994 171.666 22.6733 172.136 22.6204C173.894 22.4222 175.152 21.9097 175.745 21.1809C176.794 19.8903 176.969 19.3439 177.017 19.1409C177.047 19.0129 177.056 18.9092 177.078 18.6049C177.094 18.3714 177.119 18.0318 177.204 17.6277V2.84534C177.204 1.65899 178.166 0.697266 179.352 0.697266C180.539 0.697266 181.5 1.65899 181.5 2.84534V17.8818V18.1739L181.422 18.4555C181.394 18.5571 181.381 18.6498 181.363 18.9103L181.359 18.9671C181.341 19.2246 181.312 19.6475 181.197 20.1318C180.937 21.2282 180.321 22.3629 179.078 23.8909C177.38 25.9806 174.656 26.6597 172.617 26.8895C171.978 26.9616 171.35 26.9955 170.761 27.0039L170.761 78.7435C170.761 79.9299 169.799 80.8916 168.612 80.8916C167.426 80.8916 166.464 79.9299 166.464 78.7435L166.464 27.006C165.774 27.0078 165.02 26.9764 164.25 26.8895C162.211 26.6597 159.487 25.9806 157.788 23.8909C156.546 22.3629 155.929 21.2282 155.669 20.1318C155.555 19.6475 155.525 19.2246 155.508 18.9671L155.504 18.9103C155.485 18.6498 155.472 18.5571 155.444 18.4555L155.366 18.1739V17.8818V2.84534C155.366 1.65899 156.328 0.697266 157.514 0.697266Z" fill="#953B1D"/>
</svg>
