<svg width="132" height="38" viewBox="0 0 132 38" fill="none" xmlns="http://www.w3.org/2000/svg">
<path d="M14.1326 37L7.66155 19.6091H12.3632L18.8342 37H14.1326ZM3.51604 21.8841V17.9408H8.67265V21.8841H3.51604ZM3.51604 5.35258V1.35874H8.67265V5.35258H3.51604ZM14.0315 12.4808V10.762H18.632V12.4808H14.0315ZM18.632 10.8125H14.0315C14.0315 9.05995 13.5428 7.71181 12.5654 6.76812C11.6217 5.82443 10.3073 5.35258 8.6221 5.35258V1.35874C10.6106 1.35874 12.3463 1.76318 13.8293 2.57206C15.3459 3.34723 16.5255 4.45944 17.3681 5.90869C18.2107 7.32423 18.632 8.95884 18.632 10.8125ZM18.632 12.4303C18.632 14.284 18.2107 15.9354 17.3681 17.3847C16.5255 18.8002 15.3459 19.9124 13.8293 20.7213C12.3463 21.4965 10.6106 21.8841 8.6221 21.8841V17.9408C10.3073 17.9408 11.6217 17.4521 12.5654 16.4747C13.5428 15.4973 14.0315 14.1491 14.0315 12.4303H18.632ZM0.533299 37V1.35874H5.1338V37H0.533299ZM31.5192 37V33.0062H45.5229V37H31.5192ZM32.2775 21.2774V17.1824H42.4896V21.2774H32.2775ZM28.9409 1.35874H33.5414V37H28.9409V1.35874ZM32.0247 1.35874H45.0173V5.35258H32.0247V1.35874ZM70.0286 29.0123C70.0286 27.7653 69.6747 26.6699 68.967 25.7262C68.2592 24.7488 67.3492 23.8389 66.237 22.9963C65.1248 22.1537 63.9283 21.2943 62.6476 20.418C61.4006 19.5417 60.221 18.5811 59.1087 17.5363C57.9965 16.4915 57.0865 15.3119 56.3788 13.9975C55.671 12.6494 55.3171 11.099 55.3171 9.34642H59.9176C59.9176 10.5597 60.2715 11.6551 60.9793 12.6325C61.687 13.5762 62.597 14.4862 63.7092 15.3625C64.8215 16.2051 66.0011 17.0645 67.2481 17.9408C68.5288 18.8171 69.7253 19.7776 70.8375 20.8224C71.9497 21.8335 72.8597 23.0131 73.5675 24.3613C74.2752 25.6757 74.6291 27.226 74.6291 29.0123H70.0286ZM55.3171 9.44754C55.3171 7.59385 55.7384 6.0098 56.581 4.69537C57.4236 3.38094 58.6032 2.36984 60.1198 1.66207C61.6365 0.954299 63.3722 0.600415 65.327 0.600415V4.5437C63.6418 4.5437 62.3106 4.98185 61.3332 5.85813C60.3895 6.73442 59.9176 7.93089 59.9176 9.44754H55.3171ZM74.6291 28.9112C74.6291 30.7312 74.2078 32.3152 73.3652 33.6634C72.5227 34.9778 71.343 35.9889 69.8264 36.6967C68.3435 37.4044 66.6077 37.7583 64.6192 37.7583V33.7645C66.3044 33.7645 67.6188 33.3432 68.5625 32.5006C69.5399 31.6243 70.0286 30.4279 70.0286 28.9112H74.6291ZM70.0792 8.99254C69.9107 7.47589 69.3714 6.36368 68.4614 5.65591C67.5851 4.91444 66.5403 4.5437 65.327 4.5437V0.600415C66.9111 0.600415 68.3435 0.920596 69.6242 1.56096C70.9049 2.20132 71.9666 3.07761 72.8091 4.18982C73.6517 5.30203 74.1741 6.61646 74.3763 8.13311L70.0792 8.99254ZM58.5526 26.9901C58.7549 29.1134 59.3784 30.7817 60.4232 31.9951C61.5017 33.1747 62.9004 33.7645 64.6192 33.7645V37.7583C61.7545 37.7583 59.4121 36.882 57.5921 35.1295C55.8058 33.3769 54.7273 30.9503 54.3566 27.8495L58.5526 26.9901ZM82.2527 5.35258V1.35874H103.233V5.35258H82.2527ZM90.4426 37V1.35874H95.0431V37H90.4426ZM126.465 28.3045V10.0036H131.066V28.3045H126.465ZM111.097 28.3045V10.0036H115.697V28.3045H111.097ZM131.066 10.0542H126.465C126.465 8.30162 125.977 6.95349 124.999 6.0098C124.056 5.0661 122.741 4.59426 121.056 4.59426V0.600415C123.044 0.600415 124.78 1.00485 126.263 1.81373C127.78 2.58891 128.959 3.70112 129.802 5.15036C130.645 6.5659 131.066 8.20051 131.066 10.0542ZM111.097 10.0542C111.097 8.20051 111.518 6.5659 112.361 5.15036C113.203 3.70112 114.383 2.58891 115.899 1.81373C117.416 1.00485 119.152 0.600415 121.107 0.600415V4.59426C119.421 4.59426 118.09 5.0661 117.113 6.0098C116.169 6.95349 115.697 8.30162 115.697 10.0542H111.097ZM131.066 28.254C131.066 30.1414 130.645 31.7928 129.802 33.2084C128.959 34.6239 127.78 35.7361 126.263 36.545C124.78 37.3539 123.044 37.7583 121.056 37.7583V33.7645C122.741 33.7645 124.056 33.2926 124.999 32.3489C125.977 31.3715 126.465 30.0066 126.465 28.254H131.066ZM111.097 28.254H115.697C115.697 30.0066 116.169 31.3715 117.113 32.3489C118.09 33.2926 119.421 33.7645 121.107 33.7645V37.7583C119.152 37.7583 117.416 37.3539 115.899 36.545C114.383 35.7361 113.203 34.6239 112.361 33.2084C111.518 31.7928 111.097 30.1414 111.097 28.254Z" fill="#C65310"/>
</svg>
