<svg width="103" height="63" viewBox="0 0 103 63" fill="none" xmlns="http://www.w3.org/2000/svg">
<path d="M2.50037 53.0768C1.62373 53.0768 0.913072 53.7874 0.913072 54.6641C0.913072 55.5407 1.62373 56.2514 2.50037 56.2514V53.0768ZM2.50037 56.2514H102.5V53.0768H2.50037V56.2514Z" fill="#953B1D"/>
<path d="M2.50009 59.4283C1.62345 59.4283 0.912798 60.139 0.912798 61.0156C0.912798 61.8923 1.62345 62.6029 2.50009 62.6029V59.4283ZM2.50009 62.6029H102.5V59.4283H2.50009V62.6029Z" fill="#953B1D"/>
<path d="M14.3032 34.6973L9.90323 22.8243H13.9191L18.3191 34.6973H14.3032ZM7.77308 24.71V21.3926H10.7413V24.71H7.77308ZM7.77308 13.1863V9.90374H10.7413V13.1863H7.77308ZM13.9889 17.9354V16.6783H18.0397V17.9354H13.9889ZM18.0397 16.7132H13.9889C13.9889 15.5958 13.6979 14.7344 13.1159 14.1291C12.5339 13.5005 11.7307 13.1863 10.7064 13.1863V9.90374C12.1498 9.90374 13.4186 10.1947 14.5127 10.7767C15.6069 11.3588 16.4683 12.1619 17.0968 13.1863C17.7254 14.2106 18.0397 15.3862 18.0397 16.7132ZM18.0397 17.9005C18.0397 19.2275 17.7254 20.4032 17.0968 21.4275C16.4683 22.4518 15.6069 23.255 14.5127 23.837C13.4186 24.419 12.1498 24.71 10.7064 24.71V21.3926C11.7307 21.3926 12.5339 21.0899 13.1159 20.4846C13.6979 19.8561 13.9889 18.9947 13.9889 17.9005H18.0397ZM4.59532 34.6973V9.90374H8.64609V34.6973H4.59532ZM27.9628 34.6973V31.3798H37.3564V34.6973H27.9628ZM28.312 24.0116V20.6592H35.2612V24.0116H28.312ZM25.3089 9.90374H29.3597V34.6973H25.3089V9.90374ZM28.312 9.90374H37.0072V13.1863H28.312V9.90374ZM54.2689 28.9703C54.2689 28.1555 54.0244 27.4454 53.5355 26.8402C53.0466 26.2116 52.4064 25.6179 51.6149 25.0592C50.8467 24.5005 50.0202 23.9418 49.1356 23.383C48.2509 22.801 47.4128 22.1608 46.6213 21.4624C45.853 20.7407 45.2128 19.9026 44.7007 18.9481C44.2118 17.9936 43.9673 16.8762 43.9673 15.5958H48.0181C48.0181 16.3873 48.2625 17.0974 48.7514 17.7259C49.2636 18.3545 49.9038 18.9481 50.6721 19.5069C51.4636 20.0656 52.3017 20.636 53.1863 21.218C54.071 21.7767 54.8974 22.4169 55.6657 23.1386C56.4572 23.837 57.0974 24.6635 57.5863 25.6179C58.0752 26.5492 58.3196 27.6666 58.3196 28.9703H54.2689ZM43.9673 15.6307C43.9673 14.3736 44.2816 13.2794 44.9102 12.3482C45.5387 11.3937 46.4001 10.6603 47.4943 10.1482C48.6117 9.61273 49.8805 9.34501 51.3006 9.34501V12.6625C50.2763 12.6625 49.4731 12.9302 48.8911 13.4656C48.3091 13.9778 48.0181 14.6995 48.0181 15.6307H43.9673ZM58.3196 28.9354C58.3196 30.2158 58.0054 31.3216 57.3768 32.2528C56.7482 33.184 55.8868 33.9174 54.7927 34.4528C53.6985 34.965 52.4297 35.2211 50.9863 35.2211V31.9385C52.0107 31.9385 52.8138 31.6708 53.3958 31.1354C53.9779 30.5999 54.2689 29.8666 54.2689 28.9354H58.3196ZM54.2689 15.5958C54.1525 14.618 53.8149 13.8847 53.2562 13.3958C52.7207 12.9069 52.0689 12.6625 51.3006 12.6625V9.34501C52.4879 9.34501 53.5472 9.57781 54.4784 10.0434C55.4096 10.509 56.1662 11.1609 56.7482 11.999C57.3535 12.8138 57.7376 13.7799 57.9006 14.8974L54.2689 15.5958ZM47.1451 27.4338C47.2615 28.8306 47.6573 29.9364 48.3324 30.7513C49.0075 31.5428 49.8922 31.9385 50.9863 31.9385V35.2211C48.8678 35.2211 47.1451 34.5925 45.8181 33.3354C44.5144 32.0782 43.7345 30.3322 43.4784 28.0973L47.1451 27.4338ZM63.4295 13.1863V9.90374H78.7945V13.1863H63.4295ZM69.0866 34.6973V9.90374H73.1374V34.6973H69.0866ZM94.8208 28.4465V16.1196H98.8716V28.4465H94.8208ZM84.2399 28.4465V16.1196H88.2907V28.4465H84.2399ZM98.8716 16.1894H94.8208C94.8208 15.072 94.5298 14.2106 93.9478 13.6053C93.3658 12.9767 92.5626 12.6625 91.5383 12.6625V9.37993C92.9816 9.37993 94.2504 9.67093 95.3446 10.2529C96.4388 10.8349 97.3001 11.6381 97.9287 12.6625C98.5573 13.6868 98.8716 14.8624 98.8716 16.1894ZM84.2399 16.1894C84.2399 14.8624 84.5542 13.6868 85.1827 12.6625C85.8113 11.6381 86.6727 10.8349 87.7669 10.2529C88.8843 9.67093 90.1531 9.37993 91.5732 9.37993V12.6625C90.5489 12.6625 89.7457 12.9767 89.1637 13.6053C88.5817 14.2106 88.2907 15.072 88.2907 16.1894H84.2399ZM98.8716 28.4116C98.8716 29.7386 98.5573 30.9142 97.9287 31.9385C97.3001 32.9629 96.4388 33.7661 95.3446 34.3481C94.2504 34.9301 92.9816 35.2211 91.5383 35.2211V31.9036C92.5626 31.9036 93.3658 31.601 93.9478 30.9957C94.5298 30.3671 94.8208 29.5058 94.8208 28.4116H98.8716ZM84.2399 28.4116H88.2907C88.2907 29.5058 88.5817 30.3671 89.1637 30.9957C89.7457 31.601 90.5489 31.9036 91.5732 31.9036V35.2211C90.1531 35.2211 88.8843 34.9301 87.7669 34.3481C86.6727 33.7661 85.8113 32.9629 85.1827 31.9385C84.5542 30.9142 84.2399 29.7386 84.2399 28.4116Z" fill="#953B1D"/>
</svg>
