<svg width="63" height="64" viewBox="0 0 63 64" fill="none" xmlns="http://www.w3.org/2000/svg">
<g filter="url(#filter0_d_1940_18953)">
<rect x="1.5" y="0.697266" width="60" height="60" rx="10" fill="#FEFEFE"/>
<rect x="1.55" y="0.747266" width="59.9" height="59.9" rx="9.95" stroke="#D9D9D9" stroke-width="0.1"/>
<path fill-rule="evenodd" clip-rule="evenodd" d="M55.4978 27.0988C55.542 26.3257 54.9101 25.6973 54.1357 25.6973H31L7.86432 25.6973C7.08993 25.6973 6.45798 26.3257 6.50219 27.0988C6.84504 33.0957 9.37884 38.7779 13.6491 43.0481C16.5654 45.9644 20.14 48.0708 24.0237 49.2226C24.0012 49.3224 23.9893 49.4263 23.9893 49.533V55.1417C23.9893 55.9161 24.617 56.5438 25.3914 56.5438H36.6087C37.3831 56.5438 38.0109 55.9161 38.0109 55.1417V49.533C38.0109 49.4263 37.999 49.3224 37.9764 49.2225C41.86 48.0707 45.4347 45.9643 48.3509 43.0481C52.6212 38.7779 55.155 33.0957 55.4978 27.0988Z" fill="#C65310"/>
<path d="M20.7506 18.399C20.033 18.8129 19.7869 19.7303 20.2009 20.4478C20.6149 21.1654 21.5322 21.4115 22.2497 20.9975L20.7506 18.399ZM22.2497 20.9975L48.2497 5.99752L46.7506 3.39896L20.7506 18.399L22.2497 20.9975Z" fill="#5F4C35"/>
<path d="M23.7252 21.23C22.9343 21.4765 22.493 22.3175 22.7395 23.1084C22.986 23.8993 23.8269 24.3407 24.6178 24.0942L23.7252 21.23ZM24.6178 24.0942L53.2751 15.1632L52.3825 12.2991L23.7252 21.23L24.6178 24.0942Z" fill="#5F4C35"/>
<path d="M33.26 45.6982L30.74 38.8982H33.04L35.56 45.6982H33.26ZM29.52 39.9782V38.0782H31.22V39.9782H29.52ZM29.52 33.3782V31.4982H31.22V33.3782H29.52ZM33.08 36.0982V35.3782H35.4V36.0982H33.08ZM35.4 35.3982H33.08C33.08 34.7582 32.9133 34.2649 32.58 33.9182C32.2467 33.5582 31.7867 33.3782 31.2 33.3782V31.4982C32.0267 31.4982 32.7533 31.6649 33.38 31.9982C34.0067 32.3316 34.5 32.7916 34.86 33.3782C35.22 33.9649 35.4 34.6382 35.4 35.3982ZM35.4 36.0782C35.4 36.8382 35.22 37.5116 34.86 38.0982C34.5 38.6849 34.0067 39.1449 33.38 39.4782C32.7533 39.8116 32.0267 39.9782 31.2 39.9782V38.0782C31.7867 38.0782 32.2467 37.9049 32.58 37.5582C32.9133 37.1982 33.08 36.7049 33.08 36.0782H35.4ZM27.7 45.6982V31.4982H30.02V45.6982H27.7Z" fill="#FEFEFE"/>
</g>
<defs>
<filter id="filter0_d_1940_18953" x="0.166667" y="0.697266" width="62.6667" height="62.6667" filterUnits="userSpaceOnUse" color-interpolation-filters="sRGB">
<feFlood flood-opacity="0" result="BackgroundImageFix"/>
<feColorMatrix in="SourceAlpha" type="matrix" values="0 0 0 0 0 0 0 0 0 0 0 0 0 0 0 0 0 0 127 0" result="hardAlpha"/>
<feOffset dy="1.33333"/>
<feGaussianBlur stdDeviation="0.666667"/>
<feComposite in2="hardAlpha" operator="out"/>
<feColorMatrix type="matrix" values="0 0 0 0 0 0 0 0 0 0 0 0 0 0 0 0 0 0 0.25 0"/>
<feBlend mode="normal" in2="BackgroundImageFix" result="effect1_dropShadow_1940_18953"/>
<feBlend mode="normal" in="SourceGraphic" in2="effect1_dropShadow_1940_18953" result="shape"/>
</filter>
</defs>
</svg>
