<svg width="501" height="263" viewBox="0 0 501 263" fill="none" xmlns="http://www.w3.org/2000/svg">
<circle cx="67.2237" cy="177.005" r="9.02059" fill="url(#paint0_linear_1940_17254)"/>
<path d="M75.0179 225.958C70.3062 225.877 65.6071 225.446 60.9591 224.67C51.7002 223.123 42.6355 220.167 34.412 215.611C33.9238 215.338 33.4355 215.061 32.9414 214.779C40.2326 207.858 45.6443 199.485 50.2179 190.602C53.512 184.194 55.2179 179.967 62.3326 177.27C74.7032 172.585 91.4149 177.141 94.9326 191.058C96.4179 196.941 96.4738 203.091 95.6296 209.076C94.8149 214.864 92.6708 226.011 92.6708 226.011C92.6708 226.011 77.3267 226 75.0179 225.958Z" fill="url(#paint1_linear_1940_17254)"/>
<path d="M107.262 244.781C87.601 259.92 60.1771 259.799 40.6504 244.487L54.9622 237.778C55.4002 237.571 55.8273 237.341 56.2416 237.09L56.571 236.884C56.6886 236.811 56.8033 236.734 56.918 236.655C58.724 235.408 60.2038 233.746 61.2327 231.808C62.4092 229.587 62.7975 227.134 62.8151 224.634C62.8151 223.261 62.7592 221.887 62.7239 220.516C62.7239 220.207 62.718 219.898 62.7063 219.59C62.6945 218.657 62.6847 217.724 62.6769 216.793H62.6975L63.2592 217.087L64.7886 217.878L73.6975 219.393L82.8504 220.952L83.0592 228.011L83.118 230.034V230.349L83.2563 235.016L86.6298 236.39L89.2769 237.461L107.262 244.781Z" fill="#FEC8C1"/>
<path d="M83.0591 228.017C82.4252 228.451 81.6679 228.669 80.9003 228.637C76.5503 228.17 68.065 224.761 62.7238 218.452C62.7238 218.142 62.7179 217.833 62.7061 217.526V216.799L63.2679 217.093L64.7973 217.884L73.7061 219.399L82.8591 220.958L83.0591 228.017Z" fill="#F9B09E"/>
<circle cx="55.3203" cy="207.375" r="5" fill="#FEC8C1"/>
<circle cx="57.0857" cy="206.787" r="5" fill="#F9B09E"/>
<path d="M89.3038 199.805C92.7597 211.77 85.4215 226.237 80.9097 226.237C74.7332 226.237 59.7332 221.302 56.2832 209.337C52.8332 197.373 57.4097 185.537 66.5274 182.905C75.645 180.273 85.8509 187.849 89.3038 199.805Z" fill="#FEC8C1"/>
<path d="M70.7268 202.291C72.5209 202.306 72.5209 205.047 70.7268 205.062H70.6444C68.8503 205.047 68.8503 202.306 70.6444 202.291H70.7238H70.7268Z" fill="#00214E"/>
<path d="M85.5086 201.162C87.1762 201.177 87.1762 203.721 85.5086 203.736H85.4351C83.7703 203.736 83.7703 201.177 85.4351 201.162H85.5086Z" fill="#00214E"/>
<path d="M77.9211 183.896C76.6534 189.396 73.8917 194.067 68.8446 197.47C63.3976 201.24 57.6476 203.058 51.374 204.308C51.5328 200.452 51.1093 195.028 53.0976 191.59C55.3541 187.773 58.65 184.676 62.6005 182.661C66.9564 180.411 73.6946 178.205 78.5887 179.764C78.4526 181.154 78.2297 182.534 77.9211 183.896Z" fill="url(#paint2_linear_1940_17254)"/>
<path d="M78.433 200.365C78.4095 200.465 80.7624 209.877 80.7624 209.877H77.0859" stroke="#00214E" stroke-width="0.294118"/>
<path d="M81.8029 197.36C83.88 196.299 86.2843 196.072 88.5235 196.725" stroke="#00214E" stroke-width="0.294118"/>
<path d="M65.5947 198.437C68.4603 196.978 71.827 196.87 74.78 198.143" stroke="#00214E" stroke-width="0.294118"/>
<path d="M107.259 244.781C87.5982 259.92 60.1743 259.799 40.6476 244.487L54.9593 237.778C55.6409 237.458 56.2951 237.082 56.9152 236.655C57.1035 236.525 57.2917 236.39 57.4711 236.249C59.0301 235.057 60.3133 233.542 61.2329 231.808C61.9261 230.478 62.3866 229.04 62.5946 227.555C62.8024 227.756 63.0203 227.947 63.2476 228.125C65.051 229.459 67.0082 230.571 69.077 231.437C70.0814 231.856 71.1085 232.218 72.1535 232.522C75.3017 233.44 78.5887 233.788 81.8593 233.549C82.3123 233.514 82.7682 233.47 83.2211 233.437L83.2652 234.931V235.028L86.8241 236.475L107.259 244.781Z" fill="#6C3928"/>
<path d="M74.4814 216.78C74.5455 216.8 74.6487 216.813 74.7662 216.817C74.8837 216.821 75.005 216.816 75.1011 216.802C75.578 216.738 76.4534 216.602 77.6975 216.555C79.3931 216.49 80.8653 216.62 81.2155 216.536C81.4136 216.489 81.1717 216.432 80.7086 216.358C79.7291 216.218 78.4958 216.16 77.2874 216.196C75.654 216.254 74.4307 216.615 74.4307 216.743C74.4299 216.756 74.4474 216.769 74.4814 216.78Z" fill="#0A0A0A"/>
<path d="M369.304 232.921L371.609 229.749C444.512 266.818 514.434 170.892 461.046 131.247L453.873 126.23C466.111 118.536 482.638 100.399 466.442 62.1587C449.108 21.2312 359.892 -7.80575 321.381 27.4531C289.16 -9.46012 184.795 3.09206 164.029 51.8758C147.681 90.2802 163.295 109.063 174.024 116.836C143.449 136.294 144.999 176.634 187.602 192.282C183.598 239.104 329.759 285.368 369.304 232.921Z" fill="#B6BE8F"/>
<circle cx="168.125" cy="218.52" r="9.375" fill="#B6BE8F"/>
<circle cx="146.25" cy="234.145" r="6.25" fill="#B6BE8F"/>
<path d="M226.052 98.372V110.918H224.414V105.23H218.024V110.918H216.386V98.372H218.024V103.88H224.414V98.372H226.052ZM233.331 111.08C232.407 111.08 231.567 110.87 230.811 110.45C230.067 110.03 229.479 109.436 229.047 108.668C228.627 107.888 228.417 106.988 228.417 105.968C228.417 104.96 228.633 104.072 229.065 103.304C229.509 102.524 230.109 101.93 230.865 101.522C231.621 101.102 232.467 100.892 233.403 100.892C234.339 100.892 235.185 101.102 235.941 101.522C236.697 101.93 237.291 102.518 237.723 103.286C238.167 104.054 238.389 104.948 238.389 105.968C238.389 106.988 238.161 107.888 237.705 108.668C237.261 109.436 236.655 110.03 235.887 110.45C235.119 110.87 234.267 111.08 233.331 111.08ZM233.331 109.64C233.919 109.64 234.471 109.502 234.987 109.226C235.503 108.95 235.917 108.536 236.229 107.984C236.553 107.432 236.715 106.76 236.715 105.968C236.715 105.176 236.559 104.504 236.247 103.952C235.935 103.4 235.527 102.992 235.023 102.728C234.519 102.452 233.973 102.314 233.385 102.314C232.785 102.314 232.233 102.452 231.729 102.728C231.237 102.992 230.841 103.4 230.541 103.952C230.241 104.504 230.091 105.176 230.091 105.968C230.091 106.772 230.235 107.45 230.523 108.002C230.823 108.554 231.219 108.968 231.711 109.244C232.203 109.508 232.743 109.64 233.331 109.64ZM253.863 101.054L250.785 110.918H249.093L246.717 103.088L244.341 110.918H242.649L239.553 101.054H241.227L243.495 109.334L245.943 101.054H247.617L250.011 109.352L252.243 101.054H253.863ZM260.035 105.968C260.035 104.948 260.239 104.06 260.647 103.304C261.055 102.536 261.619 101.942 262.339 101.522C263.071 101.102 263.905 100.892 264.841 100.892C266.053 100.892 267.049 101.186 267.829 101.774C268.621 102.362 269.143 103.178 269.395 104.222H267.631C267.463 103.622 267.133 103.148 266.641 102.8C266.161 102.452 265.561 102.278 264.841 102.278C263.905 102.278 263.149 102.602 262.573 103.25C261.997 103.886 261.709 104.792 261.709 105.968C261.709 107.156 261.997 108.074 262.573 108.722C263.149 109.37 263.905 109.694 264.841 109.694C265.561 109.694 266.161 109.526 266.641 109.19C267.121 108.854 267.451 108.374 267.631 107.75H269.395C269.131 108.758 268.603 109.568 267.811 110.18C267.019 110.78 266.029 111.08 264.841 111.08C263.905 111.08 263.071 110.87 262.339 110.45C261.619 110.03 261.055 109.436 260.647 108.668C260.239 107.9 260.035 107 260.035 105.968ZM271.149 105.95C271.149 104.942 271.353 104.06 271.761 103.304C272.169 102.536 272.727 101.942 273.435 101.522C274.155 101.102 274.953 100.892 275.829 100.892C276.693 100.892 277.443 101.078 278.079 101.45C278.715 101.822 279.189 102.29 279.501 102.854V101.054H281.157V110.918H279.501V109.082C279.177 109.658 278.691 110.138 278.043 110.522C277.407 110.894 276.663 111.08 275.811 111.08C274.935 111.08 274.143 110.864 273.435 110.432C272.727 110 272.169 109.394 271.761 108.614C271.353 107.834 271.149 106.946 271.149 105.95ZM279.501 105.968C279.501 105.224 279.351 104.576 279.051 104.024C278.751 103.472 278.343 103.052 277.827 102.764C277.323 102.464 276.765 102.314 276.153 102.314C275.541 102.314 274.983 102.458 274.479 102.746C273.975 103.034 273.573 103.454 273.273 104.006C272.973 104.558 272.823 105.206 272.823 105.95C272.823 106.706 272.973 107.366 273.273 107.93C273.573 108.482 273.975 108.908 274.479 109.208C274.983 109.496 275.541 109.64 276.153 109.64C276.765 109.64 277.323 109.496 277.827 109.208C278.343 108.908 278.751 108.482 279.051 107.93C279.351 107.366 279.501 106.712 279.501 105.968ZM288.911 100.874C290.111 100.874 291.083 101.24 291.827 101.972C292.571 102.692 292.943 103.736 292.943 105.104V110.918H291.323V105.338C291.323 104.354 291.077 103.604 290.585 103.088C290.093 102.56 289.421 102.296 288.569 102.296C287.705 102.296 287.015 102.566 286.499 103.106C285.995 103.646 285.743 104.432 285.743 105.464V110.918H284.105V101.054H285.743V102.458C286.067 101.954 286.505 101.564 287.057 101.288C287.621 101.012 288.239 100.874 288.911 100.874ZM302.415 98.372V110.918H300.777V98.372H302.415ZM313.858 111.08C313.102 111.08 312.424 110.954 311.824 110.702C311.224 110.438 310.75 110.078 310.402 109.622C310.054 109.154 309.862 108.62 309.826 108.02H311.518C311.566 108.512 311.794 108.914 312.202 109.226C312.622 109.538 313.168 109.694 313.84 109.694C314.464 109.694 314.956 109.556 315.316 109.28C315.676 109.004 315.856 108.656 315.856 108.236C315.856 107.804 315.664 107.486 315.28 107.282C314.896 107.066 314.302 106.856 313.498 106.652C312.766 106.46 312.166 106.268 311.698 106.076C311.242 105.872 310.846 105.578 310.51 105.194C310.186 104.798 310.024 104.282 310.024 103.646C310.024 103.142 310.174 102.68 310.474 102.26C310.774 101.84 311.2 101.51 311.752 101.27C312.304 101.018 312.934 100.892 313.642 100.892C314.734 100.892 315.616 101.168 316.288 101.72C316.96 102.272 317.32 103.028 317.368 103.988H315.73C315.694 103.472 315.484 103.058 315.1 102.746C314.728 102.434 314.224 102.278 313.588 102.278C313 102.278 312.532 102.404 312.184 102.656C311.836 102.908 311.662 103.238 311.662 103.646C311.662 103.97 311.764 104.24 311.968 104.456C312.184 104.66 312.448 104.828 312.76 104.96C313.084 105.08 313.528 105.218 314.092 105.374C314.8 105.566 315.376 105.758 315.82 105.95C316.264 106.13 316.642 106.406 316.954 106.778C317.278 107.15 317.446 107.636 317.458 108.236C317.458 108.776 317.308 109.262 317.008 109.694C316.708 110.126 316.282 110.468 315.73 110.72C315.19 110.96 314.566 111.08 313.858 111.08ZM321.948 102.404V108.218C321.948 108.698 322.05 109.04 322.254 109.244C322.458 109.436 322.812 109.532 323.316 109.532H324.522V110.918H323.046C322.134 110.918 321.45 110.708 320.994 110.288C320.538 109.868 320.31 109.178 320.31 108.218V102.404H319.032V101.054H320.31V98.57H321.948V101.054H324.522V102.404H321.948ZM328.325 102.656C328.613 102.092 329.021 101.654 329.549 101.342C330.089 101.03 330.743 100.874 331.511 100.874V102.566H331.079C329.243 102.566 328.325 103.562 328.325 105.554V110.918H326.687V101.054H328.325V102.656ZM342.329 101.054V110.918H340.691V109.46C340.379 109.964 339.941 110.36 339.377 110.648C338.825 110.924 338.213 111.062 337.541 111.062C336.773 111.062 336.083 110.906 335.471 110.594C334.859 110.27 334.373 109.79 334.013 109.154C333.665 108.518 333.491 107.744 333.491 106.832V101.054H335.111V106.616C335.111 107.588 335.357 108.338 335.849 108.866C336.341 109.382 337.013 109.64 337.865 109.64C338.741 109.64 339.431 109.37 339.935 108.83C340.439 108.29 340.691 107.504 340.691 106.472V101.054H342.329ZM344.663 105.968C344.663 104.948 344.867 104.06 345.275 103.304C345.683 102.536 346.247 101.942 346.967 101.522C347.699 101.102 348.533 100.892 349.469 100.892C350.681 100.892 351.677 101.186 352.457 101.774C353.249 102.362 353.771 103.178 354.023 104.222H352.259C352.091 103.622 351.761 103.148 351.269 102.8C350.789 102.452 350.189 102.278 349.469 102.278C348.533 102.278 347.777 102.602 347.201 103.25C346.625 103.886 346.337 104.792 346.337 105.968C346.337 107.156 346.625 108.074 347.201 108.722C347.777 109.37 348.533 109.694 349.469 109.694C350.189 109.694 350.789 109.526 351.269 109.19C351.749 108.854 352.079 108.374 352.259 107.75H354.023C353.759 108.758 353.231 109.568 352.439 110.18C351.647 110.78 350.657 111.08 349.469 111.08C348.533 111.08 347.699 110.87 346.967 110.45C346.247 110.03 345.683 109.436 345.275 108.668C344.867 107.9 344.663 107 344.663 105.968ZM358.387 102.404V108.218C358.387 108.698 358.489 109.04 358.693 109.244C358.897 109.436 359.251 109.532 359.755 109.532H360.961V110.918H359.485C358.573 110.918 357.889 110.708 357.433 110.288C356.977 109.868 356.749 109.178 356.749 108.218V102.404H355.471V101.054H356.749V98.57H358.387V101.054H360.961V102.404H358.387ZM371.873 101.054V110.918H370.235V109.46C369.923 109.964 369.485 110.36 368.921 110.648C368.369 110.924 367.757 111.062 367.085 111.062C366.317 111.062 365.627 110.906 365.015 110.594C364.403 110.27 363.917 109.79 363.557 109.154C363.209 108.518 363.035 107.744 363.035 106.832V101.054H364.655V106.616C364.655 107.588 364.901 108.338 365.393 108.866C365.885 109.382 366.557 109.64 367.409 109.64C368.285 109.64 368.975 109.37 369.479 108.83C369.983 108.29 370.235 107.504 370.235 106.472V101.054H371.873ZM376.457 102.656C376.745 102.092 377.153 101.654 377.681 101.342C378.221 101.03 378.875 100.874 379.643 100.874V102.566H379.211C377.375 102.566 376.457 103.562 376.457 105.554V110.918H374.819V101.054H376.457V102.656ZM390.714 105.608C390.714 105.92 390.696 106.25 390.66 106.598H382.776C382.836 107.57 383.166 108.332 383.766 108.884C384.378 109.424 385.116 109.694 385.98 109.694C386.688 109.694 387.276 109.532 387.744 109.208C388.224 108.872 388.56 108.428 388.752 107.876H390.516C390.252 108.824 389.724 109.598 388.932 110.198C388.14 110.786 387.156 111.08 385.98 111.08C385.044 111.08 384.204 110.87 383.46 110.45C382.728 110.03 382.152 109.436 381.732 108.668C381.312 107.888 381.102 106.988 381.102 105.968C381.102 104.948 381.306 104.054 381.714 103.286C382.122 102.518 382.692 101.93 383.424 101.522C384.168 101.102 385.02 100.892 385.98 100.892C386.916 100.892 387.744 101.096 388.464 101.504C389.184 101.912 389.736 102.476 390.12 103.196C390.516 103.904 390.714 104.708 390.714 105.608ZM389.022 105.266C389.022 104.642 388.884 104.108 388.608 103.664C388.332 103.208 387.954 102.866 387.474 102.638C387.006 102.398 386.484 102.278 385.908 102.278C385.08 102.278 384.372 102.542 383.784 103.07C383.208 103.598 382.878 104.33 382.794 105.266H389.022ZM218.384 129.404V135.218C218.384 135.698 218.486 136.04 218.69 136.244C218.894 136.436 219.248 136.532 219.752 136.532H220.958V137.918H219.482C218.57 137.918 217.886 137.708 217.43 137.288C216.974 136.868 216.746 136.178 216.746 135.218V129.404H215.468V128.054H216.746V125.57H218.384V128.054H220.958V129.404H218.384ZM228.019 127.874C228.763 127.874 229.435 128.036 230.035 128.36C230.635 128.672 231.103 129.146 231.439 129.782C231.787 130.418 231.961 131.192 231.961 132.104V137.918H230.341V132.338C230.341 131.354 230.095 130.604 229.603 130.088C229.111 129.56 228.439 129.296 227.587 129.296C226.723 129.296 226.033 129.566 225.517 130.106C225.013 130.646 224.761 131.432 224.761 132.464V137.918H223.123V124.598H224.761V129.458C225.085 128.954 225.529 128.564 226.093 128.288C226.669 128.012 227.311 127.874 228.019 127.874ZM243.816 132.608C243.816 132.92 243.798 133.25 243.762 133.598H235.878C235.938 134.57 236.268 135.332 236.868 135.884C237.48 136.424 238.218 136.694 239.082 136.694C239.79 136.694 240.378 136.532 240.846 136.208C241.326 135.872 241.662 135.428 241.854 134.876H243.618C243.354 135.824 242.826 136.598 242.034 137.198C241.242 137.786 240.258 138.08 239.082 138.08C238.146 138.08 237.306 137.87 236.562 137.45C235.83 137.03 235.254 136.436 234.834 135.668C234.414 134.888 234.204 133.988 234.204 132.968C234.204 131.948 234.408 131.054 234.816 130.286C235.224 129.518 235.794 128.93 236.526 128.522C237.27 128.102 238.122 127.892 239.082 127.892C240.018 127.892 240.846 128.096 241.566 128.504C242.286 128.912 242.838 129.476 243.222 130.196C243.618 130.904 243.816 131.708 243.816 132.608ZM242.124 132.266C242.124 131.642 241.986 131.108 241.71 130.664C241.434 130.208 241.056 129.866 240.576 129.638C240.108 129.398 239.586 129.278 239.01 129.278C238.182 129.278 237.474 129.542 236.886 130.07C236.31 130.598 235.98 131.33 235.896 132.266H242.124ZM250.525 132.95C250.525 131.942 250.729 131.06 251.137 130.304C251.545 129.536 252.103 128.942 252.811 128.522C253.531 128.102 254.329 127.892 255.205 127.892C256.069 127.892 256.819 128.078 257.455 128.45C258.091 128.822 258.565 129.29 258.877 129.854V128.054H260.533V137.918H258.877V136.082C258.553 136.658 258.067 137.138 257.419 137.522C256.783 137.894 256.039 138.08 255.187 138.08C254.311 138.08 253.519 137.864 252.811 137.432C252.103 137 251.545 136.394 251.137 135.614C250.729 134.834 250.525 133.946 250.525 132.95ZM258.877 132.968C258.877 132.224 258.727 131.576 258.427 131.024C258.127 130.472 257.719 130.052 257.203 129.764C256.699 129.464 256.141 129.314 255.529 129.314C254.917 129.314 254.359 129.458 253.855 129.746C253.351 130.034 252.949 130.454 252.649 131.006C252.349 131.558 252.199 132.206 252.199 132.95C252.199 133.706 252.349 134.366 252.649 134.93C252.949 135.482 253.351 135.908 253.855 136.208C254.359 136.496 254.917 136.64 255.529 136.64C256.141 136.64 256.699 136.496 257.203 136.208C257.719 135.908 258.127 135.482 258.427 134.93C258.727 134.366 258.877 133.712 258.877 132.968ZM265.119 129.872C265.443 129.308 265.923 128.84 266.559 128.468C267.207 128.084 267.957 127.892 268.809 127.892C269.685 127.892 270.477 128.102 271.185 128.522C271.905 128.942 272.469 129.536 272.877 130.304C273.285 131.06 273.489 131.942 273.489 132.95C273.489 133.946 273.285 134.834 272.877 135.614C272.469 136.394 271.905 137 271.185 137.432C270.477 137.864 269.685 138.08 268.809 138.08C267.969 138.08 267.225 137.894 266.577 137.522C265.941 137.138 265.455 136.664 265.119 136.1V142.598H263.481V128.054H265.119V129.872ZM271.815 132.95C271.815 132.206 271.665 131.558 271.365 131.006C271.065 130.454 270.657 130.034 270.141 129.746C269.637 129.458 269.079 129.314 268.467 129.314C267.867 129.314 267.309 129.464 266.793 129.764C266.289 130.052 265.881 130.478 265.569 131.042C265.269 131.594 265.119 132.236 265.119 132.968C265.119 133.712 265.269 134.366 265.569 134.93C265.881 135.482 266.289 135.908 266.793 136.208C267.309 136.496 267.867 136.64 268.467 136.64C269.079 136.64 269.637 136.496 270.141 136.208C270.657 135.908 271.065 135.482 271.365 134.93C271.665 134.366 271.815 133.706 271.815 132.95ZM277.463 129.872C277.787 129.308 278.267 128.84 278.903 128.468C279.551 128.084 280.301 127.892 281.153 127.892C282.029 127.892 282.821 128.102 283.529 128.522C284.249 128.942 284.813 129.536 285.221 130.304C285.629 131.06 285.833 131.942 285.833 132.95C285.833 133.946 285.629 134.834 285.221 135.614C284.813 136.394 284.249 137 283.529 137.432C282.821 137.864 282.029 138.08 281.153 138.08C280.313 138.08 279.569 137.894 278.921 137.522C278.285 137.138 277.799 136.664 277.463 136.1V142.598H275.825V128.054H277.463V129.872ZM284.159 132.95C284.159 132.206 284.009 131.558 283.709 131.006C283.409 130.454 283.001 130.034 282.485 129.746C281.981 129.458 281.423 129.314 280.811 129.314C280.211 129.314 279.653 129.464 279.137 129.764C278.633 130.052 278.225 130.478 277.913 131.042C277.613 131.594 277.463 132.236 277.463 132.968C277.463 133.712 277.613 134.366 277.913 134.93C278.225 135.482 278.633 135.908 279.137 136.208C279.653 136.496 280.211 136.64 280.811 136.64C281.423 136.64 281.981 136.496 282.485 136.208C283.001 135.908 283.409 135.482 283.709 134.93C284.009 134.366 284.159 133.706 284.159 132.95ZM294.786 129.89C295.122 129.302 295.614 128.822 296.262 128.45C296.91 128.078 297.648 127.892 298.476 127.892C299.364 127.892 300.162 128.102 300.87 128.522C301.578 128.942 302.136 129.536 302.544 130.304C302.952 131.06 303.156 131.942 303.156 132.95C303.156 133.946 302.952 134.834 302.544 135.614C302.136 136.394 301.572 137 300.852 137.432C300.144 137.864 299.352 138.08 298.476 138.08C297.624 138.08 296.874 137.894 296.226 137.522C295.59 137.15 295.11 136.676 294.786 136.1V137.918H293.148V124.598H294.786V129.89ZM301.482 132.95C301.482 132.206 301.332 131.558 301.032 131.006C300.732 130.454 300.324 130.034 299.808 129.746C299.304 129.458 298.746 129.314 298.134 129.314C297.534 129.314 296.976 129.464 296.46 129.764C295.956 130.052 295.548 130.478 295.236 131.042C294.936 131.594 294.786 132.236 294.786 132.968C294.786 133.712 294.936 134.366 295.236 134.93C295.548 135.482 295.956 135.908 296.46 136.208C296.976 136.496 297.534 136.64 298.134 136.64C298.746 136.64 299.304 136.496 299.808 136.208C300.324 135.908 300.732 135.482 301.032 134.93C301.332 134.366 301.482 133.706 301.482 132.95ZM304.88 132.95C304.88 131.942 305.084 131.06 305.492 130.304C305.9 129.536 306.458 128.942 307.166 128.522C307.886 128.102 308.684 127.892 309.56 127.892C310.424 127.892 311.174 128.078 311.81 128.45C312.446 128.822 312.92 129.29 313.232 129.854V128.054H314.888V137.918H313.232V136.082C312.908 136.658 312.422 137.138 311.774 137.522C311.138 137.894 310.394 138.08 309.542 138.08C308.666 138.08 307.874 137.864 307.166 137.432C306.458 137 305.9 136.394 305.492 135.614C305.084 134.834 304.88 133.946 304.88 132.95ZM313.232 132.968C313.232 132.224 313.082 131.576 312.782 131.024C312.482 130.472 312.074 130.052 311.558 129.764C311.054 129.464 310.496 129.314 309.884 129.314C309.272 129.314 308.714 129.458 308.21 129.746C307.706 130.034 307.304 130.454 307.004 131.006C306.704 131.558 306.554 132.206 306.554 132.95C306.554 133.706 306.704 134.366 307.004 134.93C307.304 135.482 307.706 135.908 308.21 136.208C308.714 136.496 309.272 136.64 309.884 136.64C310.496 136.64 311.054 136.496 311.558 136.208C312.074 135.908 312.482 135.482 312.782 134.93C313.082 134.366 313.232 133.712 313.232 132.968ZM321.328 138.08C320.572 138.08 319.894 137.954 319.294 137.702C318.694 137.438 318.22 137.078 317.872 136.622C317.524 136.154 317.332 135.62 317.296 135.02H318.988C319.036 135.512 319.264 135.914 319.672 136.226C320.092 136.538 320.638 136.694 321.31 136.694C321.934 136.694 322.426 136.556 322.786 136.28C323.146 136.004 323.326 135.656 323.326 135.236C323.326 134.804 323.134 134.486 322.75 134.282C322.366 134.066 321.772 133.856 320.968 133.652C320.236 133.46 319.636 133.268 319.168 133.076C318.712 132.872 318.316 132.578 317.98 132.194C317.656 131.798 317.494 131.282 317.494 130.646C317.494 130.142 317.644 129.68 317.944 129.26C318.244 128.84 318.67 128.51 319.222 128.27C319.774 128.018 320.404 127.892 321.112 127.892C322.204 127.892 323.086 128.168 323.758 128.72C324.43 129.272 324.79 130.028 324.838 130.988H323.2C323.164 130.472 322.954 130.058 322.57 129.746C322.198 129.434 321.694 129.278 321.058 129.278C320.47 129.278 320.002 129.404 319.654 129.656C319.306 129.908 319.132 130.238 319.132 130.646C319.132 130.97 319.234 131.24 319.438 131.456C319.654 131.66 319.918 131.828 320.23 131.96C320.554 132.08 320.998 132.218 321.562 132.374C322.27 132.566 322.846 132.758 323.29 132.95C323.734 133.13 324.112 133.406 324.424 133.778C324.748 134.15 324.916 134.636 324.928 135.236C324.928 135.776 324.778 136.262 324.478 136.694C324.178 137.126 323.752 137.468 323.2 137.72C322.66 137.96 322.036 138.08 321.328 138.08ZM336.421 132.608C336.421 132.92 336.403 133.25 336.367 133.598H328.483C328.543 134.57 328.873 135.332 329.473 135.884C330.085 136.424 330.823 136.694 331.687 136.694C332.395 136.694 332.983 136.532 333.451 136.208C333.931 135.872 334.267 135.428 334.459 134.876H336.223C335.959 135.824 335.431 136.598 334.639 137.198C333.847 137.786 332.863 138.08 331.687 138.08C330.751 138.08 329.911 137.87 329.167 137.45C328.435 137.03 327.859 136.436 327.439 135.668C327.019 134.888 326.809 133.988 326.809 132.968C326.809 131.948 327.013 131.054 327.421 130.286C327.829 129.518 328.399 128.93 329.131 128.522C329.875 128.102 330.727 127.892 331.687 127.892C332.623 127.892 333.451 128.096 334.171 128.504C334.891 128.912 335.443 129.476 335.827 130.196C336.223 130.904 336.421 131.708 336.421 132.608ZM334.729 132.266C334.729 131.642 334.591 131.108 334.315 130.664C334.039 130.208 333.661 129.866 333.181 129.638C332.713 129.398 332.191 129.278 331.615 129.278C330.787 129.278 330.079 129.542 329.491 130.07C328.915 130.598 328.585 131.33 328.501 132.266H334.729ZM338.151 132.95C338.151 131.942 338.355 131.06 338.763 130.304C339.171 129.536 339.729 128.942 340.437 128.522C341.157 128.102 341.961 127.892 342.849 127.892C343.617 127.892 344.331 128.072 344.991 128.432C345.651 128.78 346.155 129.242 346.503 129.818V124.598H348.159V137.918H346.503V136.064C346.179 136.652 345.699 137.138 345.063 137.522C344.427 137.894 343.683 138.08 342.831 138.08C341.955 138.08 341.157 137.864 340.437 137.432C339.729 137 339.171 136.394 338.763 135.614C338.355 134.834 338.151 133.946 338.151 132.95ZM346.503 132.968C346.503 132.224 346.353 131.576 346.053 131.024C345.753 130.472 345.345 130.052 344.829 129.764C344.325 129.464 343.767 129.314 343.155 129.314C342.543 129.314 341.985 129.458 341.481 129.746C340.977 130.034 340.575 130.454 340.275 131.006C339.975 131.558 339.825 132.206 339.825 132.95C339.825 133.706 339.975 134.366 340.275 134.93C340.575 135.482 340.977 135.908 341.481 136.208C341.985 136.496 342.543 136.64 343.155 136.64C343.767 136.64 344.325 136.496 344.829 136.208C345.345 135.908 345.753 135.482 346.053 134.93C346.353 134.366 346.503 133.712 346.503 132.968ZM360.388 138.08C359.464 138.08 358.624 137.87 357.868 137.45C357.124 137.03 356.536 136.436 356.104 135.668C355.684 134.888 355.474 133.988 355.474 132.968C355.474 131.96 355.69 131.072 356.122 130.304C356.566 129.524 357.166 128.93 357.922 128.522C358.678 128.102 359.524 127.892 360.46 127.892C361.396 127.892 362.242 128.102 362.998 128.522C363.754 128.93 364.348 129.518 364.78 130.286C365.224 131.054 365.446 131.948 365.446 132.968C365.446 133.988 365.218 134.888 364.762 135.668C364.318 136.436 363.712 137.03 362.944 137.45C362.176 137.87 361.324 138.08 360.388 138.08ZM360.388 136.64C360.976 136.64 361.528 136.502 362.044 136.226C362.56 135.95 362.974 135.536 363.286 134.984C363.61 134.432 363.772 133.76 363.772 132.968C363.772 132.176 363.616 131.504 363.304 130.952C362.992 130.4 362.584 129.992 362.08 129.728C361.576 129.452 361.03 129.314 360.442 129.314C359.842 129.314 359.29 129.452 358.786 129.728C358.294 129.992 357.898 130.4 357.598 130.952C357.298 131.504 357.148 132.176 357.148 132.968C357.148 133.772 357.292 134.45 357.58 135.002C357.88 135.554 358.276 135.968 358.768 136.244C359.26 136.508 359.8 136.64 360.388 136.64ZM372.585 127.874C373.785 127.874 374.757 128.24 375.501 128.972C376.245 129.692 376.617 130.736 376.617 132.104V137.918H374.997V132.338C374.997 131.354 374.751 130.604 374.259 130.088C373.767 129.56 373.095 129.296 372.243 129.296C371.379 129.296 370.689 129.566 370.173 130.106C369.669 130.646 369.417 131.432 369.417 132.464V137.918H367.779V128.054H369.417V129.458C369.741 128.954 370.179 128.564 370.731 128.288C371.295 128.012 371.913 127.874 372.585 127.874ZM386.45 129.404V135.218C386.45 135.698 386.552 136.04 386.756 136.244C386.96 136.436 387.314 136.532 387.818 136.532H389.024V137.918H387.548C386.636 137.918 385.952 137.708 385.496 137.288C385.04 136.868 384.812 136.178 384.812 135.218V129.404H383.534V128.054H384.812V125.57H386.45V128.054H389.024V129.404H386.45ZM396.085 127.874C396.829 127.874 397.501 128.036 398.101 128.36C398.701 128.672 399.169 129.146 399.505 129.782C399.853 130.418 400.027 131.192 400.027 132.104V137.918H398.407V132.338C398.407 131.354 398.161 130.604 397.669 130.088C397.177 129.56 396.505 129.296 395.653 129.296C394.789 129.296 394.099 129.566 393.583 130.106C393.079 130.646 392.827 131.432 392.827 132.464V137.918H391.189V124.598H392.827V129.458C393.151 128.954 393.595 128.564 394.159 128.288C394.735 128.012 395.377 127.874 396.085 127.874ZM411.882 132.608C411.882 132.92 411.864 133.25 411.828 133.598H403.944C404.004 134.57 404.334 135.332 404.934 135.884C405.546 136.424 406.284 136.694 407.148 136.694C407.856 136.694 408.444 136.532 408.912 136.208C409.392 135.872 409.728 135.428 409.92 134.876H411.684C411.42 135.824 410.892 136.598 410.1 137.198C409.308 137.786 408.324 138.08 407.148 138.08C406.212 138.08 405.372 137.87 404.628 137.45C403.896 137.03 403.32 136.436 402.9 135.668C402.48 134.888 402.27 133.988 402.27 132.968C402.27 131.948 402.474 131.054 402.882 130.286C403.29 129.518 403.86 128.93 404.592 128.522C405.336 128.102 406.188 127.892 407.148 127.892C408.084 127.892 408.912 128.096 409.632 128.504C410.352 128.912 410.904 129.476 411.288 130.196C411.684 130.904 411.882 131.708 411.882 132.608ZM410.19 132.266C410.19 131.642 410.052 131.108 409.776 130.664C409.5 130.208 409.122 129.866 408.642 129.638C408.174 129.398 407.652 129.278 407.076 129.278C406.248 129.278 405.54 129.542 404.952 130.07C404.376 130.598 404.046 131.33 403.962 132.266H410.19ZM221.894 164.918L218.024 160.562V164.918H216.386V151.598H218.024V159.428L221.822 155.054H224.108L219.464 159.968L224.126 164.918H221.894ZM234.83 159.608C234.83 159.92 234.812 160.25 234.776 160.598H226.892C226.952 161.57 227.282 162.332 227.882 162.884C228.494 163.424 229.232 163.694 230.096 163.694C230.804 163.694 231.392 163.532 231.86 163.208C232.34 162.872 232.676 162.428 232.868 161.876H234.632C234.368 162.824 233.84 163.598 233.048 164.198C232.256 164.786 231.272 165.08 230.096 165.08C229.16 165.08 228.32 164.87 227.576 164.45C226.844 164.03 226.268 163.436 225.848 162.668C225.428 161.888 225.218 160.988 225.218 159.968C225.218 158.948 225.422 158.054 225.83 157.286C226.238 156.518 226.808 155.93 227.54 155.522C228.284 155.102 229.136 154.892 230.096 154.892C231.032 154.892 231.86 155.096 232.58 155.504C233.3 155.912 233.852 156.476 234.236 157.196C234.632 157.904 234.83 158.708 234.83 159.608ZM233.138 159.266C233.138 158.642 233 158.108 232.724 157.664C232.448 157.208 232.07 156.866 231.59 156.638C231.122 156.398 230.6 156.278 230.024 156.278C229.196 156.278 228.488 156.542 227.9 157.07C227.324 157.598 226.994 158.33 226.91 159.266H233.138ZM245.668 155.054L239.728 169.562H238.036L239.98 164.81L236.002 155.054H237.82L240.916 163.046L243.976 155.054H245.668ZM256.487 156.404H254.417V164.918H252.779V156.404H251.501V155.054H252.779V154.352C252.779 153.248 253.061 152.444 253.625 151.94C254.201 151.424 255.119 151.166 256.379 151.166V152.534C255.659 152.534 255.149 152.678 254.849 152.966C254.561 153.242 254.417 153.704 254.417 154.352V155.054H256.487V156.404ZM267.577 159.608C267.577 159.92 267.559 160.25 267.523 160.598H259.639C259.699 161.57 260.029 162.332 260.629 162.884C261.241 163.424 261.979 163.694 262.843 163.694C263.551 163.694 264.139 163.532 264.607 163.208C265.087 162.872 265.423 162.428 265.615 161.876H267.379C267.115 162.824 266.587 163.598 265.795 164.198C265.003 164.786 264.019 165.08 262.843 165.08C261.907 165.08 261.067 164.87 260.323 164.45C259.591 164.03 259.015 163.436 258.595 162.668C258.175 161.888 257.965 160.988 257.965 159.968C257.965 158.948 258.169 158.054 258.577 157.286C258.985 156.518 259.555 155.93 260.287 155.522C261.031 155.102 261.883 154.892 262.843 154.892C263.779 154.892 264.607 155.096 265.327 155.504C266.047 155.912 266.599 156.476 266.983 157.196C267.379 157.904 267.577 158.708 267.577 159.608ZM265.885 159.266C265.885 158.642 265.747 158.108 265.471 157.664C265.195 157.208 264.817 156.866 264.337 156.638C263.869 156.398 263.347 156.278 262.771 156.278C261.943 156.278 261.235 156.542 260.647 157.07C260.071 157.598 259.741 158.33 259.657 159.266H265.885ZM269.307 159.95C269.307 158.942 269.511 158.06 269.919 157.304C270.327 156.536 270.885 155.942 271.593 155.522C272.313 155.102 273.111 154.892 273.987 154.892C274.851 154.892 275.601 155.078 276.237 155.45C276.873 155.822 277.347 156.29 277.659 156.854V155.054H279.315V164.918H277.659V163.082C277.335 163.658 276.849 164.138 276.201 164.522C275.565 164.894 274.821 165.08 273.969 165.08C273.093 165.08 272.301 164.864 271.593 164.432C270.885 164 270.327 163.394 269.919 162.614C269.511 161.834 269.307 160.946 269.307 159.95ZM277.659 159.968C277.659 159.224 277.509 158.576 277.209 158.024C276.909 157.472 276.501 157.052 275.985 156.764C275.481 156.464 274.923 156.314 274.311 156.314C273.699 156.314 273.141 156.458 272.637 156.746C272.133 157.034 271.731 157.454 271.431 158.006C271.131 158.558 270.981 159.206 270.981 159.95C270.981 160.706 271.131 161.366 271.431 161.93C271.731 162.482 272.133 162.908 272.637 163.208C273.141 163.496 273.699 163.64 274.311 163.64C274.923 163.64 275.481 163.496 275.985 163.208C276.501 162.908 276.909 162.482 277.209 161.93C277.509 161.366 277.659 160.712 277.659 159.968ZM284.261 156.404V162.218C284.261 162.698 284.363 163.04 284.567 163.244C284.771 163.436 285.125 163.532 285.629 163.532H286.835V164.918H285.359C284.447 164.918 283.763 164.708 283.307 164.288C282.851 163.868 282.623 163.178 282.623 162.218V156.404H281.345V155.054H282.623V152.57H284.261V155.054H286.835V156.404H284.261ZM297.748 155.054V164.918H296.11V163.46C295.798 163.964 295.36 164.36 294.796 164.648C294.244 164.924 293.632 165.062 292.96 165.062C292.192 165.062 291.502 164.906 290.89 164.594C290.278 164.27 289.792 163.79 289.432 163.154C289.084 162.518 288.91 161.744 288.91 160.832V155.054H290.53V160.616C290.53 161.588 290.776 162.338 291.268 162.866C291.76 163.382 292.432 163.64 293.284 163.64C294.16 163.64 294.85 163.37 295.354 162.83C295.858 162.29 296.11 161.504 296.11 160.472V155.054H297.748ZM302.332 156.656C302.62 156.092 303.028 155.654 303.556 155.342C304.096 155.03 304.75 154.874 305.518 154.874V156.566H305.086C303.25 156.566 302.332 157.562 302.332 159.554V164.918H300.694V155.054H302.332V156.656ZM316.588 159.608C316.588 159.92 316.57 160.25 316.534 160.598H308.65C308.71 161.57 309.04 162.332 309.64 162.884C310.252 163.424 310.99 163.694 311.854 163.694C312.562 163.694 313.15 163.532 313.618 163.208C314.098 162.872 314.434 162.428 314.626 161.876H316.39C316.126 162.824 315.598 163.598 314.806 164.198C314.014 164.786 313.03 165.08 311.854 165.08C310.918 165.08 310.078 164.87 309.334 164.45C308.602 164.03 308.026 163.436 307.606 162.668C307.186 161.888 306.976 160.988 306.976 159.968C306.976 158.948 307.18 158.054 307.588 157.286C307.996 156.518 308.566 155.93 309.298 155.522C310.042 155.102 310.894 154.892 311.854 154.892C312.79 154.892 313.618 155.096 314.338 155.504C315.058 155.912 315.61 156.476 315.994 157.196C316.39 157.904 316.588 158.708 316.588 159.608ZM314.896 159.266C314.896 158.642 314.758 158.108 314.482 157.664C314.206 157.208 313.828 156.866 313.348 156.638C312.88 156.398 312.358 156.278 311.782 156.278C310.954 156.278 310.246 156.542 309.658 157.07C309.082 157.598 308.752 158.33 308.668 159.266H314.896ZM322.422 165.08C321.666 165.08 320.988 164.954 320.388 164.702C319.788 164.438 319.314 164.078 318.966 163.622C318.618 163.154 318.426 162.62 318.39 162.02H320.082C320.13 162.512 320.358 162.914 320.766 163.226C321.186 163.538 321.732 163.694 322.404 163.694C323.028 163.694 323.52 163.556 323.88 163.28C324.24 163.004 324.42 162.656 324.42 162.236C324.42 161.804 324.228 161.486 323.844 161.282C323.46 161.066 322.866 160.856 322.062 160.652C321.33 160.46 320.73 160.268 320.262 160.076C319.806 159.872 319.41 159.578 319.074 159.194C318.75 158.798 318.588 158.282 318.588 157.646C318.588 157.142 318.738 156.68 319.038 156.26C319.338 155.84 319.764 155.51 320.316 155.27C320.868 155.018 321.498 154.892 322.206 154.892C323.298 154.892 324.18 155.168 324.852 155.72C325.524 156.272 325.884 157.028 325.932 157.988H324.294C324.258 157.472 324.048 157.058 323.664 156.746C323.292 156.434 322.788 156.278 322.152 156.278C321.564 156.278 321.096 156.404 320.748 156.656C320.4 156.908 320.226 157.238 320.226 157.646C320.226 157.97 320.328 158.24 320.532 158.456C320.748 158.66 321.012 158.828 321.324 158.96C321.648 159.08 322.092 159.218 322.656 159.374C323.364 159.566 323.94 159.758 324.384 159.95C324.828 160.13 325.206 160.406 325.518 160.778C325.842 161.15 326.01 161.636 326.022 162.236C326.022 162.776 325.872 163.262 325.572 163.694C325.272 164.126 324.846 164.468 324.294 164.72C323.754 164.96 323.13 165.08 322.422 165.08ZM331.719 152.21C332.907 152.21 333.867 152.546 334.599 153.218C335.331 153.89 335.697 154.79 335.697 155.918C335.697 157.178 335.307 158.114 334.527 158.726C333.747 159.326 332.691 159.626 331.359 159.626L331.305 161.336H329.883L329.811 158.492H330.333C331.521 158.492 332.451 158.312 333.123 157.952C333.795 157.592 334.131 156.914 334.131 155.918C334.131 155.198 333.915 154.628 333.483 154.208C333.051 153.788 332.469 153.578 331.737 153.578C330.993 153.578 330.405 153.782 329.973 154.19C329.553 154.586 329.343 155.132 329.343 155.828H327.795C327.795 155.108 327.957 154.478 328.281 153.938C328.605 153.386 329.061 152.96 329.649 152.66C330.249 152.36 330.939 152.21 331.719 152.21ZM330.585 165.026C330.273 165.026 330.009 164.918 329.793 164.702C329.577 164.486 329.469 164.222 329.469 163.91C329.469 163.598 329.577 163.334 329.793 163.118C330.009 162.902 330.273 162.794 330.585 162.794C330.885 162.794 331.137 162.902 331.341 163.118C331.557 163.334 331.665 163.598 331.665 163.91C331.665 164.222 331.557 164.486 331.341 164.702C331.137 164.918 330.885 165.026 330.585 165.026ZM341.338 152.21C342.526 152.21 343.486 152.546 344.218 153.218C344.95 153.89 345.316 154.79 345.316 155.918C345.316 157.178 344.926 158.114 344.146 158.726C343.366 159.326 342.31 159.626 340.978 159.626L340.924 161.336H339.502L339.43 158.492H339.952C341.14 158.492 342.07 158.312 342.742 157.952C343.414 157.592 343.75 156.914 343.75 155.918C343.75 155.198 343.534 154.628 343.102 154.208C342.67 153.788 342.088 153.578 341.356 153.578C340.612 153.578 340.024 153.782 339.592 154.19C339.172 154.586 338.962 155.132 338.962 155.828H337.414C337.414 155.108 337.576 154.478 337.9 153.938C338.224 153.386 338.68 152.96 339.268 152.66C339.868 152.36 340.558 152.21 341.338 152.21ZM340.204 165.026C339.892 165.026 339.628 164.918 339.412 164.702C339.196 164.486 339.088 164.222 339.088 163.91C339.088 163.598 339.196 163.334 339.412 163.118C339.628 162.902 339.892 162.794 340.204 162.794C340.504 162.794 340.756 162.902 340.96 163.118C341.176 163.334 341.284 163.598 341.284 163.91C341.284 164.222 341.176 164.486 340.96 164.702C340.756 164.918 340.504 165.026 340.204 165.026Z" fill="#0A0A0A"/>
<defs>
<linearGradient id="paint0_linear_1940_17254" x1="58.2031" y1="186.027" x2="76.2472" y2="186.027" gradientUnits="userSpaceOnUse">
<stop stop-color="#16243F"/>
<stop offset="1" stop-color="#260A01"/>
</linearGradient>
<linearGradient id="paint1_linear_1940_17254" x1="71.8544" y1="244.477" x2="98.7318" y2="201.403" gradientUnits="userSpaceOnUse">
<stop stop-color="#16243F"/>
<stop offset="1" stop-color="#260A01"/>
</linearGradient>
<linearGradient id="paint2_linear_1940_17254" x1="60.6425" y1="212.844" x2="73.9562" y2="194.622" gradientUnits="userSpaceOnUse">
<stop stop-color="#16243F"/>
<stop offset="1" stop-color="#260A01"/>
</linearGradient>
</defs>
</svg>
