<svg width="341" height="252" viewBox="0 0 341 252" fill="none" xmlns="http://www.w3.org/2000/svg">
<path d="M229.304 227.921L231.609 224.749C304.512 261.818 374.434 165.892 321.046 126.247L313.873 121.23C326.111 113.536 342.638 95.3993 326.442 57.1587C309.108 16.2312 219.892 -12.8057 181.381 22.4531C149.16 -14.4601 44.7951 -1.90794 24.0289 46.8758C7.68144 85.2802 23.2949 104.063 34.0238 111.836C3.44894 131.294 4.99873 171.634 47.6021 187.282C43.5981 234.104 189.759 280.368 229.304 227.921Z" fill="#B6BE8F"/>
<circle cx="28.125" cy="213.52" r="9.375" fill="#B6BE8F"/>
<circle cx="6.25" cy="229.145" r="6.25" fill="#B6BE8F"/>
<path d="M86.052 93.372V105.918H84.414V100.23H78.024V105.918H76.386V93.372H78.024V98.88H84.414V93.372H86.052ZM93.3309 106.08C92.4069 106.08 91.5669 105.87 90.8109 105.45C90.0669 105.03 89.4789 104.436 89.0469 103.668C88.6269 102.888 88.4169 101.988 88.4169 100.968C88.4169 99.96 88.6329 99.072 89.0649 98.304C89.5089 97.524 90.1089 96.93 90.8649 96.522C91.6209 96.102 92.4669 95.892 93.4029 95.892C94.3389 95.892 95.1849 96.102 95.9409 96.522C96.6969 96.93 97.2909 97.518 97.7229 98.286C98.1669 99.054 98.3889 99.948 98.3889 100.968C98.3889 101.988 98.1609 102.888 97.7049 103.668C97.2609 104.436 96.6549 105.03 95.8869 105.45C95.1189 105.87 94.2669 106.08 93.3309 106.08ZM93.3309 104.64C93.9189 104.64 94.4709 104.502 94.9869 104.226C95.5029 103.95 95.9169 103.536 96.2289 102.984C96.5529 102.432 96.7149 101.76 96.7149 100.968C96.7149 100.176 96.5589 99.504 96.2469 98.952C95.9349 98.4 95.5269 97.992 95.0229 97.728C94.5189 97.452 93.9729 97.314 93.3849 97.314C92.7849 97.314 92.2329 97.452 91.7289 97.728C91.2369 97.992 90.8409 98.4 90.5409 98.952C90.2409 99.504 90.0909 100.176 90.0909 100.968C90.0909 101.772 90.2349 102.45 90.5229 103.002C90.8229 103.554 91.2189 103.968 91.7109 104.244C92.2029 104.508 92.7429 104.64 93.3309 104.64ZM113.863 96.054L110.785 105.918H109.093L106.717 98.088L104.341 105.918H102.649L99.5526 96.054H101.227L103.495 104.334L105.943 96.054H107.617L110.011 104.352L112.243 96.054H113.863ZM120.035 100.968C120.035 99.948 120.239 99.06 120.647 98.304C121.055 97.536 121.619 96.942 122.339 96.522C123.071 96.102 123.905 95.892 124.841 95.892C126.053 95.892 127.049 96.186 127.829 96.774C128.621 97.362 129.143 98.178 129.395 99.222H127.631C127.463 98.622 127.133 98.148 126.641 97.8C126.161 97.452 125.561 97.278 124.841 97.278C123.905 97.278 123.149 97.602 122.573 98.25C121.997 98.886 121.709 99.792 121.709 100.968C121.709 102.156 121.997 103.074 122.573 103.722C123.149 104.37 123.905 104.694 124.841 104.694C125.561 104.694 126.161 104.526 126.641 104.19C127.121 103.854 127.451 103.374 127.631 102.75H129.395C129.131 103.758 128.603 104.568 127.811 105.18C127.019 105.78 126.029 106.08 124.841 106.08C123.905 106.08 123.071 105.87 122.339 105.45C121.619 105.03 121.055 104.436 120.647 103.668C120.239 102.9 120.035 102 120.035 100.968ZM131.149 100.95C131.149 99.942 131.353 99.06 131.761 98.304C132.169 97.536 132.727 96.942 133.435 96.522C134.155 96.102 134.953 95.892 135.829 95.892C136.693 95.892 137.443 96.078 138.079 96.45C138.715 96.822 139.189 97.29 139.501 97.854V96.054H141.157V105.918H139.501V104.082C139.177 104.658 138.691 105.138 138.043 105.522C137.407 105.894 136.663 106.08 135.811 106.08C134.935 106.08 134.143 105.864 133.435 105.432C132.727 105 132.169 104.394 131.761 103.614C131.353 102.834 131.149 101.946 131.149 100.95ZM139.501 100.968C139.501 100.224 139.351 99.576 139.051 99.024C138.751 98.472 138.343 98.052 137.827 97.764C137.323 97.464 136.765 97.314 136.153 97.314C135.541 97.314 134.983 97.458 134.479 97.746C133.975 98.034 133.573 98.454 133.273 99.006C132.973 99.558 132.823 100.206 132.823 100.95C132.823 101.706 132.973 102.366 133.273 102.93C133.573 103.482 133.975 103.908 134.479 104.208C134.983 104.496 135.541 104.64 136.153 104.64C136.765 104.64 137.323 104.496 137.827 104.208C138.343 103.908 138.751 103.482 139.051 102.93C139.351 102.366 139.501 101.712 139.501 100.968ZM148.911 95.874C150.111 95.874 151.083 96.24 151.827 96.972C152.571 97.692 152.943 98.736 152.943 100.104V105.918H151.323V100.338C151.323 99.354 151.077 98.604 150.585 98.088C150.093 97.56 149.421 97.296 148.569 97.296C147.705 97.296 147.015 97.566 146.499 98.106C145.995 98.646 145.743 99.432 145.743 100.464V105.918H144.105V96.054H145.743V97.458C146.067 96.954 146.505 96.564 147.057 96.288C147.621 96.012 148.239 95.874 148.911 95.874ZM162.415 93.372V105.918H160.777V93.372H162.415ZM173.858 106.08C173.102 106.08 172.424 105.954 171.824 105.702C171.224 105.438 170.75 105.078 170.402 104.622C170.054 104.154 169.862 103.62 169.826 103.02H171.518C171.566 103.512 171.794 103.914 172.202 104.226C172.622 104.538 173.168 104.694 173.84 104.694C174.464 104.694 174.956 104.556 175.316 104.28C175.676 104.004 175.856 103.656 175.856 103.236C175.856 102.804 175.664 102.486 175.28 102.282C174.896 102.066 174.302 101.856 173.498 101.652C172.766 101.46 172.166 101.268 171.698 101.076C171.242 100.872 170.846 100.578 170.51 100.194C170.186 99.798 170.024 99.282 170.024 98.646C170.024 98.142 170.174 97.68 170.474 97.26C170.774 96.84 171.2 96.51 171.752 96.27C172.304 96.018 172.934 95.892 173.642 95.892C174.734 95.892 175.616 96.168 176.288 96.72C176.96 97.272 177.32 98.028 177.368 98.988H175.73C175.694 98.472 175.484 98.058 175.1 97.746C174.728 97.434 174.224 97.278 173.588 97.278C173 97.278 172.532 97.404 172.184 97.656C171.836 97.908 171.662 98.238 171.662 98.646C171.662 98.97 171.764 99.24 171.968 99.456C172.184 99.66 172.448 99.828 172.76 99.96C173.084 100.08 173.528 100.218 174.092 100.374C174.8 100.566 175.376 100.758 175.82 100.95C176.264 101.13 176.642 101.406 176.954 101.778C177.278 102.15 177.446 102.636 177.458 103.236C177.458 103.776 177.308 104.262 177.008 104.694C176.708 105.126 176.282 105.468 175.73 105.72C175.19 105.96 174.566 106.08 173.858 106.08ZM181.948 97.404V103.218C181.948 103.698 182.05 104.04 182.254 104.244C182.458 104.436 182.812 104.532 183.316 104.532H184.522V105.918H183.046C182.134 105.918 181.45 105.708 180.994 105.288C180.538 104.868 180.31 104.178 180.31 103.218V97.404H179.032V96.054H180.31V93.57H181.948V96.054H184.522V97.404H181.948ZM188.325 97.656C188.613 97.092 189.021 96.654 189.549 96.342C190.089 96.03 190.743 95.874 191.511 95.874V97.566H191.079C189.243 97.566 188.325 98.562 188.325 100.554V105.918H186.687V96.054H188.325V97.656ZM202.329 96.054V105.918H200.691V104.46C200.379 104.964 199.941 105.36 199.377 105.648C198.825 105.924 198.213 106.062 197.541 106.062C196.773 106.062 196.083 105.906 195.471 105.594C194.859 105.27 194.373 104.79 194.013 104.154C193.665 103.518 193.491 102.744 193.491 101.832V96.054H195.111V101.616C195.111 102.588 195.357 103.338 195.849 103.866C196.341 104.382 197.013 104.64 197.865 104.64C198.741 104.64 199.431 104.37 199.935 103.83C200.439 103.29 200.691 102.504 200.691 101.472V96.054H202.329ZM204.663 100.968C204.663 99.948 204.867 99.06 205.275 98.304C205.683 97.536 206.247 96.942 206.967 96.522C207.699 96.102 208.533 95.892 209.469 95.892C210.681 95.892 211.677 96.186 212.457 96.774C213.249 97.362 213.771 98.178 214.023 99.222H212.259C212.091 98.622 211.761 98.148 211.269 97.8C210.789 97.452 210.189 97.278 209.469 97.278C208.533 97.278 207.777 97.602 207.201 98.25C206.625 98.886 206.337 99.792 206.337 100.968C206.337 102.156 206.625 103.074 207.201 103.722C207.777 104.37 208.533 104.694 209.469 104.694C210.189 104.694 210.789 104.526 211.269 104.19C211.749 103.854 212.079 103.374 212.259 102.75H214.023C213.759 103.758 213.231 104.568 212.439 105.18C211.647 105.78 210.657 106.08 209.469 106.08C208.533 106.08 207.699 105.87 206.967 105.45C206.247 105.03 205.683 104.436 205.275 103.668C204.867 102.9 204.663 102 204.663 100.968ZM218.387 97.404V103.218C218.387 103.698 218.489 104.04 218.693 104.244C218.897 104.436 219.251 104.532 219.755 104.532H220.961V105.918H219.485C218.573 105.918 217.889 105.708 217.433 105.288C216.977 104.868 216.749 104.178 216.749 103.218V97.404H215.471V96.054H216.749V93.57H218.387V96.054H220.961V97.404H218.387ZM231.873 96.054V105.918H230.235V104.46C229.923 104.964 229.485 105.36 228.921 105.648C228.369 105.924 227.757 106.062 227.085 106.062C226.317 106.062 225.627 105.906 225.015 105.594C224.403 105.27 223.917 104.79 223.557 104.154C223.209 103.518 223.035 102.744 223.035 101.832V96.054H224.655V101.616C224.655 102.588 224.901 103.338 225.393 103.866C225.885 104.382 226.557 104.64 227.409 104.64C228.285 104.64 228.975 104.37 229.479 103.83C229.983 103.29 230.235 102.504 230.235 101.472V96.054H231.873ZM236.457 97.656C236.745 97.092 237.153 96.654 237.681 96.342C238.221 96.03 238.875 95.874 239.643 95.874V97.566H239.211C237.375 97.566 236.457 98.562 236.457 100.554V105.918H234.819V96.054H236.457V97.656ZM250.714 100.608C250.714 100.92 250.696 101.25 250.66 101.598H242.776C242.836 102.57 243.166 103.332 243.766 103.884C244.378 104.424 245.116 104.694 245.98 104.694C246.688 104.694 247.276 104.532 247.744 104.208C248.224 103.872 248.56 103.428 248.752 102.876H250.516C250.252 103.824 249.724 104.598 248.932 105.198C248.14 105.786 247.156 106.08 245.98 106.08C245.044 106.08 244.204 105.87 243.46 105.45C242.728 105.03 242.152 104.436 241.732 103.668C241.312 102.888 241.102 101.988 241.102 100.968C241.102 99.948 241.306 99.054 241.714 98.286C242.122 97.518 242.692 96.93 243.424 96.522C244.168 96.102 245.02 95.892 245.98 95.892C246.916 95.892 247.744 96.096 248.464 96.504C249.184 96.912 249.736 97.476 250.12 98.196C250.516 98.904 250.714 99.708 250.714 100.608ZM249.022 100.266C249.022 99.642 248.884 99.108 248.608 98.664C248.332 98.208 247.954 97.866 247.474 97.638C247.006 97.398 246.484 97.278 245.908 97.278C245.08 97.278 244.372 97.542 243.784 98.07C243.208 98.598 242.878 99.33 242.794 100.266H249.022ZM78.384 124.404V130.218C78.384 130.698 78.486 131.04 78.69 131.244C78.894 131.436 79.248 131.532 79.752 131.532H80.958V132.918H79.482C78.57 132.918 77.886 132.708 77.43 132.288C76.974 131.868 76.746 131.178 76.746 130.218V124.404H75.468V123.054H76.746V120.57H78.384V123.054H80.958V124.404H78.384ZM88.0186 122.874C88.7626 122.874 89.4346 123.036 90.0346 123.36C90.6346 123.672 91.1026 124.146 91.4386 124.782C91.7866 125.418 91.9606 126.192 91.9606 127.104V132.918H90.3406V127.338C90.3406 126.354 90.0946 125.604 89.6026 125.088C89.1106 124.56 88.4386 124.296 87.5866 124.296C86.7226 124.296 86.0326 124.566 85.5166 125.106C85.0126 125.646 84.7606 126.432 84.7606 127.464V132.918H83.1226V119.598H84.7606V124.458C85.0846 123.954 85.5286 123.564 86.0926 123.288C86.6686 123.012 87.3106 122.874 88.0186 122.874ZM103.816 127.608C103.816 127.92 103.798 128.25 103.762 128.598H95.8783C95.9383 129.57 96.2683 130.332 96.8683 130.884C97.4803 131.424 98.2183 131.694 99.0823 131.694C99.7903 131.694 100.378 131.532 100.846 131.208C101.326 130.872 101.662 130.428 101.854 129.876H103.618C103.354 130.824 102.826 131.598 102.034 132.198C101.242 132.786 100.258 133.08 99.0823 133.08C98.1463 133.08 97.3063 132.87 96.5623 132.45C95.8303 132.03 95.2543 131.436 94.8343 130.668C94.4143 129.888 94.2043 128.988 94.2043 127.968C94.2043 126.948 94.4083 126.054 94.8163 125.286C95.2243 124.518 95.7943 123.93 96.5263 123.522C97.2703 123.102 98.1223 122.892 99.0823 122.892C100.018 122.892 100.846 123.096 101.566 123.504C102.286 123.912 102.838 124.476 103.222 125.196C103.618 125.904 103.816 126.708 103.816 127.608ZM102.124 127.266C102.124 126.642 101.986 126.108 101.71 125.664C101.434 125.208 101.056 124.866 100.576 124.638C100.108 124.398 99.5863 124.278 99.0103 124.278C98.1823 124.278 97.4743 124.542 96.8863 125.07C96.3103 125.598 95.9803 126.33 95.8963 127.266H102.124ZM110.525 127.95C110.525 126.942 110.729 126.06 111.137 125.304C111.545 124.536 112.103 123.942 112.811 123.522C113.531 123.102 114.329 122.892 115.205 122.892C116.069 122.892 116.819 123.078 117.455 123.45C118.091 123.822 118.565 124.29 118.877 124.854V123.054H120.533V132.918H118.877V131.082C118.553 131.658 118.067 132.138 117.419 132.522C116.783 132.894 116.039 133.08 115.187 133.08C114.311 133.08 113.519 132.864 112.811 132.432C112.103 132 111.545 131.394 111.137 130.614C110.729 129.834 110.525 128.946 110.525 127.95ZM118.877 127.968C118.877 127.224 118.727 126.576 118.427 126.024C118.127 125.472 117.719 125.052 117.203 124.764C116.699 124.464 116.141 124.314 115.529 124.314C114.917 124.314 114.359 124.458 113.855 124.746C113.351 125.034 112.949 125.454 112.649 126.006C112.349 126.558 112.199 127.206 112.199 127.95C112.199 128.706 112.349 129.366 112.649 129.93C112.949 130.482 113.351 130.908 113.855 131.208C114.359 131.496 114.917 131.64 115.529 131.64C116.141 131.64 116.699 131.496 117.203 131.208C117.719 130.908 118.127 130.482 118.427 129.93C118.727 129.366 118.877 128.712 118.877 127.968ZM125.119 124.872C125.443 124.308 125.923 123.84 126.559 123.468C127.207 123.084 127.957 122.892 128.809 122.892C129.685 122.892 130.477 123.102 131.185 123.522C131.905 123.942 132.469 124.536 132.877 125.304C133.285 126.06 133.489 126.942 133.489 127.95C133.489 128.946 133.285 129.834 132.877 130.614C132.469 131.394 131.905 132 131.185 132.432C130.477 132.864 129.685 133.08 128.809 133.08C127.969 133.08 127.225 132.894 126.577 132.522C125.941 132.138 125.455 131.664 125.119 131.1V137.598H123.481V123.054H125.119V124.872ZM131.815 127.95C131.815 127.206 131.665 126.558 131.365 126.006C131.065 125.454 130.657 125.034 130.141 124.746C129.637 124.458 129.079 124.314 128.467 124.314C127.867 124.314 127.309 124.464 126.793 124.764C126.289 125.052 125.881 125.478 125.569 126.042C125.269 126.594 125.119 127.236 125.119 127.968C125.119 128.712 125.269 129.366 125.569 129.93C125.881 130.482 126.289 130.908 126.793 131.208C127.309 131.496 127.867 131.64 128.467 131.64C129.079 131.64 129.637 131.496 130.141 131.208C130.657 130.908 131.065 130.482 131.365 129.93C131.665 129.366 131.815 128.706 131.815 127.95ZM137.463 124.872C137.787 124.308 138.267 123.84 138.903 123.468C139.551 123.084 140.301 122.892 141.153 122.892C142.029 122.892 142.821 123.102 143.529 123.522C144.249 123.942 144.813 124.536 145.221 125.304C145.629 126.06 145.833 126.942 145.833 127.95C145.833 128.946 145.629 129.834 145.221 130.614C144.813 131.394 144.249 132 143.529 132.432C142.821 132.864 142.029 133.08 141.153 133.08C140.313 133.08 139.569 132.894 138.921 132.522C138.285 132.138 137.799 131.664 137.463 131.1V137.598H135.825V123.054H137.463V124.872ZM144.159 127.95C144.159 127.206 144.009 126.558 143.709 126.006C143.409 125.454 143.001 125.034 142.485 124.746C141.981 124.458 141.423 124.314 140.811 124.314C140.211 124.314 139.653 124.464 139.137 124.764C138.633 125.052 138.225 125.478 137.913 126.042C137.613 126.594 137.463 127.236 137.463 127.968C137.463 128.712 137.613 129.366 137.913 129.93C138.225 130.482 138.633 130.908 139.137 131.208C139.653 131.496 140.211 131.64 140.811 131.64C141.423 131.64 141.981 131.496 142.485 131.208C143.001 130.908 143.409 130.482 143.709 129.93C144.009 129.366 144.159 128.706 144.159 127.95ZM154.786 124.89C155.122 124.302 155.614 123.822 156.262 123.45C156.91 123.078 157.648 122.892 158.476 122.892C159.364 122.892 160.162 123.102 160.87 123.522C161.578 123.942 162.136 124.536 162.544 125.304C162.952 126.06 163.156 126.942 163.156 127.95C163.156 128.946 162.952 129.834 162.544 130.614C162.136 131.394 161.572 132 160.852 132.432C160.144 132.864 159.352 133.08 158.476 133.08C157.624 133.08 156.874 132.894 156.226 132.522C155.59 132.15 155.11 131.676 154.786 131.1V132.918H153.148V119.598H154.786V124.89ZM161.482 127.95C161.482 127.206 161.332 126.558 161.032 126.006C160.732 125.454 160.324 125.034 159.808 124.746C159.304 124.458 158.746 124.314 158.134 124.314C157.534 124.314 156.976 124.464 156.46 124.764C155.956 125.052 155.548 125.478 155.236 126.042C154.936 126.594 154.786 127.236 154.786 127.968C154.786 128.712 154.936 129.366 155.236 129.93C155.548 130.482 155.956 130.908 156.46 131.208C156.976 131.496 157.534 131.64 158.134 131.64C158.746 131.64 159.304 131.496 159.808 131.208C160.324 130.908 160.732 130.482 161.032 129.93C161.332 129.366 161.482 128.706 161.482 127.95ZM164.88 127.95C164.88 126.942 165.084 126.06 165.492 125.304C165.9 124.536 166.458 123.942 167.166 123.522C167.886 123.102 168.684 122.892 169.56 122.892C170.424 122.892 171.174 123.078 171.81 123.45C172.446 123.822 172.92 124.29 173.232 124.854V123.054H174.888V132.918H173.232V131.082C172.908 131.658 172.422 132.138 171.774 132.522C171.138 132.894 170.394 133.08 169.542 133.08C168.666 133.08 167.874 132.864 167.166 132.432C166.458 132 165.9 131.394 165.492 130.614C165.084 129.834 164.88 128.946 164.88 127.95ZM173.232 127.968C173.232 127.224 173.082 126.576 172.782 126.024C172.482 125.472 172.074 125.052 171.558 124.764C171.054 124.464 170.496 124.314 169.884 124.314C169.272 124.314 168.714 124.458 168.21 124.746C167.706 125.034 167.304 125.454 167.004 126.006C166.704 126.558 166.554 127.206 166.554 127.95C166.554 128.706 166.704 129.366 167.004 129.93C167.304 130.482 167.706 130.908 168.21 131.208C168.714 131.496 169.272 131.64 169.884 131.64C170.496 131.64 171.054 131.496 171.558 131.208C172.074 130.908 172.482 130.482 172.782 129.93C173.082 129.366 173.232 128.712 173.232 127.968ZM181.328 133.08C180.572 133.08 179.894 132.954 179.294 132.702C178.694 132.438 178.22 132.078 177.872 131.622C177.524 131.154 177.332 130.62 177.296 130.02H178.988C179.036 130.512 179.264 130.914 179.672 131.226C180.092 131.538 180.638 131.694 181.31 131.694C181.934 131.694 182.426 131.556 182.786 131.28C183.146 131.004 183.326 130.656 183.326 130.236C183.326 129.804 183.134 129.486 182.75 129.282C182.366 129.066 181.772 128.856 180.968 128.652C180.236 128.46 179.636 128.268 179.168 128.076C178.712 127.872 178.316 127.578 177.98 127.194C177.656 126.798 177.494 126.282 177.494 125.646C177.494 125.142 177.644 124.68 177.944 124.26C178.244 123.84 178.67 123.51 179.222 123.27C179.774 123.018 180.404 122.892 181.112 122.892C182.204 122.892 183.086 123.168 183.758 123.72C184.43 124.272 184.79 125.028 184.838 125.988H183.2C183.164 125.472 182.954 125.058 182.57 124.746C182.198 124.434 181.694 124.278 181.058 124.278C180.47 124.278 180.002 124.404 179.654 124.656C179.306 124.908 179.132 125.238 179.132 125.646C179.132 125.97 179.234 126.24 179.438 126.456C179.654 126.66 179.918 126.828 180.23 126.96C180.554 127.08 180.998 127.218 181.562 127.374C182.27 127.566 182.846 127.758 183.29 127.95C183.734 128.13 184.112 128.406 184.424 128.778C184.748 129.15 184.916 129.636 184.928 130.236C184.928 130.776 184.778 131.262 184.478 131.694C184.178 132.126 183.752 132.468 183.2 132.72C182.66 132.96 182.036 133.08 181.328 133.08ZM196.421 127.608C196.421 127.92 196.403 128.25 196.367 128.598H188.483C188.543 129.57 188.873 130.332 189.473 130.884C190.085 131.424 190.823 131.694 191.687 131.694C192.395 131.694 192.983 131.532 193.451 131.208C193.931 130.872 194.267 130.428 194.459 129.876H196.223C195.959 130.824 195.431 131.598 194.639 132.198C193.847 132.786 192.863 133.08 191.687 133.08C190.751 133.08 189.911 132.87 189.167 132.45C188.435 132.03 187.859 131.436 187.439 130.668C187.019 129.888 186.809 128.988 186.809 127.968C186.809 126.948 187.013 126.054 187.421 125.286C187.829 124.518 188.399 123.93 189.131 123.522C189.875 123.102 190.727 122.892 191.687 122.892C192.623 122.892 193.451 123.096 194.171 123.504C194.891 123.912 195.443 124.476 195.827 125.196C196.223 125.904 196.421 126.708 196.421 127.608ZM194.729 127.266C194.729 126.642 194.591 126.108 194.315 125.664C194.039 125.208 193.661 124.866 193.181 124.638C192.713 124.398 192.191 124.278 191.615 124.278C190.787 124.278 190.079 124.542 189.491 125.07C188.915 125.598 188.585 126.33 188.501 127.266H194.729ZM198.151 127.95C198.151 126.942 198.355 126.06 198.763 125.304C199.171 124.536 199.729 123.942 200.437 123.522C201.157 123.102 201.961 122.892 202.849 122.892C203.617 122.892 204.331 123.072 204.991 123.432C205.651 123.78 206.155 124.242 206.503 124.818V119.598H208.159V132.918H206.503V131.064C206.179 131.652 205.699 132.138 205.063 132.522C204.427 132.894 203.683 133.08 202.831 133.08C201.955 133.08 201.157 132.864 200.437 132.432C199.729 132 199.171 131.394 198.763 130.614C198.355 129.834 198.151 128.946 198.151 127.95ZM206.503 127.968C206.503 127.224 206.353 126.576 206.053 126.024C205.753 125.472 205.345 125.052 204.829 124.764C204.325 124.464 203.767 124.314 203.155 124.314C202.543 124.314 201.985 124.458 201.481 124.746C200.977 125.034 200.575 125.454 200.275 126.006C199.975 126.558 199.825 127.206 199.825 127.95C199.825 128.706 199.975 129.366 200.275 129.93C200.575 130.482 200.977 130.908 201.481 131.208C201.985 131.496 202.543 131.64 203.155 131.64C203.767 131.64 204.325 131.496 204.829 131.208C205.345 130.908 205.753 130.482 206.053 129.93C206.353 129.366 206.503 128.712 206.503 127.968ZM220.388 133.08C219.464 133.08 218.624 132.87 217.868 132.45C217.124 132.03 216.536 131.436 216.104 130.668C215.684 129.888 215.474 128.988 215.474 127.968C215.474 126.96 215.69 126.072 216.122 125.304C216.566 124.524 217.166 123.93 217.922 123.522C218.678 123.102 219.524 122.892 220.46 122.892C221.396 122.892 222.242 123.102 222.998 123.522C223.754 123.93 224.348 124.518 224.78 125.286C225.224 126.054 225.446 126.948 225.446 127.968C225.446 128.988 225.218 129.888 224.762 130.668C224.318 131.436 223.712 132.03 222.944 132.45C222.176 132.87 221.324 133.08 220.388 133.08ZM220.388 131.64C220.976 131.64 221.528 131.502 222.044 131.226C222.56 130.95 222.974 130.536 223.286 129.984C223.61 129.432 223.772 128.76 223.772 127.968C223.772 127.176 223.616 126.504 223.304 125.952C222.992 125.4 222.584 124.992 222.08 124.728C221.576 124.452 221.03 124.314 220.442 124.314C219.842 124.314 219.29 124.452 218.786 124.728C218.294 124.992 217.898 125.4 217.598 125.952C217.298 126.504 217.148 127.176 217.148 127.968C217.148 128.772 217.292 129.45 217.58 130.002C217.88 130.554 218.276 130.968 218.768 131.244C219.26 131.508 219.8 131.64 220.388 131.64ZM232.585 122.874C233.785 122.874 234.757 123.24 235.501 123.972C236.245 124.692 236.617 125.736 236.617 127.104V132.918H234.997V127.338C234.997 126.354 234.751 125.604 234.259 125.088C233.767 124.56 233.095 124.296 232.243 124.296C231.379 124.296 230.689 124.566 230.173 125.106C229.669 125.646 229.417 126.432 229.417 127.464V132.918H227.779V123.054H229.417V124.458C229.741 123.954 230.179 123.564 230.731 123.288C231.295 123.012 231.913 122.874 232.585 122.874ZM246.45 124.404V130.218C246.45 130.698 246.552 131.04 246.756 131.244C246.96 131.436 247.314 131.532 247.818 131.532H249.024V132.918H247.548C246.636 132.918 245.952 132.708 245.496 132.288C245.04 131.868 244.812 131.178 244.812 130.218V124.404H243.534V123.054H244.812V120.57H246.45V123.054H249.024V124.404H246.45ZM256.085 122.874C256.829 122.874 257.501 123.036 258.101 123.36C258.701 123.672 259.169 124.146 259.505 124.782C259.853 125.418 260.027 126.192 260.027 127.104V132.918H258.407V127.338C258.407 126.354 258.161 125.604 257.669 125.088C257.177 124.56 256.505 124.296 255.653 124.296C254.789 124.296 254.099 124.566 253.583 125.106C253.079 125.646 252.827 126.432 252.827 127.464V132.918H251.189V119.598H252.827V124.458C253.151 123.954 253.595 123.564 254.159 123.288C254.735 123.012 255.377 122.874 256.085 122.874ZM271.882 127.608C271.882 127.92 271.864 128.25 271.828 128.598H263.944C264.004 129.57 264.334 130.332 264.934 130.884C265.546 131.424 266.284 131.694 267.148 131.694C267.856 131.694 268.444 131.532 268.912 131.208C269.392 130.872 269.728 130.428 269.92 129.876H271.684C271.42 130.824 270.892 131.598 270.1 132.198C269.308 132.786 268.324 133.08 267.148 133.08C266.212 133.08 265.372 132.87 264.628 132.45C263.896 132.03 263.32 131.436 262.9 130.668C262.48 129.888 262.27 128.988 262.27 127.968C262.27 126.948 262.474 126.054 262.882 125.286C263.29 124.518 263.86 123.93 264.592 123.522C265.336 123.102 266.188 122.892 267.148 122.892C268.084 122.892 268.912 123.096 269.632 123.504C270.352 123.912 270.904 124.476 271.288 125.196C271.684 125.904 271.882 126.708 271.882 127.608ZM270.19 127.266C270.19 126.642 270.052 126.108 269.776 125.664C269.5 125.208 269.122 124.866 268.642 124.638C268.174 124.398 267.652 124.278 267.076 124.278C266.248 124.278 265.54 124.542 264.952 125.07C264.376 125.598 264.046 126.33 263.962 127.266H270.19ZM81.894 159.918L78.024 155.562V159.918H76.386V146.598H78.024V154.428L81.822 150.054H84.108L79.464 154.968L84.126 159.918H81.894ZM94.8297 154.608C94.8297 154.92 94.8117 155.25 94.7757 155.598H86.8917C86.9517 156.57 87.2817 157.332 87.8817 157.884C88.4937 158.424 89.2317 158.694 90.0957 158.694C90.8037 158.694 91.3917 158.532 91.8597 158.208C92.3397 157.872 92.6757 157.428 92.8677 156.876H94.6317C94.3677 157.824 93.8397 158.598 93.0477 159.198C92.2557 159.786 91.2717 160.08 90.0957 160.08C89.1597 160.08 88.3197 159.87 87.5757 159.45C86.8437 159.03 86.2677 158.436 85.8477 157.668C85.4277 156.888 85.2177 155.988 85.2177 154.968C85.2177 153.948 85.4217 153.054 85.8297 152.286C86.2377 151.518 86.8077 150.93 87.5397 150.522C88.2837 150.102 89.1357 149.892 90.0957 149.892C91.0317 149.892 91.8597 150.096 92.5797 150.504C93.2997 150.912 93.8517 151.476 94.2357 152.196C94.6317 152.904 94.8297 153.708 94.8297 154.608ZM93.1377 154.266C93.1377 153.642 92.9997 153.108 92.7237 152.664C92.4477 152.208 92.0697 151.866 91.5897 151.638C91.1217 151.398 90.5997 151.278 90.0237 151.278C89.1957 151.278 88.4877 151.542 87.8997 152.07C87.3237 152.598 86.9937 153.33 86.9097 154.266H93.1377ZM105.668 150.054L99.7278 164.562H98.0358L99.9798 159.81L96.0018 150.054H97.8198L100.916 158.046L103.976 150.054H105.668ZM116.487 151.404H114.417V159.918H112.779V151.404H111.501V150.054H112.779V149.352C112.779 148.248 113.061 147.444 113.625 146.94C114.201 146.424 115.119 146.166 116.379 146.166V147.534C115.659 147.534 115.149 147.678 114.849 147.966C114.561 148.242 114.417 148.704 114.417 149.352V150.054H116.487V151.404ZM127.577 154.608C127.577 154.92 127.559 155.25 127.523 155.598H119.639C119.699 156.57 120.029 157.332 120.629 157.884C121.241 158.424 121.979 158.694 122.843 158.694C123.551 158.694 124.139 158.532 124.607 158.208C125.087 157.872 125.423 157.428 125.615 156.876H127.379C127.115 157.824 126.587 158.598 125.795 159.198C125.003 159.786 124.019 160.08 122.843 160.08C121.907 160.08 121.067 159.87 120.323 159.45C119.591 159.03 119.015 158.436 118.595 157.668C118.175 156.888 117.965 155.988 117.965 154.968C117.965 153.948 118.169 153.054 118.577 152.286C118.985 151.518 119.555 150.93 120.287 150.522C121.031 150.102 121.883 149.892 122.843 149.892C123.779 149.892 124.607 150.096 125.327 150.504C126.047 150.912 126.599 151.476 126.983 152.196C127.379 152.904 127.577 153.708 127.577 154.608ZM125.885 154.266C125.885 153.642 125.747 153.108 125.471 152.664C125.195 152.208 124.817 151.866 124.337 151.638C123.869 151.398 123.347 151.278 122.771 151.278C121.943 151.278 121.235 151.542 120.647 152.07C120.071 152.598 119.741 153.33 119.657 154.266H125.885ZM129.307 154.95C129.307 153.942 129.511 153.06 129.919 152.304C130.327 151.536 130.885 150.942 131.593 150.522C132.313 150.102 133.111 149.892 133.987 149.892C134.851 149.892 135.601 150.078 136.237 150.45C136.873 150.822 137.347 151.29 137.659 151.854V150.054H139.315V159.918H137.659V158.082C137.335 158.658 136.849 159.138 136.201 159.522C135.565 159.894 134.821 160.08 133.969 160.08C133.093 160.08 132.301 159.864 131.593 159.432C130.885 159 130.327 158.394 129.919 157.614C129.511 156.834 129.307 155.946 129.307 154.95ZM137.659 154.968C137.659 154.224 137.509 153.576 137.209 153.024C136.909 152.472 136.501 152.052 135.985 151.764C135.481 151.464 134.923 151.314 134.311 151.314C133.699 151.314 133.141 151.458 132.637 151.746C132.133 152.034 131.731 152.454 131.431 153.006C131.131 153.558 130.981 154.206 130.981 154.95C130.981 155.706 131.131 156.366 131.431 156.93C131.731 157.482 132.133 157.908 132.637 158.208C133.141 158.496 133.699 158.64 134.311 158.64C134.923 158.64 135.481 158.496 135.985 158.208C136.501 157.908 136.909 157.482 137.209 156.93C137.509 156.366 137.659 155.712 137.659 154.968ZM144.261 151.404V157.218C144.261 157.698 144.363 158.04 144.567 158.244C144.771 158.436 145.125 158.532 145.629 158.532H146.835V159.918H145.359C144.447 159.918 143.763 159.708 143.307 159.288C142.851 158.868 142.623 158.178 142.623 157.218V151.404H141.345V150.054H142.623V147.57H144.261V150.054H146.835V151.404H144.261ZM157.748 150.054V159.918H156.11V158.46C155.798 158.964 155.36 159.36 154.796 159.648C154.244 159.924 153.632 160.062 152.96 160.062C152.192 160.062 151.502 159.906 150.89 159.594C150.278 159.27 149.792 158.79 149.432 158.154C149.084 157.518 148.91 156.744 148.91 155.832V150.054H150.53V155.616C150.53 156.588 150.776 157.338 151.268 157.866C151.76 158.382 152.432 158.64 153.284 158.64C154.16 158.64 154.85 158.37 155.354 157.83C155.858 157.29 156.11 156.504 156.11 155.472V150.054H157.748ZM162.332 151.656C162.62 151.092 163.028 150.654 163.556 150.342C164.096 150.03 164.75 149.874 165.518 149.874V151.566H165.086C163.25 151.566 162.332 152.562 162.332 154.554V159.918H160.694V150.054H162.332V151.656ZM176.588 154.608C176.588 154.92 176.57 155.25 176.534 155.598H168.65C168.71 156.57 169.04 157.332 169.64 157.884C170.252 158.424 170.99 158.694 171.854 158.694C172.562 158.694 173.15 158.532 173.618 158.208C174.098 157.872 174.434 157.428 174.626 156.876H176.39C176.126 157.824 175.598 158.598 174.806 159.198C174.014 159.786 173.03 160.08 171.854 160.08C170.918 160.08 170.078 159.87 169.334 159.45C168.602 159.03 168.026 158.436 167.606 157.668C167.186 156.888 166.976 155.988 166.976 154.968C166.976 153.948 167.18 153.054 167.588 152.286C167.996 151.518 168.566 150.93 169.298 150.522C170.042 150.102 170.894 149.892 171.854 149.892C172.79 149.892 173.618 150.096 174.338 150.504C175.058 150.912 175.61 151.476 175.994 152.196C176.39 152.904 176.588 153.708 176.588 154.608ZM174.896 154.266C174.896 153.642 174.758 153.108 174.482 152.664C174.206 152.208 173.828 151.866 173.348 151.638C172.88 151.398 172.358 151.278 171.782 151.278C170.954 151.278 170.246 151.542 169.658 152.07C169.082 152.598 168.752 153.33 168.668 154.266H174.896ZM182.422 160.08C181.666 160.08 180.988 159.954 180.388 159.702C179.788 159.438 179.314 159.078 178.966 158.622C178.618 158.154 178.426 157.62 178.39 157.02H180.082C180.13 157.512 180.358 157.914 180.766 158.226C181.186 158.538 181.732 158.694 182.404 158.694C183.028 158.694 183.52 158.556 183.88 158.28C184.24 158.004 184.42 157.656 184.42 157.236C184.42 156.804 184.228 156.486 183.844 156.282C183.46 156.066 182.866 155.856 182.062 155.652C181.33 155.46 180.73 155.268 180.262 155.076C179.806 154.872 179.41 154.578 179.074 154.194C178.75 153.798 178.588 153.282 178.588 152.646C178.588 152.142 178.738 151.68 179.038 151.26C179.338 150.84 179.764 150.51 180.316 150.27C180.868 150.018 181.498 149.892 182.206 149.892C183.298 149.892 184.18 150.168 184.852 150.72C185.524 151.272 185.884 152.028 185.932 152.988H184.294C184.258 152.472 184.048 152.058 183.664 151.746C183.292 151.434 182.788 151.278 182.152 151.278C181.564 151.278 181.096 151.404 180.748 151.656C180.4 151.908 180.226 152.238 180.226 152.646C180.226 152.97 180.328 153.24 180.532 153.456C180.748 153.66 181.012 153.828 181.324 153.96C181.648 154.08 182.092 154.218 182.656 154.374C183.364 154.566 183.94 154.758 184.384 154.95C184.828 155.13 185.206 155.406 185.518 155.778C185.842 156.15 186.01 156.636 186.022 157.236C186.022 157.776 185.872 158.262 185.572 158.694C185.272 159.126 184.846 159.468 184.294 159.72C183.754 159.96 183.13 160.08 182.422 160.08ZM191.719 147.21C192.907 147.21 193.867 147.546 194.599 148.218C195.331 148.89 195.697 149.79 195.697 150.918C195.697 152.178 195.307 153.114 194.527 153.726C193.747 154.326 192.691 154.626 191.359 154.626L191.305 156.336H189.883L189.811 153.492H190.333C191.521 153.492 192.451 153.312 193.123 152.952C193.795 152.592 194.131 151.914 194.131 150.918C194.131 150.198 193.915 149.628 193.483 149.208C193.051 148.788 192.469 148.578 191.737 148.578C190.993 148.578 190.405 148.782 189.973 149.19C189.553 149.586 189.343 150.132 189.343 150.828H187.795C187.795 150.108 187.957 149.478 188.281 148.938C188.605 148.386 189.061 147.96 189.649 147.66C190.249 147.36 190.939 147.21 191.719 147.21ZM190.585 160.026C190.273 160.026 190.009 159.918 189.793 159.702C189.577 159.486 189.469 159.222 189.469 158.91C189.469 158.598 189.577 158.334 189.793 158.118C190.009 157.902 190.273 157.794 190.585 157.794C190.885 157.794 191.137 157.902 191.341 158.118C191.557 158.334 191.665 158.598 191.665 158.91C191.665 159.222 191.557 159.486 191.341 159.702C191.137 159.918 190.885 160.026 190.585 160.026ZM201.338 147.21C202.526 147.21 203.486 147.546 204.218 148.218C204.95 148.89 205.316 149.79 205.316 150.918C205.316 152.178 204.926 153.114 204.146 153.726C203.366 154.326 202.31 154.626 200.978 154.626L200.924 156.336H199.502L199.43 153.492H199.952C201.14 153.492 202.07 153.312 202.742 152.952C203.414 152.592 203.75 151.914 203.75 150.918C203.75 150.198 203.534 149.628 203.102 149.208C202.67 148.788 202.088 148.578 201.356 148.578C200.612 148.578 200.024 148.782 199.592 149.19C199.172 149.586 198.962 150.132 198.962 150.828H197.414C197.414 150.108 197.576 149.478 197.9 148.938C198.224 148.386 198.68 147.96 199.268 147.66C199.868 147.36 200.558 147.21 201.338 147.21ZM200.204 160.026C199.892 160.026 199.628 159.918 199.412 159.702C199.196 159.486 199.088 159.222 199.088 158.91C199.088 158.598 199.196 158.334 199.412 158.118C199.628 157.902 199.892 157.794 200.204 157.794C200.504 157.794 200.756 157.902 200.96 158.118C201.176 158.334 201.284 158.598 201.284 158.91C201.284 159.222 201.176 159.486 200.96 159.702C200.756 159.918 200.504 160.026 200.204 160.026Z" fill="#0A0A0A"/>
</svg>
