<svg width="66" height="66" viewBox="0 0 66 66" fill="none" xmlns="http://www.w3.org/2000/svg">
<path d="M49.7298 37.5077C49.7298 37.5077 14.301 35.8961 13.9301 35.8808C12.9742 34.5884 14.0104 31.6558 14.7541 30.5164C16.0426 28.5434 18.3711 27.2664 19.1397 25.0373C20.0248 22.4659 18.5432 20.4376 18.3119 18.0058C18.1016 15.6983 19.0326 13.3373 20.5582 11.6167C23.6457 8.1755 28.7673 6.47021 33.7131 6.50844C36.2939 6.52565 38.8251 7.01888 40.9931 7.9805C41.2569 8.09712 41.5131 8.21947 41.7578 8.34947C41.9489 8.45079 42.1401 8.55785 42.3313 8.67065C44.4783 9.95069 46.2542 11.7688 47.4835 13.9452C48.9957 16.5911 49.3551 19.0439 48.47 21.9746C47.8964 23.852 47.1834 25.7981 47.5389 27.7099C47.9213 29.8224 49.5539 31.5334 49.9822 33.6364C50.2556 34.9287 50.0548 36.2517 49.7298 37.5077Z" fill="#131313"/>
<path d="M54.6947 51.5263C41.9149 61.3664 24.0894 61.2877 11.397 51.3351L20.6997 46.9744C21.1427 46.7661 21.5679 46.5219 21.971 46.2441C22.0934 46.16 22.2157 46.072 22.3323 45.9803C23.3448 45.2056 24.1782 44.2216 24.7756 43.0954C25.2272 42.2301 25.5272 41.2938 25.6626 40.3272C25.756 39.7 25.8033 39.0667 25.8041 38.4326C25.8041 37.3391 25.7448 36.2456 25.7334 35.1501C25.7257 34.5435 25.7193 33.9374 25.7142 33.332L26.0966 33.5232L27.0907 34.0375L27.5514 34.1159L32.8814 35.022L38.8309 36.0353L39.0106 42.1529L39.0698 44.1526L39.0985 45.1238V45.1869L41.4117 46.1275L54.6947 51.5263Z" fill="#F2A196"/>
<path d="M39.0756 44.726C38.4185 44.839 37.7425 44.7343 37.1504 44.4278L25.7486 35.1022C25.7353 34.6701 25.7238 35.1232 25.7181 34.6911C25.7104 34.0857 25.704 33.4797 25.6989 32.873L26.0813 33.0642L27.0754 33.5785L27.5362 33.6569L32.8662 34.563L38.8156 35.5763L38.9953 41.6939L39.0545 43.6936L39.0832 44.6648V44.7279L39.0756 44.726Z" fill="#E88870"/>
<path d="M54.6947 51.5265C41.9149 61.3666 24.0894 61.2879 11.397 51.3353L20.6997 46.9746C21.1427 46.7663 21.5679 46.5221 21.971 46.2443C22.0934 46.1602 22.2157 46.0722 22.3323 45.9805C26.8345 49.1846 32.9789 51.2053 38.2937 48.8137C39.5592 48.2402 40.7216 47.3149 41.4098 46.1258L54.6947 51.5265Z" fill="url(#paint0_linear_2082_24011)"/>
<circle cx="23.4488" cy="28.3516" r="3.25" fill="#F2A196"/>
<circle cx="24.4792" cy="28.3042" r="2.90971" fill="#E88870"/>
<path d="M24.3779 25.2382L25.7276 36.0875C25.762 36.3666 27.8305 37.1848 28.0733 37.3129C30.8454 38.7639 33.6997 40.6948 36.8369 41.1919C38.1751 41.4041 39.5803 41.383 40.8516 40.8917C43.0922 40.0314 43.3942 38.3453 44.1628 36.3608C44.8548 34.5723 45.3995 32.7303 45.7916 30.853C46.1739 29.056 46.5142 26.5841 45.1951 25.0432C45.0345 24.852 44.8625 24.7507 44.895 24.4697C45.1741 22.1144 45.6176 19.4494 44.591 17.2241C43.9219 15.7769 42.8398 14.5591 41.6526 13.498C41.6526 13.498 32.6233 20.2848 31.8032 20.7628C29.8475 21.885 24.3779 25.2382 24.3779 25.2382Z" fill="#F2A196"/>
<path d="M39.1635 24.6172C39.1635 24.6726 41.5838 30.3181 41.5838 30.3181L38.7161 30.5953" stroke="#00214E" stroke-width="0.191176"/>
<path d="M30.3636 22.2466C32.1143 21.7987 33.9301 21.6621 35.7281 21.8432" stroke="#00214E" stroke-width="0.191176"/>
<path d="M41.6699 22.1895C42.7502 21.8868 43.8717 21.7578 44.9925 21.8071" stroke="#00214E" stroke-width="0.191176"/>
<path d="M34.5906 32.4688C34.6396 32.3826 34.7224 32.3209 34.8189 32.2983C34.9155 32.2758 35.017 32.2947 35.0991 32.3503C35.5082 32.6122 36.2615 33.1723 37.3015 33.331C38.7181 33.549 39.9148 32.9334 40.2207 33.2832C40.3947 33.4744 40.2054 33.7382 39.8384 34.0747C39.0518 34.7189 38.0384 35.0181 37.0281 34.9044C35.665 34.7132 34.5791 33.1838 34.5562 32.6332C34.553 32.5763 34.5649 32.5196 34.5906 32.4688Z" fill="#FEFEFE"/>
<path d="M33.6978 24.38C34.862 24.3284 34.9557 26.1102 33.7915 26.179H33.7398C32.5737 26.2306 32.48 24.4488 33.6462 24.38H33.6978Z" fill="#00214E"/>
<path d="M43.2872 23.753C44.3674 23.7052 44.4553 25.3569 43.3732 25.4219H43.3254C42.2434 25.4697 42.1574 23.818 43.2375 23.753H43.2872Z" fill="#00214E"/>
<defs>
<linearGradient id="paint0_linear_2082_24011" x1="11.397" y1="58.852" x2="54.6947" y2="58.852" gradientUnits="userSpaceOnUse">
<stop stop-color="#16243F"/>
<stop offset="1" stop-color="#16349C"/>
</linearGradient>
</defs>
</svg>
