<svg width="66" height="66" viewBox="0 0 66 66" fill="none" xmlns="http://www.w3.org/2000/svg">
<path d="M54.6947 51.7919C41.9149 61.632 24.0894 61.5533 11.397 51.6007L20.6997 47.24C21.1427 47.0317 21.5679 46.7875 21.971 46.5097C22.0934 46.4256 22.2157 46.3377 22.3323 46.2459C23.3448 45.4712 24.1782 44.4872 24.7756 43.361C25.2272 42.4957 25.5273 41.5594 25.6626 40.5928C25.756 39.9656 25.8033 39.3324 25.8041 38.6982C25.8041 37.6047 25.7448 36.5112 25.7334 35.4157C25.7257 34.8091 25.7194 34.203 25.7143 33.5977L26.0966 33.7888L27.0907 34.3031L27.5515 34.3815L32.8815 35.2877L38.8309 36.3009L39.0106 42.4185L39.0698 44.4182L39.0985 45.3894V45.4525L41.4118 46.3931L54.6947 51.7919Z" fill="#FECAC3"/>
<path d="M39.0603 45.0717C38.4032 45.1847 37.7272 45.08 37.1351 44.7735L25.7276 35.4479C25.7143 35.0158 25.7028 35.4689 25.6971 35.0368C25.6894 34.4302 25.683 33.8241 25.6779 33.2188L26.0603 33.4099L27.0544 33.9242L27.5151 34.0026L32.8451 34.9088L38.7946 35.922L38.9743 42.0396L39.0335 44.0393L39.0622 45.0105V45.0736L39.0603 45.0717Z" fill="#F6AC99"/>
<path d="M44.9485 28.4505C44.6512 28.7614 44.3255 29.0437 43.9754 29.2936C41.9872 30.7332 39.3336 31.2054 37.0663 31.9816C36.1104 32.3085 25.7448 35.2545 25.7448 35.8949C25.7448 35.7554 24.7297 34.7479 23.4507 33.5244C19.0394 29.2994 17.5688 22.8529 19.7113 17.1329C21.797 11.6518 28.4461 7.8742 34.0151 7.00052C36.6667 6.58567 39.8135 6.35435 42.2625 7.62567C43.5147 8.27758 44.5566 9.22773 45.5125 10.2811C45.8107 10.6138 46.1 10.9534 46.3804 11.3001C46.5009 11.4454 46.6194 11.5907 46.736 11.7379C51.0891 17.2055 49.5463 23.6195 44.9485 28.4505Z" fill="url(#paint0_linear_2082_25546)"/>
<path d="M44.9485 28.4513C44.6512 28.7621 44.3255 29.0444 43.9754 29.2944C43.8938 29.1521 43.8204 29.0053 43.7556 28.8546C43.2509 27.7076 42.9909 26.463 42.7997 25.2223C42.502 23.4166 42.2984 21.5967 42.1898 19.7699C42.0159 16.8373 40.7636 15.3824 43.2547 13.096C44.1511 12.2744 45.2187 11.6619 46.3804 11.3027C46.5009 11.448 46.6194 11.5933 46.736 11.7405C51.0891 17.2063 49.5463 23.6202 44.9485 28.4513Z" fill="url(#paint1_linear_2082_25546)"/>
<circle cx="23.8331" cy="28.25" r="3.25" fill="#FECAC3"/>
<circle cx="24.8654" cy="28.2495" r="2.90971" fill="#F6AC99"/>
<path d="M25.1082 25.1666C25.2669 27.2428 25.2612 29.7778 25.3166 30.5196C25.4606 32.3791 25.6034 34.2379 25.7448 36.0962L38.4466 43.5157C40.2696 44.1971 42.312 43.382 43.1648 41.6327C44.9925 37.8894 47.9251 31.9782 47.5389 29.7797C46.9654 26.5297 45.436 25.3827 45.436 25.3827L46.0726 21.5706C46.7169 17.6954 45.3882 14.0268 40.8612 13.6024C39.9053 13.5144 38.8404 13.696 38.2726 14.4588C36.7432 16.5159 37.6245 19.0471 35.3285 20.9588C32.5412 23.2587 26.3222 24.2624 24.8654 22.406C24.8654 22.406 24.9992 23.7194 25.1082 25.1666Z" fill="#FECAC3"/>
<path d="M34.6403 33.2773C35.5589 34.3032 36.8181 34.9613 38.1847 35.1298" stroke="#00214E" stroke-width="0.191176"/>
<path d="M39.1559 24.2539C39.1406 24.3208 41.71 31.1611 41.71 31.1611L38.2803 31.3274" stroke="#00214E" stroke-width="0.191176"/>
<path d="M31.0347 22.9247C32.8044 22.5587 34.6248 22.5069 36.4125 22.7718" stroke="#00214E" stroke-width="0.191176"/>
<path d="M42.3237 22.9501C43.4162 22.6955 44.5425 22.6174 45.6597 22.7188" stroke="#00214E" stroke-width="0.191176"/>
<path d="M54.6947 51.7929C41.9149 61.633 24.0894 61.5543 11.397 51.6017L20.6997 47.241C21.1427 47.0327 21.5679 46.7884 21.971 46.5107C22.0934 46.4265 22.2157 46.3386 22.3323 46.2468C23.3448 45.4722 24.1782 44.4882 24.7756 43.362C25.2272 42.4967 25.5273 41.5604 25.6626 40.5938C25.7977 40.7246 25.9393 40.8484 26.087 40.9646C27.2593 41.8314 28.5314 42.5542 29.8762 43.1173C30.529 43.3896 31.1966 43.6251 31.8759 43.8227C33.9222 44.4194 36.0588 44.6454 38.1847 44.4899C38.4791 44.467 38.7754 44.4383 39.0698 44.4173L39.0985 45.3885V45.4515L41.4118 46.3921L54.6947 51.7929Z" fill="#00214E"/>
<path d="M33.6404 25.0742C34.8066 25.0742 34.8066 26.8675 33.6404 26.877H33.5869C32.4188 26.877 32.4188 25.0838 33.5869 25.0742H33.6385H33.6404Z" fill="#00214E"/>
<path d="M43.2241 24.8086C44.3062 24.8182 44.3062 26.4718 43.2241 26.4814H43.1744C42.0924 26.4814 42.0924 24.8182 43.1744 24.8086H43.2241Z" fill="#00214E"/>
<defs>
<linearGradient id="paint0_linear_2082_25546" x1="18.7286" y1="35.9024" x2="49.3131" y2="35.9024" gradientUnits="userSpaceOnUse">
<stop stop-color="#3F2816"/>
<stop offset="1" stop-color="#B16868"/>
</linearGradient>
<linearGradient id="paint1_linear_2082_25546" x1="36.7413" y1="23.1299" x2="49.5649" y2="26.7681" gradientUnits="userSpaceOnUse">
<stop stop-color="#3F2816"/>
<stop offset="1" stop-color="#B16868"/>
</linearGradient>
</defs>
</svg>
