<svg width="65" height="66" viewBox="0 0 65 66" fill="none" xmlns="http://www.w3.org/2000/svg">
<path d="M35.5328 41.818C33.5446 41.7836 31.5544 41.688 29.4878 41.5618C26.9127 41.4031 23.7831 42.0398 21.3246 41.0533C18.9387 40.0974 17.4189 38.5814 15.8512 36.6562C15.0349 35.6602 13.775 35.1536 12.5534 34.7445C11.3318 34.3353 10.0567 33.9587 9.074 33.1252C8.09136 32.2917 7.49297 30.8445 8.05503 29.684C9.43724 26.8336 13.9337 27.7856 13.9433 23.4842C13.9433 22.0217 13.2914 20.3833 14.1593 19.2056C14.4536 18.8493 14.8131 18.5521 15.2184 18.33C17.1875 17.1161 19.7264 17.2346 21.6802 16.0359C23.8864 14.6709 23.4275 12.0881 25.3928 10.2873C26.0492 9.7153 26.7585 9.20704 27.5111 8.76931C32.6575 5.58431 37.978 5.88255 43.2506 8.91652C46.0705 10.5434 48.5194 13.4608 49.6722 16.489C50.9512 19.8614 48.4277 23.6103 50.5517 26.543C51.0334 27.2083 51.6719 27.7474 52.1939 28.3821C54.3809 31.0395 51.0143 32.6759 49.634 34.4806C48.5271 35.9317 48.6972 38.0537 47.6343 39.5373C46.4012 41.2578 44.0019 41.5465 41.8818 41.6784C39.7043 41.8218 37.6186 41.8543 35.5328 41.818Z" fill="#845161"/>
<path d="M57.348 51.7061C44.5682 61.5462 26.7427 61.4675 14.0503 51.5149L23.353 47.1542C23.6377 47.0195 23.9153 46.8702 24.1846 46.7068L24.3987 46.573C24.4752 46.5252 24.5497 46.4755 24.6243 46.4239C25.7979 45.6142 26.7598 44.5343 27.4289 43.2752C28.1936 41.8318 28.4459 40.2374 28.4574 38.6124C28.4574 37.7196 28.4211 36.8268 28.3981 35.9359C28.3981 35.7345 28.3943 35.5338 28.3866 35.3337C28.379 34.7283 28.3726 34.1223 28.3675 33.5156L28.7499 33.7068L29.744 34.2211L35.5347 35.2056L41.4841 36.2189L41.6581 42.1262V42.3308L41.748 45.3647L43.9408 46.2575L45.6614 46.9534L57.348 51.7061Z" fill="#F2A196"/>
<path d="M41.6543 40.7863C41.1343 41.1075 40.643 41.2585 40.2128 41.2126C37.3853 40.9086 31.8699 38.6929 28.3981 34.5922C28.3981 34.3908 28.3943 34.1901 28.3866 33.99C28.379 33.3846 28.3726 32.7785 28.3675 32.1719L28.7499 32.3631L29.744 32.8773L35.5347 33.8619L41.4841 34.8751L41.6543 40.7863Z" fill="#E88870"/>
<circle cx="23.5881" cy="27.3926" r="3.25" fill="#F2A196"/>
<circle cx="24.7352" cy="27.0098" r="3.25" fill="#E88870"/>
<path d="M45.6766 22.4693C47.921 30.2483 43.1512 39.6503 40.2205 39.6503C36.2058 39.6503 26.4558 36.4424 24.2133 28.6653C21.9708 20.8883 24.9512 13.1953 30.8777 11.4843C36.8041 9.77327 43.4303 14.6922 45.6766 22.4693Z" fill="#F2A196"/>
<path d="M33.6019 24.0859C34.7681 24.0859 34.7681 25.8792 33.6019 25.8868H33.5484C32.3822 25.8868 32.3822 24.0955 33.5484 24.0859H33.6019Z" fill="#00214E"/>
<path d="M43.2105 23.3516C44.2925 23.3516 44.2925 25.0148 43.2105 25.0244H43.1608C42.0787 25.0148 42.0787 23.3611 43.1608 23.3516H43.2105Z" fill="#00214E"/>
<circle cx="33.5981" cy="25.0034" r="3.63235" stroke="#FEFEFE" stroke-width="0.191176"/>
<circle cx="43.7572" cy="24.4292" r="3.63235" stroke="#FEFEFE" stroke-width="0.191176"/>
<path d="M38.2762 12.1309C37.4541 15.7079 35.659 18.7437 32.3765 20.9537C28.8378 23.4046 25.0984 24.5861 21.0225 25.4005C21.1258 22.8942 20.8505 19.3689 22.1428 17.1321C23.6096 14.6507 25.7519 12.6376 28.3197 11.328C31.1491 9.8655 35.529 8.43168 38.7102 9.44683C38.6225 10.3498 38.4776 11.2463 38.2762 12.1309Z" fill="#845161"/>
<path d="M38.6108 22.834C38.5955 22.899 40.1249 29.0166 40.1249 29.0166H37.7352" stroke="#00214E" stroke-width="0.191176"/>
<path d="M40.8016 20.8871C42.1534 20.1939 43.7193 20.0448 45.1777 20.4704" stroke="#00214E" stroke-width="0.191176"/>
<path d="M30.2659 21.5881C32.1277 20.6387 34.3158 20.5686 36.2345 21.397" stroke="#00214E" stroke-width="0.191176"/>
<path d="M37.2305 25.0005L40.1249 24.7539" stroke="#FEFEFE" stroke-width="0.191176"/>
<path d="M57.348 51.7069C44.5682 61.547 26.7427 61.4683 14.0503 51.5158L23.353 47.155C23.796 46.9468 24.2212 46.7025 24.6243 46.4247C24.7466 46.3406 24.869 46.2527 24.9856 46.1609C25.9981 45.3862 26.8314 44.4022 27.4289 43.276C27.8805 42.4107 28.1805 41.4745 28.3159 40.5078C28.4509 40.6386 28.5926 40.7624 28.7403 40.8787C29.9125 41.7455 31.1847 42.4682 32.5294 43.0313C33.1823 43.3037 33.8499 43.5392 34.5292 43.7368C36.5755 44.3335 38.7121 44.5594 40.838 44.404C41.1324 44.381 41.4287 44.3524 41.7231 44.3313L41.7518 45.3025V45.358L44.065 46.2985L57.348 51.7069Z" fill="url(#paint0_linear_2082_25527)"/>
<path d="M33.6421 31.1753C33.6949 31.0917 33.7802 31.0339 33.8774 31.0158C33.9746 30.9977 34.075 31.0208 34.1544 31.0797C34.5521 31.3588 35.2786 31.9515 36.3109 32.158C37.718 32.4371 38.9377 31.875 39.2302 32.2363C39.3946 32.4409 39.1939 32.6913 38.8096 33.0011C37.9966 33.6098 36.9721 33.8642 35.9687 33.7065C34.6152 33.4522 33.5981 31.8846 33.5981 31.3302C33.5997 31.2757 33.6148 31.2225 33.6421 31.1753Z" fill="#FEFEFE"/>
<defs>
<linearGradient id="paint0_linear_2082_25527" x1="14.0503" y1="59.0334" x2="57.348" y2="59.0334" gradientUnits="userSpaceOnUse">
<stop stop-color="#16243F"/>
<stop offset="1" stop-color="#6878B1"/>
</linearGradient>
</defs>
</svg>
