<svg width="66" height="66" viewBox="0 0 66 66" fill="none" xmlns="http://www.w3.org/2000/svg">
<path d="M54.6947 51.6279C41.9149 61.468 24.0894 61.3893 11.3971 51.4367L20.6997 47.0759C21.1427 46.8677 21.5679 46.6234 21.971 46.3457C22.0934 46.2615 22.2157 46.1736 22.3324 46.0818C23.3448 45.3072 24.1782 44.3232 24.7756 43.197C25.2272 42.3317 25.5273 41.3954 25.6627 40.4287C25.756 39.8015 25.8033 39.1683 25.8041 38.5342C25.8041 37.4407 25.7449 36.3471 25.7334 35.2517C25.7257 34.645 25.7194 34.039 25.7143 33.4336L26.0966 33.6248L27.0907 34.139L27.5515 34.2174L32.8815 35.1236L38.8309 36.1368L39.0106 42.2545L39.0699 44.2542L39.0985 45.2254V45.2884L41.4118 46.229L54.6947 51.6279Z" fill="#FECAC3"/>
<path d="M39.0603 44.9076C38.4032 45.0207 37.7272 44.916 37.1352 44.6094L25.7277 35.2838C25.7143 34.8517 25.7028 35.3048 25.6971 34.8728C25.6894 34.2661 25.683 33.6601 25.6779 33.0547L26.0603 33.2459L27.0544 33.7601L27.5152 33.8385L32.8452 34.7447L38.7946 35.7579L38.9743 41.8756L39.0335 43.8753L39.0622 44.8465V44.9095L39.0603 44.9076Z" fill="#F6AC99"/>
<path d="M44.9485 28.2855C44.6513 28.5964 44.3255 28.8786 43.9754 29.1286C41.9872 30.5681 39.3337 31.0403 37.0663 31.8165C36.1104 32.1434 25.7448 35.0895 25.7448 35.7299C25.7448 35.5903 24.7297 34.5828 23.4507 33.3593C19.0394 29.1344 17.5688 22.6879 19.7113 16.9678C21.797 11.4868 28.4462 7.70916 34.0151 6.83548C36.6667 6.42063 39.8135 6.18931 42.2625 7.46063C43.5147 8.11254 44.5566 9.06269 45.5125 10.1161C45.8107 10.4487 46.1 10.7884 46.3804 11.135C46.5009 11.2803 46.6194 11.4256 46.736 11.5728C51.0891 17.0405 49.5463 23.4545 44.9485 28.2855Z" fill="url(#paint0_linear_2082_23782)"/>
<path d="M44.9485 28.2852C44.6513 28.5961 44.3255 28.8784 43.9754 29.1283C43.8938 28.9861 43.8204 28.8393 43.7556 28.6886C43.2509 27.5416 42.9909 26.297 42.7997 25.0563C42.502 23.2506 42.2984 21.4307 42.1898 19.6039C42.0159 16.6713 40.7637 15.2164 43.2547 12.93C44.1512 12.1084 45.2187 11.4959 46.3804 11.1367C46.5009 11.282 46.6194 11.4273 46.736 11.5745C51.0891 17.0402 49.5463 23.4542 44.9485 28.2852Z" fill="url(#paint1_linear_2082_23782)"/>
<circle cx="23.8331" cy="28.085" r="3.25" fill="#FECAC3"/>
<circle cx="24.8654" cy="28.0855" r="2.90971" fill="#F6AC99"/>
<path d="M25.1082 25.0026C25.2669 27.0787 25.2612 29.6137 25.3166 30.3555C25.4606 32.215 25.6034 34.0739 25.7448 35.9321L38.4466 43.3517C40.2696 44.0331 42.312 43.218 43.1648 41.4686C44.9925 37.7254 47.9251 31.8142 47.5389 29.6156C46.9654 26.3656 45.436 25.2186 45.436 25.2186L46.0726 21.4065C46.7169 17.5314 45.3882 13.8627 40.8612 13.4383C39.9053 13.3504 38.8404 13.532 38.2726 14.2948C36.7432 16.3518 37.6245 18.883 35.3285 20.7948C32.5412 23.0946 26.3222 24.0983 24.8654 22.242C24.8654 22.242 24.9992 23.5554 25.1082 25.0026Z" fill="#FECAC3"/>
<path d="M34.6403 33.1133C35.5589 34.1391 36.8181 34.7972 38.1847 34.9658" stroke="#00214E" stroke-width="0.191176"/>
<path d="M39.1559 24.0879C39.1406 24.1548 41.71 30.9951 41.71 30.9951L38.2803 31.1614" stroke="#00214E" stroke-width="0.191176"/>
<path d="M31.0347 22.7607C32.8044 22.3947 34.6248 22.3429 36.4125 22.6077" stroke="#00214E" stroke-width="0.191176"/>
<path d="M42.3237 22.786C43.4162 22.5315 44.5425 22.4534 45.6597 22.5547" stroke="#00214E" stroke-width="0.191176"/>
<path d="M54.6947 51.6278C41.9149 61.4679 24.0894 61.3892 11.3971 51.4367L20.6997 47.0759C21.1427 46.8677 21.5679 46.6234 21.971 46.3456C22.0934 46.2615 22.2157 46.1736 22.3324 46.0818C23.3448 45.3071 24.1782 44.3231 24.7756 43.1969C25.2272 42.3316 25.5273 41.3954 25.6627 40.4287C25.7977 40.5595 25.9393 40.6833 26.0871 40.7996C27.2593 41.6664 28.5314 42.3891 29.8762 42.9522C30.529 43.2246 31.1967 43.4601 31.8759 43.6577C33.9222 44.2544 36.0588 44.4803 38.1847 44.3249C38.4791 44.3019 38.7754 44.2733 39.0699 44.2522L39.0985 45.2234V45.2865L41.4118 46.2271L54.6947 51.6278Z" fill="#00214E"/>
<path d="M33.6405 24.9092C34.8066 24.9092 34.8066 26.7024 33.6405 26.712H33.5869C32.4189 26.712 32.4189 24.9187 33.5869 24.9092H33.6386H33.6405Z" fill="#00214E"/>
<path d="M43.2241 24.6436C44.3062 24.6531 44.3062 26.3068 43.2241 26.3163H43.1744C42.0924 26.3163 42.0924 24.6531 43.1744 24.6436H43.2241Z" fill="#00214E"/>
<defs>
<linearGradient id="paint0_linear_2082_23782" x1="18.7287" y1="35.7373" x2="49.3131" y2="35.7373" gradientUnits="userSpaceOnUse">
<stop stop-color="#3F2816"/>
<stop offset="1" stop-color="#B16868"/>
</linearGradient>
<linearGradient id="paint1_linear_2082_23782" x1="36.7413" y1="22.9639" x2="49.5649" y2="26.6021" gradientUnits="userSpaceOnUse">
<stop stop-color="#3F2816"/>
<stop offset="1" stop-color="#B16868"/>
</linearGradient>
</defs>
</svg>
