<svg width="66" height="66" viewBox="0 0 66 66" fill="none" xmlns="http://www.w3.org/2000/svg">
<path d="M54.6946 54.0849C41.9148 63.925 24.0894 63.8463 11.397 53.8937L20.6996 49.533C21.1426 49.3247 21.5678 49.0805 21.9709 48.8027C22.0933 48.7186 22.2157 48.6306 22.3323 48.5389C23.3447 47.7642 24.1781 46.7802 24.7755 45.654C25.2271 44.7887 25.5272 43.8524 25.6626 42.8858C25.7559 42.2586 25.8032 41.6253 25.804 40.9912C25.804 40.3297 25.7868 39.6683 25.7639 39.0068C25.7505 38.5747 25.739 38.1408 25.7333 37.7087C25.7256 37.1033 25.7193 36.4973 25.7142 35.8906L26.0965 36.0818L27.0906 36.5961L27.5514 36.6744L32.8814 37.5806L38.8308 38.5939L39.0105 44.7115L39.0698 46.7112L39.0984 47.6824V47.7417L39.2896 47.8219L41.4059 48.6822L54.6946 54.0849Z" fill="#FEBEB5"/>
<path d="M39.0966 47.7397C38.4395 47.8527 37.7635 47.748 37.1714 47.4414L25.7639 38.1177C25.7505 37.6857 25.7391 38.1369 25.7333 37.7048C25.7257 37.0994 25.7193 36.4934 25.7142 35.8867L26.0966 36.0779L27.0907 36.5922L27.5514 36.6705L32.8814 37.5767L38.8308 38.59L39.0105 44.7076L39.0698 46.7073L39.0985 47.6785V47.7397H39.0966Z" fill="#EA937E"/>
<path d="M54.6946 54.0831C41.9148 63.9232 24.0894 63.8445 11.397 53.892L20.6996 49.5312C21.1426 49.323 21.5678 49.0787 21.9709 48.8009C22.0933 48.7168 22.2157 48.6289 22.3323 48.5371C26.8345 51.7412 32.9789 53.762 38.2936 51.3703C39.5592 50.7968 40.7215 49.8715 41.4098 48.6824L54.6946 54.0831Z" fill="#212121"/>
<path d="M51.2726 15.7944C51.2554 15.9072 51.2344 16.0181 51.2095 16.1289C51.0769 16.6973 50.8638 17.2439 50.5767 17.752L50.5614 17.7788C50.4525 17.97 50.3358 18.1611 50.2097 18.3523C49.8749 18.8431 49.5097 19.3124 49.1161 19.7575L48.881 20.0194C48.7223 20.1972 48.5617 20.3712 48.4011 20.5432C49.2519 20.352 50.0758 21.1454 50.2269 22.0019C50.3779 22.8584 50.0357 23.7225 49.6132 24.4872C48.8733 25.8407 47.8066 26.7411 46.8679 27.9169C46.1644 28.7925 45.7744 29.8286 45.0078 30.666L44.9504 30.7291C42.9258 32.855 39.7294 33.352 37.0682 34.2601C36.1123 34.5889 25.7467 37.5331 25.7467 38.1754C25.7467 38.0359 24.7316 37.0284 23.4526 35.8029C18.8644 31.446 17.356 24.7147 20.086 18.9412C23.0205 12.7279 29.685 8.29453 36.032 6.16483C38.0164 5.49953 40.2685 5.05218 42.1497 5.97365C44.0308 6.89512 44.9676 9.75321 43.4076 11.1488C44.3888 10.4064 45.6092 10.0518 46.8354 10.1528C47.968 10.2237 49.0361 10.7041 49.8407 11.5044C50.4781 12.1447 50.9362 12.941 51.1694 13.8138C51.3422 14.4595 51.3774 15.1343 51.2726 15.7944Z" fill="#845161"/>
<path d="M51.2726 15.7953C51.2554 15.9081 51.2344 16.019 51.2095 16.1299C51.1923 16.1624 51.1751 16.1968 51.1579 16.235C50.9419 16.7283 50.8425 17.2597 50.5844 17.753L50.5691 17.7797C50.4601 17.9709 50.3435 18.1621 50.2173 18.3533C49.8858 18.8464 49.5204 19.3159 49.1238 19.7584L48.881 20.0203C48.7223 20.1981 48.5617 20.3721 48.4012 20.5441C49.2519 20.353 50.0759 21.1464 50.2269 22.0028C50.3779 22.8593 50.0357 23.7234 49.6132 24.4881C48.8734 25.8416 47.8066 26.7421 46.8679 27.9178C46.1644 28.7934 45.7744 29.8296 45.0078 30.6669C44.1177 29.6085 43.551 28.3164 43.3751 26.9447C43.0616 24.4097 43.2528 21.6472 43.1667 19.0816C43.1132 17.4681 42.5932 17.1699 43.5606 15.8641C44.3384 14.9045 45.2382 14.0503 46.237 13.3234C47.017 12.8091 48.0207 12.7289 48.9517 12.8608C49.763 12.9717 50.5285 13.3022 51.1656 13.8166C51.3394 14.4614 51.3759 15.1355 51.2726 15.7953Z" fill="#69303A"/>
<ellipse cx="23.8331" cy="30.5332" rx="3.25" ry="3.25" fill="#FEBEB5"/>
<ellipse cx="24.8635" cy="30.5347" rx="2.90971" ry="2.90971" fill="#EA937E"/>
<path d="M24.9074 27.4757L25.7486 38.3727L38.4504 45.7942C40.2708 46.4732 42.3094 45.6614 43.1648 43.9168C44.9924 40.1736 47.9251 34.2624 47.5389 32.0639C46.9654 28.8139 45.436 27.6668 45.436 27.6668C45.6488 26.3923 45.8604 25.1217 46.0707 23.8548C46.3115 22.4191 46.6193 20.9202 46.2618 19.4768C45.8546 17.8213 44.6043 17.1158 43.5758 15.8789C40.8687 19.366 36.4182 21.337 32.5315 23.3348C30.528 24.3748 24.9074 27.4757 24.9074 27.4757Z" fill="#FEBEB5"/>
<path d="M34.2981 27.0547C35.4643 27.0547 35.4643 28.8479 34.2981 28.8575H34.2446C33.0784 28.8575 33.0784 27.0642 34.2446 27.0547H34.2981Z" fill="#00214E"/>
<path d="M43.8798 26.7891C44.9638 26.7986 44.9638 28.4523 43.8798 28.4619H43.832C42.75 28.4619 42.75 26.7986 43.832 26.7891H43.8798Z" fill="#00214E"/>
<path d="M39.1558 26.5371C39.1406 26.604 41.71 33.4443 41.71 33.4443L38.2803 33.6106" stroke="#00214E" stroke-width="0.433333"/>
<path d="M31.0346 25.2147C32.8045 24.8492 34.6248 24.7981 36.4124 25.0636" stroke="#00214E" stroke-width="0.433333"/>
<path d="M42.3236 25.2346C43.4163 24.9811 44.5424 24.903 45.6596 25.0033" stroke="#00214E" stroke-width="0.433333"/>
<path d="M34.7665 35.5238C34.8189 35.4398 34.9042 35.3816 35.0016 35.3634C35.099 35.3453 35.1996 35.3688 35.2788 35.4282C35.6765 35.7074 36.4029 36.3 37.4353 36.5046C38.8423 36.7856 40.062 36.2216 40.3545 36.5849C40.519 36.7894 40.3182 37.038 39.934 37.3496C39.1205 37.9574 38.0964 38.2117 37.0931 38.055C35.7395 37.8007 34.7225 36.2331 34.7225 35.6768C34.7239 35.6229 34.7391 35.5703 34.7665 35.5238Z" fill="#FEFEFE"/>
</svg>
