<svg width="101" height="130" viewBox="0 0 101 130" fill="none" xmlns="http://www.w3.org/2000/svg">
<g id="Artboard 62">
<path id="Path" d="M100.065 112.371C70.5728 135.078 29.4371 134.897 0.146973 111.929L21.6146 101.866C22.637 101.386 23.6182 100.822 24.5484 100.181C24.8308 99.9867 25.1131 99.7838 25.3823 99.572C27.7187 97.7843 29.6419 95.5135 31.0205 92.9147C32.0628 90.9178 32.7551 88.7571 33.0676 86.5264C33.283 85.079 33.3921 83.6177 33.394 82.1544C33.394 80.6279 33.3543 79.1014 33.3014 77.575C33.2705 76.5779 33.244 75.5764 33.2308 74.5794C33.2132 73.1823 33.1984 71.7838 33.1867 70.3838L34.069 70.825L36.3631 72.0117L37.4264 72.1926L49.7264 74.2838L63.4558 76.622L63.8705 90.7397L64.0073 95.3544L64.0734 97.5956V97.7323L64.5146 97.9176L69.3984 99.9029L100.065 112.371Z" fill="#F2A196"/>
<path id="Path_2" d="M64.0689 97.7318C62.5526 97.9927 60.9925 97.7511 59.6262 97.0436L33.3012 75.5274C33.2703 74.5304 33.2439 75.5716 33.2306 74.5745C33.213 73.1774 33.1983 71.7789 33.1865 70.3789L34.0689 70.8201L36.363 72.0068L37.4262 72.1877L49.7262 74.2789L63.4556 76.6171L63.8703 90.7348L64.0071 95.3495L64.0733 97.5907V97.7318H64.0689Z" fill="#E88870"/>
<path id="Path_3" d="M100.065 112.371C70.5728 135.079 29.4371 134.897 0.146973 111.93L21.6146 101.866C22.637 101.386 23.6182 100.822 24.5484 100.181C24.8308 99.987 25.1131 99.784 25.3823 99.5723C35.772 106.966 49.9514 111.63 62.2161 106.111C65.1367 104.787 67.819 102.652 69.4073 99.9076L100.065 112.371Z" fill="url(#paint0_linear_622_186)"/>
<path id="Path_4" d="M92.1674 24.0115C92.1277 24.2718 92.0792 24.5277 92.0218 24.7836C91.7158 26.0952 91.2241 27.3565 90.5615 28.5292L90.5262 28.5909C90.2748 29.0321 90.0057 29.4733 89.7145 29.9145C88.9419 31.0471 88.0991 32.1301 87.191 33.1571L86.6483 33.7615C86.2821 34.1718 85.9115 34.5733 85.541 34.9704C87.5042 34.5292 89.4057 36.3601 89.7542 38.3365C90.1027 40.313 89.313 42.3071 88.338 44.0718C86.6307 47.1954 84.1689 49.2733 82.0027 51.9865C80.3792 54.0071 79.4792 56.3983 77.7101 58.3307L77.5777 58.4762C72.9057 63.3821 65.5292 64.5292 59.388 66.6248C57.1821 67.3836 33.2615 74.1777 33.2615 75.6601C33.2615 75.338 30.9189 73.013 27.9674 70.1851C17.3792 60.1306 13.8983 44.5968 20.1983 31.2733C26.9704 16.9351 42.3498 6.70418 56.9968 1.78947C61.5762 0.254179 66.7733 -0.778174 71.1145 1.3483C75.4557 3.47477 77.6174 10.0704 74.0174 13.2909C76.2817 11.5778 79.098 10.7595 81.9277 10.9924C84.5414 11.1562 87.0063 12.2647 88.863 14.1115C90.3338 15.5891 91.3911 17.4268 91.9292 19.4409C92.3281 20.9309 92.4093 22.4881 92.1674 24.0115Z" fill="#845161"/>
<path id="Path_5" d="M92.1675 24.0118C92.1278 24.2721 92.0792 24.528 92.0219 24.7839C91.9822 24.8589 91.9425 24.9383 91.9028 25.0265C91.4042 26.1648 91.1748 27.3912 90.5792 28.5295L90.5439 28.5912C90.2925 29.0324 90.0234 29.4736 89.7322 29.9148C88.9671 31.0528 88.1239 32.1363 87.2087 33.1574L86.6484 33.7618C86.2822 34.1721 85.9116 34.5736 85.541 34.9706C87.5042 34.5295 89.4057 36.3603 89.7542 38.3368C90.1028 40.3133 89.3131 42.3074 88.3381 44.0721C86.6307 47.1956 84.1689 49.2736 82.0028 51.9868C80.3792 54.0074 79.4792 56.3986 77.7101 58.3309C75.6562 55.8885 74.3483 52.9066 73.9425 49.7412C73.2189 43.8912 73.6601 37.5162 73.4616 31.5956C73.3381 27.8721 72.1381 27.1839 74.3704 24.1706C76.1655 21.956 78.2419 19.9849 80.5469 18.3074C82.3469 17.1206 84.6631 16.9354 86.8116 17.2398C88.6837 17.4958 90.4503 18.2585 91.9204 19.4456C92.3216 20.9336 92.4058 22.4893 92.1675 24.0118Z" fill="#69303A"/>
<ellipse id="Oval" cx="28.8457" cy="58.0264" rx="7.5" ry="7.5" fill="#F2A196"/>
<ellipse id="Oval_2" cx="31.2235" cy="58.0262" rx="6.71471" ry="6.7147" fill="#E88870"/>
<path id="Path_6" d="M31.3247 50.9678L33.2659 76.1149L62.5776 93.2413C66.7786 94.8082 71.4832 92.9348 73.4571 88.909C77.6747 80.2708 84.4423 66.6296 83.5512 61.5561C82.2276 54.0561 78.6982 51.409 78.6982 51.409C79.1894 48.4678 79.6776 45.5355 80.1629 42.6119C80.7188 39.2987 81.4291 35.8399 80.6041 32.509C79.6644 28.6884 76.7791 27.0605 74.4056 24.2061C68.1585 32.2531 57.8879 36.8016 48.9188 41.4119C44.2953 43.8119 31.3247 50.9678 31.3247 50.9678Z" fill="#F2A196"/>
<path id="Path_7" d="M52.9954 49.9971C55.6866 49.9971 55.6866 54.1353 52.9954 54.1574H52.8719C50.1807 54.1574 50.1807 50.0191 52.8719 49.9971H52.9954Z" fill="#00214E"/>
<path id="Path_8" d="M75.1071 49.3838C77.6086 49.4058 77.6086 53.222 75.1071 53.2441H74.9968C72.4998 53.2441 72.4998 49.4058 74.9968 49.3838H75.1071Z" fill="#00214E"/>
<path id="Path_9" d="M64.2056 48.8008C64.1704 48.9552 70.0998 64.7405 70.0998 64.7405L62.1851 65.1243" stroke="#00214E"/>
<path id="Path_10" d="M45.4648 45.748C49.5491 44.9047 53.75 44.7867 57.8751 45.3994" stroke="#00214E"/>
<path id="Path_11" d="M71.5161 45.7965C74.0378 45.2116 76.6364 45.0314 79.2146 45.2627" stroke="#00214E"/>
<path id="Path_12" d="M54.0766 69.5413C54.1976 69.3473 54.3945 69.213 54.6193 69.1711C54.844 69.1291 55.0761 69.1834 55.2589 69.3207C56.1766 69.9648 57.853 71.3324 60.2354 71.8045C63.4825 72.453 66.2972 71.1516 66.9722 71.9898C67.3516 72.4618 66.8883 73.0354 66.0016 73.7545C64.1243 75.1571 61.761 75.7439 59.4457 75.3824C56.3222 74.7957 53.9751 71.178 53.9751 69.8942C53.9784 69.7698 54.0133 69.6484 54.0766 69.5413Z" fill="white"/>
</g>
<defs>
<linearGradient id="paint0_linear_622_186" x1="0.146973" y1="129.276" x2="100.065" y2="129.276" gradientUnits="userSpaceOnUse">
<stop stop-color="#16243F"/>
<stop offset="1" stop-color="#6878B1"/>
</linearGradient>
</defs>
</svg>
