<svg width="101" height="122" viewBox="0 0 101 122" fill="none" xmlns="http://www.w3.org/2000/svg">
<path d="M88.6071 72.0577C88.6071 72.0577 6.84831 68.3386 5.99242 68.3033C3.78654 65.321 6.17772 58.5533 7.89389 55.9239C10.8674 51.371 16.241 48.4239 18.0145 43.2798C20.0571 37.346 16.638 32.6651 16.1042 27.0533C15.6189 21.7283 17.7674 16.2798 21.288 12.3092C28.413 4.36804 40.2321 0.432747 51.6454 0.520983C57.6012 0.560688 63.4424 1.69892 68.4454 3.91804C69.0542 4.18716 69.6454 4.46951 70.2101 4.76951C70.6512 5.00334 71.0924 5.25039 71.5336 5.51069C76.4882 8.46464 80.5864 12.6602 83.4233 17.6827C86.913 23.7886 87.7424 29.4489 85.6998 36.2122C84.3762 40.5445 82.7307 45.0357 83.5512 49.4475C84.4336 54.3225 88.2012 58.271 89.1895 63.1239C89.8204 66.1063 89.3571 69.1592 88.6071 72.0577Z" fill="#F2D4CF"/>
<path d="M100.065 104.405C70.5728 127.113 29.4371 126.931 0.146973 103.964L21.6146 93.9003C22.637 93.4197 23.6182 92.8561 24.5484 92.215C24.8308 92.0209 25.1131 91.818 25.3823 91.6062C27.7187 89.8185 29.6419 87.5477 31.0205 84.9489C32.0628 82.952 32.7551 80.7913 33.0676 78.5606C33.283 77.1132 33.3921 75.6519 33.394 74.1886C33.394 71.665 33.2573 69.1415 33.2308 66.6136C33.2131 65.2136 33.1984 63.815 33.1867 62.418L34.069 62.8591L36.3631 64.0459L37.4264 64.2268L49.7264 66.318L63.4558 68.6562L63.8705 82.7739L64.0073 87.3886L64.0734 89.6297V89.7753L69.4117 91.9459L100.065 104.405Z" fill="#F2A196"/>
<path d="M64.0205 88.7162C62.5042 88.9771 60.9441 88.7354 59.5778 88.028L33.2661 66.5074C33.2352 65.5103 33.2087 66.5559 33.1955 65.5589C33.1778 64.1618 33.1631 62.7633 33.1514 61.3633L34.0337 61.8045L36.3278 62.9912L37.3911 63.1721L49.6911 65.2633L63.4205 67.6015L63.8352 81.7192L63.972 86.3339L64.0381 88.575V88.7206L64.0205 88.7162Z" fill="#E88870"/>
<path d="M100.065 104.405C70.5728 127.113 29.4371 126.931 0.146973 103.964L21.6146 93.9006C22.637 93.42 23.6182 92.8563 24.5484 92.2153C24.8308 92.0212 25.1131 91.8182 25.3823 91.6064C35.772 99.0006 49.9514 103.664 62.2161 98.1447C65.1367 96.8212 67.819 94.6859 69.4073 91.9417L100.065 104.405Z" fill="url(#paint0_linear_934_6170)"/>
<circle cx="27.959" cy="50.9307" r="7.5" fill="#F2A196"/>
<circle cx="30.3368" cy="50.8192" r="6.71471" fill="#E88870"/>
<path d="M30.103 43.743L33.2177 68.7798C33.2971 69.4239 38.0707 71.3122 38.631 71.6077C45.028 74.9563 51.6148 79.4122 58.8545 80.5592C61.9427 81.0489 65.1854 81.0004 68.1192 79.8666C73.2898 77.8813 73.9869 73.9901 75.7604 69.4107C77.3573 65.2833 78.6144 61.0324 79.5192 56.7004C80.4016 52.5533 81.1869 46.8489 78.1427 43.293C77.7721 42.8519 77.3751 42.618 77.4501 41.9695C78.0942 36.5342 79.1177 30.3842 76.7486 25.2489C75.2045 21.9092 72.7074 19.0989 69.9677 16.6504C69.9677 16.6504 49.131 32.3122 47.2383 33.4151C42.7251 36.0048 30.103 43.743 30.103 43.743Z" fill="#F2A196"/>
<path d="M64.2233 42.3096C64.2233 42.4375 69.8086 55.4655 69.8086 55.4655L63.1909 56.1052" stroke="#00214E" stroke-width="0.441176"/>
<path d="M43.916 36.8433C47.956 35.8096 52.1463 35.4945 56.2954 35.9124" stroke="#00214E" stroke-width="0.441176"/>
<path d="M70.0073 36.7068C72.5003 36.0084 75.0885 35.7105 77.675 35.8244" stroke="#00214E" stroke-width="0.441176"/>
<path d="M53.6704 60.4285C53.7835 60.2296 53.9745 60.087 54.1973 60.0351C54.4202 59.9832 54.6545 60.0266 54.8439 60.1549C55.788 60.7593 57.5263 62.052 59.9263 62.4182C63.1954 62.9211 65.9572 61.5005 66.663 62.3079C67.0645 62.7491 66.6277 63.3579 65.7807 64.1343C63.9655 65.621 61.6269 66.3114 59.2954 66.0491C56.1498 65.6079 53.6439 62.0785 53.591 60.8079C53.5837 60.6766 53.6111 60.5458 53.6704 60.4285Z" fill="white"/>
<path d="M51.6103 41.7623C54.2971 41.6432 54.5132 45.755 51.8265 45.9138H51.7074C49.0162 46.0329 48.8 41.9211 51.4912 41.7623H51.6103Z" fill="#00214E"/>
<path d="M73.7395 40.3158C76.2321 40.2055 76.435 44.0173 73.938 44.1673H73.8277C71.3306 44.2776 71.1321 40.4658 73.6247 40.3158H73.7395V40.3158Z" fill="#00214E"/>
<defs>
<linearGradient id="paint0_linear_934_6170" x1="0.146973" y1="121.31" x2="100.065" y2="121.31" gradientUnits="userSpaceOnUse">
<stop stop-color="#16243F"/>
<stop offset="1" stop-color="#6878B1"/>
</linearGradient>
</defs>
</svg>
