<svg width="150" height="151" viewBox="0 0 150 151" fill="none" xmlns="http://www.w3.org/2000/svg">
<path d="M113.607 86.8507C113.607 86.8507 31.8483 83.1316 30.9924 83.0963C28.7865 80.114 31.1777 73.3463 32.8939 70.7169C35.8674 66.164 41.241 63.2169 43.0145 58.0728C45.0571 52.139 41.638 47.4581 41.1042 41.8463C40.6189 36.5213 42.7674 31.0728 46.288 27.1022C53.413 19.161 65.2321 15.2257 76.6454 15.314C82.6012 15.3537 88.4424 16.4919 93.4454 18.711C94.0542 18.9801 94.6454 19.2625 95.2101 19.5625C95.6512 19.7963 96.0924 20.0434 96.5336 20.3037C101.488 23.2576 105.586 27.4531 108.423 32.4757C111.913 38.5816 112.742 44.2419 110.7 51.0051C109.376 55.3375 107.731 59.8287 108.551 64.2404C109.434 69.1154 113.201 73.064 114.189 77.9169C114.82 80.8992 114.357 83.9522 113.607 86.8507Z" fill="#F2D4CF"/>
<path d="M125.065 119.198C95.5728 141.906 54.4371 141.724 25.147 118.757L46.6146 108.693C47.637 108.213 48.6182 107.649 49.5484 107.008C49.8308 106.814 50.1131 106.611 50.3823 106.399C52.7187 104.611 54.6419 102.341 56.0205 99.7418C57.0628 97.745 57.7551 95.5843 58.0676 93.3536C58.283 91.9062 58.3921 90.4449 58.394 88.9815C58.394 86.458 58.2573 83.9345 58.2308 81.4065C58.2132 80.0065 58.1984 78.608 58.1867 77.2109L59.069 77.6521L61.3631 78.8389L62.4264 79.0198L74.7264 81.1109L88.4558 83.4492L88.8705 97.5668L89.0073 102.182L89.0734 104.423V104.568L94.4117 106.739L125.065 119.198Z" fill="#F2A196"/>
<path d="M89.0205 103.509C87.5042 103.77 85.9441 103.528 84.5778 102.821L58.2661 81.3004C58.2352 80.3033 58.2087 81.3489 58.1955 80.3518C58.1778 78.9548 58.1631 77.5563 58.1514 76.1562L59.0337 76.5974L61.3278 77.7842L62.3911 77.9651L74.6911 80.0563L88.4205 82.3945L88.8352 96.5121L88.972 101.127L89.0381 103.368V103.514L89.0205 103.509Z" fill="#E88870"/>
<path d="M125.065 119.198C95.5728 141.906 54.4371 141.724 25.147 118.757L46.6146 108.694C47.637 108.213 48.6182 107.649 49.5484 107.008C49.8308 106.814 50.1131 106.611 50.3823 106.399C60.772 113.794 74.9514 118.457 87.2161 112.938C90.1367 111.614 92.819 109.479 94.4073 106.735L125.065 119.198Z" fill="url(#paint0_linear_750_5851)"/>
<circle cx="52.959" cy="65.7236" r="7.5" fill="#F2A196"/>
<circle cx="55.3368" cy="65.6122" r="6.71471" fill="#E88870"/>
<path d="M55.103 58.536L58.2177 83.5728C58.2971 84.2169 63.0707 86.1051 63.631 86.4007C70.028 89.7492 76.6148 94.2051 83.8545 95.3522C86.9427 95.8419 90.1854 95.7934 93.1192 94.6595C98.2898 92.6742 98.9869 88.7831 100.76 84.2036C102.357 80.0763 103.614 75.8254 104.519 71.4934C105.402 67.3463 106.187 61.6419 103.143 58.086C102.772 57.6448 102.375 57.411 102.45 56.7625C103.094 51.3272 104.118 45.1772 101.749 40.0419C100.204 36.7022 97.7074 33.8919 94.9677 31.4434C94.9677 31.4434 74.131 47.1051 72.2383 48.2081C67.7251 50.7978 55.103 58.536 55.103 58.536Z" fill="#F2A196"/>
<path d="M89.2233 57.1025C89.2233 57.2305 94.8086 70.2584 94.8086 70.2584L88.1909 70.8981" stroke="#00214E" stroke-width="0.441176"/>
<path d="M68.916 51.6363C72.956 50.6026 77.1463 50.2875 81.2954 50.7054" stroke="#00214E" stroke-width="0.441176"/>
<path d="M95.0073 51.4998C97.5003 50.8013 100.088 50.5035 102.675 50.6174" stroke="#00214E" stroke-width="0.441176"/>
<path d="M78.6704 75.2214C78.7835 75.0226 78.9745 74.88 79.1973 74.8281C79.4202 74.7761 79.6545 74.8196 79.8439 74.9479C80.788 75.5523 82.5263 76.845 84.9263 77.2111C88.1954 77.7141 90.9572 76.2935 91.663 77.1008C92.0645 77.542 91.6277 78.1508 90.7807 78.9273C88.9655 80.4139 86.6269 81.1044 84.2954 80.842C81.1498 80.4008 78.6439 76.8714 78.591 75.6008C78.5837 75.4696 78.6111 75.3388 78.6704 75.2214Z" fill="white"/>
<path d="M76.6103 56.5553C79.2971 56.4362 79.5132 60.5479 76.8265 60.7067H76.7074C74.0162 60.8259 73.8 56.7141 76.4912 56.5553H76.6103Z" fill="#00214E"/>
<path d="M98.7399 55.1088C101.233 54.9985 101.436 58.8103 98.9385 58.9603H98.8282C96.3311 59.0706 96.1326 55.2588 98.6252 55.1088H98.7399Z" fill="#00214E"/>
<defs>
<linearGradient id="paint0_linear_750_5851" x1="25.147" y1="136.103" x2="125.065" y2="136.103" gradientUnits="userSpaceOnUse">
<stop stop-color="#16243F"/>
<stop offset="1" stop-color="#6878B1"/>
</linearGradient>
</defs>
</svg>
