<svg width="101" height="121" viewBox="0 0 101 121" fill="none" xmlns="http://www.w3.org/2000/svg">
<g id="Artboard 74">
<path id="Shape" fill-rule="evenodd" clip-rule="evenodd" d="M67.2676 6.23144C80.4941 14.8609 83.1059 30.9197 83.2867 45.5623C83.3631 51.7528 83.3048 57.9162 83.2465 64.0716C83.1331 76.0467 83.02 87.9911 83.9 100.043C83.8382 99.1829 69.8926 97.1138 68.3 97.0432C64.9515 96.8984 61.4883 97.2129 58.064 97.5238C56.3766 97.6771 54.6986 97.8294 53.0485 97.9256C50.1705 98.1055 47.2283 98.1777 44.2699 98.2502C38.5982 98.3893 32.8671 98.5298 27.4162 99.4344C26.3592 99.6103 25.3161 99.7884 24.2816 99.965C18.8045 100.9 13.5669 101.794 7.77057 102.117C7.31238 102.196 6.84096 102.104 6.44704 101.856C6.00586 101.495 6.00586 100.842 6.00586 100.273C6.00586 93.4535 6.31133 86.6374 6.61656 79.8265C7.04772 70.2058 7.47841 60.5956 7.04704 51.002C6.66329 42.8403 8.01665 34.69 11.0176 27.0903C13.5816 20.5367 17.6038 14.6527 22.7794 9.88439C24.1845 8.61451 25.6926 7.4635 27.2882 6.44321C39.1426 -1.18032 55.325 -1.55973 67.2676 6.23144ZM28.3735 39.3064L34.5897 43.7182L54.6191 23.6932L52.1 22.1006C49.699 26.1696 46.4042 29.6395 42.4647 32.2476C38.1139 35.2363 33.3723 37.6115 28.3735 39.3064Z" fill="#00214E"/>
<path id="Path" d="M100.065 103.224C70.5728 125.932 29.4371 125.75 0.146973 102.783L21.6146 92.7196C22.2717 92.4089 22.9123 92.0643 23.5337 91.6873L24.0279 91.3784C24.2043 91.2682 24.3764 91.1534 24.5484 91.0343C27.2568 89.1658 29.4765 86.6738 31.0205 83.7681C32.7852 80.4373 33.3676 76.7579 33.394 73.0079C33.394 70.9476 33.3102 68.8873 33.2573 66.8314C33.2573 66.3696 33.2484 65.9064 33.2308 65.4417C33.2132 64.0446 33.1984 62.6461 33.1867 61.2461H33.2176L34.0602 61.6873L36.3543 62.874L49.7176 65.1461L63.447 67.4843L63.7602 78.0726L63.8484 81.1079V81.5799L64.0558 88.5814L69.1161 90.6417L73.0867 92.2476L100.065 103.224Z" fill="#F2A196"/>
<path id="Path_2" d="M63.7603 78.0774C62.8094 78.7286 61.6736 79.0551 60.5221 79.0083C54.0015 78.3069 41.2692 73.1936 33.2662 63.7304C33.2662 63.2686 33.2574 62.8054 33.2397 62.3407V61.251L34.0824 61.6922L36.3765 62.8789L49.7397 65.151L63.4692 67.4892L63.7603 78.0774Z" fill="#E88870"/>
<ellipse id="Oval" cx="22.1572" cy="47.1152" rx="7.5" ry="7.5" fill="#F2A196"/>
<ellipse id="Oval_2" cx="24.8042" cy="46.2334" rx="7.5" ry="7.5" fill="#E88870"/>
<path id="Path_3" d="M73.1308 35.7596C78.3103 53.7067 67.3073 75.4081 60.5397 75.4081C51.275 75.4081 28.775 68.0052 23.6 50.0581C18.425 32.1111 25.325 14.3581 39.0014 10.414C52.6779 6.46991 67.9514 17.8081 73.1308 35.7596Z" fill="#F2A196"/>
<path id="Path_4" d="M47.5205 57.5625C49.6393 59.931 52.5457 61.4501 55.6999 61.8375" stroke="#00214E"/>
<path id="Path_5" d="M56.6178 37.6475C56.5957 37.7357 58.731 41.4239 59.8428 45.4078C60.359 47.5388 60.5992 49.7273 60.5575 51.9195H54.5972" stroke="#00214E"/>
<path id="Path_6" d="M62.0928 33.8934C65.2097 32.3055 68.8144 31.9648 72.1737 32.9404" stroke="#00214E"/>
<path id="Path_7" d="M35.9971 35.6489C40.2954 33.4596 45.3454 33.2979 49.775 35.2077" stroke="#00214E"/>
<path id="Path_8" d="M43.7352 39.5576C46.4263 39.5797 46.4263 43.6959 43.7352 43.7135H43.616C40.9249 43.7135 40.9249 39.5797 43.616 39.5576H43.7352Z" fill="#00214E"/>
<path id="Path_9" d="M65.8516 38.9443C68.3487 38.9443 68.3487 42.7826 65.8516 42.8002H65.7413C63.2399 42.8002 63.2399 38.962 65.7413 38.9443H65.8516Z" fill="#00214E"/>
<path id="Path_10" d="M57.0588 5.7019C56.8536 7.77953 56.5192 9.84235 56.0574 11.8784C55.2681 15.4712 53.9288 18.9207 52.0868 22.1048C49.6858 26.1739 46.391 29.6438 42.4515 32.2519C38.1008 35.2406 33.3591 37.6158 28.3603 39.3107C24.4015 40.6555 20.3534 41.7214 16.2456 42.5004C16.3824 39.1343 16.2456 34.9696 16.6603 31.0607C16.9691 28.2548 17.5868 25.5769 18.8309 23.4196C22.2065 17.7113 27.1305 13.0763 33.0324 10.0519L33.0853 10.0254C39.6103 6.66808 49.7177 3.35485 57.0588 5.7019Z" fill="#00214E"/>
<path id="Path_11" d="M100.065 103.224C70.5728 125.932 29.4371 125.75 0.146973 102.783L21.6146 92.7196C22.637 92.239 23.6182 91.6753 24.5484 91.0343C24.8308 90.8402 25.1131 90.6372 25.3823 90.4255C27.7187 88.6378 29.6419 86.367 31.0205 83.7681C32.0628 81.7713 32.7551 79.6106 33.0676 77.3799C33.3791 77.6818 33.706 77.9675 34.047 78.2358C36.7518 80.2376 39.6876 81.907 42.7911 83.2078C44.2977 83.8363 45.8383 84.3798 47.4058 84.8358C52.1282 86.2128 57.0587 86.7342 61.9646 86.3755C62.644 86.3225 63.3279 86.2564 64.0073 86.2078L64.0734 88.449V88.5946L69.4117 90.7652L100.065 103.224Z" fill="#F2D4CF"/>
<path id="Path_12" d="M52.0779 22.1228C49.6769 26.1919 46.3821 29.6617 42.4426 32.2698C38.0918 35.2585 33.3502 37.6338 28.3514 39.3287L16.6514 31.0787L11.0176 27.1081C13.5815 20.5545 17.6038 14.6705 22.7793 9.90218C24.1838 8.6262 25.6919 7.46927 27.2882 6.44336L33.0235 10.0698L52.0779 22.1228Z" fill="url(#paint0_linear_622_287)"/>
</g>
<defs>
<linearGradient id="paint0_linear_622_287" x1="38.5566" y1="51.7079" x2="56.2958" y2="14.8995" gradientUnits="userSpaceOnUse">
<stop offset="0.29" stop-color="#00214E"/>
<stop offset="0.51" stop-color="#6878B1"/>
<stop offset="0.79" stop-color="#00214E"/>
</linearGradient>
</defs>
</svg>
