<svg width="150" height="151" viewBox="0 0 150 151" fill="none" xmlns="http://www.w3.org/2000/svg">
<path fill-rule="evenodd" clip-rule="evenodd" d="M92.2676 21.4307C105.494 30.0601 108.106 46.1189 108.287 60.7615C108.363 66.952 108.305 73.1154 108.246 79.2708C108.133 91.2459 108.02 103.19 108.9 115.242C108.838 114.382 94.8926 112.313 93.3 112.242C89.9515 112.098 86.4883 112.412 83.064 112.723C81.3766 112.876 79.6986 113.029 78.0485 113.125C75.1705 113.305 72.2283 113.377 69.2699 113.449C63.5982 113.588 57.8671 113.729 52.4162 114.634C51.3592 114.81 50.3161 114.988 49.2816 115.164C43.8045 116.099 38.5669 116.993 32.7706 117.316C32.3124 117.396 31.841 117.303 31.447 117.056C31.0059 116.694 31.0059 116.041 31.0059 115.472C31.0059 108.653 31.3113 101.837 31.6166 95.0257C32.0477 85.405 32.4784 75.7948 32.047 66.2013C31.6633 58.0395 33.0167 49.8892 36.0176 42.2895C38.5816 35.7359 42.6038 29.8519 47.7794 25.0836C49.1845 23.8137 50.6926 22.6627 52.2882 21.6424C64.1426 14.0189 80.325 13.6395 92.2676 21.4307ZM53.3735 54.5057L59.5897 58.9174L79.6191 38.8924L77.1 37.2998C74.699 41.3689 71.4042 44.8387 67.4647 47.4468C63.1139 50.4355 58.3723 52.8108 53.3735 54.5057Z" fill="#00214E"/>
<path d="M125.065 118.423C95.5728 141.131 54.4371 140.95 25.147 117.982L46.6146 107.919C47.2717 107.608 47.9123 107.264 48.5337 106.886L49.0279 106.578C49.2043 106.467 49.3764 106.353 49.5484 106.234C52.2568 104.365 54.4765 101.873 56.0205 98.9674C57.7852 95.6365 58.3676 91.9571 58.394 88.2071C58.394 86.1468 58.3102 84.0865 58.2573 82.0306C58.2573 81.5688 58.2484 81.1056 58.2308 80.6409C58.2132 79.2438 58.1984 77.8453 58.1867 76.4453H58.2176L59.0602 76.8865L61.3543 78.0733L74.7176 80.3453L88.447 82.6835L88.7602 93.2718L88.8484 96.3071V96.7791L89.0558 103.781L94.1161 105.841L98.0867 107.447L125.065 118.423Z" fill="#F2D4CF"/>
<path d="M88.7603 93.2767C87.8094 93.9278 86.6736 94.2543 85.5221 94.2075C79.0015 93.5061 66.2692 88.3928 58.2662 78.9296C58.2662 78.4678 58.2574 78.0046 58.2397 77.5399V76.4502L59.0824 76.8914L61.3765 78.0781L74.7397 80.3502L88.4692 82.6884L88.7603 93.2767Z" fill="#DAAEA8"/>
<ellipse cx="47.1572" cy="62.3145" rx="7.5" ry="7.5" fill="#F2D4CF"/>
<ellipse cx="49.8042" cy="61.4326" rx="7.5" ry="7.5" fill="#DAAEA8"/>
<path d="M98.1308 50.9588C103.31 68.9059 92.3073 90.6074 85.5397 90.6074C76.275 90.6074 53.775 83.2044 48.6 65.2574C43.425 47.3103 50.325 29.5574 64.0014 25.6132C77.6779 21.6691 92.9514 33.0074 98.1308 50.9588Z" fill="#F2D4CF"/>
<path d="M72.5205 72.7617C74.6393 75.1303 77.5457 76.6493 80.6999 77.0367" stroke="#00214E"/>
<path d="M81.6178 52.8467C81.5957 52.9349 83.731 56.6231 84.8428 60.607C85.359 62.738 85.5992 64.9265 85.5575 67.1187H79.5972" stroke="#00214E"/>
<path d="M87.0928 49.0926C90.2097 47.5048 93.8144 47.164 97.1737 48.1397" stroke="#00214E"/>
<path d="M60.9971 50.8481C65.2954 48.6588 70.3454 48.4971 74.775 50.407" stroke="#00214E"/>
<path d="M68.7352 54.7568C71.4263 54.7789 71.4263 58.8951 68.7352 58.9127H68.616C65.9249 58.9127 65.9249 54.7789 68.616 54.7568H68.7352Z" fill="#00214E"/>
<path d="M90.8516 54.1436C93.3487 54.1436 93.3487 57.9818 90.8516 57.9994H90.7413C88.2399 57.9994 88.2399 54.1612 90.7413 54.1436H90.8516Z" fill="#00214E"/>
<path d="M82.0588 20.9011C81.8536 22.9788 81.5192 25.0416 81.0574 27.0776C80.2681 30.6705 78.9288 34.1199 77.0868 37.3041C74.6858 41.3731 71.391 44.843 67.4515 47.4511C63.1008 50.4398 58.3591 52.815 53.3603 54.5099C49.4015 55.8547 45.3534 56.9206 41.2456 57.6997C41.3824 54.3335 41.2456 50.1688 41.6603 46.2599C41.9691 43.4541 42.5868 40.7761 43.8309 38.6188C47.2065 32.9105 52.1305 28.2756 58.0324 25.2511L58.0853 25.2247C64.6103 21.8673 74.7177 18.5541 82.0588 20.9011Z" fill="#00214E"/>
<path d="M125.065 118.423C95.5728 141.131 54.4371 140.95 25.147 117.982L46.6146 107.919C47.637 107.438 48.6182 106.875 49.5484 106.234C49.8308 106.039 50.1131 105.836 50.3823 105.625C52.7187 103.837 54.6419 101.566 56.0205 98.9673C57.0628 96.9705 57.7551 94.8098 58.0676 92.5791C58.3791 92.881 58.706 93.1667 59.047 93.435C61.7518 95.4369 64.6876 97.1062 67.7911 98.407C69.2977 99.0355 70.8383 99.579 72.4058 100.035C77.1282 101.412 82.0587 101.933 86.9646 101.575C87.644 101.522 88.3279 101.456 89.0073 101.407L89.0734 103.648V103.794L94.4117 105.964L125.065 118.423Z" fill="#7599D0"/>
<path d="M77.0779 37.322C74.6769 41.3911 71.3821 44.8609 67.4426 47.469C63.0918 50.4577 58.3502 52.833 53.3514 54.5279L41.6514 46.2779L36.0176 42.3073C38.5815 35.7537 42.6038 29.8697 47.7793 25.1014C49.1838 23.8254 50.6919 22.6685 52.2882 21.6426L58.0235 25.269L77.0779 37.322Z" fill="url(#paint0_linear_747_7479)"/>
<defs>
<linearGradient id="paint0_linear_747_7479" x1="63.5566" y1="66.9071" x2="81.2958" y2="30.0987" gradientUnits="userSpaceOnUse">
<stop offset="0.29" stop-color="#00214E"/>
<stop offset="0.51" stop-color="#6878B1"/>
<stop offset="0.79" stop-color="#00214E"/>
</linearGradient>
</defs>
</svg>
