<svg width="101" height="121" viewBox="0 0 101 121" fill="none" xmlns="http://www.w3.org/2000/svg">
<path fill-rule="evenodd" clip-rule="evenodd" d="M67.2676 6.63769C80.4941 15.2671 83.1059 31.3259 83.2867 45.9686C83.3631 52.159 83.3048 58.3225 83.2465 64.4778C83.1331 76.4529 83.02 88.3973 83.9 100.449C83.8382 99.5892 69.8926 97.5201 68.3 97.4495C64.9515 97.3046 61.4883 97.6191 58.064 97.9301C56.3766 98.0833 54.6986 98.2357 53.0485 98.3318C50.1705 98.5118 47.2283 98.5839 44.2699 98.6564C38.5982 98.7955 32.8671 98.936 27.4162 99.8406C26.3592 100.017 25.3161 100.195 24.2816 100.371C18.8045 101.306 13.5669 102.2 7.77057 102.523C7.31238 102.603 6.84096 102.51 6.44704 102.263C6.00586 101.901 6.00586 101.248 6.00586 100.679C6.00586 93.8597 6.31133 87.0436 6.61656 80.2327C7.04772 70.6121 7.47841 61.0019 7.04704 51.4083C6.66329 43.2465 8.01665 35.0963 11.0176 27.4965C13.5816 20.9429 17.6038 15.059 22.7794 10.2906C24.1845 9.02076 25.6926 7.86975 27.2882 6.84946C39.1426 -0.774071 55.325 -1.15348 67.2676 6.63769ZM28.3735 39.7127L34.5897 44.1245L54.6191 24.0995L52.1 22.5068C49.699 26.5759 46.4042 30.0457 42.4647 32.6539C38.1139 35.6425 33.3723 38.0178 28.3735 39.7127Z" fill="#00214E"/>
<path d="M100.065 103.63C70.5728 126.338 29.4371 126.157 0.146973 103.189L21.6146 93.1259C22.2717 92.8151 22.9123 92.4706 23.5337 92.0935L24.0279 91.7847C24.2043 91.6744 24.3764 91.5597 24.5484 91.4406C27.2568 89.5721 29.4765 87.0801 31.0205 84.1744C32.7852 80.8435 33.3676 77.1641 33.394 73.4141C33.394 71.3538 33.3102 69.2935 33.2573 67.2376C33.2573 66.7759 33.2484 66.3126 33.2308 65.8479C33.2132 64.4509 33.1984 63.0523 33.1867 61.6523H33.2176L34.0602 62.0935L36.3543 63.2803L49.7176 65.5523L63.447 67.8906L63.7602 78.4788L63.8484 81.5141V81.9862L64.0558 88.9876L69.1161 91.0479L73.0867 92.6538L100.065 103.63Z" fill="#F2D4CF"/>
<path d="M63.7603 78.4837C62.8094 79.1349 61.6736 79.4614 60.5221 79.4146C54.0015 78.7131 41.2692 73.5999 33.2662 64.1366C33.2662 63.6749 33.2574 63.2116 33.2397 62.7469V61.6572L34.0824 62.0984L36.3765 63.2852L49.7397 65.5572L63.4692 67.8955L63.7603 78.4837Z" fill="#DAAEA8"/>
<ellipse cx="22.1572" cy="47.5215" rx="7.5" ry="7.5" fill="#F2D4CF"/>
<ellipse cx="24.8042" cy="46.6396" rx="7.5" ry="7.5" fill="#DAAEA8"/>
<path d="M73.1308 36.1659C78.3103 54.1129 67.3073 75.8144 60.5397 75.8144C51.275 75.8144 28.775 68.4115 23.6 50.4644C18.425 32.5173 25.325 14.7644 39.0014 10.8203C52.6779 6.87616 67.9514 18.2144 73.1308 36.1659Z" fill="#F2D4CF"/>
<path d="M47.5205 57.9688C49.6393 60.3373 52.5457 61.8563 55.6999 62.2438" stroke="#00214E"/>
<path d="M56.6178 38.0537C56.5957 38.1419 58.731 41.8302 59.8428 45.814C60.359 47.945 60.5992 50.1335 60.5575 52.3258H54.5972" stroke="#00214E"/>
<path d="M62.0928 34.2996C65.2097 32.7118 68.8144 32.371 72.1737 33.3467" stroke="#00214E"/>
<path d="M35.9971 36.0552C40.2954 33.8658 45.3454 33.7041 49.775 35.614" stroke="#00214E"/>
<path d="M43.7352 39.9639C46.4263 39.9859 46.4263 44.1021 43.7352 44.1198H43.616C40.9249 44.1198 40.9249 39.9859 43.616 39.9639H43.7352Z" fill="#00214E"/>
<path d="M65.8516 39.3506C68.3487 39.3506 68.3487 43.1888 65.8516 43.2065H65.7413C63.2399 43.2065 63.2399 39.3682 65.7413 39.3506H65.8516Z" fill="#00214E"/>
<path d="M57.0588 6.10815C56.8536 8.18578 56.5192 10.2486 56.0574 12.2846C55.2681 15.8775 53.9288 19.327 52.0868 22.5111C49.6858 26.5802 46.391 30.05 42.4515 32.6582C38.1008 35.6468 33.3591 38.0221 28.3603 39.717C24.4015 41.0618 20.3534 42.1276 16.2456 42.9067C16.3824 39.5405 16.2456 35.3758 16.6603 31.467C16.9691 28.6611 17.5868 25.9832 18.8309 23.8258C22.2065 18.1175 27.1305 13.4826 33.0324 10.4582L33.0853 10.4317C39.6103 7.07433 49.7177 3.7611 57.0588 6.10815Z" fill="#00214E"/>
<path d="M100.065 103.63C70.5728 126.338 29.4371 126.157 0.146973 103.189L21.6146 93.1258C22.637 92.6452 23.6182 92.0816 24.5484 91.4405C24.8308 91.2464 25.1131 91.0435 25.3823 90.8317C27.7187 89.044 29.6419 86.7732 31.0205 84.1744C32.0628 82.1775 32.7551 80.0168 33.0676 77.7861C33.3791 78.088 33.706 78.3737 34.047 78.642C36.7518 80.6439 39.6876 82.3132 42.7911 83.6141C44.2977 84.2425 45.8383 84.786 47.4058 85.242C52.1282 86.619 57.0587 87.1405 61.9646 86.7817C62.644 86.7288 63.3279 86.6626 64.0073 86.6141L64.0734 88.8552V89.0008L69.4117 91.1714L100.065 103.63Z" fill="#7599D0"/>
<path d="M52.0779 22.529C49.6769 26.5981 46.3821 30.0679 42.4426 32.6761C38.0918 35.6647 33.3502 38.04 28.3514 39.7349L16.6514 31.4849L11.0176 27.5143C13.5815 20.9607 17.6038 15.0768 22.7793 10.3084C24.1838 9.03245 25.6919 7.87552 27.2882 6.84961L33.0235 10.4761L52.0779 22.529Z" fill="url(#paint0_linear_934_5738)"/>
<defs>
<linearGradient id="paint0_linear_934_5738" x1="38.5566" y1="52.1141" x2="56.2958" y2="15.3057" gradientUnits="userSpaceOnUse">
<stop offset="0.29" stop-color="#00214E"/>
<stop offset="0.51" stop-color="#6878B1"/>
<stop offset="0.79" stop-color="#00214E"/>
</linearGradient>
</defs>
</svg>
