<svg width="101" height="121" viewBox="0 0 101 121" fill="none" xmlns="http://www.w3.org/2000/svg">
<path fill-rule="evenodd" clip-rule="evenodd" d="M67.2676 6.41504C80.4941 15.0444 83.1059 31.1033 83.2867 45.7459C83.3631 51.9363 83.3048 58.0998 83.2465 64.2551C83.1331 76.2303 83.02 88.1747 83.9 100.227C83.8382 99.3665 69.8926 97.2974 68.3 97.2268C64.9515 97.082 61.4883 97.3965 58.064 97.7074C56.3766 97.8607 54.6986 98.013 53.0485 98.1092C50.1705 98.2891 47.2283 98.3613 44.2699 98.4338C38.5982 98.5728 32.8671 98.7134 27.4162 99.618C26.3592 99.7939 25.3161 99.972 24.2816 100.149C18.8045 101.083 13.5669 101.977 7.77057 102.3C7.31238 102.38 6.84096 102.287 6.44704 102.04C6.00586 101.678 6.00586 101.025 6.00586 100.456C6.00586 93.6371 6.31133 86.821 6.61656 80.0101C7.04772 70.3894 7.47841 60.7792 7.04704 51.1856C6.66329 43.0238 8.01665 34.8736 11.0176 27.2739C13.5816 20.7203 17.6038 14.8363 22.7794 10.068C24.1845 8.7981 25.6926 7.64709 27.2882 6.6268C39.1426 -0.996727 55.325 -1.37614 67.2676 6.41504ZM28.3735 39.49L34.5897 43.9018L54.6191 23.8768L52.1 22.2842C49.699 26.3532 46.4042 29.8231 42.4647 32.4312C38.1139 35.4199 33.3723 37.7951 28.3735 39.49Z" fill="#00214E"/>
<path d="M100.065 103.408C70.5728 126.116 29.4371 125.934 0.146973 102.966L21.6146 92.9032C22.2717 92.5925 22.9123 92.2479 23.5337 91.8709L24.0279 91.562C24.2043 91.4517 24.3764 91.337 24.5484 91.2179C27.2568 89.3494 29.4765 86.8574 31.0205 83.9517C32.7852 80.6209 33.3676 76.9415 33.394 73.1915C33.394 71.1312 33.3102 69.0709 33.2573 67.015C33.2573 66.5532 33.2484 66.09 33.2308 65.6253C33.2131 64.2282 33.1984 62.8297 33.1867 61.4297H33.2176L34.0602 61.8709L36.3543 63.0576L49.7176 65.3297L63.447 67.6679L63.7602 78.2562L63.8484 81.2914V81.7635L64.0558 88.765L69.1161 90.8253L73.0867 92.4312L100.065 103.408Z" fill="#F2A196"/>
<path d="M63.7603 78.2606C62.8094 78.9117 61.6736 79.2382 60.5221 79.1914C54.0015 78.49 41.2692 73.3767 33.2662 63.9135C33.2662 63.4517 33.2574 62.9885 33.2397 62.5238V61.4341L34.0824 61.8753L36.3765 63.062L49.7397 65.3341L63.4692 67.6723L63.7603 78.2606Z" fill="#E88870"/>
<ellipse cx="22.1572" cy="47.2988" rx="7.5" ry="7.5" fill="#F2A196"/>
<ellipse cx="24.8042" cy="46.4165" rx="7.5" ry="7.5" fill="#E88870"/>
<path d="M73.1308 35.9432C78.3103 53.8903 67.3073 75.5917 60.5397 75.5917C51.275 75.5917 28.775 68.1888 23.6 50.2417C18.425 32.2947 25.325 14.5417 39.0014 10.5976C52.6779 6.6535 67.9514 17.9917 73.1308 35.9432Z" fill="#F2A196"/>
<path d="M47.5205 57.7461C49.6393 60.1146 52.5457 61.6337 55.6999 62.0211" stroke="#00214E"/>
<path d="M56.6178 37.8311C56.5957 37.9193 58.731 41.6075 59.8428 45.5913C60.359 47.7223 60.5992 49.9109 60.5575 52.1031H54.5972" stroke="#00214E"/>
<path d="M62.0928 34.077C65.2097 32.4891 68.8144 32.1484 72.1737 33.124" stroke="#00214E"/>
<path d="M35.9971 35.8325C40.2954 33.6432 45.3454 33.4815 49.775 35.3913" stroke="#00214E"/>
<path d="M43.7352 39.7417C46.4263 39.7638 46.4263 43.8799 43.7352 43.8976H43.616C40.9249 43.8976 40.9249 39.7638 43.616 39.7417H43.7352Z" fill="#00214E"/>
<path d="M65.8516 39.1284C68.3487 39.1284 68.3487 42.9667 65.8516 42.9843H65.7413C63.2399 42.9843 63.2399 39.1461 65.7413 39.1284H65.8516Z" fill="#00214E"/>
<path d="M57.0588 5.8855C56.8536 7.96313 56.5192 10.0259 56.0574 12.062C55.2681 15.6548 53.9288 19.1043 52.0868 22.2884C49.6858 26.3575 46.391 29.8274 42.4515 32.4355C38.1008 35.4242 33.3591 37.7994 28.3603 39.4943C24.4015 40.8391 20.3534 41.905 16.2456 42.684C16.3824 39.3179 16.2456 35.1531 16.6603 31.2443C16.9691 28.4384 17.5868 25.7605 18.8309 23.6031C22.2065 17.8949 27.1305 13.2599 33.0324 10.2355L33.0853 10.209C39.6103 6.85167 49.7177 3.53844 57.0588 5.8855Z" fill="#00214E"/>
<path d="M100.065 103.408C70.5728 126.116 29.4371 125.934 0.146973 102.966L21.6146 92.9032C22.637 92.4226 23.6182 91.8589 24.5484 91.2179C24.8308 91.0238 25.1131 90.8208 25.3823 90.6091C27.7187 88.8214 29.6419 86.5506 31.0205 83.9517C32.0628 81.9549 32.7551 79.7942 33.0676 77.5635C33.3791 77.8654 33.706 78.1511 34.047 78.4194C36.7518 80.4212 39.6876 82.0906 42.7911 83.3914C44.2977 84.0199 45.8383 84.5634 47.4058 85.0194C52.1282 86.3964 57.0587 86.9178 61.9646 86.5591C62.644 86.5061 63.3279 86.4399 64.0073 86.3914L64.0734 88.6326V88.7782L69.4117 90.9488L100.065 103.408Z" fill="#F2D4CF"/>
<path d="M52.0779 22.3064C49.6769 26.3754 46.3821 29.8453 42.4426 32.4534C38.0918 35.4421 33.3502 37.8173 28.3514 39.5122L16.6514 31.2622L11.0176 27.2917C13.5815 20.7381 17.6038 14.8541 22.7793 10.0858C24.1838 8.8098 25.6919 7.65287 27.2882 6.62695L33.0235 10.2534L52.0779 22.3064Z" fill="url(#paint0_linear_690_992)"/>
<defs>
<linearGradient id="paint0_linear_690_992" x1="38.5566" y1="51.8915" x2="56.2958" y2="15.083" gradientUnits="userSpaceOnUse">
<stop offset="0.29" stop-color="#00214E"/>
<stop offset="0.51" stop-color="#6878B1"/>
<stop offset="0.79" stop-color="#00214E"/>
</linearGradient>
</defs>
</svg>
