<svg width="150" height="151" viewBox="0 0 150 151" fill="none" xmlns="http://www.w3.org/2000/svg">
<path fill-rule="evenodd" clip-rule="evenodd" d="M92.2676 20.9893C105.494 29.6187 108.106 45.6775 108.287 60.3201C108.363 66.5106 108.305 72.674 108.246 78.8294C108.133 90.8045 108.02 102.749 108.9 114.801C108.838 113.941 94.8926 111.872 93.3 111.801C89.9515 111.656 86.4883 111.971 83.064 112.282C81.3766 112.435 79.6986 112.587 78.0485 112.683C75.1705 112.863 72.2283 112.935 69.2699 113.008C63.5982 113.147 57.8671 113.288 52.4162 114.192C51.3592 114.368 50.3161 114.546 49.2816 114.723C43.8045 115.658 38.5669 116.552 32.7706 116.875C32.3124 116.954 31.841 116.861 31.447 116.614C31.0059 116.252 31.0059 115.6 31.0059 115.03C31.0059 108.211 31.3113 101.395 31.6166 94.5843C32.0477 84.9636 32.4784 75.3534 32.047 65.7598C31.6633 57.5981 33.0167 49.4478 36.0176 41.8481C38.5816 35.2945 42.6038 29.4105 47.7794 24.6422C49.1845 23.3723 50.6926 22.2213 52.2882 21.201C64.1426 13.5775 80.325 13.1981 92.2676 20.9893ZM53.3735 54.0643L59.5897 58.476L79.6191 38.451L77.1 36.8584C74.699 40.9275 71.4042 44.3973 67.4647 47.0054C63.1139 49.9941 58.3723 52.3694 53.3735 54.0643Z" fill="#00214E"/>
<path d="M125.065 117.982C95.5728 140.69 54.4371 140.508 25.147 117.541L46.6146 107.477C47.2717 107.167 47.9123 106.822 48.5337 106.445L49.0279 106.136C49.2043 106.026 49.3764 105.911 49.5484 105.792C52.2568 103.924 54.4765 101.432 56.0205 98.526C57.7852 95.1951 58.3676 91.5157 58.394 87.7657C58.394 85.7054 58.3102 83.6451 58.2573 81.5892C58.2573 81.1274 58.2484 80.6642 58.2308 80.1995C58.2132 78.8024 58.1984 77.4039 58.1867 76.0039H58.2176L59.0602 76.4451L61.3543 77.6318L74.7176 79.9039L88.447 82.2421L88.7602 92.8304L88.8484 95.8657V96.3377L89.0558 103.339L94.1161 105.399L98.0867 107.005L125.065 117.982Z" fill="#F2A196"/>
<path d="M88.7603 92.8348C87.8094 93.4859 86.6736 93.8124 85.5221 93.7657C79.0015 93.0642 66.2692 87.9509 58.2662 78.4877C58.2662 78.0259 58.2574 77.5627 58.2397 77.098V76.0083L59.0824 76.4495L61.3765 77.6362L74.7397 79.9083L88.4692 82.2465L88.7603 92.8348Z" fill="#E88870"/>
<ellipse cx="47.1572" cy="61.873" rx="7.5" ry="7.5" fill="#F2A196"/>
<ellipse cx="49.8042" cy="60.9907" rx="7.5" ry="7.5" fill="#E88870"/>
<path d="M98.1308 50.5174C103.31 68.4645 92.3073 90.166 85.5397 90.166C76.275 90.166 53.775 82.763 48.6 64.816C43.425 46.8689 50.325 29.116 64.0014 25.1718C77.6779 21.2277 92.9514 32.566 98.1308 50.5174Z" fill="#F2A196"/>
<path d="M72.5205 72.3203C74.6393 74.6889 77.5457 76.2079 80.6999 76.5953" stroke="#00214E"/>
<path d="M81.6178 52.4053C81.5957 52.4935 83.731 56.1817 84.8428 60.1656C85.359 62.2966 85.5992 64.4851 85.5575 66.6773H79.5972" stroke="#00214E"/>
<path d="M87.0928 48.6512C90.2097 47.0634 93.8144 46.7226 97.1737 47.6983" stroke="#00214E"/>
<path d="M60.9971 50.4067C65.2954 48.2174 70.3454 48.0557 74.775 49.9656" stroke="#00214E"/>
<path d="M68.7352 54.3159C71.4263 54.338 71.4263 58.4542 68.7352 58.4718H68.616C65.9249 58.4718 65.9249 54.338 68.616 54.3159H68.7352Z" fill="#00214E"/>
<path d="M90.8516 53.7026C93.3487 53.7026 93.3487 57.5409 90.8516 57.5585H90.7413C88.2399 57.5585 88.2399 53.7203 90.7413 53.7026H90.8516Z" fill="#00214E"/>
<path d="M82.0588 20.4597C81.8536 22.5373 81.5192 24.6002 81.0574 26.6362C80.2681 30.2291 78.9288 33.6785 77.0868 36.8627C74.6858 40.9317 71.391 44.4016 67.4515 47.0097C63.1008 49.9984 58.3591 52.3736 53.3603 54.0685C49.4015 55.4133 45.3534 56.4792 41.2456 57.2582C41.3824 53.8921 41.2456 49.7274 41.6603 45.8185C41.9691 43.0127 42.5868 40.3347 43.8309 38.1774C47.2065 32.4691 52.1305 27.8342 58.0324 24.8097L58.0853 24.7832C64.6103 21.4259 74.7177 18.1127 82.0588 20.4597Z" fill="#00214E"/>
<path d="M125.065 117.982C95.5728 140.69 54.4371 140.508 25.147 117.541L46.6146 107.477C47.637 106.997 48.6182 106.433 49.5484 105.792C49.8308 105.598 50.1131 105.395 50.3823 105.183C52.7187 103.396 54.6419 101.125 56.0205 98.5259C57.0628 96.5291 57.7551 94.3684 58.0676 92.1377C58.3791 92.4396 58.706 92.7253 59.047 92.9936C61.7518 94.9955 64.6876 96.6648 67.7911 97.9656C69.2977 98.5941 70.8383 99.1376 72.4058 99.5936C77.1282 100.971 82.0587 101.492 86.9646 101.133C87.644 101.08 88.3279 101.014 89.0073 100.966L89.0734 103.207V103.352L94.4117 105.523L125.065 117.982Z" fill="#F2D4CF"/>
<path d="M77.0779 36.8806C74.6769 40.9497 71.3821 44.4195 67.4426 47.0276C63.0918 50.0163 58.3502 52.3916 53.3514 54.0865L41.6514 45.8365L36.0176 41.8659C38.5815 35.3123 42.6038 29.4283 47.7793 24.66C49.1838 23.384 50.6919 22.2271 52.2882 21.2012L58.0235 24.8276L77.0779 36.8806Z" fill="url(#paint0_linear_503_13952)"/>
<defs>
<linearGradient id="paint0_linear_503_13952" x1="63.5566" y1="66.4657" x2="81.2958" y2="29.6573" gradientUnits="userSpaceOnUse">
<stop offset="0.29" stop-color="#00214E"/>
<stop offset="0.51" stop-color="#6878B1"/>
<stop offset="0.79" stop-color="#00214E"/>
</linearGradient>
</defs>
</svg>
