<svg width="150" height="151" viewBox="0 0 150 151" fill="none" xmlns="http://www.w3.org/2000/svg">
<circle cx="70.8351" cy="23.109" r="13.5309" fill="url(#paint0_linear_751_5890)"/>
<path d="M82.5263 96.5387C75.4588 96.4161 68.4102 95.7702 61.4381 94.6064C47.5499 92.2858 33.9528 87.8519 21.6175 81.0181C20.8852 80.6078 20.1528 80.1931 19.4116 79.7696C30.3484 69.3887 38.466 56.8284 45.3263 43.5049C50.2675 33.8917 52.8263 27.5519 63.4984 23.5064C82.0543 16.4784 107.122 23.3122 112.398 44.1887C114.626 53.0122 114.71 62.2372 113.444 71.2152C112.222 79.8975 109.006 96.6181 109.006 96.6181C109.006 96.6181 85.9896 96.6005 82.5263 96.5387Z" fill="url(#paint1_linear_751_5890)"/>
<path d="M130.892 124.773C101.4 147.481 60.2647 147.3 30.9746 124.332L52.4423 114.269C53.0994 113.958 53.7399 113.614 54.3614 113.237L54.8555 112.928C55.032 112.817 55.204 112.703 55.3761 112.584C58.085 110.714 60.3047 108.22 61.8481 105.313C63.6128 101.982 64.1952 98.3028 64.2217 94.5528C64.2217 92.4925 64.1378 90.4322 64.0849 88.3763C64.0849 87.9116 64.0761 87.4484 64.0584 86.9866C64.0408 85.5866 64.0261 84.1881 64.0143 82.791H64.0452L64.8878 83.2322L67.182 84.419L80.5452 86.691L94.2746 89.0293L94.5878 99.6175L94.6761 102.653V103.125L94.8834 110.126L99.9437 112.187L103.914 113.792L130.892 124.773Z" fill="#F2A196"/>
<path d="M94.588 99.6263C93.6371 100.277 92.5013 100.604 91.3498 100.557C84.8248 99.8557 72.0968 94.7425 64.0851 85.2792C64.0851 84.8145 64.0762 84.3513 64.0586 83.8895V82.7998L64.9012 83.241L67.1954 84.4277L80.5586 86.6998L94.288 89.038L94.588 99.6263Z" fill="#E88870"/>
<circle cx="52.981" cy="68.665" r="7.5" fill="#F2A196"/>
<circle cx="55.6279" cy="67.7822" r="7.5" fill="#E88870"/>
<path d="M103.954 57.3092C109.138 75.2563 98.1307 96.9578 91.3631 96.9578C82.0984 96.9578 59.5984 89.5548 54.4234 71.6078C49.2484 53.6607 56.1131 35.9078 69.7896 31.9592C83.466 28.0107 98.7749 39.3754 103.954 57.3092Z" fill="#F2A196"/>
<path d="M76.0897 61.0371C78.7808 61.0592 78.7808 65.1709 76.0897 65.193H75.9661C73.275 65.1709 73.275 61.0592 75.9661 61.0371H76.0853H76.0897Z" fill="#00214E"/>
<path d="M98.2634 59.3428C100.765 59.3648 100.765 63.181 98.2634 63.2031H98.1531C95.656 63.2031 95.656 59.3648 98.1531 59.3428H98.2634Z" fill="#00214E"/>
<circle cx="76.085" cy="63.1499" r="8.38235" stroke="white" stroke-width="0.441176"/>
<circle cx="99.5249" cy="61.8267" r="8.38235" stroke="white" stroke-width="0.441176"/>
<path d="M86.8806 33.4458C84.9792 41.6958 80.8365 48.7016 73.2659 53.8061C65.0954 59.4619 56.4704 62.1884 47.0601 64.0634C47.2983 58.2796 46.663 50.1443 49.6454 44.9869C53.0302 39.2605 57.974 34.6151 63.8998 31.5928C70.4336 28.2178 80.5409 24.909 87.8821 27.2472C87.678 29.3323 87.3435 31.4025 86.8806 33.4458Z" fill="url(#paint2_linear_751_5890)"/>
<path d="M87.6485 58.1475C87.6132 58.2975 91.1426 72.4151 91.1426 72.4151H85.6279" stroke="#00214E" stroke-width="0.441176"/>
<path d="M92.7041 53.6426C95.8197 52.0504 99.4262 51.7095 102.785 52.6897" stroke="#00214E" stroke-width="0.441176"/>
<path d="M68.3911 55.2573C72.6895 53.068 77.7395 52.9063 82.1691 54.8161" stroke="#00214E" stroke-width="0.441176"/>
<path d="M84.4673 63.1502L91.1423 62.5811" stroke="white" stroke-width="0.441176"/>
<path d="M130.888 124.773C101.396 147.481 60.2603 147.3 30.9702 124.332L52.4379 114.269C53.4602 113.788 54.4415 113.225 55.3717 112.584C55.654 112.389 55.9364 112.187 56.2055 111.975C58.544 110.186 60.4688 107.914 61.8482 105.313C62.8879 103.319 63.5788 101.161 63.8908 98.9336C64.2024 99.2355 64.5293 99.5212 64.8702 99.7895C67.5753 101.79 70.5111 103.458 73.6143 104.757C75.1209 105.386 76.6616 105.929 78.229 106.385C82.9514 107.762 87.8819 108.284 92.7879 107.925C93.4673 107.872 94.1511 107.806 94.8305 107.757L94.8967 109.998V110.144L100.235 112.314L130.888 124.773Z" fill="#845161"/>
<path d="M76.1821 77.396C76.3049 77.2028 76.5024 77.0694 76.7275 77.0276C76.9525 76.9857 77.1848 77.0393 77.3688 77.1754C78.2821 77.8195 79.9585 79.1872 82.3409 79.6592C85.5879 80.3077 88.4071 79.0063 89.0777 79.8445C89.4571 80.3166 88.9938 80.8945 88.1071 81.6313C86.2314 83.0336 83.8695 83.6205 81.5556 83.2592C78.4277 82.6725 76.085 79.0548 76.085 77.771C76.0835 77.6396 76.117 77.5102 76.1821 77.396Z" fill="white"/>
<defs>
<linearGradient id="paint0_linear_751_5890" x1="57.3042" y1="36.6421" x2="84.3704" y2="36.6421" gradientUnits="userSpaceOnUse">
<stop stop-color="#16243F"/>
<stop offset="1" stop-color="#6878B1"/>
</linearGradient>
<linearGradient id="paint1_linear_751_5890" x1="77.7811" y1="124.317" x2="118.097" y2="59.7056" gradientUnits="userSpaceOnUse">
<stop stop-color="#16243F"/>
<stop offset="1" stop-color="#6878B1"/>
</linearGradient>
<linearGradient id="paint2_linear_751_5890" x1="60.9628" y1="76.8679" x2="80.9334" y2="49.5342" gradientUnits="userSpaceOnUse">
<stop stop-color="#16243F"/>
<stop offset="1" stop-color="#6878B1"/>
</linearGradient>
</defs>
</svg>
