<svg width="112" height="133" viewBox="0 0 112 133" fill="none" xmlns="http://www.w3.org/2000/svg">
<circle cx="51.8356" cy="14.316" r="13.5309" fill="url(#paint0_linear_934_4162)"/>
<path d="M63.5268 87.7457C56.4593 87.6232 49.4106 86.9773 42.4386 85.8134C28.5503 83.4928 14.9533 79.059 2.61799 72.2251C1.88564 71.8149 1.15329 71.4002 0.412109 70.9766C11.3489 60.5957 19.4665 48.0354 26.3268 34.7119C31.268 25.0987 33.8268 18.759 44.4989 14.7134C63.0548 7.68545 88.1224 14.5193 93.3989 35.3957C95.6268 44.2193 95.7106 53.4443 94.4445 62.4222C93.2224 71.1046 90.0062 87.8251 90.0062 87.8251C90.0062 87.8251 66.99 87.8075 63.5268 87.7457Z" fill="url(#paint1_linear_934_4162)"/>
<path d="M111.893 115.98C82.401 138.688 41.2652 138.507 11.9751 115.539L33.4427 105.476C34.0999 105.165 34.7404 104.821 35.3619 104.444L35.856 104.135C36.0325 104.025 36.2045 103.91 36.3766 103.791C39.0855 101.921 41.3052 99.4274 42.8486 96.5201C44.6133 93.1892 45.1957 89.5098 45.2222 85.7598C45.2222 83.6995 45.1383 81.6392 45.0854 79.5833C45.0854 79.1186 45.0766 78.6554 45.0589 78.1936C45.0413 76.7936 45.0266 75.3951 45.0148 73.998H45.0457L45.8883 74.4392L48.1825 75.626L61.5457 77.898L75.2751 80.2363L75.5883 90.8245L75.6766 93.8598V94.3319L75.8839 101.333L80.9442 103.394L84.9148 105L111.893 115.98Z" fill="#F2A196"/>
<path d="M75.5885 90.8333C74.6376 91.4845 73.5018 91.811 72.3503 91.7642C65.8253 91.0627 53.0973 85.9495 45.0856 76.4862C45.0856 76.0215 45.0767 75.5583 45.0591 75.0965V74.0068L45.9017 74.448L48.1958 75.6348L61.5591 77.9068L75.2885 80.2451L75.5885 90.8333Z" fill="#E88870"/>
<circle cx="33.981" cy="59.8721" r="7.5" fill="#F2A196"/>
<circle cx="36.6284" cy="58.9893" r="7.5" fill="#E88870"/>
<path d="M84.9548 48.5163C90.1386 66.4633 79.1312 88.1648 72.3636 88.1648C63.0989 88.1648 40.5989 80.7619 35.4239 62.8148C30.2489 44.8677 37.1136 27.1148 50.7901 23.1663C64.4665 19.2177 79.7754 30.5824 84.9548 48.5163Z" fill="#F2A196"/>
<path d="M57.0902 52.2441C59.7813 52.2662 59.7813 56.378 57.0902 56.4H56.9666C54.2754 56.378 54.2754 52.2662 56.9666 52.2441H57.0857H57.0902Z" fill="#00214E"/>
<path d="M79.2634 50.5498C81.7648 50.5719 81.7648 54.388 79.2634 54.4101H79.1531C76.656 54.4101 76.656 50.5719 79.1531 50.5498H79.2634Z" fill="#00214E"/>
<circle cx="57.0855" cy="54.357" r="8.38235" stroke="white" stroke-width="0.441176"/>
<circle cx="80.5254" cy="53.0337" r="8.38235" stroke="white" stroke-width="0.441176"/>
<path d="M67.8811 24.6528C65.9797 32.9028 61.837 39.9087 54.2664 45.0131C46.0958 50.669 37.4708 53.3954 28.0605 55.2704C28.2988 49.4866 27.6635 41.3513 30.6458 36.194C34.0307 30.4676 38.9745 25.8221 44.9003 22.7999C51.4341 19.4249 61.5414 16.116 68.8826 18.4543C68.6785 20.5393 68.344 22.6095 67.8811 24.6528V24.6528Z" fill="url(#paint2_linear_934_4162)"/>
<path d="M68.649 49.3545C68.6137 49.5045 72.1431 63.6221 72.1431 63.6221H66.6284" stroke="#00214E" stroke-width="0.441176"/>
<path d="M73.7046 44.8496C76.8202 43.2574 80.4267 42.9165 83.7855 43.8967" stroke="#00214E" stroke-width="0.441176"/>
<path d="M49.3916 46.4644C53.6899 44.275 58.7399 44.1133 63.1695 46.0232" stroke="#00214E" stroke-width="0.441176"/>
<path d="M65.4678 54.3572L72.1428 53.7881" stroke="white" stroke-width="0.441176"/>
<path d="M111.889 115.98C82.397 138.688 41.2613 138.507 11.9712 115.539L33.4388 105.476C34.4612 104.995 35.4424 104.432 36.3727 103.791C36.655 103.597 36.9374 103.394 37.2065 103.182C39.545 101.393 41.4697 99.1209 42.8491 96.52C43.8889 94.5256 44.5798 92.368 44.8918 90.1406C45.2034 90.4425 45.5303 90.7282 45.8712 90.9965C48.5763 92.9968 51.5121 94.6647 54.6153 95.9642C56.1219 96.5926 57.6626 97.1361 59.23 97.5921C63.9524 98.9691 68.8829 99.4905 73.7888 99.1318C74.4682 99.0789 75.1521 99.0127 75.8315 98.9642L75.8977 101.205V101.351L81.2359 103.522L111.889 115.98Z" fill="#845161"/>
<path d="M57.1826 68.603C57.3054 68.4099 57.5029 68.2764 57.728 68.2346C57.953 68.1928 58.1853 68.2463 58.3693 68.3824C59.2826 69.0265 60.959 70.3942 63.3414 70.8663C66.5884 71.5148 69.4076 70.2133 70.0781 71.0515C70.4576 71.5236 69.9943 72.1015 69.1076 72.8383C67.2319 74.2406 64.87 74.8275 62.5561 74.4663C59.4281 73.8795 57.0855 70.2618 57.0855 68.978C57.084 68.8466 57.1175 68.7172 57.1826 68.603V68.603Z" fill="white"/>
<defs>
<linearGradient id="paint0_linear_934_4162" x1="38.3047" y1="27.8491" x2="65.3709" y2="27.8491" gradientUnits="userSpaceOnUse">
<stop stop-color="#16243F"/>
<stop offset="1" stop-color="#6878B1"/>
</linearGradient>
<linearGradient id="paint1_linear_934_4162" x1="58.7816" y1="115.524" x2="99.0977" y2="50.9127" gradientUnits="userSpaceOnUse">
<stop stop-color="#16243F"/>
<stop offset="1" stop-color="#6878B1"/>
</linearGradient>
<linearGradient id="paint2_linear_934_4162" x1="41.9633" y1="68.075" x2="61.9339" y2="40.7413" gradientUnits="userSpaceOnUse">
<stop stop-color="#16243F"/>
<stop offset="1" stop-color="#6878B1"/>
</linearGradient>
</defs>
</svg>
