<svg width="101" height="121" viewBox="0 0 101 121" fill="none" xmlns="http://www.w3.org/2000/svg">
<g id="Artboard 78">
<path id="Path" d="M100.565 103.764C71.0728 126.472 29.9371 126.29 0.646973 103.323L22.1146 93.2597C23.137 92.7791 24.1182 92.2154 25.0484 91.5744C25.3308 91.3803 25.6131 91.1773 25.8823 90.9656C28.2187 89.1779 30.1419 86.9071 31.5205 84.3082C32.5628 82.3114 33.2551 80.1507 33.5676 77.92C33.783 76.4726 33.8921 75.0113 33.894 73.5479C33.894 71.0244 33.7573 68.5009 33.7308 65.9729C33.7132 64.5759 33.6984 63.1773 33.6867 61.7773L34.569 62.2185L36.8631 63.4053L37.9264 63.5862L50.2176 65.6906L63.947 68.0288L64.3617 82.1465L64.4984 86.7612L64.5646 89.0023V89.1479L69.9293 91.2788L100.565 103.764Z" fill="#F2D4CF"/>
<path id="Path_2" d="M100.565 103.764C71.0728 126.472 29.9371 126.291 0.646973 103.323L22.1146 93.2599C23.137 92.7793 24.1182 92.2157 25.0484 91.5746C25.3308 91.3805 25.6131 91.1776 25.8823 90.9658C36.272 98.3599 50.4514 103.023 62.7161 97.5041C65.6367 96.1805 68.319 94.0452 69.9073 91.3011L100.565 103.764Z" fill="url(#paint0_linear_622_522)"/>
<path id="Path_3" d="M64.56 88.9805C59.9497 89.2585 54.7968 88.0673 50.0012 85.3011C40.9968 80.0996 36.1835 71.0291 37.9129 63.5908L50.2129 65.6908L63.9423 68.0291L64.3571 82.1467L64.56 88.9805Z" fill="#DAAEA8"/>
<path id="Path_4" d="M88.0175 20.1175C85.7204 27.6675 83.1484 35.1278 80.3013 42.4984C78.3028 47.6822 77.4425 51.8866 72.1528 54.3396C68.2572 56.144 63.916 56.6513 59.8793 58.0322C57.6734 58.791 33.7528 65.5851 33.7528 67.0675C33.7528 66.7454 31.4101 64.4204 28.4587 61.5925C23.0808 56.4777 19.4555 49.7953 18.0998 42.4984C16.9837 36.3219 17.9234 28.7469 19.7278 22.7822C28.4587 -6.02662 70.269 -0.392792 92.3322 4.64103C91.0234 9.83515 89.5851 14.994 88.0175 20.1175Z" fill="url(#paint1_linear_622_522)"/>
<ellipse id="Oval" cx="29.3457" cy="49.4209" rx="7.5" ry="7.5" fill="#F2D4CF"/>
<ellipse id="Oval_2" cx="31.7235" cy="49.4208" rx="6.71471" ry="6.7147" fill="#DAAEA8"/>
<path id="Path_5" d="M31.8247 42.3393L32.8703 55.654L33.5144 64.3672C33.7615 67.5702 35.01 69.4893 37.0968 72.0525C40.8048 76.6008 45.5285 80.2153 50.8879 82.6055C56.0012 84.8863 63.0997 87.1584 68.535 84.9437C74.1159 82.6805 75.9026 76.4158 77.7997 71.2187C79.6968 66.0216 81.4218 60.3084 81.3291 54.6966C81.21 47.0819 79.1938 42.8113 79.1938 42.8113C79.685 39.8702 80.1732 36.9378 80.6585 34.0143C81.21 30.701 81.9203 27.2422 81.0997 23.9113C80.16 20.0908 77.2791 18.4628 74.9232 15.6084C68.6762 23.6555 58.4056 28.204 49.4365 32.8143C44.7821 35.2055 31.8247 42.3393 31.8247 42.3393Z" fill="#F2D4CF"/>
<path id="Path_6" d="M44.3984 39.3832C48.4825 38.5386 52.6833 38.4192 56.8087 39.0303" stroke="#00214E"/>
<path id="Path_7" d="M72.0117 38.9648C74.5346 38.3778 77.135 38.1976 79.7147 38.4309" stroke="#00214E"/>
<path id="Path_8" d="M48.3115 65.8012C49.9444 63.1167 52.2679 60.9197 55.0395 59.4395" stroke="#00214E"/>
<path id="Path_9" d="M56.7248 45.873C56.5463 47.3753 55.7088 48.7204 54.4395 49.5436C54.1818 49.7158 53.9086 49.8635 53.6234 49.9848C52.7134 50.317 51.7616 50.5204 50.7954 50.5892" stroke="#00214E"/>
<path id="Path_10" d="M56.7954 31.7997H70.741" stroke="#00214E"/>
<path id="Path_11" d="M55.022 34.6805H68.9676" stroke="#00214E"/>
<path id="Path_12" d="M70.6748 45.7539C71.0984 46.8765 71.6522 47.9456 72.3248 48.9392C72.9876 49.855 73.9729 50.4856 75.0822 50.7039" stroke="#00214E"/>
<path id="Path_13" d="M69.2016 54.512C69.4098 54.8403 69.6012 55.1789 69.7751 55.5267C69.9754 55.855 70.1103 56.2191 70.1722 56.5987C70.1842 56.8736 70.0711 57.1392 69.8645 57.3209C69.6579 57.5027 69.38 57.581 69.1089 57.534C68.831 57.4767 68.7163 57.9046 68.9942 57.9752C69.3505 58.0451 69.72 57.9705 70.0213 57.7677C70.3225 57.565 70.5308 57.2507 70.6001 56.8943C70.6287 56.4394 70.5212 55.9863 70.2913 55.5928C70.0821 55.1482 69.8464 54.7165 69.5854 54.3002C69.4354 54.062 69.0516 54.3002 69.2016 54.5252V54.512Z" fill="#00214E"/>
<path id="Path_14" d="M61.8296 55.0277C61.4546 55.6277 61.009 56.3777 61.2251 57.1144C61.3972 57.7144 62.0325 58.2703 62.6854 58.0365C62.9501 57.9394 62.8354 57.5115 62.5663 57.5953C62.1251 57.763 61.684 57.2953 61.6222 56.8718C61.5296 56.2894 61.9178 55.7071 62.209 55.235C62.3634 54.9924 61.9796 54.7718 61.8296 55.0144V55.0277Z" fill="#00214E"/>
<path id="Path_15" d="M54.7969 63.0439C56.9167 65.4112 59.8226 66.93 62.9763 67.3189" stroke="#00214E"/>
<ellipse id="Oval_3" cx="52.425" cy="45.2113" rx="1.44265" ry="3.50294" transform="rotate(-85.77 52.425 45.2113)" fill="#00214E"/>
<ellipse id="Oval_4" cx="75.1448" cy="44.4972" rx="3.50294" ry="1.44265" transform="rotate(-8.86001 75.1448 44.4972)" fill="#00214E"/>
</g>
<defs>
<linearGradient id="paint0_linear_622_522" x1="0.646973" y1="120.669" x2="100.565" y2="120.669" gradientUnits="userSpaceOnUse">
<stop stop-color="#16243F"/>
<stop offset="1" stop-color="#6878B1"/>
</linearGradient>
<linearGradient id="paint1_linear_622_522" x1="17.6057" y1="67.0736" x2="92.3322" y2="67.0736" gradientUnits="userSpaceOnUse">
<stop stop-color="#315676"/>
<stop offset="1" stop-color="#E1B9E0"/>
</linearGradient>
</defs>
</svg>
