<svg width="112" height="122" viewBox="0 0 112 122" fill="none" xmlns="http://www.w3.org/2000/svg">
<path d="M62.7148 88.7684C47.4236 88.8434 35.2383 87.136 20.4545 83.2316C14.7192 81.7184 0.853027 76.4552 0.853027 76.4552C8.6045 61.4993 15.5663 46.1904 22.0957 30.6654C26.5471 20.0772 32.4016 7.53015 43.8633 3.18898C62.4192 -3.83896 87.4869 2.99486 92.7633 23.8713C95.1854 33.4669 94.528 43.9228 94.8545 53.7346C95.2074 64.1949 95.3795 74.6684 96.4295 85.089C86.3795 88.8081 73.3471 88.7199 62.7148 88.7684Z" fill="#845161"/>
<path d="M111.24 104.456C81.7481 127.164 40.6124 126.983 11.3223 104.015L32.7899 93.9521C33.447 93.6414 34.0876 93.2968 34.709 92.9197L35.2031 92.6109C35.3796 92.5006 35.5517 92.3859 35.7237 92.2668C38.4321 90.3983 40.6518 87.9063 42.1958 85.0006C43.9605 81.6697 44.5429 77.9903 44.5693 74.2403C44.5693 71.7168 44.4326 69.1933 44.4061 66.6653C44.3884 65.2683 44.3737 63.8697 44.362 62.4697L45.2443 62.9109L47.5384 64.0977L60.8929 66.383L74.6223 68.7212L75.037 82.8388L75.2443 89.8403L80.3046 91.9006L84.2752 93.5065L111.24 104.456Z" fill="#F2D4CF"/>
<path d="M75.0368 82.8175C70.5985 83.6056 66.0326 83.2487 61.7706 81.7807C52.2501 78.5822 45.8398 70.866 45.2354 62.916L47.5295 64.1028L60.8927 66.3837L74.6221 68.7219L75.0368 82.8175Z" fill="#DAAEA8"/>
<circle cx="31.5679" cy="48.3486" r="7.5" fill="#F2D4CF"/>
<circle cx="34.2148" cy="47.4658" r="7.5" fill="#DAAEA8"/>
<path d="M85.7928 36.5331C91.2855 55.5655 80.5913 77.6728 72.4428 78.5772C52.7487 80.7831 38.7634 70.7287 33.2663 51.6964C27.7693 32.664 35.0752 13.8346 49.5899 9.64782C64.1046 5.46106 80.2957 17.4964 85.7928 36.5331Z" fill="#F2D4CF"/>
<path d="M67.2279 13.1294C65.3264 21.3794 61.1837 28.3852 53.6132 33.4852C45.4426 39.1455 36.0499 39.9441 26.644 41.8058C26.8823 36.022 27.0102 29.8279 29.9926 24.6705C33.3774 18.9441 38.3212 14.2987 44.247 11.2764C50.7808 7.90141 60.8882 4.59259 68.2293 6.93083C68.0249 9.01583 67.6904 11.086 67.2279 13.1294V13.1294Z" fill="url(#paint0_linear_934_3371)"/>
<path d="M68.0003 38.7129C67.965 38.8629 72.3194 55.8482 72.3194 55.8482H66.8047" stroke="#00214E" stroke-width="0.441176"/>
<path d="M73.0513 34.2043C76.1682 32.6162 79.7737 32.277 83.1322 33.2558" stroke="#00214E" stroke-width="0.441176"/>
<path d="M48.7383 35.836C53.0368 33.6472 58.0865 33.4855 62.5162 35.3948" stroke="#00214E" stroke-width="0.441176"/>
<path d="M111.24 104.456C81.7481 127.164 40.6124 126.983 11.3223 104.015L32.7899 93.952C33.8123 93.4714 34.7935 92.9077 35.7237 92.2667C36.0061 92.0726 36.2884 91.8697 36.5576 91.6579C38.894 89.8702 40.8172 87.5994 42.1958 85.0005C43.2381 83.0037 43.9304 80.843 44.2429 78.6123C44.5544 78.9142 44.8813 79.1999 45.2223 79.4682C47.9273 81.4685 50.8631 83.1364 53.9664 84.4358C55.4745 85.063 57.0166 85.605 58.5855 86.0594C63.3079 87.4364 68.2384 87.9578 73.1443 87.5991C73.8237 87.5461 74.5076 87.48 75.187 87.4314L75.2532 89.6726V89.8182L80.5914 91.9888L111.24 104.456Z" fill="#00214E"/>
<path d="M56.5292 60.2593C56.652 60.0661 56.8496 59.9327 57.0746 59.8909C57.2996 59.849 57.5319 59.9026 57.716 60.0387C58.6292 60.6828 60.3101 62.0504 62.688 62.5269C65.9351 63.171 68.7542 61.874 69.4292 62.7122C69.8042 63.1843 69.341 63.7578 68.4542 64.4769C66.5776 65.8772 64.216 66.4625 61.9027 66.1004C58.7748 65.5181 56.4321 61.896 56.4321 60.6166C56.4364 60.4916 56.4696 60.3693 56.5292 60.2593V60.2593Z" fill="white"/>
<path d="M55.9384 40.672C58.6296 40.6455 58.709 44.7573 56.0178 44.8323H55.9384C53.2428 44.8632 53.1634 40.7514 55.8546 40.6764H55.9384V40.672Z" fill="#00214E"/>
<path d="M78.1164 39.9527C80.6179 39.9218 80.6885 43.7424 78.1914 43.8085H78.0811C75.5841 43.835 75.5091 40.0188 78.0061 39.9482H78.1164V39.9527Z" fill="#00214E"/>
<defs>
<linearGradient id="paint0_linear_934_3371" x1="47.4367" y1="41.8058" x2="47.4367" y2="6.14551" gradientUnits="userSpaceOnUse">
<stop offset="0.29" stop-color="#845161"/>
<stop offset="0.405" stop-color="#996A79"/>
<stop offset="0.8" stop-color="#845161"/>
</linearGradient>
</defs>
</svg>
