<svg width="150" height="151" viewBox="0 0 150 151" fill="none" xmlns="http://www.w3.org/2000/svg">
<path d="M81.7148 103.561C66.4236 103.636 54.2383 101.929 39.4545 98.0246C33.7192 96.5114 19.853 91.2481 19.853 91.2481C27.6045 76.2922 34.5663 60.9834 41.0957 45.4584C45.5471 34.8702 51.4016 22.3231 62.8633 17.9819C81.4192 10.954 106.487 17.7878 111.763 38.6643C114.185 48.2599 113.528 58.7158 113.854 68.5275C114.207 78.9878 114.38 89.4614 115.429 99.882C105.38 103.601 92.3471 103.513 81.7148 103.561Z" fill="#845161"/>
<path d="M130.24 119.249C100.748 141.957 59.6124 141.776 30.3223 118.808L51.7899 108.745C52.447 108.434 53.0876 108.09 53.709 107.713L54.2031 107.404C54.3796 107.294 54.5517 107.179 54.7237 107.06C57.4321 105.191 59.6518 102.699 61.1958 99.7936C62.9605 96.4627 63.5429 92.7833 63.5693 89.0333C63.5693 86.5098 63.4326 83.9862 63.4061 81.4583C63.3884 80.0612 63.3737 78.6627 63.362 77.2627L64.2443 77.7039L66.5384 78.8906L79.8929 81.1759L93.6223 83.5142L94.037 97.6318L94.2443 104.633L99.3046 106.694L103.275 108.299L130.24 119.249Z" fill="#F2D4CF"/>
<path d="M94.0368 97.6105C89.5985 98.3985 85.0326 98.0417 80.7706 96.5737C71.2501 93.3752 64.8398 85.659 64.2354 77.709L66.5295 78.8957L79.8927 81.1766L93.6221 83.5149L94.0368 97.6105Z" fill="#DAAEA8"/>
<circle cx="50.5679" cy="63.1416" r="7.5" fill="#F2D4CF"/>
<circle cx="53.2148" cy="62.2588" r="7.5" fill="#DAAEA8"/>
<path d="M104.793 51.3261C110.285 70.3584 99.5913 92.4658 91.4428 93.3702C71.7487 95.5761 57.7634 85.5217 52.2663 66.4893C46.7693 47.457 54.0752 28.6276 68.5899 24.4408C83.1046 20.254 99.2957 32.2893 104.793 51.3261Z" fill="#F2D4CF"/>
<path d="M86.2279 27.9223C84.3264 36.1723 80.1838 43.1782 72.6132 48.2782C64.4426 53.9385 55.0499 54.737 45.644 56.5988C45.8823 50.815 46.0102 44.6209 48.9926 39.4635C52.3774 33.7371 57.3212 29.0916 63.247 26.0694C69.7808 22.6944 79.8882 19.3856 87.2293 21.7238C87.0249 23.8088 86.6904 25.879 86.2279 27.9223Z" fill="url(#paint0_linear_751_5866)"/>
<path d="M87.0003 53.5059C86.965 53.6559 91.3194 70.6412 91.3194 70.6412H85.8047" stroke="#00214E" stroke-width="0.441176"/>
<path d="M92.0513 48.9973C95.1682 47.4092 98.7737 47.0699 102.132 48.0488" stroke="#00214E" stroke-width="0.441176"/>
<path d="M67.7383 50.6289C72.0368 48.4402 77.0865 48.2785 81.5162 50.1878" stroke="#00214E" stroke-width="0.441176"/>
<path d="M130.24 119.249C100.748 141.957 59.6124 141.776 30.3223 118.808L51.7899 108.745C52.8123 108.264 53.7935 107.701 54.7237 107.06C55.0061 106.866 55.2884 106.663 55.5576 106.451C57.894 104.663 59.8172 102.392 61.1958 99.7935C62.2381 97.7967 62.9304 95.636 63.2429 93.4053C63.5544 93.7072 63.8813 93.9929 64.2223 94.2612C66.9273 96.2615 69.8631 97.9293 72.9664 99.2288C74.4745 99.8559 76.0166 100.398 77.5855 100.852C82.3079 102.229 87.2384 102.751 92.1443 102.392C92.8237 102.339 93.5076 102.273 94.187 102.224L94.2532 104.466V104.611L99.5914 106.782L130.24 119.249Z" fill="#00214E"/>
<path d="M75.5292 75.0522C75.652 74.8591 75.8496 74.7256 76.0746 74.6838C76.2996 74.642 76.5319 74.6955 76.716 74.8316C77.6292 75.4758 79.3101 76.8434 81.688 77.3199C84.9351 77.964 87.7542 76.6669 88.4292 77.5052C88.8042 77.9772 88.341 78.5508 87.4542 79.2699C85.5776 80.6702 83.216 81.2554 80.9027 80.8934C77.7748 80.3111 75.4321 76.689 75.4321 75.4096C75.4364 75.2846 75.4696 75.1622 75.5292 75.0522Z" fill="white"/>
<path d="M74.9384 55.465C77.6296 55.4385 77.709 59.5503 75.0178 59.6253H74.9384C72.2428 59.6561 72.1634 55.5444 74.8546 55.4694H74.9384V55.465Z" fill="#00214E"/>
<path d="M97.1164 54.7456C99.6179 54.7147 99.6885 58.5353 97.1914 58.6015H97.0811C94.5841 58.628 94.5091 54.8118 97.0061 54.7412H97.1164V54.7456Z" fill="#00214E"/>
<defs>
<linearGradient id="paint0_linear_751_5866" x1="66.4367" y1="56.5988" x2="66.4367" y2="20.9385" gradientUnits="userSpaceOnUse">
<stop offset="0.29" stop-color="#845161"/>
<stop offset="0.405" stop-color="#996A79"/>
<stop offset="0.8" stop-color="#845161"/>
</linearGradient>
</defs>
</svg>
