<svg width="100" height="100" viewBox="0 0 100 100" fill="none" xmlns="http://www.w3.org/2000/svg">
<path d="M45.3341 64.0294C48.3929 63.9765 51.4547 63.8294 54.6341 63.6353C58.5958 63.3912 63.4106 64.3706 67.1929 62.8529C70.8635 61.3823 73.2017 59.05 75.6135 56.0882C76.8694 54.5559 78.8076 53.7765 80.687 53.147C82.5664 52.5176 84.5282 51.9382 86.04 50.6559C87.5517 49.3735 88.4723 47.147 87.6076 45.3618C85.4811 40.9765 78.5635 42.4412 78.5488 35.8235C78.5488 33.5735 79.5517 31.0529 78.2164 29.2412C77.7636 28.6929 77.2106 28.2358 76.587 27.8941C73.5576 26.0265 69.6517 26.2088 66.6458 24.3647C63.2517 22.2647 63.9576 18.2912 60.9341 15.5206C59.9242 14.6407 58.8331 13.8587 57.6753 13.1853C49.7576 8.28528 41.5723 8.74411 33.4606 13.4118C29.1223 15.9147 25.3547 20.4029 23.5811 25.0618C21.6135 30.25 25.4958 36.0176 22.2282 40.5294C21.487 41.5529 20.5047 42.3823 19.7017 43.3588C16.337 47.447 21.5164 49.9647 23.64 52.7412C25.3429 54.9735 25.0811 58.2382 26.7164 60.5206C28.6135 63.1676 32.3047 63.6118 35.5664 63.8147C38.9164 64.0353 42.1253 64.0853 45.3341 64.0294Z" fill="#845161"/>
<path d="M11.7723 79.2412C31.4335 94.3798 58.8573 94.2587 78.3841 78.947L64.0723 72.2382C63.6343 72.0311 63.2072 71.8013 62.7929 71.55L62.4635 71.3441C62.3459 71.2706 62.2312 71.1941 62.1164 71.1147C60.3108 69.869 58.8311 68.2077 57.8017 66.2706C56.6253 64.05 56.237 61.597 56.2194 59.097C56.2194 57.7235 56.2753 56.35 56.3106 54.9794C56.3106 54.6696 56.3164 54.3608 56.3282 54.0529C56.34 53.1215 56.3498 52.1892 56.3576 51.2559L55.7694 51.55L54.24 52.3412L45.3312 53.8559L36.1782 55.4147L35.9106 64.5029V64.8176L35.7723 69.4853L32.3988 70.8588L29.7517 71.9294L11.7723 79.2412Z" fill="#F8B8B0"/>
<path d="M35.9165 62.4414C36.7165 62.9355 37.4723 63.1679 38.1341 63.0973C42.4841 62.6297 50.9694 59.2208 56.3106 52.912C56.3106 52.6022 56.3165 52.2934 56.3282 51.9855C56.34 51.0542 56.3498 50.1218 56.3576 49.1885L55.7694 49.4826L54.24 50.2738L45.3312 51.7885L36.1782 53.3473L35.9165 62.4414Z" fill="#F19D88"/>
<circle cx="5" cy="5" r="5" transform="matrix(-1 0 0 1 68.7106 36.835)" fill="#F8B8B0"/>
<circle cx="5" cy="5" r="5" transform="matrix(-1 0 0 1 66.9459 36.2471)" fill="#F19D88"/>
<path d="M29.7282 34.2645C26.2753 46.2322 33.6135 60.6969 38.1224 60.6969C44.2988 60.6969 59.2988 55.7616 62.7488 43.7969C66.1988 31.8322 61.6135 19.9969 52.4959 17.3645C43.3782 14.7322 33.1841 22.2998 29.7282 34.2645Z" fill="#F8B8B0"/>
<path d="M48.3047 36.75C46.5106 36.75 46.5106 39.5088 48.3047 39.5206H48.387C50.1812 39.5206 50.1812 36.7647 48.387 36.75H48.3047Z" fill="#00214E"/>
<path d="M33.5223 35.6201C31.8576 35.6201 31.8576 38.1789 33.5223 38.1936H33.5988C35.2635 38.1789 35.2635 35.6348 33.5988 35.6201H33.5223Z" fill="#00214E"/>
<circle cx="5.58824" cy="5.58824" r="5.58824" transform="matrix(-1 0 0 1 53.8988 32.5703)" stroke="#FEFEFE" stroke-width="0.294118"/>
<circle cx="5.58824" cy="5.58824" r="5.58824" transform="matrix(-1 0 0 1 38.2694 31.6885)" stroke="#FEFEFE" stroke-width="0.294118"/>
<path d="M41.1135 18.3557C42.3782 23.8587 45.14 28.5293 50.19 31.9293C55.6341 35.6999 61.387 37.5175 67.6576 38.7705C67.4988 34.9146 67.9223 29.491 65.9341 26.0499C63.6775 22.2323 60.3817 19.1353 56.4312 17.1205C52.0782 14.8705 45.34 12.6646 40.4459 14.2263C40.5807 15.6156 40.8037 16.9948 41.1135 18.3557Z" fill="#845161"/>
<path d="M40.5988 34.8232C40.6223 34.9232 38.2694 44.335 38.2694 44.335H41.9459" stroke="#00214E" stroke-width="0.294118"/>
<path d="M37.2282 31.8266C35.1486 30.7601 32.7394 30.5306 30.4959 31.1854" stroke="#00214E" stroke-width="0.294118"/>
<path d="M53.437 32.9058C50.5728 31.4451 47.2065 31.3373 44.2547 32.6117" stroke="#00214E" stroke-width="0.294118"/>
<path d="M42.7223 38.1587L38.2694 37.7793" stroke="#FEFEFE" stroke-width="0.294118"/>
<path d="M11.7723 79.2411C31.4335 94.3797 58.8573 94.2587 78.3841 78.947L64.0723 72.2382C63.3907 71.9178 62.7366 71.542 62.1164 71.1147C61.9282 70.9852 61.74 70.85 61.5606 70.7088C60.003 69.517 58.7208 68.0031 57.8017 66.2705C57.1069 64.9393 56.6453 63.4989 56.437 62.0117C56.2293 62.213 56.0114 62.4034 55.7841 62.5823C53.9807 63.9159 52.0235 65.0278 49.9547 65.8941C48.9503 66.313 47.9232 66.6754 46.8782 66.9794C43.73 67.8974 40.4429 68.245 37.1723 68.0058C36.7194 67.9705 36.2635 67.9264 35.8106 67.8941L35.7664 69.3882V69.4735L32.2076 70.9205L11.7723 79.2411Z" fill="url(#paint0_linear_1940_16976)"/>
<path d="M48.2429 47.6561C48.1616 47.5275 48.0304 47.4386 47.8809 47.4106C47.7313 47.3827 47.5769 47.4184 47.4547 47.509C46.8429 47.9384 45.7253 48.8502 44.137 49.1678C41.9723 49.5972 40.0958 48.7325 39.6458 49.2884C39.3929 49.6031 39.7017 49.9884 40.2929 50.4649C41.5437 51.4015 43.1199 51.7929 44.6635 51.5502C46.7458 51.159 48.3105 48.7472 48.3105 47.8943C48.3081 47.8105 48.2848 47.7286 48.2429 47.6561Z" fill="#FEFEFE"/>
<defs>
<linearGradient id="paint0_linear_1940_16976" x1="78.3841" y1="90.5126" x2="11.7723" y2="90.5126" gradientUnits="userSpaceOnUse">
<stop stop-color="#072359"/>
</linearGradient>
</defs>
</svg>
