<svg width="100" height="101" viewBox="0 0 100 101" fill="none" xmlns="http://www.w3.org/2000/svg">
<path d="M21.8971 33.423C21.8971 35.7377 24.5147 37.6789 25.0853 39.8142C25.6735 42.026 24.3971 45.0112 25.5147 46.9465C26.6324 48.8818 29.8882 49.2995 31.4794 50.8789C33.0706 52.4583 33.4529 55.7083 35.4147 56.8436C37.3765 57.9789 40.3353 56.6848 42.5441 57.276C44.6794 57.8465 46.6206 60.4642 48.9382 60.4642C51.2559 60.4642 53.1941 57.8465 55.3294 57.276C57.5382 56.6877 60.5265 57.9642 62.4588 56.8436C64.3912 55.723 64.8118 52.473 66.3941 50.8789C67.9765 49.2848 71.2235 48.9083 72.3588 46.9465C73.4941 44.9848 72.2 42.026 72.7882 39.8142C73.3588 37.6789 75.9765 35.7377 75.9765 33.423C75.9765 31.1083 73.3588 29.1671 72.7882 27.0318C72.2 24.8201 73.4765 21.8348 72.3588 19.8995C71.2412 17.9642 67.9853 17.5465 66.3941 15.9671C64.8029 14.3877 64.4235 11.1377 62.4588 10.0024C60.4941 8.86713 57.5382 10.1612 55.3294 9.57007C53.1941 8.99948 51.2529 6.38184 48.9382 6.38184C46.6235 6.38184 44.6794 8.99948 42.5441 9.57007C40.3353 10.1583 37.35 8.88184 35.4147 10.0024C33.4794 11.123 33.0618 14.373 31.4794 15.9671C29.8971 17.5612 26.65 17.9377 25.5147 19.8995C24.3794 21.8612 25.6765 24.8201 25.0853 27.0318C24.5147 29.1671 21.8971 31.1083 21.8971 33.423Z" fill="#303030"/>
<circle cx="5" cy="5" r="5" transform="matrix(-1 0 0 1 69.15 41.8701)" fill="#F2A196"/>
<circle cx="4.70588" cy="4.70588" r="4.70588" transform="matrix(-1 0 0 1 67.1324 41.8701)" fill="#E88870"/>
<path d="M16.6235 83.0996C36.2847 98.2382 63.7085 98.1171 83.2353 82.8055L68.9235 76.0966C68.2419 75.7762 67.5878 75.4005 66.9676 74.9731C66.7794 74.8437 66.5912 74.7084 66.4118 74.5672C64.8541 73.3754 63.572 71.8616 62.6529 70.129C61.4765 67.9084 61.0882 65.4555 61.0706 62.9555C61.0706 61.2731 61.1618 59.5908 61.1794 57.9055C61.1912 56.9741 61.201 56.0417 61.2088 55.1084L60.6206 55.4025L59.0971 56.2084L58.3882 56.329L50.1882 57.7231L41.0353 59.2819L40.7588 68.6937L40.6235 73.2643V73.3613L37.0647 74.8084L16.6235 83.0996Z" fill="#F2A196"/>
<path d="M40.6588 72.202L41.1117 72.2491C45.538 72.6372 49.9114 71.0618 53.0735 67.9403L61.1265 58.702C61.1529 57.8491 61.1853 58.3785 61.1941 57.5256C61.2059 56.5942 61.2157 55.6618 61.2235 54.7285L60.6353 55.0226L59.1059 55.8138L58.397 55.9344L50.197 57.3285L41.0441 58.8873L40.7676 68.2991L40.6588 72.202Z" fill="#E88870"/>
<path d="M62.647 36.6942C62.8794 36.9883 63.0853 37.5618 63.3059 38.4913C63.8147 40.6471 61.5853 54.803 61.1588 58.9677L50.447 66.8677C46.887 69.5255 42.3399 70.4868 38.0088 69.4971C36.2823 69.0883 35.1882 68.8236 34.4088 67.4383C32.9029 64.7913 29.2059 55.7354 28.9647 49.3471C28.897 47.5354 28.9412 44.7707 30.0588 43.2236C30.6029 42.4736 30.8823 42.4589 30.6853 41.3971C30.4882 40.3354 30.1912 39.2001 29.947 38.1001C29.2735 35.0619 28.7353 31.6295 29.7088 28.606C30.2265 26.9883 31.1412 25.9177 32.4412 24.8795C33.8294 23.7677 34.4029 23.8207 35.2353 25.4677C35.797 26.5854 36.3617 27.5266 37.5 28.1618C39.15 29.0766 40.2735 28.4824 41.9117 28.356C43.347 28.2471 43.1941 29.356 43.5088 30.4148C43.8346 31.5263 44.5391 32.4887 45.5 33.1354C47.2861 34.2943 49.5836 34.3069 51.3823 33.1677C51.6263 32.9926 51.9203 32.9009 52.2206 32.906C53.2029 32.9589 53.247 34.1383 53.4706 34.9854C53.9441 36.7501 56.0059 37.7266 57.8382 37.5854C60.8265 37.3619 61.8912 35.6971 62.647 36.6942Z" fill="#F2A196"/>
<path d="M39.0412 41.9551C38.9604 43.0976 38.7633 44.229 38.4529 45.3315C38.1588 46.3051 37.7118 46.911 37.1235 47.7492C36.9204 48.0259 36.7441 48.3214 36.5971 48.6315C35.8206 50.3786 36.8529 52.3168 38.8176 52.3168H40.0323" stroke="#00214E" stroke-width="0.294118"/>
<path d="M47.5794 55.1992C46.1654 56.7763 44.2286 57.7886 42.1265 58.0492" stroke="#00214E" stroke-width="0.294118"/>
<path d="M53.0706 38.6848C50.3477 38.1226 47.5472 38.044 44.7971 38.4525" stroke="#00214E" stroke-width="0.294118"/>
<path d="M35.7029 38.7171C34.0211 38.3252 32.2874 38.205 30.5676 38.3613" stroke="#00214E" stroke-width="0.294118"/>
<path d="M16.6235 83.0997C36.2847 98.2384 63.7085 98.1173 83.2353 82.8056L68.9235 76.0968C68.2419 75.7764 67.5878 75.4006 66.9676 74.9733C66.7794 74.8439 66.5912 74.7086 66.4118 74.5674C59.4853 79.4968 50.0323 82.6056 41.8559 78.9262C39.9088 78.0439 38.1206 76.6203 37.0618 74.7909L16.6235 83.0997Z" fill="url(#paint0_linear_1940_16959)"/>
<path d="M43.9529 50.2461C44.388 50.4738 44.5942 50.9829 44.4402 51.4492C44.2863 51.9154 43.8174 52.2017 43.3323 52.1255" stroke="#00214E" stroke-width="0.294118"/>
<path d="M48.7529 41.4814C46.9559 41.4814 46.9559 44.2403 48.7529 44.255H48.8324C50.6265 44.2403 50.6265 41.4962 48.8324 41.4814H48.7529Z" fill="#00214E"/>
<path d="M33.9676 41.2881C32.3029 41.2881 32.3029 43.8469 33.9676 43.8616H34.0441C35.7088 43.8469 35.7088 41.3028 34.0441 41.2881H33.9676Z" fill="#00214E"/>
<defs>
<linearGradient id="paint0_linear_1940_16959" x1="83.2353" y1="94.3697" x2="16.6235" y2="94.3697" gradientUnits="userSpaceOnUse">
<stop stop-color="#612502"/>
</linearGradient>
</defs>
</svg>
