<svg width="100" height="100" viewBox="0 0 100 100" fill="none" xmlns="http://www.w3.org/2000/svg">
<path d="M45.5235 68.5386C55.7176 68.5886 63.8412 67.4504 73.6971 64.8475C77.5206 63.8386 86.7647 60.3298 86.7647 60.3298C81.5971 50.3592 76.9559 40.1533 72.6029 29.8033C69.6353 22.7445 65.7324 14.3798 58.0912 11.4857C45.7206 6.80039 29.0088 11.3563 25.4912 25.2739C23.8765 31.671 24.3147 38.6416 24.0971 45.1827C23.8618 52.1563 23.7471 59.1386 23.0471 66.0857C29.7471 68.5651 38.4353 68.5063 45.5235 68.5386Z" fill="#845161"/>
<path d="M13.1735 78.997C32.8347 94.1357 60.2585 94.0146 79.7853 78.7029L65.4735 71.9941C65.0354 71.7869 64.6084 71.5572 64.1941 71.3059L63.8647 71.1C63.747 71.0264 63.6323 70.95 63.5176 70.8706C61.712 69.6249 60.2322 67.9636 59.2029 66.0264C58.0265 63.8059 57.6382 61.3529 57.6206 58.8529C57.6206 57.1706 57.7117 55.4882 57.7294 53.8029C57.7412 52.8715 57.751 51.9392 57.7588 51.0059L57.1706 51.3L55.6412 52.0912L46.7382 53.6147L37.5853 55.1735L37.3088 64.5853L37.1706 69.2529L33.797 70.6264L31.15 71.697L13.1735 78.997Z" fill="#F2D4CF"/>
<path d="M37.3088 64.5704C40.2677 65.0958 43.3116 64.8579 46.1529 63.8792C52.5 61.7469 56.7735 56.6027 57.1765 51.3027L55.647 52.0939L46.7382 53.6145L37.5853 55.1733L37.3088 64.5704Z" fill="#DAAEA8"/>
<circle cx="5" cy="5" r="5" transform="matrix(-1 0 0 1 71.2882 36.5918)" fill="#F2D4CF"/>
<circle cx="5" cy="5" r="5" transform="matrix(-1 0 0 1 69.5235 36.0029)" fill="#DAAEA8"/>
<path d="M30.1382 33.7151C26.4765 46.4033 33.6059 61.1416 39.0382 61.7445C52.1677 63.2151 61.4912 56.5122 65.1559 43.8239C68.8206 31.1357 63.95 18.5828 54.2735 15.7916C44.5971 13.0004 33.8029 21.0239 30.1382 33.7151Z" fill="#F2D4CF"/>
<path d="M42.5147 18.112C43.7824 23.612 46.5441 28.2825 51.5912 31.6825C57.0382 35.4561 63.3 35.9884 69.5706 37.2296C69.4118 33.3737 69.3265 29.2443 67.3382 25.8061C65.0817 21.9885 61.7858 18.8915 57.8353 16.8767C53.4794 14.6267 46.7412 12.4208 41.8471 13.9796C41.9834 15.3696 42.2064 16.7497 42.5147 18.112Z" fill="url(#paint0_linear_1940_16948)"/>
<path d="M42 35.168C42.0235 35.268 39.1206 46.5915 39.1206 46.5915H42.7971" stroke="#00214E" stroke-width="0.294118"/>
<path d="M38.6324 32.1623C36.5544 31.1035 34.1508 30.8774 31.9118 31.5299" stroke="#00214E" stroke-width="0.294118"/>
<path d="M54.8412 33.2503C51.9755 31.7912 48.609 31.6834 45.6559 32.9562" stroke="#00214E" stroke-width="0.294118"/>
<path d="M13.1735 78.997C32.8347 94.1356 60.2585 94.0145 79.7853 78.7029L65.4735 71.994C64.7919 71.6736 64.1378 71.2979 63.5176 70.8705C63.3294 70.7411 63.1412 70.6058 62.9617 70.4646C61.4041 69.2728 60.122 67.759 59.2029 66.0264C58.5081 64.6952 58.0465 63.2547 57.8382 61.7676C57.6305 61.9689 57.4126 62.1593 57.1853 62.3382C55.3819 63.6717 53.4247 64.7836 51.3559 65.6499C50.3504 66.068 49.3224 66.4294 48.2765 66.7323C45.1282 67.6503 41.8412 67.9979 38.5706 67.7588C38.1176 67.7235 37.6617 67.6793 37.2088 67.647L37.1647 69.1411V69.2382L33.6059 70.6852L13.1735 78.997Z" fill="#232F19"/>
<path d="M49.6471 49.5322C49.5652 49.4035 49.4335 49.3145 49.2835 49.2866C49.1334 49.2587 48.9786 49.2944 48.8559 49.3852C48.2471 49.8146 47.1265 50.7263 45.5412 51.044C43.3765 51.4734 41.4971 50.6087 41.0471 51.1675C40.7971 51.4822 41.1059 51.8646 41.6971 52.344C42.9481 53.2775 44.5225 53.6677 46.0647 53.4263C48.15 53.0381 49.7118 50.6234 49.7118 49.7705C49.7089 49.6871 49.6868 49.6055 49.6471 49.5322Z" fill="#FEFEFE"/>
<path d="M50.0412 36.4737C48.2471 36.4561 48.1941 39.1972 49.9883 39.2472H50.0412C51.8383 39.2678 51.8912 36.5267 50.0971 36.4767H50.0412V36.4737Z" fill="#00214E"/>
<path d="M35.2559 35.9942C33.5882 35.9736 33.5412 38.5206 35.2059 38.5647H35.2794C36.9441 38.5824 36.9941 36.0383 35.3294 35.9912H35.2559V35.9942Z" fill="#00214E"/>
<defs>
<linearGradient id="paint0_linear_1940_16948" x1="55.7088" y1="37.2296" x2="55.7088" y2="13.4561" gradientUnits="userSpaceOnUse">
<stop offset="0.29" stop-color="#845161"/>
<stop offset="0.405" stop-color="#996A79"/>
<stop offset="0.8" stop-color="#845161"/>
</linearGradient>
</defs>
</svg>
