<svg width="100" height="100" viewBox="0 0 100 100" fill="none" xmlns="http://www.w3.org/2000/svg">
<path d="M16.6235 79.1235C36.2847 94.2621 63.7085 94.141 83.2353 78.8294L68.9235 72.1206C68.2419 71.8002 67.5878 71.4244 66.9676 70.997C66.7794 70.8676 66.5912 70.7323 66.4118 70.5912C64.8541 69.3993 63.572 67.8855 62.6529 66.1529C61.9581 64.8217 61.4965 63.3812 61.2882 61.8941C61.1446 60.9291 61.0719 59.955 61.0706 58.9794C61.0706 57.297 61.1618 55.6147 61.1794 53.9294C61.1912 52.996 61.201 52.0637 61.2088 51.1323L60.6206 51.4264L59.0912 52.2176L58.3823 52.3382L50.1824 53.7323L41.0294 55.2911L40.7529 64.7029L40.6618 67.7794L40.6176 69.2735V69.3706L37.0588 70.8176L16.6235 79.1235Z" fill="#FECAC3"/>
<path d="M40.6765 68.7851C41.6873 68.959 42.7274 68.7979 43.6382 68.3263L61.1882 53.9792C61.2088 53.3145 61.2265 54.0116 61.2353 53.3469C61.2471 52.4135 61.2569 51.4812 61.2647 50.5498L60.6765 50.8439L59.1471 51.6351L58.4382 51.7557L50.2382 53.1498L41.0853 54.7086L40.8088 64.1204L40.7176 67.1969L40.6735 68.691V68.788L40.6765 68.7851Z" fill="#F6AC99"/>
<path d="M31.6176 43.2117C32.075 43.6899 32.5762 44.1242 33.1147 44.5087C36.1735 46.7234 40.2559 47.4499 43.7441 48.644C45.2147 49.147 61.1618 53.6793 61.1618 54.6646C61.1618 54.4499 62.7235 52.8999 64.6912 51.0176C71.4778 44.5176 73.7403 34.6 70.4441 25.7999C67.2353 17.3675 57.0059 11.5558 48.4382 10.2117C44.3588 9.57343 39.5176 9.21755 35.75 11.1734C33.8235 12.1764 32.2206 13.6381 30.75 15.2587C30.2912 15.7705 29.8461 16.293 29.4147 16.8264C29.2294 17.0499 29.0471 17.2734 28.8676 17.4999C22.1706 25.9117 24.5441 35.7793 31.6176 43.2117Z" fill="url(#paint0_linear_1940_16987)"/>
<path d="M31.6176 43.2115C32.0749 43.6897 32.5762 44.124 33.1147 44.5085C33.2403 44.2897 33.3532 44.0638 33.4529 43.832C34.2294 42.0673 34.6294 40.1526 34.9235 38.2438C35.3816 35.4659 35.6947 32.666 35.8618 29.8556C36.1294 25.3438 38.0559 23.1056 34.2235 19.5879C32.8444 18.324 31.202 17.3817 29.4147 16.8291C29.2294 17.0526 29.0471 17.2762 28.8676 17.5026C22.1706 25.9115 24.5441 35.7791 31.6176 43.2115Z" fill="url(#paint1_linear_1940_16987)"/>
<circle cx="5" cy="5" r="5" transform="matrix(-1 0 0 1 69.1029 37.9023)" fill="#FECAC3"/>
<circle cx="4.47647" cy="4.47647" r="4.47647" transform="matrix(-1 0 0 1 66.9912 38.4258)" fill="#F6AC99"/>
<path d="M62.1412 38.1613C61.8971 41.3554 61.9059 45.2554 61.8206 46.3966C61.599 49.2574 61.3794 52.1172 61.1618 54.976L41.6206 66.3907C38.816 67.439 35.6739 66.185 34.3618 63.4937C31.55 57.7348 27.0382 48.6407 27.6324 45.2584C28.5147 40.2584 30.8676 38.4937 30.8676 38.4937L29.8882 32.629C28.8971 26.6672 30.9412 21.0231 37.9059 20.3701C39.3765 20.2348 41.0147 20.5143 41.8882 21.6878C44.2412 24.8525 42.8853 28.7466 46.4177 31.6878C50.7059 35.226 60.2735 36.7701 62.5147 33.9143C62.5147 33.9143 62.3088 35.9348 62.1412 38.1613Z" fill="#FECAC3"/>
<path d="M47.4765 50.6377C46.0633 52.2159 44.126 53.2284 42.0235 53.4877" stroke="#00214E" stroke-width="0.294118"/>
<path d="M40.5294 36.7529C40.5529 36.8559 36.6 47.3794 36.6 47.3794L41.8765 47.6353" stroke="#00214E" stroke-width="0.294118"/>
<path d="M53.0235 34.7119C50.3008 34.1488 47.5003 34.0691 44.75 34.4766" stroke="#00214E" stroke-width="0.294118"/>
<path d="M35.6559 34.7502C33.975 34.3585 32.2423 34.2384 30.5235 34.3943" stroke="#00214E" stroke-width="0.294118"/>
<path d="M16.6235 79.1235C36.2847 94.2621 63.7085 94.141 83.2353 78.8293L68.9235 72.1205C68.2419 71.8001 67.5878 71.4243 66.9676 70.997C66.7794 70.8676 66.5912 70.7323 66.4118 70.5911C64.8541 69.3993 63.572 67.8854 62.6529 66.1529C61.9581 64.8216 61.4965 63.3812 61.2882 61.894C61.0805 62.0953 60.8626 62.2858 60.6353 62.4646C58.8319 63.7982 56.8747 64.9101 54.8059 65.7764C53.8015 66.1954 52.7744 66.5577 51.7294 66.8617C48.5812 67.7797 45.2941 68.1273 42.0235 67.8882C41.5706 67.8529 41.1147 67.8087 40.6618 67.7764L40.6176 69.2705V69.3676L37.0588 70.8146L16.6235 79.1235Z" fill="#00214E"/>
<path d="M49.0147 38.0176C47.2206 38.0176 47.2206 40.7764 49.0147 40.7911H49.0971C50.8941 40.7911 50.8941 38.0323 49.0971 38.0176H49.0176H49.0147Z" fill="#00214E"/>
<path d="M34.2706 37.6084C32.6059 37.6231 32.6059 40.1672 34.2706 40.1819H34.3471C36.0118 40.1819 36.0118 37.6231 34.3471 37.6084H34.2706Z" fill="#00214E"/>
<defs>
<linearGradient id="paint0_linear_1940_16987" x1="71.9559" y1="54.6761" x2="24.9029" y2="54.6761" gradientUnits="userSpaceOnUse">
<stop stop-color="#3F2816"/>
<stop offset="1" stop-color="#B16868"/>
</linearGradient>
<linearGradient id="paint1_linear_1940_16987" x1="44.2441" y1="35.0248" x2="24.5156" y2="40.622" gradientUnits="userSpaceOnUse">
<stop stop-color="#3F2816"/>
<stop offset="1" stop-color="#B16868"/>
</linearGradient>
</defs>
</svg>
