<svg width="74" height="82" viewBox="0 0 74 82" fill="none" xmlns="http://www.w3.org/2000/svg">
<path d="M32.5235 59.5386C42.7176 59.5886 50.8412 58.4504 60.6971 55.8475C64.5206 54.8386 73.7647 51.3298 73.7647 51.3298C68.5971 41.3592 63.9559 31.1533 59.6029 20.8033C56.6353 13.7445 52.7324 5.3798 45.0912 2.48568C32.7206 -2.19961 16.0088 2.35627 12.4912 16.2739C10.8765 22.671 11.3147 29.6416 11.0971 36.1827C10.8618 43.1563 10.7471 50.1386 10.0471 57.0857C16.7471 59.5651 25.4353 59.5063 32.5235 59.5386Z" fill="#845161"/>
<path d="M0.173512 69.997C19.8347 85.1357 47.2585 85.0146 66.7853 69.7029L52.4735 62.9941C52.0354 62.7869 51.6084 62.5572 51.1941 62.3059L50.8647 62.1C50.747 62.0264 50.6323 61.95 50.5176 61.8706C48.712 60.6249 47.2322 58.9636 46.2029 57.0264C45.0265 54.8059 44.6382 52.3529 44.6206 49.8529C44.6206 48.1706 44.7117 46.4882 44.7294 44.8029C44.7412 43.8715 44.751 42.9392 44.7588 42.0059L44.1706 42.3L42.6412 43.0912L33.7382 44.6147L24.5853 46.1735L24.3088 55.5853L24.1706 60.2529L20.797 61.6264L18.15 62.697L0.173512 69.997Z" fill="#F2D4CF"/>
<path d="M24.3088 55.5704C27.2677 56.0958 30.3116 55.8579 33.1529 54.8792C39.5 52.7469 43.7735 47.6027 44.1765 42.3027L42.647 43.0939L33.7382 44.6145L24.5853 46.1733L24.3088 55.5704Z" fill="#DAAEA8"/>
<circle cx="5" cy="5" r="5" transform="matrix(-1 0 0 1 58.2882 27.5918)" fill="#F2D4CF"/>
<circle cx="5" cy="5" r="5" transform="matrix(-1 0 0 1 56.5235 27.0029)" fill="#DAAEA8"/>
<path d="M17.1382 24.7151C13.4765 37.4033 20.6059 52.1416 26.0382 52.7445C39.1677 54.2151 48.4912 47.5122 52.1559 34.8239C55.8206 22.1357 50.95 9.58276 41.2735 6.79158C31.5971 4.00041 20.8029 12.0239 17.1382 24.7151Z" fill="#F2D4CF"/>
<path d="M29.5147 9.11195C30.7824 14.612 33.5441 19.2825 38.5912 22.6825C44.0382 26.4561 50.3 26.9884 56.5706 28.2296C56.4118 24.3737 56.3265 20.2443 54.3382 16.8061C52.0817 12.9885 48.7858 9.8915 44.8353 7.87666C40.4794 5.62666 33.7412 3.42078 28.8471 4.9796C28.9834 6.3696 29.2064 7.74974 29.5147 9.11195V9.11195Z" fill="url(#paint0_linear_2024_2992)"/>
<path d="M29 26.168C29.0235 26.268 26.1206 37.5915 26.1206 37.5915H29.7971" stroke="#00214E" stroke-width="0.294118"/>
<path d="M25.6324 23.1623C23.5544 22.1035 21.1508 21.8774 18.9118 22.5299" stroke="#00214E" stroke-width="0.294118"/>
<path d="M41.8412 24.2503C38.9755 22.7912 35.609 22.6834 32.6559 23.9562" stroke="#00214E" stroke-width="0.294118"/>
<path d="M0.173512 69.997C19.8347 85.1356 47.2585 85.0145 66.7853 69.7029L52.4735 62.994C51.7919 62.6736 51.1378 62.2979 50.5176 61.8705C50.3294 61.7411 50.1412 61.6058 49.9617 61.4646C48.4041 60.2728 47.122 58.759 46.2029 57.0264C45.5081 55.6952 45.0465 54.2547 44.8382 52.7676C44.6305 52.9689 44.4126 53.1593 44.1853 53.3382C42.3819 54.6717 40.4247 55.7836 38.3559 56.6499C37.3504 57.068 36.3224 57.4294 35.2765 57.7323C32.1282 58.6503 28.8412 58.9979 25.5706 58.7588C25.1176 58.7235 24.6617 58.6793 24.2088 58.647L24.1647 60.1411V60.2382L20.6059 61.6852L0.173512 69.997Z" fill="#232F19"/>
<path d="M36.6471 40.5322C36.5652 40.4035 36.4335 40.3145 36.2835 40.2866C36.1334 40.2587 35.9786 40.2944 35.8559 40.3852C35.2471 40.8146 34.1265 41.7263 32.5412 42.044C30.3765 42.4734 28.4971 41.6087 28.0471 42.1675C27.7971 42.4822 28.1059 42.8646 28.6971 43.344C29.9481 44.2775 31.5225 44.6677 33.0647 44.4263C35.15 44.0381 36.7118 41.6234 36.7118 40.7705C36.7089 40.6871 36.6868 40.6055 36.6471 40.5322V40.5322Z" fill="#FEFEFE"/>
<path d="M37.0412 27.4737C35.2471 27.4561 35.1941 30.1972 36.9883 30.2472H37.0412C38.8383 30.2678 38.8912 27.5267 37.0971 27.4767H37.0412V27.4737Z" fill="#00214E"/>
<path d="M22.2559 26.9942C20.5882 26.9736 20.5412 29.5206 22.2059 29.5647H22.2794C23.9441 29.5824 23.9941 27.0383 22.3294 26.9912H22.2559V26.9942Z" fill="#00214E"/>
<defs>
<linearGradient id="paint0_linear_2024_2992" x1="42.7088" y1="28.2296" x2="42.7088" y2="4.45605" gradientUnits="userSpaceOnUse">
<stop offset="0.29" stop-color="#845161"/>
<stop offset="0.405" stop-color="#996A79"/>
<stop offset="0.8" stop-color="#845161"/>
</linearGradient>
</defs>
</svg>
