<svg width="101" height="122" viewBox="0 0 101 122" fill="none" xmlns="http://www.w3.org/2000/svg">
<g id="Artboard 69">
<path id="Path" d="M100.065 104.24C70.5728 126.948 29.4371 126.766 0.146973 103.799L21.6146 93.7353C22.637 93.2547 23.6182 92.691 24.5484 92.05C24.8308 91.8559 25.1131 91.6529 25.3823 91.4412C27.7187 89.6535 29.6419 87.3827 31.0205 84.7838C32.0628 82.787 32.7551 80.6263 33.0676 78.3956C33.283 76.9482 33.3921 75.4869 33.394 74.0235C33.394 71.5 33.2573 68.9765 33.2308 66.4485C33.2132 65.0485 33.1984 63.65 33.1867 62.2529L34.069 62.6941L36.3631 63.8809L37.4264 64.0618L49.7264 66.1529L63.4558 68.4912L63.8705 82.6088L64.0073 87.2235L64.0734 89.4647V89.6103L69.4117 91.7809L100.065 104.24Z" fill="#F2D4CF"/>
<path id="Path_2" d="M63.9854 88.7318C62.4691 88.9927 60.909 88.7511 59.5427 88.0436L33.2177 66.523C33.1869 65.526 33.1604 66.5716 33.1471 65.5745C33.1295 64.1745 33.1148 62.776 33.103 61.3789L33.9854 61.8201L36.2795 63.0068L37.3427 63.1877L49.6427 65.2789L63.3721 67.6171L63.7869 81.7348L63.9236 86.3495L63.9898 88.5907V88.7363L63.9854 88.7318Z" fill="#DAAEA8"/>
<path id="Path_3" d="M77.5736 50.3717C76.8876 51.0891 76.1358 51.7405 75.328 52.3173C70.7397 55.6394 64.6162 56.7291 59.3839 58.5202C57.178 59.2746 33.2574 66.0732 33.2574 67.5511C33.2574 67.2291 30.9147 64.9041 27.9633 62.0805C17.7834 52.3307 14.3896 37.4542 19.3339 24.2541C24.1471 11.6055 39.4912 2.88788 52.3427 0.871701C58.4618 -0.0856525 65.7236 -0.619476 71.375 2.31435C74.2647 3.81876 76.6691 6.01141 78.875 8.44229C79.5633 9.20994 80.2309 9.99376 80.878 10.7938C81.1559 11.1291 81.4294 11.4643 81.6986 11.8041C91.7441 24.4217 88.1839 39.2232 77.5736 50.3717Z" fill="url(#paint0_linear_622_208)"/>
<path id="Path_4" d="M77.5735 50.3714C76.8875 51.0888 76.1357 51.7402 75.3279 52.317C75.1395 51.9887 74.9701 51.6499 74.8206 51.3023C73.6558 48.6552 73.0558 45.7831 72.6147 42.9199C71.9276 38.753 71.4579 34.5532 71.2073 30.3376C70.8058 23.5699 67.9161 20.2126 73.6647 14.9361C75.7334 13.0402 78.197 11.6268 80.8779 10.7979C81.1558 11.1331 81.4294 11.4684 81.6985 11.8081C91.7441 24.4214 88.1838 39.2229 77.5735 50.3714Z" fill="url(#paint1_linear_622_208)"/>
<circle id="Oval" cx="28.8457" cy="49.9082" r="7.5" fill="#F2D4CF"/>
<ellipse id="Oval_2" cx="31.2279" cy="49.9081" rx="6.7147" ry="6.71471" fill="#DAAEA8"/>
<path id="Path_5" d="M31.7883 42.7972C32.1545 47.5883 32.1413 53.4383 32.2692 55.1501C32.6016 59.4413 32.931 63.731 33.2574 68.0192L62.5692 85.1413C66.7761 86.7137 71.4893 84.8327 73.4574 80.7957C77.6751 72.1574 84.4427 58.5163 83.5516 53.4427C82.228 45.9427 78.6986 43.2957 78.6986 43.2957L80.1677 34.4986C81.6545 25.556 78.5883 17.0898 68.1413 16.1104C65.9354 15.9074 63.478 16.3266 62.1677 18.0869C58.6383 22.8339 60.6721 28.6751 55.3736 33.0869C48.9413 38.3942 34.5898 40.7104 31.228 36.4266C31.228 36.4266 31.5369 39.4574 31.7883 42.7972Z" fill="#F2D4CF"/>
<path id="Path_6" d="M53.7852 61.5117C55.9049 63.879 58.8108 65.3978 61.9646 65.7867" stroke="#00214E"/>
<path id="Path_7" d="M64.2056 40.6836C64.1704 40.838 70.0998 56.6233 70.0998 56.6233L62.1851 57.0071" stroke="#00214E"/>
<path id="Path_8" d="M45.4648 37.6216C49.5489 36.7769 53.7497 36.6574 57.8751 37.2686" stroke="#00214E"/>
<path id="Path_9" d="M71.5161 37.6789C74.0374 37.0915 76.6364 36.9112 79.2146 37.1451" stroke="#00214E"/>
<path id="Path_10" d="M100.065 104.24C70.5728 126.948 29.4371 126.766 0.146973 103.798L21.6146 93.7352C22.637 93.2546 23.6182 92.6909 24.5484 92.0499C24.8308 91.8558 25.1131 91.6529 25.3823 91.4411C27.7187 89.6534 29.6419 87.3826 31.0205 84.7837C32.0628 82.7869 32.7551 80.6262 33.0676 78.3955C33.3791 78.6974 33.706 78.9831 34.047 79.2514C36.7521 81.2517 39.6878 82.9196 42.7911 84.219C44.2977 84.8475 45.8383 85.391 47.4058 85.847C52.1282 87.224 57.0587 87.7454 61.9646 87.3867C62.644 87.3337 63.3279 87.2676 64.0073 87.219L64.0734 89.4602V89.6058L69.4117 91.7764L100.065 104.24Z" fill="#00214E"/>
<path id="Path_11" d="M51.4777 42.5801C54.1689 42.5801 54.1689 46.7183 51.4777 46.7404H51.3542C48.6586 46.7404 48.6586 42.6021 51.3542 42.5801H51.4733H51.4777Z" fill="#00214E"/>
<path id="Path_12" d="M73.5939 41.9668C76.091 41.9889 76.091 45.805 73.5939 45.8271H73.4792C70.9822 45.8271 70.9822 41.9889 73.4792 41.9668H73.5939Z" fill="#00214E"/>
</g>
<defs>
<linearGradient id="paint0_linear_622_208" x1="17.0662" y1="67.5683" x2="87.6456" y2="67.5683" gradientUnits="userSpaceOnUse">
<stop stop-color="#16243F"/>
<stop offset="1" stop-color="#6878B1"/>
</linearGradient>
<linearGradient id="paint1_linear_622_208" x1="58.6338" y1="38.0914" x2="88.2266" y2="46.4871" gradientUnits="userSpaceOnUse">
<stop stop-color="#16243F"/>
<stop offset="1" stop-color="#6878B1"/>
</linearGradient>
</defs>
</svg>
