<svg width="66" height="66" viewBox="0 0 66 66" fill="none" xmlns="http://www.w3.org/2000/svg">
<path d="M36.0328 41.817C34.0446 41.7826 32.0544 41.687 29.9878 41.5608C27.4127 41.4022 24.2831 42.0388 21.8246 41.0523C19.4387 40.0964 17.9189 38.5804 16.3512 36.6552C15.5349 35.6592 14.275 35.1526 13.0534 34.7435C11.8318 34.3344 10.5567 33.9577 9.574 33.1242C8.59136 32.2907 7.99297 30.8435 8.55503 29.683C9.93724 26.8326 14.4337 27.7847 14.4433 23.4832C14.4433 22.0207 13.7914 20.3823 14.6593 19.2047C14.9536 18.8483 15.3131 18.5512 15.7184 18.3291C17.6875 17.1151 20.2264 17.2336 22.1802 16.035C24.3864 14.67 23.9275 12.0872 25.8928 10.2863C26.5492 9.71433 27.2585 9.20606 28.0111 8.76833C33.1575 5.58333 38.478 5.88157 43.7506 8.91554C46.5705 10.5425 49.0194 13.4598 50.1722 16.488C51.4512 19.8604 48.9277 23.6094 51.0517 26.542C51.5334 27.2073 52.1719 27.7464 52.6939 28.3811C54.8809 31.0385 51.5143 32.675 50.134 34.4797C49.0271 35.9307 49.1972 38.0527 48.1343 39.5363C46.9012 41.2569 44.5019 41.5455 42.3818 41.6775C40.2043 41.8208 38.1186 41.8533 36.0328 41.817Z" fill="#845161"/>
<path d="M57.848 51.7041C45.0682 61.5442 27.2427 61.4655 14.5503 51.5129L23.853 47.1522C24.1377 47.0176 24.4153 46.8682 24.6846 46.7048L24.8987 46.571C24.9752 46.5232 25.0497 46.4735 25.1243 46.4219C26.2979 45.6122 27.2598 44.5323 27.9289 43.2732C28.6936 41.8298 28.9459 40.2354 28.9574 38.6104C28.9574 37.7176 28.9211 36.8248 28.8981 35.934C28.8981 35.7326 28.8943 35.5319 28.8866 35.3318C28.879 34.7264 28.8726 34.1203 28.8675 33.5137L29.2499 33.7048L30.244 34.2191L36.0347 35.2037L41.9841 36.2169L42.1581 42.1243V42.3288L42.248 45.3628L44.4408 46.2556L46.1614 46.9515L57.848 51.7041Z" fill="#F2A196"/>
<path d="M42.1543 40.7853C41.6343 41.1065 41.143 41.2575 40.7128 41.2116C37.8853 40.9077 32.3699 38.6919 28.8981 34.5912C28.8981 34.3898 28.8943 34.1891 28.8866 33.989C28.879 33.3836 28.8726 32.7776 28.8675 32.1709L29.2499 32.3621L30.244 32.8763L36.0347 33.8609L41.9841 34.8741L42.1543 40.7853Z" fill="#E88870"/>
<circle cx="24.0881" cy="27.3906" r="3.25" fill="#F2A196"/>
<circle cx="25.2352" cy="27.0088" r="3.25" fill="#E88870"/>
<path d="M46.1766 22.4693C48.421 30.2483 43.6512 39.6503 40.7205 39.6503C36.7058 39.6503 26.9558 36.4424 24.7133 28.6653C22.4708 20.8883 25.4512 13.1953 31.3777 11.4843C37.3041 9.77327 43.9303 14.6922 46.1766 22.4693Z" fill="#F2A196"/>
<path d="M34.1019 24.0859C35.2681 24.0859 35.2681 25.8792 34.1019 25.8868H34.0484C32.8822 25.8868 32.8822 24.0955 34.0484 24.0859H34.1019Z" fill="#00214E"/>
<path d="M43.7105 23.3516C44.7925 23.3516 44.7925 25.0148 43.7105 25.0244H43.6608C42.5787 25.0148 42.5787 23.3611 43.6608 23.3516H43.7105Z" fill="#00214E"/>
<circle cx="34.0981" cy="25.0015" r="3.63235" stroke="#FEFEFE" stroke-width="0.191176"/>
<circle cx="44.2572" cy="24.4283" r="3.63235" stroke="#FEFEFE" stroke-width="0.191176"/>
<path d="M38.7762 12.13C37.9541 15.7069 36.159 18.7428 32.8765 20.9528C29.3378 23.4036 25.5984 24.5851 21.5225 25.3995C21.6258 22.8932 21.3505 19.3679 22.6428 17.1311C24.1096 14.6497 26.2519 12.6367 28.8197 11.327C31.6491 9.86453 36.029 8.4307 39.2102 9.44585C39.1225 10.3488 38.9776 11.2454 38.7762 12.13Z" fill="#845161"/>
<path d="M39.1108 22.833C39.0955 22.898 40.6249 29.0157 40.6249 29.0157H38.2352" stroke="#00214E" stroke-width="0.191176"/>
<path d="M41.3016 20.8852C42.6534 20.192 44.2193 20.0428 45.6777 20.4684" stroke="#00214E" stroke-width="0.191176"/>
<path d="M30.7659 21.5872C32.6277 20.6377 34.8158 20.5676 36.7345 21.396" stroke="#00214E" stroke-width="0.191176"/>
<path d="M37.7305 25.0005L40.6249 24.7539" stroke="#FEFEFE" stroke-width="0.191176"/>
<path d="M57.848 51.705C45.0682 61.5451 27.2427 61.4664 14.5503 51.5138L23.853 47.1531C24.296 46.9448 24.7212 46.7006 25.1243 46.4228C25.2466 46.3387 25.369 46.2507 25.4856 46.1589C26.4981 45.3843 27.3314 44.4003 27.9289 43.2741C28.3805 42.4088 28.6805 41.4725 28.8159 40.5059C28.9509 40.6367 29.0926 40.7605 29.2403 40.8767C30.4125 41.7436 31.6847 42.4663 33.0294 43.0294C33.6823 43.3017 34.3499 43.5372 35.0292 43.7348C37.0755 44.3315 39.2121 44.5575 41.338 44.402C41.6324 44.3791 41.9287 44.3504 42.2231 44.3294L42.2518 45.3006V45.356L44.565 46.2966L57.848 51.705Z" fill="url(#paint0_linear_1969_13080)"/>
<path d="M34.1421 31.1743C34.1949 31.0908 34.2802 31.033 34.3774 31.0148C34.4746 30.9967 34.575 31.0199 34.6544 31.0788C35.0521 31.3579 35.7786 31.9505 36.8109 32.157C38.218 32.4361 39.4377 31.874 39.7302 32.2354C39.8946 32.4399 39.6939 32.6904 39.3096 33.0001C38.4966 33.6089 37.4721 33.8633 36.4687 33.7055C35.1152 33.4513 34.0981 31.8836 34.0981 31.3292C34.0997 31.2747 34.1148 31.2215 34.1421 31.1743Z" fill="#FEFEFE"/>
<defs>
<linearGradient id="paint0_linear_1969_13080" x1="14.5503" y1="59.0314" x2="57.848" y2="59.0314" gradientUnits="userSpaceOnUse">
<stop stop-color="#16243F"/>
<stop offset="1" stop-color="#6878B1"/>
</linearGradient>
</defs>
</svg>
