<svg width="66" height="66" viewBox="0 0 66 66" fill="none" xmlns="http://www.w3.org/2000/svg">
<path d="M37.1084 47.4649C33.5338 47.1298 29.9883 46.5349 26.5 45.6851C19.4265 43.9224 12.5862 40.8101 7.19118 35.9083C11.9515 30.9377 14.5457 28.0701 18.2794 22.2851C21.0476 17.9989 24.4506 10.4627 29.5837 8.52035C37.6246 5.47491 48.4872 8.43432 50.7718 17.4808C51.7391 21.3043 51.7754 25.3037 51.2268 29.1923C50.9802 30.9453 49.206 48.0595 48.1871 48.0442C44.4916 47.9811 40.7866 47.8301 37.1084 47.4649Z" fill="#F2D4CF"/>
<path d="M58.7476 51.8525C45.9678 61.6926 28.1423 61.6139 15.45 51.6613L24.7526 47.3006C25.0373 47.1659 25.3149 47.0166 25.5842 46.8532L25.7983 46.7194C25.8748 46.6716 25.9494 46.6219 26.0239 46.5703C27.1976 45.7606 28.1594 44.6807 28.8285 43.4216C29.5932 41.9782 29.8455 40.3838 29.857 38.7588C29.857 37.6653 29.7977 36.5717 29.7863 35.4763C29.7786 34.8709 29.7723 34.2649 29.7672 33.6582L30.1495 33.8494L31.1436 34.3636L36.9344 35.3482L42.8838 36.3614L43.0635 42.4791L43.1533 45.5131L45.3461 46.4059L47.0667 47.1017L58.7476 51.8525Z" fill="#F2A196"/>
<path d="M43.0405 40.9289C42.5205 41.25 42.0292 41.4011 41.5991 41.3552C38.7716 41.0512 33.2561 38.8355 29.7844 34.7347C29.7844 34.5334 29.7805 34.3326 29.7729 34.1325C29.7653 33.5259 29.7589 32.9198 29.7538 32.3145L30.1361 32.5056L31.1303 33.0199L36.9172 34.0025L42.8666 35.0158L43.0405 40.9289Z" fill="#E88870"/>
<circle cx="24.9897" cy="27.5391" r="3.25" fill="#F2A196"/>
<circle cx="26.1367" cy="27.1562" r="3.25" fill="#E88870"/>
<path d="M47.0859 22.6169C49.3322 30.3958 44.5623 39.7979 41.6297 39.7979C37.615 39.7979 27.865 36.5919 25.6225 28.8129C23.38 21.0339 26.3547 13.3429 32.2812 11.6357C38.2076 9.92847 44.8338 14.8398 47.0859 22.6169Z" fill="#F2A196"/>
<circle cx="34.9767" cy="25.0896" r="2.89824" fill="#00214E"/>
<circle cx="44.7955" cy="24.6228" r="2.89824" fill="#00214E"/>
<path d="M41.0944 12.2177C40.2704 15.7947 38.4753 18.8305 35.1947 21.0405C31.6541 23.4876 27.5859 23.8374 23.5081 24.6461C23.6113 22.1398 23.6667 19.4557 24.9591 17.2189C26.4264 14.7379 28.5686 12.725 31.136 11.4148C33.9673 9.9523 38.3472 8.51848 41.5265 9.53171C41.4395 10.4353 41.2952 11.3325 41.0944 12.2177Z" fill="#F2D4CF"/>
<path d="M40.0123 22.9805C39.997 23.0474 41.5264 29.165 41.5264 29.165H39.1367" stroke="#00214E" stroke-width="0.191176"/>
<path d="M42.2032 21.0267C43.5546 20.3406 45.1166 20.195 46.5716 20.6195" stroke="#00214E" stroke-width="0.191176"/>
<path d="M31.6675 21.7347C33.5299 20.7851 35.7186 20.7151 37.6379 21.5435" stroke="#00214E" stroke-width="0.191176"/>
<path d="M37.3206 25.2586L42.2032 24.8418" stroke="#00214E" stroke-width="0.191176"/>
<path d="M58.7476 51.8534C45.9678 61.6935 28.1423 61.6148 15.45 51.6622L24.7526 47.3015C25.1956 47.0932 25.6208 46.849 26.0239 46.5712C26.1463 46.4871 26.2686 46.3991 26.3852 46.3074C27.3977 45.5327 28.2311 44.5487 28.8285 43.4225C29.2801 42.5572 29.5802 41.6209 29.7155 40.6543C29.8506 40.7851 29.9922 40.9089 30.14 41.0252C31.3127 41.8928 32.5855 42.6162 33.931 43.1797C34.5838 43.4521 35.2515 43.6876 35.9307 43.8852C37.977 44.4819 40.1136 44.7078 42.2395 44.5524C42.5339 44.5294 42.8302 44.5008 43.1247 44.4797L43.1533 45.4509V45.514L45.4666 46.4546L58.7476 51.8534Z" fill="#4C211C"/>
<path d="M35.0417 31.326C35.0942 31.2416 35.1797 31.183 35.2775 31.1644C35.3752 31.1459 35.4762 31.1691 35.556 31.2285C35.9517 31.5096 36.6782 32.1003 37.7105 32.3068C39.1176 32.5859 40.3392 32.0238 40.6298 32.3871C40.7942 32.5916 40.5935 32.8401 40.2092 33.1613C39.396 33.7681 38.3727 34.0217 37.3702 33.8649C36.0148 33.6125 34.9997 32.0429 34.9997 31.4885C34.9987 31.4316 35.0133 31.3754 35.0417 31.326Z" fill="#FEFEFE"/>
</svg>
