<svg width="101" height="133" viewBox="0 0 101 133" fill="none" xmlns="http://www.w3.org/2000/svg">
<g id="Artboard 75">
<path id="Path" d="M92.6543 40.9397C92.6543 44.4118 88.7278 47.3235 87.8719 50.5265C86.9896 53.8441 88.9043 58.322 87.2278 61.225C85.5513 64.1279 80.6675 64.7544 78.2807 67.1235C75.894 69.4926 75.3205 74.3676 72.3778 76.0706C69.4352 77.7735 64.9969 75.8323 61.6837 76.7191C58.4807 77.575 55.569 81.5015 52.0925 81.5015C48.616 81.5015 45.7087 77.575 42.5057 76.7191C39.1925 75.8367 34.7102 77.7515 31.8116 76.0706C28.9131 74.3897 28.2822 69.5147 25.9087 67.1235C23.5352 64.7323 18.6646 64.1676 16.9616 61.225C15.2587 58.2823 17.1999 53.8441 16.3175 50.5265C15.4616 47.3235 11.5352 44.4118 11.5352 40.9397C11.5352 37.4676 15.4616 34.5559 16.3175 31.3529C17.1999 28.0353 15.2852 23.5573 16.9616 20.6544C18.6381 17.7515 23.5219 17.125 25.9087 14.7559C28.2955 12.3868 28.8646 7.51175 31.8116 5.80881C34.7587 4.10587 39.1925 6.04705 42.5057 5.16028C45.7087 4.3044 48.6204 0.37793 52.0925 0.37793C55.5646 0.37793 58.4807 4.3044 61.6837 5.16028C64.9969 6.04264 69.4749 4.12793 72.3778 5.80881C75.2807 7.48969 75.9072 12.3647 78.2807 14.7559C80.6543 17.147 85.5249 17.7118 87.2278 20.6544C88.9307 23.597 86.9852 28.0353 87.8719 31.3529C88.7278 34.5559 92.6543 37.4676 92.6543 40.9397Z" fill="#00214E"/>
<circle id="Oval" cx="29.2749" cy="61.1104" r="7.5" fill="#E18477"/>
<circle id="Oval_2" cx="31.8601" cy="60.6692" r="7.05882" fill="#A76962"/>
<path id="Path_2" d="M100.565 115.455C71.0728 138.162 29.9371 137.981 0.646973 115.013L22.1146 104.95C23.137 104.47 24.1182 103.906 25.0484 103.265C25.3308 103.071 25.6131 102.868 25.8823 102.656C28.2187 100.868 30.1419 98.5975 31.5205 95.9987C33.2852 92.6678 33.8676 88.9884 33.894 85.2384C33.894 82.7148 33.7573 80.1913 33.7308 77.6634C33.7132 76.2663 33.6984 74.8678 33.6867 73.4678L34.569 73.9089L36.8543 75.1178L37.9176 75.2987L50.2176 77.3898L63.947 79.7281L64.3617 93.8457L64.5646 100.702V100.847L69.9029 103.018L100.565 115.455Z" fill="#E18477"/>
<path id="Path_3" d="M64.5116 99.1092L63.8322 99.1798C57.1928 99.7619 50.6327 97.3989 45.8896 92.7166L33.8101 78.3739C33.7704 77.0945 33.7219 78.3739 33.7087 77.0901C33.691 75.6931 33.6763 74.2945 33.6646 72.8945L34.5469 73.3357L36.841 74.5225L37.9043 74.7034L50.2043 76.7945L63.9337 79.1328L64.3484 93.2504L64.5116 99.1092Z" fill="#A76962"/>
<path id="Path_4" d="M31.5295 45.846C31.181 46.2872 30.8722 47.1475 30.5413 48.5416C29.7781 51.7754 33.1222 73.0092 33.7619 79.2563L49.8295 91.1063C55.1695 95.093 61.9903 96.5349 68.4869 95.0504C71.0766 94.4372 72.7178 94.0401 73.8869 91.9622C76.1457 87.9916 81.6913 74.4078 82.0531 64.8254C82.1545 62.1078 82.0884 57.9607 80.4119 55.6401C79.5957 54.5151 79.1766 54.4931 79.4722 52.9004C79.7678 51.3078 80.2134 49.6048 80.5795 47.9548C81.5898 43.3975 82.3972 38.2489 80.9369 33.7136C80.1604 31.2872 78.7884 29.6813 76.8384 28.1239C74.756 26.4563 73.8957 26.5357 72.6472 29.0063C71.8045 30.6828 70.9575 32.0945 69.2501 33.0475C66.7751 34.4195 65.0898 33.5283 62.6325 33.3386C60.4795 33.1754 60.7089 34.8386 60.2369 36.4269C59.7481 38.0941 58.6915 39.5378 57.2501 40.5078C54.5709 42.2461 51.1247 42.265 48.4266 40.5563C48.0606 40.2937 47.6197 40.156 47.1692 40.1636C45.6957 40.2431 45.6295 42.0122 45.2942 43.2828C44.5839 45.9298 41.4913 47.3945 38.7428 47.1828C34.2604 46.8475 32.6634 44.3504 31.5295 45.846Z" fill="#E18477"/>
<path id="Path_5" d="M66.9379 53.7383C67.0591 55.4521 67.3547 57.1491 67.8203 58.803C68.2615 60.2633 68.9321 61.1721 69.8144 62.4295C70.119 62.8446 70.3835 63.2878 70.6041 63.753C71.7688 66.3736 70.2203 69.2809 67.2732 69.2809H65.4512" stroke="#00214E"/>
<path id="Path_6" d="M54.1309 73.6045C56.2519 75.9701 59.1571 77.4886 62.3103 77.8795" stroke="#00214E"/>
<path id="Path_7" d="M45.894 48.832C49.9783 47.9886 54.1792 47.8707 58.3043 48.4834" stroke="#00214E"/>
<path id="Path_8" d="M71.9453 48.8804C74.468 48.2925 77.0686 48.1122 79.6483 48.3466" stroke="#00214E"/>
<path id="Path_9" d="M100.565 115.455C71.0728 138.163 29.9371 137.981 0.646973 115.014L22.1146 104.95C23.137 104.47 24.1182 103.906 25.0484 103.265C25.3308 103.071 25.6131 102.868 25.8823 102.656C36.272 110.05 50.4514 114.714 62.7161 109.194C65.6367 107.871 68.319 105.736 69.9073 102.992L100.565 115.455Z" fill="url(#paint0_linear_622_434)"/>
<path id="Path_10" d="M59.5707 66.1748C58.9182 66.5163 58.6088 67.2801 58.8397 67.9794C59.0707 68.6788 59.774 69.1081 60.5016 68.9939" stroke="#00214E"/>
<path id="Path_11" d="M52.3704 53.0283C55.066 53.0283 55.066 57.1666 52.3704 57.1886H52.2513C49.5601 57.1666 49.5601 53.0504 52.2513 53.0283H52.3704Z" fill="#00214E"/>
<path id="Path_12" d="M74.5485 52.7363C77.0456 52.7363 77.0456 56.5746 74.5485 56.5966H74.4338C71.9368 56.5746 71.9368 52.7584 74.4338 52.7363H74.5485Z" fill="#00214E"/>
</g>
<defs>
<linearGradient id="paint0_linear_622_434" x1="0.646973" y1="132.36" x2="100.565" y2="132.36" gradientUnits="userSpaceOnUse">
<stop stop-color="#315676"/>
<stop offset="1" stop-color="#E1B9E0"/>
</linearGradient>
</defs>
</svg>
