<svg width="100" height="101" viewBox="0 0 100 101" fill="none" xmlns="http://www.w3.org/2000/svg">
<circle cx="47.2237" cy="15.005" r="9.02059" fill="url(#paint0_linear_1940_17256)"/>
<path d="M55.0179 63.9583C50.3062 63.8766 45.6071 63.446 40.9591 62.6701C31.7002 61.123 22.6355 58.1672 14.412 53.6113C13.9238 53.3378 13.4355 53.0613 12.9414 52.7789C20.2326 45.8583 25.6443 37.4848 30.2179 28.6025C33.512 22.1936 35.2179 17.9672 42.3326 15.2701C54.7032 10.5848 71.4149 15.1407 74.9326 29.0583C76.4179 34.9407 76.4738 41.0907 75.6296 47.076C74.8149 52.8642 72.6708 64.0113 72.6708 64.0113C72.6708 64.0113 57.3267 63.9995 55.0179 63.9583Z" fill="url(#paint1_linear_1940_17256)"/>
<path d="M87.2622 82.7812C67.601 97.9198 40.1771 97.7987 20.6504 82.4871L34.9622 75.7783C35.4002 75.5711 35.8273 75.3414 36.2416 75.09L36.571 74.8841C36.6886 74.8106 36.8033 74.7341 36.918 74.6547C38.724 73.4082 40.2038 71.7458 41.2327 69.8077C42.4092 67.5871 42.7975 65.1341 42.8151 62.6341C42.8151 61.2606 42.7592 59.8871 42.7239 58.5165C42.7239 58.2067 42.718 57.8979 42.7063 57.59C42.6945 56.6567 42.6847 55.7243 42.6769 54.793H42.6975L43.2592 55.0871L44.7886 55.8783L53.6975 57.393L62.8504 58.9518L63.0592 66.0106L63.118 68.0341V68.3489L63.2563 73.0165L66.6298 74.39L69.2769 75.4606L87.2622 82.7812Z" fill="#FEC8C1"/>
<path d="M63.0591 66.0167C62.4252 66.4508 61.6679 66.6685 60.9003 66.6373C56.5503 66.1697 48.065 62.7608 42.7238 56.452C42.7238 56.1422 42.7179 55.8334 42.7061 55.5255V54.7991L43.2679 55.0932L44.7973 55.8844L53.7061 57.3991L62.8591 58.9579L63.0591 66.0167Z" fill="#F9B09E"/>
<circle cx="35.3203" cy="45.375" r="5" fill="#FEC8C1"/>
<circle cx="37.0857" cy="44.7871" r="5" fill="#F9B09E"/>
<path d="M69.3038 37.8051C72.7597 49.7698 65.4215 64.2375 60.9097 64.2375C54.7332 64.2375 39.7332 59.3022 36.2832 47.3375C32.8332 35.3728 37.4097 23.5375 46.5274 20.9051C55.645 18.2728 65.8509 25.8492 69.3038 37.8051Z" fill="#FEC8C1"/>
<path d="M50.7268 40.291C52.5209 40.3057 52.5209 43.0469 50.7268 43.0616H50.6444C48.8503 43.0469 48.8503 40.3057 50.6444 40.291H50.7238H50.7268Z" fill="#00214E"/>
<path d="M65.5086 39.1621C67.1762 39.1768 67.1762 41.7209 65.5086 41.7356H65.4351C63.7703 41.7356 63.7703 39.1768 65.4351 39.1621H65.5086Z" fill="#00214E"/>
<path d="M57.9211 21.8961C56.6534 27.3961 53.8917 32.0667 48.8446 35.4697C43.3976 39.2403 37.6476 41.0579 31.374 42.3079C31.5328 38.452 31.1093 33.0285 33.0976 29.5903C35.3541 25.7727 38.65 22.6757 42.6005 20.6608C46.9564 18.4108 53.6946 16.205 58.5887 17.7638C58.4526 19.1538 58.2297 20.534 57.9211 21.8961Z" fill="url(#paint2_linear_1940_17256)"/>
<path d="M58.433 38.3652C58.4095 38.4652 60.7624 47.877 60.7624 47.877H57.0859" stroke="#00214E" stroke-width="0.294118"/>
<path d="M61.8029 35.3605C63.88 34.299 66.2843 34.0717 68.5235 34.7252" stroke="#00214E" stroke-width="0.294118"/>
<path d="M45.5947 36.4372C48.4603 34.9776 51.827 34.8698 54.78 36.1431" stroke="#00214E" stroke-width="0.294118"/>
<path d="M87.2593 82.7813C67.5982 97.9199 40.1743 97.7988 20.6476 82.4872L34.9593 75.7783C35.6409 75.4579 36.2951 75.0822 36.9152 74.6548C37.1035 74.5254 37.2917 74.3901 37.4711 74.2489C39.0301 73.0566 40.3133 71.5417 41.2329 69.8078C41.9261 68.4782 42.3866 67.0398 42.5946 65.5548C42.8024 65.7561 43.0203 65.9465 43.2476 66.1254C45.051 67.459 47.0082 68.5709 49.077 69.4372C50.0814 69.8561 51.1085 70.2185 52.1535 70.5225C55.3017 71.4405 58.5887 71.7881 61.8593 71.5489C62.3123 71.5136 62.7682 71.4695 63.2211 71.4372L63.2652 72.9313V73.0283L66.8241 74.4754L87.2593 82.7813Z" fill="#6C3928"/>
<path d="M54.4814 54.7803C54.5455 54.7995 54.6487 54.8128 54.7662 54.817C54.8837 54.8211 55.005 54.8158 55.1011 54.8022C55.578 54.738 56.4534 54.6017 57.6975 54.5547C59.3931 54.49 60.8653 54.6197 61.2155 54.5362C61.4136 54.4891 61.1717 54.4315 60.7086 54.3581C59.7291 54.2183 58.4958 54.1598 57.2874 54.1958C55.654 54.2543 54.4307 54.6149 54.4307 54.7429C54.4299 54.756 54.4474 54.7689 54.4814 54.7803Z" fill="#0A0A0A"/>
<defs>
<linearGradient id="paint0_linear_1940_17256" x1="38.2031" y1="24.027" x2="56.2472" y2="24.027" gradientUnits="userSpaceOnUse">
<stop stop-color="#16243F"/>
<stop offset="1" stop-color="#260A01"/>
</linearGradient>
<linearGradient id="paint1_linear_1940_17256" x1="51.8544" y1="82.477" x2="78.7318" y2="39.403" gradientUnits="userSpaceOnUse">
<stop stop-color="#16243F"/>
<stop offset="1" stop-color="#260A01"/>
</linearGradient>
<linearGradient id="paint2_linear_1940_17256" x1="40.6425" y1="50.8443" x2="53.9562" y2="32.6218" gradientUnits="userSpaceOnUse">
<stop stop-color="#16243F"/>
<stop offset="1" stop-color="#260A01"/>
</linearGradient>
</defs>
</svg>
