<svg width="150" height="151" viewBox="0 0 150 151" fill="none" xmlns="http://www.w3.org/2000/svg">
<path d="M81.999 96.3561C77.4108 96.2767 72.8181 96.0561 68.049 95.7649C62.1063 95.3988 54.8843 96.8679 49.2108 94.5914C43.7049 92.3855 40.1975 88.887 36.5799 84.4443C34.6961 82.1458 31.7887 80.9767 28.9696 80.0326C26.1505 79.0885 23.2078 78.2193 20.9402 76.2958C18.6725 74.3723 17.2916 71.0326 18.5887 68.3546C21.7784 61.7767 32.1549 63.9738 32.1769 54.0473C32.1769 50.6723 30.6725 46.8914 32.6755 44.1738C33.3547 43.3514 34.1842 42.6657 35.1196 42.1532C39.6637 39.3517 45.5225 39.6252 50.0314 36.8591C55.1225 33.7091 54.0637 27.7488 58.599 23.5929C60.1137 22.273 61.7505 21.1001 63.4872 20.0899C75.3637 12.7399 87.6416 13.4282 99.8093 20.4296C106.317 24.1841 111.968 30.9164 114.628 37.9046C117.58 45.687 111.756 54.3385 116.658 61.1061C117.77 62.6414 119.243 63.8855 120.448 65.3502C125.495 71.4826 117.725 75.259 114.54 79.4238C111.986 82.7723 112.378 87.6693 109.925 91.0929C107.08 95.0635 101.543 95.7296 96.6505 96.0341C91.6255 96.3649 86.8122 96.4399 81.999 96.3561Z" fill="#845161"/>
<path d="M132.341 119.174C102.85 141.882 61.7139 141.701 32.4238 118.733L53.8915 108.67C54.5486 108.359 55.1892 108.015 55.8106 107.637L56.3047 107.329C56.4812 107.218 56.6532 107.104 56.8253 106.985C59.5337 105.116 61.7534 102.624 63.2974 99.7183C65.0621 96.3875 65.6444 92.7081 65.6709 88.9581C65.6709 86.8978 65.5871 84.8375 65.5341 82.7816C65.5341 82.3169 65.5253 81.8536 65.5077 81.3919C65.49 79.9948 65.4753 78.5963 65.4635 77.1963L66.3459 77.6375L68.64 78.8242L82.0032 81.0963L95.7327 83.4345L96.1341 97.0669V97.5389L96.3415 104.54L101.402 106.601L105.372 108.207L132.341 119.174Z" fill="#F2D4CF"/>
<path d="M96.1256 93.9741C94.9256 94.7153 93.7918 95.0638 92.7992 94.958C86.2742 94.2565 73.5462 89.1433 65.5345 79.68C65.5345 79.2153 65.5256 78.7521 65.508 78.2903C65.4903 76.8933 65.4756 75.4947 65.4639 74.0947L66.3462 74.5359L68.6403 75.7227L82.0036 77.9947L95.733 80.333L96.1256 93.9741Z" fill="#DAAEA8"/>
<circle cx="54.4341" cy="63.0649" r="7.5" fill="#F2D4CF"/>
<circle cx="57.0811" cy="62.1826" r="7.5" fill="#DAAEA8"/>
<path d="M105.408 51.7093C110.587 69.6607 99.5797 91.3578 92.8165 91.3578C83.5518 91.3578 61.0518 83.9549 55.8768 66.0078C50.7018 48.0607 57.5797 30.3078 71.2562 26.3593C84.9326 22.4107 100.224 33.7622 105.408 51.7093Z" fill="#F2D4CF"/>
<path d="M77.5428 55.437C80.234 55.437 80.234 59.5752 77.5428 59.5929H77.4193C74.7281 59.5929 74.7281 55.4591 77.4193 55.437H77.5428Z" fill="#00214E"/>
<path d="M99.7165 53.7432C102.214 53.7432 102.214 57.5814 99.7165 57.6035H99.6018C97.1047 57.5814 97.1047 53.7652 99.6018 53.7432H99.7165Z" fill="#00214E"/>
<circle cx="77.5342" cy="57.5503" r="8.38235" stroke="white" stroke-width="0.441176"/>
<circle cx="100.979" cy="56.2271" r="8.38235" stroke="white" stroke-width="0.441176"/>
<path d="M88.3298 27.8461C86.4328 36.1005 82.2901 43.1064 74.7151 48.2064C66.549 53.8623 57.9196 56.5888 48.5137 58.4682C48.7519 52.6844 48.1166 44.5491 51.099 39.3873C54.4838 33.6609 59.4276 29.0154 65.3534 25.9932C71.8828 22.6182 81.9901 19.3094 89.3313 21.652C89.1291 23.7358 88.7946 25.8047 88.3298 27.8461Z" fill="#845161"/>
<path d="M89.1016 52.5474C89.0663 52.6974 92.5958 66.815 92.5958 66.815H87.0811" stroke="#00214E" stroke-width="0.441176"/>
<path d="M94.1577 48.0519C97.2772 46.4521 100.891 46.108 104.256 47.0901" stroke="#00214E" stroke-width="0.441176"/>
<path d="M69.8442 49.6712C74.1406 47.4802 79.19 47.3184 83.6178 49.23" stroke="#00214E" stroke-width="0.441176"/>
<path d="M85.9165 57.5506L92.5959 56.9814" stroke="white" stroke-width="0.441176"/>
<path d="M132.341 119.174C102.85 141.882 61.7139 141.7 32.4238 118.733L53.8915 108.67C54.9138 108.189 55.8951 107.626 56.8253 106.984C57.1077 106.79 57.39 106.587 57.6591 106.376C59.9955 104.588 61.9187 102.317 63.2974 99.7183C64.3396 97.7215 65.032 95.5608 65.3444 93.3301C65.656 93.632 65.9829 93.9177 66.3238 94.186C69.0289 96.1863 71.9647 97.8541 75.0679 99.1536C76.5746 99.7821 78.1152 100.326 79.6827 100.782C84.405 102.159 89.3355 102.68 94.2415 102.321C94.9209 102.268 95.6047 102.202 96.2841 102.154L96.3503 104.395V104.523L101.689 106.693L132.341 119.174Z" fill="url(#paint0_linear_574_2222)"/>
<path d="M77.6357 71.7961C77.7576 71.6032 77.9544 71.4698 78.1787 71.428C78.4031 71.3861 78.6347 71.4396 78.818 71.5755C79.7357 72.2196 81.4121 73.5873 83.7945 74.0638C87.0415 74.7079 89.8562 73.4108 90.5312 74.2446C90.9107 74.7167 90.4474 75.2946 89.5607 76.0093C87.6845 77.4142 85.3202 78.0013 83.0048 77.6373C79.8812 77.0505 77.5342 73.4329 77.5342 72.1535C77.5379 72.0278 77.5727 71.905 77.6357 71.7961Z" fill="white"/>
<defs>
<linearGradient id="paint0_linear_574_2222" x1="32.4238" y1="136.081" x2="132.341" y2="136.081" gradientUnits="userSpaceOnUse">
<stop stop-color="#16243F"/>
<stop offset="1" stop-color="#638A59"/>
</linearGradient>
</defs>
</svg>
