<svg width="115" height="122" viewBox="0 0 115 122" fill="none" xmlns="http://www.w3.org/2000/svg">
<path d="M63.999 81.7819C59.4108 81.7025 54.8181 81.4819 50.049 81.1907C44.1063 80.8245 36.8843 82.2937 31.2108 80.0172C25.7049 77.8113 22.1975 74.3128 18.5799 69.8701C16.6961 67.5716 13.7887 66.4025 10.9696 65.4584C8.15047 64.5142 5.20782 63.6451 2.94017 61.7216C0.672526 59.7981 -0.708356 56.4584 0.588703 53.7804C3.77841 47.2025 14.1549 49.3995 14.1769 39.4731C14.1769 36.0981 12.6725 32.3172 14.6755 29.5995C15.3547 28.7772 16.1842 28.0915 17.1196 27.579C21.6637 24.7775 27.5225 25.051 32.0314 22.2848C37.1225 19.1348 36.0637 13.1745 40.599 9.01866C42.1137 7.69878 43.7505 6.52586 45.4872 5.51572C57.3637 -1.83428 69.6416 -1.14605 81.8093 5.85542C88.3166 9.60983 93.9681 16.3422 96.6284 23.3304C99.5799 31.1128 93.7564 39.7642 98.6578 46.5319C99.7696 48.0672 101.243 49.3113 102.448 50.776C107.495 56.9084 99.7255 60.6848 96.5402 64.8495C93.9858 68.1981 94.3784 73.0951 91.9255 76.5187C89.0799 80.4892 83.5431 81.1554 78.6505 81.4598C73.6255 81.7907 68.8122 81.8657 63.999 81.7819Z" fill="#845161"/>
<path d="M114.341 104.6C84.8497 127.308 43.7139 127.126 14.4238 104.159L35.8915 94.0956C36.5486 93.7849 37.1892 93.4403 37.8106 93.0632L38.3047 92.7544C38.4812 92.6441 38.6532 92.5294 38.8253 92.4103C41.5337 90.5418 43.7534 88.0498 45.2974 85.1441C47.0621 81.8132 47.6444 78.1338 47.6709 74.3838C47.6709 72.3235 47.5871 70.2632 47.5341 68.2074C47.5341 67.7427 47.5253 67.2794 47.5077 66.8177C47.49 65.4206 47.4753 64.0221 47.4635 62.6221L48.3459 63.0632L50.64 64.25L64.0032 66.5221L77.7327 68.8603L78.1341 82.4927V82.9647L78.3415 89.9662L83.4018 92.0265L87.3724 93.6324L114.341 104.6Z" fill="#F2D4CF"/>
<path d="M78.1256 79.3999C76.9256 80.1411 75.7918 80.4896 74.7992 80.3837C68.2742 79.6823 55.5462 74.569 47.5345 65.1058C47.5345 64.6411 47.5256 64.1779 47.508 63.7161C47.4903 62.319 47.4756 60.9205 47.4639 59.5205L48.3462 59.9617L50.6403 61.1484L64.0036 63.4205L77.733 65.7587L78.1256 79.3999Z" fill="#DAAEA8"/>
<circle cx="36.4341" cy="48.4907" r="7.5" fill="#F2D4CF"/>
<circle cx="39.0811" cy="47.6084" r="7.5" fill="#DAAEA8"/>
<path d="M87.4076 37.135C92.5871 55.0865 81.5797 76.7836 74.8165 76.7836C65.5518 76.7836 43.0518 69.3806 37.8768 51.4336C32.7018 33.4865 39.5797 15.7336 53.2562 11.785C66.9326 7.83652 82.2238 19.188 87.4076 37.135Z" fill="#F2D4CF"/>
<path d="M59.5428 40.8628C62.234 40.8628 62.234 45.001 59.5428 45.0187H59.4193C56.7281 45.0187 56.7281 40.8849 59.4193 40.8628H59.5428Z" fill="#00214E"/>
<path d="M81.7165 39.1689C84.2136 39.1689 84.2136 43.0072 81.7165 43.0292H81.6018C79.1047 43.0072 79.1047 39.191 81.6018 39.1689H81.7165Z" fill="#00214E"/>
<circle cx="59.5342" cy="42.9761" r="8.38235" stroke="white" stroke-width="0.441176"/>
<circle cx="82.9785" cy="41.6529" r="8.38235" stroke="white" stroke-width="0.441176"/>
<path d="M70.3298 13.2719C68.4328 21.5263 64.2901 28.5322 56.7151 33.6322C48.549 39.2881 39.9196 42.0146 30.5137 43.894C30.7519 38.1101 30.1166 29.9748 33.099 24.8131C36.4838 19.0867 41.4276 14.4412 47.3534 11.419C53.8828 8.04396 63.9901 4.73514 71.3313 7.07779C71.1291 9.16163 70.7946 11.2305 70.3298 13.2719V13.2719Z" fill="#845161"/>
<path d="M71.1016 37.9731C71.0663 38.1231 74.5958 52.2408 74.5958 52.2408H69.0811" stroke="#00214E" stroke-width="0.441176"/>
<path d="M76.1577 33.4777C79.2772 31.8779 82.8909 31.5338 86.2562 32.5159" stroke="#00214E" stroke-width="0.441176"/>
<path d="M51.8442 35.097C56.1406 32.9059 61.19 32.7442 65.6178 34.6558" stroke="#00214E" stroke-width="0.441176"/>
<path d="M67.9165 42.9763L74.5959 42.4072" stroke="white" stroke-width="0.441176"/>
<path d="M114.341 104.6C84.8497 127.308 43.7139 127.126 14.4238 104.159L35.8915 94.0956C36.9138 93.615 37.8951 93.0513 38.8253 92.4103C39.1077 92.2162 39.39 92.0132 39.6591 91.8014C41.9955 90.0137 43.9187 87.743 45.2974 85.1441C46.3396 83.1472 47.032 80.9866 47.3444 78.7559C47.656 79.0578 47.9829 79.3434 48.3238 79.6117C51.0289 81.6121 53.9647 83.2799 57.0679 84.5794C58.5746 85.2078 60.1152 85.7513 61.6827 86.2073C66.405 87.5843 71.3355 88.1058 76.2415 87.747C76.9209 87.6941 77.6047 87.6279 78.2841 87.5794L78.3503 89.8206V89.9485L83.6885 92.1191L114.341 104.6Z" fill="url(#paint0_linear_690_955)"/>
<path d="M59.6357 57.2219C59.7576 57.029 59.9544 56.8956 60.1787 56.8538C60.4031 56.8119 60.6347 56.8654 60.818 57.0013C61.7357 57.6454 63.4121 59.0131 65.7945 59.4895C69.0415 60.1337 71.8562 58.8366 72.5312 59.6704C72.9106 60.1425 72.4474 60.7204 71.5607 61.4351C69.6845 62.84 67.3202 63.4271 65.0048 63.0631C61.8812 62.4763 59.5342 58.8587 59.5342 57.5792C59.5379 57.4536 59.5727 57.3308 59.6357 57.2219Z" fill="white"/>
<defs>
<linearGradient id="paint0_linear_690_955" x1="14.4238" y1="121.507" x2="114.341" y2="121.507" gradientUnits="userSpaceOnUse">
<stop stop-color="#16243F"/>
<stop offset="1" stop-color="#638A59"/>
</linearGradient>
</defs>
</svg>
