<svg width="163" height="142" viewBox="0 0 163 142" fill="none" xmlns="http://www.w3.org/2000/svg">
<path d="M143.953 70.9939C143.953 102.42 117.234 127.975 84.173 127.975C51.1123 127.975 24.3927 102.42 24.3927 70.9939C24.3927 39.568 51.1123 14.0127 84.173 14.0127C117.234 14.0127 143.953 39.568 143.953 70.9939Z" stroke="white" stroke-width="2"/>
<path d="M1 71.7109C22.3405 58.3731 49.0162 58.3731 81.027 71.7109C113.038 85.0487 139.713 85.0487 161.054 71.7109" stroke="white" stroke-width="2" stroke-linecap="round"/>
<path d="M118.485 55.8572V69.2014H116.73V59.2511L112.295 69.2014H111.061L106.607 59.2318V69.2014H104.852V55.8572H106.742L111.678 66.8874L116.615 55.8572H118.485ZM132.029 69.2014H130.274L123.216 58.499V69.2014H121.461V55.7415H123.216L130.274 66.4246V55.7415H132.029V69.2014Z" fill="white"/>
</svg>
