<svg width="46" height="40" viewBox="0 0 46 40" fill="none" xmlns="http://www.w3.org/2000/svg">
<g clip-path="url(#clip0_116_710)">
<path d="M41.4315 37.1428H4.28864C1.91722 37.1428 0.00292969 35.2285 0.00292969 32.8571V7.14283C0.00292969 4.7714 1.91722 2.85712 4.28864 2.85712H41.4315C43.8029 2.85712 45.7172 4.7714 45.7172 7.14283V32.8571C45.7172 35.2285 43.8029 37.1428 41.4315 37.1428ZM4.28864 5.71426C3.48864 5.71426 2.86007 6.34283 2.86007 7.14283V32.8571C2.86007 33.6571 3.48864 34.2857 4.28864 34.2857H41.4315C42.2315 34.2857 42.8601 33.6571 42.8601 32.8571V7.14283C42.8601 6.34283 42.2315 5.71426 41.4315 5.71426H4.28864Z" fill="black"/>
<path d="M22.8599 25.6C20.8599 25.6 19.0314 24.8 17.6599 23.3428L2.65992 7.39998C2.11707 6.82855 2.14564 5.91427 2.71707 5.37141C3.28849 4.82855 4.20278 4.85712 4.74564 5.42855L19.7456 21.3714C21.3742 23.1143 24.3456 23.1143 25.9742 21.3714L40.9742 5.45712C41.5171 4.8857 42.4314 4.85712 43.0028 5.39998C43.5742 5.94284 43.6028 6.85712 43.0599 7.42855L28.0599 23.3714C26.6885 24.8286 24.8599 25.6286 22.8599 25.6286V25.6Z" fill="black"/>
</g>
<defs>
<clipPath id="clip0_116_710">
<rect width="45.72" height="40" fill="white"/>
</clipPath>
</defs>
</svg>
