<svg width="30" height="40" viewBox="0 0 30 40" fill="none" xmlns="http://www.w3.org/2000/svg">
<g clip-path="url(#clip0_327_1528)">
<path d="M7.50071 40.0003C11.6402 40.0003 14.9998 37.0137 14.9998 33.3337V26.667H7.50071C3.36123 26.667 0.00164795 29.6537 0.00164795 33.3337C0.00164795 37.0137 3.36123 40.0003 7.50071 40.0003Z" fill="#0ACF83"/>
<path d="M0.00164795 19.9997C0.00164795 16.3197 3.36123 13.333 7.50071 13.333H14.9998V26.6663H7.50071C3.36123 26.6663 0.00164795 23.6797 0.00164795 19.9997Z" fill="#A259FF"/>
<path d="M0.00164795 6.66667C0.00164795 2.98667 3.36123 0 7.50071 0H14.9998V13.3333H7.50071C3.36123 13.3333 0.00164795 10.3467 0.00164795 6.66667Z" fill="#F24E1E"/>
<path d="M15 0H22.4991C26.6385 0 29.9981 2.98667 29.9981 6.66667C29.9981 10.3467 26.6385 13.3333 22.4991 13.3333H15V0Z" fill="#FF7262"/>
<path d="M29.9981 19.9997C29.9981 23.6797 26.6385 26.6663 22.4991 26.6663C18.3596 26.6663 15 23.6797 15 19.9997C15 16.3197 18.3596 13.333 22.4991 13.333C26.6385 13.333 29.9981 16.3197 29.9981 19.9997Z" fill="#1ABCFE"/>
</g>
<defs>
<clipPath id="clip0_327_1528">
<rect width="30" height="40" fill="white"/>
</clipPath>
</defs>
</svg>
