<svg width="40" height="40" viewBox="0 0 40 40" fill="none" xmlns="http://www.w3.org/2000/svg">
<g clip-path="url(#clip0_116_713)">
<path d="M31.3867 23.6914C31.9596 23.6914 32.5065 23.7956 33.0273 24.0039C33.5482 24.2122 34.0169 24.5247 34.4336 24.9414L38.7305 29.2383C39.1341 29.6419 39.4401 30.1042 39.6484 30.625C39.8568 31.1458 39.9674 31.6992 39.9805 32.2852C39.9805 32.8581 39.8763 33.4049 39.668 33.9258C39.4596 34.4466 39.1471 34.9154 38.7305 35.332L38.457 35.6055C37.7539 36.3086 37.1094 36.9336 36.5234 37.4805C35.9375 38.0273 35.3255 38.4831 34.6875 38.8477C34.0495 39.2122 33.3398 39.4987 32.5586 39.707C31.7773 39.9154 30.8464 40.013 29.7656 40C28.138 40 26.4648 39.7461 24.7461 39.2383C23.0273 38.7305 21.3216 38.0273 19.6289 37.1289C17.9362 36.2305 16.2695 35.1628 14.6289 33.9258C12.9883 32.6888 11.4453 31.3411 10 29.8828C8.55469 28.4245 7.21354 26.875 5.97656 25.2344C4.73958 23.5938 3.6849 21.9271 2.8125 20.2344C1.9401 18.5417 1.25 16.8424 0.742188 15.1367C0.234375 13.431 -0.0130208 11.7904 0 10.2148C0 9.13411 0.0911458 8.20964 0.273438 7.44141C0.455729 6.67318 0.735677 5.97005 1.11328 5.33203C1.49089 4.69401 1.94661 4.08854 2.48047 3.51562C3.01432 2.94271 3.63932 2.29818 4.35547 1.58203L4.66797 1.26953C5.07161 0.865885 5.53385 0.553385 6.05469 0.332031C6.57552 0.110677 7.12891 0 7.71484 0C8.28776 0 8.83464 0.110677 9.35547 0.332031C9.8763 0.553385 10.3451 0.865885 10.7617 1.26953L15.0586 5.56641C15.4622 5.97005 15.7682 6.43229 15.9766 6.95312C16.1849 7.47396 16.2956 8.02734 16.3086 8.61328C16.3086 9.1862 16.2109 9.69401 16.0156 10.1367C15.8203 10.5794 15.5794 10.9896 15.293 11.3672C15.0065 11.7448 14.694 12.0768 14.3555 12.3633C14.0169 12.6497 13.6979 12.9427 13.3984 13.2422C13.099 13.5417 12.8581 13.8281 12.6758 14.1016C12.4935 14.375 12.3958 14.694 12.3828 15.0586C12.3828 15.5534 12.5586 15.9766 12.9102 16.3281L23.6719 27.0898C24.0234 27.4414 24.4466 27.6172 24.9414 27.6172C25.2799 27.6172 25.5924 27.5195 25.8789 27.3242C26.1654 27.1289 26.4583 26.888 26.7578 26.6016C27.0573 26.3151 27.3503 26.0026 27.6367 25.6641C27.9232 25.3255 28.2552 25.0065 28.6328 24.707C29.0104 24.4076 29.4141 24.1667 29.8438 23.9844C30.2734 23.8021 30.7878 23.7044 31.3867 23.6914ZM29.7656 37.5C30.7031 37.5 31.4844 37.4154 32.1094 37.2461C32.7344 37.0768 33.3073 36.8229 33.8281 36.4844C34.349 36.1458 34.8438 35.7292 35.3125 35.2344C35.7812 34.7396 36.3346 34.1797 36.9727 33.5547C37.3242 33.2031 37.5 32.7799 37.5 32.2852C37.5 32.0508 37.4089 31.7773 37.2266 31.4648C37.0443 31.1523 36.7969 30.8138 36.4844 30.4492C36.1719 30.0846 35.8398 29.7266 35.4883 29.375C35.1367 29.0234 34.7721 28.6719 34.3945 28.3203C34.0169 27.9688 33.6849 27.6628 33.3984 27.4023C33.112 27.1419 32.8711 26.9141 32.6758 26.7188C32.3242 26.3672 31.8945 26.1914 31.3867 26.1914C31.0482 26.1914 30.7357 26.2891 30.4492 26.4844C30.1628 26.6797 29.8763 26.9206 29.5898 27.207C29.3034 27.4935 29.0104 27.806 28.7109 28.1445C28.4115 28.4831 28.0729 28.8021 27.6953 29.1016C27.3177 29.401 26.9141 29.6419 26.4844 29.8242C26.0547 30.0065 25.5404 30.1042 24.9414 30.1172C24.3685 30.1172 23.8216 30.013 23.3008 29.8047C22.7799 29.5964 22.3112 29.2839 21.8945 28.8672L11.1328 18.1055C10.7292 17.7018 10.4232 17.2396 10.2148 16.7188C10.0065 16.1979 9.89583 15.6445 9.88281 15.0586C9.88281 14.4857 9.98047 13.9779 10.1758 13.5352C10.3711 13.0924 10.612 12.6823 10.8984 12.3047C11.1849 11.9271 11.4974 11.5951 11.8359 11.3086C12.1745 11.0221 12.4935 10.7227 12.793 10.4102C13.0924 10.0977 13.3333 9.8112 13.5156 9.55078C13.6979 9.29036 13.7956 8.97786 13.8086 8.61328C13.8086 8.10547 13.6328 7.67578 13.2812 7.32422C13.112 7.15495 12.8906 6.92057 12.6172 6.62109C12.3438 6.32161 12.0378 5.98958 11.6992 5.625C11.3607 5.26042 11.0091 4.89583 10.6445 4.53125C10.2799 4.16667 9.91536 3.82812 9.55078 3.51562C9.1862 3.20312 8.85417 2.96224 8.55469 2.79297C8.25521 2.6237 7.97526 2.52604 7.71484 2.5C7.22005 2.5 6.79688 2.67578 6.44531 3.02734L4.78516 4.6875C4.30339 5.16927 3.88672 5.66406 3.53516 6.17188C3.18359 6.67969 2.92318 7.24609 2.75391 7.87109C2.58464 8.49609 2.49349 9.27734 2.48047 10.2148C2.48047 11.6732 2.71484 13.1771 3.18359 14.7266C3.65234 16.276 4.3099 17.8255 5.15625 19.375C6.0026 20.9245 6.9987 22.4479 8.14453 23.9453C9.29036 25.4427 10.5404 26.8685 11.8945 28.2227C13.2487 29.5768 14.6745 30.8138 16.1719 31.9336C17.6693 33.0534 19.1927 34.0299 20.7422 34.8633C22.2917 35.6966 23.8281 36.3411 25.3516 36.7969C26.875 37.2526 28.3464 37.487 29.7656 37.5Z" fill="black"/>
</g>
<defs>
<clipPath id="clip0_116_713">
<rect width="40" height="40" fill="white"/>
</clipPath>
</defs>
</svg>
