<svg width="172" height="562" viewBox="0 0 172 562" fill="none" xmlns="http://www.w3.org/2000/svg">
<path d="M25.008 6.88V13.968C25.008 14.8107 25.2267 15.4453 25.664 15.872C26.112 16.2987 26.7307 16.512 27.52 16.512C28.32 16.512 28.9387 16.2987 29.376 15.872C29.824 15.4453 30.048 14.8107 30.048 13.968V6.88H31.872V13.936C31.872 14.8427 31.6747 15.6107 31.28 16.24C30.8853 16.8693 30.3573 17.3387 29.696 17.648C29.0347 17.9573 28.304 18.112 27.504 18.112C26.704 18.112 25.9733 17.9573 25.312 17.648C24.6613 17.3387 24.144 16.8693 23.76 16.24C23.376 15.6107 23.184 14.8427 23.184 13.936V6.88H25.008ZM38.8549 9.04C39.5482 9.04 40.1669 9.184 40.7109 9.472C41.2655 9.76 41.6975 10.1867 42.0069 10.752C42.3162 11.3173 42.4709 12 42.4709 12.8V18H40.6629V13.072C40.6629 12.2827 40.4655 11.68 40.0709 11.264C39.6762 10.8373 39.1375 10.624 38.4549 10.624C37.7722 10.624 37.2282 10.8373 36.8229 11.264C36.4282 11.68 36.2309 12.2827 36.2309 13.072V18H34.4069V9.184H36.2309V10.192C36.5295 9.82933 36.9082 9.54667 37.3669 9.344C37.8362 9.14133 38.3322 9.04 38.8549 9.04ZM48.6535 10.672H47.0215V18H45.1815V10.672H44.1415V9.184H45.1815V8.56C45.1815 7.54667 45.4482 6.81067 45.9815 6.352C46.5255 5.88267 47.3735 5.648 48.5255 5.648V7.168C47.9708 7.168 47.5815 7.27467 47.3575 7.488C47.1335 7.69067 47.0215 8.048 47.0215 8.56V9.184H48.6535V10.672ZM49.822 13.552C49.822 12.6667 50.0033 11.8827 50.366 11.2C50.7393 10.5173 51.2407 9.98933 51.87 9.616C52.51 9.232 53.214 9.04 53.982 9.04C54.6753 9.04 55.278 9.17867 55.79 9.456C56.3127 9.72267 56.7287 10.0587 57.038 10.464V9.184H58.878V18H57.038V16.688C56.7287 17.104 56.3073 17.4507 55.774 17.728C55.2407 18.0053 54.6327 18.144 53.95 18.144C53.1927 18.144 52.4993 17.952 51.87 17.568C51.2407 17.1733 50.7393 16.6293 50.366 15.936C50.0033 15.232 49.822 14.4373 49.822 13.552ZM57.038 13.584C57.038 12.976 56.91 12.448 56.654 12C56.4087 11.552 56.0833 11.2107 55.678 10.976C55.2727 10.7413 54.8353 10.624 54.366 10.624C53.8967 10.624 53.4593 10.7413 53.054 10.976C52.6487 11.2 52.318 11.536 52.062 11.984C51.8167 12.4213 51.694 12.944 51.694 13.552C51.694 14.16 51.8167 14.6933 52.062 15.152C52.318 15.6107 52.6487 15.9627 53.054 16.208C53.47 16.4427 53.9073 16.56 54.366 16.56C54.8353 16.56 55.2727 16.4427 55.678 16.208C56.0833 15.9733 56.4087 15.632 56.654 15.184C56.91 14.7253 57.038 14.192 57.038 13.584ZM72.1058 9.04C72.7991 9.04 73.4178 9.184 73.9618 9.472C74.5164 9.76 74.9484 10.1867 75.2578 10.752C75.5778 11.3173 75.7378 12 75.7378 12.8V18H73.9298V13.072C73.9298 12.2827 73.7324 11.68 73.3378 11.264C72.9431 10.8373 72.4044 10.624 71.7218 10.624C71.0391 10.624 70.4951 10.8373 70.0898 11.264C69.6951 11.68 69.4978 12.2827 69.4978 13.072V18H67.6897V13.072C67.6897 12.2827 67.4924 11.68 67.0977 11.264C66.7031 10.8373 66.1644 10.624 65.4817 10.624C64.7991 10.624 64.2551 10.8373 63.8497 11.264C63.4551 11.68 63.2577 12.2827 63.2577 13.072V18H61.4337V9.184H63.2577V10.192C63.5564 9.82933 63.9351 9.54667 64.3937 9.344C64.8524 9.14133 65.3431 9.04 65.8657 9.04C66.5697 9.04 67.1991 9.18933 67.7537 9.488C68.3084 9.78667 68.7351 10.2187 69.0337 10.784C69.3004 10.2507 69.7164 9.82933 70.2817 9.52C70.8471 9.2 71.4551 9.04 72.1058 9.04ZM79.1467 8.016C78.8161 8.016 78.5387 7.904 78.3147 7.68C78.0907 7.456 77.9787 7.17867 77.9787 6.848C77.9787 6.51733 78.0907 6.24 78.3147 6.016C78.5387 5.792 78.8161 5.68 79.1467 5.68C79.4667 5.68 79.7387 5.792 79.9627 6.016C80.1867 6.24 80.2987 6.51733 80.2987 6.848C80.2987 7.17867 80.1867 7.456 79.9627 7.68C79.7387 7.904 79.4667 8.016 79.1467 8.016ZM80.0427 9.184V18H78.2187V9.184H80.0427ZM84.4215 6.16V18H82.5975V6.16H84.4215ZM87.9042 8.016C87.5736 8.016 87.2962 7.904 87.0722 7.68C86.8482 7.456 86.7362 7.17867 86.7362 6.848C86.7362 6.51733 86.8482 6.24 87.0722 6.016C87.2962 5.792 87.5736 5.68 87.9042 5.68C88.2242 5.68 88.4962 5.792 88.7202 6.016C88.9442 6.24 89.0562 6.51733 89.0562 6.848C89.0562 7.17867 88.9442 7.456 88.7202 7.68C88.4962 7.904 88.2242 8.016 87.9042 8.016ZM88.8002 9.184V18H86.9762V9.184H88.8002ZM90.747 13.552C90.747 12.6667 90.9283 11.8827 91.291 11.2C91.6643 10.5173 92.1657 9.98933 92.795 9.616C93.435 9.232 94.139 9.04 94.907 9.04C95.6003 9.04 96.203 9.17867 96.715 9.456C97.2377 9.72267 97.6537 10.0587 97.963 10.464V9.184H99.803V18H97.963V16.688C97.6537 17.104 97.2323 17.4507 96.699 17.728C96.1657 18.0053 95.5577 18.144 94.875 18.144C94.1177 18.144 93.4243 17.952 92.795 17.568C92.1657 17.1733 91.6643 16.6293 91.291 15.936C90.9283 15.232 90.747 14.4373 90.747 13.552ZM97.963 13.584C97.963 12.976 97.835 12.448 97.579 12C97.3337 11.552 97.0083 11.2107 96.603 10.976C96.1977 10.7413 95.7603 10.624 95.291 10.624C94.8217 10.624 94.3843 10.7413 93.979 10.976C93.5737 11.2 93.243 11.536 92.987 11.984C92.7417 12.4213 92.619 12.944 92.619 13.552C92.619 14.16 92.7417 14.6933 92.987 15.152C93.243 15.6107 93.5737 15.9627 93.979 16.208C94.395 16.4427 94.8323 16.56 95.291 16.56C95.7603 16.56 96.1977 16.4427 96.603 16.208C97.0083 15.9733 97.3337 15.632 97.579 15.184C97.835 14.7253 97.963 14.192 97.963 13.584ZM104.183 10.464C104.449 10.016 104.801 9.66933 105.239 9.424C105.687 9.168 106.215 9.04 106.823 9.04V10.928H106.359C105.644 10.928 105.1 11.1093 104.727 11.472C104.364 11.8347 104.183 12.464 104.183 13.36V18H102.359V9.184H104.183V10.464ZM124.816 9.184L122.08 18H120.16L118.384 11.488L116.608 18H114.688L111.936 9.184H113.792L115.632 16.272L117.504 9.184H119.408L121.2 16.24L123.024 9.184H124.816ZM127.267 8.016C126.936 8.016 126.659 7.904 126.435 7.68C126.211 7.456 126.099 7.17867 126.099 6.848C126.099 6.51733 126.211 6.24 126.435 6.016C126.659 5.792 126.936 5.68 127.267 5.68C127.587 5.68 127.859 5.792 128.083 6.016C128.307 6.24 128.419 6.51733 128.419 6.848C128.419 7.17867 128.307 7.456 128.083 7.68C127.859 7.904 127.587 8.016 127.267 8.016ZM128.163 9.184V18H126.339V9.184H128.163ZM132.846 10.672V15.552C132.846 15.8827 132.92 16.1227 133.07 16.272C133.23 16.4107 133.496 16.48 133.87 16.48H134.99V18H133.55C132.728 18 132.099 17.808 131.662 17.424C131.224 17.04 131.006 16.416 131.006 15.552V10.672H129.966V9.184H131.006V6.992H132.846V9.184H134.99V10.672H132.846ZM141.391 9.04C142.063 9.04 142.66 9.184 143.183 9.472C143.716 9.76 144.132 10.1867 144.431 10.752C144.74 11.3173 144.895 12 144.895 12.8V18H143.087V13.072C143.087 12.2827 142.889 11.68 142.495 11.264C142.1 10.8373 141.561 10.624 140.879 10.624C140.196 10.624 139.652 10.8373 139.247 11.264C138.852 11.68 138.655 12.2827 138.655 13.072V18H136.831V6.16H138.655V10.208C138.964 9.83467 139.353 9.54667 139.823 9.344C140.303 9.14133 140.825 9.04 141.391 9.04ZM31.184 33.184V42H29.36V40.96C29.072 41.3227 28.6933 41.6107 28.224 41.824C27.7653 42.0267 27.2747 42.128 26.752 42.128C26.0587 42.128 25.4347 41.984 24.88 41.696C24.336 41.408 23.904 40.9813 23.584 40.416C23.2747 39.8507 23.12 39.168 23.12 38.368V33.184H24.928V38.096C24.928 38.8853 25.1253 39.4933 25.52 39.92C25.9147 40.336 26.4533 40.544 27.136 40.544C27.8187 40.544 28.3573 40.336 28.752 39.92C29.1573 39.4933 29.36 38.8853 29.36 38.096V33.184H31.184ZM36.9506 42.144C36.2573 42.144 35.6333 42.0213 35.0786 41.776C34.5346 41.52 34.1026 41.1787 33.7826 40.752C33.4626 40.3147 33.292 39.8293 33.2706 39.296H35.1586C35.1906 39.6693 35.3666 39.984 35.6866 40.24C36.0173 40.4853 36.428 40.608 36.9186 40.608C37.4306 40.608 37.8253 40.512 38.1026 40.32C38.3906 40.1173 38.5346 39.8613 38.5346 39.552C38.5346 39.2213 38.3746 38.976 38.0546 38.816C37.7453 38.656 37.2493 38.48 36.5666 38.288C35.9053 38.1067 35.3666 37.9307 34.9506 37.76C34.5346 37.5893 34.172 37.328 33.8626 36.976C33.564 36.624 33.4146 36.16 33.4146 35.584C33.4146 35.1147 33.5533 34.688 33.8306 34.304C34.108 33.9093 34.5026 33.6 35.0146 33.376C35.5373 33.152 36.1346 33.04 36.8066 33.04C37.8093 33.04 38.6146 33.296 39.2226 33.808C39.8413 34.3093 40.172 34.9973 40.2146 35.872H38.3906C38.3586 35.4773 38.1986 35.1627 37.9106 34.928C37.6226 34.6933 37.2333 34.576 36.7426 34.576C36.2626 34.576 35.8946 34.6667 35.6386 34.848C35.3826 35.0293 35.2546 35.2693 35.2546 35.568C35.2546 35.8027 35.34 36 35.5106 36.16C35.6813 36.32 35.8893 36.448 36.1346 36.544C36.38 36.6293 36.7426 36.7413 37.2226 36.88C37.8626 37.0507 38.3853 37.2267 38.7906 37.408C39.2066 37.5787 39.564 37.8347 39.8626 38.176C40.1613 38.5173 40.316 38.9707 40.3266 39.536C40.3266 40.0373 40.188 40.4853 39.9106 40.88C39.6333 41.2747 39.2386 41.584 38.7266 41.808C38.2253 42.032 37.6333 42.144 36.9506 42.144ZM41.8495 37.552C41.8495 36.6667 42.0308 35.8827 42.3935 35.2C42.7668 34.5173 43.2682 33.9893 43.8975 33.616C44.5375 33.232 45.2415 33.04 46.0095 33.04C46.7028 33.04 47.3055 33.1787 47.8175 33.456C48.3402 33.7227 48.7562 34.0587 49.0655 34.464V33.184H50.9055V42H49.0655V40.688C48.7562 41.104 48.3348 41.4507 47.8015 41.728C47.2682 42.0053 46.6602 42.144 45.9775 42.144C45.2202 42.144 44.5268 41.952 43.8975 41.568C43.2682 41.1733 42.7668 40.6293 42.3935 39.936C42.0308 39.232 41.8495 38.4373 41.8495 37.552ZM49.0655 37.584C49.0655 36.976 48.9375 36.448 48.6815 36C48.4362 35.552 48.1108 35.2107 47.7055 34.976C47.3002 34.7413 46.8628 34.624 46.3935 34.624C45.9242 34.624 45.4868 34.7413 45.0815 34.976C44.6762 35.2 44.3455 35.536 44.0895 35.984C43.8442 36.4213 43.7215 36.944 43.7215 37.552C43.7215 38.16 43.8442 38.6933 44.0895 39.152C44.3455 39.6107 44.6762 39.9627 45.0815 40.208C45.4975 40.4427 45.9348 40.56 46.3935 40.56C46.8628 40.56 47.3002 40.4427 47.7055 40.208C48.1108 39.9733 48.4362 39.632 48.6815 39.184C48.9375 38.7253 49.0655 38.192 49.0655 37.584ZM57.0132 33.04C57.6959 33.04 58.2986 33.1787 58.8212 33.456C59.3546 33.7227 59.7706 34.0587 60.0693 34.464V33.184H61.9093V42.144C61.9093 42.9547 61.7386 43.6747 61.3973 44.304C61.0559 44.944 60.5599 45.4453 59.9092 45.808C59.2692 46.1707 58.5012 46.352 57.6052 46.352C56.4106 46.352 55.4186 46.0693 54.6292 45.504C53.8399 44.9493 53.3919 44.192 53.2852 43.232H55.0932C55.2319 43.6907 55.5252 44.0587 55.9732 44.336C56.4319 44.624 56.9759 44.768 57.6052 44.768C58.3412 44.768 58.9332 44.544 59.3812 44.096C59.8399 43.648 60.0693 42.9973 60.0693 42.144V40.672C59.7599 41.088 59.3386 41.44 58.8052 41.728C58.2826 42.0053 57.6852 42.144 57.0132 42.144C56.2452 42.144 55.5412 41.952 54.9012 41.568C54.2719 41.1733 53.7706 40.6293 53.3972 39.936C53.0346 39.232 52.8532 38.4373 52.8532 37.552C52.8532 36.6667 53.0346 35.8827 53.3972 35.2C53.7706 34.5173 54.2719 33.9893 54.9012 33.616C55.5412 33.232 56.2452 33.04 57.0132 33.04ZM60.0693 37.584C60.0693 36.976 59.9413 36.448 59.6852 36C59.4399 35.552 59.1146 35.2107 58.7092 34.976C58.3039 34.7413 57.8666 34.624 57.3972 34.624C56.9279 34.624 56.4906 34.7413 56.0852 34.976C55.6799 35.2 55.3492 35.536 55.0932 35.984C54.8479 36.4213 54.7252 36.944 54.7252 37.552C54.7252 38.16 54.8479 38.6933 55.0932 39.152C55.3492 39.6107 55.6799 39.9627 56.0852 40.208C56.5012 40.4427 56.9386 40.56 57.3972 40.56C57.8666 40.56 58.3039 40.4427 58.7092 40.208C59.1146 39.9733 59.4399 39.632 59.6852 39.184C59.9413 38.7253 60.0693 38.192 60.0693 37.584ZM72.545 37.376C72.545 37.7067 72.5237 38.0053 72.481 38.272H65.745C65.7983 38.976 66.0597 39.5413 66.529 39.968C66.9983 40.3947 67.5743 40.608 68.257 40.608C69.2383 40.608 69.9317 40.1973 70.337 39.376H72.305C72.0383 40.1867 71.553 40.8533 70.849 41.376C70.1557 41.888 69.2917 42.144 68.257 42.144C67.4143 42.144 66.657 41.9573 65.985 41.584C65.3237 41.2 64.801 40.6667 64.417 39.984C64.0437 39.2907 63.857 38.4907 63.857 37.584C63.857 36.6773 64.0383 35.8827 64.401 35.2C64.7743 34.5067 65.2917 33.9733 65.953 33.6C66.625 33.2267 67.393 33.04 68.257 33.04C69.089 33.04 69.8303 33.2213 70.481 33.584C71.1317 33.9467 71.6383 34.4587 72.001 35.12C72.3637 35.7707 72.545 36.5227 72.545 37.376ZM70.641 36.8C70.6303 36.128 70.3903 35.5893 69.921 35.184C69.4517 34.7787 68.8703 34.576 68.177 34.576C67.5477 34.576 67.009 34.7787 66.561 35.184C66.113 35.5787 65.8463 36.1173 65.761 36.8H70.641Z" fill="#1E1E1E"/>
<g filter="url(#filter0_ddd_2144_18937)">
<rect width="151" height="151" transform="translate(10.5 77.5361)" fill="#FFAFA3"/>
<path d="M25.4353 95.3616V105.12H24.1613V95.3616H25.4353ZM30.3226 105.246C29.7346 105.246 29.2072 105.148 28.7406 104.952C28.2739 104.746 27.9052 104.466 27.6346 104.112C27.3639 103.748 27.2146 103.332 27.1866 102.866H28.5026C28.5399 103.248 28.7172 103.561 29.0346 103.804C29.3612 104.046 29.7859 104.168 30.3086 104.168C30.7939 104.168 31.1766 104.06 31.4566 103.846C31.7366 103.631 31.8766 103.36 31.8766 103.034C31.8766 102.698 31.7272 102.45 31.4286 102.292C31.1299 102.124 30.6679 101.96 30.0426 101.802C29.4732 101.652 29.0066 101.503 28.6426 101.354C28.2879 101.195 27.9799 100.966 27.7186 100.668C27.4666 100.36 27.3406 99.9583 27.3406 99.4636C27.3406 99.0716 27.4572 98.7123 27.6906 98.3856C27.9239 98.059 28.2552 97.8023 28.6846 97.6156C29.1139 97.4196 29.6039 97.3216 30.1546 97.3216C31.0039 97.3216 31.6899 97.5363 32.2126 97.9656C32.7352 98.395 33.0152 98.983 33.0526 99.7296H31.7786C31.7506 99.3283 31.5872 99.0063 31.2886 98.7636C30.9992 98.521 30.6072 98.3996 30.1126 98.3996C29.6552 98.3996 29.2912 98.4976 29.0206 98.6936C28.7499 98.8896 28.6146 99.1463 28.6146 99.4636C28.6146 99.7156 28.6939 99.9256 28.8526 100.094C29.0206 100.252 29.2259 100.383 29.4686 100.486C29.7206 100.579 30.0659 100.686 30.5046 100.808C31.0552 100.957 31.5032 101.106 31.8486 101.256C32.1939 101.396 32.4879 101.61 32.7306 101.9C32.9826 102.189 33.1132 102.567 33.1226 103.034C33.1226 103.454 33.0059 103.832 32.7726 104.168C32.5392 104.504 32.2079 104.77 31.7786 104.966C31.3586 105.152 30.8732 105.246 30.3226 105.246ZM42.3914 97.3076C43.3248 97.3076 44.0808 97.5923 44.6594 98.1616C45.2381 98.7216 45.5274 99.5336 45.5274 100.598V105.12H44.2674V100.78C44.2674 100.014 44.0761 99.431 43.6934 99.0296C43.3108 98.619 42.7881 98.4136 42.1254 98.4136C41.4534 98.4136 40.9168 98.6236 40.5154 99.0436C40.1234 99.4636 39.9274 100.075 39.9274 100.878V105.12H38.6534V97.4476H39.9274V98.5396C40.1794 98.1476 40.5201 97.8443 40.9494 97.6296C41.3881 97.415 41.8688 97.3076 42.3914 97.3076ZM50.9545 105.246C50.2359 105.246 49.5825 105.082 48.9945 104.756C48.4159 104.429 47.9585 103.967 47.6225 103.37C47.2959 102.763 47.1325 102.063 47.1325 101.27C47.1325 100.486 47.3005 99.795 47.6365 99.1976C47.9819 98.591 48.4485 98.129 49.0365 97.8116C49.6245 97.485 50.2825 97.3216 51.0105 97.3216C51.7385 97.3216 52.3965 97.485 52.9845 97.8116C53.5725 98.129 54.0345 98.5863 54.3705 99.1836C54.7159 99.781 54.8885 100.476 54.8885 101.27C54.8885 102.063 54.7112 102.763 54.3565 103.37C54.0112 103.967 53.5399 104.429 52.9425 104.756C52.3452 105.082 51.6825 105.246 50.9545 105.246ZM50.9545 104.126C51.4119 104.126 51.8412 104.018 52.2425 103.804C52.6439 103.589 52.9659 103.267 53.2085 102.838C53.4605 102.408 53.5865 101.886 53.5865 101.27C53.5865 100.654 53.4652 100.131 53.2225 99.7016C52.9799 99.2723 52.6625 98.955 52.2705 98.7496C51.8785 98.535 51.4539 98.4276 50.9965 98.4276C50.5299 98.4276 50.1005 98.535 49.7085 98.7496C49.3259 98.955 49.0179 99.2723 48.7845 99.7016C48.5512 100.131 48.4345 100.654 48.4345 101.27C48.4345 101.895 48.5465 102.422 48.7705 102.852C49.0039 103.281 49.3119 103.603 49.6945 103.818C50.0772 104.023 50.4972 104.126 50.9545 104.126ZM58.1176 98.4976V103.02C58.1176 103.393 58.1969 103.659 58.3556 103.818C58.5143 103.967 58.7896 104.042 59.1816 104.042H60.1196V105.12H58.9716C58.2623 105.12 57.7303 104.956 57.3756 104.63C57.0209 104.303 56.8436 103.766 56.8436 103.02V98.4976H55.8496V97.4476H56.8436V95.5156H58.1176V97.4476H60.1196V98.4976H58.1176ZM68.5176 98.4976H66.9076V105.12H65.6336V98.4976H64.6396V97.4476H65.6336V96.9016C65.6336 96.043 65.853 95.4176 66.2916 95.0256C66.7396 94.6243 67.4536 94.4236 68.4336 94.4236V95.4876C67.8736 95.4876 67.477 95.5996 67.2436 95.8236C67.0196 96.0383 66.9076 96.3976 66.9076 96.9016V97.4476H68.5176V98.4976ZM69.527 101.256C69.527 100.472 69.6857 99.7856 70.003 99.1976C70.3204 98.6003 70.7544 98.1383 71.305 97.8116C71.865 97.485 72.4857 97.3216 73.167 97.3216C73.839 97.3216 74.4224 97.4663 74.917 97.7556C75.4117 98.045 75.7804 98.409 76.023 98.8476V97.4476H77.311V105.12H76.023V103.692C75.771 104.14 75.393 104.513 74.889 104.812C74.3944 105.101 73.8157 105.246 73.153 105.246C72.4717 105.246 71.8557 105.078 71.305 104.742C70.7544 104.406 70.3204 103.934 70.003 103.328C69.6857 102.721 69.527 102.03 69.527 101.256ZM76.023 101.27C76.023 100.691 75.9064 100.187 75.673 99.7576C75.4397 99.3283 75.1224 99.0016 74.721 98.7776C74.329 98.5443 73.895 98.4276 73.419 98.4276C72.943 98.4276 72.509 98.5396 72.117 98.7636C71.725 98.9876 71.4124 99.3143 71.179 99.7436C70.9457 100.173 70.829 100.677 70.829 101.256C70.829 101.844 70.9457 102.357 71.179 102.796C71.4124 103.225 71.725 103.556 72.117 103.79C72.509 104.014 72.943 104.126 73.419 104.126C73.895 104.126 74.329 104.014 74.721 103.79C75.1224 103.556 75.4397 103.225 75.673 102.796C75.9064 102.357 76.023 101.848 76.023 101.27ZM88.69 97.3076C89.2873 97.3076 89.8193 97.4336 90.286 97.6856C90.7527 97.9283 91.1213 98.297 91.392 98.7916C91.6627 99.2863 91.798 99.8883 91.798 100.598V105.12H90.538V100.78C90.538 100.014 90.3467 99.431 89.964 99.0296C89.5907 98.619 89.082 98.4136 88.438 98.4136C87.7753 98.4136 87.248 98.6283 86.856 99.0576C86.464 99.4776 86.268 100.089 86.268 100.892V105.12H85.008V100.78C85.008 100.014 84.8167 99.431 84.434 99.0296C84.0607 98.619 83.552 98.4136 82.908 98.4136C82.2453 98.4136 81.718 98.6283 81.326 99.0576C80.934 99.4776 80.738 100.089 80.738 100.892V105.12H79.464V97.4476H80.738V98.5536C80.99 98.1523 81.326 97.8443 81.746 97.6296C82.1753 97.415 82.6467 97.3076 83.16 97.3076C83.804 97.3076 84.3733 97.4523 84.868 97.7416C85.3627 98.031 85.7313 98.4556 85.974 99.0156C86.1887 98.4743 86.5433 98.0543 87.038 97.7556C87.5327 97.457 88.0833 97.3076 88.69 97.3076ZM94.5458 96.2016C94.3031 96.2016 94.0978 96.1176 93.9298 95.9496C93.7618 95.7816 93.6778 95.5763 93.6778 95.3336C93.6778 95.091 93.7618 94.8856 93.9298 94.7176C94.0978 94.5496 94.3031 94.4656 94.5458 94.4656C94.7791 94.4656 94.9751 94.5496 95.1338 94.7176C95.3018 94.8856 95.3858 95.091 95.3858 95.3336C95.3858 95.5763 95.3018 95.7816 95.1338 95.9496C94.9751 96.1176 94.7791 96.2016 94.5458 96.2016ZM95.1618 97.4476V105.12H93.8878V97.4476H95.1618ZM98.6071 94.7596V105.12H97.3331V94.7596H98.6071ZM101.436 96.2016C101.194 96.2016 100.988 96.1176 100.82 95.9496C100.652 95.7816 100.568 95.5763 100.568 95.3336C100.568 95.091 100.652 94.8856 100.82 94.7176C100.988 94.5496 101.194 94.4656 101.436 94.4656C101.67 94.4656 101.866 94.5496 102.024 94.7176C102.192 94.8856 102.276 95.091 102.276 95.3336C102.276 95.5763 102.192 95.7816 102.024 95.9496C101.866 96.1176 101.67 96.2016 101.436 96.2016ZM102.052 97.4476V105.12H100.778V97.4476H102.052ZM103.748 101.256C103.748 100.472 103.906 99.7856 104.224 99.1976C104.541 98.6003 104.975 98.1383 105.526 97.8116C106.086 97.485 106.706 97.3216 107.388 97.3216C108.06 97.3216 108.643 97.4663 109.138 97.7556C109.632 98.045 110.001 98.409 110.244 98.8476V97.4476H111.532V105.12H110.244V103.692C109.992 104.14 109.614 104.513 109.11 104.812C108.615 105.101 108.036 105.246 107.374 105.246C106.692 105.246 106.076 105.078 105.526 104.742C104.975 104.406 104.541 103.934 104.224 103.328C103.906 102.721 103.748 102.03 103.748 101.256ZM110.244 101.27C110.244 100.691 110.127 100.187 109.894 99.7576C109.66 99.3283 109.343 99.0016 108.942 98.7776C108.55 98.5443 108.116 98.4276 107.64 98.4276C107.164 98.4276 106.73 98.5396 106.338 98.7636C105.946 98.9876 105.633 99.3143 105.4 99.7436C105.166 100.173 105.05 100.677 105.05 101.256C105.05 101.844 105.166 102.357 105.4 102.796C105.633 103.225 105.946 103.556 106.338 103.79C106.73 104.014 107.164 104.126 107.64 104.126C108.116 104.126 108.55 104.014 108.942 103.79C109.343 103.556 109.66 103.225 109.894 102.796C110.127 102.357 110.244 101.848 110.244 101.27ZM114.959 98.6936C115.183 98.255 115.5 97.9143 115.911 97.6716C116.331 97.429 116.839 97.3076 117.437 97.3076V98.6236H117.101C115.673 98.6236 114.959 99.3983 114.959 100.948V105.12H113.685V97.4476H114.959V98.6936ZM34.3813 118.448L31.9873 126.12H30.6713L28.8233 120.03L26.9753 126.12H25.6593L23.2513 118.448H24.5533L26.3173 124.888L28.2213 118.448H29.5233L31.3853 124.902L33.1213 118.448H34.3813ZM36.3036 117.202C36.061 117.202 35.8556 117.118 35.6876 116.95C35.5196 116.782 35.4356 116.576 35.4356 116.334C35.4356 116.091 35.5196 115.886 35.6876 115.718C35.8556 115.55 36.061 115.466 36.3036 115.466C36.537 115.466 36.733 115.55 36.8916 115.718C37.0596 115.886 37.1436 116.091 37.1436 116.334C37.1436 116.576 37.0596 116.782 36.8916 116.95C36.733 117.118 36.537 117.202 36.3036 117.202ZM36.9196 118.448V126.12H35.6456V118.448H36.9196ZM40.6449 119.498V124.02C40.6449 124.393 40.7243 124.659 40.8829 124.818C41.0416 124.967 41.3169 125.042 41.7089 125.042H42.6469V126.12H41.4989C40.7896 126.12 40.2576 125.956 39.9029 125.63C39.5483 125.303 39.3709 124.766 39.3709 124.02V119.498H38.3769V118.448H39.3709V116.516H40.6449V118.448H42.6469V119.498H40.6449ZM47.9985 118.308C48.5772 118.308 49.0999 118.434 49.5665 118.686C50.0332 118.928 50.3972 119.297 50.6585 119.792C50.9292 120.286 51.0645 120.888 51.0645 121.598V126.12H49.8045V121.78C49.8045 121.014 49.6132 120.431 49.2305 120.03C48.8479 119.619 48.3252 119.414 47.6625 119.414C46.9905 119.414 46.4539 119.624 46.0525 120.044C45.6605 120.464 45.4645 121.075 45.4645 121.878V126.12H44.1905V115.76H45.4645V119.54C45.7165 119.148 46.0619 118.844 46.5005 118.63C46.9485 118.415 47.4479 118.308 47.9985 118.308ZM58.432 119.498V124.02C58.432 124.393 58.5114 124.659 58.67 124.818C58.8287 124.967 59.104 125.042 59.496 125.042H60.434V126.12H59.286C58.5767 126.12 58.0447 125.956 57.69 125.63C57.3354 125.303 57.158 124.766 57.158 124.02V119.498H56.164V118.448H57.158V116.516H58.432V118.448H60.434V119.498H58.432ZM65.7857 118.308C66.3643 118.308 66.887 118.434 67.3537 118.686C67.8203 118.928 68.1843 119.297 68.4457 119.792C68.7163 120.286 68.8517 120.888 68.8517 121.598V126.12H67.5917V121.78C67.5917 121.014 67.4003 120.431 67.0177 120.03C66.635 119.619 66.1123 119.414 65.4497 119.414C64.7777 119.414 64.241 119.624 63.8397 120.044C63.4477 120.464 63.2517 121.075 63.2517 121.878V126.12H61.9777V115.76H63.2517V119.54C63.5037 119.148 63.849 118.844 64.2877 118.63C64.7357 118.415 65.235 118.308 65.7857 118.308ZM77.9327 121.99C77.9327 122.232 77.9187 122.489 77.8907 122.76H71.7587C71.8054 123.516 72.0621 124.108 72.5287 124.538C73.0047 124.958 73.5787 125.168 74.2507 125.168C74.8014 125.168 75.2587 125.042 75.6227 124.79C75.9961 124.528 76.2574 124.183 76.4067 123.754H77.7787C77.5734 124.491 77.1627 125.093 76.5467 125.56C75.9307 126.017 75.1654 126.246 74.2507 126.246C73.5227 126.246 72.8694 126.082 72.2907 125.756C71.7214 125.429 71.2734 124.967 70.9467 124.37C70.6201 123.763 70.4567 123.063 70.4567 122.27C70.4567 121.476 70.6154 120.781 70.9327 120.184C71.2501 119.586 71.6934 119.129 72.2627 118.812C72.8414 118.485 73.5041 118.322 74.2507 118.322C74.9787 118.322 75.6227 118.48 76.1827 118.798C76.7427 119.115 77.1721 119.554 77.4707 120.114C77.7787 120.664 77.9327 121.29 77.9327 121.99ZM76.6167 121.724C76.6167 121.238 76.5094 120.823 76.2947 120.478C76.0801 120.123 75.7861 119.857 75.4127 119.68C75.0487 119.493 74.6427 119.4 74.1947 119.4C73.5507 119.4 73.0001 119.605 72.5427 120.016C72.0947 120.426 71.8381 120.996 71.7727 121.724H76.6167ZM82.8708 122.256C82.8708 121.472 83.0295 120.786 83.3468 120.198C83.6641 119.6 84.0981 119.138 84.6488 118.812C85.2088 118.485 85.8295 118.322 86.5108 118.322C87.1828 118.322 87.7661 118.466 88.2608 118.756C88.7555 119.045 89.1241 119.409 89.3668 119.848V118.448H90.6548V126.12H89.3668V124.692C89.1148 125.14 88.7368 125.513 88.2328 125.812C87.7381 126.101 87.1595 126.246 86.4968 126.246C85.8155 126.246 85.1995 126.078 84.6488 125.742C84.0981 125.406 83.6641 124.934 83.3468 124.328C83.0295 123.721 82.8708 123.03 82.8708 122.256ZM89.3668 122.27C89.3668 121.691 89.2501 121.187 89.0168 120.758C88.7835 120.328 88.4661 120.002 88.0648 119.778C87.6728 119.544 87.2388 119.428 86.7628 119.428C86.2868 119.428 85.8528 119.54 85.4608 119.764C85.0688 119.988 84.7561 120.314 84.5228 120.744C84.2895 121.173 84.1728 121.677 84.1728 122.256C84.1728 122.844 84.2895 123.357 84.5228 123.796C84.7561 124.225 85.0688 124.556 85.4608 124.79C85.8528 125.014 86.2868 125.126 86.7628 125.126C87.2388 125.126 87.6728 125.014 88.0648 124.79C88.4661 124.556 88.7835 124.225 89.0168 123.796C89.2501 123.357 89.3668 122.848 89.3668 122.27ZM93.4657 117.202C93.2231 117.202 93.0177 117.118 92.8497 116.95C92.6817 116.782 92.5977 116.576 92.5977 116.334C92.5977 116.091 92.6817 115.886 92.8497 115.718C93.0177 115.55 93.2231 115.466 93.4657 115.466C93.6991 115.466 93.8951 115.55 94.0537 115.718C94.2217 115.886 94.3057 116.091 94.3057 116.334C94.3057 116.576 94.2217 116.782 94.0537 116.95C93.8951 117.118 93.6991 117.202 93.4657 117.202ZM94.0817 118.448V126.12H92.8077V118.448H94.0817ZM97.527 119.694C97.751 119.255 98.0684 118.914 98.479 118.672C98.899 118.429 99.4077 118.308 100.005 118.308V119.624H99.669C98.241 119.624 97.527 120.398 97.527 121.948V126.12H96.253V118.448H97.527V119.694ZM102.75 115.76V126.12H101.476V115.76H102.75ZM105.579 117.202C105.336 117.202 105.131 117.118 104.963 116.95C104.795 116.782 104.711 116.576 104.711 116.334C104.711 116.091 104.795 115.886 104.963 115.718C105.131 115.55 105.336 115.466 105.579 115.466C105.812 115.466 106.008 115.55 106.167 115.718C106.335 115.886 106.419 116.091 106.419 116.334C106.419 116.576 106.335 116.782 106.167 116.95C106.008 117.118 105.812 117.202 105.579 117.202ZM106.195 118.448V126.12H104.921V118.448H106.195ZM112.104 118.308C113.038 118.308 113.794 118.592 114.372 119.162C114.951 119.722 115.24 120.534 115.24 121.598V126.12H113.98V121.78C113.98 121.014 113.789 120.431 113.406 120.03C113.024 119.619 112.501 119.414 111.838 119.414C111.166 119.414 110.63 119.624 110.228 120.044C109.836 120.464 109.64 121.075 109.64 121.878V126.12H108.366V118.448H109.64V119.54C109.892 119.148 110.233 118.844 110.662 118.63C111.101 118.415 111.582 118.308 112.104 118.308ZM124.321 121.99C124.321 122.232 124.307 122.489 124.279 122.76H118.147C118.194 123.516 118.451 124.108 118.917 124.538C119.393 124.958 119.967 125.168 120.639 125.168C121.19 125.168 121.647 125.042 122.011 124.79C122.385 124.528 122.646 124.183 122.795 123.754H124.167C123.962 124.491 123.551 125.093 122.935 125.56C122.319 126.017 121.554 126.246 120.639 126.246C119.911 126.246 119.258 126.082 118.679 125.756C118.11 125.429 117.662 124.967 117.335 124.37C117.009 123.763 116.845 123.063 116.845 122.27C116.845 121.476 117.004 120.781 117.321 120.184C117.639 119.586 118.082 119.129 118.651 118.812C119.23 118.485 119.893 118.322 120.639 118.322C121.367 118.322 122.011 118.48 122.571 118.798C123.131 119.115 123.561 119.554 123.859 120.114C124.167 120.664 124.321 121.29 124.321 121.99ZM123.005 121.724C123.005 121.238 122.898 120.823 122.683 120.478C122.469 120.123 122.175 119.857 121.801 119.68C121.437 119.493 121.031 119.4 120.583 119.4C119.939 119.4 119.389 119.605 118.931 120.016C118.483 120.426 118.227 120.996 118.161 121.724H123.005ZM126.199 116.362H127.613L126.269 119.54H125.373L126.199 116.362ZM131.782 126.246C131.194 126.246 130.666 126.148 130.2 125.952C129.733 125.746 129.364 125.466 129.094 125.112C128.823 124.748 128.674 124.332 128.646 123.866H129.962C129.999 124.248 130.176 124.561 130.494 124.804C130.82 125.046 131.245 125.168 131.768 125.168C132.253 125.168 132.636 125.06 132.916 124.846C133.196 124.631 133.336 124.36 133.336 124.034C133.336 123.698 133.186 123.45 132.888 123.292C132.589 123.124 132.127 122.96 131.502 122.802C130.932 122.652 130.466 122.503 130.102 122.354C129.747 122.195 129.439 121.966 129.178 121.668C128.926 121.36 128.8 120.958 128.8 120.464C128.8 120.072 128.916 119.712 129.15 119.386C129.383 119.059 129.714 118.802 130.144 118.616C130.573 118.42 131.063 118.322 131.614 118.322C132.463 118.322 133.149 118.536 133.672 118.966C134.194 119.395 134.474 119.983 134.512 120.73H133.238C133.21 120.328 133.046 120.006 132.748 119.764C132.458 119.521 132.066 119.4 131.572 119.4C131.114 119.4 130.75 119.498 130.48 119.694C130.209 119.89 130.074 120.146 130.074 120.464C130.074 120.716 130.153 120.926 130.312 121.094C130.48 121.252 130.685 121.383 130.928 121.486C131.18 121.579 131.525 121.686 131.964 121.808C132.514 121.957 132.962 122.106 133.308 122.256C133.653 122.396 133.947 122.61 134.19 122.9C134.442 123.189 134.572 123.567 134.582 124.034C134.582 124.454 134.465 124.832 134.232 125.168C133.998 125.504 133.667 125.77 133.238 125.966C132.818 126.152 132.332 126.246 131.782 126.246ZM34.3813 139.448L31.9873 147.12H30.6713L28.8233 141.03L26.9753 147.12H25.6593L23.2513 139.448H24.5533L26.3173 145.888L28.2213 139.448H29.5233L31.3853 145.902L33.1213 139.448H34.3813ZM42.6456 142.99C42.6456 143.232 42.6316 143.489 42.6036 143.76H36.4716C36.5183 144.516 36.775 145.108 37.2416 145.538C37.7176 145.958 38.2916 146.168 38.9636 146.168C39.5143 146.168 39.9716 146.042 40.3356 145.79C40.709 145.528 40.9703 145.183 41.1196 144.754H42.4916C42.2863 145.491 41.8756 146.093 41.2596 146.56C40.6436 147.017 39.8783 147.246 38.9636 147.246C38.2356 147.246 37.5823 147.082 37.0036 146.756C36.4343 146.429 35.9863 145.967 35.6596 145.37C35.333 144.763 35.1696 144.063 35.1696 143.27C35.1696 142.476 35.3283 141.781 35.6456 141.184C35.963 140.586 36.4063 140.129 36.9756 139.812C37.5543 139.485 38.217 139.322 38.9636 139.322C39.6916 139.322 40.3356 139.48 40.8956 139.798C41.4556 140.115 41.885 140.554 42.1836 141.114C42.4916 141.664 42.6456 142.29 42.6456 142.99ZM41.3296 142.724C41.3296 142.238 41.2223 141.823 41.0076 141.478C40.793 141.123 40.499 140.857 40.1256 140.68C39.7616 140.493 39.3556 140.4 38.9076 140.4C38.2636 140.4 37.713 140.605 37.2556 141.016C36.8076 141.426 36.551 141.996 36.4856 142.724H41.3296ZM45.6013 140.876C45.8626 140.418 46.2453 140.045 46.7493 139.756C47.2533 139.466 47.8273 139.322 48.4713 139.322C49.1619 139.322 49.7826 139.485 50.3333 139.812C50.8839 140.138 51.3179 140.6 51.6353 141.198C51.9526 141.786 52.1113 142.472 52.1113 143.256C52.1113 144.03 51.9526 144.721 51.6353 145.328C51.3179 145.934 50.8793 146.406 50.3193 146.742C49.7686 147.078 49.1526 147.246 48.4713 147.246C47.8086 147.246 47.2253 147.101 46.7213 146.812C46.2266 146.522 45.8533 146.154 45.6013 145.706V147.12H44.3273V136.76H45.6013V140.876ZM50.8093 143.256C50.8093 142.677 50.6926 142.173 50.4593 141.744C50.2259 141.314 49.9086 140.988 49.5073 140.764C49.1153 140.54 48.6813 140.428 48.2053 140.428C47.7386 140.428 47.3046 140.544 46.9033 140.778C46.5113 141.002 46.1939 141.333 45.9513 141.772C45.7179 142.201 45.6013 142.7 45.6013 143.27C45.6013 143.848 45.7179 144.357 45.9513 144.796C46.1939 145.225 46.5113 145.556 46.9033 145.79C47.3046 146.014 47.7386 146.126 48.2053 146.126C48.6813 146.126 49.1153 146.014 49.5073 145.79C49.9086 145.556 50.2259 145.225 50.4593 144.796C50.6926 144.357 50.8093 143.844 50.8093 143.256ZM56.5042 147.246C55.9162 147.246 55.3889 147.148 54.9222 146.952C54.4555 146.746 54.0869 146.466 53.8162 146.112C53.5455 145.748 53.3962 145.332 53.3682 144.866H54.6842C54.7215 145.248 54.8989 145.561 55.2162 145.804C55.5429 146.046 55.9675 146.168 56.4902 146.168C56.9755 146.168 57.3582 146.06 57.6382 145.846C57.9182 145.631 58.0582 145.36 58.0582 145.034C58.0582 144.698 57.9089 144.45 57.6102 144.292C57.3115 144.124 56.8495 143.96 56.2242 143.802C55.6549 143.652 55.1882 143.503 54.8242 143.354C54.4695 143.195 54.1615 142.966 53.9002 142.668C53.6482 142.36 53.5222 141.958 53.5222 141.464C53.5222 141.072 53.6389 140.712 53.8722 140.386C54.1055 140.059 54.4369 139.802 54.8662 139.616C55.2955 139.42 55.7855 139.322 56.3362 139.322C57.1855 139.322 57.8715 139.536 58.3942 139.966C58.9169 140.395 59.1969 140.983 59.2342 141.73H57.9602C57.9322 141.328 57.7689 141.006 57.4702 140.764C57.1809 140.521 56.7889 140.4 56.2942 140.4C55.8369 140.4 55.4729 140.498 55.2022 140.694C54.9315 140.89 54.7962 141.146 54.7962 141.464C54.7962 141.716 54.8755 141.926 55.0342 142.094C55.2022 142.252 55.4075 142.383 55.6502 142.486C55.9022 142.579 56.2475 142.686 56.6862 142.808C57.2369 142.957 57.6849 143.106 58.0302 143.256C58.3755 143.396 58.6695 143.61 58.9122 143.9C59.1642 144.189 59.2949 144.567 59.3042 145.034C59.3042 145.454 59.1875 145.832 58.9542 146.168C58.7209 146.504 58.3895 146.77 57.9602 146.966C57.5402 147.152 57.0549 147.246 56.5042 147.246ZM61.7607 138.202C61.518 138.202 61.3127 138.118 61.1447 137.95C60.9767 137.782 60.8927 137.576 60.8927 137.334C60.8927 137.091 60.9767 136.886 61.1447 136.718C61.3127 136.55 61.518 136.466 61.7607 136.466C61.994 136.466 62.19 136.55 62.3487 136.718C62.5167 136.886 62.6007 137.091 62.6007 137.334C62.6007 137.576 62.5167 137.782 62.3487 137.95C62.19 138.118 61.994 138.202 61.7607 138.202ZM62.3767 139.448V147.12H61.1027V139.448H62.3767ZM66.102 140.498V145.02C66.102 145.393 66.1813 145.659 66.34 145.818C66.4986 145.967 66.774 146.042 67.166 146.042H68.104V147.12H66.956C66.2466 147.12 65.7146 146.956 65.36 146.63C65.0053 146.303 64.828 145.766 64.828 145.02V140.498H63.834V139.448H64.828V137.516H66.102V139.448H68.104V140.498H66.102ZM76.6476 142.99C76.6476 143.232 76.6336 143.489 76.6056 143.76H70.4736C70.5202 144.516 70.7769 145.108 71.2436 145.538C71.7196 145.958 72.2936 146.168 72.9656 146.168C73.5162 146.168 73.9736 146.042 74.3376 145.79C74.7109 145.528 74.9722 145.183 75.1216 144.754H76.4936C76.2882 145.491 75.8776 146.093 75.2616 146.56C74.6456 147.017 73.8802 147.246 72.9656 147.246C72.2376 147.246 71.5842 147.082 71.0056 146.756C70.4362 146.429 69.9882 145.967 69.6616 145.37C69.3349 144.763 69.1716 144.063 69.1716 143.27C69.1716 142.476 69.3302 141.781 69.6476 141.184C69.9649 140.586 70.4082 140.129 70.9776 139.812C71.5562 139.485 72.2189 139.322 72.9656 139.322C73.6936 139.322 74.3376 139.48 74.8976 139.798C75.4576 140.115 75.8869 140.554 76.1856 141.114C76.4936 141.664 76.6476 142.29 76.6476 142.99ZM75.3316 142.724C75.3316 142.238 75.2242 141.823 75.0096 141.478C74.7949 141.123 74.5009 140.857 74.1276 140.68C73.7636 140.493 73.3576 140.4 72.9096 140.4C72.2656 140.4 71.7149 140.605 71.2576 141.016C70.8096 141.426 70.5529 141.996 70.4876 142.724H75.3316Z" fill="black" fill-opacity="0.8"/>
</g>
<g filter="url(#filter1_ddd_2144_18937)">
<rect width="151" height="151" transform="translate(10.5 188.27)" fill="#80CAFF"/>
<path d="M30.1673 206.095V207.131H27.5073V215.853H26.2333V207.131H23.5593V206.095H30.1673ZM35.5435 208.041C36.1221 208.041 36.6448 208.167 37.1115 208.419C37.5781 208.662 37.9421 209.03 38.2035 209.525C38.4741 210.02 38.6095 210.622 38.6095 211.331V215.853H37.3495V211.513C37.3495 210.748 37.1581 210.164 36.7755 209.763C36.3928 209.352 35.8701 209.147 35.2075 209.147C34.5355 209.147 33.9988 209.357 33.5975 209.777C33.2055 210.197 33.0095 210.808 33.0095 211.611V215.853H31.7355V205.493H33.0095V209.273C33.2615 208.881 33.6068 208.578 34.0455 208.363C34.4935 208.148 34.9928 208.041 35.5435 208.041ZM47.6905 211.723C47.6905 211.966 47.6765 212.222 47.6485 212.493H41.5165C41.5632 213.249 41.8199 213.842 42.2865 214.271C42.7625 214.691 43.3365 214.901 44.0085 214.901C44.5592 214.901 45.0165 214.775 45.3805 214.523C45.7539 214.262 46.0152 213.916 46.1645 213.487H47.5365C47.3312 214.224 46.9205 214.826 46.3045 215.293C45.6885 215.75 44.9232 215.979 44.0085 215.979C43.2805 215.979 42.6272 215.816 42.0485 215.489C41.4792 215.162 41.0312 214.7 40.7045 214.103C40.3779 213.496 40.2145 212.796 40.2145 212.003C40.2145 211.21 40.3732 210.514 40.6905 209.917C41.0079 209.32 41.4512 208.862 42.0205 208.545C42.5992 208.218 43.2619 208.055 44.0085 208.055C44.7365 208.055 45.3805 208.214 45.9405 208.531C46.5005 208.848 46.9299 209.287 47.2285 209.847C47.5365 210.398 47.6905 211.023 47.6905 211.723ZM46.3745 211.457C46.3745 210.972 46.2672 210.556 46.0525 210.211C45.8379 209.856 45.5439 209.59 45.1705 209.413C44.8065 209.226 44.4005 209.133 43.9525 209.133C43.3085 209.133 42.7579 209.338 42.3005 209.749C41.8525 210.16 41.5959 210.729 41.5305 211.457H46.3745ZM63.3246 208.181L60.9306 215.853H59.6146L57.7666 209.763L55.9186 215.853H54.6026L52.1946 208.181H53.4966L55.2606 214.621L57.1646 208.181H58.4666L60.3286 214.635L62.0646 208.181H63.3246ZM71.589 211.723C71.589 211.966 71.575 212.222 71.547 212.493H65.415C65.4617 213.249 65.7183 213.842 66.185 214.271C66.661 214.691 67.235 214.901 67.907 214.901C68.4577 214.901 68.915 214.775 69.279 214.523C69.6523 214.262 69.9137 213.916 70.063 213.487H71.435C71.2297 214.224 70.819 214.826 70.203 215.293C69.587 215.75 68.8217 215.979 67.907 215.979C67.179 215.979 66.5257 215.816 65.947 215.489C65.3777 215.162 64.9297 214.7 64.603 214.103C64.2763 213.496 64.113 212.796 64.113 212.003C64.113 211.21 64.2717 210.514 64.589 209.917C64.9063 209.32 65.3497 208.862 65.919 208.545C66.4977 208.218 67.1603 208.055 67.907 208.055C68.635 208.055 69.279 208.214 69.839 208.531C70.399 208.848 70.8283 209.287 71.127 209.847C71.435 210.398 71.589 211.023 71.589 211.723ZM70.273 211.457C70.273 210.972 70.1657 210.556 69.951 210.211C69.7363 209.856 69.4423 209.59 69.069 209.413C68.705 209.226 68.299 209.133 67.851 209.133C67.207 209.133 66.6563 209.338 66.199 209.749C65.751 210.16 65.4943 210.729 65.429 211.457H70.273ZM74.5446 209.609C74.806 209.152 75.1886 208.778 75.6926 208.489C76.1966 208.2 76.7706 208.055 77.4146 208.055C78.1053 208.055 78.726 208.218 79.2766 208.545C79.8273 208.872 80.2613 209.334 80.5786 209.931C80.896 210.519 81.0546 211.205 81.0546 211.989C81.0546 212.764 80.896 213.454 80.5786 214.061C80.2613 214.668 79.8226 215.139 79.2626 215.475C78.712 215.811 78.096 215.979 77.4146 215.979C76.752 215.979 76.1686 215.834 75.6646 215.545C75.17 215.256 74.7966 214.887 74.5446 214.439V215.853H73.2706V205.493H74.5446V209.609ZM79.7526 211.989C79.7526 211.41 79.636 210.906 79.4026 210.477C79.1693 210.048 78.852 209.721 78.4506 209.497C78.0586 209.273 77.6246 209.161 77.1486 209.161C76.682 209.161 76.248 209.278 75.8466 209.511C75.4546 209.735 75.1373 210.066 74.8946 210.505C74.6613 210.934 74.5446 211.434 74.5446 212.003C74.5446 212.582 74.6613 213.09 74.8946 213.529C75.1373 213.958 75.4546 214.29 75.8466 214.523C76.248 214.747 76.682 214.859 77.1486 214.859C77.6246 214.859 78.0586 214.747 78.4506 214.523C78.852 214.29 79.1693 213.958 79.4026 213.529C79.636 213.09 79.7526 212.577 79.7526 211.989ZM85.4476 215.979C84.8596 215.979 84.3322 215.881 83.8656 215.685C83.3989 215.48 83.0302 215.2 82.7596 214.845C82.4889 214.481 82.3396 214.066 82.3116 213.599H83.6276C83.6649 213.982 83.8422 214.294 84.1596 214.537C84.4862 214.78 84.9109 214.901 85.4336 214.901C85.9189 214.901 86.3016 214.794 86.5816 214.579C86.8616 214.364 87.0016 214.094 87.0016 213.767C87.0016 213.431 86.8522 213.184 86.5536 213.025C86.2549 212.857 85.7929 212.694 85.1676 212.535C84.5982 212.386 84.1316 212.236 83.7676 212.087C83.4129 211.928 83.1049 211.7 82.8436 211.401C82.5916 211.093 82.4656 210.692 82.4656 210.197C82.4656 209.805 82.5822 209.446 82.8156 209.119C83.0489 208.792 83.3802 208.536 83.8096 208.349C84.2389 208.153 84.7289 208.055 85.2796 208.055C86.1289 208.055 86.8149 208.27 87.3376 208.699C87.8602 209.128 88.1402 209.716 88.1776 210.463H86.9036C86.8756 210.062 86.7122 209.74 86.4136 209.497C86.1242 209.254 85.7322 209.133 85.2376 209.133C84.7802 209.133 84.4162 209.231 84.1456 209.427C83.8749 209.623 83.7396 209.88 83.7396 210.197C83.7396 210.449 83.8189 210.659 83.9776 210.827C84.1456 210.986 84.3509 211.116 84.5936 211.219C84.8456 211.312 85.1909 211.42 85.6296 211.541C86.1802 211.69 86.6282 211.84 86.9736 211.989C87.3189 212.129 87.6129 212.344 87.8556 212.633C88.1076 212.922 88.2382 213.3 88.2476 213.767C88.2476 214.187 88.1309 214.565 87.8976 214.901C87.6642 215.237 87.3329 215.503 86.9036 215.699C86.4836 215.886 85.9982 215.979 85.4476 215.979ZM90.704 206.935C90.4614 206.935 90.256 206.851 90.088 206.683C89.92 206.515 89.836 206.31 89.836 206.067C89.836 205.824 89.92 205.619 90.088 205.451C90.256 205.283 90.4614 205.199 90.704 205.199C90.9374 205.199 91.1334 205.283 91.292 205.451C91.46 205.619 91.544 205.824 91.544 206.067C91.544 206.31 91.46 206.515 91.292 206.683C91.1334 206.851 90.9374 206.935 90.704 206.935ZM91.32 208.181V215.853H90.046V208.181H91.32ZM95.0453 209.231V213.753C95.0453 214.126 95.1247 214.392 95.2833 214.551C95.442 214.7 95.7173 214.775 96.1093 214.775H97.0473V215.853H95.8993C95.19 215.853 94.658 215.69 94.3033 215.363C93.9487 215.036 93.7713 214.5 93.7713 213.753V209.231H92.7773V208.181H93.7713V206.249H95.0453V208.181H97.0473V209.231H95.0453ZM105.591 211.723C105.591 211.966 105.577 212.222 105.549 212.493H99.4169C99.4636 213.249 99.7203 213.842 100.187 214.271C100.663 214.691 101.237 214.901 101.909 214.901C102.46 214.901 102.917 214.775 103.281 214.523C103.654 214.262 103.916 213.916 104.065 213.487H105.437C105.232 214.224 104.821 214.826 104.205 215.293C103.589 215.75 102.824 215.979 101.909 215.979C101.181 215.979 100.528 215.816 99.9489 215.489C99.3796 215.162 98.9316 214.7 98.6049 214.103C98.2783 213.496 98.1149 212.796 98.1149 212.003C98.1149 211.21 98.2736 210.514 98.5909 209.917C98.9083 209.32 99.3516 208.862 99.9209 208.545C100.5 208.218 101.162 208.055 101.909 208.055C102.637 208.055 103.281 208.214 103.841 208.531C104.401 208.848 104.83 209.287 105.129 209.847C105.437 210.398 105.591 211.023 105.591 211.723ZM104.275 211.457C104.275 210.972 104.168 210.556 103.953 210.211C103.738 209.856 103.444 209.59 103.071 209.413C102.707 209.226 102.301 209.133 101.853 209.133C101.209 209.133 100.658 209.338 100.201 209.749C99.7529 210.16 99.4963 210.729 99.4309 211.457H104.275ZM112.279 205.493V215.853H111.005V205.493H112.279ZM117.796 215.979C117.078 215.979 116.424 215.816 115.836 215.489C115.258 215.162 114.8 214.7 114.464 214.103C114.138 213.496 113.974 212.796 113.974 212.003C113.974 211.219 114.142 210.528 114.478 209.931C114.824 209.324 115.29 208.862 115.878 208.545C116.466 208.218 117.124 208.055 117.852 208.055C118.58 208.055 119.238 208.218 119.826 208.545C120.414 208.862 120.876 209.32 121.212 209.917C121.558 210.514 121.73 211.21 121.73 212.003C121.73 212.796 121.553 213.496 121.198 214.103C120.853 214.7 120.382 215.162 119.784 215.489C119.187 215.816 118.524 215.979 117.796 215.979ZM117.796 214.859C118.254 214.859 118.683 214.752 119.084 214.537C119.486 214.322 119.808 214 120.05 213.571C120.302 213.142 120.428 212.619 120.428 212.003C120.428 211.387 120.307 210.864 120.064 210.435C119.822 210.006 119.504 209.688 119.112 209.483C118.72 209.268 118.296 209.161 117.838 209.161C117.372 209.161 116.942 209.268 116.55 209.483C116.168 209.688 115.86 210.006 115.626 210.435C115.393 210.864 115.276 211.387 115.276 212.003C115.276 212.628 115.388 213.156 115.612 213.585C115.846 214.014 116.154 214.336 116.536 214.551C116.919 214.756 117.339 214.859 117.796 214.859ZM126.751 215.979C126.033 215.979 125.379 215.816 124.791 215.489C124.213 215.162 123.755 214.7 123.419 214.103C123.093 213.496 122.929 212.796 122.929 212.003C122.929 211.219 123.097 210.528 123.433 209.931C123.779 209.324 124.245 208.862 124.833 208.545C125.421 208.218 126.079 208.055 126.807 208.055C127.535 208.055 128.193 208.218 128.781 208.545C129.369 208.862 129.831 209.32 130.167 209.917C130.513 210.514 130.685 211.21 130.685 212.003C130.685 212.796 130.508 213.496 130.153 214.103C129.808 214.7 129.337 215.162 128.739 215.489C128.142 215.816 127.479 215.979 126.751 215.979ZM126.751 214.859C127.209 214.859 127.638 214.752 128.039 214.537C128.441 214.322 128.763 214 129.005 213.571C129.257 213.142 129.383 212.619 129.383 212.003C129.383 211.387 129.262 210.864 129.019 210.435C128.777 210.006 128.459 209.688 128.067 209.483C127.675 209.268 127.251 209.161 126.793 209.161C126.327 209.161 125.897 209.268 125.505 209.483C125.123 209.688 124.815 210.006 124.581 210.435C124.348 210.864 124.231 211.387 124.231 212.003C124.231 212.628 124.343 213.156 124.567 213.585C124.801 214.014 125.109 214.336 125.491 214.551C125.874 214.756 126.294 214.859 126.751 214.859ZM136.644 215.853L133.634 212.465V215.853H132.36V205.493H133.634V211.583L136.588 208.181H138.366L134.754 212.003L138.38 215.853H136.644ZM142.282 215.979C141.694 215.979 141.166 215.881 140.7 215.685C140.233 215.48 139.864 215.2 139.594 214.845C139.323 214.481 139.174 214.066 139.146 213.599H140.462C140.499 213.982 140.676 214.294 140.994 214.537C141.32 214.78 141.745 214.901 142.268 214.901C142.753 214.901 143.136 214.794 143.416 214.579C143.696 214.364 143.836 214.094 143.836 213.767C143.836 213.431 143.686 213.184 143.388 213.025C143.089 212.857 142.627 212.694 142.002 212.535C141.432 212.386 140.966 212.236 140.602 212.087C140.247 211.928 139.939 211.7 139.678 211.401C139.426 211.093 139.3 210.692 139.3 210.197C139.3 209.805 139.416 209.446 139.65 209.119C139.883 208.792 140.214 208.536 140.644 208.349C141.073 208.153 141.563 208.055 142.114 208.055C142.963 208.055 143.649 208.27 144.172 208.699C144.694 209.128 144.974 209.716 145.012 210.463H143.738C143.71 210.062 143.546 209.74 143.248 209.497C142.958 209.254 142.566 209.133 142.072 209.133C141.614 209.133 141.25 209.231 140.98 209.427C140.709 209.623 140.574 209.88 140.574 210.197C140.574 210.449 140.653 210.659 140.812 210.827C140.98 210.986 141.185 211.116 141.428 211.219C141.68 211.312 142.025 211.42 142.464 211.541C143.014 211.69 143.462 211.84 143.808 211.989C144.153 212.129 144.447 212.344 144.69 212.633C144.942 212.922 145.072 213.3 145.082 213.767C145.082 214.187 144.965 214.565 144.732 214.901C144.498 215.237 144.167 215.503 143.738 215.699C143.318 215.886 142.832 215.979 142.282 215.979ZM27.0173 235.677L29.3973 229.181H30.7553L27.7453 236.853H26.2613L23.2513 229.181H24.6233L27.0173 235.677ZM39.0089 232.723C39.0089 232.966 38.9949 233.222 38.9669 233.493H32.8349C32.8816 234.249 33.1382 234.842 33.6049 235.271C34.0809 235.691 34.6549 235.901 35.3269 235.901C35.8776 235.901 36.3349 235.775 36.6989 235.523C37.0722 235.262 37.3336 234.916 37.4829 234.487H38.8549C38.6496 235.224 38.2389 235.826 37.6229 236.293C37.0069 236.75 36.2416 236.979 35.3269 236.979C34.5989 236.979 33.9456 236.816 33.3669 236.489C32.7976 236.162 32.3496 235.7 32.0229 235.103C31.6962 234.496 31.5329 233.796 31.5329 233.003C31.5329 232.21 31.6916 231.514 32.0089 230.917C32.3262 230.32 32.7696 229.862 33.3389 229.545C33.9176 229.218 34.5802 229.055 35.3269 229.055C36.0549 229.055 36.6989 229.214 37.2589 229.531C37.8189 229.848 38.2482 230.287 38.5469 230.847C38.8549 231.398 39.0089 232.023 39.0089 232.723ZM37.6929 232.457C37.6929 231.972 37.5856 231.556 37.3709 231.211C37.1562 230.856 36.8622 230.59 36.4889 230.413C36.1249 230.226 35.7189 230.133 35.2709 230.133C34.6269 230.133 34.0762 230.338 33.6189 230.749C33.1709 231.16 32.9142 231.729 32.8489 232.457H37.6929ZM41.9645 230.427C42.1885 229.988 42.5059 229.648 42.9165 229.405C43.3365 229.162 43.8452 229.041 44.4425 229.041V230.357H44.1065C42.6785 230.357 41.9645 231.132 41.9645 232.681V236.853H40.6905V229.181H41.9645V230.427ZM52.5212 229.181L47.9012 240.465H46.5852L48.0972 236.769L45.0032 229.181H46.4172L48.8252 235.397L51.2052 229.181H52.5212ZM57.0583 232.989C57.0583 232.205 57.217 231.519 57.5343 230.931C57.8516 230.334 58.2856 229.872 58.8363 229.545C59.3963 229.218 60.0216 229.055 60.7123 229.055C61.3096 229.055 61.865 229.195 62.3783 229.475C62.8916 229.746 63.2836 230.105 63.5543 230.553V226.493H64.8423V236.853H63.5543V235.411C63.3023 235.868 62.929 236.246 62.4343 236.545C61.9396 236.834 61.361 236.979 60.6983 236.979C60.017 236.979 59.3963 236.811 58.8363 236.475C58.2856 236.139 57.8516 235.668 57.5343 235.061C57.217 234.454 57.0583 233.764 57.0583 232.989ZM63.5543 233.003C63.5543 232.424 63.4376 231.92 63.2043 231.491C62.971 231.062 62.6536 230.735 62.2523 230.511C61.8603 230.278 61.4263 230.161 60.9503 230.161C60.4743 230.161 60.0403 230.273 59.6483 230.497C59.2563 230.721 58.9436 231.048 58.7103 231.477C58.477 231.906 58.3603 232.41 58.3603 232.989C58.3603 233.577 58.477 234.09 58.7103 234.529C58.9436 234.958 59.2563 235.29 59.6483 235.523C60.0403 235.747 60.4743 235.859 60.9503 235.859C61.4263 235.859 61.8603 235.747 62.2523 235.523C62.6536 235.29 62.971 234.958 63.2043 234.529C63.4376 234.09 63.5543 233.582 63.5543 233.003ZM67.6532 227.935C67.4106 227.935 67.2052 227.851 67.0372 227.683C66.8692 227.515 66.7852 227.31 66.7852 227.067C66.7852 226.824 66.8692 226.619 67.0372 226.451C67.2052 226.283 67.4106 226.199 67.6532 226.199C67.8866 226.199 68.0826 226.283 68.2412 226.451C68.4092 226.619 68.4932 226.824 68.4932 227.067C68.4932 227.31 68.4092 227.515 68.2412 227.683C68.0826 227.851 67.8866 227.935 67.6532 227.935ZM68.2692 229.181V236.853H66.9952V229.181H68.2692ZM73.5625 230.231H71.9525V236.853H70.6785V230.231H69.6845V229.181H70.6785V228.635C70.6785 227.776 70.8979 227.151 71.3365 226.759C71.7845 226.358 72.4985 226.157 73.4785 226.157V227.221C72.9185 227.221 72.5219 227.333 72.2885 227.557C72.0645 227.772 71.9525 228.131 71.9525 228.635V229.181H73.5625V230.231ZM78.17 230.231H76.56V236.853H75.286V230.231H74.292V229.181H75.286V228.635C75.286 227.776 75.5053 227.151 75.944 226.759C76.392 226.358 77.106 226.157 78.086 226.157V227.221C77.526 227.221 77.1293 227.333 76.896 227.557C76.672 227.772 76.56 228.131 76.56 228.635V229.181H78.17V230.231ZM86.6554 232.723C86.6554 232.966 86.6414 233.222 86.6134 233.493H80.4814C80.5281 234.249 80.7847 234.842 81.2514 235.271C81.7274 235.691 82.3014 235.901 82.9734 235.901C83.5241 235.901 83.9814 235.775 84.3454 235.523C84.7187 235.262 84.9801 234.916 85.1294 234.487H86.5014C86.2961 235.224 85.8854 235.826 85.2694 236.293C84.6534 236.75 83.8881 236.979 82.9734 236.979C82.2454 236.979 81.5921 236.816 81.0134 236.489C80.4441 236.162 79.9961 235.7 79.6694 235.103C79.3427 234.496 79.1794 233.796 79.1794 233.003C79.1794 232.21 79.3381 231.514 79.6554 230.917C79.9727 230.32 80.4161 229.862 80.9854 229.545C81.5641 229.218 82.2267 229.055 82.9734 229.055C83.7014 229.055 84.3454 229.214 84.9054 229.531C85.4654 229.848 85.8947 230.287 86.1934 230.847C86.5014 231.398 86.6554 232.023 86.6554 232.723ZM85.3394 232.457C85.3394 231.972 85.2321 231.556 85.0174 231.211C84.8027 230.856 84.5087 230.59 84.1354 230.413C83.7714 230.226 83.3654 230.133 82.9174 230.133C82.2734 230.133 81.7227 230.338 81.2654 230.749C80.8174 231.16 80.5607 231.729 80.4954 232.457H85.3394ZM89.611 230.427C89.835 229.988 90.1524 229.648 90.563 229.405C90.983 229.162 91.4917 229.041 92.089 229.041V230.357H91.753C90.325 230.357 89.611 231.132 89.611 232.681V236.853H88.337V229.181H89.611V230.427ZM100.56 232.723C100.56 232.966 100.546 233.222 100.518 233.493H94.3857C94.4324 234.249 94.689 234.842 95.1557 235.271C95.6317 235.691 96.2057 235.901 96.8777 235.901C97.4284 235.901 97.8857 235.775 98.2497 235.523C98.623 235.262 98.8844 234.916 99.0337 234.487H100.406C100.2 235.224 99.7897 235.826 99.1737 236.293C98.5577 236.75 97.7924 236.979 96.8777 236.979C96.1497 236.979 95.4964 236.816 94.9177 236.489C94.3484 236.162 93.9004 235.7 93.5737 235.103C93.247 234.496 93.0837 233.796 93.0837 233.003C93.0837 232.21 93.2424 231.514 93.5597 230.917C93.877 230.32 94.3204 229.862 94.8897 229.545C95.4684 229.218 96.131 229.055 96.8777 229.055C97.6057 229.055 98.2497 229.214 98.8097 229.531C99.3697 229.848 99.799 230.287 100.098 230.847C100.406 231.398 100.56 232.023 100.56 232.723ZM99.2437 232.457C99.2437 231.972 99.1364 231.556 98.9217 231.211C98.707 230.856 98.413 230.59 98.0397 230.413C97.6757 230.226 97.2697 230.133 96.8217 230.133C96.1777 230.133 95.627 230.338 95.1697 230.749C94.7217 231.16 94.465 231.729 94.3997 232.457H99.2437ZM105.979 229.041C106.913 229.041 107.669 229.326 108.247 229.895C108.826 230.455 109.115 231.267 109.115 232.331V236.853H107.855V232.513C107.855 231.748 107.664 231.164 107.281 230.763C106.899 230.352 106.376 230.147 105.713 230.147C105.041 230.147 104.505 230.357 104.103 230.777C103.711 231.197 103.515 231.808 103.515 232.611V236.853H102.241V229.181H103.515V230.273C103.767 229.881 104.108 229.578 104.537 229.363C104.976 229.148 105.457 229.041 105.979 229.041ZM112.75 230.231V234.753C112.75 235.126 112.83 235.392 112.988 235.551C113.147 235.7 113.422 235.775 113.814 235.775H114.752V236.853H113.604C112.895 236.853 112.363 236.69 112.008 236.363C111.654 236.036 111.476 235.5 111.476 234.753V230.231H110.482V229.181H111.476V227.249H112.75V229.181H114.752V230.231H112.75ZM27.2833 251.231H25.6733V257.853H24.3993V251.231H23.4053V250.181H24.3993V249.635C24.3993 248.776 24.6186 248.151 25.0573 247.759C25.5053 247.358 26.2193 247.157 27.1993 247.157V248.221C26.6393 248.221 26.2426 248.333 26.0093 248.557C25.7853 248.772 25.6733 249.131 25.6733 249.635V250.181H27.2833V251.231ZM30.0427 251.427C30.2667 250.988 30.584 250.648 30.9947 250.405C31.4147 250.162 31.9233 250.041 32.5207 250.041V251.357H32.1847C30.7567 251.357 30.0427 252.132 30.0427 253.681V257.853H28.7687V250.181H30.0427V251.427ZM37.3373 257.979C36.6187 257.979 35.9653 257.816 35.3773 257.489C34.7987 257.162 34.3413 256.7 34.0053 256.103C33.6787 255.496 33.5153 254.796 33.5153 254.003C33.5153 253.219 33.6833 252.528 34.0193 251.931C34.3647 251.324 34.8313 250.862 35.4193 250.545C36.0073 250.218 36.6653 250.055 37.3933 250.055C38.1213 250.055 38.7793 250.218 39.3673 250.545C39.9553 250.862 40.4173 251.32 40.7533 251.917C41.0987 252.514 41.2713 253.21 41.2713 254.003C41.2713 254.796 41.094 255.496 40.7393 256.103C40.394 256.7 39.9227 257.162 39.3253 257.489C38.728 257.816 38.0653 257.979 37.3373 257.979ZM37.3373 256.859C37.7947 256.859 38.224 256.752 38.6253 256.537C39.0267 256.322 39.3487 256 39.5913 255.571C39.8433 255.142 39.9693 254.619 39.9693 254.003C39.9693 253.387 39.848 252.864 39.6053 252.435C39.3627 252.006 39.0453 251.688 38.6533 251.483C38.2613 251.268 37.8367 251.161 37.3793 251.161C36.9127 251.161 36.4833 251.268 36.0913 251.483C35.7087 251.688 35.4007 252.006 35.1673 252.435C34.934 252.864 34.8173 253.387 34.8173 254.003C34.8173 254.628 34.9293 255.156 35.1533 255.585C35.3867 256.014 35.6947 256.336 36.0773 256.551C36.46 256.756 36.88 256.859 37.3373 256.859ZM52.1724 250.041C52.7697 250.041 53.3017 250.167 53.7684 250.419C54.2351 250.662 54.6037 251.03 54.8744 251.525C55.1451 252.02 55.2804 252.622 55.2804 253.331V257.853H54.0204V253.513C54.0204 252.748 53.8291 252.164 53.4464 251.763C53.0731 251.352 52.5644 251.147 51.9204 251.147C51.2577 251.147 50.7304 251.362 50.3384 251.791C49.9464 252.211 49.7504 252.822 49.7504 253.625V257.853H48.4904V253.513C48.4904 252.748 48.2991 252.164 47.9164 251.763C47.5431 251.352 47.0344 251.147 46.3904 251.147C45.7277 251.147 45.2004 251.362 44.8084 251.791C44.4164 252.211 44.2204 252.822 44.2204 253.625V257.853H42.9464V250.181H44.2204V251.287C44.4724 250.886 44.8084 250.578 45.2284 250.363C45.6577 250.148 46.1291 250.041 46.6424 250.041C47.2864 250.041 47.8557 250.186 48.3504 250.475C48.8451 250.764 49.2137 251.189 49.4564 251.749C49.6711 251.208 50.0257 250.788 50.5204 250.489C51.0151 250.19 51.5657 250.041 52.1724 250.041ZM66.8707 255.683H62.6147L61.8307 257.853H60.4867L64.0147 248.151H65.4847L68.9987 257.853H67.6547L66.8707 255.683ZM66.5067 254.647L64.7427 249.719L62.9787 254.647H66.5067ZM78.2083 257.853H76.9343L71.8103 250.083V257.853H70.5363V248.081H71.8103L76.9343 255.837V248.081H78.2083V257.853ZM86.148 255.683H81.892L81.108 257.853H79.764L83.292 248.151H84.762L88.276 257.853H86.932L86.148 255.683ZM85.784 254.647L84.02 249.719L82.256 254.647H85.784ZM103.766 250.181L101.372 257.853H100.056L98.208 251.763L96.36 257.853H95.044L92.636 250.181H93.938L95.702 256.621L97.606 250.181H98.908L100.77 256.635L102.506 250.181H103.766ZM108.838 250.041C109.417 250.041 109.94 250.167 110.406 250.419C110.873 250.662 111.237 251.03 111.498 251.525C111.769 252.02 111.904 252.622 111.904 253.331V257.853H110.644V253.513C110.644 252.748 110.453 252.164 110.07 251.763C109.688 251.352 109.165 251.147 108.502 251.147C107.83 251.147 107.294 251.357 106.892 251.777C106.5 252.197 106.304 252.808 106.304 253.611V257.853H105.03V247.493H106.304V251.273C106.556 250.881 106.902 250.578 107.34 250.363C107.788 250.148 108.288 250.041 108.838 250.041ZM114.643 248.935C114.401 248.935 114.195 248.851 114.027 248.683C113.859 248.515 113.775 248.31 113.775 248.067C113.775 247.824 113.859 247.619 114.027 247.451C114.195 247.283 114.401 247.199 114.643 247.199C114.877 247.199 115.073 247.283 115.231 247.451C115.399 247.619 115.483 247.824 115.483 248.067C115.483 248.31 115.399 248.515 115.231 248.683C115.073 248.851 114.877 248.935 114.643 248.935ZM115.259 250.181V257.853H113.985V250.181H115.259ZM116.955 254.003C116.955 253.21 117.113 252.519 117.431 251.931C117.748 251.334 118.187 250.872 118.747 250.545C119.316 250.218 119.965 250.055 120.693 250.055C121.635 250.055 122.41 250.284 123.017 250.741C123.633 251.198 124.039 251.833 124.235 252.645H122.863C122.732 252.178 122.475 251.81 122.093 251.539C121.719 251.268 121.253 251.133 120.693 251.133C119.965 251.133 119.377 251.385 118.929 251.889C118.481 252.384 118.257 253.088 118.257 254.003C118.257 254.927 118.481 255.641 118.929 256.145C119.377 256.649 119.965 256.901 120.693 256.901C121.253 256.901 121.719 256.77 122.093 256.509C122.466 256.248 122.723 255.874 122.863 255.389H124.235C124.029 256.173 123.619 256.803 123.003 257.279C122.387 257.746 121.617 257.979 120.693 257.979C119.965 257.979 119.316 257.816 118.747 257.489C118.187 257.162 117.748 256.7 117.431 256.103C117.113 255.506 116.955 254.806 116.955 254.003ZM129.743 250.041C130.321 250.041 130.844 250.167 131.311 250.419C131.777 250.662 132.141 251.03 132.403 251.525C132.673 252.02 132.809 252.622 132.809 253.331V257.853H131.549V253.513C131.549 252.748 131.357 252.164 130.975 251.763C130.592 251.352 130.069 251.147 129.407 251.147C128.735 251.147 128.198 251.357 127.797 251.777C127.405 252.197 127.209 252.808 127.209 253.611V257.853H125.935V247.493H127.209V251.273C127.461 250.881 127.806 250.578 128.245 250.363C128.693 250.148 129.192 250.041 129.743 250.041ZM27.9693 271.041C28.5479 271.041 29.0706 271.167 29.5373 271.419C30.0039 271.662 30.3679 272.03 30.6293 272.525C30.8999 273.02 31.0353 273.622 31.0353 274.331V278.853H29.7753V274.513C29.7753 273.748 29.5839 273.164 29.2013 272.763C28.8186 272.352 28.2959 272.147 27.6333 272.147C26.9613 272.147 26.4246 272.357 26.0233 272.777C25.6313 273.197 25.4353 273.808 25.4353 274.611V278.853H24.1613V268.493H25.4353V272.273C25.6873 271.881 26.0326 271.578 26.4713 271.363C26.9193 271.148 27.4186 271.041 27.9693 271.041ZM40.1163 274.723C40.1163 274.966 40.1023 275.222 40.0743 275.493H33.9423C33.989 276.249 34.2457 276.842 34.7123 277.271C35.1883 277.691 35.7623 277.901 36.4343 277.901C36.985 277.901 37.4423 277.775 37.8063 277.523C38.1797 277.262 38.441 276.916 38.5903 276.487H39.9623C39.757 277.224 39.3463 277.826 38.7303 278.293C38.1143 278.75 37.349 278.979 36.4343 278.979C35.7063 278.979 35.053 278.816 34.4743 278.489C33.905 278.162 33.457 277.7 33.1303 277.103C32.8037 276.496 32.6403 275.796 32.6403 275.003C32.6403 274.21 32.799 273.514 33.1163 272.917C33.4337 272.32 33.877 271.862 34.4463 271.545C35.025 271.218 35.6877 271.055 36.4343 271.055C37.1623 271.055 37.8063 271.214 38.3663 271.531C38.9263 271.848 39.3557 272.287 39.6543 272.847C39.9623 273.398 40.1163 274.023 40.1163 274.723ZM38.8003 274.457C38.8003 273.972 38.693 273.556 38.4783 273.211C38.2637 272.856 37.9697 272.59 37.5963 272.413C37.2323 272.226 36.8263 272.133 36.3783 272.133C35.7343 272.133 35.1837 272.338 34.7263 272.749C34.2783 273.16 34.0217 273.729 33.9563 274.457H38.8003ZM52.3344 271.181V278.853H51.0604V277.719C50.8177 278.111 50.4771 278.419 50.0384 278.643C49.6091 278.858 49.1331 278.965 48.6104 278.965C48.0131 278.965 47.4764 278.844 47.0004 278.601C46.5244 278.349 46.1464 277.976 45.8664 277.481C45.5957 276.986 45.4604 276.384 45.4604 275.675V271.181H46.7204V275.507C46.7204 276.263 46.9117 276.846 47.2944 277.257C47.6771 277.658 48.1997 277.859 48.8624 277.859C49.5437 277.859 50.0804 277.649 50.4724 277.229C50.8644 276.809 51.0604 276.198 51.0604 275.395V271.181H52.3344ZM57.2015 278.979C56.6135 278.979 56.0861 278.881 55.6195 278.685C55.1528 278.48 54.7841 278.2 54.5135 277.845C54.2428 277.481 54.0935 277.066 54.0655 276.599H55.3815C55.4188 276.982 55.5961 277.294 55.9135 277.537C56.2401 277.78 56.6648 277.901 57.1875 277.901C57.6728 277.901 58.0555 277.794 58.3355 277.579C58.6155 277.364 58.7555 277.094 58.7555 276.767C58.7555 276.431 58.6061 276.184 58.3075 276.025C58.0088 275.857 57.5468 275.694 56.9215 275.535C56.3521 275.386 55.8855 275.236 55.5215 275.087C55.1668 274.928 54.8588 274.7 54.5975 274.401C54.3455 274.093 54.2195 273.692 54.2195 273.197C54.2195 272.805 54.3361 272.446 54.5695 272.119C54.8028 271.792 55.1341 271.536 55.5635 271.349C55.9928 271.153 56.4828 271.055 57.0335 271.055C57.8828 271.055 58.5688 271.27 59.0915 271.699C59.6141 272.128 59.8941 272.716 59.9315 273.463H58.6575C58.6295 273.062 58.4661 272.74 58.1675 272.497C57.8781 272.254 57.4861 272.133 56.9915 272.133C56.5341 272.133 56.1701 272.231 55.8995 272.427C55.6288 272.623 55.4935 272.88 55.4935 273.197C55.4935 273.449 55.5728 273.659 55.7315 273.827C55.8995 273.986 56.1048 274.116 56.3475 274.219C56.5995 274.312 56.9448 274.42 57.3835 274.541C57.9341 274.69 58.3821 274.84 58.7275 274.989C59.0728 275.129 59.3668 275.344 59.6095 275.633C59.8615 275.922 59.9921 276.3 60.0015 276.767C60.0015 277.187 59.8848 277.565 59.6515 277.901C59.4181 278.237 59.0868 278.503 58.6575 278.699C58.2375 278.886 57.7521 278.979 57.2015 278.979ZM68.6039 271.181V278.853H67.3299V277.719C67.0873 278.111 66.7466 278.419 66.3079 278.643C65.8786 278.858 65.4026 278.965 64.8799 278.965C64.2826 278.965 63.7459 278.844 63.2699 278.601C62.7939 278.349 62.4159 277.976 62.1359 277.481C61.8653 276.986 61.7299 276.384 61.7299 275.675V271.181H62.9899V275.507C62.9899 276.263 63.1813 276.846 63.5639 277.257C63.9466 277.658 64.4693 277.859 65.1319 277.859C65.8133 277.859 66.3499 277.649 66.7419 277.229C67.1339 276.809 67.3299 276.198 67.3299 275.395V271.181H68.6039ZM70.279 274.989C70.279 274.205 70.4377 273.519 70.755 272.931C71.0723 272.334 71.5063 271.872 72.057 271.545C72.617 271.218 73.2377 271.055 73.919 271.055C74.591 271.055 75.1743 271.2 75.669 271.489C76.1637 271.778 76.5323 272.142 76.775 272.581V271.181H78.063V278.853H76.775V277.425C76.523 277.873 76.145 278.246 75.641 278.545C75.1463 278.834 74.5677 278.979 73.905 278.979C73.2237 278.979 72.6077 278.811 72.057 278.475C71.5063 278.139 71.0723 277.668 70.755 277.061C70.4377 276.454 70.279 275.764 70.279 274.989ZM76.775 275.003C76.775 274.424 76.6583 273.92 76.425 273.491C76.1917 273.062 75.8743 272.735 75.473 272.511C75.081 272.278 74.647 272.161 74.171 272.161C73.695 272.161 73.261 272.273 72.869 272.497C72.477 272.721 72.1643 273.048 71.931 273.477C71.6977 273.906 71.581 274.41 71.581 274.989C71.581 275.577 71.6977 276.09 71.931 276.529C72.1643 276.958 72.477 277.29 72.869 277.523C73.261 277.747 73.695 277.859 74.171 277.859C74.647 277.859 75.081 277.747 75.473 277.523C75.8743 277.29 76.1917 276.958 76.425 276.529C76.6583 276.09 76.775 275.582 76.775 275.003ZM81.4899 268.493V278.853H80.2159V268.493H81.4899ZM84.9353 268.493V278.853H83.6613V268.493H84.9353ZM93.7146 271.181L89.0946 282.465H87.7786L89.2906 278.769L86.1966 271.181H87.6106L90.0186 277.397L92.3986 271.181H93.7146ZM105.532 271.181V278.853H104.258V277.719C104.015 278.111 103.674 278.419 103.236 278.643C102.806 278.858 102.33 278.965 101.808 278.965C101.21 278.965 100.674 278.844 100.198 278.601C99.7217 278.349 99.3437 277.976 99.0637 277.481C98.793 276.986 98.6577 276.384 98.6577 275.675V271.181H99.9177V275.507C99.9177 276.263 100.109 276.846 100.492 277.257C100.874 277.658 101.397 277.859 102.06 277.859C102.741 277.859 103.278 277.649 103.67 277.229C104.062 276.809 104.258 276.198 104.258 275.395V271.181H105.532ZM110.399 278.979C109.811 278.979 109.283 278.881 108.817 278.685C108.35 278.48 107.981 278.2 107.711 277.845C107.44 277.481 107.291 277.066 107.263 276.599H108.579C108.616 276.982 108.793 277.294 109.111 277.537C109.437 277.78 109.862 277.901 110.385 277.901C110.87 277.901 111.253 277.794 111.533 277.579C111.813 277.364 111.953 277.094 111.953 276.767C111.953 276.431 111.803 276.184 111.505 276.025C111.206 275.857 110.744 275.694 110.119 275.535C109.549 275.386 109.083 275.236 108.719 275.087C108.364 274.928 108.056 274.7 107.795 274.401C107.543 274.093 107.417 273.692 107.417 273.197C107.417 272.805 107.533 272.446 107.767 272.119C108 271.792 108.331 271.536 108.761 271.349C109.19 271.153 109.68 271.055 110.231 271.055C111.08 271.055 111.766 271.27 112.289 271.699C112.811 272.128 113.091 272.716 113.129 273.463H111.855C111.827 273.062 111.663 272.74 111.365 272.497C111.075 272.254 110.683 272.133 110.189 272.133C109.731 272.133 109.367 272.231 109.097 272.427C108.826 272.623 108.691 272.88 108.691 273.197C108.691 273.449 108.77 273.659 108.929 273.827C109.097 273.986 109.302 274.116 109.545 274.219C109.797 274.312 110.142 274.42 110.581 274.541C111.131 274.69 111.579 274.84 111.925 274.989C112.27 275.129 112.564 275.344 112.807 275.633C113.059 275.922 113.189 276.3 113.199 276.767C113.199 277.187 113.082 277.565 112.849 277.901C112.615 278.237 112.284 278.503 111.855 278.699C111.435 278.886 110.949 278.979 110.399 278.979ZM121.997 274.723C121.997 274.966 121.983 275.222 121.955 275.493H115.823C115.87 276.249 116.127 276.842 116.593 277.271C117.069 277.691 117.643 277.901 118.315 277.901C118.866 277.901 119.323 277.775 119.687 277.523C120.061 277.262 120.322 276.916 120.471 276.487H121.843C121.638 277.224 121.227 277.826 120.611 278.293C119.995 278.75 119.23 278.979 118.315 278.979C117.587 278.979 116.934 278.816 116.355 278.489C115.786 278.162 115.338 277.7 115.011 277.103C114.685 276.496 114.521 275.796 114.521 275.003C114.521 274.21 114.68 273.514 114.997 272.917C115.315 272.32 115.758 271.862 116.327 271.545C116.906 271.218 117.569 271.055 118.315 271.055C119.043 271.055 119.687 271.214 120.247 271.531C120.807 271.848 121.237 272.287 121.535 272.847C121.843 273.398 121.997 274.023 121.997 274.723ZM120.681 274.457C120.681 273.972 120.574 273.556 120.359 273.211C120.145 272.856 119.851 272.59 119.477 272.413C119.113 272.226 118.707 272.133 118.259 272.133C117.615 272.133 117.065 272.338 116.607 272.749C116.159 273.16 115.903 273.729 115.837 274.457H120.681ZM126.395 278.979C125.807 278.979 125.279 278.881 124.813 278.685C124.346 278.48 123.977 278.2 123.707 277.845C123.436 277.481 123.287 277.066 123.259 276.599H124.575C124.612 276.982 124.789 277.294 125.107 277.537C125.433 277.78 125.858 277.901 126.381 277.901C126.866 277.901 127.249 277.794 127.529 277.579C127.809 277.364 127.949 277.094 127.949 276.767C127.949 276.431 127.799 276.184 127.501 276.025C127.202 275.857 126.74 275.694 126.115 275.535C125.545 275.386 125.079 275.236 124.715 275.087C124.36 274.928 124.052 274.7 123.791 274.401C123.539 274.093 123.413 273.692 123.413 273.197C123.413 272.805 123.529 272.446 123.763 272.119C123.996 271.792 124.327 271.536 124.757 271.349C125.186 271.153 125.676 271.055 126.227 271.055C127.076 271.055 127.762 271.27 128.285 271.699C128.807 272.128 129.087 272.716 129.125 273.463H127.851C127.823 273.062 127.659 272.74 127.361 272.497C127.071 272.254 126.679 272.133 126.185 272.133C125.727 272.133 125.363 272.231 125.093 272.427C124.822 272.623 124.687 272.88 124.687 273.197C124.687 273.449 124.766 273.659 124.925 273.827C125.093 273.986 125.298 274.116 125.541 274.219C125.793 274.312 126.138 274.42 126.577 274.541C127.127 274.69 127.575 274.84 127.921 274.989C128.266 275.129 128.56 275.344 128.803 275.633C129.055 275.922 129.185 276.3 129.195 276.767C129.195 277.187 129.078 277.565 128.845 277.901C128.611 278.237 128.28 278.503 127.851 278.699C127.431 278.886 126.945 278.979 126.395 278.979Z" fill="black" fill-opacity="0.8"/>
</g>
<defs>
<filter id="filter0_ddd_2144_18937" x="0.5" y="75.5361" width="171" height="171" filterUnits="userSpaceOnUse" color-interpolation-filters="sRGB">
<feFlood flood-opacity="0" result="BackgroundImageFix"/>
<feColorMatrix in="SourceAlpha" type="matrix" values="0 0 0 0 0 0 0 0 0 0 0 0 0 0 0 0 0 0 127 0" result="hardAlpha"/>
<feOffset dy="2.5"/>
<feGaussianBlur stdDeviation="1"/>
<feColorMatrix type="matrix" values="0 0 0 0 0 0 0 0 0 0 0 0 0 0 0 0 0 0 0.02 0"/>
<feBlend mode="normal" in2="BackgroundImageFix" result="effect1_dropShadow_2144_18937"/>
<feColorMatrix in="SourceAlpha" type="matrix" values="0 0 0 0 0 0 0 0 0 0 0 0 0 0 0 0 0 0 127 0" result="hardAlpha"/>
<feOffset dy="3"/>
<feGaussianBlur stdDeviation="2.5"/>
<feColorMatrix type="matrix" values="0 0 0 0 0 0 0 0 0 0 0 0 0 0 0 0 0 0 0.04 0"/>
<feBlend mode="normal" in2="effect1_dropShadow_2144_18937" result="effect2_dropShadow_2144_18937"/>
<feColorMatrix in="SourceAlpha" type="matrix" values="0 0 0 0 0 0 0 0 0 0 0 0 0 0 0 0 0 0 127 0" result="hardAlpha"/>
<feOffset dy="8"/>
<feGaussianBlur stdDeviation="5"/>
<feColorMatrix type="matrix" values="0 0 0 0 0 0 0 0 0 0 0 0 0 0 0 0 0 0 0.08 0"/>
<feBlend mode="normal" in2="effect2_dropShadow_2144_18937" result="effect3_dropShadow_2144_18937"/>
<feBlend mode="normal" in="SourceGraphic" in2="effect3_dropShadow_2144_18937" result="shape"/>
</filter>
<filter id="filter1_ddd_2144_18937" x="0.5" y="186.27" width="171" height="171" filterUnits="userSpaceOnUse" color-interpolation-filters="sRGB">
<feFlood flood-opacity="0" result="BackgroundImageFix"/>
<feColorMatrix in="SourceAlpha" type="matrix" values="0 0 0 0 0 0 0 0 0 0 0 0 0 0 0 0 0 0 127 0" result="hardAlpha"/>
<feOffset dy="2.5"/>
<feGaussianBlur stdDeviation="1"/>
<feColorMatrix type="matrix" values="0 0 0 0 0 0 0 0 0 0 0 0 0 0 0 0 0 0 0.02 0"/>
<feBlend mode="normal" in2="BackgroundImageFix" result="effect1_dropShadow_2144_18937"/>
<feColorMatrix in="SourceAlpha" type="matrix" values="0 0 0 0 0 0 0 0 0 0 0 0 0 0 0 0 0 0 127 0" result="hardAlpha"/>
<feOffset dy="3"/>
<feGaussianBlur stdDeviation="2.5"/>
<feColorMatrix type="matrix" values="0 0 0 0 0 0 0 0 0 0 0 0 0 0 0 0 0 0 0.04 0"/>
<feBlend mode="normal" in2="effect1_dropShadow_2144_18937" result="effect2_dropShadow_2144_18937"/>
<feColorMatrix in="SourceAlpha" type="matrix" values="0 0 0 0 0 0 0 0 0 0 0 0 0 0 0 0 0 0 127 0" result="hardAlpha"/>
<feOffset dy="8"/>
<feGaussianBlur stdDeviation="5"/>
<feColorMatrix type="matrix" values="0 0 0 0 0 0 0 0 0 0 0 0 0 0 0 0 0 0 0.08 0"/>
<feBlend mode="normal" in2="effect2_dropShadow_2144_18937" result="effect3_dropShadow_2144_18937"/>
<feBlend mode="normal" in="SourceGraphic" in2="effect3_dropShadow_2144_18937" result="shape"/>
</filter>
</defs>
</svg>
