<svg width="171" height="562" viewBox="0 0 171 562" fill="none" xmlns="http://www.w3.org/2000/svg">
<path d="M32.08 6.88V18H30.256V13.136H25.024V18H23.2V6.88H25.024V11.648H30.256V6.88H32.08ZM34.0332 13.552C34.0332 12.6667 34.2146 11.8827 34.5772 11.2C34.9506 10.5173 35.4519 9.98933 36.0812 9.616C36.7212 9.232 37.4253 9.04 38.1933 9.04C38.8866 9.04 39.4893 9.17867 40.0013 9.456C40.5239 9.72267 40.9399 10.0587 41.2493 10.464V9.184H43.0893V18H41.2493V16.688C40.9399 17.104 40.5186 17.4507 39.9852 17.728C39.4519 18.0053 38.8439 18.144 38.1613 18.144C37.4039 18.144 36.7106 17.952 36.0812 17.568C35.4519 17.1733 34.9506 16.6293 34.5772 15.936C34.2146 15.232 34.0332 14.4373 34.0332 13.552ZM41.2493 13.584C41.2493 12.976 41.1213 12.448 40.8653 12C40.6199 11.552 40.2946 11.2107 39.8893 10.976C39.4839 10.7413 39.0466 10.624 38.5773 10.624C38.1079 10.624 37.6706 10.7413 37.2652 10.976C36.8599 11.2 36.5292 11.536 36.2732 11.984C36.0279 12.4213 35.9053 12.944 35.9053 13.552C35.9053 14.16 36.0279 14.6933 36.2732 15.152C36.5292 15.6107 36.8599 15.9627 37.2652 16.208C37.6813 16.4427 38.1186 16.56 38.5773 16.56C39.0466 16.56 39.4839 16.4427 39.8893 16.208C40.2946 15.9733 40.6199 15.632 40.8653 15.184C41.1213 14.7253 41.2493 14.192 41.2493 13.584ZM47.469 10.464C47.7357 10.016 48.0877 9.66933 48.525 9.424C48.973 9.168 49.501 9.04 50.109 9.04V10.928H49.645C48.9303 10.928 48.3863 11.1093 48.013 11.472C47.6503 11.8347 47.469 12.464 47.469 13.36V18H45.645V9.184H47.469V10.464ZM51.3376 13.552C51.3376 12.6667 51.519 11.8827 51.8816 11.2C52.255 10.5173 52.7563 9.98933 53.3856 9.616C54.0256 9.232 54.735 9.04 55.5136 9.04C56.0896 9.04 56.655 9.168 57.2096 9.424C57.775 9.66933 58.223 10 58.5536 10.416V6.16H60.3936V18H58.5536V16.672C58.255 17.0987 57.839 17.4507 57.3056 17.728C56.783 18.0053 56.1803 18.144 55.4976 18.144C54.7296 18.144 54.0256 17.952 53.3856 17.568C52.7563 17.1733 52.255 16.6293 51.8816 15.936C51.519 15.232 51.3376 14.4373 51.3376 13.552ZM58.5536 13.584C58.5536 12.976 58.4256 12.448 58.1696 12C57.9243 11.552 57.599 11.2107 57.1936 10.976C56.7883 10.7413 56.351 10.624 55.8816 10.624C55.4123 10.624 54.975 10.7413 54.5696 10.976C54.1643 11.2 53.8336 11.536 53.5776 11.984C53.3323 12.4213 53.2096 12.944 53.2096 13.552C53.2096 14.16 53.3323 14.6933 53.5776 15.152C53.8336 15.6107 54.1643 15.9627 54.5696 16.208C54.9856 16.4427 55.423 16.56 55.8816 16.56C56.351 16.56 56.7883 16.4427 57.1936 16.208C57.599 15.9733 57.9243 15.632 58.1696 15.184C58.4256 14.7253 58.5536 14.192 58.5536 13.584ZM69.3936 10.672V15.552C69.3936 15.8827 69.4683 16.1227 69.6176 16.272C69.7776 16.4107 70.0443 16.48 70.4176 16.48H71.5376V18H70.0976C69.2763 18 68.647 17.808 68.2096 17.424C67.7723 17.04 67.5536 16.416 67.5536 15.552V10.672H66.5136V9.184H67.5536V6.992H69.3936V9.184H71.5376V10.672H69.3936ZM77.2027 18.144C76.3707 18.144 75.6187 17.9573 74.9467 17.584C74.2747 17.2 73.7467 16.6667 73.3627 15.984C72.9787 15.2907 72.7867 14.4907 72.7867 13.584C72.7867 12.688 72.9841 11.8933 73.3787 11.2C73.7734 10.5067 74.3121 9.97333 74.9947 9.6C75.6774 9.22667 76.4401 9.04 77.2827 9.04C78.1254 9.04 78.8881 9.22667 79.5707 9.6C80.2534 9.97333 80.7921 10.5067 81.1867 11.2C81.5814 11.8933 81.7787 12.688 81.7787 13.584C81.7787 14.48 81.5761 15.2747 81.1707 15.968C80.7654 16.6613 80.2107 17.2 79.5067 17.584C78.8134 17.9573 78.0454 18.144 77.2027 18.144ZM77.2027 16.56C77.6721 16.56 78.1094 16.448 78.5147 16.224C78.9307 16 79.2667 15.664 79.5227 15.216C79.7787 14.768 79.9067 14.224 79.9067 13.584C79.9067 12.944 79.7841 12.4053 79.5387 11.968C79.2934 11.52 78.9681 11.184 78.5627 10.96C78.1574 10.736 77.7201 10.624 77.2507 10.624C76.7814 10.624 76.3441 10.736 75.9387 10.96C75.5441 11.184 75.2294 11.52 74.9947 11.968C74.7601 12.4053 74.6427 12.944 74.6427 13.584C74.6427 14.5333 74.8827 15.2693 75.3627 15.792C75.8534 16.304 76.4667 16.56 77.2027 16.56ZM89.8821 6.16V18H88.0581V6.16H89.8821ZM96.2609 18.144C95.4289 18.144 94.6769 17.9573 94.0049 17.584C93.3329 17.2 92.8049 16.6667 92.4209 15.984C92.0369 15.2907 91.8449 14.4907 91.8449 13.584C91.8449 12.688 92.0422 11.8933 92.4369 11.2C92.8315 10.5067 93.3702 9.97333 94.0529 9.6C94.7355 9.22667 95.4982 9.04 96.3409 9.04C97.1835 9.04 97.9462 9.22667 98.6289 9.6C99.3115 9.97333 99.8502 10.5067 100.245 11.2C100.64 11.8933 100.837 12.688 100.837 13.584C100.837 14.48 100.634 15.2747 100.229 15.968C99.8235 16.6613 99.2689 17.2 98.5649 17.584C97.8715 17.9573 97.1035 18.144 96.2609 18.144ZM96.2609 16.56C96.7302 16.56 97.1675 16.448 97.5729 16.224C97.9889 16 98.3249 15.664 98.5809 15.216C98.8369 14.768 98.9649 14.224 98.9649 13.584C98.9649 12.944 98.8422 12.4053 98.5969 11.968C98.3515 11.52 98.0262 11.184 97.6209 10.96C97.2155 10.736 96.7782 10.624 96.3089 10.624C95.8395 10.624 95.4022 10.736 94.9969 10.96C94.6022 11.184 94.2875 11.52 94.0529 11.968C93.8182 12.4053 93.7009 12.944 93.7009 13.584C93.7009 14.5333 93.9409 15.2693 94.4209 15.792C94.9115 16.304 95.5249 16.56 96.2609 16.56ZM102.192 13.584C102.192 12.6773 102.373 11.8827 102.736 11.2C103.109 10.5067 103.621 9.97333 104.272 9.6C104.923 9.22667 105.669 9.04 106.512 9.04C107.579 9.04 108.459 9.296 109.152 9.808C109.856 10.3093 110.331 11.0293 110.576 11.968H108.608C108.448 11.5307 108.192 11.1893 107.84 10.944C107.488 10.6987 107.045 10.576 106.512 10.576C105.765 10.576 105.168 10.8427 104.72 11.376C104.283 11.8987 104.064 12.6347 104.064 13.584C104.064 14.5333 104.283 15.2747 104.72 15.808C105.168 16.3413 105.765 16.608 106.512 16.608C107.568 16.608 108.267 16.144 108.608 15.216H110.576C110.32 16.112 109.84 16.8267 109.136 17.36C108.432 17.8827 107.557 18.144 106.512 18.144C105.669 18.144 104.923 17.9573 104.272 17.584C103.621 17.2 103.109 16.6667 102.736 15.984C102.373 15.2907 102.192 14.4907 102.192 13.584ZM111.946 13.552C111.946 12.6667 112.127 11.8827 112.49 11.2C112.863 10.5173 113.364 9.98933 113.994 9.616C114.634 9.232 115.338 9.04 116.106 9.04C116.799 9.04 117.402 9.17867 117.914 9.456C118.436 9.72267 118.852 10.0587 119.162 10.464V9.184H121.002V18H119.162V16.688C118.852 17.104 118.431 17.4507 117.898 17.728C117.364 18.0053 116.756 18.144 116.074 18.144C115.316 18.144 114.623 17.952 113.994 17.568C113.364 17.1733 112.863 16.6293 112.49 15.936C112.127 15.232 111.946 14.4373 111.946 13.552ZM119.162 13.584C119.162 12.976 119.034 12.448 118.778 12C118.532 11.552 118.207 11.2107 117.802 10.976C117.396 10.7413 116.959 10.624 116.49 10.624C116.02 10.624 115.583 10.7413 115.178 10.976C114.772 11.2 114.442 11.536 114.186 11.984C113.94 12.4213 113.818 12.944 113.818 13.552C113.818 14.16 113.94 14.6933 114.186 15.152C114.442 15.6107 114.772 15.9627 115.178 16.208C115.594 16.4427 116.031 16.56 116.49 16.56C116.959 16.56 117.396 16.4427 117.802 16.208C118.207 15.9733 118.532 15.632 118.778 15.184C119.034 14.7253 119.162 14.192 119.162 13.584ZM125.685 10.672V15.552C125.685 15.8827 125.76 16.1227 125.909 16.272C126.069 16.4107 126.336 16.48 126.709 16.48H127.829V18H126.389C125.568 18 124.939 17.808 124.501 17.424C124.064 17.04 123.845 16.416 123.845 15.552V10.672H122.805V9.184H123.845V6.992H125.685V9.184H127.829V10.672H125.685ZM137.751 13.376C137.751 13.7067 137.729 14.0053 137.687 14.272H130.951C131.004 14.976 131.265 15.5413 131.735 15.968C132.204 16.3947 132.78 16.608 133.463 16.608C134.444 16.608 135.137 16.1973 135.543 15.376H137.511C137.244 16.1867 136.759 16.8533 136.055 17.376C135.361 17.888 134.497 18.144 133.463 18.144C132.62 18.144 131.863 17.9573 131.191 17.584C130.529 17.2 130.007 16.6667 129.623 15.984C129.249 15.2907 129.063 14.4907 129.063 13.584C129.063 12.6773 129.244 11.8827 129.607 11.2C129.98 10.5067 130.497 9.97333 131.159 9.6C131.831 9.22667 132.599 9.04 133.463 9.04C134.295 9.04 135.036 9.22133 135.687 9.584C136.337 9.94667 136.844 10.4587 137.207 11.12C137.569 11.7707 137.751 12.5227 137.751 13.376ZM135.847 12.8C135.836 12.128 135.596 11.5893 135.127 11.184C134.657 10.7787 134.076 10.576 133.383 10.576C132.753 10.576 132.215 10.7787 131.767 11.184C131.319 11.5787 131.052 12.1173 130.967 12.8H135.847ZM33.872 33.04C34.5653 33.04 35.184 33.184 35.728 33.472C36.2827 33.76 36.7147 34.1867 37.024 34.752C37.344 35.3173 37.504 36 37.504 36.8V42H35.696V37.072C35.696 36.2827 35.4987 35.68 35.104 35.264C34.7093 34.8373 34.1707 34.624 33.488 34.624C32.8053 34.624 32.2613 34.8373 31.856 35.264C31.4613 35.68 31.264 36.2827 31.264 37.072V42H29.456V37.072C29.456 36.2827 29.2587 35.68 28.864 35.264C28.4693 34.8373 27.9307 34.624 27.248 34.624C26.5653 34.624 26.0213 34.8373 25.616 35.264C25.2213 35.68 25.024 36.2827 25.024 37.072V42H23.2V33.184H25.024V34.192C25.3227 33.8293 25.7013 33.5467 26.16 33.344C26.6187 33.1413 27.1093 33.04 27.632 33.04C28.336 33.04 28.9653 33.1893 29.52 33.488C30.0747 33.7867 30.5013 34.2187 30.8 34.784C31.0667 34.2507 31.4827 33.8293 32.048 33.52C32.6133 33.2 33.2213 33.04 33.872 33.04ZM40.913 32.016C40.5823 32.016 40.305 31.904 40.081 31.68C39.857 31.456 39.745 31.1787 39.745 30.848C39.745 30.5173 39.857 30.24 40.081 30.016C40.305 29.792 40.5823 29.68 40.913 29.68C41.233 29.68 41.505 29.792 41.729 30.016C41.953 30.24 42.065 30.5173 42.065 30.848C42.065 31.1787 41.953 31.456 41.729 31.68C41.505 31.904 41.233 32.016 40.913 32.016ZM41.809 33.184V42H39.985V33.184H41.809ZM46.1877 30.16V42H44.3637V30.16H46.1877ZM56.8225 37.376C56.8225 37.7067 56.8012 38.0053 56.7585 38.272H50.0225C50.0758 38.976 50.3372 39.5413 50.8065 39.968C51.2758 40.3947 51.8518 40.608 52.5345 40.608C53.5158 40.608 54.2092 40.1973 54.6145 39.376H56.5825C56.3158 40.1867 55.8305 40.8533 55.1265 41.376C54.4332 41.888 53.5692 42.144 52.5345 42.144C51.6918 42.144 50.9345 41.9573 50.2625 41.584C49.6012 41.2 49.0785 40.6667 48.6945 39.984C48.3212 39.2907 48.1345 38.4907 48.1345 37.584C48.1345 36.6773 48.3158 35.8827 48.6785 35.2C49.0518 34.5067 49.5692 33.9733 50.2305 33.6C50.9025 33.2267 51.6705 33.04 52.5345 33.04C53.3665 33.04 54.1078 33.2213 54.7585 33.584C55.4092 33.9467 55.9158 34.4587 56.2785 35.12C56.6412 35.7707 56.8225 36.5227 56.8225 37.376ZM54.9185 36.8C54.9078 36.128 54.6678 35.5893 54.1985 35.184C53.7292 34.7787 53.1478 34.576 52.4545 34.576C51.8252 34.576 51.2865 34.7787 50.8385 35.184C50.3905 35.5787 50.1238 36.1173 50.0385 36.8H54.9185ZM58.1695 37.552C58.1695 36.6667 58.3508 35.8827 58.7135 35.2C59.0868 34.5173 59.5882 33.9893 60.2175 33.616C60.8575 33.232 61.5615 33.04 62.3295 33.04C63.0228 33.04 63.6255 33.1787 64.1375 33.456C64.6602 33.7227 65.0762 34.0587 65.3855 34.464V33.184H67.2255V42H65.3855V40.688C65.0762 41.104 64.6548 41.4507 64.1215 41.728C63.5882 42.0053 62.9802 42.144 62.2975 42.144C61.5402 42.144 60.8468 41.952 60.2175 41.568C59.5882 41.1733 59.0868 40.6293 58.7135 39.936C58.3508 39.232 58.1695 38.4373 58.1695 37.552ZM65.3855 37.584C65.3855 36.976 65.2575 36.448 65.0015 36C64.7562 35.552 64.4308 35.2107 64.0255 34.976C63.6202 34.7413 63.1828 34.624 62.7135 34.624C62.2442 34.624 61.8068 34.7413 61.4015 34.976C60.9962 35.2 60.6655 35.536 60.4095 35.984C60.1642 36.4213 60.0415 36.944 60.0415 37.552C60.0415 38.16 60.1642 38.6933 60.4095 39.152C60.6655 39.6107 60.9962 39.9627 61.4015 40.208C61.8175 40.4427 62.2548 40.56 62.7135 40.56C63.1828 40.56 63.6202 40.4427 64.0255 40.208C64.4308 39.9733 64.7562 39.632 65.0015 39.184C65.2575 38.7253 65.3855 38.192 65.3855 37.584ZM73.3332 33.04C74.0159 33.04 74.6186 33.1787 75.1412 33.456C75.6746 33.7227 76.0906 34.0587 76.3892 34.464V33.184H78.2292V42.144C78.2292 42.9547 78.0586 43.6747 77.7172 44.304C77.3759 44.944 76.8799 45.4453 76.2292 45.808C75.5892 46.1707 74.8212 46.352 73.9252 46.352C72.7306 46.352 71.7386 46.0693 70.9492 45.504C70.1599 44.9493 69.7119 44.192 69.6052 43.232H71.4132C71.5519 43.6907 71.8452 44.0587 72.2932 44.336C72.7519 44.624 73.2959 44.768 73.9252 44.768C74.6612 44.768 75.2532 44.544 75.7012 44.096C76.1599 43.648 76.3892 42.9973 76.3892 42.144V40.672C76.0799 41.088 75.6586 41.44 75.1252 41.728C74.6026 42.0053 74.0052 42.144 73.3332 42.144C72.5652 42.144 71.8612 41.952 71.2212 41.568C70.5919 41.1733 70.0906 40.6293 69.7172 39.936C69.3546 39.232 69.1732 38.4373 69.1732 37.552C69.1732 36.6667 69.3546 35.8827 69.7172 35.2C70.0906 34.5173 70.5919 33.9893 71.2212 33.616C71.8612 33.232 72.5652 33.04 73.3332 33.04ZM76.3892 37.584C76.3892 36.976 76.2612 36.448 76.0052 36C75.7599 35.552 75.4346 35.2107 75.0292 34.976C74.6239 34.7413 74.1866 34.624 73.7172 34.624C73.2479 34.624 72.8106 34.7413 72.4052 34.976C71.9999 35.2 71.6692 35.536 71.4132 35.984C71.1679 36.4213 71.0452 36.944 71.0452 37.552C71.0452 38.16 71.1679 38.6933 71.4132 39.152C71.6692 39.6107 71.9999 39.9627 72.4052 40.208C72.8212 40.4427 73.2586 40.56 73.7172 40.56C74.1866 40.56 74.6239 40.4427 75.0292 40.208C75.4346 39.9733 75.7599 39.632 76.0052 39.184C76.2612 38.7253 76.3892 38.192 76.3892 37.584ZM88.865 37.376C88.865 37.7067 88.8437 38.0053 88.801 38.272H82.065C82.1183 38.976 82.3797 39.5413 82.849 39.968C83.3183 40.3947 83.8943 40.608 84.577 40.608C85.5583 40.608 86.2517 40.1973 86.657 39.376H88.625C88.3583 40.1867 87.873 40.8533 87.169 41.376C86.4757 41.888 85.6117 42.144 84.577 42.144C83.7343 42.144 82.977 41.9573 82.305 41.584C81.6437 41.2 81.121 40.6667 80.737 39.984C80.3637 39.2907 80.177 38.4907 80.177 37.584C80.177 36.6773 80.3583 35.8827 80.721 35.2C81.0943 34.5067 81.6117 33.9733 82.273 33.6C82.945 33.2267 83.713 33.04 84.577 33.04C85.409 33.04 86.1503 33.2213 86.801 33.584C87.4517 33.9467 87.9583 34.4587 88.321 35.12C88.6837 35.7707 88.865 36.5227 88.865 37.376ZM86.961 36.8C86.9503 36.128 86.7103 35.5893 86.241 35.184C85.7717 34.7787 85.1903 34.576 84.497 34.576C83.8677 34.576 83.329 34.7787 82.881 35.184C82.433 35.5787 82.1663 36.1173 82.081 36.8H86.961ZM96.0642 32.016C95.7336 32.016 95.4562 31.904 95.2322 31.68C95.0082 31.456 94.8962 31.1787 94.8962 30.848C94.8962 30.5173 95.0082 30.24 95.2322 30.016C95.4562 29.792 95.7336 29.68 96.0642 29.68C96.3842 29.68 96.6562 29.792 96.8802 30.016C97.1042 30.24 97.2162 30.5173 97.2162 30.848C97.2162 31.1787 97.1042 31.456 96.8802 31.68C96.6562 31.904 96.3842 32.016 96.0642 32.016ZM96.9602 33.184V42H95.1362V33.184H96.9602ZM103.963 33.04C104.656 33.04 105.275 33.184 105.819 33.472C106.374 33.76 106.806 34.1867 107.115 34.752C107.424 35.3173 107.579 36 107.579 36.8V42H105.771V37.072C105.771 36.2827 105.574 35.68 105.179 35.264C104.784 34.8373 104.246 34.624 103.563 34.624C102.88 34.624 102.336 34.8373 101.931 35.264C101.536 35.68 101.339 36.2827 101.339 37.072V42H99.515V33.184H101.339V34.192C101.638 33.8293 102.016 33.5467 102.475 33.344C102.944 33.1413 103.44 33.04 103.963 33.04ZM113.762 34.672H112.13V42H110.29V34.672H109.25V33.184H110.29V32.56C110.29 31.5467 110.556 30.8107 111.09 30.352C111.634 29.8827 112.482 29.648 113.634 29.648V31.168C113.079 31.168 112.69 31.2747 112.466 31.488C112.242 31.6907 112.13 32.048 112.13 32.56V33.184H113.762V34.672ZM119.362 42.144C118.53 42.144 117.778 41.9573 117.106 41.584C116.434 41.2 115.906 40.6667 115.522 39.984C115.138 39.2907 114.946 38.4907 114.946 37.584C114.946 36.688 115.143 35.8933 115.538 35.2C115.933 34.5067 116.471 33.9733 117.154 33.6C117.837 33.2267 118.599 33.04 119.442 33.04C120.285 33.04 121.047 33.2267 121.73 33.6C122.413 33.9733 122.951 34.5067 123.346 35.2C123.741 35.8933 123.938 36.688 123.938 37.584C123.938 38.48 123.735 39.2747 123.33 39.968C122.925 40.6613 122.37 41.2 121.666 41.584C120.973 41.9573 120.205 42.144 119.362 42.144ZM119.362 40.56C119.831 40.56 120.269 40.448 120.674 40.224C121.09 40 121.426 39.664 121.682 39.216C121.938 38.768 122.066 38.224 122.066 37.584C122.066 36.944 121.943 36.4053 121.698 35.968C121.453 35.52 121.127 35.184 120.722 34.96C120.317 34.736 119.879 34.624 119.41 34.624C118.941 34.624 118.503 34.736 118.098 34.96C117.703 35.184 117.389 35.52 117.154 35.968C116.919 36.4053 116.802 36.944 116.802 37.584C116.802 38.5333 117.042 39.2693 117.522 39.792C118.013 40.304 118.626 40.56 119.362 40.56Z" fill="#1E1E1E"/>
<g filter="url(#filter0_ddd_2121_10098)">
<rect width="151" height="151" transform="translate(10 78.0005)" fill="#80CAFF"/>
<path d="M24.9353 95.8255V105.583H23.6613V95.8255H24.9353ZM28.6606 98.9615V103.483C28.6606 103.857 28.7399 104.123 28.8986 104.281C29.0572 104.431 29.3326 104.505 29.7246 104.505H30.6626V105.583H29.5146C28.8052 105.583 28.2732 105.42 27.9186 105.093C27.5639 104.767 27.3866 104.23 27.3866 103.483V98.9615H26.3926V97.9115H27.3866V95.9795H28.6606V97.9115H30.6626V98.9615H28.6606ZM46.1586 97.9115L43.7646 105.583H42.4486L40.6006 99.4935L38.7526 105.583H37.4366L35.0286 97.9115H36.3306L38.0946 104.351L39.9986 97.9115H41.3006L43.1626 104.365L44.8986 97.9115H46.1586ZM46.947 101.719C46.947 100.935 47.1056 100.249 47.423 99.6615C47.7403 99.0642 48.1743 98.6022 48.725 98.2755C49.285 97.9488 49.9056 97.7855 50.587 97.7855C51.259 97.7855 51.8423 97.9302 52.337 98.2195C52.8316 98.5088 53.2003 98.8728 53.443 99.3115V97.9115H54.731V105.583H53.443V104.155C53.191 104.603 52.813 104.977 52.309 105.275C51.8143 105.565 51.2356 105.709 50.573 105.709C49.8916 105.709 49.2756 105.541 48.725 105.205C48.1743 104.869 47.7403 104.398 47.423 103.791C47.1056 103.185 46.947 102.494 46.947 101.719ZM53.443 101.733C53.443 101.155 53.3263 100.651 53.093 100.221C52.8596 99.7922 52.5423 99.4655 52.141 99.2415C51.749 99.0082 51.315 98.8915 50.839 98.8915C50.363 98.8915 49.929 99.0035 49.537 99.2275C49.145 99.4515 48.8323 99.7782 48.599 100.207C48.3656 100.637 48.249 101.141 48.249 101.719C48.249 102.307 48.3656 102.821 48.599 103.259C48.8323 103.689 49.145 104.02 49.537 104.253C49.929 104.477 50.363 104.589 50.839 104.589C51.315 104.589 51.749 104.477 52.141 104.253C52.5423 104.02 52.8596 103.689 53.093 103.259C53.3263 102.821 53.443 102.312 53.443 101.733ZM59.5999 105.709C59.0119 105.709 58.4846 105.611 58.0179 105.415C57.5512 105.21 57.1826 104.93 56.9119 104.575C56.6412 104.211 56.4919 103.796 56.4639 103.329H57.7799C57.8172 103.712 57.9946 104.025 58.3119 104.267C58.6386 104.51 59.0632 104.631 59.5859 104.631C60.0712 104.631 60.4539 104.524 60.7339 104.309C61.0139 104.095 61.1539 103.824 61.1539 103.497C61.1539 103.161 61.0046 102.914 60.7059 102.755C60.4072 102.587 59.9452 102.424 59.3199 102.265C58.7506 102.116 58.2839 101.967 57.9199 101.817C57.5652 101.659 57.2572 101.43 56.9959 101.131C56.7439 100.823 56.6179 100.422 56.6179 99.9275C56.6179 99.5355 56.7346 99.1762 56.9679 98.8495C57.2012 98.5228 57.5326 98.2662 57.9619 98.0795C58.3912 97.8835 58.8812 97.7855 59.4319 97.7855C60.2812 97.7855 60.9672 98.0002 61.4899 98.4295C62.0126 98.8588 62.2926 99.4468 62.3299 100.193H61.0559C61.0279 99.7922 60.8646 99.4702 60.5659 99.2275C60.2766 98.9848 59.8846 98.8635 59.3899 98.8635C58.9326 98.8635 58.5686 98.9615 58.2979 99.1575C58.0272 99.3535 57.8919 99.6102 57.8919 99.9275C57.8919 100.179 57.9712 100.389 58.1299 100.557C58.2979 100.716 58.5032 100.847 58.7459 100.949C58.9979 101.043 59.3432 101.15 59.7819 101.271C60.3326 101.421 60.7806 101.57 61.1259 101.719C61.4712 101.859 61.7652 102.074 62.0079 102.363C62.2599 102.653 62.3906 103.031 62.3999 103.497C62.3999 103.917 62.2832 104.295 62.0499 104.631C61.8166 104.967 61.4852 105.233 61.0559 105.429C60.6359 105.616 60.1506 105.709 59.5999 105.709ZM67.4548 101.719C67.4548 100.935 67.6134 100.249 67.9308 99.6615C68.2481 99.0642 68.6821 98.6022 69.2328 98.2755C69.7928 97.9488 70.4181 97.7855 71.1088 97.7855C71.7061 97.7855 72.2615 97.9255 72.7748 98.2055C73.2881 98.4762 73.6801 98.8355 73.9508 99.2835V95.2235H75.2388V105.583H73.9508V104.141C73.6988 104.599 73.3255 104.977 72.8308 105.275C72.3361 105.565 71.7575 105.709 71.0948 105.709C70.4134 105.709 69.7928 105.541 69.2328 105.205C68.6821 104.869 68.2481 104.398 67.9308 103.791C67.6134 103.185 67.4548 102.494 67.4548 101.719ZM73.9508 101.733C73.9508 101.155 73.8341 100.651 73.6008 100.221C73.3675 99.7922 73.0501 99.4655 72.6488 99.2415C72.2568 99.0082 71.8228 98.8915 71.3468 98.8915C70.8708 98.8915 70.4368 99.0035 70.0448 99.2275C69.6528 99.4515 69.3401 99.7782 69.1068 100.207C68.8735 100.637 68.7568 101.141 68.7568 101.719C68.7568 102.307 68.8735 102.821 69.1068 103.259C69.3401 103.689 69.6528 104.02 70.0448 104.253C70.4368 104.477 70.8708 104.589 71.3468 104.589C71.8228 104.589 72.2568 104.477 72.6488 104.253C73.0501 104.02 73.3675 103.689 73.6008 103.259C73.8341 102.821 73.9508 102.312 73.9508 101.733ZM78.0497 96.6655C77.8071 96.6655 77.6017 96.5815 77.4337 96.4135C77.2657 96.2455 77.1817 96.0402 77.1817 95.7975C77.1817 95.5548 77.2657 95.3495 77.4337 95.1815C77.6017 95.0135 77.8071 94.9295 78.0497 94.9295C78.2831 94.9295 78.4791 95.0135 78.6377 95.1815C78.8057 95.3495 78.8897 95.5548 78.8897 95.7975C78.8897 96.0402 78.8057 96.2455 78.6377 96.4135C78.4791 96.5815 78.2831 96.6655 78.0497 96.6655ZM78.6657 97.9115V105.583H77.3917V97.9115H78.6657ZM83.959 98.9615H82.349V105.583H81.075V98.9615H80.081V97.9115H81.075V97.3655C81.075 96.5068 81.2944 95.8815 81.733 95.4895C82.181 95.0882 82.895 94.8875 83.875 94.8875V95.9515C83.315 95.9515 82.9184 96.0635 82.685 96.2875C82.461 96.5022 82.349 96.8615 82.349 97.3655V97.9115H83.959V98.9615ZM88.5665 98.9615H86.9565V105.583H85.6825V98.9615H84.6885V97.9115H85.6825V97.3655C85.6825 96.5068 85.9018 95.8815 86.3405 95.4895C86.7885 95.0882 87.5025 94.8875 88.4825 94.8875V95.9515C87.9225 95.9515 87.5258 96.0635 87.2925 96.2875C87.0685 96.5022 86.9565 96.8615 86.9565 97.3655V97.9115H88.5665V98.9615ZM90.7099 96.6655C90.4672 96.6655 90.2619 96.5815 90.0939 96.4135C89.9259 96.2455 89.8419 96.0402 89.8419 95.7975C89.8419 95.5548 89.9259 95.3495 90.0939 95.1815C90.2619 95.0135 90.4672 94.9295 90.7099 94.9295C90.9432 94.9295 91.1392 95.0135 91.2979 95.1815C91.4659 95.3495 91.5499 95.5548 91.5499 95.7975C91.5499 96.0402 91.4659 96.2455 91.2979 96.4135C91.1392 96.5815 90.9432 96.6655 90.7099 96.6655ZM91.3259 97.9115V105.583H90.0519V97.9115H91.3259ZM93.0212 101.733C93.0212 100.94 93.1799 100.249 93.4972 99.6615C93.8145 99.0642 94.2532 98.6022 94.8132 98.2755C95.3825 97.9488 96.0312 97.7855 96.7592 97.7855C97.7019 97.7855 98.4765 98.0142 99.0832 98.4715C99.6992 98.9288 100.105 99.5635 100.301 100.375H98.9292C98.7985 99.9088 98.5419 99.5402 98.1592 99.2695C97.7859 98.9988 97.3192 98.8635 96.7592 98.8635C96.0312 98.8635 95.4432 99.1155 94.9952 99.6195C94.5472 100.114 94.3232 100.819 94.3232 101.733C94.3232 102.657 94.5472 103.371 94.9952 103.875C95.4432 104.379 96.0312 104.631 96.7592 104.631C97.3192 104.631 97.7859 104.501 98.1592 104.239C98.5325 103.978 98.7892 103.605 98.9292 103.119H100.301C100.096 103.903 99.6852 104.533 99.0692 105.009C98.4532 105.476 97.6832 105.709 96.7592 105.709C96.0312 105.709 95.3825 105.546 94.8132 105.219C94.2532 104.893 93.8145 104.431 93.4972 103.833C93.1799 103.236 93.0212 102.536 93.0212 101.733ZM108.805 97.9115V105.583H107.531V104.449C107.288 104.841 106.948 105.149 106.509 105.373C106.08 105.588 105.604 105.695 105.081 105.695C104.484 105.695 103.947 105.574 103.471 105.331C102.995 105.079 102.617 104.706 102.337 104.211C102.066 103.717 101.931 103.115 101.931 102.405V97.9115H103.191V102.237C103.191 102.993 103.382 103.577 103.765 103.987C104.148 104.389 104.67 104.589 105.333 104.589C106.014 104.589 106.551 104.379 106.943 103.959C107.335 103.539 107.531 102.928 107.531 102.125V97.9115H108.805ZM112.23 95.2235V105.583H110.956V95.2235H112.23ZM115.955 98.9615V103.483C115.955 103.857 116.035 104.123 116.193 104.281C116.352 104.431 116.627 104.505 117.019 104.505H117.957V105.583H116.809C116.1 105.583 115.568 105.42 115.213 105.093C114.859 104.767 114.681 104.23 114.681 103.483V98.9615H113.687V97.9115H114.681V95.9795H115.955V97.9115H117.957V98.9615H115.955ZM124.788 98.9615V103.483C124.788 103.857 124.867 104.123 125.026 104.281C125.184 104.431 125.46 104.505 125.852 104.505H126.79V105.583H125.642C124.932 105.583 124.4 105.42 124.046 105.093C123.691 104.767 123.514 104.23 123.514 103.483V98.9615H122.52V97.9115H123.514V95.9795H124.788V97.9115H126.79V98.9615H124.788ZM131.679 105.709C130.96 105.709 130.307 105.546 129.719 105.219C129.14 104.893 128.683 104.431 128.347 103.833C128.02 103.227 127.857 102.527 127.857 101.733C127.857 100.949 128.025 100.259 128.361 99.6615C128.706 99.0548 129.173 98.5928 129.761 98.2755C130.349 97.9488 131.007 97.7855 131.735 97.7855C132.463 97.7855 133.121 97.9488 133.709 98.2755C134.297 98.5928 134.759 99.0502 135.095 99.6475C135.44 100.245 135.613 100.94 135.613 101.733C135.613 102.527 135.436 103.227 135.081 103.833C134.736 104.431 134.264 104.893 133.667 105.219C133.07 105.546 132.407 105.709 131.679 105.709ZM131.679 104.589C132.136 104.589 132.566 104.482 132.967 104.267C133.368 104.053 133.69 103.731 133.933 103.301C134.185 102.872 134.311 102.349 134.311 101.733C134.311 101.117 134.19 100.595 133.947 100.165C133.704 99.7362 133.387 99.4188 132.995 99.2135C132.603 98.9988 132.178 98.8915 131.721 98.8915C131.254 98.8915 130.825 98.9988 130.433 99.2135C130.05 99.4188 129.742 99.7362 129.509 100.165C129.276 100.595 129.159 101.117 129.159 101.733C129.159 102.359 129.271 102.886 129.495 103.315C129.728 103.745 130.036 104.067 130.419 104.281C130.802 104.487 131.222 104.589 131.679 104.589ZM26.7833 119.961H25.1733V126.583H23.8993V119.961H22.9053V118.911H23.8993V118.365C23.8993 117.507 24.1186 116.881 24.5573 116.489C25.0053 116.088 25.7193 115.887 26.6993 115.887V116.951C26.1393 116.951 25.7426 117.063 25.5093 117.287C25.2853 117.502 25.1733 117.861 25.1733 118.365V118.911H26.7833V119.961ZM28.9267 117.665C28.684 117.665 28.4787 117.581 28.3107 117.413C28.1427 117.245 28.0587 117.04 28.0587 116.797C28.0587 116.555 28.1427 116.349 28.3107 116.181C28.4787 116.013 28.684 115.929 28.9267 115.929C29.16 115.929 29.356 116.013 29.5147 116.181C29.6827 116.349 29.7667 116.555 29.7667 116.797C29.7667 117.04 29.6827 117.245 29.5147 117.413C29.356 117.581 29.16 117.665 28.9267 117.665ZM29.5427 118.911V126.583H28.2687V118.911H29.5427ZM35.452 118.771C36.3853 118.771 37.1413 119.056 37.72 119.625C38.2987 120.185 38.588 120.997 38.588 122.061V126.583H37.328V122.243C37.328 121.478 37.1367 120.895 36.754 120.493C36.3713 120.083 35.8487 119.877 35.186 119.877C34.514 119.877 33.9773 120.087 33.576 120.507C33.184 120.927 32.988 121.539 32.988 122.341V126.583H31.714V118.911H32.988V120.003C33.24 119.611 33.5807 119.308 34.01 119.093C34.4487 118.879 34.9293 118.771 35.452 118.771ZM40.1931 122.719C40.1931 121.935 40.3517 121.249 40.6691 120.661C40.9864 120.064 41.4204 119.602 41.9711 119.275C42.5311 118.949 43.1564 118.785 43.8471 118.785C44.4444 118.785 44.9997 118.925 45.5131 119.205C46.0264 119.476 46.4184 119.835 46.6891 120.283V116.223H47.9771V126.583H46.6891V125.141C46.4371 125.599 46.0637 125.977 45.5691 126.275C45.0744 126.565 44.4957 126.709 43.8331 126.709C43.1517 126.709 42.5311 126.541 41.9711 126.205C41.4204 125.869 40.9864 125.398 40.6691 124.791C40.3517 124.185 40.1931 123.494 40.1931 122.719ZM46.6891 122.733C46.6891 122.155 46.5724 121.651 46.3391 121.221C46.1057 120.792 45.7884 120.465 45.3871 120.241C44.9951 120.008 44.5611 119.891 44.0851 119.891C43.6091 119.891 43.1751 120.003 42.7831 120.227C42.3911 120.451 42.0784 120.778 41.8451 121.207C41.6117 121.637 41.4951 122.141 41.4951 122.719C41.4951 123.307 41.6117 123.821 41.8451 124.259C42.0784 124.689 42.3911 125.02 42.7831 125.253C43.1751 125.477 43.6091 125.589 44.0851 125.589C44.5611 125.589 44.9951 125.477 45.3871 125.253C45.7884 125.02 46.1057 124.689 46.3391 124.259C46.5724 123.821 46.6891 123.312 46.6891 122.733ZM55.4164 119.961V124.483C55.4164 124.857 55.4958 125.123 55.6544 125.281C55.8131 125.431 56.0884 125.505 56.4804 125.505H57.4184V126.583H56.2704C55.5611 126.583 55.0291 126.42 54.6744 126.093C54.3198 125.767 54.1424 125.23 54.1424 124.483V119.961H53.1484V118.911H54.1424V116.979H55.4164V118.911H57.4184V119.961H55.4164ZM62.77 118.771C63.3487 118.771 63.8714 118.897 64.338 119.149C64.8047 119.392 65.1687 119.761 65.43 120.255C65.7007 120.75 65.836 121.352 65.836 122.061V126.583H64.576V122.243C64.576 121.478 64.3847 120.895 64.002 120.493C63.6194 120.083 63.0967 119.877 62.434 119.877C61.762 119.877 61.2254 120.087 60.824 120.507C60.432 120.927 60.236 121.539 60.236 122.341V126.583H58.962V116.223H60.236V120.003C60.488 119.611 60.8334 119.308 61.272 119.093C61.72 118.879 62.2194 118.771 62.77 118.771ZM74.9171 122.453C74.9171 122.696 74.9031 122.953 74.8751 123.223H68.7431C68.7898 123.979 69.0464 124.572 69.5131 125.001C69.9891 125.421 70.5631 125.631 71.2351 125.631C71.7858 125.631 72.2431 125.505 72.6071 125.253C72.9804 124.992 73.2418 124.647 73.3911 124.217H74.7631C74.5578 124.955 74.1471 125.557 73.5311 126.023C72.9151 126.481 72.1498 126.709 71.2351 126.709C70.5071 126.709 69.8538 126.546 69.2751 126.219C68.7058 125.893 68.2578 125.431 67.9311 124.833C67.6044 124.227 67.4411 123.527 67.4411 122.733C67.4411 121.94 67.5998 121.245 67.9171 120.647C68.2344 120.05 68.6778 119.593 69.2471 119.275C69.8258 118.949 70.4884 118.785 71.2351 118.785C71.9631 118.785 72.6071 118.944 73.1671 119.261C73.7271 119.579 74.1564 120.017 74.4551 120.577C74.7631 121.128 74.9171 121.753 74.9171 122.453ZM73.6011 122.187C73.6011 121.702 73.4938 121.287 73.2791 120.941C73.0644 120.587 72.7704 120.321 72.3971 120.143C72.0331 119.957 71.6271 119.863 71.1791 119.863C70.5351 119.863 69.9844 120.069 69.5271 120.479C69.0791 120.89 68.8224 121.459 68.7571 122.187H73.6011ZM23.1853 143.719C23.1853 142.935 23.3439 142.249 23.6613 141.661C23.9786 141.064 24.4126 140.602 24.9633 140.275C25.5233 139.949 26.1439 139.785 26.8253 139.785C27.4973 139.785 28.0806 139.93 28.5753 140.219C29.0699 140.509 29.4386 140.873 29.6813 141.311V139.911H30.9693V147.583H29.6813V146.155C29.4293 146.603 29.0513 146.977 28.5473 147.275C28.0526 147.565 27.4739 147.709 26.8113 147.709C26.1299 147.709 25.5139 147.541 24.9633 147.205C24.4126 146.869 23.9786 146.398 23.6613 145.791C23.3439 145.185 23.1853 144.494 23.1853 143.719ZM29.6813 143.733C29.6813 143.155 29.5646 142.651 29.3313 142.221C29.0979 141.792 28.7806 141.465 28.3793 141.241C27.9873 141.008 27.5533 140.891 27.0773 140.891C26.6013 140.891 26.1673 141.003 25.7753 141.227C25.3833 141.451 25.0706 141.778 24.8373 142.207C24.6039 142.637 24.4873 143.141 24.4873 143.719C24.4873 144.307 24.6039 144.821 24.8373 145.259C25.0706 145.689 25.3833 146.02 25.7753 146.253C26.1673 146.477 26.6013 146.589 27.0773 146.589C27.5533 146.589 27.9873 146.477 28.3793 146.253C28.7806 146.02 29.0979 145.689 29.3313 145.259C29.5646 144.821 29.6813 144.312 29.6813 143.733ZM32.6462 143.733C32.6462 142.94 32.8049 142.249 33.1222 141.661C33.4395 141.064 33.8782 140.602 34.4382 140.275C35.0075 139.949 35.6562 139.785 36.3842 139.785C37.3269 139.785 38.1015 140.014 38.7082 140.471C39.3242 140.929 39.7302 141.563 39.9262 142.375H38.5542C38.4235 141.909 38.1669 141.54 37.7842 141.269C37.4109 140.999 36.9442 140.863 36.3842 140.863C35.6562 140.863 35.0682 141.115 34.6202 141.619C34.1722 142.114 33.9482 142.819 33.9482 143.733C33.9482 144.657 34.1722 145.371 34.6202 145.875C35.0682 146.379 35.6562 146.631 36.3842 146.631C36.9442 146.631 37.4109 146.501 37.7842 146.239C38.1575 145.978 38.4142 145.605 38.5542 145.119H39.9262C39.7209 145.903 39.3102 146.533 38.6942 147.009C38.0782 147.476 37.3082 147.709 36.3842 147.709C35.6562 147.709 35.0075 147.546 34.4382 147.219C33.8782 146.893 33.4395 146.431 33.1222 145.833C32.8049 145.236 32.6462 144.536 32.6462 143.733ZM41.1501 143.733C41.1501 142.94 41.3088 142.249 41.6261 141.661C41.9434 141.064 42.3821 140.602 42.9421 140.275C43.5114 139.949 44.1601 139.785 44.8881 139.785C45.8308 139.785 46.6054 140.014 47.2121 140.471C47.8281 140.929 48.2341 141.563 48.4301 142.375H47.0581C46.9274 141.909 46.6708 141.54 46.2881 141.269C45.9148 140.999 45.4481 140.863 44.8881 140.863C44.1601 140.863 43.5721 141.115 43.1241 141.619C42.6761 142.114 42.4521 142.819 42.4521 143.733C42.4521 144.657 42.6761 145.371 43.1241 145.875C43.5721 146.379 44.1601 146.631 44.8881 146.631C45.4481 146.631 45.9148 146.501 46.2881 146.239C46.6614 145.978 46.9181 145.605 47.0581 145.119H48.4301C48.2248 145.903 47.8141 146.533 47.1981 147.009C46.5821 147.476 45.8121 147.709 44.8881 147.709C44.1601 147.709 43.5114 147.546 42.9421 147.219C42.3821 146.893 41.9434 146.431 41.6261 145.833C41.3088 145.236 41.1501 144.536 41.1501 143.733ZM56.934 139.911V147.583H55.66V146.449C55.4173 146.841 55.0767 147.149 54.638 147.373C54.2087 147.588 53.7327 147.695 53.21 147.695C52.6127 147.695 52.076 147.574 51.6 147.331C51.124 147.079 50.746 146.706 50.466 146.211C50.1953 145.717 50.06 145.115 50.06 144.405V139.911H51.32V144.237C51.32 144.993 51.5113 145.577 51.894 145.987C52.2767 146.389 52.7993 146.589 53.462 146.589C54.1433 146.589 54.68 146.379 55.072 145.959C55.464 145.539 55.66 144.928 55.66 144.125V139.911H56.934ZM68.3111 139.771C68.9084 139.771 69.4404 139.897 69.9071 140.149C70.3737 140.392 70.7424 140.761 71.0131 141.255C71.2837 141.75 71.4191 142.352 71.4191 143.061V147.583H70.1591V143.243C70.1591 142.478 69.9677 141.895 69.5851 141.493C69.2117 141.083 68.7031 140.877 68.0591 140.877C67.3964 140.877 66.8691 141.092 66.4771 141.521C66.0851 141.941 65.8891 142.553 65.8891 143.355V147.583H64.6291V143.243C64.6291 142.478 64.4377 141.895 64.0551 141.493C63.6817 141.083 63.1731 140.877 62.5291 140.877C61.8664 140.877 61.3391 141.092 60.9471 141.521C60.5551 141.941 60.3591 142.553 60.3591 143.355V147.583H59.0851V139.911H60.3591V141.017C60.6111 140.616 60.9471 140.308 61.3671 140.093C61.7964 139.879 62.2677 139.771 62.7811 139.771C63.4251 139.771 63.9944 139.916 64.4891 140.205C64.9837 140.495 65.3524 140.919 65.5951 141.479C65.8097 140.938 66.1644 140.518 66.6591 140.219C67.1537 139.921 67.7044 139.771 68.3111 139.771ZM80.3129 139.911V147.583H79.0389V146.449C78.7962 146.841 78.4556 147.149 78.0169 147.373C77.5876 147.588 77.1116 147.695 76.5889 147.695C75.9916 147.695 75.4549 147.574 74.9789 147.331C74.5029 147.079 74.1249 146.706 73.8449 146.211C73.5742 145.717 73.4389 145.115 73.4389 144.405V139.911H74.6989V144.237C74.6989 144.993 74.8902 145.577 75.2729 145.987C75.6556 146.389 76.1782 146.589 76.8409 146.589C77.5222 146.589 78.0589 146.379 78.4509 145.959C78.8429 145.539 79.0389 144.928 79.0389 144.125V139.911H80.3129ZM83.738 137.223V147.583H82.464V137.223H83.738ZM85.4333 143.719C85.4333 142.935 85.592 142.249 85.9093 141.661C86.2266 141.064 86.6606 140.602 87.2113 140.275C87.7713 139.949 88.392 139.785 89.0733 139.785C89.7453 139.785 90.3286 139.93 90.8233 140.219C91.318 140.509 91.6866 140.873 91.9293 141.311V139.911H93.2173V147.583H91.9293V146.155C91.6773 146.603 91.2993 146.977 90.7953 147.275C90.3006 147.565 89.722 147.709 89.0593 147.709C88.378 147.709 87.762 147.541 87.2113 147.205C86.6606 146.869 86.2266 146.398 85.9093 145.791C85.592 145.185 85.4333 144.494 85.4333 143.719ZM91.9293 143.733C91.9293 143.155 91.8126 142.651 91.5793 142.221C91.346 141.792 91.0286 141.465 90.6273 141.241C90.2353 141.008 89.8013 140.891 89.3253 140.891C88.8493 140.891 88.4153 141.003 88.0233 141.227C87.6313 141.451 87.3186 141.778 87.0853 142.207C86.852 142.637 86.7353 143.141 86.7353 143.719C86.7353 144.307 86.852 144.821 87.0853 145.259C87.3186 145.689 87.6313 146.02 88.0233 146.253C88.4153 146.477 88.8493 146.589 89.3253 146.589C89.8013 146.589 90.2353 146.477 90.6273 146.253C91.0286 146.02 91.346 145.689 91.5793 145.259C91.8126 144.821 91.9293 144.312 91.9293 143.733ZM96.9242 140.961V145.483C96.9242 145.857 97.0036 146.123 97.1622 146.281C97.3209 146.431 97.5962 146.505 97.9882 146.505H98.9262V147.583H97.7782C97.0689 147.583 96.5369 147.42 96.1822 147.093C95.8276 146.767 95.6502 146.23 95.6502 145.483V140.961H94.6562V139.911H95.6502V137.979H96.9242V139.911H98.9262V140.961H96.9242ZM107.47 143.453C107.47 143.696 107.456 143.953 107.428 144.223H101.296C101.343 144.979 101.599 145.572 102.066 146.001C102.542 146.421 103.116 146.631 103.788 146.631C104.339 146.631 104.796 146.505 105.16 146.253C105.533 145.992 105.795 145.647 105.944 145.217H107.316C107.111 145.955 106.7 146.557 106.084 147.023C105.468 147.481 104.703 147.709 103.788 147.709C103.06 147.709 102.407 147.546 101.828 147.219C101.259 146.893 100.811 146.431 100.484 145.833C100.157 145.227 99.9938 144.527 99.9938 143.733C99.9938 142.94 100.153 142.245 100.47 141.647C100.787 141.05 101.231 140.593 101.8 140.275C102.379 139.949 103.041 139.785 103.788 139.785C104.516 139.785 105.16 139.944 105.72 140.261C106.28 140.579 106.709 141.017 107.008 141.577C107.316 142.128 107.47 142.753 107.47 143.453ZM106.154 143.187C106.154 142.702 106.047 142.287 105.832 141.941C105.617 141.587 105.323 141.321 104.95 141.143C104.586 140.957 104.18 140.863 103.732 140.863C103.088 140.863 102.537 141.069 102.08 141.479C101.632 141.89 101.375 142.459 101.31 143.187H106.154ZM108.675 143.719C108.675 142.935 108.834 142.249 109.151 141.661C109.469 141.064 109.903 140.602 110.453 140.275C111.013 139.949 111.639 139.785 112.329 139.785C112.927 139.785 113.482 139.925 113.995 140.205C114.509 140.476 114.901 140.835 115.171 141.283V137.223H116.459V147.583H115.171V146.141C114.919 146.599 114.546 146.977 114.051 147.275C113.557 147.565 112.978 147.709 112.315 147.709C111.634 147.709 111.013 147.541 110.453 147.205C109.903 146.869 109.469 146.398 109.151 145.791C108.834 145.185 108.675 144.494 108.675 143.719ZM115.171 143.733C115.171 143.155 115.055 142.651 114.821 142.221C114.588 141.792 114.271 141.465 113.869 141.241C113.477 141.008 113.043 140.891 112.567 140.891C112.091 140.891 111.657 141.003 111.265 141.227C110.873 141.451 110.561 141.778 110.327 142.207C110.094 142.637 109.977 143.141 109.977 143.719C109.977 144.307 110.094 144.821 110.327 145.259C110.561 145.689 110.873 146.02 111.265 146.253C111.657 146.477 112.091 146.589 112.567 146.589C113.043 146.589 113.477 146.477 113.869 146.253C114.271 146.02 114.588 145.689 114.821 145.259C115.055 144.821 115.171 144.312 115.171 143.733ZM32.8873 160.771C33.4846 160.771 34.0166 160.897 34.4833 161.149C34.9499 161.392 35.3186 161.761 35.5893 162.255C35.8599 162.75 35.9953 163.352 35.9953 164.061V168.583H34.7353V164.243C34.7353 163.478 34.5439 162.895 34.1613 162.493C33.7879 162.083 33.2793 161.877 32.6353 161.877C31.9726 161.877 31.4453 162.092 31.0533 162.521C30.6613 162.941 30.4653 163.553 30.4653 164.355V168.583H29.2053V164.243C29.2053 163.478 29.0139 162.895 28.6313 162.493C28.2579 162.083 27.7493 161.877 27.1053 161.877C26.4426 161.877 25.9153 162.092 25.5233 162.521C25.1313 162.941 24.9353 163.553 24.9353 164.355V168.583H23.6613V160.911H24.9353V162.017C25.1873 161.616 25.5233 161.308 25.9433 161.093C26.3726 160.879 26.8439 160.771 27.3573 160.771C28.0013 160.771 28.5706 160.916 29.0653 161.205C29.5599 161.495 29.9286 161.919 30.1713 162.479C30.3859 161.938 30.7406 161.518 31.2353 161.219C31.7299 160.921 32.2806 160.771 32.8873 160.771ZM38.7431 159.665C38.5004 159.665 38.2951 159.581 38.1271 159.413C37.9591 159.245 37.8751 159.04 37.8751 158.797C37.8751 158.555 37.9591 158.349 38.1271 158.181C38.2951 158.013 38.5004 157.929 38.7431 157.929C38.9764 157.929 39.1724 158.013 39.3311 158.181C39.4991 158.349 39.5831 158.555 39.5831 158.797C39.5831 159.04 39.4991 159.245 39.3311 159.413C39.1724 159.581 38.9764 159.665 38.7431 159.665ZM39.3591 160.911V168.583H38.0851V160.911H39.3591ZM42.8044 158.223V168.583H41.5304V158.223H42.8044ZM51.9757 164.453C51.9757 164.696 51.9617 164.953 51.9337 165.223H45.8017C45.8484 165.979 46.105 166.572 46.5717 167.001C47.0477 167.421 47.6217 167.631 48.2937 167.631C48.8444 167.631 49.3017 167.505 49.6657 167.253C50.039 166.992 50.3004 166.647 50.4497 166.217H51.8217C51.6164 166.955 51.2057 167.557 50.5897 168.023C49.9737 168.481 49.2084 168.709 48.2937 168.709C47.5657 168.709 46.9124 168.546 46.3337 168.219C45.7644 167.893 45.3164 167.431 44.9897 166.833C44.663 166.227 44.4997 165.527 44.4997 164.733C44.4997 163.94 44.6584 163.245 44.9757 162.647C45.293 162.05 45.7364 161.593 46.3057 161.275C46.8844 160.949 47.547 160.785 48.2937 160.785C49.0217 160.785 49.6657 160.944 50.2257 161.261C50.7857 161.579 51.215 162.017 51.5137 162.577C51.8217 163.128 51.9757 163.753 51.9757 164.453ZM50.6597 164.187C50.6597 163.702 50.5524 163.287 50.3377 162.941C50.123 162.587 49.829 162.321 49.4557 162.143C49.0917 161.957 48.6857 161.863 48.2377 161.863C47.5937 161.863 47.043 162.069 46.5857 162.479C46.1377 162.89 45.881 163.459 45.8157 164.187H50.6597ZM53.1813 164.719C53.1813 163.935 53.34 163.249 53.6573 162.661C53.9747 162.064 54.4087 161.602 54.9593 161.275C55.5193 160.949 56.14 160.785 56.8213 160.785C57.4933 160.785 58.0767 160.93 58.5713 161.219C59.066 161.509 59.4347 161.873 59.6773 162.311V160.911H60.9653V168.583H59.6773V167.155C59.4253 167.603 59.0473 167.977 58.5433 168.275C58.0487 168.565 57.47 168.709 56.8073 168.709C56.126 168.709 55.51 168.541 54.9593 168.205C54.4087 167.869 53.9747 167.398 53.6573 166.791C53.34 166.185 53.1813 165.494 53.1813 164.719ZM59.6773 164.733C59.6773 164.155 59.5607 163.651 59.3273 163.221C59.094 162.792 58.7767 162.465 58.3753 162.241C57.9833 162.008 57.5493 161.891 57.0733 161.891C56.5973 161.891 56.1633 162.003 55.7713 162.227C55.3793 162.451 55.0667 162.778 54.8333 163.207C54.6 163.637 54.4833 164.141 54.4833 164.719C54.4833 165.307 54.6 165.821 54.8333 166.259C55.0667 166.689 55.3793 167.02 55.7713 167.253C56.1633 167.477 56.5973 167.589 57.0733 167.589C57.5493 167.589 57.9833 167.477 58.3753 167.253C58.7767 167.02 59.094 166.689 59.3273 166.259C59.5607 165.821 59.6773 165.312 59.6773 164.733ZM66.2823 160.785C66.945 160.785 67.5236 160.93 68.0183 161.219C68.5223 161.509 68.8956 161.873 69.1383 162.311V160.911H70.4263V168.751C70.4263 169.451 70.277 170.072 69.9783 170.613C69.6796 171.164 69.2503 171.593 68.6903 171.901C68.1396 172.209 67.4956 172.363 66.7583 172.363C65.7503 172.363 64.9103 172.125 64.2383 171.649C63.5663 171.173 63.1696 170.525 63.0483 169.703H64.3083C64.4483 170.17 64.7376 170.543 65.1763 170.823C65.615 171.113 66.1423 171.257 66.7583 171.257C67.4583 171.257 68.0276 171.038 68.4663 170.599C68.9143 170.161 69.1383 169.545 69.1383 168.751V167.141C68.8863 167.589 68.513 167.963 68.0183 168.261C67.5236 168.56 66.945 168.709 66.2823 168.709C65.6009 168.709 64.9803 168.541 64.4203 168.205C63.8696 167.869 63.4356 167.398 63.1183 166.791C62.8009 166.185 62.6423 165.494 62.6423 164.719C62.6423 163.935 62.8009 163.249 63.1183 162.661C63.4356 162.064 63.8696 161.602 64.4203 161.275C64.9803 160.949 65.6009 160.785 66.2823 160.785ZM69.1383 164.733C69.1383 164.155 69.0216 163.651 68.7883 163.221C68.555 162.792 68.2376 162.465 67.8363 162.241C67.4443 162.008 67.0103 161.891 66.5343 161.891C66.0583 161.891 65.6243 162.003 65.2323 162.227C64.8403 162.451 64.5276 162.778 64.2943 163.207C64.061 163.637 63.9443 164.141 63.9443 164.719C63.9443 165.307 64.061 165.821 64.2943 166.259C64.5276 166.689 64.8403 167.02 65.2323 167.253C65.6243 167.477 66.0583 167.589 66.5343 167.589C67.0103 167.589 67.4443 167.477 67.8363 167.253C68.2376 167.02 68.555 166.689 68.7883 166.259C69.0216 165.821 69.1383 165.312 69.1383 164.733ZM79.5792 164.453C79.5792 164.696 79.5652 164.953 79.5372 165.223H73.4052C73.4519 165.979 73.7086 166.572 74.1752 167.001C74.6512 167.421 75.2252 167.631 75.8972 167.631C76.4479 167.631 76.9052 167.505 77.2692 167.253C77.6426 166.992 77.9039 166.647 78.0532 166.217H79.4252C79.2199 166.955 78.8092 167.557 78.1932 168.023C77.5772 168.481 76.8119 168.709 75.8972 168.709C75.1692 168.709 74.5159 168.546 73.9372 168.219C73.3679 167.893 72.9199 167.431 72.5932 166.833C72.2666 166.227 72.1032 165.527 72.1032 164.733C72.1032 163.94 72.2619 163.245 72.5792 162.647C72.8966 162.05 73.3399 161.593 73.9092 161.275C74.4879 160.949 75.1506 160.785 75.8972 160.785C76.6252 160.785 77.2692 160.944 77.8292 161.261C78.3892 161.579 78.8186 162.017 79.1172 162.577C79.4252 163.128 79.5792 163.753 79.5792 164.453ZM78.2632 164.187C78.2632 163.702 78.1559 163.287 77.9412 162.941C77.7266 162.587 77.4326 162.321 77.0592 162.143C76.6952 161.957 76.2892 161.863 75.8412 161.863C75.1972 161.863 74.6466 162.069 74.1892 162.479C73.7412 162.89 73.4846 163.459 73.4192 164.187H78.2632Z" fill="black" fill-opacity="0.8"/>
</g>
<defs>
<filter id="filter0_ddd_2121_10098" x="0" y="76" width="171" height="171" filterUnits="userSpaceOnUse" color-interpolation-filters="sRGB">
<feFlood flood-opacity="0" result="BackgroundImageFix"/>
<feColorMatrix in="SourceAlpha" type="matrix" values="0 0 0 0 0 0 0 0 0 0 0 0 0 0 0 0 0 0 127 0" result="hardAlpha"/>
<feOffset dy="2.5"/>
<feGaussianBlur stdDeviation="1"/>
<feColorMatrix type="matrix" values="0 0 0 0 0 0 0 0 0 0 0 0 0 0 0 0 0 0 0.02 0"/>
<feBlend mode="normal" in2="BackgroundImageFix" result="effect1_dropShadow_2121_10098"/>
<feColorMatrix in="SourceAlpha" type="matrix" values="0 0 0 0 0 0 0 0 0 0 0 0 0 0 0 0 0 0 127 0" result="hardAlpha"/>
<feOffset dy="3"/>
<feGaussianBlur stdDeviation="2.5"/>
<feColorMatrix type="matrix" values="0 0 0 0 0 0 0 0 0 0 0 0 0 0 0 0 0 0 0.04 0"/>
<feBlend mode="normal" in2="effect1_dropShadow_2121_10098" result="effect2_dropShadow_2121_10098"/>
<feColorMatrix in="SourceAlpha" type="matrix" values="0 0 0 0 0 0 0 0 0 0 0 0 0 0 0 0 0 0 127 0" result="hardAlpha"/>
<feOffset dy="8"/>
<feGaussianBlur stdDeviation="5"/>
<feColorMatrix type="matrix" values="0 0 0 0 0 0 0 0 0 0 0 0 0 0 0 0 0 0 0.08 0"/>
<feBlend mode="normal" in2="effect2_dropShadow_2121_10098" result="effect3_dropShadow_2121_10098"/>
<feBlend mode="normal" in="SourceGraphic" in2="effect3_dropShadow_2121_10098" result="shape"/>
</filter>
</defs>
</svg>
