<svg width="171" height="455" viewBox="0 0 171 455" fill="none" xmlns="http://www.w3.org/2000/svg">
<path d="M53.6452 10.08C53.3572 9.52533 52.9572 9.10933 52.4452 8.832C51.9332 8.544 51.3412 8.4 50.6692 8.4C49.9332 8.4 49.2772 8.56533 48.7012 8.896C48.1252 9.22667 47.6719 9.696 47.3412 10.304C47.0212 10.912 46.8612 11.616 46.8612 12.416C46.8612 13.216 47.0212 13.9253 47.3412 14.544C47.6719 15.152 48.1252 15.6213 48.7012 15.952C49.2772 16.2827 49.9332 16.448 50.6692 16.448C51.6612 16.448 52.4665 16.1707 53.0852 15.616C53.7039 15.0613 54.0825 14.3093 54.2212 13.36H50.0452V11.904H56.1732V13.328C56.0559 14.192 55.7465 14.9867 55.2452 15.712C54.7545 16.4373 54.1092 17.0187 53.3092 17.456C52.5199 17.8827 51.6399 18.096 50.6692 18.096C49.6239 18.096 48.6692 17.856 47.8052 17.376C46.9412 16.8853 46.2532 16.208 45.7412 15.344C45.2399 14.48 44.9892 13.504 44.9892 12.416C44.9892 11.328 45.2399 10.352 45.7412 9.488C46.2532 8.624 46.9412 7.952 47.8052 7.472C48.6799 6.98133 49.6345 6.736 50.6692 6.736C51.8532 6.736 52.9039 7.02933 53.8212 7.616C54.7492 8.192 55.4212 9.01333 55.8372 10.08H53.6452ZM59.0602 8.016C58.7295 8.016 58.4522 7.904 58.2282 7.68C58.0042 7.456 57.8922 7.17867 57.8922 6.848C57.8922 6.51733 58.0042 6.24 58.2282 6.016C58.4522 5.792 58.7295 5.68 59.0602 5.68C59.3802 5.68 59.6522 5.792 59.8762 6.016C60.1002 6.24 60.2122 6.51733 60.2122 6.848C60.2122 7.17867 60.1002 7.456 59.8762 7.68C59.6522 7.904 59.3802 8.016 59.0602 8.016ZM59.9562 9.184V18H58.1322V9.184H59.9562ZM66.2069 10.672H64.5749V18H62.7349V10.672H61.6949V9.184H62.7349V8.56C62.7349 7.54667 63.0016 6.81067 63.5349 6.352C64.0789 5.88267 64.9269 5.648 66.0789 5.648V7.168C65.5243 7.168 65.1349 7.27467 64.9109 7.488C64.6869 7.69067 64.5749 8.048 64.5749 8.56V9.184H66.2069V10.672ZM70.1114 10.672V15.552C70.1114 15.8827 70.1861 16.1227 70.3354 16.272C70.4954 16.4107 70.7621 16.48 71.1354 16.48H72.2554V18H70.8154C69.9941 18 69.3648 17.808 68.9274 17.424C68.4901 17.04 68.2714 16.416 68.2714 15.552V10.672H67.2314V9.184H68.2714V6.992H70.1114V9.184H72.2554V10.672H70.1114ZM77.8048 12.416C77.8048 11.328 78.0555 10.352 78.5568 9.488C79.0688 8.624 79.7568 7.952 80.6208 7.472C81.4955 6.98133 82.4501 6.736 83.4848 6.736C84.6688 6.736 85.7195 7.02933 86.6368 7.616C87.5648 8.192 88.2368 9.01333 88.6528 10.08H86.4608C86.1728 9.49333 85.7728 9.056 85.2608 8.768C84.7488 8.48 84.1568 8.336 83.4848 8.336C82.7488 8.336 82.0928 8.50133 81.5168 8.832C80.9408 9.16267 80.4875 9.63733 80.1568 10.256C79.8368 10.8747 79.6768 11.5947 79.6768 12.416C79.6768 13.2373 79.8368 13.9573 80.1568 14.576C80.4875 15.1947 80.9408 15.6747 81.5168 16.016C82.0928 16.3467 82.7488 16.512 83.4848 16.512C84.1568 16.512 84.7488 16.368 85.2608 16.08C85.7728 15.792 86.1728 15.3547 86.4608 14.768H88.6528C88.2368 15.8347 87.5648 16.656 86.6368 17.232C85.7195 17.808 84.6688 18.096 83.4848 18.096C82.4395 18.096 81.4848 17.856 80.6208 17.376C79.7568 16.8853 79.0688 16.208 78.5568 15.344C78.0555 14.48 77.8048 13.504 77.8048 12.416ZM90.3398 13.552C90.3398 12.6667 90.5211 11.8827 90.8838 11.2C91.2571 10.5173 91.7585 9.98933 92.3878 9.616C93.0278 9.232 93.7318 9.04 94.4998 9.04C95.1931 9.04 95.7958 9.17867 96.3078 9.456C96.8305 9.72267 97.2465 10.0587 97.5558 10.464V9.184H99.3958V18H97.5558V16.688C97.2465 17.104 96.8251 17.4507 96.2918 17.728C95.7585 18.0053 95.1505 18.144 94.4678 18.144C93.7105 18.144 93.0171 17.952 92.3878 17.568C91.7585 17.1733 91.2571 16.6293 90.8838 15.936C90.5211 15.232 90.3398 14.4373 90.3398 13.552ZM97.5558 13.584C97.5558 12.976 97.4278 12.448 97.1718 12C96.9265 11.552 96.6011 11.2107 96.1958 10.976C95.7905 10.7413 95.3531 10.624 94.8838 10.624C94.4145 10.624 93.9771 10.7413 93.5718 10.976C93.1665 11.2 92.8358 11.536 92.5798 11.984C92.3345 12.4213 92.2118 12.944 92.2118 13.552C92.2118 14.16 92.3345 14.6933 92.5798 15.152C92.8358 15.6107 93.1665 15.9627 93.5718 16.208C93.9878 16.4427 94.4251 16.56 94.8838 16.56C95.3531 16.56 95.7905 16.4427 96.1958 16.208C96.6011 15.9733 96.9265 15.632 97.1718 15.184C97.4278 14.7253 97.5558 14.192 97.5558 13.584ZM103.776 10.464C104.042 10.016 104.394 9.66933 104.832 9.424C105.28 9.168 105.808 9.04 106.416 9.04V10.928H105.952C105.237 10.928 104.693 11.1093 104.32 11.472C103.957 11.8347 103.776 12.464 103.776 13.36V18H101.952V9.184H103.776V10.464ZM107.644 13.552C107.644 12.6667 107.826 11.8827 108.188 11.2C108.562 10.5173 109.063 9.98933 109.692 9.616C110.332 9.232 111.042 9.04 111.82 9.04C112.396 9.04 112.962 9.168 113.516 9.424C114.082 9.66933 114.53 10 114.86 10.416V6.16H116.7V18H114.86V16.672C114.562 17.0987 114.146 17.4507 113.612 17.728C113.09 18.0053 112.487 18.144 111.804 18.144C111.036 18.144 110.332 17.952 109.692 17.568C109.063 17.1733 108.562 16.6293 108.188 15.936C107.826 15.232 107.644 14.4373 107.644 13.552ZM114.86 13.584C114.86 12.976 114.732 12.448 114.476 12C114.231 11.552 113.906 11.2107 113.5 10.976C113.095 10.7413 112.658 10.624 112.188 10.624C111.719 10.624 111.282 10.7413 110.876 10.976C110.471 11.2 110.14 11.536 109.884 11.984C109.639 12.4213 109.516 12.944 109.516 13.552C109.516 14.16 109.639 14.6933 109.884 15.152C110.14 15.6107 110.471 15.9627 110.876 16.208C111.292 16.4427 111.73 16.56 112.188 16.56C112.658 16.56 113.095 16.4427 113.5 16.208C113.906 15.9733 114.231 15.632 114.476 15.184C114.732 14.7253 114.86 14.192 114.86 13.584ZM122.456 18.144C121.763 18.144 121.139 18.0213 120.584 17.776C120.04 17.52 119.608 17.1787 119.288 16.752C118.968 16.3147 118.797 15.8293 118.776 15.296H120.664C120.696 15.6693 120.872 15.984 121.192 16.24C121.523 16.4853 121.933 16.608 122.424 16.608C122.936 16.608 123.331 16.512 123.608 16.32C123.896 16.1173 124.04 15.8613 124.04 15.552C124.04 15.2213 123.88 14.976 123.56 14.816C123.251 14.656 122.755 14.48 122.072 14.288C121.411 14.1067 120.872 13.9307 120.456 13.76C120.04 13.5893 119.677 13.328 119.368 12.976C119.069 12.624 118.92 12.16 118.92 11.584C118.92 11.1147 119.059 10.688 119.336 10.304C119.613 9.90933 120.008 9.6 120.52 9.376C121.043 9.152 121.64 9.04 122.312 9.04C123.315 9.04 124.12 9.296 124.728 9.808C125.347 10.3093 125.677 10.9973 125.72 11.872H123.896C123.864 11.4773 123.704 11.1627 123.416 10.928C123.128 10.6933 122.739 10.576 122.248 10.576C121.768 10.576 121.4 10.6667 121.144 10.848C120.888 11.0293 120.76 11.2693 120.76 11.568C120.76 11.8027 120.845 12 121.016 12.16C121.187 12.32 121.395 12.448 121.64 12.544C121.885 12.6293 122.248 12.7413 122.728 12.88C123.368 13.0507 123.891 13.2267 124.296 13.408C124.712 13.5787 125.069 13.8347 125.368 14.176C125.667 14.5173 125.821 14.9707 125.832 15.536C125.832 16.0373 125.693 16.4853 125.416 16.88C125.139 17.2747 124.744 17.584 124.232 17.808C123.731 18.032 123.139 18.144 122.456 18.144Z" fill="#1E1E1E"/>
<g filter="url(#filter0_ddd_2121_10111)">
<rect width="151" height="151" transform="translate(10 53.5361)" fill="#FFBDF2"/>
<path d="M30.97 74.1061C30.6993 73.5368 30.3073 73.0981 29.794 72.7901C29.2807 72.4728 28.6833 72.3141 28.002 72.3141C27.3207 72.3141 26.7047 72.4728 26.154 72.7901C25.6127 73.0981 25.1833 73.5461 24.866 74.1341C24.558 74.7128 24.404 75.3848 24.404 76.1501C24.404 76.9155 24.558 77.5875 24.866 78.1661C25.1833 78.7448 25.6127 79.1928 26.154 79.5101C26.7047 79.8181 27.3207 79.9721 28.002 79.9721C28.954 79.9721 29.738 79.6875 30.354 79.1181C30.97 78.5488 31.3293 77.7788 31.432 76.8081H27.54V75.7721H32.79V76.7521C32.7153 77.5548 32.4633 78.2921 32.034 78.9641C31.6047 79.6268 31.04 80.1541 30.34 80.5461C29.64 80.9288 28.8607 81.1201 28.002 81.1201C27.0967 81.1201 26.2707 80.9101 25.524 80.4901C24.7773 80.0608 24.1847 79.4681 23.746 78.7121C23.3167 77.9561 23.102 77.1021 23.102 76.1501C23.102 75.1981 23.3167 74.3441 23.746 73.5881C24.1847 72.8228 24.7773 72.2301 25.524 71.8101C26.2707 71.3808 27.0967 71.1661 28.002 71.1661C29.038 71.1661 29.9527 71.4228 30.746 71.9361C31.5487 72.4495 32.132 73.1728 32.496 74.1061H30.97ZM35.1325 72.1181C34.8898 72.1181 34.6845 72.0341 34.5165 71.8661C34.3485 71.6981 34.2645 71.4928 34.2645 71.2501C34.2645 71.0075 34.3485 70.8021 34.5165 70.6341C34.6845 70.4661 34.8898 70.3821 35.1325 70.3821C35.3658 70.3821 35.5618 70.4661 35.7205 70.6341C35.8885 70.8021 35.9725 71.0075 35.9725 71.2501C35.9725 71.4928 35.8885 71.6981 35.7205 71.8661C35.5618 72.0341 35.3658 72.1181 35.1325 72.1181ZM35.7485 73.3641V81.0361H34.4745V73.3641H35.7485ZM41.0418 74.4141H39.4318V81.0361H38.1578V74.4141H37.1638V73.3641H38.1578V72.8181C38.1578 71.9595 38.3771 71.3341 38.8158 70.9421C39.2638 70.5408 39.9778 70.3401 40.9578 70.3401V71.4041C40.3978 71.4041 40.0011 71.5161 39.7678 71.7401C39.5438 71.9548 39.4318 72.3141 39.4318 72.8181V73.3641H41.0418V74.4141ZM44.0812 74.4141V78.9361C44.0812 79.3095 44.1606 79.5755 44.3192 79.7341C44.4779 79.8835 44.7532 79.9581 45.1452 79.9581H46.0832V81.0361H44.9352C44.2259 81.0361 43.6939 80.8728 43.3392 80.5461C42.9846 80.2195 42.8072 79.6828 42.8072 78.9361V74.4141H41.8132V73.3641H42.8072V71.4321H44.0812V73.3641H46.0832V74.4141H44.0812ZM50.8833 77.1861C50.8833 76.3928 51.0419 75.7021 51.3593 75.1141C51.6766 74.5168 52.1153 74.0548 52.6753 73.7281C53.2446 73.4015 53.8933 73.2381 54.6213 73.2381C55.5639 73.2381 56.3386 73.4668 56.9453 73.9241C57.5613 74.3815 57.9673 75.0161 58.1633 75.8281H56.7913C56.6606 75.3615 56.4039 74.9928 56.0213 74.7221C55.6479 74.4515 55.1813 74.3161 54.6213 74.3161C53.8933 74.3161 53.3053 74.5681 52.8573 75.0721C52.4093 75.5668 52.1853 76.2715 52.1853 77.1861C52.1853 78.1101 52.4093 78.8241 52.8573 79.3281C53.3053 79.8321 53.8933 80.0841 54.6213 80.0841C55.1813 80.0841 55.6479 79.9535 56.0213 79.6921C56.3946 79.4308 56.6513 79.0575 56.7913 78.5721H58.1633C57.9579 79.3561 57.5473 79.9861 56.9313 80.4621C56.3153 80.9288 55.5453 81.1621 54.6213 81.1621C53.8933 81.1621 53.2446 80.9988 52.6753 80.6721C52.1153 80.3455 51.6766 79.8835 51.3593 79.2861C51.0419 78.6888 50.8833 77.9888 50.8833 77.1861ZM59.3872 77.1721C59.3872 76.3881 59.5458 75.7021 59.8632 75.1141C60.1805 74.5168 60.6145 74.0548 61.1652 73.7281C61.7252 73.4015 62.3458 73.2381 63.0272 73.2381C63.6992 73.2381 64.2825 73.3828 64.7772 73.6721C65.2718 73.9615 65.6405 74.3255 65.8832 74.7641V73.3641H67.1712V81.0361H65.8832V79.6081C65.6312 80.0561 65.2532 80.4295 64.7492 80.7281C64.2545 81.0175 63.6758 81.1621 63.0132 81.1621C62.3318 81.1621 61.7158 80.9941 61.1652 80.6581C60.6145 80.3221 60.1805 79.8508 59.8632 79.2441C59.5458 78.6375 59.3872 77.9468 59.3872 77.1721ZM65.8832 77.1861C65.8832 76.6075 65.7665 76.1035 65.5332 75.6741C65.2998 75.2448 64.9825 74.9181 64.5812 74.6941C64.1892 74.4608 63.7552 74.3441 63.2792 74.3441C62.8032 74.3441 62.3692 74.4561 61.9772 74.6801C61.5852 74.9041 61.2725 75.2308 61.0392 75.6601C60.8058 76.0895 60.6892 76.5935 60.6892 77.1721C60.6892 77.7601 60.8058 78.2735 61.0392 78.7121C61.2725 79.1415 61.5852 79.4728 61.9772 79.7061C62.3692 79.9301 62.8032 80.0421 63.2792 80.0421C63.7552 80.0421 64.1892 79.9301 64.5812 79.7061C64.9825 79.4728 65.2998 79.1415 65.5332 78.7121C65.7665 78.2735 65.8832 77.7648 65.8832 77.1861ZM70.5981 74.6101C70.8221 74.1715 71.1394 73.8308 71.5501 73.5881C71.9701 73.3455 72.4788 73.2241 73.0761 73.2241V74.5401H72.7401C71.3121 74.5401 70.5981 75.3148 70.5981 76.8641V81.0361H69.3241V73.3641H70.5981V74.6101ZM74.0708 77.1721C74.0708 76.3881 74.2294 75.7021 74.5468 75.1141C74.8641 74.5168 75.2981 74.0548 75.8488 73.7281C76.4088 73.4015 77.0341 73.2381 77.7248 73.2381C78.3221 73.2381 78.8774 73.3781 79.3908 73.6581C79.9041 73.9288 80.2961 74.2881 80.5668 74.7361V70.6761H81.8548V81.0361H80.5668V79.5941C80.3148 80.0515 79.9414 80.4295 79.4468 80.7281C78.9521 81.0175 78.3734 81.1621 77.7108 81.1621C77.0294 81.1621 76.4088 80.9941 75.8488 80.6581C75.2981 80.3221 74.8641 79.8508 74.5468 79.2441C74.2294 78.6375 74.0708 77.9468 74.0708 77.1721ZM80.5668 77.1861C80.5668 76.6075 80.4501 76.1035 80.2168 75.6741C79.9834 75.2448 79.6661 74.9181 79.2648 74.6941C78.8728 74.4608 78.4388 74.3441 77.9628 74.3441C77.4868 74.3441 77.0528 74.4561 76.6608 74.6801C76.2688 74.9041 75.9561 75.2308 75.7228 75.6601C75.4894 76.0895 75.3728 76.5935 75.3728 77.1721C75.3728 77.7601 75.4894 78.2735 75.7228 78.7121C75.9561 79.1415 76.2688 79.4728 76.6608 79.7061C77.0528 79.9301 77.4868 80.0421 77.9628 80.0421C78.4388 80.0421 78.8728 79.9301 79.2648 79.7061C79.6661 79.4728 79.9834 79.1415 80.2168 78.7121C80.4501 78.2735 80.5668 77.7648 80.5668 77.1861ZM91.0161 83.6401C90.1201 82.7628 89.4201 81.6475 88.9161 80.2941C88.4214 78.9408 88.1741 77.4801 88.1741 75.9121C88.1741 74.3068 88.4354 72.8088 88.9581 71.4181C89.4901 70.0181 90.2461 68.8655 91.2261 67.9601H92.5561V68.0861C91.5108 69.0661 90.7221 70.2468 90.1901 71.6281C89.6674 73.0001 89.4061 74.4281 89.4061 75.9121C89.4061 77.3588 89.6534 78.7401 90.1481 80.0561C90.6521 81.3721 91.3848 82.5248 92.3461 83.5141V83.6401H91.0161ZM93.5515 72.0761V70.9141H96.1835V81.0361H94.8955V72.0761H93.5515ZM98.1759 83.6401V83.5141C99.1372 82.5248 99.8652 81.3721 100.36 80.0561C100.864 78.7401 101.116 77.3588 101.116 75.9121C101.116 74.4281 100.85 73.0001 100.318 71.6281C99.7952 70.2468 99.0112 69.0661 97.9659 68.0861V67.9601H99.2959C100.276 68.8655 101.027 70.0181 101.55 71.4181C102.082 72.8088 102.348 74.3068 102.348 75.9121C102.348 77.4801 102.096 78.9408 101.592 80.2941C101.097 81.6475 100.402 82.7628 99.5059 83.6401H98.1759Z" fill="#0A0A0A"/>
</g>
<defs>
<filter id="filter0_ddd_2121_10111" x="0" y="51.5361" width="171" height="171" filterUnits="userSpaceOnUse" color-interpolation-filters="sRGB">
<feFlood flood-opacity="0" result="BackgroundImageFix"/>
<feColorMatrix in="SourceAlpha" type="matrix" values="0 0 0 0 0 0 0 0 0 0 0 0 0 0 0 0 0 0 127 0" result="hardAlpha"/>
<feOffset dy="2.5"/>
<feGaussianBlur stdDeviation="1"/>
<feColorMatrix type="matrix" values="0 0 0 0 0 0 0 0 0 0 0 0 0 0 0 0 0 0 0.02 0"/>
<feBlend mode="normal" in2="BackgroundImageFix" result="effect1_dropShadow_2121_10111"/>
<feColorMatrix in="SourceAlpha" type="matrix" values="0 0 0 0 0 0 0 0 0 0 0 0 0 0 0 0 0 0 127 0" result="hardAlpha"/>
<feOffset dy="3"/>
<feGaussianBlur stdDeviation="2.5"/>
<feColorMatrix type="matrix" values="0 0 0 0 0 0 0 0 0 0 0 0 0 0 0 0 0 0 0.04 0"/>
<feBlend mode="normal" in2="effect1_dropShadow_2121_10111" result="effect2_dropShadow_2121_10111"/>
<feColorMatrix in="SourceAlpha" type="matrix" values="0 0 0 0 0 0 0 0 0 0 0 0 0 0 0 0 0 0 127 0" result="hardAlpha"/>
<feOffset dy="8"/>
<feGaussianBlur stdDeviation="5"/>
<feColorMatrix type="matrix" values="0 0 0 0 0 0 0 0 0 0 0 0 0 0 0 0 0 0 0.08 0"/>
<feBlend mode="normal" in2="effect2_dropShadow_2121_10111" result="effect3_dropShadow_2121_10111"/>
<feBlend mode="normal" in="SourceGraphic" in2="effect3_dropShadow_2121_10111" result="shape"/>
</filter>
</defs>
</svg>
