<svg width="171" height="455" viewBox="0 0 171 455" fill="none" xmlns="http://www.w3.org/2000/svg">
<path d="M44.8758 6.88C46.0598 6.88 47.0944 7.10933 47.9798 7.568C48.8758 8.016 49.5638 8.66667 50.0438 9.52C50.5344 10.3627 50.7798 11.3493 50.7798 12.48C50.7798 13.6107 50.5344 14.592 50.0438 15.424C49.5638 16.256 48.8758 16.896 47.9798 17.344C47.0944 17.7813 46.0598 18 44.8758 18H41.2438V6.88H44.8758ZM44.8758 16.512C46.1771 16.512 47.1744 16.16 47.8678 15.456C48.5611 14.752 48.9078 13.76 48.9078 12.48C48.9078 11.1893 48.5611 10.1813 47.8678 9.456C47.1744 8.73067 46.1771 8.368 44.8758 8.368H43.0678V16.512H44.8758ZM52.1395 13.552C52.1395 12.6667 52.3208 11.8827 52.6835 11.2C53.0568 10.5173 53.5582 9.98933 54.1875 9.616C54.8275 9.232 55.5315 9.04 56.2995 9.04C56.9928 9.04 57.5955 9.17867 58.1075 9.456C58.6302 9.72267 59.0462 10.0587 59.3555 10.464V9.184H61.1955V18H59.3555V16.688C59.0462 17.104 58.6248 17.4507 58.0915 17.728C57.5582 18.0053 56.9502 18.144 56.2675 18.144C55.5102 18.144 54.8168 17.952 54.1875 17.568C53.5582 17.1733 53.0568 16.6293 52.6835 15.936C52.3208 15.232 52.1395 14.4373 52.1395 13.552ZM59.3555 13.584C59.3555 12.976 59.2275 12.448 58.9715 12C58.7262 11.552 58.4008 11.2107 57.9955 10.976C57.5902 10.7413 57.1528 10.624 56.6835 10.624C56.2142 10.624 55.7768 10.7413 55.3715 10.976C54.9662 11.2 54.6355 11.536 54.3795 11.984C54.1342 12.4213 54.0115 12.944 54.0115 13.552C54.0115 14.16 54.1342 14.6933 54.3795 15.152C54.6355 15.6107 54.9662 15.9627 55.3715 16.208C55.7875 16.4427 56.2248 16.56 56.6835 16.56C57.1528 16.56 57.5902 16.4427 57.9955 16.208C58.4008 15.9733 58.7262 15.632 58.9715 15.184C59.2275 14.7253 59.3555 14.192 59.3555 13.584ZM64.6793 8.016C64.3486 8.016 64.0713 7.904 63.8473 7.68C63.6233 7.456 63.5113 7.17867 63.5113 6.848C63.5113 6.51733 63.6233 6.24 63.8473 6.016C64.0713 5.792 64.3486 5.68 64.6793 5.68C64.9993 5.68 65.2713 5.792 65.4953 6.016C65.7193 6.24 65.8313 6.51733 65.8313 6.848C65.8313 7.17867 65.7193 7.456 65.4953 7.68C65.2713 7.904 64.9993 8.016 64.6793 8.016ZM65.5753 9.184V18H63.7513V9.184H65.5753ZM69.954 6.16V18H68.13V6.16H69.954ZM80.4448 9.184L75.0368 22.144H73.1488L74.9408 17.856L71.4688 9.184H73.5008L75.9808 15.904L78.5568 9.184H80.4448ZM88.1215 6.88V18H86.2975V6.88H88.1215ZM92.8042 10.672V15.552C92.8042 15.8827 92.8789 16.1227 93.0282 16.272C93.1882 16.4107 93.4549 16.48 93.8282 16.48H94.9482V18H93.5082C92.6869 18 92.0576 17.808 91.6202 17.424C91.1829 17.04 90.9642 16.416 90.9642 15.552V10.672H89.9242V9.184H90.9642V6.992H92.8042V9.184H94.9482V10.672H92.8042ZM104.869 13.376C104.869 13.7067 104.848 14.0053 104.805 14.272H98.0694C98.1227 14.976 98.384 15.5413 98.8534 15.968C99.3227 16.3947 99.8987 16.608 100.581 16.608C101.563 16.608 102.256 16.1973 102.661 15.376H104.629C104.363 16.1867 103.877 16.8533 103.173 17.376C102.48 17.888 101.616 18.144 100.581 18.144C99.7387 18.144 98.9814 17.9573 98.3094 17.584C97.648 17.2 97.1254 16.6667 96.7414 15.984C96.368 15.2907 96.1814 14.4907 96.1814 13.584C96.1814 12.6773 96.3627 11.8827 96.7254 11.2C97.0987 10.5067 97.616 9.97333 98.2774 9.6C98.9494 9.22667 99.7174 9.04 100.581 9.04C101.413 9.04 102.155 9.22133 102.805 9.584C103.456 9.94667 103.963 10.4587 104.325 11.12C104.688 11.7707 104.869 12.5227 104.869 13.376ZM102.965 12.8C102.955 12.128 102.715 11.5893 102.245 11.184C101.776 10.7787 101.195 10.576 100.501 10.576C99.872 10.576 99.3334 10.7787 98.8854 11.184C98.4374 11.5787 98.1707 12.1173 98.0854 12.8H102.965ZM117.496 9.04C118.19 9.04 118.808 9.184 119.352 9.472C119.907 9.76 120.339 10.1867 120.648 10.752C120.968 11.3173 121.128 12 121.128 12.8V18H119.32V13.072C119.32 12.2827 119.123 11.68 118.728 11.264C118.334 10.8373 117.795 10.624 117.112 10.624C116.43 10.624 115.886 10.8373 115.48 11.264C115.086 11.68 114.888 12.2827 114.888 13.072V18H113.08V13.072C113.08 12.2827 112.883 11.68 112.488 11.264C112.094 10.8373 111.555 10.624 110.872 10.624C110.19 10.624 109.646 10.8373 109.24 11.264C108.846 11.68 108.648 12.2827 108.648 13.072V18H106.824V9.184H108.648V10.192C108.947 9.82933 109.326 9.54667 109.784 9.344C110.243 9.14133 110.734 9.04 111.256 9.04C111.96 9.04 112.59 9.18933 113.144 9.488C113.699 9.78667 114.126 10.2187 114.424 10.784C114.691 10.2507 115.107 9.82933 115.672 9.52C116.238 9.2 116.846 9.04 117.496 9.04ZM126.809 18.144C126.116 18.144 125.492 18.0213 124.937 17.776C124.393 17.52 123.961 17.1787 123.641 16.752C123.321 16.3147 123.151 15.8293 123.129 15.296H125.017C125.049 15.6693 125.225 15.984 125.545 16.24C125.876 16.4853 126.287 16.608 126.777 16.608C127.289 16.608 127.684 16.512 127.961 16.32C128.249 16.1173 128.393 15.8613 128.393 15.552C128.393 15.2213 128.233 14.976 127.913 14.816C127.604 14.656 127.108 14.48 126.425 14.288C125.764 14.1067 125.225 13.9307 124.809 13.76C124.393 13.5893 124.031 13.328 123.721 12.976C123.423 12.624 123.273 12.16 123.273 11.584C123.273 11.1147 123.412 10.688 123.689 10.304C123.967 9.90933 124.361 9.6 124.873 9.376C125.396 9.152 125.993 9.04 126.665 9.04C127.668 9.04 128.473 9.296 129.081 9.808C129.7 10.3093 130.031 10.9973 130.073 11.872H128.249C128.217 11.4773 128.057 11.1627 127.769 10.928C127.481 10.6933 127.092 10.576 126.601 10.576C126.121 10.576 125.753 10.6667 125.497 10.848C125.241 11.0293 125.113 11.2693 125.113 11.568C125.113 11.8027 125.199 12 125.369 12.16C125.54 12.32 125.748 12.448 125.993 12.544C126.239 12.6293 126.601 12.7413 127.081 12.88C127.721 13.0507 128.244 13.2267 128.649 13.408C129.065 13.5787 129.423 13.8347 129.721 14.176C130.02 14.5173 130.175 14.9707 130.185 15.536C130.185 16.0373 130.047 16.4853 129.769 16.88C129.492 17.2747 129.097 17.584 128.585 17.808C128.084 18.032 127.492 18.144 126.809 18.144Z" fill="#1E1E1E"/>
<g filter="url(#filter0_ddd_2121_10115)">
<rect width="151" height="151" transform="translate(10 54)" fill="#FFBDF2"/>
<path d="M30.102 74.598C30.102 75.41 29.822 76.0867 29.262 76.628C28.7113 77.16 27.8667 77.426 26.728 77.426H24.852V81.5H23.578V71.742H26.728C27.8293 71.742 28.6647 72.008 29.234 72.54C29.8127 73.072 30.102 73.758 30.102 74.598ZM26.728 76.376C27.4373 76.376 27.96 76.222 28.296 75.914C28.632 75.606 28.8 75.1673 28.8 74.598C28.8 73.394 28.1093 72.792 26.728 72.792H24.852V76.376H26.728ZM38.4894 73.828V81.5H37.2154V80.366C36.9728 80.758 36.6321 81.066 36.1934 81.29C35.7641 81.5047 35.2881 81.612 34.7654 81.612C34.1681 81.612 33.6314 81.4907 33.1554 81.248C32.6794 80.996 32.3014 80.6227 32.0214 80.128C31.7508 79.6333 31.6154 79.0313 31.6154 78.322V73.828H32.8754V78.154C32.8754 78.91 33.0668 79.4933 33.4494 79.904C33.8321 80.3053 34.3548 80.506 35.0174 80.506C35.6988 80.506 36.2354 80.296 36.6274 79.876C37.0194 79.456 37.2154 78.8447 37.2154 78.042V73.828H38.4894ZM41.9145 75.074C42.1385 74.6353 42.4558 74.2947 42.8665 74.052C43.2865 73.8093 43.7952 73.688 44.3925 73.688V75.004H44.0565C42.6285 75.004 41.9145 75.7787 41.9145 77.328V81.5H40.6405V73.828H41.9145V75.074ZM45.3872 77.65C45.3872 76.8567 45.5458 76.166 45.8632 75.578C46.1805 74.9807 46.6192 74.5187 47.1792 74.192C47.7485 73.8653 48.3972 73.702 49.1252 73.702C50.0678 73.702 50.8425 73.9307 51.4492 74.388C52.0652 74.8453 52.4712 75.48 52.6672 76.292H51.2952C51.1645 75.8253 50.9078 75.4567 50.5252 75.186C50.1518 74.9153 49.6852 74.78 49.1252 74.78C48.3972 74.78 47.8092 75.032 47.3612 75.536C46.9132 76.0307 46.6892 76.7353 46.6892 77.65C46.6892 78.574 46.9132 79.288 47.3612 79.792C47.8092 80.296 48.3972 80.548 49.1252 80.548C49.6852 80.548 50.1518 80.4173 50.5252 80.156C50.8985 79.8947 51.1552 79.5213 51.2952 79.036H52.6672C52.4618 79.82 52.0512 80.45 51.4352 80.926C50.8192 81.3927 50.0492 81.626 49.1252 81.626C48.3972 81.626 47.7485 81.4627 47.1792 81.136C46.6192 80.8093 46.1805 80.3473 45.8632 79.75C45.5458 79.1527 45.3872 78.4527 45.3872 77.65ZM58.1751 73.688C58.7537 73.688 59.2764 73.814 59.7431 74.066C60.2097 74.3087 60.5737 74.6773 60.8351 75.172C61.1057 75.6667 61.2411 76.2687 61.2411 76.978V81.5H59.9811V77.16C59.9811 76.3947 59.7897 75.8113 59.4071 75.41C59.0244 74.9993 58.5017 74.794 57.8391 74.794C57.1671 74.794 56.6304 75.004 56.2291 75.424C55.8371 75.844 55.6411 76.4553 55.6411 77.258V81.5H54.3671V71.14H55.6411V74.92C55.8931 74.528 56.2384 74.2247 56.6771 74.01C57.1251 73.7953 57.6244 73.688 58.1751 73.688ZM62.8461 77.636C62.8461 76.852 63.0048 76.166 63.3221 75.578C63.6395 74.9807 64.0735 74.5187 64.6241 74.192C65.1841 73.8653 65.8048 73.702 66.4861 73.702C67.1581 73.702 67.7415 73.8467 68.2361 74.136C68.7308 74.4253 69.0995 74.7893 69.3421 75.228V73.828H70.6301V81.5H69.3421V80.072C69.0901 80.52 68.7121 80.8933 68.2081 81.192C67.7135 81.4813 67.1348 81.626 66.4721 81.626C65.7908 81.626 65.1748 81.458 64.6241 81.122C64.0735 80.786 63.6395 80.3147 63.3221 79.708C63.0048 79.1013 62.8461 78.4107 62.8461 77.636ZM69.3421 77.65C69.3421 77.0713 69.2255 76.5673 68.9921 76.138C68.7588 75.7087 68.4415 75.382 68.0401 75.158C67.6481 74.9247 67.2141 74.808 66.7381 74.808C66.2621 74.808 65.8281 74.92 65.4361 75.144C65.0441 75.368 64.7315 75.6947 64.4981 76.124C64.2648 76.5533 64.1481 77.0573 64.1481 77.636C64.1481 78.224 64.2648 78.7373 64.4981 79.176C64.7315 79.6053 65.0441 79.9367 65.4361 80.17C65.8281 80.394 66.2621 80.506 66.7381 80.506C67.2141 80.506 67.6481 80.394 68.0401 80.17C68.4415 79.9367 68.7588 79.6053 68.9921 79.176C69.2255 78.7373 69.3421 78.2287 69.3421 77.65ZM75.4991 81.626C74.9111 81.626 74.3837 81.528 73.9171 81.332C73.4504 81.1267 73.0817 80.8467 72.8111 80.492C72.5404 80.128 72.3911 79.7127 72.3631 79.246H73.6791C73.7164 79.6287 73.8937 79.9413 74.2111 80.184C74.5377 80.4267 74.9624 80.548 75.4851 80.548C75.9704 80.548 76.3531 80.4407 76.6331 80.226C76.9131 80.0113 77.0531 79.7407 77.0531 79.414C77.0531 79.078 76.9037 78.8307 76.6051 78.672C76.3064 78.504 75.8444 78.3407 75.2191 78.182C74.6497 78.0327 74.1831 77.8833 73.8191 77.734C73.4644 77.5753 73.1564 77.3467 72.8951 77.048C72.6431 76.74 72.5171 76.3387 72.5171 75.844C72.5171 75.452 72.6337 75.0927 72.8671 74.766C73.1004 74.4393 73.4317 74.1827 73.8611 73.996C74.2904 73.8 74.7804 73.702 75.3311 73.702C76.1804 73.702 76.8664 73.9167 77.3891 74.346C77.9117 74.7753 78.1917 75.3633 78.2291 76.11H76.9551C76.9271 75.7087 76.7637 75.3867 76.4651 75.144C76.1757 74.9013 75.7837 74.78 75.2891 74.78C74.8317 74.78 74.4677 74.878 74.1971 75.074C73.9264 75.27 73.7911 75.5267 73.7911 75.844C73.7911 76.096 73.8704 76.306 74.0291 76.474C74.1971 76.6327 74.4024 76.7633 74.6451 76.866C74.8971 76.9593 75.2424 77.0667 75.6811 77.188C76.2317 77.3373 76.6797 77.4867 77.0251 77.636C77.3704 77.776 77.6644 77.9907 77.9071 78.28C78.1591 78.5693 78.2897 78.9473 78.2991 79.414C78.2991 79.834 78.1824 80.212 77.9491 80.548C77.7157 80.884 77.3844 81.15 76.9551 81.346C76.5351 81.5327 76.0497 81.626 75.4991 81.626ZM87.0975 77.37C87.0975 77.6127 87.0835 77.8693 87.0555 78.14H80.9235C80.9702 78.896 81.2269 79.4887 81.6935 79.918C82.1695 80.338 82.7435 80.548 83.4155 80.548C83.9662 80.548 84.4235 80.422 84.7875 80.17C85.1609 79.9087 85.4222 79.5633 85.5715 79.134H86.9435C86.7382 79.8713 86.3275 80.4733 85.7115 80.94C85.0955 81.3973 84.3302 81.626 83.4155 81.626C82.6875 81.626 82.0342 81.4627 81.4555 81.136C80.8862 80.8093 80.4382 80.3473 80.1115 79.75C79.7849 79.1433 79.6215 78.4433 79.6215 77.65C79.6215 76.8567 79.7802 76.1613 80.0975 75.564C80.4149 74.9667 80.8582 74.5093 81.4275 74.192C82.0062 73.8653 82.6689 73.702 83.4155 73.702C84.1435 73.702 84.7875 73.8607 85.3475 74.178C85.9075 74.4953 86.3369 74.934 86.6355 75.494C86.9435 76.0447 87.0975 76.67 87.0975 77.37ZM85.7815 77.104C85.7815 76.6187 85.6742 76.2033 85.4595 75.858C85.2449 75.5033 84.9509 75.2373 84.5775 75.06C84.2135 74.8733 83.8075 74.78 83.3595 74.78C82.7155 74.78 82.1649 74.9853 81.7075 75.396C81.2595 75.8067 81.0029 76.376 80.9375 77.104H85.7815ZM30.578 98.37C30.578 98.6127 30.564 98.8693 30.536 99.14H24.404C24.4507 99.896 24.7073 100.489 25.174 100.918C25.65 101.338 26.224 101.548 26.896 101.548C27.4467 101.548 27.904 101.422 28.268 101.17C28.6413 100.909 28.9027 100.563 29.052 100.134H30.424C30.2187 100.871 29.808 101.473 29.192 101.94C28.576 102.397 27.8107 102.626 26.896 102.626C26.168 102.626 25.5147 102.463 24.936 102.136C24.3667 101.809 23.9187 101.347 23.592 100.75C23.2653 100.143 23.102 99.4433 23.102 98.65C23.102 97.8567 23.2607 97.1613 23.578 96.564C23.8953 95.9667 24.3387 95.5093 24.908 95.192C25.4867 94.8653 26.1493 94.702 26.896 94.702C27.624 94.702 28.268 94.8607 28.828 95.178C29.388 95.4953 29.8173 95.934 30.116 96.494C30.424 97.0447 30.578 97.67 30.578 98.37ZM29.262 98.104C29.262 97.6187 29.1547 97.2033 28.94 96.858C28.7253 96.5033 28.4313 96.2373 28.058 96.06C27.694 95.8733 27.288 95.78 26.84 95.78C26.196 95.78 25.6453 95.9853 25.188 96.396C24.74 96.8067 24.4833 97.376 24.418 98.104H29.262ZM35.1156 101.324L37.4956 94.828H38.8536L35.8436 102.5H34.3596L31.3496 94.828H32.7216L35.1156 101.324ZM47.1073 98.37C47.1073 98.6127 47.0933 98.8693 47.0653 99.14H40.9333C40.98 99.896 41.2366 100.489 41.7033 100.918C42.1793 101.338 42.7533 101.548 43.4253 101.548C43.976 101.548 44.4333 101.422 44.7973 101.17C45.1706 100.909 45.432 100.563 45.5813 100.134H46.9533C46.748 100.871 46.3373 101.473 45.7213 101.94C45.1053 102.397 44.34 102.626 43.4253 102.626C42.6973 102.626 42.044 102.463 41.4653 102.136C40.896 101.809 40.448 101.347 40.1213 100.75C39.7946 100.143 39.6313 99.4433 39.6313 98.65C39.6313 97.8567 39.79 97.1613 40.1073 96.564C40.4246 95.9667 40.868 95.5093 41.4373 95.192C42.016 94.8653 42.6786 94.702 43.4253 94.702C44.1533 94.702 44.7973 94.8607 45.3573 95.178C45.9173 95.4953 46.3466 95.934 46.6453 96.494C46.9533 97.0447 47.1073 97.67 47.1073 98.37ZM45.7913 98.104C45.7913 97.6187 45.684 97.2033 45.4693 96.858C45.2546 96.5033 44.9606 96.2373 44.5873 96.06C44.2233 95.8733 43.8173 95.78 43.3693 95.78C42.7253 95.78 42.1746 95.9853 41.7173 96.396C41.2693 96.8067 41.0126 97.376 40.9473 98.104H45.7913ZM50.0629 96.074C50.2869 95.6353 50.6043 95.2947 51.0149 95.052C51.4349 94.8093 51.9436 94.688 52.5409 94.688V96.004H52.2049C50.7769 96.004 50.0629 96.7787 50.0629 98.328V102.5H48.7889V94.828H50.0629V96.074ZM60.6196 94.828L55.9996 106.112H54.6836L56.1956 102.416L53.1016 94.828H54.5156L56.9236 101.044L59.3036 94.828H60.6196ZM61.4243 98.636C61.4243 97.852 61.5829 97.166 61.9003 96.578C62.2176 95.9807 62.6516 95.5187 63.2023 95.192C63.7623 94.8653 64.3876 94.702 65.0783 94.702C65.6756 94.702 66.2309 94.842 66.7443 95.122C67.2576 95.3927 67.6496 95.752 67.9203 96.2V92.14H69.2083V102.5H67.9203V101.058C67.6683 101.515 67.2949 101.893 66.8003 102.192C66.3056 102.481 65.7269 102.626 65.0643 102.626C64.3829 102.626 63.7623 102.458 63.2023 102.122C62.6516 101.786 62.2176 101.315 61.9003 100.708C61.5829 100.101 61.4243 99.4107 61.4243 98.636ZM67.9203 98.65C67.9203 98.0713 67.8036 97.5673 67.5703 97.138C67.3369 96.7087 67.0196 96.382 66.6183 96.158C66.2263 95.9247 65.7923 95.808 65.3163 95.808C64.8403 95.808 64.4063 95.92 64.0143 96.144C63.6223 96.368 63.3096 96.6947 63.0763 97.124C62.8429 97.5533 62.7263 98.0573 62.7263 98.636C62.7263 99.224 62.8429 99.7373 63.0763 100.176C63.3096 100.605 63.6223 100.937 64.0143 101.17C64.4063 101.394 64.8403 101.506 65.3163 101.506C65.7923 101.506 66.2263 101.394 66.6183 101.17C67.0196 100.937 67.3369 100.605 67.5703 100.176C67.8036 99.7373 67.9203 99.2287 67.9203 98.65ZM70.8852 98.636C70.8852 97.852 71.0439 97.166 71.3612 96.578C71.6785 95.9807 72.1125 95.5187 72.6632 95.192C73.2232 94.8653 73.8439 94.702 74.5252 94.702C75.1972 94.702 75.7805 94.8467 76.2752 95.136C76.7699 95.4253 77.1385 95.7893 77.3812 96.228V94.828H78.6692V102.5H77.3812V101.072C77.1292 101.52 76.7512 101.893 76.2472 102.192C75.7525 102.481 75.1739 102.626 74.5112 102.626C73.8299 102.626 73.2139 102.458 72.6632 102.122C72.1125 101.786 71.6785 101.315 71.3612 100.708C71.0439 100.101 70.8852 99.4107 70.8852 98.636ZM77.3812 98.65C77.3812 98.0713 77.2645 97.5673 77.0312 97.138C76.7979 96.7087 76.4805 96.382 76.0792 96.158C75.6872 95.9247 75.2532 95.808 74.7772 95.808C74.3012 95.808 73.8672 95.92 73.4752 96.144C73.0832 96.368 72.7705 96.6947 72.5372 97.124C72.3039 97.5533 72.1872 98.0573 72.1872 98.636C72.1872 99.224 72.3039 99.7373 72.5372 100.176C72.7705 100.605 73.0832 100.937 73.4752 101.17C73.8672 101.394 74.3012 101.506 74.7772 101.506C75.2532 101.506 75.6872 101.394 76.0792 101.17C76.4805 100.937 76.7979 100.605 77.0312 100.176C77.2645 99.7373 77.3812 99.2287 77.3812 98.65ZM87.4301 94.828L82.8101 106.112H81.4941L83.0061 102.416L79.9121 94.828H81.3261L83.7341 101.044L86.1141 94.828H87.4301ZM93.1012 93.582C92.8586 93.582 92.6532 93.498 92.4852 93.33C92.3172 93.162 92.2332 92.9567 92.2332 92.714C92.2332 92.4713 92.3172 92.266 92.4852 92.098C92.6532 91.93 92.8586 91.846 93.1012 91.846C93.3346 91.846 93.5306 91.93 93.6892 92.098C93.8572 92.266 93.9412 92.4713 93.9412 92.714C93.9412 92.9567 93.8572 93.162 93.6892 93.33C93.5306 93.498 93.3346 93.582 93.1012 93.582ZM93.7172 94.828V102.5H92.4432V94.828H93.7172ZM97.4425 95.878V100.4C97.4425 100.773 97.5219 101.039 97.6805 101.198C97.8392 101.347 98.1145 101.422 98.5065 101.422H99.4445V102.5H98.2965C97.5872 102.5 97.0552 102.337 96.7005 102.01C96.3459 101.683 96.1685 101.147 96.1685 100.4V95.878H95.1745V94.828H96.1685V92.896H97.4425V94.828H99.4445V95.878H97.4425ZM107.988 98.37C107.988 98.6127 107.974 98.8693 107.946 99.14H101.814C101.861 99.896 102.117 100.489 102.584 100.918C103.06 101.338 103.634 101.548 104.306 101.548C104.857 101.548 105.314 101.422 105.678 101.17C106.051 100.909 106.313 100.563 106.462 100.134H107.834C107.629 100.871 107.218 101.473 106.602 101.94C105.986 102.397 105.221 102.626 104.306 102.626C103.578 102.626 102.925 102.463 102.346 102.136C101.777 101.809 101.329 101.347 101.002 100.75C100.675 100.143 100.512 99.4433 100.512 98.65C100.512 97.8567 100.671 97.1613 100.988 96.564C101.305 95.9667 101.749 95.5093 102.318 95.192C102.897 94.8653 103.559 94.702 104.306 94.702C105.034 94.702 105.678 94.8607 106.238 95.178C106.798 95.4953 107.227 95.934 107.526 96.494C107.834 97.0447 107.988 97.67 107.988 98.37ZM106.672 98.104C106.672 97.6187 106.565 97.2033 106.35 96.858C106.135 96.5033 105.841 96.2373 105.468 96.06C105.104 95.8733 104.698 95.78 104.25 95.78C103.606 95.78 103.055 95.9853 102.598 96.396C102.15 96.8067 101.893 97.376 101.828 98.104H106.672ZM118.896 94.688C119.493 94.688 120.025 94.814 120.492 95.066C120.958 95.3087 121.327 95.6773 121.598 96.172C121.868 96.6667 122.004 97.2687 122.004 97.978V102.5H120.744V98.16C120.744 97.3947 120.552 96.8113 120.17 96.41C119.796 95.9993 119.288 95.794 118.644 95.794C117.981 95.794 117.454 96.0087 117.062 96.438C116.67 96.858 116.474 97.4693 116.474 98.272V102.5H115.214V98.16C115.214 97.3947 115.022 96.8113 114.64 96.41C114.266 95.9993 113.758 95.794 113.114 95.794C112.451 95.794 111.924 96.0087 111.532 96.438C111.14 96.858 110.944 97.4693 110.944 98.272V102.5H109.67V94.828H110.944V95.934C111.196 95.5327 111.532 95.2247 111.952 95.01C112.381 94.7953 112.852 94.688 113.366 94.688C114.01 94.688 114.579 94.8327 115.074 95.122C115.568 95.4113 115.937 95.836 116.18 96.396C116.394 95.8547 116.749 95.4347 117.244 95.136C117.738 94.8373 118.289 94.688 118.896 94.688ZM126.81 102.626C126.222 102.626 125.694 102.528 125.228 102.332C124.761 102.127 124.392 101.847 124.122 101.492C123.851 101.128 123.702 100.713 123.674 100.246H124.99C125.027 100.629 125.204 100.941 125.522 101.184C125.848 101.427 126.273 101.548 126.796 101.548C127.281 101.548 127.664 101.441 127.944 101.226C128.224 101.011 128.364 100.741 128.364 100.414C128.364 100.078 128.214 99.8307 127.916 99.672C127.617 99.504 127.155 99.3407 126.53 99.182C125.96 99.0327 125.494 98.8833 125.13 98.734C124.775 98.5753 124.467 98.3467 124.206 98.048C123.954 97.74 123.828 97.3387 123.828 96.844C123.828 96.452 123.944 96.0927 124.178 95.766C124.411 95.4393 124.742 95.1827 125.172 94.996C125.601 94.8 126.091 94.702 126.642 94.702C127.491 94.702 128.177 94.9167 128.7 95.346C129.222 95.7753 129.502 96.3633 129.54 97.11H128.266C128.238 96.7087 128.074 96.3867 127.776 96.144C127.486 95.9013 127.094 95.78 126.6 95.78C126.142 95.78 125.778 95.878 125.508 96.074C125.237 96.27 125.102 96.5267 125.102 96.844C125.102 97.096 125.181 97.306 125.34 97.474C125.508 97.6327 125.713 97.7633 125.956 97.866C126.208 97.9593 126.553 98.0667 126.992 98.188C127.542 98.3373 127.99 98.4867 128.336 98.636C128.681 98.776 128.975 98.9907 129.218 99.28C129.47 99.5693 129.6 99.9473 129.61 100.414C129.61 100.834 129.493 101.212 129.26 101.548C129.026 101.884 128.695 102.15 128.266 102.346C127.846 102.533 127.36 102.626 126.81 102.626ZM26.854 126.104C25.958 125.227 25.258 124.111 24.754 122.758C24.2593 121.405 24.012 119.944 24.012 118.376C24.012 116.771 24.2733 115.273 24.796 113.882C25.328 112.482 26.084 111.329 27.064 110.424H28.394V110.55C27.3487 111.53 26.56 112.711 26.028 114.092C25.5053 115.464 25.244 116.892 25.244 118.376C25.244 119.823 25.4913 121.204 25.986 122.52C26.49 123.836 27.2227 124.989 28.184 125.978V126.104H26.854ZM29.3894 114.54V113.378H32.0214V123.5H30.7334V114.54H29.3894ZM34.0138 126.104V125.978C34.9751 124.989 35.7031 123.836 36.1978 122.52C36.7018 121.204 36.9538 119.823 36.9538 118.376C36.9538 116.892 36.6878 115.464 36.1558 114.092C35.6331 112.711 34.8491 111.53 33.8038 110.55V110.424H35.1338C36.1138 111.329 36.8651 112.482 37.3878 113.882C37.9198 115.273 38.1858 116.771 38.1858 118.376C38.1858 119.944 37.9338 121.405 37.4298 122.758C36.9351 124.111 36.2398 125.227 35.3438 126.104H34.0138Z" fill="#0A0A0A"/>
</g>
<defs>
<filter id="filter0_ddd_2121_10115" x="0" y="52" width="171" height="171" filterUnits="userSpaceOnUse" color-interpolation-filters="sRGB">
<feFlood flood-opacity="0" result="BackgroundImageFix"/>
<feColorMatrix in="SourceAlpha" type="matrix" values="0 0 0 0 0 0 0 0 0 0 0 0 0 0 0 0 0 0 127 0" result="hardAlpha"/>
<feOffset dy="2.5"/>
<feGaussianBlur stdDeviation="1"/>
<feColorMatrix type="matrix" values="0 0 0 0 0 0 0 0 0 0 0 0 0 0 0 0 0 0 0.02 0"/>
<feBlend mode="normal" in2="BackgroundImageFix" result="effect1_dropShadow_2121_10115"/>
<feColorMatrix in="SourceAlpha" type="matrix" values="0 0 0 0 0 0 0 0 0 0 0 0 0 0 0 0 0 0 127 0" result="hardAlpha"/>
<feOffset dy="3"/>
<feGaussianBlur stdDeviation="2.5"/>
<feColorMatrix type="matrix" values="0 0 0 0 0 0 0 0 0 0 0 0 0 0 0 0 0 0 0.04 0"/>
<feBlend mode="normal" in2="effect1_dropShadow_2121_10115" result="effect2_dropShadow_2121_10115"/>
<feColorMatrix in="SourceAlpha" type="matrix" values="0 0 0 0 0 0 0 0 0 0 0 0 0 0 0 0 0 0 127 0" result="hardAlpha"/>
<feOffset dy="8"/>
<feGaussianBlur stdDeviation="5"/>
<feColorMatrix type="matrix" values="0 0 0 0 0 0 0 0 0 0 0 0 0 0 0 0 0 0 0.08 0"/>
<feBlend mode="normal" in2="effect2_dropShadow_2121_10115" result="effect3_dropShadow_2121_10115"/>
<feBlend mode="normal" in="SourceGraphic" in2="effect3_dropShadow_2121_10115" result="shape"/>
</filter>
</defs>
</svg>
