<svg width="341" height="253" viewBox="0 0 341 253" fill="none" xmlns="http://www.w3.org/2000/svg">
<path d="M229.304 227.991L231.609 224.82C304.512 261.888 374.434 165.962 321.046 126.317L313.873 121.301C326.111 113.606 342.638 95.4697 326.442 57.2291C309.108 16.3016 219.892 -12.7354 181.381 22.5235C149.16 -14.3898 44.7951 -1.83757 24.0289 46.9462C7.68144 85.3506 23.2949 104.133 34.0238 111.906C3.44894 131.365 4.99873 171.705 47.6021 187.352C43.5981 234.174 189.759 280.438 229.304 227.991Z" fill="#B6BE8F"/>
<circle cx="28.125" cy="213.591" r="9.375" fill="#B6BE8F"/>
<circle cx="6.25" cy="229.216" r="6.25" fill="#B6BE8F"/>
<path d="M92.154 93.4423L88.518 105.988H86.682L83.766 95.8903L80.742 105.988L78.924 106.006L75.414 93.4423H77.16L79.896 104.08L82.92 93.4423H84.756L87.636 104.044L90.39 93.4423H92.154ZM99.0225 95.9443C99.7665 95.9443 100.439 96.1063 101.039 96.4303C101.639 96.7423 102.107 97.2163 102.443 97.8523C102.791 98.4883 102.965 99.2623 102.965 100.174V105.988H101.345V100.408C101.345 99.4243 101.099 98.6743 100.607 98.1583C100.115 97.6303 99.4425 97.3663 98.5905 97.3663C97.7265 97.3663 97.0365 97.6363 96.5205 98.1763C96.0165 98.7163 95.7645 99.5023 95.7645 100.534V105.988H94.1265V92.6683H95.7645V97.5283C96.0885 97.0243 96.5325 96.6343 97.0965 96.3583C97.6725 96.0823 98.3145 95.9443 99.0225 95.9443ZM105.208 101.02C105.208 100.012 105.412 99.1303 105.82 98.3743C106.228 97.6063 106.786 97.0123 107.494 96.5923C108.214 96.1723 109.012 95.9623 109.888 95.9623C110.752 95.9623 111.502 96.1483 112.138 96.5203C112.774 96.8923 113.248 97.3603 113.56 97.9243V96.1243H115.216V105.988H113.56V104.152C113.236 104.728 112.75 105.208 112.102 105.592C111.466 105.964 110.722 106.15 109.87 106.15C108.994 106.15 108.202 105.934 107.494 105.502C106.786 105.07 106.228 104.464 105.82 103.684C105.412 102.904 105.208 102.016 105.208 101.02ZM113.56 101.038C113.56 100.294 113.41 99.6463 113.11 99.0943C112.81 98.5423 112.402 98.1223 111.886 97.8343C111.382 97.5343 110.824 97.3843 110.212 97.3843C109.6 97.3843 109.042 97.5283 108.538 97.8163C108.034 98.1043 107.632 98.5243 107.332 99.0763C107.032 99.6283 106.882 100.276 106.882 101.02C106.882 101.776 107.032 102.436 107.332 103C107.632 103.552 108.034 103.978 108.538 104.278C109.042 104.566 109.6 104.71 110.212 104.71C110.824 104.71 111.382 104.566 111.886 104.278C112.402 103.978 112.81 103.552 113.11 103C113.41 102.436 113.56 101.782 113.56 101.038ZM120.162 97.4743V103.288C120.162 103.768 120.264 104.11 120.468 104.314C120.672 104.506 121.026 104.602 121.53 104.602H122.736V105.988H121.26C120.348 105.988 119.664 105.778 119.208 105.358C118.752 104.938 118.524 104.248 118.524 103.288V97.4743H117.246V96.1243H118.524V93.6403H120.162V96.1243H122.736V97.4743H120.162ZM133.894 97.4743H131.824V105.988H130.186V97.4743H128.908V96.1243H130.186V95.4223C130.186 94.3183 130.468 93.5143 131.032 93.0103C131.608 92.4943 132.526 92.2363 133.786 92.2363V93.6043C133.066 93.6043 132.556 93.7483 132.256 94.0363C131.968 94.3123 131.824 94.7743 131.824 95.4223V96.1243H133.894V97.4743ZM144.984 100.678C144.984 100.99 144.966 101.32 144.93 101.668H137.046C137.106 102.64 137.436 103.402 138.036 103.954C138.648 104.494 139.386 104.764 140.25 104.764C140.958 104.764 141.546 104.602 142.014 104.278C142.494 103.942 142.83 103.498 143.022 102.946H144.786C144.522 103.894 143.994 104.668 143.202 105.268C142.41 105.856 141.426 106.15 140.25 106.15C139.314 106.15 138.474 105.94 137.73 105.52C136.998 105.1 136.422 104.506 136.002 103.738C135.582 102.958 135.372 102.058 135.372 101.038C135.372 100.018 135.576 99.1243 135.984 98.3563C136.392 97.5883 136.962 97.0003 137.694 96.5923C138.438 96.1723 139.29 95.9623 140.25 95.9623C141.186 95.9623 142.014 96.1663 142.734 96.5743C143.454 96.9823 144.006 97.5463 144.39 98.2663C144.786 98.9743 144.984 99.7783 144.984 100.678ZM143.292 100.336C143.292 99.7123 143.154 99.1783 142.878 98.7343C142.602 98.2783 142.224 97.9363 141.744 97.7083C141.276 97.4683 140.754 97.3483 140.178 97.3483C139.35 97.3483 138.642 97.6123 138.054 98.1403C137.478 98.6683 137.148 99.4003 137.064 100.336H143.292ZM146.714 101.02C146.714 100.012 146.918 99.1303 147.326 98.3743C147.734 97.6063 148.292 97.0123 149 96.5923C149.72 96.1723 150.518 95.9623 151.394 95.9623C152.258 95.9623 153.008 96.1483 153.644 96.5203C154.28 96.8923 154.754 97.3603 155.066 97.9243V96.1243H156.722V105.988H155.066V104.152C154.742 104.728 154.256 105.208 153.608 105.592C152.972 105.964 152.228 106.15 151.376 106.15C150.5 106.15 149.708 105.934 149 105.502C148.292 105.07 147.734 104.464 147.326 103.684C146.918 102.904 146.714 102.016 146.714 101.02ZM155.066 101.038C155.066 100.294 154.916 99.6463 154.616 99.0943C154.316 98.5423 153.908 98.1223 153.392 97.8343C152.888 97.5343 152.33 97.3843 151.718 97.3843C151.106 97.3843 150.548 97.5283 150.044 97.8163C149.54 98.1043 149.138 98.5243 148.838 99.0763C148.538 99.6283 148.388 100.276 148.388 101.02C148.388 101.776 148.538 102.436 148.838 103C149.138 103.552 149.54 103.978 150.044 104.278C150.548 104.566 151.106 104.71 151.718 104.71C152.33 104.71 152.888 104.566 153.392 104.278C153.908 103.978 154.316 103.552 154.616 103C154.916 102.436 155.066 101.782 155.066 101.038ZM161.668 97.4743V103.288C161.668 103.768 161.77 104.11 161.974 104.314C162.178 104.506 162.532 104.602 163.036 104.602H164.242V105.988H162.766C161.854 105.988 161.17 105.778 160.714 105.358C160.258 104.938 160.03 104.248 160.03 103.288V97.4743H158.752V96.1243H160.03V93.6403H161.668V96.1243H164.242V97.4743H161.668ZM175.154 96.1243V105.988H173.516V104.53C173.204 105.034 172.766 105.43 172.202 105.718C171.65 105.994 171.038 106.132 170.366 106.132C169.598 106.132 168.908 105.976 168.296 105.664C167.684 105.34 167.198 104.86 166.838 104.224C166.49 103.588 166.316 102.814 166.316 101.902V96.1243H167.936V101.686C167.936 102.658 168.182 103.408 168.674 103.936C169.166 104.452 169.838 104.71 170.69 104.71C171.566 104.71 172.256 104.44 172.76 103.9C173.264 103.36 173.516 102.574 173.516 101.542V96.1243H175.154ZM179.738 97.7263C180.026 97.1623 180.434 96.7243 180.962 96.4123C181.502 96.1003 182.156 95.9443 182.924 95.9443V97.6363H182.492C180.656 97.6363 179.738 98.6323 179.738 100.624V105.988H178.1V96.1243H179.738V97.7263ZM193.995 100.678C193.995 100.99 193.977 101.32 193.941 101.668H186.057C186.117 102.64 186.447 103.402 187.047 103.954C187.659 104.494 188.397 104.764 189.261 104.764C189.969 104.764 190.557 104.602 191.025 104.278C191.505 103.942 191.841 103.498 192.033 102.946H193.797C193.533 103.894 193.005 104.668 192.213 105.268C191.421 105.856 190.437 106.15 189.261 106.15C188.325 106.15 187.485 105.94 186.741 105.52C186.009 105.1 185.433 104.506 185.013 103.738C184.593 102.958 184.383 102.058 184.383 101.038C184.383 100.018 184.587 99.1243 184.995 98.3563C185.403 97.5883 185.973 97.0003 186.705 96.5923C187.449 96.1723 188.301 95.9623 189.261 95.9623C190.197 95.9623 191.025 96.1663 191.745 96.5743C192.465 96.9823 193.017 97.5463 193.401 98.2663C193.797 98.9743 193.995 99.7783 193.995 100.678ZM192.303 100.336C192.303 99.7123 192.165 99.1783 191.889 98.7343C191.613 98.2783 191.235 97.9363 190.755 97.7083C190.287 97.4683 189.765 97.3483 189.189 97.3483C188.361 97.3483 187.653 97.6123 187.065 98.1403C186.489 98.6683 186.159 99.4003 186.075 100.336H192.303ZM199.829 106.15C199.073 106.15 198.395 106.024 197.795 105.772C197.195 105.508 196.721 105.148 196.373 104.692C196.025 104.224 195.833 103.69 195.797 103.09H197.489C197.537 103.582 197.765 103.984 198.173 104.296C198.593 104.608 199.139 104.764 199.811 104.764C200.435 104.764 200.927 104.626 201.287 104.35C201.647 104.074 201.827 103.726 201.827 103.306C201.827 102.874 201.635 102.556 201.251 102.352C200.867 102.136 200.273 101.926 199.469 101.722C198.737 101.53 198.137 101.338 197.669 101.146C197.213 100.942 196.817 100.648 196.481 100.264C196.157 99.8683 195.995 99.3523 195.995 98.7163C195.995 98.2123 196.145 97.7503 196.445 97.3303C196.745 96.9103 197.171 96.5803 197.723 96.3403C198.275 96.0883 198.905 95.9623 199.613 95.9623C200.705 95.9623 201.587 96.2383 202.259 96.7903C202.931 97.3423 203.291 98.0983 203.339 99.0583H201.701C201.665 98.5423 201.455 98.1283 201.071 97.8163C200.699 97.5043 200.195 97.3483 199.559 97.3483C198.971 97.3483 198.503 97.4743 198.155 97.7263C197.807 97.9783 197.633 98.3083 197.633 98.7163C197.633 99.0403 197.735 99.3103 197.939 99.5263C198.155 99.7303 198.419 99.8983 198.731 100.03C199.055 100.15 199.499 100.288 200.063 100.444C200.771 100.636 201.347 100.828 201.791 101.02C202.235 101.2 202.613 101.476 202.925 101.848C203.249 102.22 203.417 102.706 203.429 103.306C203.429 103.846 203.279 104.332 202.979 104.764C202.679 105.196 202.253 105.538 201.701 105.79C201.161 106.03 200.537 106.15 199.829 106.15ZM224.04 96.1243L220.962 105.988H219.27L216.894 98.1583L214.518 105.988H212.826L209.73 96.1243H211.404L213.672 104.404L216.12 96.1243H217.794L220.188 104.422L222.42 96.1243H224.04ZM226.692 94.5223C226.38 94.5223 226.116 94.4143 225.9 94.1983C225.684 93.9823 225.576 93.7183 225.576 93.4063C225.576 93.0943 225.684 92.8303 225.9 92.6143C226.116 92.3983 226.38 92.2903 226.692 92.2903C226.992 92.2903 227.244 92.3983 227.448 92.6143C227.664 92.8303 227.772 93.0943 227.772 93.4063C227.772 93.7183 227.664 93.9823 227.448 94.1983C227.244 94.4143 226.992 94.5223 226.692 94.5223ZM227.484 96.1243V105.988H225.846V96.1243H227.484ZM232.093 92.6683V105.988H230.455V92.6683H232.093ZM236.703 92.6683V105.988H235.065V92.6683H236.703ZM246.292 97.9603C246.628 97.3723 247.12 96.8923 247.768 96.5203C248.416 96.1483 249.154 95.9623 249.982 95.9623C250.87 95.9623 251.668 96.1723 252.376 96.5923C253.084 97.0123 253.642 97.6063 254.05 98.3743C254.458 99.1303 254.662 100.012 254.662 101.02C254.662 102.016 254.458 102.904 254.05 103.684C253.642 104.464 253.078 105.07 252.358 105.502C251.65 105.934 250.858 106.15 249.982 106.15C249.13 106.15 248.38 105.964 247.732 105.592C247.096 105.22 246.616 104.746 246.292 104.17V105.988H244.654V92.6683H246.292V97.9603ZM252.988 101.02C252.988 100.276 252.838 99.6283 252.538 99.0763C252.238 98.5243 251.83 98.1043 251.314 97.8163C250.81 97.5283 250.252 97.3843 249.64 97.3843C249.04 97.3843 248.482 97.5343 247.966 97.8343C247.462 98.1223 247.054 98.5483 246.742 99.1123C246.442 99.6643 246.292 100.306 246.292 101.038C246.292 101.782 246.442 102.436 246.742 103C247.054 103.552 247.462 103.978 247.966 104.278C248.482 104.566 249.04 104.71 249.64 104.71C250.252 104.71 250.81 104.566 251.314 104.278C251.83 103.978 252.238 103.552 252.538 103C252.838 102.436 252.988 101.776 252.988 101.02ZM265.998 100.678C265.998 100.99 265.98 101.32 265.944 101.668H258.06C258.12 102.64 258.45 103.402 259.05 103.954C259.662 104.494 260.4 104.764 261.264 104.764C261.972 104.764 262.56 104.602 263.028 104.278C263.508 103.942 263.844 103.498 264.036 102.946H265.8C265.536 103.894 265.008 104.668 264.216 105.268C263.424 105.856 262.44 106.15 261.264 106.15C260.328 106.15 259.488 105.94 258.744 105.52C258.012 105.1 257.436 104.506 257.016 103.738C256.596 102.958 256.386 102.058 256.386 101.038C256.386 100.018 256.59 99.1243 256.998 98.3563C257.406 97.5883 257.976 97.0003 258.708 96.5923C259.452 96.1723 260.304 95.9623 261.264 95.9623C262.2 95.9623 263.028 96.1663 263.748 96.5743C264.468 96.9823 265.02 97.5463 265.404 98.2663C265.8 98.9743 265.998 99.7783 265.998 100.678ZM264.306 100.336C264.306 99.7123 264.168 99.1783 263.892 98.7343C263.616 98.2783 263.238 97.9363 262.758 97.7083C262.29 97.4683 261.768 97.3483 261.192 97.3483C260.364 97.3483 259.656 97.6123 259.068 98.1403C258.492 98.6683 258.162 99.4003 258.078 100.336H264.306ZM80.454 122.962C81.306 122.962 82.05 123.148 82.686 123.52C83.334 123.892 83.814 124.36 84.126 124.924V123.124H85.782V133.204C85.782 134.104 85.59 134.902 85.206 135.598C84.822 136.306 84.27 136.858 83.55 137.254C82.842 137.65 82.014 137.848 81.066 137.848C79.77 137.848 78.69 137.542 77.826 136.93C76.962 136.318 76.452 135.484 76.296 134.428H77.916C78.096 135.028 78.468 135.508 79.032 135.868C79.596 136.24 80.274 136.426 81.066 136.426C81.966 136.426 82.698 136.144 83.262 135.58C83.838 135.016 84.126 134.224 84.126 133.204V131.134C83.802 131.71 83.322 132.19 82.686 132.574C82.05 132.958 81.306 133.15 80.454 133.15C79.578 133.15 78.78 132.934 78.06 132.502C77.352 132.07 76.794 131.464 76.386 130.684C75.978 129.904 75.774 129.016 75.774 128.02C75.774 127.012 75.978 126.13 76.386 125.374C76.794 124.606 77.352 124.012 78.06 123.592C78.78 123.172 79.578 122.962 80.454 122.962ZM84.126 128.038C84.126 127.294 83.976 126.646 83.676 126.094C83.376 125.542 82.968 125.122 82.452 124.834C81.948 124.534 81.39 124.384 80.778 124.384C80.166 124.384 79.608 124.528 79.104 124.816C78.6 125.104 78.198 125.524 77.898 126.076C77.598 126.628 77.448 127.276 77.448 128.02C77.448 128.776 77.598 129.436 77.898 130C78.198 130.552 78.6 130.978 79.104 131.278C79.608 131.566 80.166 131.71 80.778 131.71C81.39 131.71 81.948 131.566 82.452 131.278C82.968 130.978 83.376 130.552 83.676 130C83.976 129.436 84.126 128.782 84.126 128.038ZM93.0321 133.15C92.1081 133.15 91.2681 132.94 90.5121 132.52C89.7681 132.1 89.1801 131.506 88.7481 130.738C88.3281 129.958 88.1181 129.058 88.1181 128.038C88.1181 127.03 88.3341 126.142 88.7661 125.374C89.2101 124.594 89.8101 124 90.5661 123.592C91.3221 123.172 92.1681 122.962 93.1041 122.962C94.0401 122.962 94.8861 123.172 95.6421 123.592C96.3981 124 96.9921 124.588 97.4241 125.356C97.8681 126.124 98.0901 127.018 98.0901 128.038C98.0901 129.058 97.8621 129.958 97.4061 130.738C96.9621 131.506 96.3561 132.1 95.5881 132.52C94.8201 132.94 93.9681 133.15 93.0321 133.15ZM93.0321 131.71C93.6201 131.71 94.1721 131.572 94.6881 131.296C95.2041 131.02 95.6181 130.606 95.9301 130.054C96.2541 129.502 96.4161 128.83 96.4161 128.038C96.4161 127.246 96.2601 126.574 95.9481 126.022C95.6361 125.47 95.2281 125.062 94.7241 124.798C94.2201 124.522 93.6741 124.384 93.0861 124.384C92.4861 124.384 91.9341 124.522 91.4301 124.798C90.9381 125.062 90.5421 125.47 90.2421 126.022C89.9421 126.574 89.7921 127.246 89.7921 128.038C89.7921 128.842 89.9361 129.52 90.2241 130.072C90.5241 130.624 90.9201 131.038 91.4121 131.314C91.9041 131.578 92.4441 131.71 93.0321 131.71ZM104.726 133.15C103.802 133.15 102.962 132.94 102.206 132.52C101.462 132.1 100.874 131.506 100.442 130.738C100.022 129.958 99.8117 129.058 99.8117 128.038C99.8117 127.03 100.028 126.142 100.46 125.374C100.904 124.594 101.504 124 102.26 123.592C103.016 123.172 103.862 122.962 104.798 122.962C105.734 122.962 106.58 123.172 107.336 123.592C108.092 124 108.686 124.588 109.118 125.356C109.562 126.124 109.784 127.018 109.784 128.038C109.784 129.058 109.556 129.958 109.1 130.738C108.656 131.506 108.05 132.1 107.282 132.52C106.514 132.94 105.662 133.15 104.726 133.15ZM104.726 131.71C105.314 131.71 105.866 131.572 106.382 131.296C106.898 131.02 107.312 130.606 107.624 130.054C107.948 129.502 108.11 128.83 108.11 128.038C108.11 127.246 107.954 126.574 107.642 126.022C107.33 125.47 106.922 125.062 106.418 124.798C105.914 124.522 105.368 124.384 104.78 124.384C104.18 124.384 103.628 124.522 103.124 124.798C102.632 125.062 102.236 125.47 101.936 126.022C101.636 126.574 101.486 127.246 101.486 128.038C101.486 128.842 101.63 129.52 101.918 130.072C102.218 130.624 102.614 131.038 103.106 131.314C103.598 131.578 104.138 131.71 104.726 131.71ZM111.505 128.02C111.505 127.012 111.709 126.13 112.117 125.374C112.525 124.606 113.083 124.012 113.791 123.592C114.511 123.172 115.315 122.962 116.203 122.962C116.971 122.962 117.685 123.142 118.345 123.502C119.005 123.85 119.509 124.312 119.857 124.888V119.668H121.513V132.988H119.857V131.134C119.533 131.722 119.053 132.208 118.417 132.592C117.781 132.964 117.037 133.15 116.185 133.15C115.309 133.15 114.511 132.934 113.791 132.502C113.083 132.07 112.525 131.464 112.117 130.684C111.709 129.904 111.505 129.016 111.505 128.02ZM119.857 128.038C119.857 127.294 119.707 126.646 119.407 126.094C119.107 125.542 118.699 125.122 118.183 124.834C117.679 124.534 117.121 124.384 116.509 124.384C115.897 124.384 115.339 124.528 114.835 124.816C114.331 125.104 113.929 125.524 113.629 126.076C113.329 126.628 113.179 127.276 113.179 128.02C113.179 128.776 113.329 129.436 113.629 130C113.929 130.552 114.331 130.978 114.835 131.278C115.339 131.566 115.897 131.71 116.509 131.71C117.121 131.71 117.679 131.566 118.183 131.278C118.699 130.978 119.107 130.552 119.407 130C119.707 129.436 119.857 128.782 119.857 128.038ZM131.438 124.474V130.288C131.438 130.768 131.54 131.11 131.744 131.314C131.948 131.506 132.302 131.602 132.806 131.602H134.012V132.988H132.536C131.624 132.988 130.94 132.778 130.484 132.358C130.028 131.938 129.8 131.248 129.8 130.288V124.474H128.522V123.124H129.8V120.64H131.438V123.124H134.012V124.474H131.438ZM140.479 133.15C139.555 133.15 138.715 132.94 137.959 132.52C137.215 132.1 136.627 131.506 136.195 130.738C135.775 129.958 135.565 129.058 135.565 128.038C135.565 127.03 135.781 126.142 136.213 125.374C136.657 124.594 137.257 124 138.013 123.592C138.769 123.172 139.615 122.962 140.551 122.962C141.487 122.962 142.333 123.172 143.089 123.592C143.845 124 144.439 124.588 144.871 125.356C145.315 126.124 145.537 127.018 145.537 128.038C145.537 129.058 145.309 129.958 144.853 130.738C144.409 131.506 143.803 132.1 143.035 132.52C142.267 132.94 141.415 133.15 140.479 133.15ZM140.479 131.71C141.067 131.71 141.619 131.572 142.135 131.296C142.651 131.02 143.065 130.606 143.377 130.054C143.701 129.502 143.863 128.83 143.863 128.038C143.863 127.246 143.707 126.574 143.395 126.022C143.083 125.47 142.675 125.062 142.171 124.798C141.667 124.522 141.121 124.384 140.533 124.384C139.933 124.384 139.381 124.522 138.877 124.798C138.385 125.062 137.989 125.47 137.689 126.022C137.389 126.574 137.239 127.246 137.239 128.038C137.239 128.842 137.383 129.52 137.671 130.072C137.971 130.624 138.367 131.038 138.859 131.314C139.351 131.578 139.891 131.71 140.479 131.71ZM152.237 128.02C152.237 127.012 152.441 126.13 152.849 125.374C153.257 124.606 153.815 124.012 154.523 123.592C155.243 123.172 156.041 122.962 156.917 122.962C157.781 122.962 158.531 123.148 159.167 123.52C159.803 123.892 160.277 124.36 160.589 124.924V123.124H162.245V132.988H160.589V131.152C160.265 131.728 159.779 132.208 159.131 132.592C158.495 132.964 157.751 133.15 156.899 133.15C156.023 133.15 155.231 132.934 154.523 132.502C153.815 132.07 153.257 131.464 152.849 130.684C152.441 129.904 152.237 129.016 152.237 128.02ZM160.589 128.038C160.589 127.294 160.439 126.646 160.139 126.094C159.839 125.542 159.431 125.122 158.915 124.834C158.411 124.534 157.853 124.384 157.241 124.384C156.629 124.384 156.071 124.528 155.567 124.816C155.063 125.104 154.661 125.524 154.361 126.076C154.061 126.628 153.911 127.276 153.911 128.02C153.911 128.776 154.061 129.436 154.361 130C154.661 130.552 155.063 130.978 155.567 131.278C156.071 131.566 156.629 131.71 157.241 131.71C157.853 131.71 158.411 131.566 158.915 131.278C159.431 130.978 159.839 130.552 160.139 130C160.439 129.436 160.589 128.782 160.589 128.038ZM164.582 128.038C164.582 127.018 164.786 126.13 165.194 125.374C165.602 124.606 166.166 124.012 166.886 123.592C167.618 123.172 168.452 122.962 169.388 122.962C170.6 122.962 171.596 123.256 172.376 123.844C173.168 124.432 173.69 125.248 173.942 126.292H172.178C172.01 125.692 171.68 125.218 171.188 124.87C170.708 124.522 170.108 124.348 169.388 124.348C168.452 124.348 167.696 124.672 167.12 125.32C166.544 125.956 166.256 126.862 166.256 128.038C166.256 129.226 166.544 130.144 167.12 130.792C167.696 131.44 168.452 131.764 169.388 131.764C170.108 131.764 170.708 131.596 171.188 131.26C171.668 130.924 171.998 130.444 172.178 129.82H173.942C173.678 130.828 173.15 131.638 172.358 132.25C171.566 132.85 170.576 133.15 169.388 133.15C168.452 133.15 167.618 132.94 166.886 132.52C166.166 132.1 165.602 131.506 165.194 130.738C164.786 129.97 164.582 129.07 164.582 128.038ZM181.203 122.944C181.947 122.944 182.619 123.106 183.219 123.43C183.819 123.742 184.287 124.216 184.623 124.852C184.971 125.488 185.145 126.262 185.145 127.174V132.988H183.525V127.408C183.525 126.424 183.279 125.674 182.787 125.158C182.295 124.63 181.623 124.366 180.771 124.366C179.907 124.366 179.217 124.636 178.701 125.176C178.197 125.716 177.945 126.502 177.945 127.534V132.988H176.307V119.668H177.945V124.528C178.269 124.024 178.713 123.634 179.277 123.358C179.853 123.082 180.495 122.944 181.203 122.944ZM188.847 121.522C188.535 121.522 188.271 121.414 188.055 121.198C187.839 120.982 187.731 120.718 187.731 120.406C187.731 120.094 187.839 119.83 188.055 119.614C188.271 119.398 188.535 119.29 188.847 119.29C189.147 119.29 189.399 119.398 189.603 119.614C189.819 119.83 189.927 120.094 189.927 120.406C189.927 120.718 189.819 120.982 189.603 121.198C189.399 121.414 189.147 121.522 188.847 121.522ZM189.639 123.124V132.988H188.001V123.124H189.639ZM201.61 127.678C201.61 127.99 201.592 128.32 201.556 128.668H193.672C193.732 129.64 194.062 130.402 194.662 130.954C195.274 131.494 196.012 131.764 196.876 131.764C197.584 131.764 198.172 131.602 198.64 131.278C199.12 130.942 199.456 130.498 199.648 129.946H201.412C201.148 130.894 200.62 131.668 199.828 132.268C199.036 132.856 198.052 133.15 196.876 133.15C195.94 133.15 195.1 132.94 194.356 132.52C193.624 132.1 193.048 131.506 192.628 130.738C192.208 129.958 191.998 129.058 191.998 128.038C191.998 127.018 192.202 126.124 192.61 125.356C193.018 124.588 193.588 124 194.32 123.592C195.064 123.172 195.916 122.962 196.876 122.962C197.812 122.962 198.64 123.166 199.36 123.574C200.08 123.982 200.632 124.546 201.016 125.266C201.412 125.974 201.61 126.778 201.61 127.678ZM199.918 127.336C199.918 126.712 199.78 126.178 199.504 125.734C199.228 125.278 198.85 124.936 198.37 124.708C197.902 124.468 197.38 124.348 196.804 124.348C195.976 124.348 195.268 124.612 194.68 125.14C194.104 125.668 193.774 126.4 193.69 127.336H199.918ZM207.625 131.476L210.685 123.124H212.431L208.561 132.988H206.653L202.783 123.124H204.547L207.625 131.476ZM223.222 127.678C223.222 127.99 223.204 128.32 223.168 128.668H215.284C215.344 129.64 215.674 130.402 216.274 130.954C216.886 131.494 217.624 131.764 218.488 131.764C219.196 131.764 219.784 131.602 220.252 131.278C220.732 130.942 221.068 130.498 221.26 129.946H223.024C222.76 130.894 222.232 131.668 221.44 132.268C220.648 132.856 219.664 133.15 218.488 133.15C217.552 133.15 216.712 132.94 215.968 132.52C215.236 132.1 214.66 131.506 214.24 130.738C213.82 129.958 213.61 129.058 213.61 128.038C213.61 127.018 213.814 126.124 214.222 125.356C214.63 124.588 215.2 124 215.932 123.592C216.676 123.172 217.528 122.962 218.488 122.962C219.424 122.962 220.252 123.166 220.972 123.574C221.692 123.982 222.244 124.546 222.628 125.266C223.024 125.974 223.222 126.778 223.222 127.678ZM221.53 127.336C221.53 126.712 221.392 126.178 221.116 125.734C220.84 125.278 220.462 124.936 219.982 124.708C219.514 124.468 218.992 124.348 218.416 124.348C217.588 124.348 216.88 124.612 216.292 125.14C215.716 125.668 215.386 126.4 215.302 127.336H221.53ZM78.024 151.942C78.348 151.378 78.828 150.91 79.464 150.538C80.112 150.154 80.862 149.962 81.714 149.962C82.59 149.962 83.382 150.172 84.09 150.592C84.81 151.012 85.374 151.606 85.782 152.374C86.19 153.13 86.394 154.012 86.394 155.02C86.394 156.016 86.19 156.904 85.782 157.684C85.374 158.464 84.81 159.07 84.09 159.502C83.382 159.934 82.59 160.15 81.714 160.15C80.874 160.15 80.13 159.964 79.482 159.592C78.846 159.208 78.36 158.734 78.024 158.17V164.668H76.386V150.124H78.024V151.942ZM84.72 155.02C84.72 154.276 84.57 153.628 84.27 153.076C83.97 152.524 83.562 152.104 83.046 151.816C82.542 151.528 81.984 151.384 81.372 151.384C80.772 151.384 80.214 151.534 79.698 151.834C79.194 152.122 78.786 152.548 78.474 153.112C78.174 153.664 78.024 154.306 78.024 155.038C78.024 155.782 78.174 156.436 78.474 157C78.786 157.552 79.194 157.978 79.698 158.278C80.214 158.566 80.772 158.71 81.372 158.71C81.984 158.71 82.542 158.566 83.046 158.278C83.562 157.978 83.97 157.552 84.27 157C84.57 156.436 84.72 155.776 84.72 155.02ZM97.7301 154.678C97.7301 154.99 97.7121 155.32 97.6761 155.668H89.7921C89.8521 156.64 90.1821 157.402 90.7821 157.954C91.3941 158.494 92.1321 158.764 92.9961 158.764C93.7041 158.764 94.2921 158.602 94.7601 158.278C95.2401 157.942 95.5761 157.498 95.7681 156.946H97.5321C97.2681 157.894 96.7401 158.668 95.9481 159.268C95.1561 159.856 94.1721 160.15 92.9961 160.15C92.0601 160.15 91.2201 159.94 90.4761 159.52C89.7441 159.1 89.1681 158.506 88.7481 157.738C88.3281 156.958 88.1181 156.058 88.1181 155.038C88.1181 154.018 88.3221 153.124 88.7301 152.356C89.1381 151.588 89.7081 151 90.4401 150.592C91.1841 150.172 92.0361 149.962 92.9961 149.962C93.9321 149.962 94.7601 150.166 95.4801 150.574C96.2001 150.982 96.7521 151.546 97.1361 152.266C97.5321 152.974 97.7301 153.778 97.7301 154.678ZM96.0381 154.336C96.0381 153.712 95.9001 153.178 95.6241 152.734C95.3481 152.278 94.9701 151.936 94.4901 151.708C94.0221 151.468 93.5001 151.348 92.9241 151.348C92.0961 151.348 91.3881 151.612 90.8001 152.14C90.2241 152.668 89.8941 153.4 89.8101 154.336H96.0381ZM101.71 151.726C101.998 151.162 102.406 150.724 102.934 150.412C103.474 150.1 104.128 149.944 104.896 149.944V151.636H104.464C102.628 151.636 101.71 152.632 101.71 154.624V159.988H100.072V150.124H101.71V151.726ZM110.459 160.15C109.703 160.15 109.025 160.024 108.425 159.772C107.825 159.508 107.351 159.148 107.003 158.692C106.655 158.224 106.463 157.69 106.427 157.09H108.119C108.167 157.582 108.395 157.984 108.803 158.296C109.223 158.608 109.769 158.764 110.441 158.764C111.065 158.764 111.557 158.626 111.917 158.35C112.277 158.074 112.457 157.726 112.457 157.306C112.457 156.874 112.265 156.556 111.881 156.352C111.497 156.136 110.903 155.926 110.099 155.722C109.367 155.53 108.767 155.338 108.299 155.146C107.843 154.942 107.447 154.648 107.111 154.264C106.787 153.868 106.625 153.352 106.625 152.716C106.625 152.212 106.775 151.75 107.075 151.33C107.375 150.91 107.801 150.58 108.353 150.34C108.905 150.088 109.535 149.962 110.243 149.962C111.335 149.962 112.217 150.238 112.889 150.79C113.561 151.342 113.921 152.098 113.969 153.058H112.331C112.295 152.542 112.085 152.128 111.701 151.816C111.329 151.504 110.825 151.348 110.189 151.348C109.601 151.348 109.133 151.474 108.785 151.726C108.437 151.978 108.263 152.308 108.263 152.716C108.263 153.04 108.365 153.31 108.569 153.526C108.785 153.73 109.049 153.898 109.361 154.03C109.685 154.15 110.129 154.288 110.693 154.444C111.401 154.636 111.977 154.828 112.421 155.02C112.865 155.2 113.243 155.476 113.555 155.848C113.879 156.22 114.047 156.706 114.059 157.306C114.059 157.846 113.909 158.332 113.609 158.764C113.309 159.196 112.883 159.538 112.331 159.79C111.791 160.03 111.167 160.15 110.459 160.15ZM120.853 160.15C119.929 160.15 119.089 159.94 118.333 159.52C117.589 159.1 117.001 158.506 116.569 157.738C116.149 156.958 115.939 156.058 115.939 155.038C115.939 154.03 116.155 153.142 116.587 152.374C117.031 151.594 117.631 151 118.387 150.592C119.143 150.172 119.989 149.962 120.925 149.962C121.861 149.962 122.707 150.172 123.463 150.592C124.219 151 124.813 151.588 125.245 152.356C125.689 153.124 125.911 154.018 125.911 155.038C125.911 156.058 125.683 156.958 125.227 157.738C124.783 158.506 124.177 159.1 123.409 159.52C122.641 159.94 121.789 160.15 120.853 160.15ZM120.853 158.71C121.441 158.71 121.993 158.572 122.509 158.296C123.025 158.02 123.439 157.606 123.751 157.054C124.075 156.502 124.237 155.83 124.237 155.038C124.237 154.246 124.081 153.574 123.769 153.022C123.457 152.47 123.049 152.062 122.545 151.798C122.041 151.522 121.495 151.384 120.907 151.384C120.307 151.384 119.755 151.522 119.251 151.798C118.759 152.062 118.363 152.47 118.063 153.022C117.763 153.574 117.613 154.246 117.613 155.038C117.613 155.842 117.757 156.52 118.045 157.072C118.345 157.624 118.741 158.038 119.233 158.314C119.725 158.578 120.265 158.71 120.853 158.71ZM133.051 149.944C134.251 149.944 135.223 150.31 135.967 151.042C136.711 151.762 137.083 152.806 137.083 154.174V159.988H135.463V154.408C135.463 153.424 135.217 152.674 134.725 152.158C134.233 151.63 133.561 151.366 132.709 151.366C131.845 151.366 131.155 151.636 130.639 152.176C130.135 152.716 129.883 153.502 129.883 154.534V159.988H128.245V150.124H129.883V151.528C130.207 151.024 130.645 150.634 131.197 150.358C131.761 150.082 132.379 149.944 133.051 149.944ZM139.327 155.02C139.327 154.012 139.531 153.13 139.939 152.374C140.347 151.606 140.905 151.012 141.613 150.592C142.333 150.172 143.131 149.962 144.007 149.962C144.871 149.962 145.621 150.148 146.257 150.52C146.893 150.892 147.367 151.36 147.679 151.924V150.124H149.335V159.988H147.679V158.152C147.355 158.728 146.869 159.208 146.221 159.592C145.585 159.964 144.841 160.15 143.989 160.15C143.113 160.15 142.321 159.934 141.613 159.502C140.905 159.07 140.347 158.464 139.939 157.684C139.531 156.904 139.327 156.016 139.327 155.02ZM147.679 155.038C147.679 154.294 147.529 153.646 147.229 153.094C146.929 152.542 146.521 152.122 146.005 151.834C145.501 151.534 144.943 151.384 144.331 151.384C143.719 151.384 143.161 151.528 142.657 151.816C142.153 152.104 141.751 152.524 141.451 153.076C141.151 153.628 141.001 154.276 141.001 155.02C141.001 155.776 141.151 156.436 141.451 157C141.751 157.552 142.153 157.978 142.657 158.278C143.161 158.566 143.719 158.71 144.331 158.71C144.943 158.71 145.501 158.566 146.005 158.278C146.521 157.978 146.929 157.552 147.229 157C147.529 156.436 147.679 155.782 147.679 155.038ZM152.535 147.442H154.353L152.625 151.528H151.473L152.535 147.442ZM159.892 160.15C159.136 160.15 158.458 160.024 157.858 159.772C157.258 159.508 156.784 159.148 156.436 158.692C156.088 158.224 155.896 157.69 155.86 157.09H157.552C157.6 157.582 157.828 157.984 158.236 158.296C158.656 158.608 159.202 158.764 159.874 158.764C160.498 158.764 160.99 158.626 161.35 158.35C161.71 158.074 161.89 157.726 161.89 157.306C161.89 156.874 161.698 156.556 161.314 156.352C160.93 156.136 160.336 155.926 159.532 155.722C158.8 155.53 158.2 155.338 157.732 155.146C157.276 154.942 156.88 154.648 156.544 154.264C156.22 153.868 156.058 153.352 156.058 152.716C156.058 152.212 156.208 151.75 156.508 151.33C156.808 150.91 157.234 150.58 157.786 150.34C158.338 150.088 158.968 149.962 159.676 149.962C160.768 149.962 161.65 150.238 162.322 150.79C162.994 151.342 163.354 152.098 163.402 153.058H161.764C161.728 152.542 161.518 152.128 161.134 151.816C160.762 151.504 160.258 151.348 159.622 151.348C159.034 151.348 158.566 151.474 158.218 151.726C157.87 151.978 157.696 152.308 157.696 152.716C157.696 153.04 157.798 153.31 158.002 153.526C158.218 153.73 158.482 153.898 158.794 154.03C159.118 154.15 159.562 154.288 160.126 154.444C160.834 154.636 161.41 154.828 161.854 155.02C162.298 155.2 162.676 155.476 162.988 155.848C163.312 156.22 163.48 156.706 163.492 157.306C163.492 157.846 163.342 158.332 163.042 158.764C162.742 159.196 162.316 159.538 161.764 159.79C161.224 160.03 160.6 160.15 159.892 160.15ZM175.031 149.962C175.883 149.962 176.627 150.148 177.263 150.52C177.911 150.892 178.391 151.36 178.703 151.924V150.124H180.359V160.204C180.359 161.104 180.167 161.902 179.783 162.598C179.399 163.306 178.847 163.858 178.127 164.254C177.419 164.65 176.591 164.848 175.643 164.848C174.347 164.848 173.267 164.542 172.403 163.93C171.539 163.318 171.029 162.484 170.873 161.428H172.493C172.673 162.028 173.045 162.508 173.609 162.868C174.173 163.24 174.851 163.426 175.643 163.426C176.543 163.426 177.275 163.144 177.839 162.58C178.415 162.016 178.703 161.224 178.703 160.204V158.134C178.379 158.71 177.899 159.19 177.263 159.574C176.627 159.958 175.883 160.15 175.031 160.15C174.155 160.15 173.357 159.934 172.637 159.502C171.929 159.07 171.371 158.464 170.963 157.684C170.555 156.904 170.351 156.016 170.351 155.02C170.351 154.012 170.555 153.13 170.963 152.374C171.371 151.606 171.929 151.012 172.637 150.592C173.357 150.172 174.155 149.962 175.031 149.962ZM178.703 155.038C178.703 154.294 178.553 153.646 178.253 153.094C177.953 152.542 177.545 152.122 177.029 151.834C176.525 151.534 175.967 151.384 175.355 151.384C174.743 151.384 174.185 151.528 173.681 151.816C173.177 152.104 172.775 152.524 172.475 153.076C172.175 153.628 172.025 154.276 172.025 155.02C172.025 155.776 172.175 156.436 172.475 157C172.775 157.552 173.177 157.978 173.681 158.278C174.185 158.566 174.743 158.71 175.355 158.71C175.967 158.71 176.525 158.566 177.029 158.278C177.545 157.978 177.953 157.552 178.253 157C178.553 156.436 178.703 155.782 178.703 155.038ZM187.609 160.15C186.685 160.15 185.845 159.94 185.089 159.52C184.345 159.1 183.757 158.506 183.325 157.738C182.905 156.958 182.695 156.058 182.695 155.038C182.695 154.03 182.911 153.142 183.343 152.374C183.787 151.594 184.387 151 185.143 150.592C185.899 150.172 186.745 149.962 187.681 149.962C188.617 149.962 189.463 150.172 190.219 150.592C190.975 151 191.569 151.588 192.001 152.356C192.445 153.124 192.667 154.018 192.667 155.038C192.667 156.058 192.439 156.958 191.983 157.738C191.539 158.506 190.933 159.1 190.165 159.52C189.397 159.94 188.545 160.15 187.609 160.15ZM187.609 158.71C188.197 158.71 188.749 158.572 189.265 158.296C189.781 158.02 190.195 157.606 190.507 157.054C190.831 156.502 190.993 155.83 190.993 155.038C190.993 154.246 190.837 153.574 190.525 153.022C190.213 152.47 189.805 152.062 189.301 151.798C188.797 151.522 188.251 151.384 187.663 151.384C187.063 151.384 186.511 151.522 186.007 151.798C185.515 152.062 185.119 152.47 184.819 153.022C184.519 153.574 184.369 154.246 184.369 155.038C184.369 155.842 184.513 156.52 184.801 157.072C185.101 157.624 185.497 158.038 185.989 158.314C186.481 158.578 187.021 158.71 187.609 158.71ZM194.389 155.02C194.389 154.012 194.593 153.13 195.001 152.374C195.409 151.606 195.967 151.012 196.675 150.592C197.395 150.172 198.193 149.962 199.069 149.962C199.933 149.962 200.683 150.148 201.319 150.52C201.955 150.892 202.429 151.36 202.741 151.924V150.124H204.397V159.988H202.741V158.152C202.417 158.728 201.931 159.208 201.283 159.592C200.647 159.964 199.903 160.15 199.051 160.15C198.175 160.15 197.383 159.934 196.675 159.502C195.967 159.07 195.409 158.464 195.001 157.684C194.593 156.904 194.389 156.016 194.389 155.02ZM202.741 155.038C202.741 154.294 202.591 153.646 202.291 153.094C201.991 152.542 201.583 152.122 201.067 151.834C200.563 151.534 200.005 151.384 199.393 151.384C198.781 151.384 198.223 151.528 197.719 151.816C197.215 152.104 196.813 152.524 196.513 153.076C196.213 153.628 196.063 154.276 196.063 155.02C196.063 155.776 196.213 156.436 196.513 157C196.813 157.552 197.215 157.978 197.719 158.278C198.223 158.566 198.781 158.71 199.393 158.71C200.005 158.71 200.563 158.566 201.067 158.278C201.583 157.978 201.991 157.552 202.291 157C202.591 156.436 202.741 155.782 202.741 155.038ZM208.983 146.668V159.988H207.345V146.668H208.983ZM215.159 147.28C216.347 147.28 217.307 147.616 218.039 148.288C218.771 148.96 219.137 149.86 219.137 150.988C219.137 152.248 218.747 153.184 217.967 153.796C217.187 154.396 216.131 154.696 214.799 154.696L214.745 156.406H213.323L213.251 153.562H213.773C214.961 153.562 215.891 153.382 216.563 153.022C217.235 152.662 217.571 151.984 217.571 150.988C217.571 150.268 217.355 149.698 216.923 149.278C216.491 148.858 215.909 148.648 215.177 148.648C214.433 148.648 213.845 148.852 213.413 149.26C212.993 149.656 212.783 150.202 212.783 150.898H211.235C211.235 150.178 211.397 149.548 211.721 149.008C212.045 148.456 212.501 148.03 213.089 147.73C213.689 147.43 214.379 147.28 215.159 147.28ZM214.025 160.096C213.713 160.096 213.449 159.988 213.233 159.772C213.017 159.556 212.909 159.292 212.909 158.98C212.909 158.668 213.017 158.404 213.233 158.188C213.449 157.972 213.713 157.864 214.025 157.864C214.325 157.864 214.577 157.972 214.781 158.188C214.997 158.404 215.105 158.668 215.105 158.98C215.105 159.292 214.997 159.556 214.781 159.772C214.577 159.988 214.325 160.096 214.025 160.096Z" fill="#0A0A0A"/>
</svg>
