<svg width="210" height="77" viewBox="0 0 210 77" fill="none" xmlns="http://www.w3.org/2000/svg">
<rect width="210" height="77" fill="white"/>
<g id="Case study">
<g clip-path="url(#clip0_219_334)">
<rect x="-631" y="-284" width="1440" height="36940" fill="white"/>
<g id="hero-section">
<rect width="1440" height="772" transform="translate(-631 -92)" fill="#F8F8F6"/>
<g id="right-container">
<g id="gengo-logo">
<path d="M210 38.3305C210 48.4964 205.962 58.2459 198.773 65.4342C191.585 72.6226 181.835 76.661 171.67 76.661C161.504 76.661 151.754 72.6226 144.566 65.4342C137.377 58.2459 133.339 48.4964 133.339 38.3305L210 38.3305Z" fill="#EAA453"/>
<path d="M12.1124 34.8175C11.8228 34.3405 11.4225 33.9743 10.9114 33.7187C10.4174 33.4632 9.82964 33.3354 9.14821 33.3354C7.88756 33.3354 6.89097 33.7443 6.15843 34.562C5.44293 35.3797 5.08518 36.4785 5.08518 37.8584C5.08518 39.4087 5.46848 40.5927 6.23509 41.4104C7.01874 42.2111 8.15162 42.6114 9.63373 42.6114C11.3884 42.6114 12.6405 41.8192 13.3901 40.2349H8.35605V36.6319H17.7087V41.487C17.3169 42.441 16.7376 43.3354 15.971 44.1702C15.2215 45.0049 14.2675 45.6949 13.109 46.24C11.9506 46.7681 10.6303 47.0322 9.14821 47.0322C7.34242 47.0322 5.74106 46.6489 4.34412 45.8823C2.96423 45.0986 1.89097 44.0169 1.12436 42.637C0.374787 41.24 0 39.6472 0 37.8584C0 36.0867 0.374787 34.5109 1.12436 33.131C1.89097 31.7341 2.96423 30.6523 4.34412 29.8857C5.72402 29.102 7.31687 28.7102 9.12266 28.7102C11.3884 28.7102 13.2624 29.2554 14.7445 30.3456C16.2266 31.4359 17.1465 32.9266 17.5043 34.8175H12.1124Z" fill="#BB5B28"/>
<path d="M27.5171 32.901V35.8397H33.2667V39.6472H27.5171V42.8925H34.0333V46.9044H22.5086V28.8891H34.0333V32.901H27.5171Z" fill="#BB5B28"/>
<path d="M55.7501 46.9044H50.7416L44.0721 36.8363V46.9044H39.0636V28.8891H44.0721L50.7416 39.085V28.8891H55.7501V46.9044Z" fill="#BB5B28"/>
<path d="M72.6576 34.8175C72.368 34.3405 71.9677 33.9743 71.4566 33.7187C70.9626 33.4632 70.3749 33.3354 69.6934 33.3354C68.4328 33.3354 67.4362 33.7443 66.7036 34.562C65.9881 35.3797 65.6304 36.4785 65.6304 37.8584C65.6304 39.4087 66.0137 40.5927 66.7803 41.4104C67.5639 42.2111 68.6968 42.6114 70.1789 42.6114C71.9336 42.6114 73.1858 41.8192 73.9353 40.2349H68.9013V36.6319H78.2539V41.487C77.8621 42.441 77.2829 43.3354 76.5163 44.1702C75.7667 45.0049 74.8127 45.6949 73.6542 46.24C72.4958 46.7681 71.1755 47.0322 69.6934 47.0322C67.8876 47.0322 66.2863 46.6489 64.8893 45.8823C63.5094 45.0986 62.4362 44.0169 61.6696 42.637C60.92 41.24 60.5452 39.6472 60.5452 37.8584C60.5452 36.0867 60.92 34.5109 61.6696 33.131C62.4362 31.7341 63.5094 30.6523 64.8893 29.8857C66.2692 29.102 67.8621 28.7102 69.6679 28.7102C71.9336 28.7102 73.8076 29.2554 75.2897 30.3456C76.7718 31.4359 77.6917 32.9266 78.0495 34.8175H72.6576Z" fill="#BB5B28"/>
<path d="M91.6909 47.0833C90.0044 47.0833 88.4541 46.6915 87.0402 45.9078C85.6262 45.1071 84.5018 44.0083 83.6671 42.6114C82.8494 41.1974 82.4405 39.6046 82.4405 37.8329C82.4405 36.0611 82.8494 34.4768 83.6671 33.0799C84.5018 31.6659 85.6262 30.5671 87.0402 29.7835C88.4541 28.9998 90.0044 28.608 91.6909 28.608C93.3945 28.608 94.9448 28.9998 96.3417 29.7835C97.7557 30.5671 98.8715 31.6659 99.6892 33.0799C100.507 34.4768 100.916 36.0611 100.916 37.8329C100.916 39.6046 100.507 41.1974 99.6892 42.6114C98.8715 44.0083 97.7557 45.1071 96.3417 45.9078C94.9277 46.6915 93.3775 47.0833 91.6909 47.0833ZM91.6909 42.4325C92.9686 42.4325 93.9737 42.0152 94.7063 41.1804C95.4558 40.3456 95.8306 39.2298 95.8306 37.8329C95.8306 36.4019 95.4558 35.2775 94.7063 34.4598C93.9737 33.625 92.9686 33.2077 91.6909 33.2077C90.3962 33.2077 89.3826 33.625 88.65 34.4598C87.9175 35.2775 87.5512 36.4019 87.5512 37.8329C87.5512 39.2468 87.9175 40.3712 88.65 41.206C89.3826 42.0237 90.3962 42.4325 91.6909 42.4325Z" fill="#BB5B28"/>
<path d="M183.169 31.9421C183.169 23.4705 179.803 15.3459 173.813 9.35562C167.823 3.36532 159.698 6.39585e-07 151.227 0C142.755 -6.39585e-07 134.631 3.36531 128.64 9.35562C122.65 15.3459 119.285 23.4705 119.285 31.9421L183.169 31.9421Z" fill="#BB5B28"/>
</g>
</g>
</g>
</g>
<rect x="-630.5" y="-283.5" width="1439" height="36939" stroke="black"/>
</g>
<defs>
<clipPath id="clip0_219_334">
<rect x="-631" y="-284" width="1440" height="36940" fill="white"/>
</clipPath>
</defs>
</svg>
