<svg width="868" height="606" viewBox="0 0 868 606" fill="none" xmlns="http://www.w3.org/2000/svg">
<path d="M315.003 459.65L273.323 399.502C241.737 464.332 204.119 483.851 210.205 483.899C216.292 483.948 258.474 499.465 315.003 459.65Z" fill="#EAE6DD"/>
<path d="M639.638 548.996L644.295 541.33C791.264 630.749 932.468 398.861 824.866 303.18L810.407 291.073C835.105 272.462 868.473 228.612 835.878 136.254C800.993 37.406 621.108 -32.5796 543.368 52.6779C478.451 -36.4437 267.935 -5.92172 225.96 111.978C192.916 204.794 224.372 250.142 245.996 268.903C184.293 315.971 187.343 413.43 273.241 451.154C265.077 564.283 559.783 675.781 639.638 548.996Z" fill="#EAE6DD"/>
<path d="M393.152 137.065C392.048 137.065 391.056 136.873 390.176 136.489C389.312 136.089 388.632 135.545 388.136 134.857C387.64 134.153 387.384 133.345 387.368 132.433H389.696C389.776 133.217 390.096 133.881 390.656 134.425C391.232 134.953 392.064 135.217 393.152 135.217C394.192 135.217 395.008 134.961 395.6 134.449C396.208 133.921 396.512 133.249 396.512 132.433C396.512 131.793 396.336 131.273 395.984 130.873C395.632 130.473 395.192 130.169 394.664 129.961C394.136 129.753 393.424 129.529 392.528 129.289C391.424 129.001 390.536 128.713 389.864 128.425C389.208 128.137 388.64 127.689 388.16 127.081C387.696 126.457 387.464 125.625 387.464 124.585C387.464 123.673 387.696 122.865 388.16 122.161C388.624 121.457 389.272 120.913 390.104 120.529C390.952 120.145 391.92 119.953 393.008 119.953C394.576 119.953 395.856 120.345 396.848 121.129C397.856 121.913 398.424 122.953 398.552 124.249H396.152C396.072 123.609 395.736 123.049 395.144 122.569C394.552 122.073 393.768 121.825 392.792 121.825C391.88 121.825 391.136 122.065 390.56 122.545C389.984 123.009 389.696 123.665 389.696 124.513C389.696 125.121 389.864 125.617 390.2 126.001C390.552 126.385 390.976 126.681 391.472 126.889C391.984 127.081 392.696 127.305 393.608 127.561C394.712 127.865 395.6 128.169 396.272 128.473C396.944 128.761 397.52 129.217 398 129.841C398.48 130.449 398.72 131.281 398.72 132.337C398.72 133.153 398.504 133.921 398.072 134.641C397.64 135.361 397 135.945 396.152 136.393C395.304 136.841 394.304 137.065 393.152 137.065ZM409.278 136.897L404.118 131.089V136.897H401.934V119.137H404.118V129.577L409.182 123.745H412.23L406.038 130.297L412.254 136.897H409.278ZM415.414 121.609C414.998 121.609 414.646 121.465 414.358 121.177C414.07 120.889 413.926 120.537 413.926 120.121C413.926 119.705 414.07 119.353 414.358 119.065C414.646 118.777 414.998 118.633 415.414 118.633C415.814 118.633 416.15 118.777 416.422 119.065C416.71 119.353 416.854 119.705 416.854 120.121C416.854 120.537 416.71 120.889 416.422 121.177C416.15 121.465 415.814 121.609 415.414 121.609ZM416.47 123.745V136.897H414.286V123.745H416.47ZM426.6 123.505C428.2 123.505 429.496 123.993 430.488 124.969C431.48 125.929 431.976 127.321 431.976 129.145V136.897H429.816V129.457C429.816 128.145 429.488 127.145 428.832 126.457C428.176 125.753 427.28 125.401 426.144 125.401C424.992 125.401 424.072 125.761 423.384 126.481C422.712 127.201 422.376 128.249 422.376 129.625V136.897H420.192V123.745H422.376V125.617C422.808 124.945 423.392 124.425 424.128 124.057C424.88 123.689 425.704 123.505 426.6 123.505ZM444.606 125.545V133.297C444.606 133.937 444.742 134.393 445.014 134.665C445.286 134.921 445.758 135.049 446.43 135.049H448.038V136.897H446.07C444.854 136.897 443.942 136.617 443.334 136.057C442.726 135.497 442.422 134.577 442.422 133.297V125.545H440.718V123.745H442.422V120.433H444.606V123.745H448.038V125.545H444.606ZM462.012 123.745L454.092 143.089H451.836L454.428 136.753L449.124 123.745H451.548L455.676 134.401L459.756 123.745H462.012ZM466.391 126.169C466.823 125.417 467.463 124.793 468.311 124.297C469.175 123.785 470.175 123.529 471.311 123.529C472.479 123.529 473.535 123.809 474.479 124.369C475.439 124.929 476.191 125.721 476.735 126.745C477.279 127.753 477.551 128.929 477.551 130.273C477.551 131.601 477.279 132.785 476.735 133.825C476.191 134.865 475.439 135.673 474.479 136.249C473.535 136.825 472.479 137.113 471.311 137.113C470.191 137.113 469.199 136.865 468.335 136.369C467.487 135.857 466.839 135.225 466.391 134.473V143.137H464.207V123.745H466.391V126.169ZM475.319 130.273C475.319 129.281 475.119 128.417 474.719 127.681C474.319 126.945 473.775 126.385 473.087 126.001C472.415 125.617 471.671 125.425 470.855 125.425C470.055 125.425 469.311 125.625 468.623 126.025C467.951 126.409 467.407 126.977 466.991 127.729C466.591 128.465 466.391 129.321 466.391 130.297C466.391 131.289 466.591 132.161 466.991 132.913C467.407 133.649 467.951 134.217 468.623 134.617C469.311 135.001 470.055 135.193 470.855 135.193C471.671 135.193 472.415 135.001 473.087 134.617C473.775 134.217 474.319 133.649 474.719 132.913C475.119 132.161 475.319 131.281 475.319 130.273ZM492.426 129.817C492.426 130.233 492.402 130.673 492.354 131.137H481.842C481.922 132.433 482.362 133.449 483.162 134.185C483.978 134.905 484.962 135.265 486.114 135.265C487.058 135.265 487.842 135.049 488.466 134.617C489.106 134.169 489.554 133.577 489.81 132.841H492.162C491.81 134.105 491.106 135.137 490.05 135.937C488.994 136.721 487.682 137.113 486.114 137.113C484.866 137.113 483.746 136.833 482.754 136.273C481.778 135.713 481.01 134.921 480.45 133.897C479.89 132.857 479.61 131.657 479.61 130.297C479.61 128.937 479.882 127.745 480.426 126.721C480.97 125.697 481.73 124.913 482.706 124.369C483.698 123.809 484.834 123.529 486.114 123.529C487.362 123.529 488.466 123.801 489.426 124.345C490.386 124.889 491.122 125.641 491.634 126.601C492.162 127.545 492.426 128.617 492.426 129.817ZM490.17 129.361C490.17 128.529 489.986 127.817 489.618 127.225C489.25 126.617 488.746 126.161 488.106 125.857C487.482 125.537 486.786 125.377 486.018 125.377C484.914 125.377 483.97 125.729 483.186 126.433C482.418 127.137 481.978 128.113 481.866 129.361H490.17ZM500.891 130.297C500.891 128.937 501.163 127.753 501.707 126.745C502.251 125.721 503.003 124.929 503.963 124.369C504.939 123.809 506.051 123.529 507.299 123.529C508.915 123.529 510.243 123.921 511.283 124.705C512.339 125.489 513.035 126.577 513.371 127.969H511.019C510.795 127.169 510.355 126.537 509.699 126.073C509.059 125.609 508.259 125.377 507.299 125.377C506.051 125.377 505.043 125.809 504.275 126.673C503.507 127.521 503.123 128.729 503.123 130.297C503.123 131.881 503.507 133.105 504.275 133.969C505.043 134.833 506.051 135.265 507.299 135.265C508.259 135.265 509.059 135.041 509.699 134.593C510.339 134.145 510.779 133.505 511.019 132.673H513.371C513.019 134.017 512.315 135.097 511.259 135.913C510.203 136.713 508.883 137.113 507.299 137.113C506.051 137.113 504.939 136.833 503.963 136.273C503.003 135.713 502.251 134.921 501.707 133.897C501.163 132.873 500.891 131.673 500.891 130.297ZM522.814 123.505C523.806 123.505 524.702 123.721 525.502 124.153C526.302 124.569 526.926 125.201 527.374 126.049C527.838 126.897 528.07 127.929 528.07 129.145V136.897H525.91V129.457C525.91 128.145 525.582 127.145 524.926 126.457C524.27 125.753 523.374 125.401 522.238 125.401C521.086 125.401 520.166 125.761 519.478 126.481C518.806 127.201 518.47 128.249 518.47 129.625V136.897H516.286V119.137H518.47V125.617C518.902 124.945 519.494 124.425 520.246 124.057C521.014 123.689 521.87 123.505 522.814 123.505ZM543.637 129.817C543.637 130.233 543.613 130.673 543.565 131.137H533.053C533.133 132.433 533.573 133.449 534.373 134.185C535.189 134.905 536.173 135.265 537.325 135.265C538.269 135.265 539.053 135.049 539.677 134.617C540.317 134.169 540.765 133.577 541.021 132.841H543.373C543.021 134.105 542.317 135.137 541.261 135.937C540.205 136.721 538.893 137.113 537.325 137.113C536.077 137.113 534.957 136.833 533.965 136.273C532.989 135.713 532.221 134.921 531.661 133.897C531.101 132.857 530.821 131.657 530.821 130.297C530.821 128.937 531.093 127.745 531.637 126.721C532.181 125.697 532.941 124.913 533.917 124.369C534.909 123.809 536.045 123.529 537.325 123.529C538.573 123.529 539.677 123.801 540.637 124.345C541.597 124.889 542.333 125.641 542.845 126.601C543.373 127.545 543.637 128.617 543.637 129.817ZM541.381 129.361C541.381 128.529 541.197 127.817 540.829 127.225C540.461 126.617 539.957 126.161 539.317 125.857C538.693 125.537 537.997 125.377 537.229 125.377C536.125 125.377 535.181 125.729 534.397 126.433C533.629 127.137 533.189 128.113 533.077 129.361H541.381ZM545.704 130.297C545.704 128.937 545.976 127.753 546.52 126.745C547.064 125.721 547.816 124.929 548.776 124.369C549.752 123.809 550.864 123.529 552.112 123.529C553.728 123.529 555.056 123.921 556.096 124.705C557.152 125.489 557.848 126.577 558.184 127.969H555.832C555.608 127.169 555.168 126.537 554.512 126.073C553.872 125.609 553.072 125.377 552.112 125.377C550.864 125.377 549.856 125.809 549.088 126.673C548.32 127.521 547.936 128.729 547.936 130.297C547.936 131.881 548.32 133.105 549.088 133.969C549.856 134.833 550.864 135.265 552.112 135.265C553.072 135.265 553.872 135.041 554.512 134.593C555.152 134.145 555.592 133.505 555.832 132.673H558.184C557.832 134.017 557.128 135.097 556.072 135.913C555.016 136.713 553.696 137.113 552.112 137.113C550.864 137.113 549.752 136.833 548.776 136.273C547.816 135.713 547.064 134.921 546.52 133.897C545.976 132.873 545.704 131.673 545.704 130.297ZM568.442 136.897L563.282 131.089V136.897H561.098V119.137H563.282V129.577L568.346 123.745H571.394L565.202 130.297L571.418 136.897H568.442ZM585.45 129.817C585.45 130.233 585.426 130.673 585.378 131.137H574.866C574.946 132.433 575.386 133.449 576.186 134.185C577.002 134.905 577.986 135.265 579.138 135.265C580.082 135.265 580.866 135.049 581.49 134.617C582.13 134.169 582.578 133.577 582.834 132.841H585.186C584.834 134.105 584.13 135.137 583.074 135.937C582.018 136.721 580.706 137.113 579.138 137.113C577.89 137.113 576.77 136.833 575.778 136.273C574.802 135.713 574.034 134.921 573.474 133.897C572.914 132.857 572.634 131.657 572.634 130.297C572.634 128.937 572.906 127.745 573.45 126.721C573.994 125.697 574.754 124.913 575.73 124.369C576.722 123.809 577.858 123.529 579.138 123.529C580.386 123.529 581.49 123.801 582.45 124.345C583.41 124.889 584.146 125.641 584.658 126.601C585.186 127.545 585.45 128.617 585.45 129.817ZM583.194 129.361C583.194 128.529 583.01 127.817 582.642 127.225C582.274 126.617 581.77 126.161 581.13 125.857C580.506 125.537 579.81 125.377 579.042 125.377C577.938 125.377 576.994 125.729 576.21 126.433C575.442 127.137 575.002 128.113 574.89 129.361H583.194ZM590.516 125.881C590.9 125.129 591.444 124.545 592.148 124.129C592.868 123.713 593.74 123.505 594.764 123.505V125.761H594.188C591.74 125.761 590.516 127.089 590.516 129.745V136.897H588.332V123.745H590.516V125.881Z" fill="black"/>
<path d="M400.736 190.169V206.897H398.552V199.313H390.032V206.897H387.848V190.169H390.032V197.513H398.552V190.169H400.736ZM410.201 207.113C408.969 207.113 407.849 206.833 406.841 206.273C405.849 205.713 405.065 204.921 404.489 203.897C403.929 202.857 403.649 201.657 403.649 200.297C403.649 198.953 403.937 197.769 404.513 196.745C405.105 195.705 405.905 194.913 406.913 194.369C407.921 193.809 409.049 193.529 410.297 193.529C411.545 193.529 412.673 193.809 413.681 194.369C414.689 194.913 415.481 195.697 416.057 196.721C416.649 197.745 416.945 198.937 416.945 200.297C416.945 201.657 416.641 202.857 416.033 203.897C415.441 204.921 414.633 205.713 413.609 206.273C412.585 206.833 411.449 207.113 410.201 207.113ZM410.201 205.193C410.985 205.193 411.721 205.009 412.409 204.641C413.097 204.273 413.649 203.721 414.065 202.985C414.497 202.249 414.713 201.353 414.713 200.297C414.713 199.241 414.505 198.345 414.089 197.609C413.673 196.873 413.129 196.329 412.457 195.977C411.785 195.609 411.057 195.425 410.273 195.425C409.473 195.425 408.737 195.609 408.065 195.977C407.409 196.329 406.881 196.873 406.481 197.609C406.081 198.345 405.881 199.241 405.881 200.297C405.881 201.369 406.073 202.273 406.457 203.009C406.857 203.745 407.385 204.297 408.041 204.665C408.697 205.017 409.417 205.193 410.201 205.193ZM437.337 193.745L433.233 206.897H430.977L427.809 196.457L424.641 206.897H422.385L418.257 193.745H420.489L423.513 204.785L426.777 193.745H429.009L432.201 204.809L435.177 193.745H437.337ZM448.567 195.545V203.297C448.567 203.937 448.703 204.393 448.975 204.665C449.247 204.921 449.719 205.049 450.391 205.049H451.999V206.897H450.031C448.815 206.897 447.903 206.617 447.295 206.057C446.687 205.497 446.383 204.577 446.383 203.297V195.545H444.679V193.745H446.383V190.433H448.567V193.745H451.999V195.545H448.567ZM460.381 207.113C459.149 207.113 458.029 206.833 457.021 206.273C456.029 205.713 455.245 204.921 454.669 203.897C454.109 202.857 453.829 201.657 453.829 200.297C453.829 198.953 454.117 197.769 454.693 196.745C455.285 195.705 456.085 194.913 457.093 194.369C458.101 193.809 459.229 193.529 460.477 193.529C461.725 193.529 462.853 193.809 463.861 194.369C464.869 194.913 465.661 195.697 466.237 196.721C466.829 197.745 467.125 198.937 467.125 200.297C467.125 201.657 466.821 202.857 466.213 203.897C465.621 204.921 464.813 205.713 463.789 206.273C462.765 206.833 461.629 207.113 460.381 207.113ZM460.381 205.193C461.165 205.193 461.901 205.009 462.589 204.641C463.277 204.273 463.829 203.721 464.245 202.985C464.677 202.249 464.893 201.353 464.893 200.297C464.893 199.241 464.685 198.345 464.269 197.609C463.853 196.873 463.309 196.329 462.637 195.977C461.965 195.609 461.237 195.425 460.453 195.425C459.653 195.425 458.917 195.609 458.245 195.977C457.589 196.329 457.061 196.873 456.661 197.609C456.261 198.345 456.061 199.241 456.061 200.297C456.061 201.369 456.253 202.273 456.637 203.009C457.037 203.745 457.565 204.297 458.221 204.665C458.877 205.017 459.597 205.193 460.381 205.193ZM488.059 193.745V206.897H485.875V204.953C485.459 205.625 484.875 206.153 484.123 206.537C483.387 206.905 482.571 207.089 481.675 207.089C480.651 207.089 479.731 206.881 478.915 206.465C478.099 206.033 477.451 205.393 476.971 204.545C476.507 203.697 476.275 202.665 476.275 201.449V193.745H478.435V201.161C478.435 202.457 478.763 203.457 479.419 204.161C480.075 204.849 480.971 205.193 482.107 205.193C483.275 205.193 484.195 204.833 484.867 204.113C485.539 203.393 485.875 202.345 485.875 200.969V193.745H488.059ZM496.402 207.113C495.394 207.113 494.49 206.945 493.69 206.609C492.89 206.257 492.258 205.777 491.794 205.169C491.33 204.545 491.074 203.833 491.026 203.033H493.282C493.346 203.689 493.65 204.225 494.194 204.641C494.754 205.057 495.482 205.265 496.378 205.265C497.21 205.265 497.866 205.081 498.346 204.713C498.826 204.345 499.066 203.881 499.066 203.321C499.066 202.745 498.81 202.321 498.298 202.049C497.786 201.761 496.994 201.481 495.922 201.209C494.946 200.953 494.146 200.697 493.522 200.441C492.914 200.169 492.386 199.777 491.938 199.265C491.506 198.737 491.29 198.049 491.29 197.201C491.29 196.529 491.49 195.913 491.89 195.353C492.29 194.793 492.858 194.353 493.594 194.033C494.33 193.697 495.17 193.529 496.114 193.529C497.57 193.529 498.746 193.897 499.642 194.633C500.538 195.369 501.018 196.377 501.082 197.657H498.898C498.85 196.969 498.57 196.417 498.058 196.001C497.562 195.585 496.89 195.377 496.042 195.377C495.258 195.377 494.634 195.545 494.17 195.881C493.706 196.217 493.474 196.657 493.474 197.201C493.474 197.633 493.61 197.993 493.882 198.281C494.17 198.553 494.522 198.777 494.938 198.953C495.37 199.113 495.962 199.297 496.714 199.505C497.658 199.761 498.426 200.017 499.018 200.273C499.61 200.513 500.114 200.881 500.53 201.377C500.962 201.873 501.186 202.521 501.202 203.321C501.202 204.041 501.002 204.689 500.602 205.265C500.202 205.841 499.634 206.297 498.898 206.633C498.178 206.953 497.346 207.113 496.402 207.113ZM516.286 199.817C516.286 200.233 516.262 200.673 516.214 201.137H505.702C505.782 202.433 506.222 203.449 507.022 204.185C507.838 204.905 508.822 205.265 509.974 205.265C510.918 205.265 511.702 205.049 512.326 204.617C512.966 204.169 513.414 203.577 513.67 202.841H516.022C515.67 204.105 514.966 205.137 513.91 205.937C512.854 206.721 511.542 207.113 509.974 207.113C508.726 207.113 507.606 206.833 506.614 206.273C505.638 205.713 504.87 204.921 504.31 203.897C503.75 202.857 503.47 201.657 503.47 200.297C503.47 198.937 503.742 197.745 504.286 196.721C504.83 195.697 505.59 194.913 506.566 194.369C507.558 193.809 508.694 193.529 509.974 193.529C511.222 193.529 512.326 193.801 513.286 194.345C514.246 194.889 514.982 195.641 515.494 196.601C516.022 197.545 516.286 198.617 516.286 199.817ZM514.03 199.361C514.03 198.529 513.846 197.817 513.478 197.225C513.11 196.617 512.606 196.161 511.966 195.857C511.342 195.537 510.646 195.377 509.878 195.377C508.774 195.377 507.83 195.729 507.046 196.433C506.278 197.137 505.838 198.113 505.726 199.361H514.03ZM528.231 195.545V203.297C528.231 203.937 528.367 204.393 528.639 204.665C528.911 204.921 529.383 205.049 530.055 205.049H531.663V206.897H529.695C528.479 206.897 527.567 206.617 526.959 206.057C526.351 205.497 526.047 204.577 526.047 203.297V195.545H524.343V193.745H526.047V190.433H528.231V193.745H531.663V195.545H528.231ZM540.837 193.505C541.829 193.505 542.725 193.721 543.525 194.153C544.325 194.569 544.949 195.201 545.397 196.049C545.861 196.897 546.093 197.929 546.093 199.145V206.897H543.933V199.457C543.933 198.145 543.605 197.145 542.949 196.457C542.293 195.753 541.397 195.401 540.261 195.401C539.109 195.401 538.189 195.761 537.501 196.481C536.829 197.201 536.493 198.249 536.493 199.625V206.897H534.309V189.137H536.493V195.617C536.925 194.945 537.517 194.425 538.269 194.057C539.037 193.689 539.893 193.505 540.837 193.505ZM561.661 199.817C561.661 200.233 561.637 200.673 561.589 201.137H551.077C551.157 202.433 551.597 203.449 552.397 204.185C553.213 204.905 554.197 205.265 555.349 205.265C556.293 205.265 557.077 205.049 557.701 204.617C558.341 204.169 558.789 203.577 559.045 202.841H561.397C561.045 204.105 560.341 205.137 559.285 205.937C558.229 206.721 556.917 207.113 555.349 207.113C554.101 207.113 552.981 206.833 551.989 206.273C551.013 205.713 550.245 204.921 549.685 203.897C549.125 202.857 548.845 201.657 548.845 200.297C548.845 198.937 549.117 197.745 549.661 196.721C550.205 195.697 550.965 194.913 551.941 194.369C552.933 193.809 554.069 193.529 555.349 193.529C556.597 193.529 557.701 193.801 558.661 194.345C559.621 194.889 560.357 195.641 560.869 196.601C561.397 197.545 561.661 198.617 561.661 199.817ZM559.405 199.361C559.405 198.529 559.221 197.817 558.853 197.225C558.485 196.617 557.981 196.161 557.341 195.857C556.717 195.537 556.021 195.377 555.253 195.377C554.149 195.377 553.205 195.729 552.421 196.433C551.653 197.137 551.213 198.113 551.101 199.361H559.405ZM573.126 196.169C573.558 195.417 574.198 194.793 575.046 194.297C575.91 193.785 576.91 193.529 578.046 193.529C579.214 193.529 580.27 193.809 581.214 194.369C582.174 194.929 582.926 195.721 583.47 196.745C584.014 197.753 584.286 198.929 584.286 200.273C584.286 201.601 584.014 202.785 583.47 203.825C582.926 204.865 582.174 205.673 581.214 206.249C580.27 206.825 579.214 207.113 578.046 207.113C576.926 207.113 575.934 206.865 575.07 206.369C574.222 205.857 573.574 205.225 573.126 204.473V213.137H570.942V193.745H573.126V196.169ZM582.054 200.273C582.054 199.281 581.854 198.417 581.454 197.681C581.054 196.945 580.51 196.385 579.822 196.001C579.15 195.617 578.406 195.425 577.59 195.425C576.79 195.425 576.046 195.625 575.358 196.025C574.686 196.409 574.142 196.977 573.726 197.729C573.326 198.465 573.126 199.321 573.126 200.297C573.126 201.289 573.326 202.161 573.726 202.913C574.142 203.649 574.686 204.217 575.358 204.617C576.046 205.001 576.79 205.193 577.59 205.193C578.406 205.193 579.15 205.001 579.822 204.617C580.51 204.217 581.054 203.649 581.454 202.913C581.854 202.161 582.054 201.281 582.054 200.273ZM589.345 195.881C589.729 195.129 590.273 194.545 590.977 194.129C591.697 193.713 592.569 193.505 593.593 193.505V195.761H593.017C590.569 195.761 589.345 197.089 589.345 199.745V206.897H587.161V193.745H589.345V195.881ZM601.85 207.113C600.618 207.113 599.498 206.833 598.49 206.273C597.498 205.713 596.714 204.921 596.138 203.897C595.578 202.857 595.298 201.657 595.298 200.297C595.298 198.953 595.586 197.769 596.162 196.745C596.754 195.705 597.554 194.913 598.562 194.369C599.57 193.809 600.698 193.529 601.946 193.529C603.194 193.529 604.322 193.809 605.33 194.369C606.338 194.913 607.13 195.697 607.706 196.721C608.298 197.745 608.594 198.937 608.594 200.297C608.594 201.657 608.29 202.857 607.682 203.897C607.09 204.921 606.282 205.713 605.258 206.273C604.234 206.833 603.098 207.113 601.85 207.113ZM601.85 205.193C602.634 205.193 603.37 205.009 604.058 204.641C604.746 204.273 605.298 203.721 605.714 202.985C606.146 202.249 606.362 201.353 606.362 200.297C606.362 199.241 606.154 198.345 605.738 197.609C605.322 196.873 604.778 196.329 604.106 195.977C603.434 195.609 602.706 195.425 601.922 195.425C601.122 195.425 600.386 195.609 599.714 195.977C599.058 196.329 598.53 196.873 598.13 197.609C597.73 198.345 597.53 199.241 597.53 200.297C597.53 201.369 597.722 202.273 598.106 203.009C598.506 203.745 599.034 204.297 599.69 204.665C600.346 205.017 601.066 205.193 601.85 205.193ZM610.649 200.273C610.649 198.929 610.921 197.753 611.465 196.745C612.009 195.721 612.753 194.929 613.697 194.369C614.657 193.809 615.729 193.529 616.913 193.529C617.937 193.529 618.889 193.769 619.769 194.249C620.649 194.713 621.321 195.329 621.785 196.097V189.137H623.993V206.897H621.785V204.425C621.353 205.209 620.713 205.857 619.865 206.369C619.017 206.865 618.025 207.113 616.889 207.113C615.721 207.113 614.657 206.825 613.697 206.249C612.753 205.673 612.009 204.865 611.465 203.825C610.921 202.785 610.649 201.601 610.649 200.273ZM621.785 200.297C621.785 199.305 621.585 198.441 621.185 197.705C620.785 196.969 620.241 196.409 619.553 196.025C618.881 195.625 618.137 195.425 617.321 195.425C616.505 195.425 615.761 195.617 615.089 196.001C614.417 196.385 613.881 196.945 613.481 197.681C613.081 198.417 612.881 199.281 612.881 200.273C612.881 201.281 613.081 202.161 613.481 202.913C613.881 203.649 614.417 204.217 615.089 204.617C615.761 205.001 616.505 205.193 617.321 205.193C618.137 205.193 618.881 205.001 619.553 204.617C620.241 204.217 620.785 203.649 621.185 202.913C621.585 202.161 621.785 201.289 621.785 200.297ZM639.348 193.745V206.897H637.164V204.953C636.748 205.625 636.164 206.153 635.412 206.537C634.676 206.905 633.86 207.089 632.964 207.089C631.94 207.089 631.02 206.881 630.204 206.465C629.388 206.033 628.74 205.393 628.26 204.545C627.796 203.697 627.564 202.665 627.564 201.449V193.745H629.724V201.161C629.724 202.457 630.052 203.457 630.708 204.161C631.364 204.849 632.26 205.193 633.396 205.193C634.564 205.193 635.484 204.833 636.156 204.113C636.828 203.393 637.164 202.345 637.164 200.969V193.745H639.348ZM642.22 200.297C642.22 198.937 642.492 197.753 643.036 196.745C643.58 195.721 644.332 194.929 645.292 194.369C646.268 193.809 647.38 193.529 648.628 193.529C650.244 193.529 651.572 193.921 652.612 194.705C653.668 195.489 654.364 196.577 654.7 197.969H652.348C652.124 197.169 651.684 196.537 651.028 196.073C650.388 195.609 649.588 195.377 648.628 195.377C647.38 195.377 646.372 195.809 645.604 196.673C644.836 197.521 644.452 198.729 644.452 200.297C644.452 201.881 644.836 203.105 645.604 203.969C646.372 204.833 647.38 205.265 648.628 205.265C649.588 205.265 650.388 205.041 651.028 204.593C651.668 204.145 652.108 203.505 652.348 202.673H654.7C654.348 204.017 653.644 205.097 652.588 205.913C651.532 206.713 650.212 207.113 648.628 207.113C647.38 207.113 646.268 206.833 645.292 206.273C644.332 205.713 643.58 204.921 643.036 203.897C642.492 202.873 642.22 201.673 642.22 200.297ZM660.278 195.545V203.297C660.278 203.937 660.414 204.393 660.686 204.665C660.958 204.921 661.43 205.049 662.102 205.049H663.71V206.897H661.742C660.526 206.897 659.614 206.617 659.006 206.057C658.398 205.497 658.094 204.577 658.094 203.297V195.545H656.39V193.745H658.094V190.433H660.278V193.745H663.71V195.545H660.278Z" fill="black"/>
<path d="M393.152 277.065C392.048 277.065 391.056 276.873 390.176 276.489C389.312 276.089 388.632 275.545 388.136 274.857C387.64 274.153 387.384 273.345 387.368 272.433H389.696C389.776 273.217 390.096 273.881 390.656 274.425C391.232 274.953 392.064 275.217 393.152 275.217C394.192 275.217 395.008 274.961 395.6 274.449C396.208 273.921 396.512 273.249 396.512 272.433C396.512 271.793 396.336 271.273 395.984 270.873C395.632 270.473 395.192 270.169 394.664 269.961C394.136 269.753 393.424 269.529 392.528 269.289C391.424 269.001 390.536 268.713 389.864 268.425C389.208 268.137 388.64 267.689 388.16 267.081C387.696 266.457 387.464 265.625 387.464 264.585C387.464 263.673 387.696 262.865 388.16 262.161C388.624 261.457 389.272 260.913 390.104 260.529C390.952 260.145 391.92 259.953 393.008 259.953C394.576 259.953 395.856 260.345 396.848 261.129C397.856 261.913 398.424 262.953 398.552 264.249H396.152C396.072 263.609 395.736 263.049 395.144 262.569C394.552 262.073 393.768 261.825 392.792 261.825C391.88 261.825 391.136 262.065 390.56 262.545C389.984 263.009 389.696 263.665 389.696 264.513C389.696 265.121 389.864 265.617 390.2 266.001C390.552 266.385 390.976 266.681 391.472 266.889C391.984 267.081 392.696 267.305 393.608 267.561C394.712 267.865 395.6 268.169 396.272 268.473C396.944 268.761 397.52 269.217 398 269.841C398.48 270.449 398.72 271.281 398.72 272.337C398.72 273.153 398.504 273.921 398.072 274.641C397.64 275.361 397 275.945 396.152 276.393C395.304 276.841 394.304 277.065 393.152 277.065ZM403.062 261.609C402.646 261.609 402.294 261.465 402.006 261.177C401.718 260.889 401.574 260.537 401.574 260.121C401.574 259.705 401.718 259.353 402.006 259.065C402.294 258.777 402.646 258.633 403.062 258.633C403.462 258.633 403.798 258.777 404.07 259.065C404.358 259.353 404.502 259.705 404.502 260.121C404.502 260.537 404.358 260.889 404.07 261.177C403.798 261.465 403.462 261.609 403.062 261.609ZM404.118 263.745V276.897H401.934V263.745H404.118ZM407.024 270.273C407.024 268.929 407.296 267.753 407.84 266.745C408.384 265.721 409.128 264.929 410.072 264.369C411.032 263.809 412.104 263.529 413.288 263.529C414.312 263.529 415.264 263.769 416.144 264.249C417.024 264.713 417.696 265.329 418.16 266.097V259.137H420.368V276.897H418.16V274.425C417.728 275.209 417.088 275.857 416.24 276.369C415.392 276.865 414.4 277.113 413.264 277.113C412.096 277.113 411.032 276.825 410.072 276.249C409.128 275.673 408.384 274.865 407.84 273.825C407.296 272.785 407.024 271.601 407.024 270.273ZM418.16 270.297C418.16 269.305 417.96 268.441 417.56 267.705C417.16 266.969 416.616 266.409 415.928 266.025C415.256 265.625 414.512 265.425 413.696 265.425C412.88 265.425 412.136 265.617 411.464 266.001C410.792 266.385 410.256 266.945 409.856 267.681C409.456 268.417 409.256 269.281 409.256 270.273C409.256 271.281 409.456 272.161 409.856 272.913C410.256 273.649 410.792 274.217 411.464 274.617C412.136 275.001 412.88 275.193 413.696 275.193C414.512 275.193 415.256 275.001 415.928 274.617C416.616 274.217 417.16 273.649 417.56 272.913C417.96 272.161 418.16 271.289 418.16 270.297ZM436.059 269.817C436.059 270.233 436.035 270.673 435.987 271.137H425.475C425.555 272.433 425.995 273.449 426.795 274.185C427.611 274.905 428.595 275.265 429.747 275.265C430.691 275.265 431.475 275.049 432.099 274.617C432.739 274.169 433.187 273.577 433.443 272.841H435.795C435.443 274.105 434.739 275.137 433.683 275.937C432.627 276.721 431.315 277.113 429.747 277.113C428.499 277.113 427.379 276.833 426.387 276.273C425.411 275.713 424.643 274.921 424.083 273.897C423.523 272.857 423.243 271.657 423.243 270.297C423.243 268.937 423.515 267.745 424.059 266.721C424.603 265.697 425.363 264.913 426.339 264.369C427.331 263.809 428.467 263.529 429.747 263.529C430.995 263.529 432.099 263.801 433.059 264.345C434.019 264.889 434.755 265.641 435.267 266.601C435.795 267.545 436.059 268.617 436.059 269.817ZM433.803 269.361C433.803 268.529 433.619 267.817 433.251 267.225C432.883 266.617 432.379 266.161 431.739 265.857C431.115 265.537 430.419 265.377 429.651 265.377C428.547 265.377 427.603 265.729 426.819 266.433C426.051 267.137 425.611 268.113 425.499 269.361H433.803ZM447.524 266.193C447.972 265.409 448.628 264.769 449.492 264.273C450.356 263.777 451.34 263.529 452.444 263.529C453.628 263.529 454.692 263.809 455.636 264.369C456.58 264.929 457.324 265.721 457.868 266.745C458.412 267.753 458.684 268.929 458.684 270.273C458.684 271.601 458.412 272.785 457.868 273.825C457.324 274.865 456.572 275.673 455.612 276.249C454.668 276.825 453.612 277.113 452.444 277.113C451.308 277.113 450.308 276.865 449.444 276.369C448.596 275.873 447.956 275.241 447.524 274.473V276.897H445.34V259.137H447.524V266.193ZM456.452 270.273C456.452 269.281 456.252 268.417 455.852 267.681C455.452 266.945 454.908 266.385 454.22 266.001C453.548 265.617 452.804 265.425 451.988 265.425C451.188 265.425 450.444 265.625 449.756 266.025C449.084 266.409 448.54 266.977 448.124 267.729C447.724 268.465 447.524 269.321 447.524 270.297C447.524 271.289 447.724 272.161 448.124 272.913C448.54 273.649 449.084 274.217 449.756 274.617C450.444 275.001 451.188 275.193 451.988 275.193C452.804 275.193 453.548 275.001 454.22 274.617C454.908 274.217 455.452 273.649 455.852 272.913C456.252 272.161 456.452 271.281 456.452 270.273ZM472.887 263.745L464.967 283.089H462.711L465.303 276.753L459.999 263.745H462.423L466.551 274.401L470.631 263.745H472.887ZM486.137 277.113C485.129 277.113 484.225 276.945 483.425 276.609C482.625 276.257 481.993 275.777 481.529 275.169C481.065 274.545 480.809 273.833 480.761 273.033H483.017C483.081 273.689 483.385 274.225 483.929 274.641C484.489 275.057 485.217 275.265 486.113 275.265C486.945 275.265 487.601 275.081 488.081 274.713C488.561 274.345 488.801 273.881 488.801 273.321C488.801 272.745 488.545 272.321 488.033 272.049C487.521 271.761 486.729 271.481 485.657 271.209C484.681 270.953 483.881 270.697 483.257 270.441C482.649 270.169 482.121 269.777 481.673 269.265C481.241 268.737 481.025 268.049 481.025 267.201C481.025 266.529 481.225 265.913 481.625 265.353C482.025 264.793 482.593 264.353 483.329 264.033C484.065 263.697 484.905 263.529 485.849 263.529C487.305 263.529 488.481 263.897 489.377 264.633C490.273 265.369 490.753 266.377 490.817 267.657H488.633C488.585 266.969 488.305 266.417 487.793 266.001C487.297 265.585 486.625 265.377 485.777 265.377C484.993 265.377 484.369 265.545 483.905 265.881C483.441 266.217 483.209 266.657 483.209 267.201C483.209 267.633 483.345 267.993 483.617 268.281C483.905 268.553 484.257 268.777 484.673 268.953C485.105 269.113 485.697 269.297 486.449 269.505C487.393 269.761 488.161 270.017 488.753 270.273C489.345 270.513 489.849 270.881 490.265 271.377C490.697 271.873 490.921 272.521 490.937 273.321C490.937 274.041 490.737 274.689 490.337 275.265C489.937 275.841 489.369 276.297 488.633 276.633C487.913 276.953 487.081 277.113 486.137 277.113ZM495.148 261.609C494.732 261.609 494.38 261.465 494.092 261.177C493.804 260.889 493.66 260.537 493.66 260.121C493.66 259.705 493.804 259.353 494.092 259.065C494.38 258.777 494.732 258.633 495.148 258.633C495.548 258.633 495.884 258.777 496.156 259.065C496.444 259.353 496.588 259.705 496.588 260.121C496.588 260.537 496.444 260.889 496.156 261.177C495.884 261.465 495.548 261.609 495.148 261.609ZM496.204 263.745V276.897H494.02V263.745H496.204ZM499.11 270.273C499.11 268.929 499.382 267.753 499.926 266.745C500.47 265.721 501.214 264.929 502.158 264.369C503.118 263.809 504.19 263.529 505.374 263.529C506.398 263.529 507.35 263.769 508.23 264.249C509.11 264.713 509.782 265.329 510.246 266.097V259.137H512.454V276.897H510.246V274.425C509.814 275.209 509.174 275.857 508.326 276.369C507.478 276.865 506.486 277.113 505.35 277.113C504.182 277.113 503.118 276.825 502.158 276.249C501.214 275.673 500.47 274.865 499.926 273.825C499.382 272.785 499.11 271.601 499.11 270.273ZM510.246 270.297C510.246 269.305 510.046 268.441 509.646 267.705C509.246 266.969 508.702 266.409 508.014 266.025C507.342 265.625 506.598 265.425 505.782 265.425C504.966 265.425 504.222 265.617 503.55 266.001C502.878 266.385 502.342 266.945 501.942 267.681C501.542 268.417 501.342 269.281 501.342 270.273C501.342 271.281 501.542 272.161 501.942 272.913C502.342 273.649 502.878 274.217 503.55 274.617C504.222 275.001 504.966 275.193 505.782 275.193C506.598 275.193 507.342 275.001 508.014 274.617C508.702 274.217 509.246 273.649 509.646 272.913C510.046 272.161 510.246 271.289 510.246 270.297ZM528.145 269.817C528.145 270.233 528.121 270.673 528.073 271.137H517.561C517.641 272.433 518.081 273.449 518.881 274.185C519.697 274.905 520.681 275.265 521.833 275.265C522.777 275.265 523.561 275.049 524.185 274.617C524.825 274.169 525.273 273.577 525.529 272.841H527.881C527.529 274.105 526.825 275.137 525.769 275.937C524.713 276.721 523.401 277.113 521.833 277.113C520.585 277.113 519.465 276.833 518.473 276.273C517.497 275.713 516.729 274.921 516.169 273.897C515.609 272.857 515.329 271.657 515.329 270.297C515.329 268.937 515.601 267.745 516.145 266.721C516.689 265.697 517.449 264.913 518.425 264.369C519.417 263.809 520.553 263.529 521.833 263.529C523.081 263.529 524.185 263.801 525.145 264.345C526.105 264.889 526.841 265.641 527.353 266.601C527.881 267.545 528.145 268.617 528.145 269.817ZM525.889 269.361C525.889 268.529 525.705 267.817 525.337 267.225C524.969 266.617 524.465 266.161 523.825 265.857C523.201 265.537 522.505 265.377 521.737 265.377C520.633 265.377 519.689 265.729 518.905 266.433C518.137 267.137 517.697 268.113 517.585 269.361H525.889ZM536.61 270.297C536.61 268.937 536.882 267.753 537.426 266.745C537.97 265.721 538.722 264.929 539.682 264.369C540.658 263.809 541.77 263.529 543.018 263.529C544.634 263.529 545.962 263.921 547.002 264.705C548.058 265.489 548.754 266.577 549.09 267.969H546.738C546.514 267.169 546.074 266.537 545.418 266.073C544.778 265.609 543.978 265.377 543.018 265.377C541.77 265.377 540.762 265.809 539.994 266.673C539.226 267.521 538.842 268.729 538.842 270.297C538.842 271.881 539.226 273.105 539.994 273.969C540.762 274.833 541.77 275.265 543.018 275.265C543.978 275.265 544.778 275.041 545.418 274.593C546.058 274.145 546.498 273.505 546.738 272.673H549.09C548.738 274.017 548.034 275.097 546.978 275.913C545.922 276.713 544.602 277.113 543.018 277.113C541.77 277.113 540.658 276.833 539.682 276.273C538.722 275.713 537.97 274.921 537.426 273.897C536.882 272.873 536.61 271.673 536.61 270.297ZM557.74 277.113C556.508 277.113 555.388 276.833 554.38 276.273C553.388 275.713 552.604 274.921 552.028 273.897C551.468 272.857 551.188 271.657 551.188 270.297C551.188 268.953 551.476 267.769 552.052 266.745C552.644 265.705 553.444 264.913 554.452 264.369C555.46 263.809 556.588 263.529 557.836 263.529C559.084 263.529 560.212 263.809 561.22 264.369C562.228 264.913 563.02 265.697 563.596 266.721C564.188 267.745 564.484 268.937 564.484 270.297C564.484 271.657 564.18 272.857 563.572 273.897C562.98 274.921 562.172 275.713 561.148 276.273C560.124 276.833 558.988 277.113 557.74 277.113ZM557.74 275.193C558.524 275.193 559.26 275.009 559.948 274.641C560.636 274.273 561.188 273.721 561.604 272.985C562.036 272.249 562.252 271.353 562.252 270.297C562.252 269.241 562.044 268.345 561.628 267.609C561.212 266.873 560.668 266.329 559.996 265.977C559.324 265.609 558.596 265.425 557.812 265.425C557.012 265.425 556.276 265.609 555.604 265.977C554.948 266.329 554.42 266.873 554.02 267.609C553.62 268.345 553.42 269.241 553.42 270.297C553.42 271.369 553.612 272.273 553.996 273.009C554.396 273.745 554.924 274.297 555.58 274.665C556.236 275.017 556.956 275.193 557.74 275.193ZM583.172 263.505C584.196 263.505 585.108 263.721 585.908 264.153C586.708 264.569 587.34 265.201 587.804 266.049C588.268 266.897 588.5 267.929 588.5 269.145V276.897H586.34V269.457C586.34 268.145 586.012 267.145 585.356 266.457C584.716 265.753 583.844 265.401 582.74 265.401C581.604 265.401 580.7 265.769 580.028 266.505C579.356 267.225 579.02 268.273 579.02 269.649V276.897H576.86V269.457C576.86 268.145 576.532 267.145 575.876 266.457C575.236 265.753 574.364 265.401 573.26 265.401C572.124 265.401 571.22 265.769 570.548 266.505C569.876 267.225 569.54 268.273 569.54 269.649V276.897H567.356V263.745H569.54V265.641C569.972 264.953 570.548 264.425 571.268 264.057C572.004 263.689 572.812 263.505 573.692 263.505C574.796 263.505 575.772 263.753 576.62 264.249C577.468 264.745 578.1 265.473 578.516 266.433C578.884 265.505 579.492 264.785 580.34 264.273C581.188 263.761 582.132 263.505 583.172 263.505ZM594.266 266.169C594.698 265.417 595.338 264.793 596.186 264.297C597.05 263.785 598.05 263.529 599.186 263.529C600.354 263.529 601.41 263.809 602.354 264.369C603.314 264.929 604.066 265.721 604.61 266.745C605.154 267.753 605.426 268.929 605.426 270.273C605.426 271.601 605.154 272.785 604.61 273.825C604.066 274.865 603.314 275.673 602.354 276.249C601.41 276.825 600.354 277.113 599.186 277.113C598.066 277.113 597.074 276.865 596.21 276.369C595.362 275.857 594.714 275.225 594.266 274.473V283.137H592.082V263.745H594.266V266.169ZM603.194 270.273C603.194 269.281 602.994 268.417 602.594 267.681C602.194 266.945 601.65 266.385 600.962 266.001C600.29 265.617 599.546 265.425 598.73 265.425C597.93 265.425 597.186 265.625 596.498 266.025C595.826 266.409 595.282 266.977 594.866 267.729C594.466 268.465 594.266 269.321 594.266 270.297C594.266 271.289 594.466 272.161 594.866 272.913C595.282 273.649 595.826 274.217 596.498 274.617C597.186 275.001 597.93 275.193 598.73 275.193C599.546 275.193 600.29 275.001 600.962 274.617C601.65 274.217 602.194 273.649 602.594 272.913C602.994 272.161 603.194 271.281 603.194 270.273ZM607.485 270.273C607.485 268.929 607.757 267.753 608.301 266.745C608.845 265.721 609.589 264.929 610.533 264.369C611.493 263.809 612.557 263.529 613.725 263.529C614.877 263.529 615.877 263.777 616.725 264.273C617.573 264.769 618.205 265.393 618.621 266.145V263.745H620.829V276.897H618.621V274.449C618.189 275.217 617.541 275.857 616.677 276.369C615.829 276.865 614.837 277.113 613.701 277.113C612.533 277.113 611.477 276.825 610.533 276.249C609.589 275.673 608.845 274.865 608.301 273.825C607.757 272.785 607.485 271.601 607.485 270.273ZM618.621 270.297C618.621 269.305 618.421 268.441 618.021 267.705C617.621 266.969 617.077 266.409 616.389 266.025C615.717 265.625 614.973 265.425 614.157 265.425C613.341 265.425 612.597 265.617 611.925 266.001C611.253 266.385 610.717 266.945 610.317 267.681C609.917 268.417 609.717 269.281 609.717 270.273C609.717 271.281 609.917 272.161 610.317 272.913C610.717 273.649 611.253 274.217 611.925 274.617C612.597 275.001 613.341 275.193 614.157 275.193C614.973 275.193 615.717 275.001 616.389 274.617C617.077 274.217 617.621 273.649 618.021 272.913C618.421 272.161 618.621 271.289 618.621 270.297ZM626.704 265.881C627.088 265.129 627.632 264.545 628.336 264.129C629.056 263.713 629.928 263.505 630.952 263.505V265.761H630.376C627.928 265.761 626.704 267.089 626.704 269.745V276.897H624.52V263.745H626.704V265.881ZM634.601 261.609C634.185 261.609 633.833 261.465 633.545 261.177C633.257 260.889 633.113 260.537 633.113 260.121C633.113 259.705 633.257 259.353 633.545 259.065C633.833 258.777 634.185 258.633 634.601 258.633C635.001 258.633 635.337 258.777 635.609 259.065C635.897 259.353 636.041 259.705 636.041 260.121C636.041 260.537 635.897 260.889 635.609 261.177C635.337 261.465 635.001 261.609 634.601 261.609ZM635.657 263.745V276.897H633.473V263.745H635.657ZM644.035 277.113C643.027 277.113 642.123 276.945 641.323 276.609C640.523 276.257 639.891 275.777 639.427 275.169C638.963 274.545 638.707 273.833 638.659 273.033H640.915C640.979 273.689 641.283 274.225 641.827 274.641C642.387 275.057 643.115 275.265 644.011 275.265C644.843 275.265 645.499 275.081 645.979 274.713C646.459 274.345 646.699 273.881 646.699 273.321C646.699 272.745 646.443 272.321 645.931 272.049C645.419 271.761 644.627 271.481 643.555 271.209C642.579 270.953 641.779 270.697 641.155 270.441C640.547 270.169 640.019 269.777 639.571 269.265C639.139 268.737 638.923 268.049 638.923 267.201C638.923 266.529 639.123 265.913 639.523 265.353C639.923 264.793 640.491 264.353 641.227 264.033C641.963 263.697 642.803 263.529 643.747 263.529C645.203 263.529 646.379 263.897 647.275 264.633C648.171 265.369 648.651 266.377 648.715 267.657H646.531C646.483 266.969 646.203 266.417 645.691 266.001C645.195 265.585 644.523 265.377 643.675 265.377C642.891 265.377 642.267 265.545 641.803 265.881C641.339 266.217 641.107 266.657 641.107 267.201C641.107 267.633 641.243 267.993 641.515 268.281C641.803 268.553 642.155 268.777 642.571 268.953C643.003 269.113 643.595 269.297 644.347 269.505C645.291 269.761 646.059 270.017 646.651 270.273C647.243 270.513 647.747 270.881 648.163 271.377C648.595 271.873 648.819 272.521 648.835 273.321C648.835 274.041 648.635 274.689 648.235 275.265C647.835 275.841 647.267 276.297 646.531 276.633C645.811 276.953 644.979 277.113 644.035 277.113ZM653.046 261.609C652.63 261.609 652.278 261.465 651.99 261.177C651.702 260.889 651.558 260.537 651.558 260.121C651.558 259.705 651.702 259.353 651.99 259.065C652.278 258.777 652.63 258.633 653.046 258.633C653.446 258.633 653.782 258.777 654.054 259.065C654.342 259.353 654.486 259.705 654.486 260.121C654.486 260.537 654.342 260.889 654.054 261.177C653.782 261.465 653.446 261.609 653.046 261.609ZM654.102 263.745V276.897H651.918V263.745H654.102ZM663.561 277.113C662.329 277.113 661.209 276.833 660.201 276.273C659.209 275.713 658.425 274.921 657.849 273.897C657.289 272.857 657.009 271.657 657.009 270.297C657.009 268.953 657.297 267.769 657.873 266.745C658.465 265.705 659.265 264.913 660.273 264.369C661.281 263.809 662.409 263.529 663.657 263.529C664.905 263.529 666.033 263.809 667.041 264.369C668.049 264.913 668.841 265.697 669.417 266.721C670.009 267.745 670.305 268.937 670.305 270.297C670.305 271.657 670.001 272.857 669.393 273.897C668.801 274.921 667.993 275.713 666.969 276.273C665.945 276.833 664.809 277.113 663.561 277.113ZM663.561 275.193C664.345 275.193 665.081 275.009 665.769 274.641C666.457 274.273 667.009 273.721 667.425 272.985C667.857 272.249 668.073 271.353 668.073 270.297C668.073 269.241 667.865 268.345 667.449 267.609C667.033 266.873 666.489 266.329 665.817 265.977C665.145 265.609 664.417 265.425 663.633 265.425C662.833 265.425 662.097 265.609 661.425 265.977C660.769 266.329 660.241 266.873 659.841 267.609C659.441 268.345 659.241 269.241 659.241 270.297C659.241 271.369 659.433 272.273 659.817 273.009C660.217 273.745 660.745 274.297 661.401 274.665C662.057 275.017 662.777 275.193 663.561 275.193ZM679.584 263.505C681.184 263.505 682.48 263.993 683.472 264.969C684.464 265.929 684.96 267.321 684.96 269.145V276.897H682.8V269.457C682.8 268.145 682.472 267.145 681.816 266.457C681.16 265.753 680.264 265.401 679.128 265.401C677.976 265.401 677.056 265.761 676.368 266.481C675.696 267.201 675.36 268.249 675.36 269.625V276.897H673.176V263.745H675.36V265.617C675.792 264.945 676.376 264.425 677.112 264.057C677.864 263.689 678.688 263.505 679.584 263.505Z" fill="black"/>
<path d="M393.056 330.169C394.88 330.169 396.456 330.513 397.784 331.201C399.128 331.873 400.152 332.841 400.856 334.105C401.576 335.369 401.936 336.857 401.936 338.569C401.936 340.281 401.576 341.769 400.856 343.033C400.152 344.281 399.128 345.241 397.784 345.913C396.456 346.569 394.88 346.897 393.056 346.897H387.848V330.169H393.056ZM393.056 345.097C395.216 345.097 396.864 344.529 398 343.393C399.136 342.241 399.704 340.633 399.704 338.569C399.704 336.489 399.128 334.865 397.976 333.697C396.84 332.529 395.2 331.945 393.056 331.945H390.032V345.097H393.056ZM416.817 339.817C416.817 340.233 416.793 340.673 416.745 341.137H406.233C406.313 342.433 406.753 343.449 407.553 344.185C408.369 344.905 409.353 345.265 410.505 345.265C411.449 345.265 412.233 345.049 412.857 344.617C413.497 344.169 413.945 343.577 414.201 342.841H416.553C416.201 344.105 415.497 345.137 414.441 345.937C413.385 346.721 412.073 347.113 410.505 347.113C409.257 347.113 408.137 346.833 407.145 346.273C406.169 345.713 405.401 344.921 404.841 343.897C404.281 342.857 404.001 341.657 404.001 340.297C404.001 338.937 404.273 337.745 404.817 336.721C405.361 335.697 406.121 334.913 407.097 334.369C408.089 333.809 409.225 333.529 410.505 333.529C411.753 333.529 412.857 333.801 413.817 334.345C414.777 334.889 415.513 335.641 416.025 336.601C416.553 337.545 416.817 338.617 416.817 339.817ZM414.561 339.361C414.561 338.529 414.377 337.817 414.009 337.225C413.641 336.617 413.137 336.161 412.497 335.857C411.873 335.537 411.177 335.377 410.409 335.377C409.305 335.377 408.361 335.729 407.577 336.433C406.809 337.137 406.369 338.113 406.257 339.361H414.561ZM422.364 335.545V343.297C422.364 343.937 422.5 344.393 422.772 344.665C423.044 344.921 423.516 345.049 424.188 345.049H425.796V346.897H423.828C422.612 346.897 421.7 346.617 421.092 346.057C420.484 345.497 420.18 344.577 420.18 343.297V335.545H418.476V333.745H420.18V330.433H422.364V333.745H425.796V335.545H422.364ZM427.626 340.273C427.626 338.929 427.898 337.753 428.442 336.745C428.986 335.721 429.73 334.929 430.674 334.369C431.634 333.809 432.698 333.529 433.866 333.529C435.018 333.529 436.018 333.777 436.866 334.273C437.714 334.769 438.346 335.393 438.762 336.145V333.745H440.97V346.897H438.762V344.449C438.33 345.217 437.682 345.857 436.818 346.369C435.97 346.865 434.978 347.113 433.842 347.113C432.674 347.113 431.618 346.825 430.674 346.249C429.73 345.673 428.986 344.865 428.442 343.825C427.898 342.785 427.626 341.601 427.626 340.273ZM438.762 340.297C438.762 339.305 438.562 338.441 438.162 337.705C437.762 336.969 437.218 336.409 436.53 336.025C435.858 335.625 435.114 335.425 434.298 335.425C433.482 335.425 432.738 335.617 432.066 336.001C431.394 336.385 430.858 336.945 430.458 337.681C430.058 338.417 429.858 339.281 429.858 340.273C429.858 341.281 430.058 342.161 430.458 342.913C430.858 343.649 431.394 344.217 432.066 344.617C432.738 345.001 433.482 345.193 434.298 345.193C435.114 345.193 435.858 345.001 436.53 344.617C437.218 344.217 437.762 343.649 438.162 342.913C438.562 342.161 438.762 341.289 438.762 340.297ZM445.789 331.609C445.373 331.609 445.021 331.465 444.733 331.177C444.445 330.889 444.301 330.537 444.301 330.121C444.301 329.705 444.445 329.353 444.733 329.065C445.021 328.777 445.373 328.633 445.789 328.633C446.189 328.633 446.525 328.777 446.797 329.065C447.085 329.353 447.229 329.705 447.229 330.121C447.229 330.537 447.085 330.889 446.797 331.177C446.525 331.465 446.189 331.609 445.789 331.609ZM446.845 333.745V346.897H444.661V333.745H446.845ZM452.751 329.137V346.897H450.567V329.137H452.751ZM468.473 339.817C468.473 340.233 468.449 340.673 468.401 341.137H457.889C457.969 342.433 458.409 343.449 459.209 344.185C460.025 344.905 461.009 345.265 462.161 345.265C463.105 345.265 463.889 345.049 464.513 344.617C465.153 344.169 465.601 343.577 465.857 342.841H468.209C467.857 344.105 467.153 345.137 466.097 345.937C465.041 346.721 463.729 347.113 462.161 347.113C460.913 347.113 459.793 346.833 458.801 346.273C457.825 345.713 457.057 344.921 456.497 343.897C455.937 342.857 455.657 341.657 455.657 340.297C455.657 338.937 455.929 337.745 456.473 336.721C457.017 335.697 457.777 334.913 458.753 334.369C459.745 333.809 460.881 333.529 462.161 333.529C463.409 333.529 464.513 333.801 465.473 334.345C466.433 334.889 467.169 335.641 467.681 336.601C468.209 337.545 468.473 338.617 468.473 339.817ZM466.217 339.361C466.217 338.529 466.033 337.817 465.665 337.225C465.297 336.617 464.793 336.161 464.153 335.857C463.529 335.537 462.833 335.377 462.065 335.377C460.961 335.377 460.017 335.729 459.233 336.433C458.465 337.137 458.025 338.113 457.913 339.361H466.217ZM470.54 340.273C470.54 338.929 470.812 337.753 471.356 336.745C471.9 335.721 472.644 334.929 473.588 334.369C474.548 333.809 475.62 333.529 476.804 333.529C477.828 333.529 478.78 333.769 479.66 334.249C480.54 334.713 481.212 335.329 481.676 336.097V329.137H483.884V346.897H481.676V344.425C481.244 345.209 480.604 345.857 479.756 346.369C478.908 346.865 477.916 347.113 476.78 347.113C475.612 347.113 474.548 346.825 473.588 346.249C472.644 345.673 471.9 344.865 471.356 343.825C470.812 342.785 470.54 341.601 470.54 340.273ZM481.676 340.297C481.676 339.305 481.476 338.441 481.076 337.705C480.676 336.969 480.132 336.409 479.444 336.025C478.772 335.625 478.028 335.425 477.212 335.425C476.396 335.425 475.652 335.617 474.98 336.001C474.308 336.385 473.772 336.945 473.372 337.681C472.972 338.417 472.772 339.281 472.772 340.273C472.772 341.281 472.972 342.161 473.372 342.913C473.772 343.649 474.308 344.217 474.98 344.617C475.652 345.001 476.396 345.193 477.212 345.193C478.028 345.193 478.772 345.001 479.444 344.617C480.132 344.217 480.676 343.649 481.076 342.913C481.476 342.161 481.676 341.289 481.676 340.297ZM496.157 336.169C496.589 335.417 497.229 334.793 498.077 334.297C498.941 333.785 499.941 333.529 501.077 333.529C502.245 333.529 503.301 333.809 504.245 334.369C505.205 334.929 505.957 335.721 506.501 336.745C507.045 337.753 507.317 338.929 507.317 340.273C507.317 341.601 507.045 342.785 506.501 343.825C505.957 344.865 505.205 345.673 504.245 346.249C503.301 346.825 502.245 347.113 501.077 347.113C499.957 347.113 498.965 346.865 498.101 346.369C497.253 345.857 496.605 345.225 496.157 344.473V353.137H493.973V333.745H496.157V336.169ZM505.085 340.273C505.085 339.281 504.885 338.417 504.485 337.681C504.085 336.945 503.541 336.385 502.853 336.001C502.181 335.617 501.437 335.425 500.621 335.425C499.821 335.425 499.077 335.625 498.389 336.025C497.717 336.409 497.173 336.977 496.757 337.729C496.357 338.465 496.157 339.321 496.157 340.297C496.157 341.289 496.357 342.161 496.757 342.913C497.173 343.649 497.717 344.217 498.389 344.617C499.077 345.001 499.821 345.193 500.621 345.193C501.437 345.193 502.181 345.001 502.853 344.617C503.541 344.217 504.085 343.649 504.485 342.913C504.885 342.161 505.085 341.281 505.085 340.273ZM512.376 335.881C512.76 335.129 513.304 334.545 514.008 334.129C514.728 333.713 515.6 333.505 516.624 333.505V335.761H516.048C513.6 335.761 512.376 337.089 512.376 339.745V346.897H510.192V333.745H512.376V335.881ZM524.881 347.113C523.649 347.113 522.529 346.833 521.521 346.273C520.529 345.713 519.745 344.921 519.169 343.897C518.609 342.857 518.329 341.657 518.329 340.297C518.329 338.953 518.617 337.769 519.193 336.745C519.785 335.705 520.585 334.913 521.593 334.369C522.601 333.809 523.729 333.529 524.977 333.529C526.225 333.529 527.353 333.809 528.361 334.369C529.369 334.913 530.161 335.697 530.737 336.721C531.329 337.745 531.625 338.937 531.625 340.297C531.625 341.657 531.321 342.857 530.713 343.897C530.121 344.921 529.313 345.713 528.289 346.273C527.265 346.833 526.129 347.113 524.881 347.113ZM524.881 345.193C525.665 345.193 526.401 345.009 527.089 344.641C527.777 344.273 528.329 343.721 528.745 342.985C529.177 342.249 529.393 341.353 529.393 340.297C529.393 339.241 529.185 338.345 528.769 337.609C528.353 336.873 527.809 336.329 527.137 335.977C526.465 335.609 525.737 335.425 524.953 335.425C524.153 335.425 523.417 335.609 522.745 335.977C522.089 336.329 521.561 336.873 521.161 337.609C520.761 338.345 520.561 339.241 520.561 340.297C520.561 341.369 520.753 342.273 521.137 343.009C521.537 343.745 522.065 344.297 522.721 344.665C523.377 345.017 524.097 345.193 524.881 345.193ZM533.68 340.273C533.68 338.929 533.952 337.753 534.496 336.745C535.04 335.721 535.784 334.929 536.728 334.369C537.688 333.809 538.76 333.529 539.944 333.529C540.968 333.529 541.92 333.769 542.8 334.249C543.68 334.713 544.352 335.329 544.816 336.097V329.137H547.024V346.897H544.816V344.425C544.384 345.209 543.744 345.857 542.896 346.369C542.048 346.865 541.056 347.113 539.92 347.113C538.752 347.113 537.688 346.825 536.728 346.249C535.784 345.673 535.04 344.865 534.496 343.825C533.952 342.785 533.68 341.601 533.68 340.273ZM544.816 340.297C544.816 339.305 544.616 338.441 544.216 337.705C543.816 336.969 543.272 336.409 542.584 336.025C541.912 335.625 541.168 335.425 540.352 335.425C539.536 335.425 538.792 335.617 538.12 336.001C537.448 336.385 536.912 336.945 536.512 337.681C536.112 338.417 535.912 339.281 535.912 340.273C535.912 341.281 536.112 342.161 536.512 342.913C536.912 343.649 537.448 344.217 538.12 344.617C538.792 345.001 539.536 345.193 540.352 345.193C541.168 345.193 541.912 345.001 542.584 344.617C543.272 344.217 543.816 343.649 544.216 342.913C544.616 342.161 544.816 341.289 544.816 340.297ZM562.379 333.745V346.897H560.195V344.953C559.779 345.625 559.195 346.153 558.443 346.537C557.707 346.905 556.891 347.089 555.995 347.089C554.971 347.089 554.051 346.881 553.235 346.465C552.419 346.033 551.771 345.393 551.291 344.545C550.827 343.697 550.595 342.665 550.595 341.449V333.745H552.755V341.161C552.755 342.457 553.083 343.457 553.739 344.161C554.395 344.849 555.291 345.193 556.427 345.193C557.595 345.193 558.515 344.833 559.187 344.113C559.859 343.393 560.195 342.345 560.195 340.969V333.745H562.379ZM565.251 340.297C565.251 338.937 565.523 337.753 566.067 336.745C566.611 335.721 567.363 334.929 568.323 334.369C569.299 333.809 570.411 333.529 571.659 333.529C573.275 333.529 574.603 333.921 575.643 334.705C576.699 335.489 577.395 336.577 577.731 337.969H575.379C575.155 337.169 574.715 336.537 574.059 336.073C573.419 335.609 572.619 335.377 571.659 335.377C570.411 335.377 569.403 335.809 568.635 336.673C567.867 337.521 567.483 338.729 567.483 340.297C567.483 341.881 567.867 343.105 568.635 343.969C569.403 344.833 570.411 345.265 571.659 345.265C572.619 345.265 573.419 345.041 574.059 344.593C574.699 344.145 575.139 343.505 575.379 342.673H577.731C577.379 344.017 576.675 345.097 575.619 345.913C574.563 346.713 573.243 347.113 571.659 347.113C570.411 347.113 569.299 346.833 568.323 346.273C567.363 345.713 566.611 344.921 566.067 343.897C565.523 342.873 565.251 341.673 565.251 340.297ZM583.309 335.545V343.297C583.309 343.937 583.445 344.393 583.717 344.665C583.989 344.921 584.461 345.049 585.133 345.049H586.741V346.897H584.773C583.557 346.897 582.645 346.617 582.037 346.057C581.429 345.497 581.125 344.577 581.125 343.297V335.545H579.421V333.745H581.125V330.433H583.309V333.745H586.741V335.545H583.309ZM596.914 331.609C596.498 331.609 596.146 331.465 595.858 331.177C595.57 330.889 595.426 330.537 595.426 330.121C595.426 329.705 595.57 329.353 595.858 329.065C596.146 328.777 596.498 328.633 596.914 328.633C597.314 328.633 597.65 328.777 597.922 329.065C598.21 329.353 598.354 329.705 598.354 330.121C598.354 330.537 598.21 330.889 597.922 331.177C597.65 331.465 597.314 331.609 596.914 331.609ZM597.97 333.745V346.897H595.786V333.745H597.97ZM608.1 333.505C609.7 333.505 610.996 333.993 611.988 334.969C612.98 335.929 613.476 337.321 613.476 339.145V346.897H611.316V339.457C611.316 338.145 610.988 337.145 610.332 336.457C609.676 335.753 608.78 335.401 607.644 335.401C606.492 335.401 605.572 335.761 604.884 336.481C604.212 337.201 603.876 338.249 603.876 339.625V346.897H601.692V333.745H603.876V335.617C604.308 334.945 604.892 334.425 605.628 334.057C606.38 333.689 607.204 333.505 608.1 333.505ZM622.395 335.545H619.635V346.897H617.451V335.545H615.747V333.745H617.451V332.809C617.451 331.337 617.827 330.265 618.579 329.593C619.347 328.905 620.571 328.561 622.251 328.561V330.385C621.291 330.385 620.611 330.577 620.211 330.961C619.827 331.329 619.635 331.945 619.635 332.809V333.745H622.395V335.545ZM630.678 347.113C629.446 347.113 628.326 346.833 627.318 346.273C626.326 345.713 625.542 344.921 624.966 343.897C624.406 342.857 624.126 341.657 624.126 340.297C624.126 338.953 624.414 337.769 624.99 336.745C625.582 335.705 626.382 334.913 627.39 334.369C628.398 333.809 629.526 333.529 630.774 333.529C632.022 333.529 633.15 333.809 634.158 334.369C635.166 334.913 635.958 335.697 636.534 336.721C637.126 337.745 637.422 338.937 637.422 340.297C637.422 341.657 637.118 342.857 636.51 343.897C635.918 344.921 635.11 345.713 634.086 346.273C633.062 346.833 631.926 347.113 630.678 347.113ZM630.678 345.193C631.462 345.193 632.198 345.009 632.886 344.641C633.574 344.273 634.126 343.721 634.542 342.985C634.974 342.249 635.19 341.353 635.19 340.297C635.19 339.241 634.982 338.345 634.566 337.609C634.15 336.873 633.606 336.329 632.934 335.977C632.262 335.609 631.534 335.425 630.75 335.425C629.95 335.425 629.214 335.609 628.542 335.977C627.886 336.329 627.358 336.873 626.958 337.609C626.558 338.345 626.358 339.241 626.358 340.297C626.358 341.369 626.55 342.273 626.934 343.009C627.334 343.745 627.862 344.297 628.518 344.665C629.174 345.017 629.894 345.193 630.678 345.193Z" fill="black"/>
<path d="M396.656 416.897L392.672 410.057H390.032V416.897H387.848V400.169H393.248C394.512 400.169 395.576 400.385 396.44 400.817C397.32 401.249 397.976 401.833 398.408 402.569C398.84 403.305 399.056 404.145 399.056 405.089C399.056 406.241 398.72 407.257 398.048 408.137C397.392 409.017 396.4 409.601 395.072 409.889L399.272 416.897H396.656ZM390.032 408.305H393.248C394.432 408.305 395.32 408.017 395.912 407.441C396.504 406.849 396.8 406.065 396.8 405.089C396.8 404.097 396.504 403.329 395.912 402.785C395.336 402.241 394.448 401.969 393.248 401.969H390.032V408.305ZM414.45 409.817C414.45 410.233 414.426 410.673 414.378 411.137H403.866C403.946 412.433 404.386 413.449 405.186 414.185C406.002 414.905 406.986 415.265 408.138 415.265C409.082 415.265 409.866 415.049 410.49 414.617C411.13 414.169 411.578 413.577 411.834 412.841H414.186C413.834 414.105 413.13 415.137 412.074 415.937C411.018 416.721 409.706 417.113 408.138 417.113C406.89 417.113 405.77 416.833 404.778 416.273C403.802 415.713 403.034 414.921 402.474 413.897C401.914 412.857 401.634 411.657 401.634 410.297C401.634 408.937 401.906 407.745 402.45 406.721C402.994 405.697 403.754 404.913 404.73 404.369C405.722 403.809 406.858 403.529 408.138 403.529C409.386 403.529 410.49 403.801 411.45 404.345C412.41 404.889 413.146 405.641 413.658 406.601C414.186 407.545 414.45 408.617 414.45 409.817ZM412.194 409.361C412.194 408.529 412.01 407.817 411.642 407.225C411.274 406.617 410.77 406.161 410.13 405.857C409.506 405.537 408.81 405.377 408.042 405.377C406.938 405.377 405.994 405.729 405.21 406.433C404.442 407.137 404.002 408.113 403.89 409.361H412.194ZM422.228 414.881L426.308 403.745H428.636L423.476 416.897H420.932L415.772 403.745H418.124L422.228 414.881ZM431.914 401.609C431.498 401.609 431.146 401.465 430.858 401.177C430.57 400.889 430.426 400.537 430.426 400.121C430.426 399.705 430.57 399.353 430.858 399.065C431.146 398.777 431.498 398.633 431.914 398.633C432.314 398.633 432.65 398.777 432.922 399.065C433.21 399.353 433.354 399.705 433.354 400.121C433.354 400.537 433.21 400.889 432.922 401.177C432.65 401.465 432.314 401.609 431.914 401.609ZM432.97 403.745V416.897H430.786V403.745H432.97ZM448.692 409.817C448.692 410.233 448.668 410.673 448.62 411.137H438.108C438.188 412.433 438.628 413.449 439.428 414.185C440.244 414.905 441.228 415.265 442.38 415.265C443.324 415.265 444.108 415.049 444.732 414.617C445.372 414.169 445.82 413.577 446.076 412.841H448.428C448.076 414.105 447.372 415.137 446.316 415.937C445.26 416.721 443.948 417.113 442.38 417.113C441.132 417.113 440.012 416.833 439.02 416.273C438.044 415.713 437.276 414.921 436.716 413.897C436.156 412.857 435.876 411.657 435.876 410.297C435.876 408.937 436.148 407.745 436.692 406.721C437.236 405.697 437.996 404.913 438.972 404.369C439.964 403.809 441.1 403.529 442.38 403.529C443.628 403.529 444.732 403.801 445.692 404.345C446.652 404.889 447.388 405.641 447.9 406.601C448.428 407.545 448.692 408.617 448.692 409.817ZM446.436 409.361C446.436 408.529 446.252 407.817 445.884 407.225C445.516 406.617 445.012 406.161 444.372 405.857C443.748 405.537 443.052 405.377 442.284 405.377C441.18 405.377 440.236 405.729 439.452 406.433C438.684 407.137 438.244 408.113 438.132 409.361H446.436ZM469.095 403.745L464.991 416.897H462.735L459.567 406.457L456.399 416.897H454.143L450.015 403.745H452.247L455.271 414.785L458.535 403.745H460.767L463.959 414.809L466.935 403.745H469.095ZM475.918 417.113C474.91 417.113 474.006 416.945 473.206 416.609C472.406 416.257 471.774 415.777 471.31 415.169C470.846 414.545 470.59 413.833 470.542 413.033H472.798C472.862 413.689 473.166 414.225 473.71 414.641C474.27 415.057 474.998 415.265 475.894 415.265C476.726 415.265 477.382 415.081 477.862 414.713C478.342 414.345 478.582 413.881 478.582 413.321C478.582 412.745 478.326 412.321 477.814 412.049C477.302 411.761 476.51 411.481 475.438 411.209C474.462 410.953 473.662 410.697 473.038 410.441C472.43 410.169 471.902 409.777 471.454 409.265C471.022 408.737 470.806 408.049 470.806 407.201C470.806 406.529 471.006 405.913 471.406 405.353C471.806 404.793 472.374 404.353 473.11 404.033C473.846 403.697 474.686 403.529 475.63 403.529C477.086 403.529 478.262 403.897 479.158 404.633C480.054 405.369 480.534 406.377 480.598 407.657H478.414C478.366 406.969 478.086 406.417 477.574 406.001C477.078 405.585 476.406 405.377 475.558 405.377C474.774 405.377 474.15 405.545 473.686 405.881C473.222 406.217 472.99 406.657 472.99 407.201C472.99 407.633 473.126 407.993 473.398 408.281C473.686 408.553 474.038 408.777 474.454 408.953C474.886 409.113 475.478 409.297 476.23 409.505C477.174 409.761 477.942 410.017 478.534 410.273C479.126 410.513 479.63 410.881 480.046 411.377C480.478 411.873 480.702 412.521 480.718 413.321C480.718 414.041 480.518 414.689 480.118 415.265C479.718 415.841 479.15 416.297 478.414 416.633C477.694 416.953 476.862 417.113 475.918 417.113ZM503.04 416.897L500.856 414.689C500.04 415.537 499.168 416.169 498.24 416.585C497.312 416.985 496.264 417.185 495.096 417.185C493.944 417.185 492.92 416.977 492.024 416.561C491.144 416.145 490.456 415.553 489.96 414.785C489.48 414.017 489.24 413.121 489.24 412.097C489.24 410.929 489.568 409.905 490.224 409.025C490.896 408.129 491.88 407.425 493.176 406.913C492.664 406.305 492.296 405.745 492.072 405.233C491.848 404.721 491.736 404.161 491.736 403.553C491.736 402.849 491.912 402.217 492.264 401.657C492.632 401.081 493.152 400.633 493.824 400.313C494.496 399.993 495.272 399.833 496.152 399.833C497.016 399.833 497.768 400.001 498.408 400.337C499.048 400.673 499.528 401.145 499.848 401.753C500.168 402.345 500.312 403.009 500.28 403.745H498.096C498.112 403.089 497.928 402.577 497.544 402.209C497.16 401.825 496.664 401.633 496.056 401.633C495.416 401.633 494.896 401.817 494.496 402.185C494.112 402.537 493.92 402.993 493.92 403.553C493.92 404.033 494.048 404.497 494.304 404.945C494.576 405.393 495.024 405.945 495.648 406.601L500.64 411.617L501.072 410.945L502.704 408.209H505.056L503.088 411.617C502.816 412.097 502.496 412.601 502.128 413.129L505.896 416.897H503.04ZM495.096 415.313C495.96 415.313 496.736 415.145 497.424 414.809C498.128 414.473 498.792 413.953 499.416 413.249L494.496 408.305C492.448 409.089 491.424 410.329 491.424 412.025C491.424 412.969 491.76 413.753 492.432 414.377C493.12 415.001 494.008 415.313 495.096 415.313ZM523.148 416.897L519.164 410.057H516.524V416.897H514.34V400.169H519.74C521.004 400.169 522.068 400.385 522.932 400.817C523.812 401.249 524.468 401.833 524.9 402.569C525.332 403.305 525.548 404.145 525.548 405.089C525.548 406.241 525.212 407.257 524.54 408.137C523.884 409.017 522.892 409.601 521.564 409.889L525.764 416.897H523.148ZM516.524 408.305H519.74C520.924 408.305 521.812 408.017 522.404 407.441C522.996 406.849 523.292 406.065 523.292 405.089C523.292 404.097 522.996 403.329 522.404 402.785C521.828 402.241 520.94 401.969 519.74 401.969H516.524V408.305ZM528.126 410.273C528.126 408.929 528.398 407.753 528.942 406.745C529.486 405.721 530.23 404.929 531.174 404.369C532.134 403.809 533.198 403.529 534.366 403.529C535.518 403.529 536.518 403.777 537.366 404.273C538.214 404.769 538.846 405.393 539.262 406.145V403.745H541.47V416.897H539.262V414.449C538.83 415.217 538.182 415.857 537.318 416.369C536.47 416.865 535.478 417.113 534.342 417.113C533.174 417.113 532.118 416.825 531.174 416.249C530.23 415.673 529.486 414.865 528.942 413.825C528.398 412.785 528.126 411.601 528.126 410.273ZM539.262 410.297C539.262 409.305 539.062 408.441 538.662 407.705C538.262 406.969 537.718 406.409 537.03 406.025C536.358 405.625 535.614 405.425 534.798 405.425C533.982 405.425 533.238 405.617 532.566 406.001C531.894 406.385 531.358 406.945 530.958 407.681C530.558 408.417 530.358 409.281 530.358 410.273C530.358 411.281 530.558 412.161 530.958 412.913C531.358 413.649 531.894 414.217 532.566 414.617C533.238 415.001 533.982 415.193 534.798 415.193C535.614 415.193 536.358 415.001 537.03 414.617C537.718 414.217 538.262 413.649 538.662 412.913C539.062 412.161 539.262 411.289 539.262 410.297ZM547.825 405.545V413.297C547.825 413.937 547.961 414.393 548.233 414.665C548.505 414.921 548.977 415.049 549.648 415.049H551.257V416.897H549.289C548.073 416.897 547.161 416.617 546.553 416.057C545.945 415.497 545.641 414.577 545.641 413.297V405.545H543.937V403.745H545.641V400.433H547.825V403.745H551.257V405.545H547.825ZM555.031 401.609C554.615 401.609 554.263 401.465 553.975 401.177C553.687 400.889 553.543 400.537 553.543 400.121C553.543 399.705 553.687 399.353 553.975 399.065C554.263 398.777 554.615 398.633 555.031 398.633C555.431 398.633 555.767 398.777 556.039 399.065C556.327 399.353 556.471 399.705 556.471 400.121C556.471 400.537 556.327 400.889 556.039 401.177C555.767 401.465 555.431 401.609 555.031 401.609ZM556.087 403.745V416.897H553.903V403.745H556.087ZM566.217 403.505C567.817 403.505 569.113 403.993 570.105 404.969C571.097 405.929 571.593 407.321 571.593 409.145V416.897H569.433V409.457C569.433 408.145 569.105 407.145 568.449 406.457C567.793 405.753 566.897 405.401 565.761 405.401C564.609 405.401 563.689 405.761 563.001 406.481C562.329 407.201 561.993 408.249 561.993 409.625V416.897H559.809V403.745H561.993V405.617C562.425 404.945 563.009 404.425 563.745 404.057C564.497 403.689 565.321 403.505 566.217 403.505ZM580.585 403.529C581.721 403.529 582.713 403.777 583.561 404.273C584.425 404.769 585.065 405.393 585.481 406.145V403.745H587.689V417.185C587.689 418.385 587.433 419.449 586.921 420.377C586.409 421.321 585.673 422.057 584.713 422.585C583.769 423.113 582.665 423.377 581.401 423.377C579.673 423.377 578.233 422.969 577.081 422.153C575.929 421.337 575.249 420.225 575.041 418.817H577.201C577.441 419.617 577.937 420.257 578.689 420.737C579.441 421.233 580.345 421.481 581.401 421.481C582.601 421.481 583.577 421.105 584.329 420.353C585.097 419.601 585.481 418.545 585.481 417.185V414.425C585.049 415.193 584.409 415.833 583.561 416.345C582.713 416.857 581.721 417.113 580.585 417.113C579.417 417.113 578.353 416.825 577.393 416.249C576.449 415.673 575.705 414.865 575.161 413.825C574.617 412.785 574.345 411.601 574.345 410.273C574.345 408.929 574.617 407.753 575.161 406.745C575.705 405.721 576.449 404.929 577.393 404.369C578.353 403.809 579.417 403.529 580.585 403.529ZM585.481 410.297C585.481 409.305 585.281 408.441 584.881 407.705C584.481 406.969 583.937 406.409 583.249 406.025C582.577 405.625 581.833 405.425 581.017 405.425C580.201 405.425 579.457 405.617 578.785 406.001C578.113 406.385 577.577 406.945 577.177 407.681C576.777 408.417 576.577 409.281 576.577 410.273C576.577 411.281 576.777 412.161 577.177 412.913C577.577 413.649 578.113 414.217 578.785 414.617C579.457 415.001 580.201 415.193 581.017 415.193C581.833 415.193 582.577 415.001 583.249 414.617C583.937 414.217 584.481 413.649 584.881 412.913C585.281 412.161 585.481 411.289 585.481 410.297ZM596.035 417.113C595.027 417.113 594.123 416.945 593.323 416.609C592.523 416.257 591.891 415.777 591.427 415.169C590.963 414.545 590.707 413.833 590.659 413.033H592.915C592.979 413.689 593.283 414.225 593.827 414.641C594.387 415.057 595.115 415.265 596.011 415.265C596.843 415.265 597.499 415.081 597.979 414.713C598.459 414.345 598.699 413.881 598.699 413.321C598.699 412.745 598.443 412.321 597.931 412.049C597.419 411.761 596.627 411.481 595.555 411.209C594.579 410.953 593.779 410.697 593.155 410.441C592.547 410.169 592.019 409.777 591.571 409.265C591.139 408.737 590.923 408.049 590.923 407.201C590.923 406.529 591.123 405.913 591.523 405.353C591.923 404.793 592.491 404.353 593.227 404.033C593.963 403.697 594.803 403.529 595.747 403.529C597.203 403.529 598.379 403.897 599.275 404.633C600.171 405.369 600.651 406.377 600.715 407.657H598.531C598.483 406.969 598.203 406.417 597.691 406.001C597.195 405.585 596.523 405.377 595.675 405.377C594.891 405.377 594.267 405.545 593.803 405.881C593.339 406.217 593.107 406.657 593.107 407.201C593.107 407.633 593.243 407.993 593.515 408.281C593.803 408.553 594.155 408.777 594.571 408.953C595.003 409.113 595.595 409.297 596.347 409.505C597.291 409.761 598.059 410.017 598.651 410.273C599.243 410.513 599.747 410.881 600.163 411.377C600.595 411.873 600.819 412.521 600.835 413.321C600.835 414.041 600.635 414.689 600.235 415.265C599.835 415.841 599.267 416.297 598.531 416.633C597.811 416.953 596.979 417.113 596.035 417.113Z" fill="black"/>
<path d="M397.304 470.169V471.945H390.032V477.585H395.936V479.361H390.032V486.897H387.848V470.169H397.304ZM401.07 471.609C400.654 471.609 400.302 471.465 400.014 471.177C399.726 470.889 399.582 470.537 399.582 470.121C399.582 469.705 399.726 469.353 400.014 469.065C400.302 468.777 400.654 468.633 401.07 468.633C401.47 468.633 401.806 468.777 402.078 469.065C402.366 469.353 402.51 469.705 402.51 470.121C402.51 470.537 402.366 470.889 402.078 471.177C401.806 471.465 401.47 471.609 401.07 471.609ZM402.126 473.745V486.897H399.942V473.745H402.126ZM408.032 469.137V486.897H405.848V469.137H408.032ZM414.418 475.545V483.297C414.418 483.937 414.554 484.393 414.826 484.665C415.098 484.921 415.57 485.049 416.242 485.049H417.85V486.897H415.882C414.666 486.897 413.754 486.617 413.146 486.057C412.538 485.497 412.234 484.577 412.234 483.297V475.545H410.53V473.745H412.234V470.433H414.418V473.745H417.85V475.545H414.418ZM432.496 479.817C432.496 480.233 432.472 480.673 432.424 481.137H421.912C421.992 482.433 422.432 483.449 423.232 484.185C424.048 484.905 425.032 485.265 426.184 485.265C427.128 485.265 427.912 485.049 428.536 484.617C429.176 484.169 429.624 483.577 429.88 482.841H432.232C431.88 484.105 431.176 485.137 430.12 485.937C429.064 486.721 427.752 487.113 426.184 487.113C424.936 487.113 423.816 486.833 422.824 486.273C421.848 485.713 421.08 484.921 420.52 483.897C419.96 482.857 419.68 481.657 419.68 480.297C419.68 478.937 419.952 477.745 420.496 476.721C421.04 475.697 421.8 474.913 422.776 474.369C423.768 473.809 424.904 473.529 426.184 473.529C427.432 473.529 428.536 473.801 429.496 474.345C430.456 474.889 431.192 475.641 431.704 476.601C432.232 477.545 432.496 478.617 432.496 479.817ZM430.24 479.361C430.24 478.529 430.056 477.817 429.688 477.225C429.32 476.617 428.816 476.161 428.176 475.857C427.552 475.537 426.856 475.377 426.088 475.377C424.984 475.377 424.04 475.729 423.256 476.433C422.488 477.137 422.048 478.113 421.936 479.361H430.24ZM437.563 475.881C437.947 475.129 438.491 474.545 439.195 474.129C439.915 473.713 440.787 473.505 441.811 473.505V475.761H441.235C438.787 475.761 437.563 477.089 437.563 479.745V486.897H435.379V473.745H437.563V475.881ZM463.571 486.897L461.387 484.689C460.571 485.537 459.699 486.169 458.771 486.585C457.843 486.985 456.795 487.185 455.627 487.185C454.475 487.185 453.451 486.977 452.555 486.561C451.675 486.145 450.987 485.553 450.491 484.785C450.011 484.017 449.771 483.121 449.771 482.097C449.771 480.929 450.099 479.905 450.755 479.025C451.427 478.129 452.411 477.425 453.707 476.913C453.195 476.305 452.827 475.745 452.603 475.233C452.379 474.721 452.267 474.161 452.267 473.553C452.267 472.849 452.443 472.217 452.795 471.657C453.163 471.081 453.683 470.633 454.355 470.313C455.027 469.993 455.803 469.833 456.683 469.833C457.547 469.833 458.299 470.001 458.939 470.337C459.579 470.673 460.059 471.145 460.379 471.753C460.699 472.345 460.843 473.009 460.811 473.745H458.627C458.643 473.089 458.459 472.577 458.075 472.209C457.691 471.825 457.195 471.633 456.587 471.633C455.947 471.633 455.427 471.817 455.027 472.185C454.643 472.537 454.451 472.993 454.451 473.553C454.451 474.033 454.579 474.497 454.835 474.945C455.107 475.393 455.555 475.945 456.179 476.601L461.171 481.617L461.603 480.945L463.235 478.209H465.587L463.619 481.617C463.347 482.097 463.027 482.601 462.659 483.129L466.427 486.897H463.571ZM455.627 485.313C456.491 485.313 457.267 485.145 457.955 484.809C458.659 484.473 459.323 483.953 459.947 483.249L455.027 478.305C452.979 479.089 451.955 480.329 451.955 482.025C451.955 482.969 452.291 483.753 452.963 484.377C453.651 485.001 454.539 485.313 455.627 485.313ZM480.175 487.065C479.071 487.065 478.079 486.873 477.199 486.489C476.335 486.089 475.655 485.545 475.159 484.857C474.663 484.153 474.407 483.345 474.391 482.433H476.719C476.799 483.217 477.119 483.881 477.679 484.425C478.255 484.953 479.087 485.217 480.175 485.217C481.215 485.217 482.031 484.961 482.623 484.449C483.231 483.921 483.535 483.249 483.535 482.433C483.535 481.793 483.359 481.273 483.007 480.873C482.655 480.473 482.215 480.169 481.687 479.961C481.159 479.753 480.447 479.529 479.551 479.289C478.447 479.001 477.559 478.713 476.887 478.425C476.231 478.137 475.663 477.689 475.183 477.081C474.719 476.457 474.487 475.625 474.487 474.585C474.487 473.673 474.719 472.865 475.183 472.161C475.647 471.457 476.295 470.913 477.127 470.529C477.975 470.145 478.943 469.953 480.031 469.953C481.599 469.953 482.879 470.345 483.871 471.129C484.879 471.913 485.447 472.953 485.575 474.249H483.175C483.095 473.609 482.759 473.049 482.167 472.569C481.575 472.073 480.791 471.825 479.815 471.825C478.903 471.825 478.159 472.065 477.583 472.545C477.007 473.009 476.719 473.665 476.719 474.513C476.719 475.121 476.887 475.617 477.223 476.001C477.575 476.385 477.999 476.681 478.495 476.889C479.007 477.081 479.719 477.305 480.631 477.561C481.735 477.865 482.623 478.169 483.295 478.473C483.967 478.761 484.543 479.217 485.023 479.841C485.503 480.449 485.743 481.281 485.743 482.337C485.743 483.153 485.527 483.921 485.095 484.641C484.663 485.361 484.023 485.945 483.175 486.393C482.327 486.841 481.327 487.065 480.175 487.065ZM500.957 479.817C500.957 480.233 500.933 480.673 500.885 481.137H490.373C490.453 482.433 490.893 483.449 491.693 484.185C492.509 484.905 493.493 485.265 494.645 485.265C495.589 485.265 496.373 485.049 496.997 484.617C497.637 484.169 498.085 483.577 498.341 482.841H500.693C500.341 484.105 499.637 485.137 498.581 485.937C497.525 486.721 496.213 487.113 494.645 487.113C493.397 487.113 492.277 486.833 491.285 486.273C490.309 485.713 489.541 484.921 488.981 483.897C488.421 482.857 488.141 481.657 488.141 480.297C488.141 478.937 488.413 477.745 488.957 476.721C489.501 475.697 490.261 474.913 491.237 474.369C492.229 473.809 493.365 473.529 494.645 473.529C495.893 473.529 496.997 473.801 497.957 474.345C498.917 474.889 499.653 475.641 500.165 476.601C500.693 477.545 500.957 478.617 500.957 479.817ZM498.701 479.361C498.701 478.529 498.517 477.817 498.149 477.225C497.781 476.617 497.277 476.161 496.637 475.857C496.013 475.537 495.317 475.377 494.549 475.377C493.445 475.377 492.501 475.729 491.717 476.433C490.949 477.137 490.509 478.113 490.397 479.361H498.701ZM503.024 480.273C503.024 478.929 503.296 477.753 503.84 476.745C504.384 475.721 505.128 474.929 506.072 474.369C507.032 473.809 508.096 473.529 509.264 473.529C510.416 473.529 511.416 473.777 512.264 474.273C513.112 474.769 513.744 475.393 514.16 476.145V473.745H516.368V486.897H514.16V484.449C513.728 485.217 513.08 485.857 512.216 486.369C511.368 486.865 510.376 487.113 509.24 487.113C508.072 487.113 507.016 486.825 506.072 486.249C505.128 485.673 504.384 484.865 503.84 483.825C503.296 482.785 503.024 481.601 503.024 480.273ZM514.16 480.297C514.16 479.305 513.96 478.441 513.56 477.705C513.16 476.969 512.616 476.409 511.928 476.025C511.256 475.625 510.512 475.425 509.696 475.425C508.88 475.425 508.136 475.617 507.464 476.001C506.792 476.385 506.256 476.945 505.856 477.681C505.456 478.417 505.256 479.281 505.256 480.273C505.256 481.281 505.456 482.161 505.856 482.913C506.256 483.649 506.792 484.217 507.464 484.617C508.136 485.001 508.88 485.193 509.696 485.193C510.512 485.193 511.256 485.001 511.928 484.617C512.616 484.217 513.16 483.649 513.56 482.913C513.96 482.161 514.16 481.289 514.16 480.297ZM522.243 475.881C522.627 475.129 523.171 474.545 523.875 474.129C524.595 473.713 525.467 473.505 526.491 473.505V475.761H525.915C523.467 475.761 522.243 477.089 522.243 479.745V486.897H520.059V473.745H522.243V475.881ZM528.196 480.297C528.196 478.937 528.468 477.753 529.012 476.745C529.556 475.721 530.308 474.929 531.268 474.369C532.244 473.809 533.356 473.529 534.604 473.529C536.22 473.529 537.548 473.921 538.588 474.705C539.644 475.489 540.34 476.577 540.676 477.969H538.324C538.1 477.169 537.66 476.537 537.004 476.073C536.364 475.609 535.564 475.377 534.604 475.377C533.356 475.377 532.348 475.809 531.58 476.673C530.812 477.521 530.428 478.729 530.428 480.297C530.428 481.881 530.812 483.105 531.58 483.969C532.348 484.833 533.356 485.265 534.604 485.265C535.564 485.265 536.364 485.041 537.004 484.593C537.644 484.145 538.084 483.505 538.324 482.673H540.676C540.324 484.017 539.62 485.097 538.564 485.913C537.508 486.713 536.188 487.113 534.604 487.113C533.356 487.113 532.244 486.833 531.268 486.273C530.308 485.713 529.556 484.921 529.012 483.897C528.468 482.873 528.196 481.673 528.196 480.297ZM550.118 473.505C551.11 473.505 552.006 473.721 552.806 474.153C553.606 474.569 554.23 475.201 554.678 476.049C555.142 476.897 555.374 477.929 555.374 479.145V486.897H553.214V479.457C553.214 478.145 552.886 477.145 552.23 476.457C551.574 475.753 550.678 475.401 549.542 475.401C548.39 475.401 547.47 475.761 546.782 476.481C546.11 477.201 545.774 478.249 545.774 479.625V486.897H543.59V469.137H545.774V475.617C546.206 474.945 546.798 474.425 547.55 474.057C548.318 473.689 549.174 473.505 550.118 473.505Z" fill="black"/>
<circle cx="75.1134" cy="431.624" r="14.2525" fill="url(#paint0_linear_687_1649)"/>
<path d="M87.4281 508.97C79.9837 508.841 72.5591 508.16 65.2151 506.934C50.5862 504.49 36.264 499.82 23.2708 492.621C22.4994 492.189 21.728 491.752 20.9473 491.306C32.4673 480.372 41.0179 467.142 48.2441 453.107C53.4488 442.981 56.1441 436.304 67.3853 432.042C86.9308 424.64 113.335 431.838 118.893 453.828C121.24 463.122 121.328 472.839 119.995 482.296C118.707 491.441 115.32 509.053 115.32 509.053C115.32 509.053 91.076 509.035 87.4281 508.97Z" fill="url(#paint1_linear_687_1649)"/>
<path d="M138.374 538.711C107.309 562.63 63.9792 562.438 33.127 538.246L55.7395 527.646C56.4317 527.319 57.1064 526.956 57.761 526.559L58.2815 526.233C58.4674 526.117 58.6486 525.996 58.8298 525.871C61.6833 523.901 64.0214 521.275 65.6471 518.212C67.5059 514.704 68.1193 510.828 68.1472 506.878C68.1472 504.708 68.0589 502.538 68.0031 500.372C68.0031 499.883 67.9938 499.395 67.9752 498.909C67.9567 497.434 67.9412 495.961 67.9288 494.489H67.9613L68.8489 494.954L71.2654 496.204L85.3413 498.597L99.8029 501.06L100.133 512.213L100.226 515.41V515.908L100.444 523.282L105.774 525.453L109.957 527.144L138.374 538.711Z" fill="#F2A196"/>
<path d="M100.133 512.222C99.1316 512.908 97.9352 513.252 96.7223 513.203C89.8493 512.464 76.4425 507.078 68.0035 497.11C68.0035 496.621 67.9942 496.133 67.9756 495.646V494.499L68.8632 494.963L71.2796 496.213L85.3556 498.607L99.8172 501.069L100.133 512.222Z" fill="#E88870"/>
<circle cx="56.3063" cy="479.609" r="7.9" fill="#F2A196"/>
<circle cx="59.0948" cy="478.68" r="7.9" fill="#E88870"/>
<path d="M109.998 467.647C115.459 486.552 103.864 509.41 96.7357 509.41C86.9769 509.41 63.2769 501.613 57.8259 482.708C52.3749 463.804 59.6057 445.104 74.0116 440.945C88.4175 436.786 104.543 448.757 109.998 467.647Z" fill="#F2A196"/>
<path d="M80.6477 471.574C83.4825 471.597 83.4825 475.929 80.6477 475.952H80.5176C77.6829 475.929 77.6829 471.597 80.5176 471.574H80.6431H80.6477Z" fill="#00214E"/>
<path d="M104.004 469.79C106.639 469.813 106.639 473.833 104.004 473.856H103.888C101.257 473.856 101.257 469.813 103.888 469.79H104.004Z" fill="#00214E"/>
<path d="M92.0147 442.512C90.0118 451.202 85.6482 458.581 77.6738 463.958C69.0675 469.915 59.9825 472.787 50.0703 474.762C50.3213 468.67 49.6521 460.101 52.7935 454.668C56.3588 448.636 61.5663 443.743 67.8081 440.56C74.6904 437.005 85.3368 433.52 93.0695 435.982C92.8545 438.179 92.5022 440.359 92.0147 442.512Z" fill="url(#paint2_linear_687_1649)"/>
<path d="M92.8232 468.53C92.786 468.688 96.5036 483.559 96.5036 483.559H90.6948" stroke="#00214E" stroke-width="0.464706"/>
<path d="M98.1484 463.786C101.43 462.109 105.229 461.75 108.767 462.782" stroke="#00214E" stroke-width="0.464706"/>
<path d="M72.5386 465.487C77.0662 463.181 82.3855 463.011 87.0513 465.023" stroke="#00214E" stroke-width="0.464706"/>
<path d="M138.369 538.711C107.304 562.63 63.9748 562.438 33.1226 538.246L55.7351 527.646C56.812 527.14 57.8456 526.546 58.8254 525.871C59.1229 525.666 59.4203 525.452 59.7037 525.229C62.167 523.345 64.1944 520.952 65.6473 518.212C66.7425 516.112 67.4702 513.839 67.7989 511.493C68.1271 511.811 68.4714 512.112 68.8306 512.394C71.6799 514.501 74.7723 516.258 78.041 517.627C79.628 518.289 81.2508 518.861 82.9019 519.342C87.8761 520.792 93.0696 521.341 98.2371 520.963C98.9528 520.908 99.6731 520.838 100.389 520.787L100.458 523.148V523.301L106.081 525.587L138.369 538.711Z" fill="#845161"/>
<path d="M80.7453 488.806C80.8747 488.603 81.0828 488.462 81.3198 488.418C81.5569 488.374 81.8016 488.43 81.9954 488.574C82.9574 489.252 84.7232 490.693 87.2326 491.19C90.6529 491.873 93.6223 490.502 94.3287 491.385C94.7283 491.882 94.2404 492.491 93.3063 493.267C91.3306 494.744 88.8428 495.362 86.4055 494.982C83.1107 494.364 80.6431 490.553 80.6431 489.201C80.6416 489.063 80.6769 488.926 80.7453 488.806Z" fill="white"/>
<defs>
<linearGradient id="paint0_linear_687_1649" x1="60.8608" y1="445.878" x2="89.3705" y2="445.878" gradientUnits="userSpaceOnUse">
<stop stop-color="#16243F"/>
<stop offset="1" stop-color="#6878B1"/>
</linearGradient>
<linearGradient id="paint1_linear_687_1649" x1="82.4298" y1="538.229" x2="124.896" y2="470.172" gradientUnits="userSpaceOnUse">
<stop stop-color="#16243F"/>
<stop offset="1" stop-color="#6878B1"/>
</linearGradient>
<linearGradient id="paint2_linear_687_1649" x1="64.7146" y1="488.25" x2="85.7502" y2="459.458" gradientUnits="userSpaceOnUse">
<stop stop-color="#16243F"/>
<stop offset="1" stop-color="#6878B1"/>
</linearGradient>
</defs>
</svg>
