<svg width="346" height="207" viewBox="0 0 346 207" fill="none" xmlns="http://www.w3.org/2000/svg">
<g filter="url(#filter0_d_857_12658)">
<rect x="4" width="338" height="199" rx="10" fill="#85999D"/>
<rect x="4.5" y="0.5" width="337" height="198" rx="9.5" stroke="#D9D9D9"/>
<path d="M125.172 99.2578V107.941C125.172 109.025 125.223 109.888 125.324 110.531C125.426 111.141 125.629 111.615 125.934 111.953C126.272 112.258 126.763 112.461 127.406 112.562C128.049 112.664 128.913 112.715 129.996 112.715V115.102C128.98 115.068 127.813 115.051 126.492 115.051C125.172 115.051 123.818 115.051 122.43 115.051C121.042 115.051 119.671 115.051 118.316 115.051C116.962 115.085 115.76 115.118 114.711 115.152V112.715C115.794 112.715 116.658 112.664 117.301 112.562C117.944 112.461 118.435 112.258 118.773 111.953C119.112 111.615 119.332 111.124 119.434 110.48C119.535 109.837 119.586 108.957 119.586 107.84V83.4648C119.586 82.4492 119.535 81.6536 119.434 81.0781C119.366 80.5026 119.163 80.0794 118.824 79.8086C118.52 79.5039 118.046 79.3177 117.402 79.25C116.793 79.1823 115.947 79.1484 114.863 79.1484V76.8125C115.743 76.8464 116.793 76.8633 118.012 76.8633C119.23 76.8633 120.466 76.8633 121.719 76.8633C123.005 76.8633 124.224 76.8633 125.375 76.8633C126.526 76.8294 127.457 76.7956 128.168 76.7617C130.165 76.7617 131.993 77.0325 133.652 77.5742C135.311 78.1159 136.733 78.8776 137.918 79.8594C139.103 80.8073 140.017 81.9753 140.66 83.3633C141.337 84.7174 141.676 86.224 141.676 87.8828C141.676 89.5417 141.371 91.0482 140.762 92.4023C140.152 93.7565 139.323 94.9414 138.273 95.957C137.224 96.9388 135.988 97.7174 134.566 98.293C133.178 98.8346 131.706 99.1393 130.148 99.207C129.438 99.2409 128.625 99.2578 127.711 99.2578C126.831 99.2578 125.984 99.2578 125.172 99.2578ZM125.172 96.2109C125.781 96.2786 126.475 96.3294 127.254 96.3633C128.066 96.3971 128.76 96.3971 129.336 96.3633C131.232 96.2956 132.772 95.5677 133.957 94.1797C135.142 92.7917 135.734 90.8281 135.734 88.2891C135.734 86.7656 135.497 85.4622 135.023 84.3789C134.549 83.2617 133.906 82.3477 133.094 81.6367C132.315 80.9258 131.418 80.401 130.402 80.0625C129.387 79.6901 128.337 79.5039 127.254 79.5039C126.915 79.5039 126.492 79.5208 125.984 79.5547C125.51 79.5885 125.24 79.6224 125.172 79.6562V96.2109ZM157.641 95.8555V109.922C157.641 110.599 157.658 111.124 157.692 111.496C157.76 111.868 157.912 112.139 158.149 112.309C158.386 112.478 158.742 112.596 159.216 112.664C159.69 112.698 160.35 112.715 161.196 112.715V115.102C160.011 115.102 158.928 115.085 157.946 115.051C156.964 115.017 156.016 115 155.102 115C154.121 115 153.105 115 152.055 115C151.04 115.034 149.94 115.068 148.755 115.102V112.715C149.601 112.715 150.261 112.698 150.735 112.664C151.209 112.63 151.565 112.529 151.802 112.359C152.039 112.156 152.174 111.868 152.208 111.496C152.276 111.124 152.309 110.599 152.309 109.922V97.7344C152.309 96.9219 152.292 96.2786 152.259 95.8047C152.225 95.3307 152.106 94.9753 151.903 94.7383C151.7 94.4674 151.395 94.3151 150.989 94.2812C150.617 94.2135 150.075 94.1797 149.364 94.1797V92.1484C150.583 91.9792 151.649 91.7253 152.563 91.3867C153.477 91.0143 154.341 90.4557 155.153 89.7109H157.946C157.811 90.7266 157.726 91.8099 157.692 92.9609C157.658 94.0781 157.641 95.043 157.641 95.8555ZM154.798 76.2539C155.813 76.2539 156.66 76.6094 157.337 77.3203C158.048 77.9974 158.403 78.776 158.403 79.6562C158.403 80.5026 158.048 81.2643 157.337 81.9414C156.66 82.6185 155.813 82.957 154.798 82.957C154.29 82.957 153.816 82.8724 153.376 82.7031C152.97 82.5 152.597 82.2461 152.259 81.9414C151.92 81.6367 151.649 81.2812 151.446 80.875C151.277 80.4687 151.192 80.0625 151.192 79.6562C151.192 78.776 151.548 77.9974 152.259 77.3203C152.97 76.6094 153.816 76.2539 154.798 76.2539ZM174.521 73.6641H177.314C177.213 74.7135 177.128 75.7969 177.06 76.9141C177.026 78.0312 177.009 78.9622 177.009 79.707V92.9102C177.314 92.6055 177.686 92.2669 178.127 91.8945C178.567 91.5221 179.091 91.1836 179.701 90.8789C180.31 90.5742 181.021 90.3034 181.834 90.0664C182.646 89.7956 183.459 89.6602 184.271 89.6602C185.896 89.6602 187.352 89.9987 188.638 90.6758C189.925 91.319 191.025 92.1992 191.939 93.3164C192.853 94.3997 193.547 95.6523 194.021 97.0742C194.529 98.4622 194.783 99.918 194.783 101.441C194.783 103.337 194.461 105.165 193.818 106.926C193.175 108.652 192.261 110.193 191.076 111.547C189.925 112.867 188.52 113.934 186.861 114.746C185.236 115.525 183.442 115.914 181.478 115.914C179.684 115.914 178.16 115.694 176.908 115.254C175.655 114.848 174.792 114.475 174.318 114.137L173.15 115.711L170.814 114.543C171.085 112.884 171.288 111.242 171.423 109.617C171.559 107.958 171.627 106.299 171.627 104.641V81.7383C171.627 80.8919 171.61 80.2487 171.576 79.8086C171.542 79.3346 171.423 78.9961 171.22 78.793C171.017 78.556 170.679 78.4375 170.205 78.4375C169.765 78.4036 169.138 78.3867 168.326 78.3867V76.3555C170.865 75.9831 172.93 75.0859 174.521 73.6641ZM177.009 96.3633V108.551C177.009 110.074 177.399 111.293 178.177 112.207C178.956 113.087 180.209 113.527 181.935 113.527C183.222 113.527 184.339 113.223 185.287 112.613C186.268 111.97 187.081 111.158 187.724 110.176C188.367 109.194 188.841 108.111 189.146 106.926C189.485 105.741 189.654 104.59 189.654 103.473C189.654 101.949 189.468 100.561 189.095 99.3086C188.757 98.056 188.266 96.9896 187.623 96.1094C187.013 95.1953 186.285 94.5013 185.439 94.0273C184.593 93.5534 183.696 93.3164 182.748 93.3164C182.274 93.3164 181.766 93.401 181.224 93.5703C180.716 93.7396 180.209 93.9766 179.701 94.2812C179.193 94.5521 178.702 94.8737 178.228 95.2461C177.754 95.5846 177.348 95.957 177.009 96.3633ZM220.905 115.102V112.004C219.889 113.121 218.67 114.035 217.248 114.746C215.827 115.457 214.1 115.846 212.069 115.914C211.324 115.914 210.562 115.779 209.784 115.508C209.039 115.271 208.362 114.882 207.752 114.34C207.143 113.764 206.652 113.053 206.28 112.207C205.907 111.361 205.721 110.345 205.721 109.16V95.4492C205.721 94.9076 205.687 94.4844 205.62 94.1797C205.586 93.8411 205.45 93.5872 205.213 93.418C205.01 93.2148 204.689 93.0964 204.248 93.0625C203.842 92.9948 203.267 92.9271 202.522 92.8594V90.8789C203.673 90.8451 205.01 90.7943 206.534 90.7266C208.057 90.625 209.631 90.5065 211.256 90.3711C211.189 91.1497 211.138 92.0299 211.104 93.0117C211.07 93.9935 211.053 94.7721 211.053 95.3477V106.316C211.053 107.603 211.104 108.635 211.205 109.414C211.341 110.159 211.527 110.734 211.764 111.141C212.035 111.547 212.357 111.818 212.729 111.953C213.135 112.089 213.626 112.156 214.202 112.156C215.183 112.156 216.317 111.868 217.604 111.293C218.89 110.717 220.008 109.956 220.955 109.008V95.4492C220.955 94.9076 220.905 94.4844 220.803 94.1797C220.702 93.875 220.515 93.638 220.245 93.4687C219.974 93.2656 219.601 93.1302 219.127 93.0625C218.653 92.9948 218.027 92.9271 217.248 92.8594V90.8789C218.399 90.8451 219.821 90.7943 221.514 90.7266C223.207 90.625 224.866 90.5065 226.491 90.3711C226.423 91.1497 226.372 92.0299 226.338 93.0117C226.304 93.9935 226.288 94.7721 226.288 95.3477V110.633C226.288 111.073 226.304 111.428 226.338 111.699C226.406 111.936 226.541 112.105 226.745 112.207C226.982 112.309 227.337 112.359 227.811 112.359C228.285 112.326 228.945 112.275 229.791 112.207V114.238C229.385 114.34 228.894 114.458 228.319 114.594C227.743 114.695 227.134 114.831 226.491 115C225.881 115.135 225.272 115.288 224.663 115.457C224.053 115.626 223.511 115.796 223.038 115.965C222.462 116.202 221.954 116.168 221.514 115.863C221.108 115.559 220.905 115.305 220.905 115.102Z" fill="white"/>
</g>
<defs>
<filter id="filter0_d_857_12658" x="0" y="0" width="346" height="207" filterUnits="userSpaceOnUse" color-interpolation-filters="sRGB">
<feFlood flood-opacity="0" result="BackgroundImageFix"/>
<feColorMatrix in="SourceAlpha" type="matrix" values="0 0 0 0 0 0 0 0 0 0 0 0 0 0 0 0 0 0 127 0" result="hardAlpha"/>
<feOffset dy="4"/>
<feGaussianBlur stdDeviation="2"/>
<feComposite in2="hardAlpha" operator="out"/>
<feColorMatrix type="matrix" values="0 0 0 0 0 0 0 0 0 0 0 0 0 0 0 0 0 0 0.25 0"/>
<feBlend mode="normal" in2="BackgroundImageFix" result="effect1_dropShadow_857_12658"/>
<feBlend mode="normal" in="SourceGraphic" in2="effect1_dropShadow_857_12658" result="shape"/>
</filter>
</defs>
</svg>
