<svg width="111" height="42" viewBox="0 0 111 42" fill="none" xmlns="http://www.w3.org/2000/svg">
<path d="M10.2422 24.8633V33.2129C10.2422 34.2546 10.291 35.0846 10.3887 35.7031C10.4863 36.2891 10.6816 36.7448 10.9746 37.0703C11.3001 37.3633 11.7721 37.5586 12.3906 37.6562C13.0091 37.7539 13.8392 37.8027 14.8809 37.8027V40.0977C13.9043 40.0651 12.7812 40.0488 11.5117 40.0488C10.2422 40.0488 8.9401 40.0488 7.60547 40.0488C6.27083 40.0488 4.95247 40.0488 3.65039 40.0488C2.34831 40.0814 1.19271 40.1139 0.183594 40.1465V37.8027C1.22526 37.8027 2.05534 37.7539 2.67383 37.6562C3.29232 37.5586 3.76432 37.3633 4.08984 37.0703C4.41536 36.7448 4.62695 36.2728 4.72461 35.6543C4.82227 35.0358 4.87109 34.1895 4.87109 33.1152V9.67773C4.87109 8.70117 4.82227 7.9362 4.72461 7.38281C4.65951 6.82943 4.46419 6.42253 4.13867 6.16211C3.8457 5.86914 3.38997 5.6901 2.77148 5.625C2.18555 5.5599 1.37174 5.52734 0.330078 5.52734V3.28125C1.17643 3.3138 2.18555 3.33008 3.35742 3.33008C4.5293 3.33008 5.71745 3.33008 6.92188 3.33008C8.15885 3.33008 9.33073 3.33008 10.4375 3.33008C11.5443 3.29753 12.4395 3.26497 13.123 3.23242C15.0436 3.23242 16.8014 3.49284 18.3965 4.01367C19.9915 4.53451 21.3587 5.26693 22.498 6.21094C23.6374 7.1224 24.5163 8.24544 25.1348 9.58008C25.7858 10.8822 26.1113 12.3307 26.1113 13.9258C26.1113 15.5208 25.8184 16.9694 25.2324 18.2715C24.6465 19.5736 23.849 20.7129 22.8398 21.6895C21.8307 22.6335 20.6426 23.3822 19.2754 23.9355C17.9408 24.4564 16.5247 24.7493 15.0273 24.8145C14.3438 24.847 13.5625 24.8633 12.6836 24.8633C11.8372 24.8633 11.0234 24.8633 10.2422 24.8633ZM10.2422 21.9336C10.8281 21.9987 11.4954 22.0475 12.2441 22.0801C13.0254 22.1126 13.6927 22.1126 14.2461 22.0801C16.069 22.015 17.5501 21.3151 18.6895 19.9805C19.8288 18.6458 20.3984 16.7578 20.3984 14.3164C20.3984 12.8516 20.1706 11.5983 19.7148 10.5566C19.2591 9.48242 18.6406 8.60352 17.8594 7.91992C17.1107 7.23633 16.248 6.73177 15.2715 6.40625C14.2949 6.04818 13.2858 5.86914 12.2441 5.86914C11.9186 5.86914 11.5117 5.88542 11.0234 5.91797C10.5677 5.95052 10.3073 5.98307 10.2422 6.01562V21.9336ZM41.4629 21.5918V35.1172C41.4629 35.7682 41.4792 36.2728 41.5117 36.6309C41.5768 36.9889 41.7233 37.2493 41.9512 37.4121C42.179 37.5749 42.5208 37.6888 42.9766 37.7539C43.4323 37.7865 44.0671 37.8027 44.8809 37.8027V40.0977C43.7415 40.0977 42.6999 40.0814 41.7559 40.0488C40.8118 40.0163 39.9004 40 39.0215 40C38.0775 40 37.1009 40 36.0918 40C35.1152 40.0326 34.0573 40.0651 32.918 40.0977V37.8027C33.7318 37.8027 34.3665 37.7865 34.8223 37.7539C35.278 37.7214 35.6198 37.6237 35.8477 37.4609C36.0755 37.2656 36.2057 36.9889 36.2383 36.6309C36.3034 36.2728 36.3359 35.7682 36.3359 35.1172V23.3984C36.3359 22.6172 36.3197 21.9987 36.2871 21.543C36.2546 21.0872 36.1406 20.7454 35.9453 20.5176C35.75 20.2572 35.457 20.1107 35.0664 20.0781C34.7083 20.013 34.1875 19.9805 33.5039 19.9805V18.0273C34.6758 17.8646 35.7012 17.6204 36.5801 17.2949C37.459 16.9368 38.2891 16.3997 39.0703 15.6836H41.7559C41.6257 16.6602 41.5443 17.7018 41.5117 18.8086C41.4792 19.8828 41.4629 20.8105 41.4629 21.5918ZM38.7285 2.74414C39.7051 2.74414 40.5189 3.08594 41.1699 3.76953C41.8535 4.42057 42.1953 5.16927 42.1953 6.01562C42.1953 6.82943 41.8535 7.56185 41.1699 8.21289C40.5189 8.86393 39.7051 9.18945 38.7285 9.18945C38.2402 9.18945 37.7845 9.10807 37.3613 8.94531C36.9707 8.75 36.6126 8.50586 36.2871 8.21289C35.9616 7.91992 35.7012 7.57812 35.5059 7.1875C35.3431 6.79688 35.2617 6.40625 35.2617 6.01562C35.2617 5.16927 35.6035 4.42057 36.2871 3.76953C36.9707 3.08594 37.7845 2.74414 38.7285 2.74414ZM57.6934 0.253906H60.3789C60.2812 1.26302 60.1999 2.30469 60.1348 3.37891C60.1022 4.45312 60.0859 5.34831 60.0859 6.06445V18.7598C60.3789 18.4668 60.737 18.1413 61.1602 17.7832C61.5833 17.4251 62.0879 17.0996 62.6738 16.8066C63.2598 16.5137 63.9434 16.2533 64.7246 16.0254C65.5059 15.765 66.2871 15.6348 67.0684 15.6348C68.6309 15.6348 70.0306 15.9603 71.2676 16.6113C72.5046 17.2298 73.5625 18.0762 74.4414 19.1504C75.3203 20.1921 75.9876 21.3965 76.4434 22.7637C76.9316 24.0983 77.1758 25.498 77.1758 26.9629C77.1758 28.7858 76.8665 30.5436 76.248 32.2363C75.6296 33.8965 74.7507 35.3776 73.6113 36.6797C72.5046 37.9492 71.1536 38.9746 69.5586 39.7559C67.9961 40.5046 66.2708 40.8789 64.3828 40.8789C62.6576 40.8789 61.1927 40.6673 59.9883 40.2441C58.7839 39.8535 57.9538 39.4954 57.498 39.1699L56.375 40.6836L54.1289 39.5605C54.3893 37.9655 54.5846 36.3867 54.7148 34.8242C54.8451 33.2292 54.9102 31.6341 54.9102 30.0391V8.01758C54.9102 7.20378 54.8939 6.58529 54.8613 6.16211C54.8288 5.70638 54.7148 5.38086 54.5195 5.18555C54.3242 4.95768 53.9987 4.84375 53.543 4.84375C53.1198 4.8112 52.5176 4.79492 51.7363 4.79492V2.8418C54.1777 2.48372 56.1634 1.62109 57.6934 0.253906ZM60.0859 22.0801V33.7988C60.0859 35.2637 60.4603 36.4355 61.209 37.3145C61.9577 38.1608 63.1621 38.584 64.8223 38.584C66.0592 38.584 67.1335 38.291 68.0449 37.7051C68.9889 37.0866 69.7702 36.3053 70.3887 35.3613C71.0072 34.4173 71.4629 33.3757 71.7559 32.2363C72.0814 31.097 72.2441 29.9902 72.2441 28.916C72.2441 27.4512 72.0651 26.1165 71.707 24.9121C71.3815 23.7077 70.9095 22.6823 70.291 21.8359C69.7051 20.957 69.0052 20.2897 68.1914 19.834C67.3776 19.3783 66.515 19.1504 65.6035 19.1504C65.1478 19.1504 64.6595 19.2318 64.1387 19.3945C63.6504 19.5573 63.1621 19.7852 62.6738 20.0781C62.1855 20.3385 61.7135 20.6478 61.2578 21.0059C60.8021 21.3314 60.4115 21.6895 60.0859 22.0801ZM102.293 40.0977V37.1191C101.316 38.1934 100.145 39.0723 98.7773 39.7559C97.4102 40.4395 95.75 40.8138 93.7969 40.8789C93.0807 40.8789 92.3483 40.7487 91.5996 40.4883C90.8835 40.2604 90.2324 39.8861 89.6465 39.3652C89.0605 38.8118 88.5885 38.1283 88.2305 37.3145C87.8724 36.5007 87.6934 35.5241 87.6934 34.3848V21.2012C87.6934 20.6803 87.6608 20.2734 87.5957 19.9805C87.5632 19.6549 87.4329 19.4108 87.2051 19.248C87.0098 19.0527 86.7005 18.9388 86.2773 18.9062C85.8867 18.8411 85.3333 18.776 84.6172 18.7109V16.8066C85.724 16.7741 87.0098 16.7253 88.4746 16.6602C89.9395 16.5625 91.4531 16.4486 93.0156 16.3184C92.9505 17.0671 92.9017 17.9134 92.8691 18.8574C92.8366 19.8014 92.8203 20.5501 92.8203 21.1035V31.6504C92.8203 32.8874 92.8691 33.8802 92.9668 34.6289C93.097 35.3451 93.276 35.8984 93.5039 36.2891C93.7643 36.6797 94.0736 36.9401 94.4316 37.0703C94.8223 37.2005 95.2943 37.2656 95.8477 37.2656C96.7917 37.2656 97.8822 36.9889 99.1191 36.4355C100.356 35.8822 101.43 35.1497 102.342 34.2383V21.2012C102.342 20.6803 102.293 20.2734 102.195 19.9805C102.098 19.6875 101.919 19.4596 101.658 19.2969C101.398 19.1016 101.04 18.9714 100.584 18.9062C100.128 18.8411 99.526 18.776 98.7773 18.7109V16.8066C99.8841 16.7741 101.251 16.7253 102.879 16.6602C104.507 16.5625 106.102 16.4486 107.664 16.3184C107.599 17.0671 107.55 17.9134 107.518 18.8574C107.485 19.8014 107.469 20.5501 107.469 21.1035V35.8008C107.469 36.224 107.485 36.5658 107.518 36.8262C107.583 37.054 107.713 37.2168 107.908 37.3145C108.136 37.4121 108.478 37.4609 108.934 37.4609C109.389 37.4284 110.024 37.3796 110.838 37.3145V39.2676C110.447 39.3652 109.975 39.4792 109.422 39.6094C108.868 39.707 108.283 39.8372 107.664 40C107.078 40.1302 106.492 40.2767 105.906 40.4395C105.32 40.6022 104.799 40.765 104.344 40.9277C103.79 41.1556 103.302 41.123 102.879 40.8301C102.488 40.5371 102.293 40.293 102.293 40.0977Z" fill="#64767D"/>
</svg>
