<svg width="135" height="63" viewBox="0 0 135 63" fill="none" xmlns="http://www.w3.org/2000/svg">
<path d="M12.1016 18.8203C11.9844 19.9922 11.9062 20.7539 11.8672 21.1055C11.8672 21.418 11.8477 21.9453 11.8086 22.6875C12.3555 22.1797 12.9023 21.7109 13.4492 21.2812C14.0352 20.8125 14.6406 20.4023 15.2656 20.0508C15.9297 19.6602 16.6914 19.3477 17.5508 19.1133C18.4102 18.8789 19.3477 18.7617 20.3633 18.7617C22.1602 18.7617 23.7812 19.1719 25.2266 19.9922C26.7109 20.7734 27.9805 21.8281 29.0352 23.1562C30.0898 24.4453 30.8906 25.9102 31.4375 27.5508C32.0234 29.1914 32.3164 30.8516 32.3164 32.5312C32.3164 34.7188 31.9258 36.8086 31.1445 38.8008C30.4023 40.793 29.3281 42.5508 27.9219 44.0742C26.5547 45.5977 24.8945 46.8086 22.9414 47.707C20.9883 48.6055 18.8203 49.0547 16.4375 49.0547C15.9297 49.0547 15.4219 49.0156 14.9141 48.9375C14.4062 48.8594 13.918 48.7422 13.4492 48.5859C13.0195 48.4688 12.6484 48.332 12.3359 48.1758C12.0234 48.0586 11.8477 47.9805 11.8086 47.9414V55.8516C11.8086 56.6328 11.8477 57.2578 11.9258 57.7266C12.043 58.1953 12.2773 58.5469 12.6289 58.7812C13.0195 59.0547 13.5859 59.2305 14.3281 59.3086C15.0703 59.3867 16.1055 59.4258 17.4336 59.4258V62.3555C16.6133 62.3164 15.4219 62.2773 13.8594 62.2383C12.2969 62.1992 10.6758 62.1797 8.99609 62.1797C7.31641 62.1797 5.69531 62.1992 4.13281 62.2383C2.60938 62.2773 1.45703 62.3164 0.675781 62.3555V59.4258C1.80859 59.4258 2.70703 59.3867 3.37109 59.3086C4.03516 59.2305 4.52344 59.0547 4.83594 58.7812C5.1875 58.5469 5.40234 58.1758 5.48047 57.668C5.55859 57.1992 5.59766 56.5352 5.59766 55.6758V28.0781C5.59766 27.1406 5.57812 26.3984 5.53906 25.8516C5.5 25.3047 5.36328 24.8945 5.12891 24.6211C4.89453 24.3086 4.54297 24.1328 4.07422 24.0938C3.64453 24.0156 3.01953 23.9766 2.19922 23.9766V21.6328C3.60547 21.4375 4.83594 21.1445 5.89062 20.7539C6.94531 20.3242 7.94141 19.6797 8.87891 18.8203H12.1016ZM11.8086 42.3164C12.0039 42.668 12.2578 43.0586 12.5703 43.4883C12.8828 43.918 13.2734 44.3281 13.7422 44.7188C14.2109 45.0703 14.7578 45.3633 15.3828 45.5977C16.0469 45.832 16.8281 45.9492 17.7266 45.9492C19.0938 45.9492 20.3047 45.6172 21.3594 44.9531C22.4141 44.2891 23.293 43.4297 23.9961 42.375C24.6992 41.3203 25.2266 40.1484 25.5781 38.8594C25.9688 37.5312 26.1641 36.2227 26.1641 34.9336C26.1641 33.3711 26.0078 31.8867 25.6953 30.4805C25.4219 29.0352 24.9531 27.7852 24.2891 26.7305C23.625 25.6367 22.7656 24.7773 21.7109 24.1523C20.6953 23.5273 19.4453 23.2148 17.9609 23.2148C17.4922 23.2148 16.9453 23.332 16.3203 23.5664C15.6953 23.7617 15.0703 24.0156 14.4453 24.3281C13.8594 24.6406 13.3125 24.9727 12.8047 25.3242C12.3359 25.6367 12.0039 25.9102 11.8086 26.1445V42.3164ZM51.3242 25.9102V42.1406C51.3242 42.9219 51.3438 43.5273 51.3828 43.957C51.4609 44.3867 51.6367 44.6992 51.9102 44.8945C52.1836 45.0898 52.5938 45.2266 53.1406 45.3047C53.6875 45.3438 54.4492 45.3633 55.4258 45.3633V48.1172C54.0586 48.1172 52.8086 48.0977 51.6758 48.0586C50.543 48.0195 49.4492 48 48.3945 48C47.2617 48 46.0898 48 44.8789 48C43.707 48.0391 42.4375 48.0781 41.0703 48.1172V45.3633C42.0469 45.3633 42.8086 45.3438 43.3555 45.3047C43.9023 45.2656 44.3125 45.1484 44.5859 44.9531C44.8594 44.7188 45.0156 44.3867 45.0547 43.957C45.1328 43.5273 45.1719 42.9219 45.1719 42.1406V28.0781C45.1719 27.1406 45.1523 26.3984 45.1133 25.8516C45.0742 25.3047 44.9375 24.8945 44.7031 24.6211C44.4688 24.3086 44.1172 24.1328 43.6484 24.0938C43.2188 24.0156 42.5938 23.9766 41.7734 23.9766V21.6328C43.1797 21.4375 44.4102 21.1445 45.4648 20.7539C46.5195 20.3242 47.5156 19.6797 48.4531 18.8203H51.6758C51.5195 19.9922 51.4219 21.2422 51.3828 22.5703C51.3438 23.8594 51.3242 24.9727 51.3242 25.9102ZM48.043 3.29297C49.2148 3.29297 50.1914 3.70312 50.9727 4.52344C51.793 5.30469 52.2031 6.20312 52.2031 7.21875C52.2031 8.19531 51.793 9.07422 50.9727 9.85547C50.1914 10.6367 49.2148 11.0273 48.043 11.0273C47.457 11.0273 46.9102 10.9297 46.4023 10.7344C45.9336 10.5 45.5039 10.207 45.1133 9.85547C44.7227 9.50391 44.4102 9.09375 44.1758 8.625C43.9805 8.15625 43.8828 7.6875 43.8828 7.21875C43.8828 6.20312 44.293 5.30469 45.1133 4.52344C45.9336 3.70312 46.9102 3.29297 48.043 3.29297ZM70.8008 0.304688H74.0234C73.9062 1.51562 73.8086 2.76562 73.7305 4.05469C73.6914 5.34375 73.6719 6.41797 73.6719 7.27734V22.5117C74.0234 22.1602 74.4531 21.7695 74.9609 21.3398C75.4688 20.9102 76.0742 20.5195 76.7773 20.168C77.4805 19.8164 78.3008 19.5039 79.2383 19.2305C80.1758 18.918 81.1133 18.7617 82.0508 18.7617C83.9258 18.7617 85.6055 19.1523 87.0898 19.9336C88.5742 20.6758 89.8438 21.6914 90.8984 22.9805C91.9531 24.2305 92.7539 25.6758 93.3008 27.3164C93.8867 28.918 94.1797 30.5977 94.1797 32.3555C94.1797 34.543 93.8086 36.6523 93.0664 38.6836C92.3242 40.6758 91.2695 42.4531 89.9023 44.0156C88.5742 45.5391 86.9531 46.7695 85.0391 47.707C83.1641 48.6055 81.0938 49.0547 78.8281 49.0547C76.7578 49.0547 75 48.8008 73.5547 48.293C72.1094 47.8242 71.1133 47.3945 70.5664 47.0039L69.2188 48.8203L66.5234 47.4727C66.8359 45.5586 67.0703 43.6641 67.2266 41.7891C67.3828 39.875 67.4609 37.9609 67.4609 36.0469V9.62109C67.4609 8.64453 67.4414 7.90234 67.4023 7.39453C67.3633 6.84766 67.2266 6.45703 66.9922 6.22266C66.7578 5.94922 66.3672 5.8125 65.8203 5.8125C65.3125 5.77344 64.5898 5.75391 63.6523 5.75391V3.41016C66.582 2.98047 68.9648 1.94531 70.8008 0.304688ZM73.6719 26.4961V40.5586C73.6719 42.3164 74.1211 43.7227 75.0195 44.7773C75.918 45.793 77.3633 46.3008 79.3555 46.3008C80.8398 46.3008 82.1289 45.9492 83.2227 45.2461C84.3555 44.5039 85.293 43.5664 86.0352 42.4336C86.7773 41.3008 87.3242 40.0508 87.6758 38.6836C88.0664 37.3164 88.2617 35.9883 88.2617 34.6992C88.2617 32.9414 88.0469 31.3398 87.6172 29.8945C87.2266 28.4492 86.6602 27.2188 85.918 26.2031C85.2148 25.1484 84.375 24.3477 83.3984 23.8008C82.4219 23.2539 81.3867 22.9805 80.293 22.9805C79.7461 22.9805 79.1602 23.0781 78.5352 23.2734C77.9492 23.4688 77.3633 23.7422 76.7773 24.0938C76.1914 24.4062 75.625 24.7773 75.0781 25.207C74.5312 25.5977 74.0625 26.0273 73.6719 26.4961ZM124.32 48.1172V44.543C123.148 45.832 121.742 46.8867 120.102 47.707C118.461 48.5273 116.469 48.9766 114.125 49.0547C113.266 49.0547 112.387 48.8984 111.488 48.5859C110.629 48.3125 109.848 47.8633 109.145 47.2383C108.441 46.5742 107.875 45.7539 107.445 44.7773C107.016 43.8008 106.801 42.6289 106.801 41.2617V25.4414C106.801 24.8164 106.762 24.3281 106.684 23.9766C106.645 23.5859 106.488 23.293 106.215 23.0977C105.98 22.8633 105.609 22.7266 105.102 22.6875C104.633 22.6094 103.969 22.5312 103.109 22.4531V20.168C104.438 20.1289 105.98 20.0703 107.738 19.9922C109.496 19.875 111.312 19.7383 113.188 19.582C113.109 20.4805 113.051 21.4961 113.012 22.6289C112.973 23.7617 112.953 24.6602 112.953 25.3242V37.9805C112.953 39.4648 113.012 40.6562 113.129 41.5547C113.285 42.4141 113.5 43.0781 113.773 43.5469C114.086 44.0156 114.457 44.3281 114.887 44.4844C115.355 44.6406 115.922 44.7188 116.586 44.7188C117.719 44.7188 119.027 44.3867 120.512 43.7227C121.996 43.0586 123.285 42.1797 124.379 41.0859V25.4414C124.379 24.8164 124.32 24.3281 124.203 23.9766C124.086 23.625 123.871 23.3516 123.559 23.1562C123.246 22.9219 122.816 22.7656 122.27 22.6875C121.723 22.6094 121 22.5312 120.102 22.4531V20.168C121.43 20.1289 123.07 20.0703 125.023 19.9922C126.977 19.875 128.891 19.7383 130.766 19.582C130.688 20.4805 130.629 21.4961 130.59 22.6289C130.551 23.7617 130.531 24.6602 130.531 25.3242V42.9609C130.531 43.4688 130.551 43.8789 130.59 44.1914C130.668 44.4648 130.824 44.6602 131.059 44.7773C131.332 44.8945 131.742 44.9531 132.289 44.9531C132.836 44.9141 133.598 44.8555 134.574 44.7773V47.1211C134.105 47.2383 133.539 47.375 132.875 47.5312C132.211 47.6484 131.508 47.8047 130.766 48C130.062 48.1562 129.359 48.332 128.656 48.5273C127.953 48.7227 127.328 48.918 126.781 49.1133C126.117 49.3867 125.531 49.3477 125.023 48.9961C124.555 48.6445 124.32 48.3516 124.32 48.1172Z" fill="#64767D"/>
</svg>
