<svg width="255" height="119" viewBox="0 0 255 119" fill="none" xmlns="http://www.w3.org/2000/svg">
<path d="M21.8428 36.0586C21.6201 38.2852 21.4717 39.7324 21.3975 40.4004C21.3975 40.9941 21.3604 41.9961 21.2861 43.4062C22.3252 42.4414 23.3643 41.5508 24.4033 40.7344C25.5166 39.8438 26.667 39.0645 27.8545 38.3965C29.1162 37.6543 30.5635 37.0605 32.1963 36.6152C33.8291 36.1699 35.6104 35.9473 37.54 35.9473C40.9541 35.9473 44.0342 36.7266 46.7803 38.2852C49.6006 39.7695 52.0127 41.7734 54.0166 44.2969C56.0205 46.7461 57.542 49.5293 58.5811 52.6465C59.6943 55.7637 60.251 58.918 60.251 62.1094C60.251 66.2656 59.5088 70.2363 58.0244 74.0215C56.6143 77.8066 54.5732 81.1465 51.9014 84.041C49.3037 86.9355 46.1494 89.2363 42.4385 90.9434C38.7275 92.6504 34.6084 93.5039 30.0811 93.5039C29.1162 93.5039 28.1514 93.4297 27.1865 93.2812C26.2217 93.1328 25.2939 92.9102 24.4033 92.6133C23.5869 92.3906 22.8818 92.1309 22.2881 91.834C21.6943 91.6113 21.3604 91.4629 21.2861 91.3887V106.418C21.2861 107.902 21.3604 109.09 21.5088 109.98C21.7314 110.871 22.1768 111.539 22.8447 111.984C23.5869 112.504 24.6631 112.838 26.0732 112.986C27.4834 113.135 29.4502 113.209 31.9736 113.209V118.775C30.415 118.701 28.1514 118.627 25.1826 118.553C22.2139 118.479 19.1338 118.441 15.9424 118.441C12.751 118.441 9.6709 118.479 6.70215 118.553C3.80762 118.627 1.61816 118.701 0.133789 118.775V113.209C2.28613 113.209 3.99316 113.135 5.25488 112.986C6.5166 112.838 7.44434 112.504 8.03809 111.984C8.70605 111.539 9.11426 110.834 9.2627 109.869C9.41113 108.979 9.48535 107.717 9.48535 106.084V53.6484C9.48535 51.8672 9.44824 50.457 9.37402 49.418C9.2998 48.3789 9.04004 47.5996 8.59473 47.0801C8.14941 46.4863 7.48145 46.1523 6.59082 46.0781C5.77441 45.9297 4.58691 45.8555 3.02832 45.8555V41.4023C5.7002 41.0312 8.03809 40.4746 10.042 39.7324C12.0459 38.916 13.9385 37.6914 15.7197 36.0586H21.8428ZM21.2861 80.7012C21.6572 81.3691 22.1396 82.1113 22.7334 82.9277C23.3271 83.7441 24.0693 84.5234 24.96 85.2656C25.8506 85.9336 26.8896 86.4902 28.0771 86.9355C29.3389 87.3809 30.8232 87.6035 32.5303 87.6035C35.1279 87.6035 37.4287 86.9727 39.4326 85.7109C41.4365 84.4492 43.1064 82.8164 44.4424 80.8125C45.7783 78.8086 46.7803 76.582 47.4482 74.1328C48.1904 71.6094 48.5615 69.123 48.5615 66.6738C48.5615 63.7051 48.2646 60.8848 47.6709 58.2129C47.1514 55.4668 46.2607 53.0918 44.999 51.0879C43.7373 49.0098 42.1045 47.377 40.1006 46.1895C38.1709 45.002 35.7959 44.4082 32.9756 44.4082C32.085 44.4082 31.0459 44.6309 29.8584 45.0762C28.6709 45.4473 27.4834 45.9297 26.2959 46.5234C25.1826 47.1172 24.1436 47.748 23.1787 48.416C22.2881 49.0098 21.6572 49.5293 21.2861 49.9746V80.7012ZM96.3658 49.5293V80.3672C96.3658 81.8516 96.4029 83.002 96.4771 83.8184C96.6256 84.6348 96.9596 85.2285 97.4791 85.5996C97.9986 85.9707 98.7779 86.2305 99.817 86.3789C100.856 86.4531 102.303 86.4902 104.159 86.4902V91.7227C101.561 91.7227 99.1861 91.6855 97.0338 91.6113C94.8814 91.5371 92.8033 91.5 90.7994 91.5C88.6471 91.5 86.4205 91.5 84.1197 91.5C81.8932 91.5742 79.4811 91.6484 76.8834 91.7227V86.4902C78.7389 86.4902 80.1861 86.4531 81.2252 86.3789C82.2643 86.3047 83.0436 86.082 83.5631 85.7109C84.0826 85.2656 84.3795 84.6348 84.4537 83.8184C84.6021 83.002 84.6764 81.8516 84.6764 80.3672V53.6484C84.6764 51.8672 84.6393 50.457 84.565 49.418C84.4908 48.3789 84.2311 47.5996 83.7857 47.0801C83.3404 46.4863 82.6725 46.1523 81.7818 46.0781C80.9654 45.9297 79.7779 45.8555 78.2193 45.8555V41.4023C80.8912 41.0312 83.2291 40.4746 85.233 39.7324C87.2369 38.916 89.1295 37.6914 90.9107 36.0586H97.0338C96.7369 38.2852 96.5514 40.6602 96.4771 43.1836C96.4029 45.6328 96.3658 47.748 96.3658 49.5293ZM90.1314 6.55664C92.358 6.55664 94.2135 7.33594 95.6979 8.89453C97.2564 10.3789 98.0357 12.0859 98.0357 14.0156C98.0357 15.8711 97.2564 17.541 95.6979 19.0254C94.2135 20.5098 92.358 21.252 90.1314 21.252C89.0182 21.252 87.9791 21.0664 87.0143 20.6953C86.1236 20.25 85.3072 19.6934 84.565 19.0254C83.8229 18.3574 83.2291 17.5781 82.7838 16.6875C82.4127 15.7969 82.2271 14.9062 82.2271 14.0156C82.2271 12.0859 83.0064 10.3789 84.565 8.89453C86.1236 7.33594 87.9791 6.55664 90.1314 6.55664ZM133.371 0.878906H139.494C139.272 3.17969 139.086 5.55469 138.938 8.00391C138.863 10.4531 138.826 12.4941 138.826 14.127V43.0723C139.494 42.4043 140.311 41.6621 141.276 40.8457C142.24 40.0293 143.391 39.2871 144.727 38.6191C146.063 37.9512 147.621 37.3574 149.403 36.8379C151.184 36.2441 152.965 35.9473 154.746 35.9473C158.309 35.9473 161.5 36.6895 164.321 38.1738C167.141 39.584 169.553 41.5137 171.557 43.9629C173.561 46.3379 175.082 49.084 176.121 52.2012C177.235 55.2441 177.791 58.4355 177.791 61.7754C177.791 65.9316 177.086 69.9395 175.676 73.7988C174.266 77.584 172.262 80.9609 169.664 83.9297C167.141 86.8242 164.061 89.1621 160.424 90.9434C156.862 92.6504 152.928 93.5039 148.623 93.5039C144.69 93.5039 141.35 93.0215 138.604 92.0566C135.858 91.166 133.965 90.3496 132.926 89.6074L130.365 93.0586L125.244 90.498C125.838 86.8613 126.283 83.2617 126.58 79.6992C126.877 76.0625 127.026 72.4258 127.026 68.7891V18.5801C127.026 16.7246 126.988 15.3145 126.914 14.3496C126.84 13.3105 126.58 12.5684 126.135 12.123C125.69 11.6035 124.947 11.3438 123.908 11.3438C122.944 11.2695 121.571 11.2324 119.789 11.2324V6.7793C125.356 5.96289 129.883 3.99609 133.371 0.878906ZM138.826 50.6426V77.3613C138.826 80.7012 139.68 83.373 141.387 85.377C143.094 87.3066 145.84 88.2715 149.625 88.2715C152.446 88.2715 154.895 87.6035 156.973 86.2676C159.125 84.8574 160.906 83.0762 162.317 80.9238C163.727 78.7715 164.766 76.3965 165.434 73.7988C166.176 71.2012 166.547 68.6777 166.547 66.2285C166.547 62.8887 166.139 59.8457 165.322 57.0996C164.58 54.3535 163.504 52.0156 162.094 50.0859C160.758 48.082 159.162 46.5605 157.307 45.5215C155.451 44.4824 153.485 43.9629 151.406 43.9629C150.367 43.9629 149.254 44.1484 148.067 44.5195C146.953 44.8906 145.84 45.4102 144.727 46.0781C143.613 46.6719 142.537 47.377 141.498 48.1934C140.459 48.9355 139.569 49.752 138.826 50.6426ZM235.058 91.7227V84.9316C232.832 87.3809 230.16 89.3848 227.043 90.9434C223.926 92.502 220.14 93.3555 215.687 93.5039C214.054 93.5039 212.385 93.207 210.678 92.6133C209.045 92.0938 207.56 91.2402 206.224 90.0527C204.888 88.791 203.812 87.2324 202.996 85.377C202.179 83.5215 201.771 81.2949 201.771 78.6973V48.6387C201.771 47.4512 201.697 46.5234 201.549 45.8555C201.474 45.1133 201.178 44.5566 200.658 44.1855C200.213 43.7402 199.508 43.4805 198.543 43.4062C197.652 43.2578 196.39 43.1094 194.758 42.9609V38.6191C197.281 38.5449 200.213 38.4336 203.553 38.2852C206.892 38.0625 210.344 37.8027 213.906 37.5059C213.758 39.2129 213.646 41.1426 213.572 43.2949C213.498 45.4473 213.461 47.1543 213.461 48.416V72.4629C213.461 75.2832 213.572 77.5469 213.795 79.2539C214.092 80.8867 214.5 82.1484 215.019 83.0391C215.613 83.9297 216.318 84.5234 217.135 84.8203C218.025 85.1172 219.101 85.2656 220.363 85.2656C222.515 85.2656 225.002 84.6348 227.822 83.373C230.642 82.1113 233.092 80.4414 235.17 78.3633V48.6387C235.17 47.4512 235.058 46.5234 234.836 45.8555C234.613 45.1875 234.205 44.668 233.611 44.2969C233.017 43.8516 232.201 43.5547 231.162 43.4062C230.123 43.2578 228.75 43.1094 227.043 42.9609V38.6191C229.566 38.5449 232.683 38.4336 236.394 38.2852C240.105 38.0625 243.742 37.8027 247.304 37.5059C247.156 39.2129 247.045 41.1426 246.971 43.2949C246.896 45.4473 246.859 47.1543 246.859 48.416V81.9258C246.859 82.8906 246.896 83.6699 246.971 84.2637C247.119 84.7832 247.416 85.1543 247.861 85.377C248.381 85.5996 249.16 85.7109 250.199 85.7109C251.238 85.6367 252.685 85.5254 254.541 85.377V89.8301C253.65 90.0527 252.574 90.3125 251.312 90.6094C250.051 90.832 248.715 91.1289 247.304 91.5C245.969 91.7969 244.633 92.1309 243.297 92.502C241.961 92.873 240.773 93.2441 239.734 93.6152C238.472 94.1348 237.359 94.0605 236.394 93.3926C235.504 92.7246 235.058 92.168 235.058 91.7227Z" fill="#64767D"/>
</svg>
