<svg width="341" height="252" viewBox="0 0 341 252" fill="none" xmlns="http://www.w3.org/2000/svg">
<path d="M229.304 227.938L231.609 224.767C304.512 261.835 374.434 165.909 321.046 126.264L313.873 121.248C326.111 113.554 342.638 95.4169 326.442 57.1763C309.108 16.2488 219.892 -12.7882 181.381 22.4707C149.16 -14.4425 44.7951 -1.89036 24.0289 46.8934C7.68144 85.2978 23.2949 104.08 34.0238 111.854C3.44894 131.312 4.99873 171.652 47.6021 187.299C43.5981 234.122 189.759 280.385 229.304 227.938Z" fill="#B6BE8F"/>
<circle cx="28.125" cy="213.538" r="9.375" fill="#B6BE8F"/>
<circle cx="6.25" cy="229.163" r="6.25" fill="#B6BE8F"/>
<path d="M86.552 92.954V105.5H84.914V99.812H78.524V105.5H76.886V92.954H78.524V98.462H84.914V92.954H86.552ZM93.8309 105.662C92.9069 105.662 92.0669 105.452 91.3109 105.032C90.5669 104.612 89.9789 104.018 89.5469 103.25C89.1269 102.47 88.9169 101.57 88.9169 100.55C88.9169 99.542 89.1329 98.654 89.5649 97.886C90.0089 97.106 90.6089 96.512 91.3649 96.104C92.1209 95.684 92.9669 95.474 93.9029 95.474C94.8389 95.474 95.6849 95.684 96.4409 96.104C97.1969 96.512 97.7909 97.1 98.2229 97.868C98.6669 98.636 98.8889 99.53 98.8889 100.55C98.8889 101.57 98.6609 102.47 98.2049 103.25C97.7609 104.018 97.1549 104.612 96.3869 105.032C95.6189 105.452 94.7669 105.662 93.8309 105.662ZM93.8309 104.222C94.4189 104.222 94.9709 104.084 95.4869 103.808C96.0029 103.532 96.4169 103.118 96.7289 102.566C97.0529 102.014 97.2149 101.342 97.2149 100.55C97.2149 99.758 97.0589 99.086 96.7469 98.534C96.4349 97.982 96.0269 97.574 95.5229 97.31C95.0189 97.034 94.4729 96.896 93.8849 96.896C93.2849 96.896 92.7329 97.034 92.2289 97.31C91.7369 97.574 91.3409 97.982 91.0409 98.534C90.7409 99.086 90.5909 99.758 90.5909 100.55C90.5909 101.354 90.7349 102.032 91.0229 102.584C91.3229 103.136 91.7189 103.55 92.2109 103.826C92.7029 104.09 93.2429 104.222 93.8309 104.222ZM114.363 95.636L111.285 105.5H109.593L107.217 97.67L104.841 105.5H103.149L100.053 95.636H101.727L103.995 103.916L106.443 95.636H108.117L110.511 103.934L112.743 95.636H114.363ZM120.535 100.55C120.535 99.53 120.739 98.642 121.147 97.886C121.555 97.118 122.119 96.524 122.839 96.104C123.571 95.684 124.405 95.474 125.341 95.474C126.553 95.474 127.549 95.768 128.329 96.356C129.121 96.944 129.643 97.76 129.895 98.804H128.131C127.963 98.204 127.633 97.73 127.141 97.382C126.661 97.034 126.061 96.86 125.341 96.86C124.405 96.86 123.649 97.184 123.073 97.832C122.497 98.468 122.209 99.374 122.209 100.55C122.209 101.738 122.497 102.656 123.073 103.304C123.649 103.952 124.405 104.276 125.341 104.276C126.061 104.276 126.661 104.108 127.141 103.772C127.621 103.436 127.951 102.956 128.131 102.332H129.895C129.631 103.34 129.103 104.15 128.311 104.762C127.519 105.362 126.529 105.662 125.341 105.662C124.405 105.662 123.571 105.452 122.839 105.032C122.119 104.612 121.555 104.018 121.147 103.25C120.739 102.482 120.535 101.582 120.535 100.55ZM131.649 100.532C131.649 99.524 131.853 98.642 132.261 97.886C132.669 97.118 133.227 96.524 133.935 96.104C134.655 95.684 135.453 95.474 136.329 95.474C137.193 95.474 137.943 95.66 138.579 96.032C139.215 96.404 139.689 96.872 140.001 97.436V95.636H141.657V105.5H140.001V103.664C139.677 104.24 139.191 104.72 138.543 105.104C137.907 105.476 137.163 105.662 136.311 105.662C135.435 105.662 134.643 105.446 133.935 105.014C133.227 104.582 132.669 103.976 132.261 103.196C131.853 102.416 131.649 101.528 131.649 100.532ZM140.001 100.55C140.001 99.806 139.851 99.158 139.551 98.606C139.251 98.054 138.843 97.634 138.327 97.346C137.823 97.046 137.265 96.896 136.653 96.896C136.041 96.896 135.483 97.04 134.979 97.328C134.475 97.616 134.073 98.036 133.773 98.588C133.473 99.14 133.323 99.788 133.323 100.532C133.323 101.288 133.473 101.948 133.773 102.512C134.073 103.064 134.475 103.49 134.979 103.79C135.483 104.078 136.041 104.222 136.653 104.222C137.265 104.222 137.823 104.078 138.327 103.79C138.843 103.49 139.251 103.064 139.551 102.512C139.851 101.948 140.001 101.294 140.001 100.55ZM149.411 95.456C150.611 95.456 151.583 95.822 152.327 96.554C153.071 97.274 153.443 98.318 153.443 99.686V105.5H151.823V99.92C151.823 98.936 151.577 98.186 151.085 97.67C150.593 97.142 149.921 96.878 149.069 96.878C148.205 96.878 147.515 97.148 146.999 97.688C146.495 98.228 146.243 99.014 146.243 100.046V105.5H144.605V95.636H146.243V97.04C146.567 96.536 147.005 96.146 147.557 95.87C148.121 95.594 148.739 95.456 149.411 95.456ZM162.915 92.954V105.5H161.277V92.954H162.915ZM174.358 105.662C173.602 105.662 172.924 105.536 172.324 105.284C171.724 105.02 171.25 104.66 170.902 104.204C170.554 103.736 170.362 103.202 170.326 102.602H172.018C172.066 103.094 172.294 103.496 172.702 103.808C173.122 104.12 173.668 104.276 174.34 104.276C174.964 104.276 175.456 104.138 175.816 103.862C176.176 103.586 176.356 103.238 176.356 102.818C176.356 102.386 176.164 102.068 175.78 101.864C175.396 101.648 174.802 101.438 173.998 101.234C173.266 101.042 172.666 100.85 172.198 100.658C171.742 100.454 171.346 100.16 171.01 99.776C170.686 99.38 170.524 98.864 170.524 98.228C170.524 97.724 170.674 97.262 170.974 96.842C171.274 96.422 171.7 96.092 172.252 95.852C172.804 95.6 173.434 95.474 174.142 95.474C175.234 95.474 176.116 95.75 176.788 96.302C177.46 96.854 177.82 97.61 177.868 98.57H176.23C176.194 98.054 175.984 97.64 175.6 97.328C175.228 97.016 174.724 96.86 174.088 96.86C173.5 96.86 173.032 96.986 172.684 97.238C172.336 97.49 172.162 97.82 172.162 98.228C172.162 98.552 172.264 98.822 172.468 99.038C172.684 99.242 172.948 99.41 173.26 99.542C173.584 99.662 174.028 99.8 174.592 99.956C175.3 100.148 175.876 100.34 176.32 100.532C176.764 100.712 177.142 100.988 177.454 101.36C177.778 101.732 177.946 102.218 177.958 102.818C177.958 103.358 177.808 103.844 177.508 104.276C177.208 104.708 176.782 105.05 176.23 105.302C175.69 105.542 175.066 105.662 174.358 105.662ZM182.448 96.986V102.8C182.448 103.28 182.55 103.622 182.754 103.826C182.958 104.018 183.312 104.114 183.816 104.114H185.022V105.5H183.546C182.634 105.5 181.95 105.29 181.494 104.87C181.038 104.45 180.81 103.76 180.81 102.8V96.986H179.532V95.636H180.81V93.152H182.448V95.636H185.022V96.986H182.448ZM188.825 97.238C189.113 96.674 189.521 96.236 190.049 95.924C190.589 95.612 191.243 95.456 192.011 95.456V97.148H191.579C189.743 97.148 188.825 98.144 188.825 100.136V105.5H187.187V95.636H188.825V97.238ZM202.829 95.636V105.5H201.191V104.042C200.879 104.546 200.441 104.942 199.877 105.23C199.325 105.506 198.713 105.644 198.041 105.644C197.273 105.644 196.583 105.488 195.971 105.176C195.359 104.852 194.873 104.372 194.513 103.736C194.165 103.1 193.991 102.326 193.991 101.414V95.636H195.611V101.198C195.611 102.17 195.857 102.92 196.349 103.448C196.841 103.964 197.513 104.222 198.365 104.222C199.241 104.222 199.931 103.952 200.435 103.412C200.939 102.872 201.191 102.086 201.191 101.054V95.636H202.829ZM205.163 100.55C205.163 99.53 205.367 98.642 205.775 97.886C206.183 97.118 206.747 96.524 207.467 96.104C208.199 95.684 209.033 95.474 209.969 95.474C211.181 95.474 212.177 95.768 212.957 96.356C213.749 96.944 214.271 97.76 214.523 98.804H212.759C212.591 98.204 212.261 97.73 211.769 97.382C211.289 97.034 210.689 96.86 209.969 96.86C209.033 96.86 208.277 97.184 207.701 97.832C207.125 98.468 206.837 99.374 206.837 100.55C206.837 101.738 207.125 102.656 207.701 103.304C208.277 103.952 209.033 104.276 209.969 104.276C210.689 104.276 211.289 104.108 211.769 103.772C212.249 103.436 212.579 102.956 212.759 102.332H214.523C214.259 103.34 213.731 104.15 212.939 104.762C212.147 105.362 211.157 105.662 209.969 105.662C209.033 105.662 208.199 105.452 207.467 105.032C206.747 104.612 206.183 104.018 205.775 103.25C205.367 102.482 205.163 101.582 205.163 100.55ZM218.887 96.986V102.8C218.887 103.28 218.989 103.622 219.193 103.826C219.397 104.018 219.751 104.114 220.255 104.114H221.461V105.5H219.985C219.073 105.5 218.389 105.29 217.933 104.87C217.477 104.45 217.249 103.76 217.249 102.8V96.986H215.971V95.636H217.249V93.152H218.887V95.636H221.461V96.986H218.887ZM232.373 95.636V105.5H230.735V104.042C230.423 104.546 229.985 104.942 229.421 105.23C228.869 105.506 228.257 105.644 227.585 105.644C226.817 105.644 226.127 105.488 225.515 105.176C224.903 104.852 224.417 104.372 224.057 103.736C223.709 103.1 223.535 102.326 223.535 101.414V95.636H225.155V101.198C225.155 102.17 225.401 102.92 225.893 103.448C226.385 103.964 227.057 104.222 227.909 104.222C228.785 104.222 229.475 103.952 229.979 103.412C230.483 102.872 230.735 102.086 230.735 101.054V95.636H232.373ZM236.957 97.238C237.245 96.674 237.653 96.236 238.181 95.924C238.721 95.612 239.375 95.456 240.143 95.456V97.148H239.711C237.875 97.148 236.957 98.144 236.957 100.136V105.5H235.319V95.636H236.957V97.238ZM251.214 100.19C251.214 100.502 251.196 100.832 251.16 101.18H243.276C243.336 102.152 243.666 102.914 244.266 103.466C244.878 104.006 245.616 104.276 246.48 104.276C247.188 104.276 247.776 104.114 248.244 103.79C248.724 103.454 249.06 103.01 249.252 102.458H251.016C250.752 103.406 250.224 104.18 249.432 104.78C248.64 105.368 247.656 105.662 246.48 105.662C245.544 105.662 244.704 105.452 243.96 105.032C243.228 104.612 242.652 104.018 242.232 103.25C241.812 102.47 241.602 101.57 241.602 100.55C241.602 99.53 241.806 98.636 242.214 97.868C242.622 97.1 243.192 96.512 243.924 96.104C244.668 95.684 245.52 95.474 246.48 95.474C247.416 95.474 248.244 95.678 248.964 96.086C249.684 96.494 250.236 97.058 250.62 97.778C251.016 98.486 251.214 99.29 251.214 100.19ZM249.522 99.848C249.522 99.224 249.384 98.69 249.108 98.246C248.832 97.79 248.454 97.448 247.974 97.22C247.506 96.98 246.984 96.86 246.408 96.86C245.58 96.86 244.872 97.124 244.284 97.652C243.708 98.18 243.378 98.912 243.294 99.848H249.522ZM78.884 123.986V129.8C78.884 130.28 78.986 130.622 79.19 130.826C79.394 131.018 79.748 131.114 80.252 131.114H81.458V132.5H79.982C79.07 132.5 78.386 132.29 77.93 131.87C77.474 131.45 77.246 130.76 77.246 129.8V123.986H75.968V122.636H77.246V120.152H78.884V122.636H81.458V123.986H78.884ZM88.5186 122.456C89.2626 122.456 89.9346 122.618 90.5346 122.942C91.1346 123.254 91.6026 123.728 91.9386 124.364C92.2866 125 92.4606 125.774 92.4606 126.686V132.5H90.8406V126.92C90.8406 125.936 90.5946 125.186 90.1026 124.67C89.6106 124.142 88.9386 123.878 88.0866 123.878C87.2226 123.878 86.5326 124.148 86.0166 124.688C85.5126 125.228 85.2606 126.014 85.2606 127.046V132.5H83.6226V119.18H85.2606V124.04C85.5846 123.536 86.0286 123.146 86.5926 122.87C87.1686 122.594 87.8106 122.456 88.5186 122.456ZM104.316 127.19C104.316 127.502 104.298 127.832 104.262 128.18H96.3783C96.4383 129.152 96.7683 129.914 97.3683 130.466C97.9803 131.006 98.7183 131.276 99.5823 131.276C100.29 131.276 100.878 131.114 101.346 130.79C101.826 130.454 102.162 130.01 102.354 129.458H104.118C103.854 130.406 103.326 131.18 102.534 131.78C101.742 132.368 100.758 132.662 99.5823 132.662C98.6463 132.662 97.8063 132.452 97.0623 132.032C96.3303 131.612 95.7543 131.018 95.3343 130.25C94.9143 129.47 94.7043 128.57 94.7043 127.55C94.7043 126.53 94.9083 125.636 95.3163 124.868C95.7243 124.1 96.2943 123.512 97.0263 123.104C97.7703 122.684 98.6223 122.474 99.5823 122.474C100.518 122.474 101.346 122.678 102.066 123.086C102.786 123.494 103.338 124.058 103.722 124.778C104.118 125.486 104.316 126.29 104.316 127.19ZM102.624 126.848C102.624 126.224 102.486 125.69 102.21 125.246C101.934 124.79 101.556 124.448 101.076 124.22C100.608 123.98 100.086 123.86 99.5103 123.86C98.6823 123.86 97.9743 124.124 97.3863 124.652C96.8103 125.18 96.4803 125.912 96.3963 126.848H102.624ZM124.777 122.636L121.699 132.5H120.007L117.631 124.67L115.255 132.5H113.563L110.467 122.636H112.141L114.409 130.916L116.857 122.636H118.531L120.925 130.934L123.157 122.636H124.777ZM135.583 127.19C135.583 127.502 135.565 127.832 135.529 128.18H127.645C127.705 129.152 128.035 129.914 128.635 130.466C129.247 131.006 129.985 131.276 130.849 131.276C131.557 131.276 132.145 131.114 132.613 130.79C133.093 130.454 133.429 130.01 133.621 129.458H135.385C135.121 130.406 134.593 131.18 133.801 131.78C133.009 132.368 132.025 132.662 130.849 132.662C129.913 132.662 129.073 132.452 128.329 132.032C127.597 131.612 127.021 131.018 126.601 130.25C126.181 129.47 125.971 128.57 125.971 127.55C125.971 126.53 126.175 125.636 126.583 124.868C126.991 124.1 127.561 123.512 128.293 123.104C129.037 122.684 129.889 122.474 130.849 122.474C131.785 122.474 132.613 122.678 133.333 123.086C134.053 123.494 134.605 124.058 134.989 124.778C135.385 125.486 135.583 126.29 135.583 127.19ZM133.891 126.848C133.891 126.224 133.753 125.69 133.477 125.246C133.201 124.79 132.823 124.448 132.343 124.22C131.875 123.98 131.353 123.86 130.777 123.86C129.949 123.86 129.241 124.124 128.653 124.652C128.077 125.18 127.747 125.912 127.663 126.848H133.891ZM139.563 124.472C139.899 123.884 140.391 123.404 141.039 123.032C141.687 122.66 142.425 122.474 143.253 122.474C144.141 122.474 144.939 122.684 145.647 123.104C146.355 123.524 146.913 124.118 147.321 124.886C147.729 125.642 147.933 126.524 147.933 127.532C147.933 128.528 147.729 129.416 147.321 130.196C146.913 130.976 146.349 131.582 145.629 132.014C144.921 132.446 144.129 132.662 143.253 132.662C142.401 132.662 141.651 132.476 141.003 132.104C140.367 131.732 139.887 131.258 139.563 130.682V132.5H137.925V119.18H139.563V124.472ZM146.259 127.532C146.259 126.788 146.109 126.14 145.809 125.588C145.509 125.036 145.101 124.616 144.585 124.328C144.081 124.04 143.523 123.896 142.911 123.896C142.311 123.896 141.753 124.046 141.237 124.346C140.733 124.634 140.325 125.06 140.013 125.624C139.713 126.176 139.563 126.818 139.563 127.55C139.563 128.294 139.713 128.948 140.013 129.512C140.325 130.064 140.733 130.49 141.237 130.79C141.753 131.078 142.311 131.222 142.911 131.222C143.523 131.222 144.081 131.078 144.585 130.79C145.101 130.49 145.509 130.064 145.809 129.512C146.109 128.948 146.259 128.288 146.259 127.532ZM153.761 132.662C153.005 132.662 152.327 132.536 151.727 132.284C151.127 132.02 150.653 131.66 150.305 131.204C149.957 130.736 149.765 130.202 149.729 129.602H151.421C151.469 130.094 151.697 130.496 152.105 130.808C152.525 131.12 153.071 131.276 153.743 131.276C154.367 131.276 154.859 131.138 155.219 130.862C155.579 130.586 155.759 130.238 155.759 129.818C155.759 129.386 155.567 129.068 155.183 128.864C154.799 128.648 154.205 128.438 153.401 128.234C152.669 128.042 152.069 127.85 151.601 127.658C151.145 127.454 150.749 127.16 150.413 126.776C150.089 126.38 149.927 125.864 149.927 125.228C149.927 124.724 150.077 124.262 150.377 123.842C150.677 123.422 151.103 123.092 151.655 122.852C152.207 122.6 152.837 122.474 153.545 122.474C154.637 122.474 155.519 122.75 156.191 123.302C156.863 123.854 157.223 124.61 157.271 125.57H155.633C155.597 125.054 155.387 124.64 155.003 124.328C154.631 124.016 154.127 123.86 153.491 123.86C152.903 123.86 152.435 123.986 152.087 124.238C151.739 124.49 151.565 124.82 151.565 125.228C151.565 125.552 151.667 125.822 151.871 126.038C152.087 126.242 152.351 126.41 152.663 126.542C152.987 126.662 153.431 126.8 153.995 126.956C154.703 127.148 155.279 127.34 155.723 127.532C156.167 127.712 156.545 127.988 156.857 128.36C157.181 128.732 157.349 129.218 157.361 129.818C157.361 130.358 157.211 130.844 156.911 131.276C156.611 131.708 156.185 132.05 155.633 132.302C155.093 132.542 154.469 132.662 153.761 132.662ZM160.699 121.034C160.387 121.034 160.123 120.926 159.907 120.71C159.691 120.494 159.583 120.23 159.583 119.918C159.583 119.606 159.691 119.342 159.907 119.126C160.123 118.91 160.387 118.802 160.699 118.802C160.999 118.802 161.251 118.91 161.455 119.126C161.671 119.342 161.779 119.606 161.779 119.918C161.779 120.23 161.671 120.494 161.455 120.71C161.251 120.926 160.999 121.034 160.699 121.034ZM161.491 122.636V132.5H159.853V122.636H161.491ZM166.461 123.986V129.8C166.461 130.28 166.563 130.622 166.767 130.826C166.971 131.018 167.325 131.114 167.829 131.114H169.035V132.5H167.559C166.647 132.5 165.963 132.29 165.507 131.87C165.051 131.45 164.823 130.76 164.823 129.8V123.986H163.545V122.636H164.823V120.152H166.461V122.636H169.035V123.986H166.461ZM180.2 127.19C180.2 127.502 180.182 127.832 180.146 128.18H172.262C172.322 129.152 172.652 129.914 173.252 130.466C173.864 131.006 174.602 131.276 175.466 131.276C176.174 131.276 176.762 131.114 177.23 130.79C177.71 130.454 178.046 130.01 178.238 129.458H180.002C179.738 130.406 179.21 131.18 178.418 131.78C177.626 132.368 176.642 132.662 175.466 132.662C174.53 132.662 173.69 132.452 172.946 132.032C172.214 131.612 171.638 131.018 171.218 130.25C170.798 129.47 170.588 128.57 170.588 127.55C170.588 126.53 170.792 125.636 171.2 124.868C171.608 124.1 172.178 123.512 172.91 123.104C173.654 122.684 174.506 122.474 175.466 122.474C176.402 122.474 177.23 122.678 177.95 123.086C178.67 123.494 179.222 124.058 179.606 124.778C180.002 125.486 180.2 126.29 180.2 127.19ZM178.508 126.848C178.508 126.224 178.37 125.69 178.094 125.246C177.818 124.79 177.44 124.448 176.96 124.22C176.492 123.98 175.97 123.86 175.394 123.86C174.566 123.86 173.858 124.124 173.27 124.652C172.694 125.18 172.364 125.912 172.28 126.848H178.508ZM189.159 124.472C189.495 123.884 189.987 123.404 190.635 123.032C191.283 122.66 192.021 122.474 192.849 122.474C193.737 122.474 194.535 122.684 195.243 123.104C195.951 123.524 196.509 124.118 196.917 124.886C197.325 125.642 197.529 126.524 197.529 127.532C197.529 128.528 197.325 129.416 196.917 130.196C196.509 130.976 195.945 131.582 195.225 132.014C194.517 132.446 193.725 132.662 192.849 132.662C191.997 132.662 191.247 132.476 190.599 132.104C189.963 131.732 189.483 131.258 189.159 130.682V132.5H187.521V119.18H189.159V124.472ZM195.855 127.532C195.855 126.788 195.705 126.14 195.405 125.588C195.105 125.036 194.697 124.616 194.181 124.328C193.677 124.04 193.119 123.896 192.507 123.896C191.907 123.896 191.349 124.046 190.833 124.346C190.329 124.634 189.921 125.06 189.609 125.624C189.309 126.176 189.159 126.818 189.159 127.55C189.159 128.294 189.309 128.948 189.609 129.512C189.921 130.064 190.329 130.49 190.833 130.79C191.349 131.078 191.907 131.222 192.507 131.222C193.119 131.222 193.677 131.078 194.181 130.79C194.697 130.49 195.105 130.064 195.405 129.512C195.705 128.948 195.855 128.288 195.855 127.532ZM199.253 127.532C199.253 126.524 199.457 125.642 199.865 124.886C200.273 124.118 200.831 123.524 201.539 123.104C202.259 122.684 203.057 122.474 203.933 122.474C204.797 122.474 205.547 122.66 206.183 123.032C206.819 123.404 207.293 123.872 207.605 124.436V122.636H209.261V132.5H207.605V130.664C207.281 131.24 206.795 131.72 206.147 132.104C205.511 132.476 204.767 132.662 203.915 132.662C203.039 132.662 202.247 132.446 201.539 132.014C200.831 131.582 200.273 130.976 199.865 130.196C199.457 129.416 199.253 128.528 199.253 127.532ZM207.605 127.55C207.605 126.806 207.455 126.158 207.155 125.606C206.855 125.054 206.447 124.634 205.931 124.346C205.427 124.046 204.869 123.896 204.257 123.896C203.645 123.896 203.087 124.04 202.583 124.328C202.079 124.616 201.677 125.036 201.377 125.588C201.077 126.14 200.927 126.788 200.927 127.532C200.927 128.288 201.077 128.948 201.377 129.512C201.677 130.064 202.079 130.49 202.583 130.79C203.087 131.078 203.645 131.222 204.257 131.222C204.869 131.222 205.427 131.078 205.931 130.79C206.447 130.49 206.855 130.064 207.155 129.512C207.455 128.948 207.605 128.294 207.605 127.55ZM215.701 132.662C214.945 132.662 214.267 132.536 213.667 132.284C213.067 132.02 212.593 131.66 212.245 131.204C211.897 130.736 211.705 130.202 211.669 129.602H213.361C213.409 130.094 213.637 130.496 214.045 130.808C214.465 131.12 215.011 131.276 215.683 131.276C216.307 131.276 216.799 131.138 217.159 130.862C217.519 130.586 217.699 130.238 217.699 129.818C217.699 129.386 217.507 129.068 217.123 128.864C216.739 128.648 216.145 128.438 215.341 128.234C214.609 128.042 214.009 127.85 213.541 127.658C213.085 127.454 212.689 127.16 212.353 126.776C212.029 126.38 211.867 125.864 211.867 125.228C211.867 124.724 212.017 124.262 212.317 123.842C212.617 123.422 213.043 123.092 213.595 122.852C214.147 122.6 214.777 122.474 215.485 122.474C216.577 122.474 217.459 122.75 218.131 123.302C218.803 123.854 219.163 124.61 219.211 125.57H217.573C217.537 125.054 217.327 124.64 216.943 124.328C216.571 124.016 216.067 123.86 215.431 123.86C214.843 123.86 214.375 123.986 214.027 124.238C213.679 124.49 213.505 124.82 213.505 125.228C213.505 125.552 213.607 125.822 213.811 126.038C214.027 126.242 214.291 126.41 214.603 126.542C214.927 126.662 215.371 126.8 215.935 126.956C216.643 127.148 217.219 127.34 217.663 127.532C218.107 127.712 218.485 127.988 218.797 128.36C219.121 128.732 219.289 129.218 219.301 129.818C219.301 130.358 219.151 130.844 218.851 131.276C218.551 131.708 218.125 132.05 217.573 132.302C217.033 132.542 216.409 132.662 215.701 132.662ZM230.793 127.19C230.793 127.502 230.775 127.832 230.739 128.18H222.855C222.915 129.152 223.245 129.914 223.845 130.466C224.457 131.006 225.195 131.276 226.059 131.276C226.767 131.276 227.355 131.114 227.823 130.79C228.303 130.454 228.639 130.01 228.831 129.458H230.595C230.331 130.406 229.803 131.18 229.011 131.78C228.219 132.368 227.235 132.662 226.059 132.662C225.123 132.662 224.283 132.452 223.539 132.032C222.807 131.612 222.231 131.018 221.811 130.25C221.391 129.47 221.181 128.57 221.181 127.55C221.181 126.53 221.385 125.636 221.793 124.868C222.201 124.1 222.771 123.512 223.503 123.104C224.247 122.684 225.099 122.474 226.059 122.474C226.995 122.474 227.823 122.678 228.543 123.086C229.263 123.494 229.815 124.058 230.199 124.778C230.595 125.486 230.793 126.29 230.793 127.19ZM229.101 126.848C229.101 126.224 228.963 125.69 228.687 125.246C228.411 124.79 228.033 124.448 227.553 124.22C227.085 123.98 226.563 123.86 225.987 123.86C225.159 123.86 224.451 124.124 223.863 124.652C223.287 125.18 222.957 125.912 222.873 126.848H229.101ZM232.523 127.532C232.523 126.524 232.727 125.642 233.135 124.886C233.543 124.118 234.101 123.524 234.809 123.104C235.529 122.684 236.333 122.474 237.221 122.474C237.989 122.474 238.703 122.654 239.363 123.014C240.023 123.362 240.527 123.824 240.875 124.4V119.18H242.531V132.5H240.875V130.646C240.551 131.234 240.071 131.72 239.435 132.104C238.799 132.476 238.055 132.662 237.203 132.662C236.327 132.662 235.529 132.446 234.809 132.014C234.101 131.582 233.543 130.976 233.135 130.196C232.727 129.416 232.523 128.528 232.523 127.532ZM240.875 127.55C240.875 126.806 240.725 126.158 240.425 125.606C240.125 125.054 239.717 124.634 239.201 124.346C238.697 124.046 238.139 123.896 237.527 123.896C236.915 123.896 236.357 124.04 235.853 124.328C235.349 124.616 234.947 125.036 234.647 125.588C234.347 126.14 234.197 126.788 234.197 127.532C234.197 128.288 234.347 128.948 234.647 129.512C234.947 130.064 235.349 130.49 235.853 130.79C236.357 131.078 236.915 131.222 237.527 131.222C238.139 131.222 238.697 131.078 239.201 130.79C239.717 130.49 240.125 130.064 240.425 129.512C240.725 128.948 240.875 128.294 240.875 127.55ZM254.76 132.662C253.836 132.662 252.996 132.452 252.24 132.032C251.496 131.612 250.908 131.018 250.476 130.25C250.056 129.47 249.846 128.57 249.846 127.55C249.846 126.542 250.062 125.654 250.494 124.886C250.938 124.106 251.538 123.512 252.294 123.104C253.05 122.684 253.896 122.474 254.832 122.474C255.768 122.474 256.614 122.684 257.37 123.104C258.126 123.512 258.72 124.1 259.152 124.868C259.596 125.636 259.818 126.53 259.818 127.55C259.818 128.57 259.59 129.47 259.134 130.25C258.69 131.018 258.084 131.612 257.316 132.032C256.548 132.452 255.696 132.662 254.76 132.662ZM254.76 131.222C255.348 131.222 255.9 131.084 256.416 130.808C256.932 130.532 257.346 130.118 257.658 129.566C257.982 129.014 258.144 128.342 258.144 127.55C258.144 126.758 257.988 126.086 257.676 125.534C257.364 124.982 256.956 124.574 256.452 124.31C255.948 124.034 255.402 123.896 254.814 123.896C254.214 123.896 253.662 124.034 253.158 124.31C252.666 124.574 252.27 124.982 251.97 125.534C251.67 126.086 251.52 126.758 251.52 127.55C251.52 128.354 251.664 129.032 251.952 129.584C252.252 130.136 252.648 130.55 253.14 130.826C253.632 131.09 254.172 131.222 254.76 131.222ZM266.958 122.456C268.158 122.456 269.13 122.822 269.874 123.554C270.618 124.274 270.99 125.318 270.99 126.686V132.5H269.37V126.92C269.37 125.936 269.124 125.186 268.632 124.67C268.14 124.142 267.468 123.878 266.616 123.878C265.752 123.878 265.062 124.148 264.546 124.688C264.042 125.228 263.79 126.014 263.79 127.046V132.5H262.152V122.636H263.79V124.04C264.114 123.536 264.552 123.146 265.104 122.87C265.668 122.594 266.286 122.456 266.958 122.456ZM78.884 150.986V156.8C78.884 157.28 78.986 157.622 79.19 157.826C79.394 158.018 79.748 158.114 80.252 158.114H81.458V159.5H79.982C79.07 159.5 78.386 159.29 77.93 158.87C77.474 158.45 77.246 157.76 77.246 156.8V150.986H75.968V149.636H77.246V147.152H78.884V149.636H81.458V150.986H78.884ZM88.5186 149.456C89.2626 149.456 89.9346 149.618 90.5346 149.942C91.1346 150.254 91.6026 150.728 91.9386 151.364C92.2866 152 92.4606 152.774 92.4606 153.686V159.5H90.8406V153.92C90.8406 152.936 90.5946 152.186 90.1026 151.67C89.6106 151.142 88.9386 150.878 88.0866 150.878C87.2226 150.878 86.5326 151.148 86.0166 151.688C85.5126 152.228 85.2606 153.014 85.2606 154.046V159.5H83.6226V146.18H85.2606V151.04C85.5846 150.536 86.0286 150.146 86.5926 149.87C87.1686 149.594 87.8106 149.456 88.5186 149.456ZM104.316 154.19C104.316 154.502 104.298 154.832 104.262 155.18H96.3783C96.4383 156.152 96.7683 156.914 97.3683 157.466C97.9803 158.006 98.7183 158.276 99.5823 158.276C100.29 158.276 100.878 158.114 101.346 157.79C101.826 157.454 102.162 157.01 102.354 156.458H104.118C103.854 157.406 103.326 158.18 102.534 158.78C101.742 159.368 100.758 159.662 99.5823 159.662C98.6463 159.662 97.8063 159.452 97.0623 159.032C96.3303 158.612 95.7543 158.018 95.3343 157.25C94.9143 156.47 94.7043 155.57 94.7043 154.55C94.7043 153.53 94.9083 152.636 95.3163 151.868C95.7243 151.1 96.2943 150.512 97.0263 150.104C97.7703 149.684 98.6223 149.474 99.5823 149.474C100.518 149.474 101.346 149.678 102.066 150.086C102.786 150.494 103.338 151.058 103.722 151.778C104.118 152.486 104.316 153.29 104.316 154.19ZM102.624 153.848C102.624 153.224 102.486 152.69 102.21 152.246C101.934 151.79 101.556 151.448 101.076 151.22C100.608 150.98 100.086 150.86 99.5103 150.86C98.6823 150.86 97.9743 151.124 97.3863 151.652C96.8103 152.18 96.4803 152.912 96.3963 153.848H102.624ZM110.15 159.662C109.394 159.662 108.716 159.536 108.116 159.284C107.516 159.02 107.042 158.66 106.694 158.204C106.346 157.736 106.154 157.202 106.118 156.602H107.81C107.858 157.094 108.086 157.496 108.494 157.808C108.914 158.12 109.46 158.276 110.132 158.276C110.756 158.276 111.248 158.138 111.608 157.862C111.968 157.586 112.148 157.238 112.148 156.818C112.148 156.386 111.956 156.068 111.572 155.864C111.188 155.648 110.594 155.438 109.79 155.234C109.058 155.042 108.458 154.85 107.99 154.658C107.534 154.454 107.138 154.16 106.802 153.776C106.478 153.38 106.316 152.864 106.316 152.228C106.316 151.724 106.466 151.262 106.766 150.842C107.066 150.422 107.492 150.092 108.044 149.852C108.596 149.6 109.226 149.474 109.934 149.474C111.026 149.474 111.908 149.75 112.58 150.302C113.252 150.854 113.612 151.61 113.66 152.57H112.022C111.986 152.054 111.776 151.64 111.392 151.328C111.02 151.016 110.516 150.86 109.88 150.86C109.292 150.86 108.824 150.986 108.476 151.238C108.128 151.49 107.954 151.82 107.954 152.228C107.954 152.552 108.056 152.822 108.26 153.038C108.476 153.242 108.74 153.41 109.052 153.542C109.376 153.662 109.82 153.8 110.384 153.956C111.092 154.148 111.668 154.34 112.112 154.532C112.556 154.712 112.934 154.988 113.246 155.36C113.57 155.732 113.738 156.218 113.75 156.818C113.75 157.358 113.6 157.844 113.3 158.276C113 158.708 112.574 159.05 112.022 159.302C111.482 159.542 110.858 159.662 110.15 159.662ZM125.243 154.19C125.243 154.502 125.225 154.832 125.189 155.18H117.305C117.365 156.152 117.695 156.914 118.295 157.466C118.907 158.006 119.645 158.276 120.509 158.276C121.217 158.276 121.805 158.114 122.273 157.79C122.753 157.454 123.089 157.01 123.281 156.458H125.045C124.781 157.406 124.253 158.18 123.461 158.78C122.669 159.368 121.685 159.662 120.509 159.662C119.573 159.662 118.733 159.452 117.989 159.032C117.257 158.612 116.681 158.018 116.261 157.25C115.841 156.47 115.631 155.57 115.631 154.55C115.631 153.53 115.835 152.636 116.243 151.868C116.651 151.1 117.221 150.512 117.953 150.104C118.697 149.684 119.549 149.474 120.509 149.474C121.445 149.474 122.273 149.678 122.993 150.086C123.713 150.494 124.265 151.058 124.649 151.778C125.045 152.486 125.243 153.29 125.243 154.19ZM123.551 153.848C123.551 153.224 123.413 152.69 123.137 152.246C122.861 151.79 122.483 151.448 122.003 151.22C121.535 150.98 121.013 150.86 120.437 150.86C119.609 150.86 118.901 151.124 118.313 151.652C117.737 152.18 117.407 152.912 117.323 153.848H123.551ZM138.072 159.5L134.202 155.144V159.5H132.564V146.18H134.202V154.01L138 149.636H140.286L135.642 154.55L140.304 159.5H138.072ZM151.007 154.19C151.007 154.502 150.989 154.832 150.953 155.18H143.069C143.129 156.152 143.459 156.914 144.059 157.466C144.671 158.006 145.409 158.276 146.273 158.276C146.981 158.276 147.569 158.114 148.037 157.79C148.517 157.454 148.853 157.01 149.045 156.458H150.809C150.545 157.406 150.017 158.18 149.225 158.78C148.433 159.368 147.449 159.662 146.273 159.662C145.337 159.662 144.497 159.452 143.753 159.032C143.021 158.612 142.445 158.018 142.025 157.25C141.605 156.47 141.395 155.57 141.395 154.55C141.395 153.53 141.599 152.636 142.007 151.868C142.415 151.1 142.985 150.512 143.717 150.104C144.461 149.684 145.313 149.474 146.273 149.474C147.209 149.474 148.037 149.678 148.757 150.086C149.477 150.494 150.029 151.058 150.413 151.778C150.809 152.486 151.007 153.29 151.007 154.19ZM149.315 153.848C149.315 153.224 149.177 152.69 148.901 152.246C148.625 151.79 148.247 151.448 147.767 151.22C147.299 150.98 146.777 150.86 146.201 150.86C145.373 150.86 144.665 151.124 144.077 151.652C143.501 152.18 143.171 152.912 143.087 153.848H149.315ZM161.845 149.636L155.905 164.144H154.213L156.157 159.392L152.179 149.636H153.997L157.093 157.628L160.153 149.636H161.845ZM172.665 150.986H170.595V159.5H168.957V150.986H167.679V149.636H168.957V148.934C168.957 147.83 169.239 147.026 169.803 146.522C170.379 146.006 171.297 145.748 172.557 145.748V147.116C171.837 147.116 171.327 147.26 171.027 147.548C170.739 147.824 170.595 148.286 170.595 148.934V149.636H172.665V150.986ZM183.755 154.19C183.755 154.502 183.737 154.832 183.701 155.18H175.817C175.877 156.152 176.207 156.914 176.807 157.466C177.419 158.006 178.157 158.276 179.021 158.276C179.729 158.276 180.317 158.114 180.785 157.79C181.265 157.454 181.601 157.01 181.793 156.458H183.557C183.293 157.406 182.765 158.18 181.973 158.78C181.181 159.368 180.197 159.662 179.021 159.662C178.085 159.662 177.245 159.452 176.501 159.032C175.769 158.612 175.193 158.018 174.773 157.25C174.353 156.47 174.143 155.57 174.143 154.55C174.143 153.53 174.347 152.636 174.755 151.868C175.163 151.1 175.733 150.512 176.465 150.104C177.209 149.684 178.061 149.474 179.021 149.474C179.957 149.474 180.785 149.678 181.505 150.086C182.225 150.494 182.777 151.058 183.161 151.778C183.557 152.486 183.755 153.29 183.755 154.19ZM182.063 153.848C182.063 153.224 181.925 152.69 181.649 152.246C181.373 151.79 180.995 151.448 180.515 151.22C180.047 150.98 179.525 150.86 178.949 150.86C178.121 150.86 177.413 151.124 176.825 151.652C176.249 152.18 175.919 152.912 175.835 153.848H182.063ZM185.485 154.532C185.485 153.524 185.689 152.642 186.097 151.886C186.505 151.118 187.063 150.524 187.771 150.104C188.491 149.684 189.289 149.474 190.165 149.474C191.029 149.474 191.779 149.66 192.415 150.032C193.051 150.404 193.525 150.872 193.837 151.436V149.636H195.493V159.5H193.837V157.664C193.513 158.24 193.027 158.72 192.379 159.104C191.743 159.476 190.999 159.662 190.147 159.662C189.271 159.662 188.479 159.446 187.771 159.014C187.063 158.582 186.505 157.976 186.097 157.196C185.689 156.416 185.485 155.528 185.485 154.532ZM193.837 154.55C193.837 153.806 193.687 153.158 193.387 152.606C193.087 152.054 192.679 151.634 192.163 151.346C191.659 151.046 191.101 150.896 190.489 150.896C189.877 150.896 189.319 151.04 188.815 151.328C188.311 151.616 187.909 152.036 187.609 152.588C187.309 153.14 187.159 153.788 187.159 154.532C187.159 155.288 187.309 155.948 187.609 156.512C187.909 157.064 188.311 157.49 188.815 157.79C189.319 158.078 189.877 158.222 190.489 158.222C191.101 158.222 191.659 158.078 192.163 157.79C192.679 157.49 193.087 157.064 193.387 156.512C193.687 155.948 193.837 155.294 193.837 154.55ZM200.439 150.986V156.8C200.439 157.28 200.541 157.622 200.745 157.826C200.949 158.018 201.303 158.114 201.807 158.114H203.013V159.5H201.537C200.625 159.5 199.941 159.29 199.485 158.87C199.029 158.45 198.801 157.76 198.801 156.8V150.986H197.523V149.636H198.801V147.152H200.439V149.636H203.013V150.986H200.439ZM213.925 149.636V159.5H212.287V158.042C211.975 158.546 211.537 158.942 210.973 159.23C210.421 159.506 209.809 159.644 209.137 159.644C208.369 159.644 207.679 159.488 207.067 159.176C206.455 158.852 205.969 158.372 205.609 157.736C205.261 157.1 205.087 156.326 205.087 155.414V149.636H206.707V155.198C206.707 156.17 206.953 156.92 207.445 157.448C207.937 157.964 208.609 158.222 209.461 158.222C210.337 158.222 211.027 157.952 211.531 157.412C212.035 156.872 212.287 156.086 212.287 155.054V149.636H213.925ZM218.509 151.238C218.797 150.674 219.205 150.236 219.733 149.924C220.273 149.612 220.927 149.456 221.695 149.456V151.148H221.263C219.427 151.148 218.509 152.144 218.509 154.136V159.5H216.871V149.636H218.509V151.238ZM232.766 154.19C232.766 154.502 232.748 154.832 232.712 155.18H224.828C224.888 156.152 225.218 156.914 225.818 157.466C226.43 158.006 227.168 158.276 228.032 158.276C228.74 158.276 229.328 158.114 229.796 157.79C230.276 157.454 230.612 157.01 230.804 156.458H232.568C232.304 157.406 231.776 158.18 230.984 158.78C230.192 159.368 229.208 159.662 228.032 159.662C227.096 159.662 226.256 159.452 225.512 159.032C224.78 158.612 224.204 158.018 223.784 157.25C223.364 156.47 223.154 155.57 223.154 154.55C223.154 153.53 223.358 152.636 223.766 151.868C224.174 151.1 224.744 150.512 225.476 150.104C226.22 149.684 227.072 149.474 228.032 149.474C228.968 149.474 229.796 149.678 230.516 150.086C231.236 150.494 231.788 151.058 232.172 151.778C232.568 152.486 232.766 153.29 232.766 154.19ZM231.074 153.848C231.074 153.224 230.936 152.69 230.66 152.246C230.384 151.79 230.006 151.448 229.526 151.22C229.058 150.98 228.536 150.86 227.96 150.86C227.132 150.86 226.424 151.124 225.836 151.652C225.26 152.18 224.93 152.912 224.846 153.848H231.074ZM238.6 159.662C237.844 159.662 237.166 159.536 236.566 159.284C235.966 159.02 235.492 158.66 235.144 158.204C234.796 157.736 234.604 157.202 234.568 156.602H236.26C236.308 157.094 236.536 157.496 236.944 157.808C237.364 158.12 237.91 158.276 238.582 158.276C239.206 158.276 239.698 158.138 240.058 157.862C240.418 157.586 240.598 157.238 240.598 156.818C240.598 156.386 240.406 156.068 240.022 155.864C239.638 155.648 239.044 155.438 238.24 155.234C237.508 155.042 236.908 154.85 236.44 154.658C235.984 154.454 235.588 154.16 235.252 153.776C234.928 153.38 234.766 152.864 234.766 152.228C234.766 151.724 234.916 151.262 235.216 150.842C235.516 150.422 235.942 150.092 236.494 149.852C237.046 149.6 237.676 149.474 238.384 149.474C239.476 149.474 240.358 149.75 241.03 150.302C241.702 150.854 242.062 151.61 242.11 152.57H240.472C240.436 152.054 240.226 151.64 239.842 151.328C239.47 151.016 238.966 150.86 238.33 150.86C237.742 150.86 237.274 150.986 236.926 151.238C236.578 151.49 236.404 151.82 236.404 152.228C236.404 152.552 236.506 152.822 236.71 153.038C236.926 153.242 237.19 153.41 237.502 153.542C237.826 153.662 238.27 153.8 238.834 153.956C239.542 154.148 240.118 154.34 240.562 154.532C241.006 154.712 241.384 154.988 241.696 155.36C242.02 155.732 242.188 156.218 242.2 156.818C242.2 157.358 242.05 157.844 241.75 158.276C241.45 158.708 241.024 159.05 240.472 159.302C239.932 159.542 239.308 159.662 238.6 159.662ZM247.896 146.792C249.084 146.792 250.044 147.128 250.776 147.8C251.508 148.472 251.874 149.372 251.874 150.5C251.874 151.76 251.484 152.696 250.704 153.308C249.924 153.908 248.868 154.208 247.536 154.208L247.482 155.918H246.06L245.988 153.074H246.51C247.698 153.074 248.628 152.894 249.3 152.534C249.972 152.174 250.308 151.496 250.308 150.5C250.308 149.78 250.092 149.21 249.66 148.79C249.228 148.37 248.646 148.16 247.914 148.16C247.17 148.16 246.582 148.364 246.15 148.772C245.73 149.168 245.52 149.714 245.52 150.41H243.972C243.972 149.69 244.134 149.06 244.458 148.52C244.782 147.968 245.238 147.542 245.826 147.242C246.426 146.942 247.116 146.792 247.896 146.792ZM246.762 159.608C246.45 159.608 246.186 159.5 245.97 159.284C245.754 159.068 245.646 158.804 245.646 158.492C245.646 158.18 245.754 157.916 245.97 157.7C246.186 157.484 246.45 157.376 246.762 157.376C247.062 157.376 247.314 157.484 247.518 157.7C247.734 157.916 247.842 158.18 247.842 158.492C247.842 158.804 247.734 159.068 247.518 159.284C247.314 159.5 247.062 159.608 246.762 159.608Z" fill="#0A0A0A"/>
</svg>
