<svg width="1240" height="81" viewBox="0 0 1240 81" fill="none" xmlns="http://www.w3.org/2000/svg">
<g clip-path="url(#clip0_689_4843)">
<path d="M40 80.5723C62.0914 80.5723 80 62.6637 80 40.5723C80 18.4809 62.0914 0.572266 40 0.572266C17.9086 0.572266 0 18.4809 0 40.5723C0 62.6637 17.9086 80.5723 40 80.5723Z" fill="#0468B0"/>
<path d="M33.1205 38.9602C33.0826 38.624 32.9263 38.3636 32.6517 38.1789C32.3771 37.9919 32.0315 37.8984 31.6148 37.8984C31.3165 37.8984 31.0585 37.9457 30.8406 38.0404C30.6228 38.1328 30.4536 38.2606 30.3328 38.4239C30.2145 38.5849 30.1553 38.7684 30.1553 38.9744C30.1553 39.1472 30.1955 39.2963 30.276 39.4218C30.3589 39.5473 30.4666 39.6526 30.5991 39.7379C30.7341 39.8207 30.8785 39.8906 31.0324 39.9474C31.1863 40.0018 31.3343 40.0468 31.4763 40.0823L32.1865 40.267C32.4185 40.3238 32.6565 40.4008 32.9003 40.4978C33.1441 40.5949 33.3702 40.7227 33.5786 40.8813C33.7869 41.0399 33.955 41.2364 34.0828 41.4708C34.213 41.7052 34.2781 41.9858 34.2781 42.3124C34.2781 42.7244 34.1716 43.0901 33.9585 43.4098C33.7478 43.7293 33.4413 43.9814 33.0388 44.1661C32.6387 44.3508 32.1546 44.4431 31.5864 44.4431C31.0419 44.4431 30.5708 44.3567 30.173 44.1839C29.7753 44.0111 29.464 43.766 29.2391 43.4488C29.0141 43.1292 28.8899 42.7504 28.8662 42.3124H29.9671C29.9884 42.5752 30.0736 42.7942 30.2228 42.9694C30.3743 43.1422 30.5672 43.2713 30.8016 43.3564C31.0383 43.4393 31.2976 43.4808 31.5793 43.4808C31.8894 43.4808 32.1652 43.4323 32.4067 43.3352C32.6505 43.2358 32.8423 43.0984 32.982 42.9233C33.1216 42.7457 33.1915 42.5385 33.1915 42.3018C33.1915 42.0863 33.13 41.91 33.0068 41.7727C32.8861 41.6354 32.7216 41.5217 32.5132 41.4318C32.3073 41.3418 32.0741 41.2625 31.8136 41.1938L30.9543 40.9594C30.3719 40.8008 29.9103 40.5676 29.5693 40.2599C29.2308 39.9521 29.0615 39.5449 29.0615 39.0383C29.0615 38.6193 29.1751 38.2535 29.4025 37.941C29.6297 37.6285 29.9375 37.3858 30.3257 37.213C30.714 37.0378 31.152 36.9502 31.6396 36.9502C32.1321 36.9502 32.5665 37.0366 32.9429 37.2094C33.3217 37.3823 33.62 37.6202 33.8378 37.9233C34.0556 38.2239 34.1693 38.5696 34.1787 38.9602H33.1205ZM37.9403 38.8678V39.7201H34.961V38.8678H37.9403ZM35.76 37.561H36.8217V42.7208C36.8217 42.9268 36.8525 43.0819 36.9141 43.186C36.9756 43.2878 37.0549 43.3576 37.152 43.3955C37.2514 43.4311 37.3591 43.4488 37.4751 43.4488C37.5604 43.4488 37.635 43.4429 37.6988 43.4311C37.7628 43.4192 37.8125 43.4098 37.848 43.4026L38.0398 44.2798C37.9782 44.3034 37.8906 44.3271 37.777 44.3508C37.6633 44.3768 37.5213 44.391 37.3508 44.3934C37.0715 44.3981 36.8111 44.3484 36.5696 44.2443C36.3281 44.1401 36.1328 43.9791 35.9836 43.7613C35.8345 43.5435 35.76 43.2701 35.76 42.941V37.561ZM40.5922 44.4431C40.2466 44.4431 39.9341 44.3792 39.6547 44.2514C39.3754 44.1211 39.154 43.9329 38.9906 43.6868C38.8297 43.4405 38.7492 43.1387 38.7492 42.7812C38.7492 42.4734 38.8084 42.2201 38.9268 42.0213C39.0451 41.8224 39.2049 41.6649 39.4062 41.5489C39.6074 41.4329 39.8323 41.3453 40.0809 41.2861C40.3295 41.2269 40.5828 41.182 40.8408 41.1512C41.1675 41.1133 41.4326 41.0826 41.6363 41.0589C41.8399 41.0328 41.9878 40.9914 42.0802 40.9346C42.1725 40.8778 42.2186 40.7854 42.2186 40.6576V40.6328C42.2186 40.3226 42.1311 40.0823 41.9559 39.9119C41.783 39.7414 41.525 39.6562 41.1817 39.6562C40.8243 39.6562 40.5425 39.7355 40.3366 39.8941C40.133 40.0504 39.9921 40.2244 39.914 40.4161L38.9161 40.1889C39.0345 39.8574 39.2073 39.5899 39.4346 39.3863C39.6642 39.1803 39.9281 39.0312 40.2265 38.9389C40.5248 38.8441 40.8385 38.7968 41.1675 38.7968C41.3853 38.7968 41.6161 38.8229 41.86 38.8749C42.1062 38.9246 42.3358 39.017 42.5489 39.1519C42.7643 39.2869 42.9407 39.4798 43.078 39.7308C43.2153 39.9793 43.284 40.3025 43.284 40.7002V44.3224H42.2471V43.5766H42.2045C42.1358 43.7139 42.0328 43.8489 41.8955 43.9814C41.7582 44.1141 41.5818 44.2241 41.3664 44.3118C41.151 44.3993 40.8929 44.4431 40.5922 44.4431ZM40.8231 43.5908C41.1167 43.5908 41.3676 43.5328 41.5759 43.4168C41.7866 43.3008 41.9464 43.1493 42.0553 42.9623C42.1666 42.7729 42.2222 42.5705 42.2222 42.3551V41.6519C42.1843 41.6898 42.111 41.7253 42.002 41.7584C41.8955 41.7893 41.7736 41.8164 41.6363 41.8401C41.499 41.8614 41.3652 41.8816 41.235 41.9005C41.1048 41.9171 40.9959 41.9313 40.9083 41.9431C40.7023 41.9691 40.5141 42.0129 40.3436 42.0745C40.1756 42.1361 40.0406 42.2248 39.9388 42.3408C39.8394 42.4545 39.7897 42.606 39.7897 42.7954C39.7897 43.0582 39.8868 43.2571 40.0809 43.392C40.275 43.5246 40.5224 43.5908 40.8231 43.5908ZM44.5882 44.3224V38.8678H45.6145V39.7343H45.6713C45.7708 39.4408 45.946 39.2099 46.1969 39.0418C46.4502 38.8714 46.7367 38.7861 47.0563 38.7861C47.1226 38.7861 47.2007 38.7885 47.2906 38.7933C47.383 38.798 47.4552 38.8039 47.5073 38.811V39.8266C47.4646 39.8148 47.3889 39.8018 47.28 39.7876C47.1711 39.771 47.0622 39.7627 46.9533 39.7627C46.7023 39.7627 46.4786 39.816 46.2822 39.9225C46.088 40.0267 45.9341 40.1723 45.8205 40.3593C45.7068 40.5439 45.65 40.7547 45.65 40.9914V44.3224H44.5882ZM51.1846 38.8678V39.7201H48.2051V38.8678H51.1846ZM49.0042 37.561H50.066V42.7208C50.066 42.9268 50.0967 43.0819 50.1583 43.186C50.2198 43.2878 50.2991 43.3576 50.3962 43.3955C50.4956 43.4311 50.6033 43.4488 50.7193 43.4488C50.8046 43.4488 50.8791 43.4429 50.9431 43.4311C51.007 43.4192 51.0567 43.4098 51.0922 43.4026L51.284 44.2798C51.2225 44.3034 51.1348 44.3271 51.0212 44.3508C50.9076 44.3768 50.7655 44.391 50.5951 44.3934C50.3157 44.3981 50.0553 44.3484 49.8138 44.2443C49.5723 44.1401 49.377 43.9791 49.2279 43.7613C49.0787 43.5435 49.0042 43.2701 49.0042 42.941V37.561Z" fill="white"/>
<path d="M261.25 15.5723H148.75C146.679 15.5723 145 17.2512 145 19.3223V61.8223C145 63.8933 146.679 65.5723 148.75 65.5723H261.25C263.321 65.5723 265 63.8933 265 61.8223V19.3223C265 17.2512 263.321 15.5723 261.25 15.5723Z" fill="#1B8013"/>
<path d="M191.887 44.3223V37.0496H192.984V40.2101H196.61V37.0496H197.71V44.3223H196.61V41.1511H192.984V44.3223H191.887ZM201.411 44.4324C200.9 44.4324 200.454 44.3152 200.072 44.0808C199.691 43.8464 199.395 43.5186 199.184 43.0972C198.974 42.6757 198.869 42.1834 198.869 41.6199C198.869 41.0541 198.974 40.5593 199.184 40.1355C199.395 39.7117 199.691 39.3827 200.072 39.1483C200.454 38.9139 200.9 38.7967 201.411 38.7967C201.922 38.7967 202.369 38.9139 202.75 39.1483C203.131 39.3827 203.427 39.7117 203.637 40.1355C203.848 40.5593 203.954 41.0541 203.954 41.6199C203.954 42.1834 203.848 42.6757 203.637 43.0972C203.427 43.5186 203.131 43.8464 202.75 44.0808C202.369 44.3152 201.922 44.4324 201.411 44.4324ZM201.414 43.5411C201.746 43.5411 202.02 43.4534 202.239 43.2782C202.456 43.1031 202.617 42.8699 202.721 42.5787C202.828 42.2875 202.881 41.9667 202.881 41.6164C202.881 41.2683 202.828 40.9487 202.721 40.6576C202.617 40.364 202.456 40.1284 202.239 39.9509C202.02 39.7733 201.746 39.6845 201.414 39.6845C201.08 39.6845 200.804 39.7733 200.584 39.9509C200.365 40.1284 200.204 40.364 200.097 40.6576C199.993 40.9487 199.94 41.2683 199.94 41.6164C199.94 41.9667 199.993 42.2875 200.097 42.5787C200.204 42.8699 200.365 43.1031 200.584 43.2782C200.804 43.4534 201.08 43.5411 201.414 43.5411ZM205.029 44.3223V38.8677H206.048V39.7556H206.115C206.229 39.4549 206.415 39.2205 206.673 39.0524C206.931 38.882 207.24 38.7967 207.6 38.7967C207.964 38.7967 208.27 38.882 208.516 39.0524C208.765 39.2229 208.948 39.4572 209.066 39.7556H209.123C209.254 39.4644 209.46 39.2324 209.745 39.0595C210.029 38.8843 210.367 38.7967 210.76 38.7967C211.255 38.7967 211.659 38.9518 211.971 39.2619C212.286 39.5721 212.444 40.0396 212.444 40.6646V44.3223H211.382V40.7641C211.382 40.3947 211.281 40.1272 211.08 39.9615C210.879 39.7958 210.639 39.7129 210.359 39.7129C210.014 39.7129 209.745 39.8195 209.553 40.0326C209.361 40.2432 209.265 40.5143 209.265 40.8457V44.3223H208.207V40.6966C208.207 40.4007 208.115 40.1627 207.93 39.9828C207.745 39.8029 207.505 39.7129 207.209 39.7129C207.008 39.7129 206.822 39.7662 206.652 39.8727C206.484 39.9769 206.347 40.1225 206.243 40.3095C206.142 40.4966 206.09 40.7132 206.09 40.9594V44.3223H205.029ZM216.107 44.4324C215.57 44.4324 215.107 44.3176 214.719 44.0879C214.333 43.8559 214.035 43.5304 213.824 43.1114C213.615 42.69 213.512 42.1964 213.512 41.6306C213.512 41.0718 213.615 40.5794 213.824 40.1532C214.035 39.7271 214.329 39.3945 214.705 39.1554C215.084 38.9163 215.526 38.7967 216.033 38.7967C216.34 38.7967 216.639 38.8476 216.928 38.9494C217.217 39.0512 217.476 39.2111 217.705 39.4289C217.935 39.6466 218.116 39.9296 218.249 40.2776C218.381 40.6232 218.448 41.0434 218.448 41.5382V41.9146H214.112V41.1192H217.407C217.407 40.8398 217.35 40.5924 217.237 40.377C217.123 40.1592 216.964 39.9876 216.757 39.8621C216.554 39.7366 216.315 39.6739 216.04 39.6739C215.742 39.6739 215.481 39.7472 215.259 39.8941C215.039 40.0384 214.868 40.2279 214.747 40.4622C214.629 40.6942 214.57 40.9464 214.57 41.2186V41.8401C214.57 42.2046 214.634 42.5148 214.762 42.7704C214.892 43.0261 215.073 43.2214 215.305 43.3564C215.537 43.489 215.808 43.5552 216.118 43.5552C216.319 43.5552 216.503 43.5269 216.669 43.4701C216.834 43.4109 216.977 43.3232 217.098 43.2072C217.219 43.0912 217.311 42.948 217.375 42.7776L218.38 42.9587C218.3 43.2546 218.155 43.5138 217.947 43.7364C217.741 43.9566 217.482 44.1282 217.169 44.2513C216.859 44.372 216.505 44.4324 216.107 44.4324Z" fill="white"/>
<path d="M83.75 39.6347C83.2325 39.6347 82.8125 40.0544 82.8125 40.5722C82.8125 41.0899 83.2325 41.5097 83.75 41.5097V39.6347ZM141.913 41.2351C142.279 40.869 142.279 40.2754 141.913 39.9092L135.947 33.9431C135.581 33.5769 134.987 33.5769 134.621 33.9431C134.255 34.3092 134.255 34.9027 134.621 35.2689L139.924 40.5722L134.621 45.8755C134.255 46.2416 134.255 46.8352 134.621 47.2013C134.987 47.5674 135.581 47.5674 135.947 47.2013L141.913 41.2351ZM83.75 41.5097H141.25V39.6347H83.75V41.5097Z" fill="#B3B3B3"/>
<path d="M631.25 15.5723H518.75C516.679 15.5723 515 17.2512 515 19.3223V61.8223C515 63.8933 516.679 65.5723 518.75 65.5723H631.25C633.321 65.5723 635 63.8933 635 61.8223V19.3223C635 17.2512 633.321 15.5723 631.25 15.5723Z" fill="#1B8013"/>
<path d="M561.166 38.9602C561.128 38.624 560.972 38.3636 560.698 38.1789C560.423 37.9919 560.078 37.8984 559.661 37.8984C559.363 37.8984 559.105 37.9457 558.886 38.0404C558.669 38.1328 558.5 38.2606 558.379 38.4239C558.26 38.5849 558.201 38.7684 558.201 38.9744C558.201 39.1472 558.241 39.2963 558.322 39.4218C558.405 39.5473 558.513 39.6526 558.645 39.7379C558.78 39.8207 558.925 39.8906 559.078 39.9474C559.232 40.0018 559.38 40.0468 559.522 40.0823L560.233 40.267C560.465 40.3238 560.703 40.4008 560.946 40.4978C561.19 40.5949 561.416 40.7227 561.625 40.8813C561.833 41.0399 562.001 41.2364 562.129 41.4708C562.259 41.7052 562.324 41.9858 562.324 42.3124C562.324 42.7244 562.218 43.0901 562.005 43.4098C561.794 43.7293 561.487 43.9814 561.085 44.1661C560.685 44.3508 560.201 44.4431 559.632 44.4431C559.088 44.4431 558.616 44.3567 558.219 44.1839C557.821 44.0111 557.51 43.766 557.285 43.4488C557.06 43.1292 556.936 42.7504 556.912 42.3124H558.013C558.035 42.5752 558.12 42.7942 558.269 42.9694C558.42 43.1422 558.613 43.2713 558.848 43.3564C559.085 43.4393 559.343 43.4808 559.625 43.4808C559.935 43.4808 560.211 43.4323 560.453 43.3352C560.696 43.2358 560.888 43.0984 561.028 42.9233C561.168 42.7457 561.238 42.5385 561.238 42.3018C561.238 42.0863 561.176 41.91 561.053 41.7727C560.932 41.6354 560.768 41.5217 560.559 41.4318C560.353 41.3418 560.12 41.2625 559.86 41.1938L559 40.9594C558.418 40.8008 557.956 40.5676 557.615 40.2599C557.277 39.9521 557.108 39.5449 557.108 39.0383C557.108 38.6193 557.221 38.2535 557.448 37.941C557.676 37.6285 557.983 37.3858 558.371 37.213C558.76 37.0378 559.198 36.9502 559.686 36.9502C560.178 36.9502 560.613 37.0366 560.989 37.2094C561.368 37.3823 561.666 37.6202 561.884 37.9233C562.101 38.2239 562.215 38.5696 562.225 38.9602H561.166ZM564.502 41.0838V44.3224H563.44V37.0496H564.488V39.7556H564.555C564.683 39.4621 564.878 39.2289 565.141 39.0561C565.404 38.8832 565.747 38.7968 566.171 38.7968C566.545 38.7968 566.871 38.8738 567.151 39.0276C567.433 39.1815 567.651 39.4111 567.805 39.7166C567.961 40.0196 568.039 40.3984 568.039 40.8529V44.3224H566.977V40.9808C566.977 40.5807 566.874 40.2705 566.668 40.0504C566.462 39.8278 566.176 39.7166 565.809 39.7166C565.558 39.7166 565.333 39.7698 565.134 39.8764C564.938 39.9829 564.783 40.1391 564.669 40.3451C564.558 40.5487 564.502 40.7949 564.502 41.0838ZM571.643 44.4324C571.132 44.4324 570.686 44.3153 570.305 44.0809C569.923 43.8465 569.628 43.5186 569.417 43.0973C569.206 42.6758 569.101 42.1834 569.101 41.6199C569.101 41.0541 569.206 40.5594 569.417 40.1356C569.628 39.7118 569.923 39.3828 570.305 39.1484C570.686 38.914 571.132 38.7968 571.643 38.7968C572.155 38.7968 572.601 38.914 572.982 39.1484C573.363 39.3828 573.659 39.7118 573.87 40.1356C574.081 40.5594 574.186 41.0541 574.186 41.6199C574.186 42.1834 574.081 42.6758 573.87 43.0973C573.659 43.5186 573.363 43.8465 572.982 44.0809C572.601 44.3153 572.155 44.4324 571.643 44.4324ZM571.647 43.5411C571.978 43.5411 572.253 43.4535 572.471 43.2783C572.688 43.1031 572.85 42.8699 572.954 42.5788C573.06 42.2876 573.113 41.9668 573.113 41.6164C573.113 41.2684 573.06 40.9488 572.954 40.6576C572.85 40.3641 572.688 40.1285 572.471 39.9509C572.253 39.7734 571.978 39.6846 571.647 39.6846C571.313 39.6846 571.036 39.7734 570.816 39.9509C570.598 40.1285 570.436 40.3641 570.33 40.6576C570.225 40.9488 570.173 41.2684 570.173 41.6164C570.173 41.9668 570.225 42.2876 570.33 42.5788C570.436 42.8699 570.598 43.1031 570.816 43.2783C571.036 43.4535 571.313 43.5411 571.647 43.5411ZM575.261 46.3678V38.8678H576.298V39.7521H576.387C576.448 39.6384 576.537 39.5071 576.653 39.3579C576.769 39.2088 576.93 39.0785 577.136 38.9673C577.342 38.8536 577.615 38.7968 577.953 38.7968C578.393 38.7968 578.786 38.9081 579.132 39.1306C579.478 39.3531 579.748 39.6739 579.945 40.093C580.144 40.512 580.243 41.0163 580.243 41.6058C580.243 42.1953 580.145 42.7007 579.949 43.1221C579.752 43.5411 579.482 43.8643 579.139 44.0916C578.796 44.3164 578.404 44.4289 577.963 44.4289C577.632 44.4289 577.361 44.3733 577.15 44.262C576.942 44.1508 576.779 44.0205 576.66 43.8714C576.542 43.7223 576.451 43.5897 576.387 43.4736H576.323V46.3678H575.261ZM576.301 41.5951C576.301 41.9786 576.357 42.3148 576.468 42.6036C576.58 42.8924 576.741 43.1186 576.951 43.2819C577.162 43.4429 577.42 43.5234 577.726 43.5234C578.043 43.5234 578.308 43.4393 578.521 43.2713C578.734 43.1008 578.895 42.8699 579.004 42.5788C579.115 42.2876 579.171 41.9597 579.171 41.5951C579.171 41.2353 579.116 40.9121 579.008 40.6256C578.901 40.3392 578.74 40.1131 578.525 39.9474C578.311 39.7816 578.045 39.6988 577.726 39.6988C577.418 39.6988 577.158 39.7781 576.945 39.9368C576.734 40.0953 576.574 40.3167 576.465 40.6008C576.356 40.8849 576.301 41.2163 576.301 41.5951ZM585.447 44.4431C585.101 44.4431 584.789 44.3792 584.51 44.2514C584.23 44.1211 584.009 43.9329 583.845 43.6868C583.685 43.4405 583.604 43.1387 583.604 42.7812C583.604 42.4734 583.663 42.2201 583.781 42.0213C583.9 41.8224 584.06 41.6649 584.261 41.5489C584.462 41.4329 584.687 41.3453 584.936 41.2861C585.184 41.2269 585.438 41.182 585.695 41.1512C586.022 41.1133 586.287 41.0826 586.491 41.0589C586.695 41.0328 586.843 40.9914 586.935 40.9346C587.027 40.8778 587.073 40.7854 587.073 40.6576V40.6328C587.073 40.3226 586.986 40.0823 586.811 39.9119C586.638 39.7414 586.38 39.6562 586.036 39.6562C585.679 39.6562 585.397 39.7355 585.191 39.8941C584.988 40.0504 584.846 40.2244 584.768 40.4161L583.771 40.1889C583.889 39.8574 584.062 39.5899 584.289 39.3863C584.519 39.1803 584.783 39.0312 585.081 38.9389C585.38 38.8441 585.693 38.7968 586.022 38.7968C586.24 38.7968 586.471 38.8229 586.715 38.8749C586.961 38.9246 587.19 39.017 587.403 39.1519C587.619 39.2869 587.795 39.4798 587.933 39.7308C588.07 39.9793 588.139 40.3025 588.139 40.7002V44.3224H587.101V43.5766H587.059C586.99 43.7139 586.888 43.8489 586.75 43.9814C586.613 44.1141 586.436 44.2241 586.221 44.3118C586.006 44.3993 585.748 44.4431 585.447 44.4431ZM585.678 43.5908C585.971 43.5908 586.222 43.5328 586.431 43.4168C586.641 43.3008 586.801 43.1493 586.91 42.9623C587.021 42.7729 587.077 42.5705 587.077 42.3551V41.6519C587.039 41.6898 586.966 41.7253 586.856 41.7584C586.75 41.7893 586.628 41.8164 586.491 41.8401C586.353 41.8614 586.22 41.8816 586.09 41.9005C585.96 41.9171 585.851 41.9313 585.763 41.9431C585.557 41.9691 585.369 42.0129 585.198 42.0745C585.03 42.1361 584.895 42.2248 584.793 42.3408C584.694 42.4545 584.645 42.606 584.645 42.7954C584.645 43.0582 584.741 43.2571 584.936 43.392C585.13 43.5246 585.377 43.5908 585.678 43.5908ZM590.505 37.0496V44.3224H589.443V37.0496H590.505ZM592.885 37.0496V44.3224H591.823V37.0496H592.885Z" fill="white"/>
<path d="M1001.25 15.5723H888.75C886.679 15.5723 885 17.2512 885 19.3223V61.8223C885 63.8933 886.679 65.5723 888.75 65.5723H1001.25C1003.32 65.5723 1005 63.8933 1005 61.8223V19.3223C1005 17.2512 1003.32 15.5723 1001.25 15.5723Z" fill="#1B8013"/>
<path d="M928.45 37.0495V44.3222H927.35V37.0495H928.45ZM932.4 38.8677V39.72H929.419V38.8677H932.4ZM930.219 37.5609H931.281V42.7207C931.281 42.9266 931.313 43.0817 931.375 43.1859C931.431 43.2877 931.513 43.3575 931.613 43.3954C931.713 43.4309 931.819 43.4487 931.931 43.4487C932.019 43.4487 932.094 43.4427 932.156 43.4309C932.219 43.419 932.269 43.4096 932.306 43.4025L932.5 44.2796C932.438 44.3033 932.35 44.327 932.238 44.3507C932.119 44.3767 931.981 44.3909 931.806 44.3932C931.531 44.398 931.269 44.3483 931.025 44.2441C930.788 44.1399 930.594 43.979 930.444 43.7612C930.294 43.5434 930.219 43.2699 930.219 42.9409V37.5609ZM935.756 44.4323C935.219 44.4323 934.756 44.3175 934.369 44.0879C933.981 43.8559 933.681 43.5304 933.475 43.1113C933.263 42.6899 933.163 42.1963 933.163 41.6305C933.163 41.0717 933.263 40.5794 933.475 40.1532C933.681 39.727 933.975 39.3944 934.35 39.1554C934.731 38.9162 935.175 38.7967 935.681 38.7967C935.988 38.7967 936.288 38.8476 936.575 38.9494C936.863 39.0512 937.125 39.211 937.356 39.4288C937.581 39.6466 937.763 39.9295 937.894 40.2775C938.031 40.6231 938.094 41.0434 938.094 41.5382V41.9145H933.763V41.1191H937.056C937.056 40.8397 937 40.5924 936.888 40.3769C936.769 40.1591 936.613 39.9875 936.406 39.862C936.2 39.7366 935.963 39.6738 935.688 39.6738C935.388 39.6738 935.131 39.7472 934.906 39.894C934.688 40.0384 934.519 40.2278 934.394 40.4622C934.275 40.6942 934.219 40.9463 934.219 41.2186V41.84C934.219 42.2045 934.281 42.5147 934.413 42.7704C934.538 43.026 934.719 43.2214 934.95 43.3563C935.188 43.4889 935.456 43.5552 935.769 43.5552C935.969 43.5552 936.15 43.5268 936.319 43.47C936.481 43.4108 936.625 43.3232 936.744 43.2072C936.869 43.0912 936.956 42.9479 937.025 42.7775L938.025 42.9586C937.95 43.2545 937.806 43.5137 937.594 43.7363C937.388 43.9565 937.131 44.1281 936.819 44.2512C936.506 44.3719 936.15 44.4323 935.756 44.4323ZM939.163 44.3222V38.8677H940.181V39.7555H940.25C940.363 39.4548 940.55 39.2204 940.806 39.0524C941.069 38.8819 941.375 38.7967 941.738 38.7967C942.1 38.7967 942.406 38.8819 942.65 39.0524C942.9 39.2228 943.081 39.4572 943.2 39.7555H943.256C943.388 39.4643 943.594 39.2323 943.881 39.0594C944.163 38.8842 944.5 38.7967 944.894 38.7967C945.388 38.7967 945.794 38.9517 946.106 39.2619C946.419 39.572 946.581 40.0395 946.581 40.6645V44.3222H945.519V40.764C945.519 40.3947 945.419 40.1272 945.213 39.9614C945.013 39.7957 944.775 39.7129 944.494 39.7129C944.15 39.7129 943.881 39.8194 943.688 40.0325C943.494 40.2432 943.4 40.5142 943.4 40.8457V44.3222H942.344V40.6965C942.344 40.4006 942.25 40.1627 942.063 39.9827C941.881 39.8028 941.638 39.7129 941.344 39.7129C941.144 39.7129 940.956 39.7661 940.788 39.8727C940.619 39.9768 940.481 40.1224 940.375 40.3094C940.275 40.4965 940.225 40.7131 940.225 40.9593V44.3222H939.163ZM951.488 37.0495V44.3222H950.425V37.0495H951.488ZM952.806 44.3222V38.8677H953.869V44.3222H952.806ZM953.344 38.0261C953.163 38.0261 953 37.9645 952.869 37.8414C952.738 37.7159 952.675 37.5668 952.675 37.394C952.675 37.2188 952.738 37.0696 952.869 36.9465C953 36.821 953.163 36.7583 953.344 36.7583C953.531 36.7583 953.688 36.821 953.819 36.9465C953.95 37.0696 954.013 37.2188 954.013 37.394C954.013 37.5668 953.95 37.7159 953.819 37.8414C953.688 37.9645 953.531 38.0261 953.344 38.0261ZM959.275 40.1994L958.313 40.3698C958.275 40.2467 958.206 40.1296 958.119 40.0182C958.038 39.907 957.919 39.8159 957.775 39.7448C957.625 39.6738 957.444 39.6383 957.225 39.6383C956.925 39.6383 956.669 39.7057 956.469 39.8407C956.269 39.9733 956.169 40.1449 956.169 40.3556C956.169 40.5379 956.238 40.6847 956.369 40.796C956.506 40.9072 956.725 40.9984 957.025 41.0694L957.894 41.2682C958.394 41.3842 958.769 41.563 959.013 41.8045C959.256 42.046 959.381 42.3596 959.381 42.7456C959.381 43.0722 959.288 43.3634 959.1 43.6191C958.913 43.8724 958.65 44.0713 958.313 44.2157C957.981 44.3601 957.594 44.4323 957.15 44.4323C956.544 44.4323 956.044 44.3021 955.656 44.0417C955.269 43.7789 955.038 43.406 954.95 42.9231L955.975 42.7669C956.038 43.0344 956.169 43.2368 956.369 43.3741C956.569 43.5091 956.825 43.5765 957.144 43.5765C957.494 43.5765 957.769 43.5043 957.981 43.3599C958.188 43.2131 958.294 43.0344 958.294 42.8237C958.294 42.6532 958.231 42.51 958.1 42.394C957.975 42.278 957.781 42.1904 957.519 42.1312L956.6 41.9288C956.088 41.8127 955.713 41.6281 955.469 41.3748C955.225 41.1215 955.106 40.8007 955.106 40.4124C955.106 40.0905 955.194 39.8087 955.375 39.5672C955.556 39.3258 955.806 39.1376 956.125 39.0026C956.438 38.8653 956.8 38.7967 957.213 38.7967C957.8 38.7967 958.269 38.9245 958.606 39.1802C958.944 39.4335 959.169 39.7732 959.275 40.1994ZM962.988 38.8677V39.72H960.006V38.8677H962.988ZM960.806 37.5609H961.869V42.7207C961.869 42.9266 961.9 43.0817 961.963 43.1859C962.019 43.2877 962.1 43.3575 962.2 43.3954C962.3 43.4309 962.406 43.4487 962.519 43.4487C962.606 43.4487 962.681 43.4427 962.744 43.4309C962.806 43.419 962.856 43.4096 962.894 43.4025L963.088 44.2796C963.025 44.3033 962.938 44.327 962.825 44.3507C962.706 44.3767 962.569 44.3909 962.394 44.3932C962.119 44.398 961.856 44.3483 961.613 44.2441C961.375 44.1399 961.181 43.979 961.031 43.7612C960.881 43.5434 960.806 43.2699 960.806 42.9409V37.5609Z" fill="white"/>
<path d="M800 15.5723H720C708.954 15.5723 700 24.5266 700 35.5723V45.5723C700 56.618 708.954 65.5723 720 65.5723H800C811.046 65.5723 820 56.618 820 45.5723V35.5723C820 24.5266 811.046 15.5723 800 15.5723Z" fill="#E9C85B" fill-opacity="0.64"/>
<path d="M736.044 31.9146H734.937C734.894 31.6778 734.812 31.4695 734.7 31.2896C734.581 31.1096 734.437 30.9569 734.269 30.8315C734.1 30.706 733.912 30.6113 733.706 30.5474C733.5 30.4835 733.281 30.4515 733.05 30.4515C732.631 30.4515 732.256 30.5569 731.925 30.7675C731.594 30.9782 731.331 31.2872 731.144 31.6944C730.956 32.1016 730.856 32.5987 730.856 33.1859C730.856 33.7777 730.956 34.2772 731.144 34.6844C731.331 35.0917 731.594 35.3994 731.925 35.6077C732.256 35.8161 732.631 35.9202 733.044 35.9202C733.275 35.9202 733.494 35.8895 733.7 35.8279C733.906 35.764 734.094 35.6705 734.262 35.5474C734.431 35.4243 734.575 35.2739 734.687 35.0964C734.806 34.9165 734.887 34.7105 734.937 34.4785L736.044 34.482C735.981 34.8395 735.869 35.1686 735.7 35.4692C735.531 35.7676 735.312 36.0256 735.05 36.2434C734.787 36.4589 734.487 36.6257 734.144 36.7441C733.806 36.8625 733.437 36.9217 733.037 36.9217C732.406 36.9217 731.85 36.7725 731.356 36.4742C730.862 36.1735 730.475 35.7439 730.194 35.1852C729.906 34.6264 729.769 33.9601 729.769 33.1859C729.769 32.4094 729.912 31.7429 730.194 31.1866C730.481 30.6279 730.869 30.1994 731.356 29.9011C731.85 29.6004 732.412 29.45 733.037 29.45C733.425 29.45 733.787 29.5057 734.119 29.617C734.456 29.7259 734.756 29.8869 735.025 30.0999C735.294 30.3106 735.512 30.5687 735.687 30.8741C735.862 31.1771 735.981 31.5239 736.044 31.9146ZM738.225 33.5836V36.8222H737.162V29.5495H738.206V32.2555H738.275C738.406 31.9619 738.6 31.7287 738.862 31.5559C739.125 31.383 739.469 31.2967 739.894 31.2967C740.269 31.2967 740.594 31.3736 740.869 31.5275C741.156 31.6814 741.369 31.911 741.525 32.2164C741.681 32.5194 741.762 32.8982 741.762 33.3528V36.8222H740.7V33.4806C740.7 33.0806 740.594 32.7704 740.387 32.5502C740.181 32.3277 739.894 32.2164 739.531 32.2164C739.281 32.2164 739.056 32.2697 738.856 32.3762C738.656 32.4827 738.506 32.639 738.387 32.845C738.281 33.0485 738.225 33.2948 738.225 33.5836ZM745.362 36.9323C744.85 36.9323 744.406 36.8151 744.025 36.5807C743.644 36.3464 743.35 36.0185 743.137 35.5971C742.925 35.1757 742.819 34.6833 742.819 34.1198C742.819 33.554 742.925 33.0592 743.137 32.6354C743.35 32.2117 743.644 31.8826 744.025 31.6482C744.406 31.4139 744.85 31.2967 745.362 31.2967C745.875 31.2967 746.319 31.4139 746.7 31.6482C747.081 31.8826 747.381 32.2117 747.594 32.6354C747.8 33.0592 747.906 33.554 747.906 34.1198C747.906 34.6833 747.8 35.1757 747.594 35.5971C747.381 36.0185 747.081 36.3464 746.7 36.5807C746.319 36.8151 745.875 36.9323 745.362 36.9323ZM745.369 36.041C745.7 36.041 745.975 35.9534 746.194 35.7782C746.406 35.603 746.569 35.3698 746.675 35.0786C746.781 34.7874 746.831 34.4667 746.831 34.1163C746.831 33.7682 746.781 33.4487 746.675 33.1575C746.569 32.8639 746.406 32.6284 746.194 32.4508C745.975 32.2732 745.7 32.1844 745.369 32.1844C745.031 32.1844 744.756 32.2732 744.537 32.4508C744.319 32.6284 744.156 32.8639 744.05 33.1575C743.944 33.4487 743.894 33.7682 743.894 34.1163C743.894 34.4667 743.944 34.7874 744.05 35.0786C744.156 35.3698 744.319 35.603 744.537 35.7782C744.756 35.9534 745.031 36.041 745.369 36.041ZM751.281 36.9323C750.769 36.9323 750.325 36.8151 749.944 36.5807C749.562 36.3464 749.262 36.0185 749.05 35.5971C748.844 35.1757 748.737 34.6833 748.737 34.1198C748.737 33.554 748.844 33.0592 749.05 32.6354C749.262 32.2117 749.562 31.8826 749.944 31.6482C750.325 31.4139 750.769 31.2967 751.281 31.2967C751.794 31.2967 752.237 31.4139 752.619 31.6482C753 31.8826 753.294 32.2117 753.506 32.6354C753.719 33.0592 753.825 33.554 753.825 34.1198C753.825 34.6833 753.719 35.1757 753.506 35.5971C753.294 36.0185 753 36.3464 752.619 36.5807C752.237 36.8151 751.794 36.9323 751.281 36.9323ZM751.281 36.041C751.612 36.041 751.887 35.9534 752.106 35.7782C752.325 35.603 752.487 35.3698 752.587 35.0786C752.694 34.7874 752.75 34.4667 752.75 34.1163C752.75 33.7682 752.694 33.4487 752.587 33.1575C752.487 32.8639 752.325 32.6284 752.106 32.4508C751.887 32.2732 751.612 32.1844 751.281 32.1844C750.95 32.1844 750.675 32.2732 750.45 32.4508C750.231 32.6284 750.075 32.8639 749.962 33.1575C749.862 33.4487 749.806 33.7682 749.806 34.1163C749.806 34.4667 749.862 34.7874 749.962 35.0786C750.075 35.3698 750.231 35.603 750.45 35.7782C750.675 35.9534 750.95 36.041 751.281 36.041ZM758.987 32.6994L758.025 32.8698C757.981 32.7467 757.919 32.6296 757.831 32.5182C757.744 32.407 757.631 32.3159 757.481 32.2448C757.337 32.1738 757.15 32.1383 756.931 32.1383C756.631 32.1383 756.381 32.2057 756.181 32.3407C755.975 32.4733 755.875 32.6449 755.875 32.8556C755.875 33.0379 755.944 33.1847 756.081 33.296C756.212 33.4072 756.431 33.4984 756.731 33.5694L757.6 33.7682C758.1 33.8842 758.475 34.063 758.725 34.3045C758.969 34.546 759.094 34.8596 759.094 35.2455C759.094 35.5722 758.994 35.8634 758.806 36.1191C758.619 36.3724 758.356 36.5713 758.025 36.7157C757.687 36.8601 757.3 36.9323 756.862 36.9323C756.25 36.9323 755.75 36.8021 755.369 36.5417C754.981 36.2789 754.744 35.906 754.656 35.4231L755.681 35.2669C755.744 35.5344 755.875 35.7368 756.075 35.8741C756.275 36.0091 756.537 36.0765 756.856 36.0765C757.2 36.0765 757.481 36.0043 757.687 35.8599C757.894 35.7131 758 35.5344 758 35.3237C758 35.1532 757.937 35.01 757.806 34.894C757.681 34.778 757.494 34.6904 757.231 34.6312L756.306 34.4288C755.8 34.3127 755.419 34.1281 755.175 33.8748C754.937 33.6215 754.819 33.3007 754.819 32.9124C754.819 32.5905 754.906 32.3087 755.087 32.0672C755.262 31.8258 755.512 31.6376 755.831 31.5026C756.15 31.3653 756.512 31.2967 756.919 31.2967C757.512 31.2967 757.975 31.4245 758.312 31.6802C758.65 31.9335 758.875 32.2732 758.987 32.6994ZM762.5 36.9323C761.962 36.9323 761.5 36.8175 761.112 36.5879C760.725 36.3559 760.425 36.0304 760.219 35.6113C760.006 35.1899 759.906 34.6963 759.906 34.1305C759.906 33.5717 760.006 33.0794 760.219 32.6532C760.425 32.227 760.719 31.8944 761.094 31.6554C761.475 31.4162 761.919 31.2967 762.425 31.2967C762.731 31.2967 763.031 31.3476 763.319 31.4494C763.606 31.5512 763.869 31.711 764.1 31.9288C764.325 32.1466 764.506 32.4295 764.644 32.7775C764.775 33.1231 764.837 33.5434 764.837 34.0382V34.4146H760.506V33.6191H763.8C763.8 33.3397 763.744 33.0924 763.631 32.8769C763.512 32.6591 763.356 32.4875 763.15 32.362C762.944 32.2366 762.706 32.1738 762.431 32.1738C762.131 32.1738 761.875 32.2472 761.65 32.394C761.431 32.5384 761.262 32.7278 761.137 32.9622C761.019 33.1942 760.962 33.4463 760.962 33.7185V34.34C760.962 34.7046 761.025 35.0147 761.156 35.2704C761.281 35.526 761.462 35.7214 761.7 35.8563C761.931 35.9889 762.2 36.0552 762.512 36.0552C762.712 36.0552 762.894 36.0268 763.062 35.97C763.225 35.9108 763.369 35.8232 763.487 35.7072C763.612 35.5912 763.706 35.4479 763.769 35.2775L764.775 35.4586C764.694 35.7545 764.55 36.0137 764.337 36.2363C764.131 36.4565 763.875 36.6281 763.562 36.7512C763.25 36.8719 762.9 36.9323 762.5 36.9323ZM768.444 36.8222V31.3677H769.506V36.8222H768.444ZM768.981 30.5261C768.794 30.5261 768.637 30.4645 768.506 30.3414C768.375 30.2159 768.306 30.0668 768.306 29.894C768.306 29.7188 768.375 29.5696 768.506 29.4465C768.637 29.321 768.794 29.2583 768.981 29.2583C769.162 29.2583 769.325 29.321 769.45 29.4465C769.587 29.5696 769.65 29.7188 769.65 29.894C769.65 30.0668 769.587 30.2159 769.45 30.3414C769.325 30.4645 769.162 30.5261 768.981 30.5261ZM773.369 31.3677V32.22H770.394V31.3677H773.369ZM771.187 30.0609H772.25V35.2207C772.25 35.4266 772.281 35.5817 772.344 35.6859C772.406 35.7877 772.487 35.8575 772.581 35.8954C772.681 35.9309 772.787 35.9487 772.906 35.9487C772.994 35.9487 773.062 35.9427 773.131 35.9309C773.194 35.919 773.244 35.9096 773.281 35.9025L773.469 36.7796C773.406 36.8033 773.319 36.827 773.206 36.8507C773.094 36.8767 772.95 36.8909 772.781 36.8932C772.5 36.898 772.244 36.8483 772 36.7441C771.756 36.6399 771.562 36.479 771.412 36.2612C771.262 36.0434 771.187 35.7699 771.187 35.4409V30.0609ZM776.725 36.9323C776.187 36.9323 775.725 36.8175 775.337 36.5879C774.95 36.3559 774.656 36.0304 774.444 35.6113C774.237 35.1899 774.131 34.6963 774.131 34.1305C774.131 33.5717 774.237 33.0794 774.444 32.6532C774.656 32.227 774.95 31.8944 775.325 31.6554C775.706 31.4162 776.144 31.2967 776.65 31.2967C776.962 31.2967 777.256 31.3476 777.55 31.4494C777.837 31.5512 778.094 31.711 778.325 31.9288C778.556 32.1466 778.737 32.4295 778.869 32.7775C779 33.1231 779.069 33.5434 779.069 34.0382V34.4146H774.731V33.6191H778.025C778.025 33.3397 777.969 33.0924 777.856 32.8769C777.744 32.6591 777.581 32.4875 777.375 32.362C777.175 32.2366 776.937 32.1738 776.662 32.1738C776.362 32.1738 776.1 32.2472 775.881 32.394C775.656 32.5384 775.487 32.7278 775.369 32.9622C775.25 33.1942 775.187 33.4463 775.187 33.7185V34.34C775.187 34.7046 775.256 35.0147 775.381 35.2704C775.512 35.526 775.694 35.7214 775.925 35.8563C776.156 35.9889 776.425 36.0552 776.737 36.0552C776.937 36.0552 777.125 36.0268 777.287 35.97C777.456 35.9108 777.6 35.8232 777.719 35.7072C777.837 35.5912 777.931 35.4479 777.994 35.2775L779 35.4586C778.919 35.7545 778.775 36.0137 778.569 36.2363C778.362 36.4565 778.1 36.6281 777.787 36.7512C777.481 36.8719 777.125 36.9323 776.725 36.9323ZM780.137 36.8222V31.3677H781.156V32.2555H781.225C781.337 31.9548 781.525 31.7204 781.781 31.5524C782.037 31.3819 782.35 31.2967 782.706 31.2967C783.069 31.2967 783.375 31.3819 783.625 31.5524C783.869 31.7228 784.056 31.9572 784.175 32.2555H784.231C784.362 31.9643 784.569 31.7323 784.85 31.5594C785.137 31.3842 785.475 31.2967 785.869 31.2967C786.362 31.2967 786.769 31.4517 787.081 31.7619C787.394 32.072 787.55 32.5396 787.55 33.1646V36.8222H786.487V33.264C786.487 32.8947 786.387 32.6272 786.187 32.4614C785.987 32.2957 785.744 32.2129 785.469 32.2129C785.119 32.2129 784.85 32.3194 784.662 32.5325C784.469 32.7432 784.375 33.0142 784.375 33.3457V36.8222H783.312V33.1965C783.312 32.9006 783.219 32.6627 783.037 32.4827C782.85 32.3028 782.612 32.2129 782.319 32.2129C782.112 32.2129 781.931 32.2661 781.756 32.3727C781.587 32.4768 781.456 32.6224 781.35 32.8094C781.25 32.9965 781.2 33.2131 781.2 33.4593V36.8222H780.137ZM742.012 51.9323C741.487 51.9323 741.031 51.8127 740.65 51.5737C740.275 51.3322 739.981 50.9995 739.775 50.5758C739.575 50.1521 739.475 49.6667 739.475 49.1198C739.475 48.5659 739.575 48.077 739.787 47.6532C739.994 47.227 740.287 46.8944 740.662 46.6554C741.044 46.4162 741.487 46.2967 742.006 46.2967C742.419 46.2967 742.787 46.3736 743.112 46.5275C743.437 46.679 743.7 46.8921 743.894 47.1667C744.1 47.4413 744.219 47.7621 744.256 48.129H743.225C743.162 47.8734 743.037 47.6532 742.831 47.4686C742.631 47.2839 742.362 47.1915 742.019 47.1915C741.725 47.1915 741.469 47.2697 741.244 47.4259C741.025 47.5798 740.85 47.8 740.731 48.0864C740.606 48.3705 740.544 48.7067 740.544 49.095C740.544 49.4927 740.606 49.836 740.725 50.1248C740.844 50.4136 741.019 50.6374 741.237 50.796C741.456 50.9546 741.719 51.0339 742.019 51.0339C742.225 51.0339 742.406 50.9972 742.569 50.9238C742.731 50.848 742.875 50.7403 742.981 50.6007C743.1 50.461 743.175 50.2929 743.225 50.0964H744.256C744.219 50.4491 744.1 50.764 743.912 51.041C743.719 51.318 743.462 51.5358 743.137 51.6944C742.819 51.853 742.444 51.9323 742.012 51.9323ZM746.869 51.943C746.525 51.943 746.212 51.879 745.931 51.7512C745.65 51.621 745.431 51.4328 745.269 51.1866C745.106 50.9404 745.025 50.6386 745.025 50.2811C745.025 49.9733 745.081 49.72 745.2 49.5211C745.319 49.3222 745.481 49.1648 745.681 49.0488C745.881 48.9328 746.106 48.8452 746.356 48.786C746.606 48.7268 746.856 48.6819 747.119 48.6511C747.444 48.6132 747.706 48.5824 747.912 48.5587C748.119 48.5327 748.262 48.4913 748.356 48.4344C748.45 48.3776 748.494 48.2853 748.494 48.1575V48.1326C748.494 47.8225 748.406 47.5822 748.231 47.4117C748.056 47.2413 747.8 47.1561 747.456 47.1561C747.1 47.1561 746.819 47.2354 746.612 47.394C746.406 47.5502 746.269 47.7242 746.187 47.916L745.194 47.6887C745.312 47.3573 745.481 47.0897 745.712 46.8862C745.937 46.6802 746.206 46.531 746.5 46.4387C746.8 46.344 747.112 46.2967 747.444 46.2967C747.662 46.2967 747.894 46.3227 748.137 46.3748C748.381 46.4245 748.612 46.5169 748.825 46.6518C749.037 46.7867 749.219 46.9797 749.356 47.2306C749.494 47.4792 749.562 47.8024 749.562 48.2V51.8222H748.525V51.0765H748.481C748.412 51.2138 748.306 51.3487 748.169 51.4813C748.031 51.6139 747.856 51.724 747.644 51.8116C747.425 51.8992 747.169 51.943 746.869 51.943ZM747.1 51.0907C747.394 51.0907 747.644 51.0327 747.85 50.9167C748.062 50.8007 748.225 50.6492 748.331 50.4622C748.444 50.2727 748.5 50.0704 748.5 49.8549V49.1518C748.462 49.1897 748.387 49.2252 748.275 49.2583C748.169 49.2891 748.05 49.3163 747.912 49.34C747.775 49.3613 747.644 49.3814 747.512 49.4004C747.381 49.4169 747.269 49.4311 747.181 49.443C746.981 49.469 746.787 49.5128 746.619 49.5744C746.45 49.6359 746.319 49.7247 746.212 49.8407C746.112 49.9544 746.062 50.1059 746.062 50.2952C746.062 50.5581 746.162 50.7569 746.356 50.8919C746.55 51.0244 746.8 51.0907 747.1 51.0907ZM753.412 46.3677V47.22H750.431V46.3677H753.412ZM751.231 45.0609H752.294V50.2207C752.294 50.4266 752.325 50.5817 752.381 50.6859C752.444 50.7877 752.525 50.8575 752.625 50.8954C752.719 50.9309 752.831 50.9487 752.944 50.9487C753.031 50.9487 753.106 50.9427 753.169 50.9309C753.231 50.919 753.281 50.9096 753.319 50.9025L753.512 51.7796C753.45 51.8033 753.362 51.827 753.25 51.8507C753.131 51.8767 752.994 51.8909 752.819 51.8932C752.544 51.898 752.281 51.8483 752.037 51.7441C751.8 51.6399 751.6 51.479 751.456 51.2612C751.306 51.0434 751.231 50.7699 751.231 50.4409V45.0609ZM756.769 51.9323C756.231 51.9323 755.769 51.8175 755.381 51.5879C754.994 51.3559 754.694 51.0304 754.481 50.6113C754.275 50.1899 754.169 49.6963 754.169 49.1305C754.169 48.5717 754.275 48.0794 754.481 47.6532C754.694 47.227 754.987 46.8944 755.362 46.6554C755.744 46.4162 756.187 46.2967 756.694 46.2967C757 46.2967 757.3 46.3475 757.587 46.4494C757.875 46.5512 758.137 46.711 758.362 46.9288C758.594 47.1466 758.775 47.4295 758.906 47.7775C759.044 48.1231 759.106 48.5434 759.106 49.0382V49.4145H754.769V48.6191H758.069C758.069 48.3397 758.012 48.0924 757.894 47.8769C757.781 47.6591 757.625 47.4875 757.419 47.362C757.212 47.2366 756.975 47.1738 756.7 47.1738C756.4 47.1738 756.144 47.2472 755.919 47.394C755.7 47.5384 755.525 47.7278 755.406 47.9622C755.287 48.1942 755.231 48.4463 755.231 48.7186V49.34C755.231 49.7045 755.294 50.0147 755.419 50.2704C755.55 50.526 755.731 50.7214 755.962 50.8563C756.194 50.9889 756.469 51.0552 756.775 51.0552C756.981 51.0552 757.162 51.0268 757.331 50.97C757.494 50.9108 757.637 50.8232 757.756 50.7072C757.881 50.5912 757.969 50.4479 758.037 50.2775L759.037 50.4586C758.956 50.7545 758.812 51.0137 758.606 51.2363C758.4 51.4565 758.144 51.6281 757.831 51.7512C757.519 51.8719 757.162 51.9323 756.769 51.9323ZM762.462 53.9813C762.031 53.9813 761.656 53.9245 761.344 53.8109C761.031 53.6972 760.781 53.5469 760.581 53.3599C760.387 53.1729 760.237 52.9681 760.144 52.7456L761.056 52.3691C761.119 52.4733 761.206 52.5834 761.312 52.6994C761.419 52.8177 761.569 52.9184 761.75 53.0012C761.937 53.084 762.181 53.1255 762.475 53.1255C762.875 53.1255 763.206 53.0272 763.469 52.8307C763.731 52.6366 763.862 52.3265 763.862 51.9004V50.8279H763.8C763.731 50.9439 763.644 51.0729 763.519 51.215C763.4 51.357 763.237 51.4802 763.031 51.5843C762.825 51.6885 762.55 51.7406 762.219 51.7406C761.787 51.7406 761.4 51.6399 761.05 51.4387C760.706 51.2351 760.437 50.9356 760.237 50.5403C760.037 50.1425 759.937 49.6537 759.937 49.0737C759.937 48.4936 760.037 47.9965 760.231 47.5822C760.431 47.1679 760.706 46.8507 761.05 46.6305C761.394 46.4079 761.787 46.2967 762.225 46.2967C762.562 46.2967 762.837 46.3535 763.044 46.4671C763.25 46.5784 763.412 46.7086 763.531 46.8577C763.65 47.0069 763.744 47.1383 763.806 47.2519H763.881V46.3677H764.925V51.943C764.925 52.4117 764.812 52.7964 764.594 53.0971C764.381 53.3977 764.081 53.6203 763.712 53.7647C763.344 53.9091 762.925 53.9813 762.462 53.9813ZM762.45 50.8599C762.756 50.8599 763.012 50.7889 763.225 50.6468C763.437 50.5024 763.6 50.2964 763.706 50.0289C763.819 49.7591 763.875 49.4359 763.875 49.0594C763.875 48.6925 763.819 48.3694 763.712 48.09C763.606 47.8106 763.444 47.5929 763.231 47.4366C763.025 47.278 762.762 47.1987 762.45 47.1987C762.131 47.1987 761.869 47.2815 761.65 47.4472C761.437 47.6106 761.281 47.8331 761.169 48.1149C761.062 48.3965 761.012 48.7114 761.012 49.0594C761.012 49.4169 761.062 49.7306 761.175 50.0005C761.281 50.2704 761.444 50.4811 761.656 50.6326C761.869 50.7841 762.137 50.8599 762.45 50.8599ZM768.537 51.9323C768.025 51.9323 767.575 51.8151 767.194 51.5807C766.812 51.3464 766.519 51.0185 766.306 50.5971C766.1 50.1757 765.994 49.6833 765.994 49.1198C765.994 48.554 766.1 48.0592 766.306 47.6354C766.519 47.2117 766.812 46.8826 767.194 46.6482C767.575 46.4139 768.025 46.2967 768.537 46.2967C769.044 46.2967 769.494 46.4139 769.875 46.6482C770.256 46.8826 770.55 47.2117 770.762 47.6354C770.975 48.0592 771.075 48.554 771.075 49.1198C771.075 49.6833 770.975 50.1757 770.762 50.5971C770.55 51.0185 770.256 51.3464 769.875 51.5807C769.494 51.8151 769.044 51.9323 768.537 51.9323ZM768.537 51.041C768.869 51.041 769.144 50.9534 769.362 50.7782C769.581 50.603 769.744 50.3698 769.844 50.0786C769.95 49.7874 770.006 49.4667 770.006 49.1163C770.006 48.7682 769.95 48.4487 769.844 48.1575C769.744 47.8639 769.581 47.6284 769.362 47.4508C769.144 47.2732 768.869 47.1844 768.537 47.1844C768.206 47.1844 767.925 47.2732 767.706 47.4508C767.487 47.6284 767.325 47.8639 767.219 48.1575C767.119 48.4487 767.062 48.7682 767.062 49.1163C767.062 49.4667 767.119 49.7874 767.219 50.0786C767.325 50.3698 767.487 50.603 767.706 50.7782C767.925 50.9534 768.206 51.041 768.537 51.041ZM772.15 51.8222V46.3677H773.181V47.2342H773.237C773.337 46.9406 773.512 46.7098 773.762 46.5417C774.012 46.3712 774.3 46.286 774.619 46.286C774.687 46.286 774.762 46.2884 774.856 46.2931C774.95 46.2979 775.019 46.3038 775.069 46.3109V47.3265C775.031 47.3147 774.956 47.3016 774.844 47.2874C774.737 47.2709 774.625 47.2625 774.519 47.2625C774.269 47.2625 774.044 47.3159 773.844 47.4224C773.65 47.5265 773.5 47.6721 773.387 47.8592C773.269 48.0438 773.212 48.2546 773.212 48.4913V51.8222H772.15ZM776.719 53.8677C776.556 53.8677 776.412 53.8547 776.287 53.8286C776.156 53.8049 776.056 53.7789 775.994 53.7505L776.25 52.8805C776.444 52.9325 776.619 52.9551 776.769 52.9479C776.919 52.9409 777.05 52.884 777.169 52.7775C777.287 52.671 777.394 52.4969 777.481 52.2555L777.612 51.8932L775.619 46.3677H776.756L778.137 50.6007H778.194L779.575 46.3677H780.712L778.462 52.5502C778.362 52.8343 778.231 53.0746 778.069 53.2711C777.906 53.47 777.712 53.6191 777.494 53.7186C777.269 53.818 777.012 53.8677 776.719 53.8677Z" fill="black" fill-opacity="0.8"/>
<path d="M430 15.5723H350C338.954 15.5723 330 24.5266 330 35.5723V45.5723C330 56.618 338.954 65.5723 350 65.5723H430C441.046 65.5723 450 56.618 450 45.5723V35.5723C450 24.5266 441.046 15.5723 430 15.5723Z" fill="#E9C85B" fill-opacity="0.64"/>
<path d="M361.236 39.4146H360.128C360.086 39.1778 360.006 38.9695 359.89 38.7896C359.775 38.6096 359.633 38.4569 359.465 38.3315C359.296 38.206 359.108 38.1113 358.9 38.0474C358.694 37.9835 358.475 37.9515 358.243 37.9515C357.824 37.9515 357.448 38.0569 357.117 38.2675C356.788 38.4782 356.528 38.7872 356.336 39.1944C356.146 39.6016 356.051 40.0987 356.051 40.6859C356.051 41.2777 356.146 41.7772 356.336 42.1844C356.528 42.5917 356.789 42.8994 357.121 43.1077C357.452 43.3161 357.825 43.4202 358.239 43.4202C358.469 43.4202 358.686 43.3895 358.893 43.3279C359.101 43.264 359.289 43.1705 359.457 43.0474C359.625 42.9243 359.767 42.7739 359.883 42.5964C360.001 42.4165 360.083 42.2105 360.128 41.9785L361.236 41.982C361.177 42.3395 361.062 42.6686 360.892 42.9692C360.724 43.2675 360.507 43.5256 360.242 43.7434C359.979 43.9589 359.678 44.1257 359.34 44.2441C359.001 44.3625 358.632 44.4217 358.232 44.4217C357.602 44.4217 357.041 44.2725 356.549 43.9742C356.056 43.6735 355.668 43.2439 355.384 42.6852C355.102 42.1264 354.961 41.4601 354.961 40.6859C354.961 39.9094 355.103 39.2429 355.388 38.6866C355.671 38.1279 356.06 37.6994 356.552 37.4011C357.045 37.1004 357.605 36.95 358.232 36.95C358.618 36.95 358.978 37.0057 359.311 37.117C359.648 37.2259 359.95 37.3869 360.217 37.5999C360.485 37.8106 360.706 38.0687 360.881 38.3741C361.056 38.6771 361.175 39.0239 361.236 39.4146ZM363.416 37.0495V44.3222H362.354V37.0495H363.416ZM364.735 44.3222V38.8677H365.796V44.3222H364.735ZM365.271 38.0261C365.086 38.0261 364.927 37.9645 364.795 37.8414C364.665 37.7159 364.6 37.5668 364.6 37.394C364.6 37.2188 364.665 37.0696 364.795 36.9465C364.927 36.821 365.086 36.7583 365.271 36.7583C365.455 36.7583 365.613 36.821 365.743 36.9465C365.875 37.0696 365.941 37.2188 365.941 37.394C365.941 37.5668 365.875 37.7159 365.743 37.8414C365.613 37.9645 365.455 38.0261 365.271 38.0261ZM369.412 44.4323C368.884 44.4323 368.43 44.3127 368.048 44.0737C367.67 43.8322 367.378 43.4995 367.175 43.0758C366.971 42.652 366.87 42.1667 366.87 41.6198C366.87 41.0659 366.974 40.577 367.182 40.1532C367.39 39.727 367.684 39.3944 368.063 39.1554C368.441 38.9162 368.888 38.7967 369.401 38.7967C369.816 38.7967 370.185 38.8736 370.51 39.0275C370.834 39.179 371.095 39.3921 371.295 39.6667C371.496 39.9413 371.615 40.2621 371.653 40.629H370.62C370.563 40.3734 370.433 40.1532 370.229 39.9685C370.028 39.7839 369.758 39.6916 369.42 39.6916C369.123 39.6916 368.864 39.7697 368.641 39.9259C368.421 40.0798 368.25 40.3 368.126 40.5864C368.003 40.8705 367.942 41.2067 367.942 41.595C367.942 41.9927 368.003 42.336 368.123 42.6248C368.244 42.9136 368.415 43.1374 368.635 43.296C368.857 43.4546 369.118 43.5339 369.42 43.5339C369.621 43.5339 369.803 43.4972 369.966 43.4238C370.132 43.3481 370.27 43.2403 370.381 43.1007C370.495 42.961 370.575 42.7929 370.62 42.5964H371.653C371.615 42.9491 371.5 43.264 371.308 43.541C371.116 43.818 370.86 44.0358 370.538 44.1944C370.218 44.353 369.843 44.4323 369.412 44.4323ZM373.655 42.4721L373.648 41.1759H373.833L376.006 38.8677H377.277L374.798 41.4956H374.631L373.655 42.4721ZM372.678 44.3222V37.0495H373.74V44.3222H372.678ZM376.123 44.3222L374.17 41.7299L374.901 40.9877L377.426 44.3222H376.123ZM381.733 41.0836V44.3222H380.671V38.8677H381.69V39.7555H381.758C381.883 39.4667 382.08 39.2346 382.348 39.0594C382.617 38.8842 382.957 38.7967 383.366 38.7967C383.738 38.7967 384.064 38.8748 384.343 39.031C384.623 39.1849 384.839 39.4145 384.993 39.72C385.147 40.0254 385.224 40.403 385.224 40.8528V44.3222H384.162V40.9806C384.162 40.5852 384.059 40.2763 383.853 40.0538C383.647 39.8289 383.365 39.7164 383.005 39.7164C382.758 39.7164 382.539 39.7697 382.348 39.8762C382.158 39.9827 382.008 40.139 381.896 40.345C381.788 40.5485 381.733 40.7948 381.733 41.0836ZM388.125 44.443C387.78 44.443 387.467 44.379 387.188 44.2512C386.908 44.121 386.687 43.9328 386.524 43.6866C386.363 43.4404 386.282 43.1386 386.282 42.7811C386.282 42.4733 386.341 42.22 386.46 42.0211C386.578 41.8222 386.738 41.6648 386.939 41.5488C387.14 41.4328 387.365 41.3452 387.614 41.286C387.863 41.2268 388.116 41.1819 388.374 41.1511C388.701 41.1132 388.966 41.0824 389.17 41.0587C389.373 41.0327 389.521 40.9913 389.613 40.9344C389.705 40.8776 389.751 40.7853 389.751 40.6575V40.6326C389.751 40.3225 389.664 40.0822 389.489 39.9117C389.316 39.7413 389.058 39.656 388.715 39.656C388.357 39.656 388.076 39.7354 387.87 39.894C387.666 40.0502 387.525 40.2242 387.447 40.416L386.449 40.1887C386.568 39.8573 386.74 39.5897 386.968 39.3862C387.197 39.1802 387.461 39.031 387.76 38.9387C388.058 38.844 388.371 38.7967 388.701 38.7967C388.918 38.7967 389.149 38.8227 389.393 38.8748C389.639 38.9245 389.869 39.0169 390.082 39.1518C390.297 39.2867 390.474 39.4797 390.611 39.7306C390.748 39.9792 390.817 40.3024 390.817 40.7V44.3222H389.78V43.5765H389.738C389.669 43.7138 389.566 43.8487 389.428 43.9813C389.291 44.1139 389.115 44.224 388.9 44.3116C388.684 44.3992 388.426 44.443 388.125 44.443ZM388.356 43.5907C388.65 43.5907 388.901 43.5327 389.109 43.4167C389.32 43.3007 389.48 43.1492 389.588 42.9622C389.7 42.7727 389.755 42.5704 389.755 42.3549V41.6518C389.717 41.6897 389.644 41.7252 389.535 41.7583C389.428 41.7891 389.306 41.8163 389.17 41.84C389.032 41.8613 388.898 41.8814 388.768 41.9004C388.638 41.9169 388.529 41.9311 388.441 41.943C388.235 41.969 388.047 42.0128 387.876 42.0744C387.708 42.1359 387.573 42.2247 387.472 42.3407C387.373 42.4544 387.323 42.6059 387.323 42.7952C387.323 43.0581 387.42 43.2569 387.614 43.3919C387.808 43.5244 388.055 43.5907 388.356 43.5907ZM396.592 38.8677L394.614 44.3222H393.478L391.496 38.8677H392.636L394.018 43.0651H394.075L395.452 38.8677H396.592ZM400.016 44.3222V38.8677H401.036V39.7555H401.103C401.217 39.4548 401.403 39.2204 401.661 39.0524C401.919 38.8819 402.228 38.7967 402.588 38.7967C402.952 38.7967 403.258 38.8819 403.504 39.0524C403.752 39.2228 403.936 39.4572 404.054 39.7555H404.111C404.241 39.4643 404.448 39.2323 404.733 39.0594C405.016 38.8842 405.355 38.7967 405.748 38.7967C406.243 38.7967 406.646 38.9517 406.959 39.2619C407.274 39.572 407.431 40.0395 407.431 40.6645V44.3222H406.37V40.764C406.37 40.3947 406.269 40.1272 406.068 39.9614C405.866 39.7957 405.626 39.7129 405.346 39.7129C405.001 39.7129 404.733 39.8194 404.541 40.0325C404.349 40.2432 404.253 40.5142 404.253 40.8457V44.3222H403.195V40.6965C403.195 40.4006 403.103 40.1627 402.918 39.9827C402.733 39.8028 402.493 39.7129 402.197 39.7129C401.996 39.7129 401.81 39.7661 401.64 39.8727C401.471 39.9768 401.335 40.1224 401.231 40.3094C401.129 40.4965 401.078 40.7131 401.078 40.9593V44.3222H400.016ZM411.095 44.4323C410.558 44.4323 410.095 44.3175 409.706 44.0879C409.321 43.8559 409.023 43.5304 408.812 43.1113C408.603 42.6899 408.5 42.1963 408.5 41.6305C408.5 41.0717 408.603 40.5794 408.812 40.1532C409.023 39.727 409.316 39.3944 409.693 39.1554C410.071 38.9162 410.514 38.7967 411.021 38.7967C411.328 38.7967 411.626 38.8476 411.916 38.9494C412.205 39.0512 412.463 39.211 412.693 39.4288C412.923 39.6466 413.104 39.9295 413.236 40.2775C413.369 40.6231 413.435 41.0434 413.435 41.5382V41.9145H409.1V41.1191H412.395C412.395 40.8397 412.338 40.5924 412.225 40.3769C412.111 40.1591 411.951 39.9875 411.745 39.862C411.541 39.7366 411.302 39.6738 411.028 39.6738C410.73 39.6738 410.469 39.7472 410.246 39.894C410.026 40.0384 409.856 40.2278 409.735 40.4622C409.617 40.6942 409.558 40.9463 409.558 41.2186V41.84C409.558 42.2045 409.621 42.5147 409.75 42.7704C409.88 43.026 410.061 43.2214 410.293 43.3563C410.525 43.4889 410.796 43.5552 411.106 43.5552C411.307 43.5552 411.491 43.5268 411.656 43.47C411.822 43.4108 411.965 43.3232 412.086 43.2072C412.206 43.0912 412.299 42.9479 412.363 42.7775L413.368 42.9586C413.288 43.2545 413.143 43.5137 412.935 43.7363C412.729 43.9565 412.47 44.1281 412.157 44.2512C411.847 44.3719 411.493 44.4323 411.095 44.4323ZM415.565 41.0836V44.3222H414.503V38.8677H415.523V39.7555H415.59C415.716 39.4667 415.912 39.2346 416.18 39.0594C416.45 38.8842 416.789 38.7967 417.199 38.7967C417.57 38.7967 417.896 38.8748 418.175 39.031C418.455 39.1849 418.671 39.4145 418.825 39.72C418.979 40.0254 419.056 40.403 419.056 40.8528V44.3222H417.995V40.9806C417.995 40.5852 417.891 40.2763 417.685 40.0538C417.48 39.8289 417.196 39.7164 416.836 39.7164C416.59 39.7164 416.371 39.7697 416.18 39.8762C415.99 39.9827 415.84 40.139 415.729 40.345C415.62 40.5485 415.565 40.7948 415.565 41.0836ZM423.825 42.0602V38.8677H424.891V44.3222H423.846V43.3776H423.79C423.665 43.6688 423.463 43.9115 423.186 44.1056C422.911 44.2974 422.57 44.3932 422.16 44.3932C421.81 44.3932 421.5 44.3163 421.23 44.1624C420.962 44.0062 420.751 43.7754 420.597 43.47C420.446 43.1645 420.37 42.787 420.37 42.3372V38.8677H421.432V42.2093C421.432 42.581 421.535 42.8769 421.741 43.0971C421.947 43.3172 422.215 43.4274 422.543 43.4274C422.742 43.4274 422.94 43.3776 423.136 43.2782C423.335 43.1788 423.5 43.0284 423.63 42.8272C423.763 42.626 423.828 42.3703 423.825 42.0602Z" fill="black" fill-opacity="0.8"/>
<path d="M1170 15.5723H1090C1078.95 15.5723 1070 24.5266 1070 35.5723V45.5723C1070 56.618 1078.95 65.5723 1090 65.5723H1170C1181.05 65.5723 1190 56.618 1190 45.5723V35.5723C1190 24.5266 1181.05 15.5723 1170 15.5723Z" fill="#E9C85B" fill-opacity="0.64"/>
<path d="M1107.31 39.4146H1106.21C1106.16 39.1778 1106.08 38.9695 1105.96 38.7896C1105.85 38.6096 1105.71 38.4569 1105.54 38.3315C1105.37 38.206 1105.18 38.1113 1104.98 38.0474C1104.77 37.9835 1104.55 37.9515 1104.32 37.9515C1103.9 37.9515 1103.53 38.0569 1103.19 38.2675C1102.86 38.4782 1102.6 38.7872 1102.41 39.1944C1102.22 39.6016 1102.13 40.0987 1102.13 40.6859C1102.13 41.2777 1102.22 41.7772 1102.41 42.1844C1102.6 42.5917 1102.86 42.8994 1103.19 43.1077C1103.53 43.3161 1103.9 43.4202 1104.31 43.4202C1104.54 43.4202 1104.76 43.3895 1104.97 43.3279C1105.18 43.264 1105.36 43.1705 1105.53 43.0474C1105.7 42.9243 1105.84 42.7739 1105.96 42.5964C1106.08 42.4165 1106.16 42.2105 1106.21 41.9785L1107.31 41.982C1107.25 42.3395 1107.14 42.6686 1106.97 42.9692C1106.8 43.2675 1106.58 43.5256 1106.32 43.7434C1106.06 43.9589 1105.76 44.1257 1105.41 44.2441C1105.08 44.3625 1104.71 44.4217 1104.31 44.4217C1103.68 44.4217 1103.12 44.2725 1102.63 43.9742C1102.13 43.6735 1101.74 43.2439 1101.46 42.6852C1101.18 42.1264 1101.04 41.4601 1101.04 40.6859C1101.04 39.9094 1101.18 39.2429 1101.46 38.6866C1101.74 38.1279 1102.14 37.6994 1102.63 37.4011C1103.12 37.1004 1103.68 36.95 1104.31 36.95C1104.69 36.95 1105.05 37.0057 1105.39 37.117C1105.73 37.2259 1106.03 37.3869 1106.29 37.5999C1106.56 37.8106 1106.78 38.0687 1106.96 38.3741C1107.13 38.6771 1107.25 39.0239 1107.31 39.4146ZM1109.49 41.0836V44.3222H1108.43V37.0495H1109.48V39.7555H1109.54C1109.68 39.4619 1109.87 39.2287 1110.13 39.0559C1110.39 38.883 1110.74 38.7967 1111.16 38.7967C1111.53 38.7967 1111.86 38.8736 1112.14 39.0275C1112.42 39.1814 1112.64 39.411 1112.79 39.7164C1112.95 40.0194 1113.03 40.3982 1113.03 40.8528V44.3222H1111.97V40.9806C1111.97 40.5805 1111.86 40.2704 1111.66 40.0502C1111.45 39.8277 1111.16 39.7164 1110.8 39.7164C1110.54 39.7164 1110.33 39.7697 1110.13 39.8762C1109.93 39.9827 1109.77 40.139 1109.66 40.345C1109.54 40.5485 1109.49 40.7948 1109.49 41.0836ZM1116.63 44.4323C1116.12 44.4323 1115.68 44.3151 1115.29 44.0807C1114.91 43.8464 1114.62 43.5185 1114.41 43.0971C1114.19 42.6757 1114.09 42.1833 1114.09 41.6198C1114.09 41.054 1114.19 40.5592 1114.41 40.1354C1114.62 39.7117 1114.91 39.3826 1115.29 39.1482C1115.68 38.9139 1116.12 38.7967 1116.63 38.7967C1117.14 38.7967 1117.59 38.9139 1117.97 39.1482C1118.35 39.3826 1118.65 39.7117 1118.86 40.1354C1119.07 40.5592 1119.18 41.054 1119.18 41.6198C1119.18 42.1833 1119.07 42.6757 1118.86 43.0971C1118.65 43.5185 1118.35 43.8464 1117.97 44.0807C1117.59 44.3151 1117.14 44.4323 1116.63 44.4323ZM1116.64 43.541C1116.97 43.541 1117.24 43.4534 1117.46 43.2782C1117.68 43.103 1117.84 42.8698 1117.94 42.5786C1118.05 42.2874 1118.1 41.9667 1118.1 41.6163C1118.1 41.2682 1118.05 40.9487 1117.94 40.6575C1117.84 40.3639 1117.68 40.1284 1117.46 39.9508C1117.24 39.7732 1116.97 39.6844 1116.64 39.6844C1116.3 39.6844 1116.03 39.7732 1115.81 39.9508C1115.59 40.1284 1115.43 40.3639 1115.32 40.6575C1115.21 40.9487 1115.16 41.2682 1115.16 41.6163C1115.16 41.9667 1115.21 42.2874 1115.32 42.5786C1115.43 42.8698 1115.59 43.103 1115.81 43.2782C1116.03 43.4534 1116.3 43.541 1116.64 43.541ZM1122.55 44.4323C1122.04 44.4323 1121.59 44.3151 1121.21 44.0807C1120.83 43.8464 1120.53 43.5185 1120.32 43.0971C1120.11 42.6757 1120.01 42.1833 1120.01 41.6198C1120.01 41.054 1120.11 40.5592 1120.32 40.1354C1120.53 39.7117 1120.83 39.3826 1121.21 39.1482C1121.59 38.9139 1122.04 38.7967 1122.55 38.7967C1123.06 38.7967 1123.51 38.9139 1123.89 39.1482C1124.27 39.3826 1124.56 39.7117 1124.78 40.1354C1124.99 40.5592 1125.09 41.054 1125.09 41.6198C1125.09 42.1833 1124.99 42.6757 1124.78 43.0971C1124.56 43.5185 1124.27 43.8464 1123.89 44.0807C1123.51 44.3151 1123.06 44.4323 1122.55 44.4323ZM1122.55 43.541C1122.88 43.541 1123.16 43.4534 1123.38 43.2782C1123.59 43.103 1123.76 42.8698 1123.86 42.5786C1123.96 42.2874 1124.02 41.9667 1124.02 41.6163C1124.02 41.2682 1123.96 40.9487 1123.86 40.6575C1123.76 40.3639 1123.59 40.1284 1123.38 39.9508C1123.16 39.7732 1122.88 39.6844 1122.55 39.6844C1122.22 39.6844 1121.94 39.7732 1121.72 39.9508C1121.5 40.1284 1121.34 40.3639 1121.23 40.6575C1121.13 40.9487 1121.08 41.2682 1121.08 41.6163C1121.08 41.9667 1121.13 42.2874 1121.23 42.5786C1121.34 42.8698 1121.5 43.103 1121.72 43.2782C1121.94 43.4534 1122.22 43.541 1122.55 43.541ZM1130.25 40.1994L1129.29 40.3698C1129.25 40.2467 1129.19 40.1296 1129.1 40.0182C1129.01 39.907 1128.9 39.8159 1128.75 39.7448C1128.61 39.6738 1128.42 39.6383 1128.2 39.6383C1127.9 39.6383 1127.65 39.7057 1127.45 39.8407C1127.24 39.9733 1127.14 40.1449 1127.14 40.3556C1127.14 40.5379 1127.21 40.6847 1127.35 40.796C1127.48 40.9072 1127.7 40.9984 1128 41.0694L1128.87 41.2682C1129.37 41.3842 1129.74 41.563 1129.99 41.8045C1130.24 42.046 1130.36 42.3596 1130.36 42.7456C1130.36 43.0722 1130.26 43.3634 1130.08 43.6191C1129.89 43.8724 1129.63 44.0713 1129.29 44.2157C1128.96 44.3601 1128.57 44.4323 1128.13 44.4323C1127.52 44.4323 1127.02 44.3021 1126.63 44.0417C1126.25 43.7789 1126.01 43.406 1125.93 42.9231L1126.95 42.7669C1127.01 43.0344 1127.14 43.2368 1127.34 43.3741C1127.54 43.5091 1127.8 43.5765 1128.13 43.5765C1128.47 43.5765 1128.75 43.5043 1128.96 43.3599C1129.16 43.2131 1129.27 43.0344 1129.27 42.8237C1129.27 42.6532 1129.21 42.51 1129.08 42.394C1128.95 42.278 1128.76 42.1904 1128.5 42.1312L1127.58 41.9288C1127.07 41.8127 1126.69 41.6281 1126.44 41.3748C1126.21 41.1215 1126.08 40.8007 1126.08 40.4124C1126.08 40.0905 1126.18 39.8087 1126.36 39.5672C1126.53 39.3258 1126.78 39.1376 1127.1 39.0026C1127.42 38.8653 1127.78 38.7967 1128.19 38.7967C1128.78 38.7967 1129.24 38.9245 1129.58 39.1802C1129.92 39.4335 1130.14 39.7732 1130.25 40.1994ZM1133.77 44.4323C1133.23 44.4323 1132.77 44.3175 1132.38 44.0879C1131.99 43.8559 1131.69 43.5304 1131.49 43.1113C1131.28 42.6899 1131.18 42.1963 1131.18 41.6305C1131.18 41.0717 1131.28 40.5794 1131.49 40.1532C1131.69 39.727 1131.99 39.3944 1132.36 39.1554C1132.74 38.9162 1133.19 38.7967 1133.69 38.7967C1134 38.7967 1134.3 38.8476 1134.59 38.9494C1134.88 39.0512 1135.14 39.211 1135.37 39.4288C1135.59 39.6466 1135.78 39.9295 1135.91 40.2775C1136.04 40.6231 1136.11 41.0434 1136.11 41.5382V41.9145H1131.78V41.1191H1135.07C1135.07 40.8397 1135.01 40.5924 1134.9 40.3769C1134.78 40.1591 1134.63 39.9875 1134.42 39.862C1134.21 39.7366 1133.98 39.6738 1133.7 39.6738C1133.4 39.6738 1133.14 39.7472 1132.92 39.894C1132.7 40.0384 1132.53 40.2278 1132.41 40.4622C1132.29 40.6942 1132.23 40.9463 1132.23 41.2186V41.84C1132.23 42.2045 1132.29 42.5147 1132.43 42.7704C1132.55 43.026 1132.73 43.2214 1132.96 43.3563C1133.2 43.4889 1133.47 43.5552 1133.78 43.5552C1133.98 43.5552 1134.16 43.5268 1134.33 43.47C1134.49 43.4108 1134.64 43.3232 1134.76 43.2072C1134.88 43.0912 1134.97 42.9479 1135.04 42.7775L1136.04 42.9586C1135.96 43.2545 1135.81 43.5137 1135.61 43.7363C1135.4 43.9565 1135.14 44.1281 1134.83 44.2512C1134.52 44.3719 1134.16 44.4323 1133.77 44.4323ZM1139.71 44.3222V38.8677H1140.78V44.3222H1139.71ZM1140.25 38.0261C1140.06 38.0261 1139.91 37.9645 1139.78 37.8414C1139.64 37.7159 1139.58 37.5668 1139.58 37.394C1139.58 37.2188 1139.64 37.0696 1139.78 36.9465C1139.91 36.821 1140.06 36.7583 1140.25 36.7583C1140.43 36.7583 1140.59 36.821 1140.72 36.9465C1140.86 37.0696 1140.92 37.2188 1140.92 37.394C1140.92 37.5668 1140.86 37.7159 1140.72 37.8414C1140.59 37.9645 1140.43 38.0261 1140.25 38.0261ZM1144.64 38.8677V39.72H1141.66V38.8677H1144.64ZM1142.46 37.5609H1143.52V42.7207C1143.52 42.9266 1143.55 43.0817 1143.61 43.1859C1143.68 43.2877 1143.76 43.3575 1143.85 43.3954C1143.95 43.4309 1144.06 43.4487 1144.18 43.4487C1144.26 43.4487 1144.33 43.4427 1144.4 43.4309C1144.46 43.419 1144.51 43.4096 1144.54 43.4025L1144.74 44.2796C1144.68 44.3033 1144.59 44.327 1144.48 44.3507C1144.36 44.3767 1144.22 44.3909 1144.05 44.3932C1143.77 44.398 1143.51 44.3483 1143.27 44.2441C1143.03 44.1399 1142.83 43.979 1142.68 43.7612C1142.53 43.5434 1142.46 43.2699 1142.46 42.9409V37.5609ZM1147.99 44.4323C1147.46 44.4323 1146.99 44.3175 1146.61 44.0879C1146.22 43.8559 1145.93 43.5304 1145.71 43.1113C1145.51 42.6899 1145.4 42.1963 1145.4 41.6305C1145.4 41.0717 1145.51 40.5794 1145.71 40.1532C1145.93 39.727 1146.22 39.3944 1146.59 39.1554C1146.97 38.9162 1147.41 38.7967 1147.92 38.7967C1148.23 38.7967 1148.53 38.8476 1148.82 38.9494C1149.11 39.0512 1149.36 39.211 1149.59 39.4288C1149.83 39.6466 1150.01 39.9295 1150.14 40.2775C1150.27 40.6231 1150.34 41.0434 1150.34 41.5382V41.9145H1146V41.1191H1149.29C1149.29 40.8397 1149.24 40.5924 1149.13 40.3769C1149.01 40.1591 1148.85 39.9875 1148.64 39.862C1148.44 39.7366 1148.2 39.6738 1147.93 39.6738C1147.63 39.6738 1147.37 39.7472 1147.15 39.894C1146.93 40.0384 1146.76 40.2278 1146.64 40.4622C1146.52 40.6942 1146.46 40.9463 1146.46 41.2186V41.84C1146.46 42.2045 1146.53 42.5147 1146.65 42.7704C1146.78 43.026 1146.96 43.2214 1147.19 43.3563C1147.43 43.4889 1147.69 43.5552 1148.01 43.5552C1148.21 43.5552 1148.39 43.5268 1148.56 43.47C1148.73 43.4108 1148.87 43.3232 1148.99 43.2072C1149.11 43.0912 1149.2 42.9479 1149.26 42.7775L1150.27 42.9586C1150.19 43.2545 1150.04 43.5137 1149.84 43.7363C1149.63 43.9565 1149.37 44.1281 1149.06 44.2512C1148.75 44.3719 1148.39 44.4323 1147.99 44.4323ZM1151.41 44.3222V38.8677H1152.43V39.7555H1152.49C1152.61 39.4548 1152.79 39.2204 1153.05 39.0524C1153.31 38.8819 1153.61 38.7967 1153.98 38.7967C1154.34 38.7967 1154.64 38.8819 1154.89 39.0524C1155.14 39.2228 1155.33 39.4572 1155.44 39.7555H1155.5C1155.63 39.4643 1155.84 39.2323 1156.12 39.0594C1156.41 38.8842 1156.74 38.7967 1157.14 38.7967C1157.63 38.7967 1158.03 38.9517 1158.34 39.2619C1158.66 39.572 1158.82 40.0395 1158.82 40.6645V44.3222H1157.76V40.764C1157.76 40.3947 1157.66 40.1272 1157.46 39.9614C1157.26 39.7957 1157.01 39.7129 1156.73 39.7129C1156.39 39.7129 1156.12 39.8194 1155.93 40.0325C1155.74 40.2432 1155.64 40.5142 1155.64 40.8457V44.3222H1154.58V40.6965C1154.58 40.4006 1154.49 40.1627 1154.31 39.9827C1154.12 39.8028 1153.88 39.7129 1153.59 39.7129C1153.38 39.7129 1153.2 39.7661 1153.03 39.8727C1152.86 39.9768 1152.73 40.1224 1152.62 40.3094C1152.52 40.4965 1152.47 40.7131 1152.47 40.9593V44.3222H1151.41Z" fill="black" fill-opacity="0.8"/>
<path d="M268.75 39.6347C268.232 39.6347 267.812 40.0544 267.812 40.5722C267.812 41.0899 268.232 41.5097 268.75 41.5097V39.6347ZM326.913 41.2351C327.279 40.869 327.279 40.2754 326.913 39.9092L320.947 33.9431C320.581 33.5769 319.987 33.5769 319.621 33.9431C319.255 34.3092 319.255 34.9027 319.621 35.2689L324.924 40.5722L319.621 45.8755C319.255 46.2416 319.255 46.8352 319.621 47.2013C319.987 47.5674 320.581 47.5674 320.947 47.2013L326.913 41.2351ZM268.75 41.5097H326.25V39.6347H268.75V41.5097Z" fill="#B3B3B3"/>
<path d="M453.75 39.6347C453.232 39.6347 452.812 40.0544 452.812 40.5722C452.812 41.0899 453.232 41.5097 453.75 41.5097V39.6347ZM511.913 41.2351C512.279 40.869 512.279 40.2754 511.913 39.9092L505.947 33.9431C505.581 33.5769 504.987 33.5769 504.621 33.9431C504.255 34.3092 504.255 34.9027 504.621 35.2689L509.924 40.5722L504.621 45.8755C504.255 46.2416 504.255 46.8352 504.621 47.2013C504.987 47.5674 505.581 47.5674 505.947 47.2013L511.913 41.2351ZM453.75 41.5097H511.25V39.6347H453.75V41.5097Z" fill="#B3B3B3"/>
<path d="M638.75 39.6347C638.231 39.6347 637.812 40.0544 637.812 40.5722C637.812 41.0899 638.231 41.5097 638.75 41.5097V39.6347ZM696.913 41.2351C697.281 40.869 697.281 40.2754 696.913 39.9092L690.944 33.9431C690.581 33.5769 689.988 33.5769 689.619 33.9431C689.256 34.3092 689.256 34.9027 689.619 35.2689L694.925 40.5722L689.619 45.8755C689.256 46.2416 689.256 46.8352 689.619 47.2013C689.988 47.5674 690.581 47.5674 690.944 47.2013L696.913 41.2351ZM638.75 41.5097H696.25V39.6347H638.75V41.5097Z" fill="#B3B3B3"/>
<path d="M823.75 39.6347C823.231 39.6347 822.812 40.0544 822.812 40.5722C822.812 41.0899 823.231 41.5097 823.75 41.5097V39.6347ZM881.913 41.2351C882.281 40.869 882.281 40.2754 881.913 39.9092L875.944 33.9431C875.581 33.5769 874.988 33.5769 874.619 33.9431C874.256 34.3092 874.256 34.9027 874.619 35.2689L879.925 40.5722L874.619 45.8755C874.256 46.2416 874.256 46.8352 874.619 47.2013C874.988 47.5674 875.581 47.5674 875.944 47.2013L881.913 41.2351ZM823.75 41.5097H881.25V39.6347H823.75V41.5097Z" fill="#B3B3B3"/>
<path d="M1008.75 39.6347C1008.23 39.6347 1007.81 40.0544 1007.81 40.5722C1007.81 41.0899 1008.23 41.5097 1008.75 41.5097V39.6347ZM1066.91 41.2351C1067.28 40.869 1067.28 40.2754 1066.91 39.9092L1060.94 33.9431C1060.58 33.5769 1059.99 33.5769 1059.62 33.9431C1059.26 34.3092 1059.26 34.9027 1059.62 35.2689L1064.93 40.5722L1059.62 45.8755C1059.26 46.2416 1059.26 46.8352 1059.62 47.2013C1059.99 47.5674 1060.58 47.5674 1060.94 47.2013L1066.91 41.2351ZM1008.75 41.5097H1066.25V39.6347H1008.75V41.5097Z" fill="#B3B3B3"/>
<path d="M1193.75 39.6347C1193.23 39.6347 1192.81 40.0544 1192.81 40.5722C1192.81 41.0899 1193.23 41.5097 1193.75 41.5097V39.6347ZM1251.91 41.2351C1252.28 40.869 1252.28 40.2754 1251.91 39.9092L1245.94 33.9431C1245.58 33.5769 1244.99 33.5769 1244.62 33.9431C1244.26 34.3092 1244.26 34.9027 1244.62 35.2689L1249.93 40.5722L1244.62 45.8755C1244.26 46.2416 1244.26 46.8352 1244.62 47.2013C1244.99 47.5674 1245.58 47.5674 1245.94 47.2013L1251.91 41.2351ZM1193.75 41.5097H1251.25V39.6347H1193.75V41.5097Z" fill="#B3B3B3"/>
</g>
<defs>
<clipPath id="clip0_689_4843">
<rect width="2815" height="80" fill="white" transform="translate(0 0.572266)"/>
</clipPath>
</defs>
</svg>
