<svg width="1000" height="214" viewBox="0 0 1000 214" fill="none" xmlns="http://www.w3.org/2000/svg">
<circle cx="40" cy="40.5684" r="40" fill="#0468B0"/>
<path d="M30.0935 44.1454C29.5802 44.1454 29.1182 44.0574 28.7075 43.8814C28.2968 43.698 27.9742 43.4414 27.7395 43.1114C27.5048 42.7814 27.3875 42.3964 27.3875 41.9564H28.7295C28.7588 42.2864 28.8872 42.5577 29.1145 42.7704C29.3492 42.983 29.6755 43.0894 30.0935 43.0894C30.5262 43.0894 30.8635 42.9867 31.1055 42.7814C31.3475 42.5687 31.4685 42.2974 31.4685 41.9674C31.4685 41.7107 31.3915 41.5017 31.2375 41.3404C31.0908 41.179 30.9038 41.0544 30.6765 40.9664C30.4565 40.8784 30.1485 40.783 29.7525 40.6804C29.2538 40.5484 28.8468 40.4164 28.5315 40.2844C28.2235 40.145 27.9595 39.9324 27.7395 39.6464C27.5195 39.3604 27.4095 38.979 27.4095 38.5024C27.4095 38.0624 27.5195 37.6774 27.7395 37.3474C27.9595 37.0174 28.2675 36.7644 28.6635 36.5884C29.0595 36.4124 29.5178 36.3244 30.0385 36.3244C30.7792 36.3244 31.3842 36.5114 31.8535 36.8854C32.3302 37.252 32.5942 37.758 32.6455 38.4034H31.2595C31.2375 38.1247 31.1055 37.8864 30.8635 37.6884C30.6215 37.4904 30.3025 37.3914 29.9065 37.3914C29.5472 37.3914 29.2538 37.483 29.0265 37.6664C28.7992 37.8497 28.6855 38.1137 28.6855 38.4584C28.6855 38.693 28.7552 38.8874 28.8945 39.0414C29.0412 39.188 29.2245 39.3054 29.4445 39.3934C29.6645 39.4814 29.9652 39.5767 30.3465 39.6794C30.8525 39.8187 31.2632 39.958 31.5785 40.0974C31.9012 40.2367 32.1725 40.453 32.3925 40.7464C32.6198 41.0324 32.7335 41.4174 32.7335 41.9014C32.7335 42.29 32.6272 42.6567 32.4145 43.0014C32.2092 43.346 31.9048 43.6247 31.5015 43.8374C31.1055 44.0427 30.6362 44.1454 30.0935 44.1454ZM35.6762 39.0304V42.3854C35.6762 42.6127 35.7275 42.7777 35.8302 42.8804C35.9402 42.9757 36.1235 43.0234 36.3802 43.0234H37.1502V44.0684H36.1602C35.5955 44.0684 35.1629 43.9364 34.8622 43.6724C34.5615 43.4084 34.4112 42.9794 34.4112 42.3854V39.0304H33.6962V38.0074H34.4112V36.5004H35.6762V38.0074H37.1502V39.0304H35.6762ZM37.888 41.0104C37.888 40.4017 38.0126 39.8627 38.262 39.3934C38.5186 38.924 38.8633 38.561 39.296 38.3044C39.736 38.0404 40.22 37.9084 40.748 37.9084C41.2246 37.9084 41.639 38.0037 41.991 38.1944C42.3503 38.3777 42.6363 38.6087 42.849 38.8874V38.0074H44.114V44.0684H42.849V43.1664C42.6363 43.4524 42.3466 43.6907 41.98 43.8814C41.6133 44.072 41.1953 44.1674 40.726 44.1674C40.2053 44.1674 39.7286 44.0354 39.296 43.7714C38.8633 43.5 38.5186 43.126 38.262 42.6494C38.0126 42.1654 37.888 41.619 37.888 41.0104ZM42.849 41.0324C42.849 40.6144 42.761 40.2514 42.585 39.9434C42.4163 39.6354 42.1926 39.4007 41.914 39.2394C41.6353 39.078 41.3346 38.9974 41.012 38.9974C40.6893 38.9974 40.3886 39.078 40.11 39.2394C39.8313 39.3934 39.604 39.6244 39.428 39.9324C39.2593 40.233 39.175 40.5924 39.175 41.0104C39.175 41.4284 39.2593 41.795 39.428 42.1104C39.604 42.4257 39.8313 42.6677 40.11 42.8364C40.396 42.9977 40.6966 43.0784 41.012 43.0784C41.3346 43.0784 41.6353 42.9977 41.914 42.8364C42.1926 42.675 42.4163 42.4404 42.585 42.1324C42.761 41.817 42.849 41.4504 42.849 41.0324ZM47.015 38.8874C47.1984 38.5794 47.4404 38.341 47.741 38.1724C48.049 37.9964 48.412 37.9084 48.83 37.9084V39.2064H48.511C48.0197 39.2064 47.6457 39.331 47.389 39.5804C47.1397 39.8297 47.015 40.2624 47.015 40.8784V44.0684H45.761V38.0074H47.015V38.8874ZM51.4457 39.0304V42.3854C51.4457 42.6127 51.497 42.7777 51.5997 42.8804C51.7097 42.9757 51.893 43.0234 52.1497 43.0234H52.9197V44.0684H51.9297C51.365 44.0684 50.9324 43.9364 50.6317 43.6724C50.331 43.4084 50.1807 42.9794 50.1807 42.3854V39.0304H49.4657V38.0074H50.1807V36.5004H51.4457V38.0074H52.9197V39.0304H51.4457Z" fill="white"/>
<rect x="130" y="5.56836" width="124" height="70" rx="6" fill="#1B8013"/>
<path d="M182.435 36.4234V44.0684H181.181V40.7244H177.584V44.0684H176.33V36.4234H177.584V39.7014H181.181V36.4234H182.435ZM186.715 44.1674C186.143 44.1674 185.626 44.039 185.164 43.7824C184.702 43.5184 184.339 43.1517 184.075 42.6824C183.811 42.2057 183.679 41.6557 183.679 41.0324C183.679 40.4164 183.815 39.87 184.086 39.3934C184.358 38.9167 184.728 38.55 185.197 38.2934C185.667 38.0367 186.191 37.9084 186.77 37.9084C187.35 37.9084 187.874 38.0367 188.343 38.2934C188.813 38.55 189.183 38.9167 189.454 39.3934C189.726 39.87 189.861 40.4164 189.861 41.0324C189.861 41.6484 189.722 42.1947 189.443 42.6714C189.165 43.148 188.783 43.5184 188.299 43.7824C187.823 44.039 187.295 44.1674 186.715 44.1674ZM186.715 43.0784C187.038 43.0784 187.339 43.0014 187.617 42.8474C187.903 42.6934 188.134 42.4624 188.31 42.1544C188.486 41.8464 188.574 41.4724 188.574 41.0324C188.574 40.5924 188.49 40.222 188.321 39.9214C188.153 39.6134 187.929 39.3824 187.65 39.2284C187.372 39.0744 187.071 38.9974 186.748 38.9974C186.426 38.9974 186.125 39.0744 185.846 39.2284C185.575 39.3824 185.359 39.6134 185.197 39.9214C185.036 40.222 184.955 40.5924 184.955 41.0324C184.955 41.685 185.12 42.191 185.45 42.5504C185.788 42.9024 186.209 43.0784 186.715 43.0784ZM198.438 37.9084C198.915 37.9084 199.34 38.0074 199.714 38.2054C200.095 38.4034 200.392 38.6967 200.605 39.0854C200.825 39.474 200.935 39.9434 200.935 40.4934V44.0684H199.692V40.6804C199.692 40.1377 199.556 39.7234 199.285 39.4374C199.014 39.144 198.643 38.9974 198.174 38.9974C197.705 38.9974 197.331 39.144 197.052 39.4374C196.781 39.7234 196.645 40.1377 196.645 40.6804V44.0684H195.402V40.6804C195.402 40.1377 195.266 39.7234 194.995 39.4374C194.724 39.144 194.353 38.9974 193.884 38.9974C193.415 38.9974 193.041 39.144 192.762 39.4374C192.491 39.7234 192.355 40.1377 192.355 40.6804V44.0684H191.101V38.0074H192.355V38.7004C192.56 38.451 192.821 38.2567 193.136 38.1174C193.451 37.978 193.789 37.9084 194.148 37.9084C194.632 37.9084 195.065 38.011 195.446 38.2164C195.827 38.4217 196.121 38.7187 196.326 39.1074C196.509 38.7407 196.795 38.451 197.184 38.2384C197.573 38.0184 197.991 37.9084 198.438 37.9084ZM208.086 40.8894C208.086 41.1167 208.071 41.322 208.042 41.5054H203.411C203.447 41.9894 203.627 42.378 203.95 42.6714C204.272 42.9647 204.668 43.1114 205.138 43.1114C205.812 43.1114 206.289 42.829 206.568 42.2644H207.921C207.737 42.8217 207.404 43.28 206.92 43.6394C206.443 43.9914 205.849 44.1674 205.138 44.1674C204.558 44.1674 204.038 44.039 203.576 43.7824C203.121 43.5184 202.762 43.1517 202.498 42.6824C202.241 42.2057 202.113 41.6557 202.113 41.0324C202.113 40.409 202.237 39.8627 202.487 39.3934C202.743 38.9167 203.099 38.55 203.554 38.2934C204.016 38.0367 204.544 37.9084 205.138 37.9084C205.71 37.9084 206.219 38.033 206.667 38.2824C207.114 38.5317 207.462 38.8837 207.712 39.3384C207.961 39.7857 208.086 40.3027 208.086 40.8894ZM206.777 40.4934C206.769 40.0314 206.604 39.661 206.282 39.3824C205.959 39.1037 205.559 38.9644 205.083 38.9644C204.65 38.9644 204.28 39.1037 203.972 39.3824C203.664 39.6537 203.48 40.024 203.422 40.4934H206.777Z" fill="white"/>
<path d="M83 40.0684C82.7239 40.0684 82.5 40.2922 82.5 40.5684C82.5 40.8445 82.7239 41.0684 83 41.0684V40.0684ZM127.354 40.9219C127.549 40.7267 127.549 40.4101 127.354 40.2148L124.172 37.0328C123.976 36.8376 123.66 36.8376 123.464 37.0328C123.269 37.2281 123.269 37.5447 123.464 37.7399L126.293 40.5684L123.464 43.3968C123.269 43.592 123.269 43.9086 123.464 44.1039C123.66 44.2992 123.976 44.2992 124.172 44.1039L127.354 40.9219ZM83 41.0684H127V40.0684H83V41.0684Z" fill="#B3B3B3"/>
<rect x="304" y="5.56836" width="136" height="70" rx="28" fill="#E9C85B" fill-opacity="0.64"/>
<path d="M329.331 40.2294C329.331 39.4814 329.503 38.8104 329.848 38.2164C330.2 37.6224 330.673 37.1604 331.267 36.8304C331.868 36.493 332.524 36.3244 333.236 36.3244C334.05 36.3244 334.772 36.526 335.403 36.9294C336.041 37.3254 336.503 37.89 336.789 38.6234H335.282C335.084 38.22 334.809 37.9194 334.457 37.7214C334.105 37.5234 333.698 37.4244 333.236 37.4244C332.73 37.4244 332.279 37.538 331.883 37.7654C331.487 37.9927 331.175 38.319 330.948 38.7444C330.728 39.1697 330.618 39.6647 330.618 40.2294C330.618 40.794 330.728 41.289 330.948 41.7144C331.175 42.1397 331.487 42.4697 331.883 42.7044C332.279 42.9317 332.73 43.0454 333.236 43.0454C333.698 43.0454 334.105 42.9464 334.457 42.7484C334.809 42.5504 335.084 42.2497 335.282 41.8464H336.789C336.503 42.5797 336.041 43.1444 335.403 43.5404C334.772 43.9364 334.05 44.1344 333.236 44.1344C332.517 44.1344 331.861 43.9694 331.267 43.6394C330.673 43.302 330.2 42.8364 329.848 42.2424C329.503 41.6484 329.331 40.9774 329.331 40.2294ZM339.511 35.9284V44.0684H338.257V35.9284H339.511ZM341.795 37.2044C341.568 37.2044 341.377 37.1274 341.223 36.9734C341.069 36.8194 340.992 36.6287 340.992 36.4014C340.992 36.174 341.069 35.9834 341.223 35.8294C341.377 35.6754 341.568 35.5984 341.795 35.5984C342.015 35.5984 342.202 35.6754 342.356 35.8294C342.51 35.9834 342.587 36.174 342.587 36.4014C342.587 36.6287 342.51 36.8194 342.356 36.9734C342.202 37.1274 342.015 37.2044 341.795 37.2044ZM342.411 38.0074V44.0684H341.157V38.0074H342.411ZM343.639 41.0324C343.639 40.409 343.764 39.8627 344.013 39.3934C344.27 38.9167 344.622 38.55 345.069 38.2934C345.517 38.0367 346.03 37.9084 346.609 37.9084C347.343 37.9084 347.948 38.0844 348.424 38.4364C348.908 38.781 349.235 39.276 349.403 39.9214H348.05C347.94 39.6207 347.764 39.386 347.522 39.2174C347.28 39.0487 346.976 38.9644 346.609 38.9644C346.096 38.9644 345.685 39.1477 345.377 39.5144C345.077 39.8737 344.926 40.3797 344.926 41.0324C344.926 41.685 345.077 42.1947 345.377 42.5614C345.685 42.928 346.096 43.1114 346.609 43.1114C347.335 43.1114 347.816 42.7924 348.05 42.1544H349.403C349.227 42.7704 348.897 43.2617 348.413 43.6284C347.929 43.9877 347.328 44.1674 346.609 44.1674C346.03 44.1674 345.517 44.039 345.069 43.7824C344.622 43.5184 344.27 43.1517 344.013 42.6824C343.764 42.2057 343.639 41.6557 343.639 41.0324ZM353.051 41.0434L355.845 44.0684H354.151L351.907 41.4614V44.0684H350.653V35.9284H351.907V40.6584L354.107 38.0074H355.845L353.051 41.0434ZM362.659 37.9084C363.136 37.9084 363.561 38.0074 363.935 38.2054C364.317 38.4034 364.614 38.6967 364.826 39.0854C365.039 39.474 365.145 39.9434 365.145 40.4934V44.0684H363.902V40.6804C363.902 40.1377 363.767 39.7234 363.495 39.4374C363.224 39.144 362.854 38.9974 362.384 38.9974C361.915 38.9974 361.541 39.144 361.262 39.4374C360.991 39.7234 360.855 40.1377 360.855 40.6804V44.0684H359.601V38.0074H360.855V38.7004C361.061 38.451 361.321 38.2567 361.636 38.1174C361.959 37.978 362.3 37.9084 362.659 37.9084ZM366.327 41.0104C366.327 40.4017 366.452 39.8627 366.701 39.3934C366.958 38.924 367.302 38.561 367.735 38.3044C368.175 38.0404 368.659 37.9084 369.187 37.9084C369.664 37.9084 370.078 38.0037 370.43 38.1944C370.789 38.3777 371.075 38.6087 371.288 38.8874V38.0074H372.553V44.0684H371.288V43.1664C371.075 43.4524 370.786 43.6907 370.419 43.8814C370.052 44.072 369.634 44.1674 369.165 44.1674C368.644 44.1674 368.168 44.0354 367.735 43.7714C367.302 43.5 366.958 43.126 366.701 42.6494C366.452 42.1654 366.327 41.619 366.327 41.0104ZM371.288 41.0324C371.288 40.6144 371.2 40.2514 371.024 39.9434C370.855 39.6354 370.632 39.4007 370.353 39.2394C370.074 39.078 369.774 38.9974 369.451 38.9974C369.128 38.9974 368.828 39.078 368.549 39.2394C368.27 39.3934 368.043 39.6244 367.867 39.9324C367.698 40.233 367.614 40.5924 367.614 41.0104C367.614 41.4284 367.698 41.795 367.867 42.1104C368.043 42.4257 368.27 42.6677 368.549 42.8364C368.835 42.9977 369.136 43.0784 369.451 43.0784C369.774 43.0784 370.074 42.9977 370.353 42.8364C370.632 42.675 370.855 42.4404 371.024 42.1324C371.2 41.817 371.288 41.4504 371.288 41.0324ZM376.543 42.9464L378.259 38.0074H379.59L377.28 44.0684H375.784L373.485 38.0074H374.827L376.543 42.9464ZM390.732 37.9084C391.209 37.9084 391.634 38.0074 392.008 38.2054C392.39 38.4034 392.687 38.6967 392.899 39.0854C393.119 39.474 393.229 39.9434 393.229 40.4934V44.0684H391.986V40.6804C391.986 40.1377 391.851 39.7234 391.579 39.4374C391.308 39.144 390.938 38.9974 390.468 38.9974C389.999 38.9974 389.625 39.144 389.346 39.4374C389.075 39.7234 388.939 40.1377 388.939 40.6804V44.0684H387.696V40.6804C387.696 40.1377 387.561 39.7234 387.289 39.4374C387.018 39.144 386.648 38.9974 386.178 38.9974C385.709 38.9974 385.335 39.144 385.056 39.4374C384.785 39.7234 384.649 40.1377 384.649 40.6804V44.0684H383.395V38.0074H384.649V38.7004C384.855 38.451 385.115 38.2567 385.43 38.1174C385.746 37.978 386.083 37.9084 386.442 37.9084C386.926 37.9084 387.359 38.011 387.74 38.2164C388.122 38.4217 388.415 38.7187 388.62 39.1074C388.804 38.7407 389.09 38.451 389.478 38.2384C389.867 38.0184 390.285 37.9084 390.732 37.9084ZM400.38 40.8894C400.38 41.1167 400.365 41.322 400.336 41.5054H395.705C395.742 41.9894 395.921 42.378 396.244 42.6714C396.567 42.9647 396.963 43.1114 397.432 43.1114C398.107 43.1114 398.583 42.829 398.862 42.2644H400.215C400.032 42.8217 399.698 43.28 399.214 43.6394C398.737 43.9914 398.143 44.1674 397.432 44.1674C396.853 44.1674 396.332 44.039 395.87 43.7824C395.415 43.5184 395.056 43.1517 394.792 42.6824C394.535 42.2057 394.407 41.6557 394.407 41.0324C394.407 40.409 394.532 39.8627 394.781 39.3934C395.038 38.9167 395.393 38.55 395.848 38.2934C396.31 38.0367 396.838 37.9084 397.432 37.9084C398.004 37.9084 398.514 38.033 398.961 38.2824C399.408 38.5317 399.757 38.8837 400.006 39.3384C400.255 39.7857 400.38 40.3027 400.38 40.8894ZM399.071 40.4934C399.064 40.0314 398.899 39.661 398.576 39.3824C398.253 39.1037 397.854 38.9644 397.377 38.9644C396.944 38.9644 396.574 39.1037 396.266 39.3824C395.958 39.6537 395.775 40.024 395.716 40.4934H399.071ZM404.672 37.9084C405.149 37.9084 405.574 38.0074 405.948 38.2054C406.329 38.4034 406.626 38.6967 406.839 39.0854C407.052 39.474 407.158 39.9434 407.158 40.4934V44.0684H405.915V40.6804C405.915 40.1377 405.779 39.7234 405.508 39.4374C405.237 39.144 404.866 38.9974 404.397 38.9974C403.928 38.9974 403.554 39.144 403.275 39.4374C403.004 39.7234 402.868 40.1377 402.868 40.6804V44.0684H401.614V38.0074H402.868V38.7004C403.073 38.451 403.334 38.2567 403.649 38.1174C403.972 37.978 404.313 37.9084 404.672 37.9084ZM414.247 38.0074V44.0684H412.993V43.3534C412.795 43.6027 412.534 43.8007 412.212 43.9474C411.896 44.0867 411.559 44.1564 411.2 44.1564C410.723 44.1564 410.294 44.0574 409.913 43.8594C409.539 43.6614 409.242 43.368 409.022 42.9794C408.809 42.5907 408.703 42.1214 408.703 41.5714V38.0074H409.946V41.3844C409.946 41.927 410.081 42.345 410.353 42.6384C410.624 42.9244 410.994 43.0674 411.464 43.0674C411.933 43.0674 412.303 42.9244 412.575 42.6384C412.853 42.345 412.993 41.927 412.993 41.3844V38.0074H414.247Z" fill="black" fill-opacity="0.8"/>
<rect x="850" y="5.56836" width="153" height="70" rx="28" fill="#E9C85B" fill-opacity="0.64"/>
<path d="M893.99 27.9234V28.9464H890.745V31.2014H893.275V32.2244H890.745V35.5684H889.491V27.9234H893.99ZM895.79 28.7044C895.563 28.7044 895.372 28.6274 895.218 28.4734C895.064 28.3194 894.987 28.1287 894.987 27.9014C894.987 27.674 895.064 27.4834 895.218 27.3294C895.372 27.1754 895.563 27.0984 895.79 27.0984C896.01 27.0984 896.197 27.1754 896.351 27.3294C896.505 27.4834 896.582 27.674 896.582 27.9014C896.582 28.1287 896.505 28.3194 896.351 28.4734C896.197 28.6274 896.01 28.7044 895.79 28.7044ZM896.406 29.5074V35.5684H895.152V29.5074H896.406ZM901.111 29.4084C901.587 29.4084 902.013 29.5074 902.387 29.7054C902.768 29.9034 903.065 30.1967 903.278 30.5854C903.49 30.974 903.597 31.4434 903.597 31.9934V35.5684H902.354V32.1804C902.354 31.6377 902.218 31.2234 901.947 30.9374C901.675 30.644 901.305 30.4974 900.836 30.4974C900.366 30.4974 899.992 30.644 899.714 30.9374C899.442 31.2234 899.307 31.6377 899.307 32.1804V35.5684H898.053V29.5074H899.307V30.2004C899.512 29.951 899.772 29.7567 900.088 29.6174C900.41 29.478 900.751 29.4084 901.111 29.4084ZM904.778 32.5104C904.778 31.9017 904.903 31.3627 905.152 30.8934C905.409 30.424 905.753 30.061 906.186 29.8044C906.626 29.5404 907.114 29.4084 907.649 29.4084C908.045 29.4084 908.434 29.4964 908.815 29.6724C909.204 29.841 909.512 30.0684 909.739 30.3544V27.4284H911.004V35.5684H909.739V34.6554C909.534 34.9487 909.248 35.1907 908.881 35.3814C908.522 35.572 908.107 35.6674 907.638 35.6674C907.11 35.6674 906.626 35.5354 906.186 35.2714C905.753 35 905.409 34.626 905.152 34.1494C904.903 33.6654 904.778 33.119 904.778 32.5104ZM909.739 32.5324C909.739 32.1144 909.651 31.7514 909.475 31.4434C909.306 31.1354 909.083 30.9007 908.804 30.7394C908.525 30.578 908.225 30.4974 907.902 30.4974C907.579 30.4974 907.279 30.578 907 30.7394C906.721 30.8934 906.494 31.1244 906.318 31.4324C906.149 31.733 906.065 32.0924 906.065 32.5104C906.065 32.9284 906.149 33.295 906.318 33.6104C906.494 33.9257 906.721 34.1677 907 34.3364C907.286 34.4977 907.587 34.5784 907.902 34.5784C908.225 34.5784 908.525 34.4977 908.804 34.3364C909.083 34.175 909.306 33.9404 909.475 33.6324C909.651 33.317 909.739 32.9504 909.739 32.5324ZM920.965 29.5074L917.247 38.4174H915.949L917.181 35.4694L914.794 29.5074H916.191L917.896 34.1274L919.667 29.5074H920.965ZM924.54 35.6674C923.968 35.6674 923.451 35.539 922.989 35.2824C922.527 35.0184 922.164 34.6517 921.9 34.1824C921.636 33.7057 921.504 33.1557 921.504 32.5324C921.504 31.9164 921.64 31.37 921.911 30.8934C922.182 30.4167 922.553 30.05 923.022 29.7934C923.491 29.5367 924.016 29.4084 924.595 29.4084C925.174 29.4084 925.699 29.5367 926.168 29.7934C926.637 30.05 927.008 30.4167 927.279 30.8934C927.55 31.37 927.686 31.9164 927.686 32.5324C927.686 33.1484 927.547 33.6947 927.268 34.1714C926.989 34.648 926.608 35.0184 926.124 35.2824C925.647 35.539 925.119 35.6674 924.54 35.6674ZM924.54 34.5784C924.863 34.5784 925.163 34.5014 925.442 34.3474C925.728 34.1934 925.959 33.9624 926.135 33.6544C926.311 33.3464 926.399 32.9724 926.399 32.5324C926.399 32.0924 926.315 31.722 926.146 31.4214C925.977 31.1134 925.754 30.8824 925.475 30.7284C925.196 30.5744 924.896 30.4974 924.573 30.4974C924.25 30.4974 923.95 30.5744 923.671 30.7284C923.4 30.8824 923.183 31.1134 923.022 31.4214C922.861 31.722 922.78 32.0924 922.78 32.5324C922.78 33.185 922.945 33.691 923.275 34.0504C923.612 34.4024 924.034 34.5784 924.54 34.5784ZM934.415 29.5074V35.5684H933.161V34.8534C932.963 35.1027 932.702 35.3007 932.38 35.4474C932.064 35.5867 931.727 35.6564 931.368 35.6564C930.891 35.6564 930.462 35.5574 930.081 35.3594C929.707 35.1614 929.41 34.868 929.19 34.4794C928.977 34.0907 928.871 33.6214 928.871 33.0714V29.5074H930.114V32.8844C930.114 33.427 930.249 33.845 930.521 34.1384C930.792 34.4244 931.162 34.5674 931.632 34.5674C932.101 34.5674 932.471 34.4244 932.743 34.1384C933.021 33.845 933.161 33.427 933.161 32.8844V29.5074H934.415ZM937.323 30.3874C937.506 30.0794 937.748 29.841 938.049 29.6724C938.357 29.4964 938.72 29.4084 939.138 29.4084V30.7064H938.819C938.328 30.7064 937.954 30.831 937.697 31.0804C937.448 31.3297 937.323 31.7624 937.323 32.3784V35.5684H936.069V29.5074H937.323V30.3874ZM945.348 35.6674C944.872 35.6674 944.443 35.583 944.061 35.4144C943.687 35.2384 943.39 35.0037 943.17 34.7104C942.95 34.4097 942.833 34.076 942.818 33.7094H944.116C944.138 33.966 944.259 34.1824 944.479 34.3584C944.707 34.527 944.989 34.6114 945.326 34.6114C945.678 34.6114 945.95 34.5454 946.14 34.4134C946.338 34.274 946.437 34.098 946.437 33.8854C946.437 33.658 946.327 33.4894 946.107 33.3794C945.895 33.2694 945.554 33.1484 945.084 33.0164C944.63 32.8917 944.259 32.7707 943.973 32.6534C943.687 32.536 943.438 32.3564 943.225 32.1144C943.02 31.8724 942.917 31.5534 942.917 31.1574C942.917 30.8347 943.013 30.5414 943.203 30.2774C943.394 30.006 943.665 29.7934 944.017 29.6394C944.377 29.4854 944.787 29.4084 945.249 29.4084C945.939 29.4084 946.492 29.5844 946.91 29.9364C947.336 30.281 947.563 30.754 947.592 31.3554H946.338C946.316 31.084 946.206 30.8677 946.008 30.7064C945.81 30.545 945.543 30.4644 945.205 30.4644C944.875 30.4644 944.622 30.5267 944.446 30.6514C944.27 30.776 944.182 30.941 944.182 31.1464C944.182 31.3077 944.241 31.4434 944.358 31.5534C944.476 31.6634 944.619 31.7514 944.787 31.8174C944.956 31.876 945.205 31.953 945.535 32.0484C945.975 32.1657 946.335 32.2867 946.613 32.4114C946.899 32.5287 947.145 32.7047 947.35 32.9394C947.556 33.174 947.662 33.4857 947.669 33.8744C947.669 34.219 947.574 34.527 947.383 34.7984C947.193 35.0697 946.921 35.2824 946.569 35.4364C946.225 35.5904 945.818 35.6674 945.348 35.6674ZM951.422 32.5434L954.216 35.5684H952.522L950.278 32.9614V35.5684H949.024V27.4284H950.278V32.1584L952.478 29.5074H954.216L951.422 32.5434ZM955.753 28.7044C955.526 28.7044 955.335 28.6274 955.181 28.4734C955.027 28.3194 954.95 28.1287 954.95 27.9014C954.95 27.674 955.027 27.4834 955.181 27.3294C955.335 27.1754 955.526 27.0984 955.753 27.0984C955.973 27.0984 956.16 27.1754 956.314 27.3294C956.468 27.4834 956.545 27.674 956.545 27.9014C956.545 28.1287 956.468 28.3194 956.314 28.4734C956.16 28.6274 955.973 28.7044 955.753 28.7044ZM956.369 29.5074V35.5684H955.115V29.5074H956.369ZM961.073 29.4084C961.55 29.4084 961.975 29.5074 962.349 29.7054C962.731 29.9034 963.028 30.1967 963.24 30.5854C963.453 30.974 963.559 31.4434 963.559 31.9934V35.5684H962.316V32.1804C962.316 31.6377 962.181 31.2234 961.909 30.9374C961.638 30.644 961.268 30.4974 960.798 30.4974C960.329 30.4974 959.955 30.644 959.676 30.9374C959.405 31.2234 959.269 31.6377 959.269 32.1804V35.5684H958.015V29.5074H959.269V30.2004C959.475 29.951 959.735 29.7567 960.05 29.6174C960.373 29.478 960.714 29.4084 961.073 29.4084ZM866.611 49.5324C866.611 48.909 866.736 48.3627 866.985 47.8934C867.242 47.4167 867.594 47.05 868.041 46.7934C868.488 46.5367 869.002 46.4084 869.581 46.4084C870.314 46.4084 870.919 46.5844 871.396 46.9364C871.88 47.281 872.206 47.776 872.375 48.4214H871.022C870.912 48.1207 870.736 47.886 870.494 47.7174C870.252 47.5487 869.948 47.4644 869.581 47.4644C869.068 47.4644 868.657 47.6477 868.349 48.0144C868.048 48.3737 867.898 48.8797 867.898 49.5324C867.898 50.185 868.048 50.6947 868.349 51.0614C868.657 51.428 869.068 51.6114 869.581 51.6114C870.307 51.6114 870.787 51.2924 871.022 50.6544H872.375C872.199 51.2704 871.869 51.7617 871.385 52.1284C870.901 52.4877 870.3 52.6674 869.581 52.6674C869.002 52.6674 868.488 52.539 868.041 52.2824C867.594 52.0184 867.242 51.6517 866.985 51.1824C866.736 50.7057 866.611 50.1557 866.611 49.5324ZM876.254 52.6674C875.682 52.6674 875.165 52.539 874.703 52.2824C874.241 52.0184 873.878 51.6517 873.614 51.1824C873.35 50.7057 873.218 50.1557 873.218 49.5324C873.218 48.9164 873.353 48.37 873.625 47.8934C873.896 47.4167 874.266 47.05 874.736 46.7934C875.205 46.5367 875.729 46.4084 876.309 46.4084C876.888 46.4084 877.412 46.5367 877.882 46.7934C878.351 47.05 878.721 47.4167 878.993 47.8934C879.264 48.37 879.4 48.9164 879.4 49.5324C879.4 50.1484 879.26 50.6947 878.982 51.1714C878.703 51.648 878.322 52.0184 877.838 52.2824C877.361 52.539 876.833 52.6674 876.254 52.6674ZM876.254 51.5784C876.576 51.5784 876.877 51.5014 877.156 51.3474C877.442 51.1934 877.673 50.9624 877.849 50.6544C878.025 50.3464 878.113 49.9724 878.113 49.5324C878.113 49.0924 878.028 48.722 877.86 48.4214C877.691 48.1134 877.467 47.8824 877.189 47.7284C876.91 47.5744 876.609 47.4974 876.287 47.4974C875.964 47.4974 875.663 47.5744 875.385 47.7284C875.113 47.8824 874.897 48.1134 874.736 48.4214C874.574 48.722 874.494 49.0924 874.494 49.5324C874.494 50.185 874.659 50.691 874.989 51.0504C875.326 51.4024 875.748 51.5784 876.254 51.5784ZM883.697 46.4084C884.174 46.4084 884.599 46.5074 884.973 46.7054C885.355 46.9034 885.652 47.1967 885.864 47.5854C886.077 47.974 886.183 48.4434 886.183 48.9934V52.5684H884.94V49.1804C884.94 48.6377 884.805 48.2234 884.533 47.9374C884.262 47.644 883.892 47.4974 883.422 47.4974C882.953 47.4974 882.579 47.644 882.3 47.9374C882.029 48.2234 881.893 48.6377 881.893 49.1804V52.5684H880.639V46.5074H881.893V47.2004C882.099 46.951 882.359 46.7567 882.674 46.6174C882.997 46.478 883.338 46.4084 883.697 46.4084ZM887.365 49.5324C887.365 48.909 887.49 48.3627 887.739 47.8934C887.996 47.4167 888.348 47.05 888.795 46.7934C889.242 46.5367 889.756 46.4084 890.335 46.4084C891.068 46.4084 891.673 46.5844 892.15 46.9364C892.634 47.281 892.96 47.776 893.129 48.4214H891.776C891.666 48.1207 891.49 47.886 891.248 47.7174C891.006 47.5487 890.702 47.4644 890.335 47.4644C889.822 47.4644 889.411 47.6477 889.103 48.0144C888.802 48.3737 888.652 48.8797 888.652 49.5324C888.652 50.185 888.802 50.6947 889.103 51.0614C889.411 51.428 889.822 51.6114 890.335 51.6114C891.061 51.6114 891.541 51.2924 891.776 50.6544H893.129C892.953 51.2704 892.623 51.7617 892.139 52.1284C891.655 52.4877 891.054 52.6674 890.335 52.6674C889.756 52.6674 889.242 52.539 888.795 52.2824C888.348 52.0184 887.996 51.6517 887.739 51.1824C887.49 50.7057 887.365 50.1557 887.365 49.5324ZM899.934 49.3894C899.934 49.6167 899.919 49.822 899.89 50.0054H895.259C895.295 50.4894 895.475 50.878 895.798 51.1714C896.12 51.4647 896.516 51.6114 896.986 51.6114C897.66 51.6114 898.137 51.329 898.416 50.7644H899.769C899.585 51.3217 899.252 51.78 898.768 52.1394C898.291 52.4914 897.697 52.6674 896.986 52.6674C896.406 52.6674 895.886 52.539 895.424 52.2824C894.969 52.0184 894.61 51.6517 894.346 51.1824C894.089 50.7057 893.961 50.1557 893.961 49.5324C893.961 48.909 894.085 48.3627 894.335 47.8934C894.591 47.4167 894.947 47.05 895.402 46.7934C895.864 46.5367 896.392 46.4084 896.986 46.4084C897.558 46.4084 898.067 46.533 898.515 46.7824C898.962 47.0317 899.31 47.3837 899.56 47.8384C899.809 48.2857 899.934 48.8027 899.934 49.3894ZM898.625 48.9934C898.617 48.5314 898.452 48.161 898.13 47.8824C897.807 47.6037 897.407 47.4644 896.931 47.4644C896.498 47.4644 896.128 47.6037 895.82 47.8824C895.512 48.1537 895.328 48.524 895.27 48.9934H898.625ZM902.422 47.3874C902.605 47.0794 902.847 46.841 903.148 46.6724C903.456 46.4964 903.819 46.4084 904.237 46.4084V47.7064H903.918C903.426 47.7064 903.052 47.831 902.796 48.0804C902.546 48.3297 902.422 48.7624 902.422 49.3784V52.5684H901.168V46.5074H902.422V47.3874ZM908.447 46.4084C908.924 46.4084 909.349 46.5074 909.723 46.7054C910.105 46.9034 910.402 47.1967 910.614 47.5854C910.827 47.974 910.933 48.4434 910.933 48.9934V52.5684H909.69V49.1804C909.69 48.6377 909.555 48.2234 909.283 47.9374C909.012 47.644 908.642 47.4974 908.172 47.4974C907.703 47.4974 907.329 47.644 907.05 47.9374C906.779 48.2234 906.643 48.6377 906.643 49.1804V52.5684H905.389V46.5074H906.643V47.2004C906.849 46.951 907.109 46.7567 907.424 46.6174C907.747 46.478 908.088 46.4084 908.447 46.4084ZM914.733 52.6674C914.256 52.6674 913.827 52.583 913.446 52.4144C913.072 52.2384 912.775 52.0037 912.555 51.7104C912.335 51.4097 912.218 51.076 912.203 50.7094H913.501C913.523 50.966 913.644 51.1824 913.864 51.3584C914.091 51.527 914.374 51.6114 914.711 51.6114C915.063 51.6114 915.334 51.5454 915.525 51.4134C915.723 51.274 915.822 51.098 915.822 50.8854C915.822 50.658 915.712 50.4894 915.492 50.3794C915.279 50.2694 914.938 50.1484 914.469 50.0164C914.014 49.8917 913.644 49.7707 913.358 49.6534C913.072 49.536 912.823 49.3564 912.61 49.1144C912.405 48.8724 912.302 48.5534 912.302 48.1574C912.302 47.8347 912.397 47.5414 912.588 47.2774C912.779 47.006 913.05 46.7934 913.402 46.6394C913.761 46.4854 914.172 46.4084 914.634 46.4084C915.323 46.4084 915.877 46.5844 916.295 46.9364C916.72 47.281 916.948 47.754 916.977 48.3554H915.723C915.701 48.084 915.591 47.8677 915.393 47.7064C915.195 47.545 914.927 47.4644 914.59 47.4644C914.26 47.4644 914.007 47.5267 913.831 47.6514C913.655 47.776 913.567 47.941 913.567 48.1464C913.567 48.3077 913.626 48.4434 913.743 48.5534C913.86 48.6634 914.003 48.7514 914.172 48.8174C914.341 48.876 914.59 48.953 914.92 49.0484C915.36 49.1657 915.719 49.2867 915.998 49.4114C916.284 49.5287 916.53 49.7047 916.735 49.9394C916.94 50.174 917.047 50.4857 917.054 50.8744C917.054 51.219 916.959 51.527 916.768 51.7984C916.577 52.0697 916.306 52.2824 915.954 52.4364C915.609 52.5904 915.202 52.6674 914.733 52.6674ZM923.895 52.6674C923.323 52.6674 922.806 52.539 922.344 52.2824C921.882 52.0184 921.519 51.6517 921.255 51.1824C920.991 50.7057 920.859 50.1557 920.859 49.5324C920.859 48.9164 920.995 48.37 921.266 47.8934C921.538 47.4167 921.908 47.05 922.377 46.7934C922.847 46.5367 923.371 46.4084 923.95 46.4084C924.53 46.4084 925.054 46.5367 925.523 46.7934C925.993 47.05 926.363 47.4167 926.634 47.8934C926.906 48.37 927.041 48.9164 927.041 49.5324C927.041 50.1484 926.902 50.6947 926.623 51.1714C926.345 51.648 925.963 52.0184 925.479 52.2824C925.003 52.539 924.475 52.6674 923.895 52.6674ZM923.895 51.5784C924.218 51.5784 924.519 51.5014 924.797 51.3474C925.083 51.1934 925.314 50.9624 925.49 50.6544C925.666 50.3464 925.754 49.9724 925.754 49.5324C925.754 49.0924 925.67 48.722 925.501 48.4214C925.333 48.1134 925.109 47.8824 924.83 47.7284C924.552 47.5744 924.251 47.4974 923.928 47.4974C923.606 47.4974 923.305 47.5744 923.026 47.7284C922.755 47.8824 922.539 48.1134 922.377 48.4214C922.216 48.722 922.135 49.0924 922.135 49.5324C922.135 50.185 922.3 50.691 922.63 51.0504C922.968 51.4024 923.389 51.5784 923.895 51.5784ZM929.535 47.3874C929.718 47.0794 929.96 46.841 930.261 46.6724C930.569 46.4964 930.932 46.4084 931.35 46.4084V47.7064H931.031C930.54 47.7064 930.166 47.831 929.909 48.0804C929.66 48.3297 929.535 48.7624 929.535 49.3784V52.5684H928.281V46.5074H929.535V47.3874ZM934.942 49.5324C934.942 48.909 935.067 48.3627 935.316 47.8934C935.573 47.4167 935.925 47.05 936.372 46.7934C936.819 46.5367 937.333 46.4084 937.912 46.4084C938.645 46.4084 939.25 46.5844 939.727 46.9364C940.211 47.281 940.537 47.776 940.706 48.4214H939.353C939.243 48.1207 939.067 47.886 938.825 47.7174C938.583 47.5487 938.279 47.4644 937.912 47.4644C937.399 47.4644 936.988 47.6477 936.68 48.0144C936.379 48.3737 936.229 48.8797 936.229 49.5324C936.229 50.185 936.379 50.6947 936.68 51.0614C936.988 51.428 937.399 51.6114 937.912 51.6114C938.638 51.6114 939.118 51.2924 939.353 50.6544H940.706C940.53 51.2704 940.2 51.7617 939.716 52.1284C939.232 52.4877 938.631 52.6674 937.912 52.6674C937.333 52.6674 936.819 52.539 936.372 52.2824C935.925 52.0184 935.573 51.6517 935.316 51.1824C935.067 50.7057 934.942 50.1557 934.942 49.5324ZM944.585 52.6674C944.013 52.6674 943.496 52.539 943.034 52.2824C942.572 52.0184 942.209 51.6517 941.945 51.1824C941.681 50.7057 941.549 50.1557 941.549 49.5324C941.549 48.9164 941.685 48.37 941.956 47.8934C942.227 47.4167 942.598 47.05 943.067 46.7934C943.536 46.5367 944.061 46.4084 944.64 46.4084C945.219 46.4084 945.744 46.5367 946.213 46.7934C946.682 47.05 947.053 47.4167 947.324 47.8934C947.595 48.37 947.731 48.9164 947.731 49.5324C947.731 50.1484 947.592 50.6947 947.313 51.1714C947.034 51.648 946.653 52.0184 946.169 52.2824C945.692 52.539 945.164 52.6674 944.585 52.6674ZM944.585 51.5784C944.908 51.5784 945.208 51.5014 945.487 51.3474C945.773 51.1934 946.004 50.9624 946.18 50.6544C946.356 50.3464 946.444 49.9724 946.444 49.5324C946.444 49.0924 946.36 48.722 946.191 48.4214C946.022 48.1134 945.799 47.8824 945.52 47.7284C945.241 47.5744 944.941 47.4974 944.618 47.4974C944.295 47.4974 943.995 47.5744 943.716 47.7284C943.445 47.8824 943.228 48.1134 943.067 48.4214C942.906 48.722 942.825 49.0924 942.825 49.5324C942.825 50.185 942.99 50.691 943.32 51.0504C943.657 51.4024 944.079 51.5784 944.585 51.5784ZM952.029 46.4084C952.505 46.4084 952.931 46.5074 953.305 46.7054C953.686 46.9034 953.983 47.1967 954.196 47.5854C954.408 47.974 954.515 48.4434 954.515 48.9934V52.5684H953.272V49.1804C953.272 48.6377 953.136 48.2234 952.865 47.9374C952.593 47.644 952.223 47.4974 951.754 47.4974C951.284 47.4974 950.91 47.644 950.632 47.9374C950.36 48.2234 950.225 48.6377 950.225 49.1804V52.5684H948.971V46.5074H950.225V47.2004C950.43 46.951 950.69 46.7567 951.006 46.6174C951.328 46.478 951.669 46.4084 952.029 46.4084ZM955.696 49.5104C955.696 48.9017 955.821 48.3627 956.07 47.8934C956.327 47.424 956.671 47.061 957.104 46.8044C957.544 46.5404 958.032 46.4084 958.567 46.4084C958.963 46.4084 959.352 46.4964 959.733 46.6724C960.122 46.841 960.43 47.0684 960.657 47.3544V44.4284H961.922V52.5684H960.657V51.6554C960.452 51.9487 960.166 52.1907 959.799 52.3814C959.44 52.572 959.025 52.6674 958.556 52.6674C958.028 52.6674 957.544 52.5354 957.104 52.2714C956.671 52 956.327 51.626 956.07 51.1494C955.821 50.6654 955.696 50.119 955.696 49.5104ZM960.657 49.5324C960.657 49.1144 960.569 48.7514 960.393 48.4434C960.224 48.1354 960.001 47.9007 959.722 47.7394C959.443 47.578 959.143 47.4974 958.82 47.4974C958.497 47.4974 958.197 47.578 957.918 47.7394C957.639 47.8934 957.412 48.1244 957.236 48.4324C957.067 48.733 956.983 49.0924 956.983 49.5104C956.983 49.9284 957.067 50.295 957.236 50.6104C957.412 50.9257 957.639 51.1677 957.918 51.3364C958.204 51.4977 958.505 51.5784 958.82 51.5784C959.143 51.5784 959.443 51.4977 959.722 51.3364C960.001 51.175 960.224 50.9404 960.393 50.6324C960.569 50.317 960.657 49.9504 960.657 49.5324ZM964.207 45.7044C963.98 45.7044 963.789 45.6274 963.635 45.4734C963.481 45.3194 963.404 45.1287 963.404 44.9014C963.404 44.674 963.481 44.4834 963.635 44.3294C963.789 44.1754 963.98 44.0984 964.207 44.0984C964.427 44.0984 964.614 44.1754 964.768 44.3294C964.922 44.4834 964.999 44.674 964.999 44.9014C964.999 45.1287 964.922 45.3194 964.768 45.4734C964.614 45.6274 964.427 45.7044 964.207 45.7044ZM964.823 46.5074V52.5684H963.569V46.5074H964.823ZM967.933 47.5304V50.8854C967.933 51.1127 967.984 51.2777 968.087 51.3804C968.197 51.4757 968.38 51.5234 968.637 51.5234H969.407V52.5684H968.417C967.852 52.5684 967.419 52.4364 967.119 52.1724C966.818 51.9084 966.668 51.4794 966.668 50.8854V47.5304H965.953V46.5074H966.668V45.0004H967.933V46.5074H969.407V47.5304H967.933ZM971.2 45.7044C970.973 45.7044 970.782 45.6274 970.628 45.4734C970.474 45.3194 970.397 45.1287 970.397 44.9014C970.397 44.674 970.474 44.4834 970.628 44.3294C970.782 44.1754 970.973 44.0984 971.2 44.0984C971.42 44.0984 971.607 44.1754 971.761 44.3294C971.915 44.4834 971.992 44.674 971.992 44.9014C971.992 45.1287 971.915 45.3194 971.761 45.4734C971.607 45.6274 971.42 45.7044 971.2 45.7044ZM971.816 46.5074V52.5684H970.562V46.5074H971.816ZM976.092 52.6674C975.52 52.6674 975.003 52.539 974.541 52.2824C974.079 52.0184 973.716 51.6517 973.452 51.1824C973.188 50.7057 973.056 50.1557 973.056 49.5324C973.056 48.9164 973.191 48.37 973.463 47.8934C973.734 47.4167 974.104 47.05 974.574 46.7934C975.043 46.5367 975.567 46.4084 976.147 46.4084C976.726 46.4084 977.25 46.5367 977.72 46.7934C978.189 47.05 978.559 47.4167 978.831 47.8934C979.102 48.37 979.238 48.9164 979.238 49.5324C979.238 50.1484 979.098 50.6947 978.82 51.1714C978.541 51.648 978.16 52.0184 977.676 52.2824C977.199 52.539 976.671 52.6674 976.092 52.6674ZM976.092 51.5784C976.414 51.5784 976.715 51.5014 976.994 51.3474C977.28 51.1934 977.511 50.9624 977.687 50.6544C977.863 50.3464 977.951 49.9724 977.951 49.5324C977.951 49.0924 977.866 48.722 977.698 48.4214C977.529 48.1134 977.305 47.8824 977.027 47.7284C976.748 47.5744 976.447 47.4974 976.125 47.4974C975.802 47.4974 975.501 47.5744 975.223 47.7284C974.951 47.8824 974.735 48.1134 974.574 48.4214C974.412 48.722 974.332 49.0924 974.332 49.5324C974.332 50.185 974.497 50.691 974.827 51.0504C975.164 51.4024 975.586 51.5784 976.092 51.5784ZM983.535 46.4084C984.012 46.4084 984.437 46.5074 984.811 46.7054C985.193 46.9034 985.49 47.1967 985.702 47.5854C985.915 47.974 986.021 48.4434 986.021 48.9934V52.5684H984.778V49.1804C984.778 48.6377 984.643 48.2234 984.371 47.9374C984.1 47.644 983.73 47.4974 983.26 47.4974C982.791 47.4974 982.417 47.644 982.138 47.9374C981.867 48.2234 981.731 48.6377 981.731 49.1804V52.5684H980.477V46.5074H981.731V47.2004C981.937 46.951 982.197 46.7567 982.512 46.6174C982.835 46.478 983.176 46.4084 983.535 46.4084Z" fill="black" fill-opacity="0.8"/>
<path d="M257 40.0684C256.724 40.0684 256.5 40.2922 256.5 40.5684C256.5 40.8445 256.724 41.0684 257 41.0684V40.0684ZM301.354 40.9219C301.549 40.7267 301.549 40.4101 301.354 40.2148L298.172 37.0328C297.976 36.8376 297.66 36.8376 297.464 37.0328C297.269 37.2281 297.269 37.5447 297.464 37.7399L300.293 40.5684L297.464 43.3968C297.269 43.592 297.269 43.9086 297.464 44.1039C297.66 44.2992 297.976 44.2992 298.172 44.1039L301.354 40.9219ZM257 41.0684H301V40.0684H257V41.0684Z" fill="#B3B3B3"/>
<rect x="174" y="138.568" width="136" height="70" rx="28" fill="#E9C85B" fill-opacity="0.64"/>
<path d="M193.718 164.729C193.718 163.981 193.89 163.31 194.235 162.716C194.587 162.122 195.06 161.66 195.654 161.33C196.255 160.993 196.912 160.824 197.623 160.824C198.437 160.824 199.159 161.026 199.79 161.429C200.428 161.825 200.89 162.39 201.176 163.123H199.669C199.471 162.72 199.196 162.419 198.844 162.221C198.492 162.023 198.085 161.924 197.623 161.924C197.117 161.924 196.666 162.038 196.27 162.265C195.874 162.493 195.562 162.819 195.335 163.244C195.115 163.67 195.005 164.165 195.005 164.729C195.005 165.294 195.115 165.789 195.335 166.214C195.562 166.64 195.874 166.97 196.27 167.204C196.666 167.432 197.117 167.545 197.623 167.545C198.085 167.545 198.492 167.446 198.844 167.248C199.196 167.05 199.471 166.75 199.669 166.346H201.176C200.89 167.08 200.428 167.644 199.79 168.04C199.159 168.436 198.437 168.634 197.623 168.634C196.904 168.634 196.248 168.469 195.654 168.139C195.06 167.802 194.587 167.336 194.235 166.742C193.89 166.148 193.718 165.477 193.718 164.729ZM205.273 168.667C204.701 168.667 204.184 168.539 203.722 168.282C203.26 168.018 202.897 167.652 202.633 167.182C202.369 166.706 202.237 166.156 202.237 165.532C202.237 164.916 202.373 164.37 202.644 163.893C202.915 163.417 203.286 163.05 203.755 162.793C204.224 162.537 204.749 162.408 205.328 162.408C205.907 162.408 206.432 162.537 206.901 162.793C207.37 163.05 207.741 163.417 208.012 163.893C208.283 164.37 208.419 164.916 208.419 165.532C208.419 166.148 208.28 166.695 208.001 167.171C207.722 167.648 207.341 168.018 206.857 168.282C206.38 168.539 205.852 168.667 205.273 168.667ZM205.273 167.578C205.596 167.578 205.896 167.501 206.175 167.347C206.461 167.193 206.692 166.962 206.868 166.654C207.044 166.346 207.132 165.972 207.132 165.532C207.132 165.092 207.048 164.722 206.879 164.421C206.71 164.113 206.487 163.882 206.208 163.728C205.929 163.574 205.629 163.497 205.306 163.497C204.983 163.497 204.683 163.574 204.404 163.728C204.133 163.882 203.916 164.113 203.755 164.421C203.594 164.722 203.513 165.092 203.513 165.532C203.513 166.185 203.678 166.691 204.008 167.05C204.345 167.402 204.767 167.578 205.273 167.578ZM212.716 162.408C213.193 162.408 213.618 162.507 213.992 162.705C214.374 162.903 214.671 163.197 214.883 163.585C215.096 163.974 215.202 164.443 215.202 164.993V168.568H213.959V165.18C213.959 164.638 213.824 164.223 213.552 163.937C213.281 163.644 212.911 163.497 212.441 163.497C211.972 163.497 211.598 163.644 211.319 163.937C211.048 164.223 210.912 164.638 210.912 165.18V168.568H209.658V162.507H210.912V163.2C211.118 162.951 211.378 162.757 211.693 162.617C212.016 162.478 212.357 162.408 212.716 162.408ZM219.343 163.53H218.221V168.568H216.956V163.53H216.241V162.507H216.956V162.078C216.956 161.382 217.139 160.876 217.506 160.56C217.88 160.238 218.463 160.076 219.255 160.076V161.121C218.874 161.121 218.606 161.195 218.452 161.341C218.298 161.481 218.221 161.726 218.221 162.078V162.507H219.343V163.53ZM221.092 161.704C220.865 161.704 220.674 161.627 220.52 161.473C220.366 161.319 220.289 161.129 220.289 160.901C220.289 160.674 220.366 160.483 220.52 160.329C220.674 160.175 220.865 160.098 221.092 160.098C221.312 160.098 221.499 160.175 221.653 160.329C221.807 160.483 221.884 160.674 221.884 160.901C221.884 161.129 221.807 161.319 221.653 161.473C221.499 161.627 221.312 161.704 221.092 161.704ZM221.708 162.507V168.568H220.454V162.507H221.708ZM224.609 163.387C224.792 163.079 225.034 162.841 225.335 162.672C225.643 162.496 226.006 162.408 226.424 162.408V163.706H226.105C225.613 163.706 225.239 163.831 224.983 164.08C224.733 164.33 224.609 164.762 224.609 165.378V168.568H223.355V162.507H224.609V163.387ZM234.913 162.408C235.39 162.408 235.815 162.507 236.189 162.705C236.571 162.903 236.868 163.197 237.08 163.585C237.3 163.974 237.41 164.443 237.41 164.993V168.568H236.167V165.18C236.167 164.638 236.032 164.223 235.76 163.937C235.489 163.644 235.119 163.497 234.649 163.497C234.18 163.497 233.806 163.644 233.527 163.937C233.256 164.223 233.12 164.638 233.12 165.18V168.568H231.877V165.18C231.877 164.638 231.742 164.223 231.47 163.937C231.199 163.644 230.829 163.497 230.359 163.497C229.89 163.497 229.516 163.644 229.237 163.937C228.966 164.223 228.83 164.638 228.83 165.18V168.568H227.576V162.507H228.83V163.2C229.036 162.951 229.296 162.757 229.611 162.617C229.927 162.478 230.264 162.408 230.623 162.408C231.107 162.408 231.54 162.511 231.921 162.716C232.303 162.922 232.596 163.219 232.801 163.607C232.985 163.241 233.271 162.951 233.659 162.738C234.048 162.518 234.466 162.408 234.913 162.408ZM247.32 162.507L243.602 171.417H242.304L243.536 168.469L241.149 162.507H242.546L244.251 167.127L246.022 162.507H247.32ZM250.895 168.667C250.323 168.667 249.806 168.539 249.344 168.282C248.882 168.018 248.519 167.652 248.255 167.182C247.991 166.706 247.859 166.156 247.859 165.532C247.859 164.916 247.995 164.37 248.266 163.893C248.537 163.417 248.908 163.05 249.377 162.793C249.846 162.537 250.371 162.408 250.95 162.408C251.529 162.408 252.054 162.537 252.523 162.793C252.992 163.05 253.363 163.417 253.634 163.893C253.905 164.37 254.041 164.916 254.041 165.532C254.041 166.148 253.902 166.695 253.623 167.171C253.344 167.648 252.963 168.018 252.479 168.282C252.002 168.539 251.474 168.667 250.895 168.667ZM250.895 167.578C251.218 167.578 251.518 167.501 251.797 167.347C252.083 167.193 252.314 166.962 252.49 166.654C252.666 166.346 252.754 165.972 252.754 165.532C252.754 165.092 252.67 164.722 252.501 164.421C252.332 164.113 252.109 163.882 251.83 163.728C251.551 163.574 251.251 163.497 250.928 163.497C250.605 163.497 250.305 163.574 250.026 163.728C249.755 163.882 249.538 164.113 249.377 164.421C249.216 164.722 249.135 165.092 249.135 165.532C249.135 166.185 249.3 166.691 249.63 167.05C249.967 167.402 250.389 167.578 250.895 167.578ZM260.77 162.507V168.568H259.516V167.853C259.318 168.103 259.057 168.301 258.735 168.447C258.419 168.587 258.082 168.656 257.723 168.656C257.246 168.656 256.817 168.557 256.436 168.359C256.062 168.161 255.765 167.868 255.545 167.479C255.332 167.091 255.226 166.621 255.226 166.071V162.507H256.469V165.884C256.469 166.427 256.604 166.845 256.876 167.138C257.147 167.424 257.517 167.567 257.987 167.567C258.456 167.567 258.826 167.424 259.098 167.138C259.376 166.845 259.516 166.427 259.516 165.884V162.507H260.77ZM263.678 163.387C263.861 163.079 264.103 162.841 264.404 162.672C264.712 162.496 265.075 162.408 265.493 162.408V163.706H265.174C264.683 163.706 264.309 163.831 264.052 164.08C263.803 164.33 263.678 164.762 263.678 165.378V168.568H262.424V162.507H263.678V163.387ZM271.703 168.667C271.227 168.667 270.798 168.583 270.416 168.414C270.042 168.238 269.745 168.004 269.525 167.71C269.305 167.41 269.188 167.076 269.173 166.709H270.471C270.493 166.966 270.614 167.182 270.834 167.358C271.062 167.527 271.344 167.611 271.681 167.611C272.033 167.611 272.305 167.545 272.495 167.413C272.693 167.274 272.792 167.098 272.792 166.885C272.792 166.658 272.682 166.489 272.462 166.379C272.25 166.269 271.909 166.148 271.439 166.016C270.985 165.892 270.614 165.771 270.328 165.653C270.042 165.536 269.793 165.356 269.58 165.114C269.375 164.872 269.272 164.553 269.272 164.157C269.272 163.835 269.368 163.541 269.558 163.277C269.749 163.006 270.02 162.793 270.372 162.639C270.732 162.485 271.142 162.408 271.604 162.408C272.294 162.408 272.847 162.584 273.265 162.936C273.691 163.281 273.918 163.754 273.947 164.355H272.693C272.671 164.084 272.561 163.868 272.363 163.706C272.165 163.545 271.898 163.464 271.56 163.464C271.23 163.464 270.977 163.527 270.801 163.651C270.625 163.776 270.537 163.941 270.537 164.146C270.537 164.308 270.596 164.443 270.713 164.553C270.831 164.663 270.974 164.751 271.142 164.817C271.311 164.876 271.56 164.953 271.89 165.048C272.33 165.166 272.69 165.287 272.968 165.411C273.254 165.529 273.5 165.705 273.705 165.939C273.911 166.174 274.017 166.486 274.024 166.874C274.024 167.219 273.929 167.527 273.738 167.798C273.548 168.07 273.276 168.282 272.924 168.436C272.58 168.59 272.173 168.667 271.703 168.667ZM277.777 165.543L280.571 168.568H278.877L276.633 165.961V168.568H275.379V160.428H276.633V165.158L278.833 162.507H280.571L277.777 165.543ZM282.108 161.704C281.881 161.704 281.69 161.627 281.536 161.473C281.382 161.319 281.305 161.129 281.305 160.901C281.305 160.674 281.382 160.483 281.536 160.329C281.69 160.175 281.881 160.098 282.108 160.098C282.328 160.098 282.515 160.175 282.669 160.329C282.823 160.483 282.9 160.674 282.9 160.901C282.9 161.129 282.823 161.319 282.669 161.473C282.515 161.627 282.328 161.704 282.108 161.704ZM282.724 162.507V168.568H281.47V162.507H282.724ZM287.428 162.408C287.905 162.408 288.33 162.507 288.704 162.705C289.086 162.903 289.383 163.197 289.595 163.585C289.808 163.974 289.914 164.443 289.914 164.993V168.568H288.671V165.18C288.671 164.638 288.536 164.223 288.264 163.937C287.993 163.644 287.623 163.497 287.153 163.497C286.684 163.497 286.31 163.644 286.031 163.937C285.76 164.223 285.624 164.638 285.624 165.18V168.568H284.37V162.507H285.624V163.2C285.83 162.951 286.09 162.757 286.405 162.617C286.728 162.478 287.069 162.408 287.428 162.408ZM231.918 180.53V183.885C231.918 184.113 231.97 184.278 232.072 184.38C232.182 184.476 232.366 184.523 232.622 184.523H233.392V185.568H232.402C231.838 185.568 231.405 185.436 231.104 185.172C230.804 184.908 230.653 184.479 230.653 183.885V180.53H229.938V179.507H230.653V178H231.918V179.507H233.392V180.53H231.918ZM240.004 179.507L236.286 188.417H234.988L236.22 185.469L233.833 179.507H235.23L236.935 184.127L238.706 179.507H240.004ZM242.204 180.398C242.417 180.12 242.707 179.885 243.073 179.694C243.44 179.504 243.854 179.408 244.316 179.408C244.844 179.408 245.325 179.54 245.757 179.804C246.197 180.061 246.542 180.424 246.791 180.893C247.041 181.363 247.165 181.902 247.165 182.51C247.165 183.119 247.041 183.665 246.791 184.149C246.542 184.626 246.197 185 245.757 185.271C245.325 185.535 244.844 185.667 244.316 185.667C243.854 185.667 243.444 185.576 243.084 185.392C242.725 185.202 242.432 184.967 242.204 184.688V188.45H240.95V179.507H242.204V180.398ZM245.889 182.51C245.889 182.092 245.801 181.733 245.625 181.432C245.457 181.124 245.229 180.893 244.943 180.739C244.665 180.578 244.364 180.497 244.041 180.497C243.726 180.497 243.425 180.578 243.139 180.739C242.861 180.901 242.633 181.135 242.457 181.443C242.289 181.751 242.204 182.114 242.204 182.532C242.204 182.95 242.289 183.317 242.457 183.632C242.633 183.94 242.861 184.175 243.139 184.336C243.425 184.498 243.726 184.578 244.041 184.578C244.364 184.578 244.665 184.498 244.943 184.336C245.229 184.168 245.457 183.926 245.625 183.61C245.801 183.295 245.889 182.928 245.889 182.51ZM253.961 182.389C253.961 182.617 253.946 182.822 253.917 183.005H249.286C249.322 183.489 249.502 183.878 249.825 184.171C250.147 184.465 250.543 184.611 251.013 184.611C251.687 184.611 252.164 184.329 252.443 183.764H253.796C253.612 184.322 253.279 184.78 252.795 185.139C252.318 185.491 251.724 185.667 251.013 185.667C250.433 185.667 249.913 185.539 249.451 185.282C248.996 185.018 248.637 184.652 248.373 184.182C248.116 183.706 247.988 183.156 247.988 182.532C247.988 181.909 248.112 181.363 248.362 180.893C248.618 180.417 248.974 180.05 249.429 179.793C249.891 179.537 250.419 179.408 251.013 179.408C251.585 179.408 252.094 179.533 252.542 179.782C252.989 180.032 253.337 180.384 253.587 180.838C253.836 181.286 253.961 181.803 253.961 182.389ZM252.652 181.993C252.644 181.531 252.479 181.161 252.157 180.882C251.834 180.604 251.434 180.464 250.958 180.464C250.525 180.464 250.155 180.604 249.847 180.882C249.539 181.154 249.355 181.524 249.297 181.993H252.652Z" fill="black" fill-opacity="0.8"/>
<circle cx="400" cy="173.568" r="40" fill="#0468B0"/>
<path d="M391.895 170.435V172.679H394.535V173.702H391.895V176.045H394.865V177.068H390.641V169.412H394.865V170.435H391.895ZM399.468 170.908C399.945 170.908 400.37 171.007 400.744 171.205C401.125 171.403 401.422 171.697 401.635 172.085C401.848 172.474 401.954 172.943 401.954 173.493V177.068H400.711V173.68C400.711 173.138 400.575 172.723 400.304 172.437C400.033 172.144 399.662 171.997 399.193 171.997C398.724 171.997 398.35 172.144 398.071 172.437C397.8 172.723 397.664 173.138 397.664 173.68V177.068H396.41V171.007H397.664V171.7C397.869 171.451 398.13 171.257 398.445 171.117C398.768 170.978 399.109 170.908 399.468 170.908ZM403.136 174.01C403.136 173.402 403.26 172.863 403.51 172.393C403.766 171.924 404.111 171.561 404.544 171.304C404.984 171.04 405.471 170.908 406.007 170.908C406.403 170.908 406.791 170.996 407.173 171.172C407.561 171.341 407.869 171.568 408.097 171.854V168.928H409.362V177.068H408.097V176.155C407.891 176.449 407.605 176.691 407.239 176.881C406.879 177.072 406.465 177.167 405.996 177.167C405.468 177.167 404.984 177.035 404.544 176.771C404.111 176.5 403.766 176.126 403.51 175.649C403.26 175.165 403.136 174.619 403.136 174.01ZM408.097 174.032C408.097 173.614 408.009 173.251 407.833 172.943C407.664 172.635 407.44 172.401 407.162 172.239C406.883 172.078 406.582 171.997 406.26 171.997C405.937 171.997 405.636 172.078 405.358 172.239C405.079 172.393 404.852 172.624 404.676 172.932C404.507 173.233 404.423 173.592 404.423 174.01C404.423 174.428 404.507 174.795 404.676 175.11C404.852 175.426 405.079 175.668 405.358 175.836C405.644 175.998 405.944 176.078 406.26 176.078C406.582 176.078 406.883 175.998 407.162 175.836C407.44 175.675 407.664 175.44 407.833 175.132C408.009 174.817 408.097 174.45 408.097 174.032Z" fill="white"/>
<path d="M313 173.068C312.724 173.068 312.5 173.292 312.5 173.568C312.5 173.845 312.724 174.068 313 174.068V173.068ZM357.354 173.922C357.549 173.727 357.549 173.41 357.354 173.215L354.172 170.033C353.976 169.838 353.66 169.838 353.464 170.033C353.269 170.228 353.269 170.545 353.464 170.74L356.293 173.568L353.464 176.397C353.269 176.592 353.269 176.909 353.464 177.104C353.66 177.299 353.976 177.299 354.172 177.104L357.354 173.922ZM313 174.068H357V173.068H313V174.068Z" fill="#B3B3B3"/>
<rect y="138.568" width="124" height="70" rx="6" fill="#1B8013"/>
<path d="M19.9959 177.145C19.4825 177.145 19.0205 177.057 18.6099 176.881C18.1992 176.698 17.8765 176.441 17.6419 176.111C17.4072 175.781 17.2899 175.396 17.2899 174.956H18.6319C18.6612 175.286 18.7895 175.558 19.0169 175.77C19.2515 175.983 19.5779 176.089 19.9959 176.089C20.4285 176.089 20.7659 175.987 21.0079 175.781C21.2499 175.569 21.3709 175.297 21.3709 174.967C21.3709 174.711 21.2939 174.502 21.1399 174.34C20.9932 174.179 20.8062 174.054 20.5789 173.966C20.3589 173.878 20.0509 173.783 19.6549 173.68C19.1562 173.548 18.7492 173.416 18.4339 173.284C18.1259 173.145 17.8619 172.932 17.6419 172.646C17.4219 172.36 17.3119 171.979 17.3119 171.502C17.3119 171.062 17.4219 170.677 17.6419 170.347C17.8619 170.017 18.1699 169.764 18.5659 169.588C18.9619 169.412 19.4202 169.324 19.9409 169.324C20.6815 169.324 21.2865 169.511 21.7559 169.885C22.2325 170.252 22.4965 170.758 22.5479 171.403H21.1619C21.1399 171.125 21.0079 170.886 20.7659 170.688C20.5239 170.49 20.2049 170.391 19.8089 170.391C19.4495 170.391 19.1562 170.483 18.9289 170.666C18.7015 170.85 18.5879 171.114 18.5879 171.458C18.5879 171.693 18.6575 171.887 18.7969 172.041C18.9435 172.188 19.1269 172.305 19.3469 172.393C19.5669 172.481 19.8675 172.577 20.2489 172.679C20.7549 172.819 21.1655 172.958 21.4809 173.097C21.8035 173.237 22.0749 173.453 22.2949 173.746C22.5222 174.032 22.6359 174.417 22.6359 174.901C22.6359 175.29 22.5295 175.657 22.3169 176.001C22.1115 176.346 21.8072 176.625 21.4039 176.837C21.0079 177.043 20.5385 177.145 19.9959 177.145ZM26.5135 174.043L29.3075 177.068H27.6135L25.3695 174.461V177.068H24.1155V168.928H25.3695V173.658L27.5695 171.007H29.3075L26.5135 174.043ZM30.8443 170.204C30.617 170.204 30.4263 170.127 30.2723 169.973C30.1183 169.819 30.0413 169.629 30.0413 169.401C30.0413 169.174 30.1183 168.983 30.2723 168.829C30.4263 168.675 30.617 168.598 30.8443 168.598C31.0643 168.598 31.2513 168.675 31.4053 168.829C31.5593 168.983 31.6363 169.174 31.6363 169.401C31.6363 169.629 31.5593 169.819 31.4053 169.973C31.2513 170.127 31.0643 170.204 30.8443 170.204ZM31.4603 171.007V177.068H30.2063V171.007H31.4603ZM36.1647 170.908C36.6414 170.908 37.0667 171.007 37.4407 171.205C37.8221 171.403 38.1191 171.697 38.3317 172.085C38.5444 172.474 38.6507 172.943 38.6507 173.493V177.068H37.4077V173.68C37.4077 173.138 37.2721 172.723 37.0007 172.437C36.7294 172.144 36.3591 171.997 35.8897 171.997C35.4204 171.997 35.0464 172.144 34.7677 172.437C34.4964 172.723 34.3607 173.138 34.3607 173.68V177.068H33.1067V171.007H34.3607V171.7C34.5661 171.451 34.8264 171.257 35.1417 171.117C35.4644 170.978 35.8054 170.908 36.1647 170.908ZM44.5707 172.03V175.385C44.5707 175.613 44.622 175.778 44.7247 175.88C44.8347 175.976 45.018 176.023 45.2747 176.023H46.0447V177.068H45.0547C44.49 177.068 44.0574 176.936 43.7567 176.672C43.456 176.408 43.3057 175.979 43.3057 175.385V172.03H42.5907V171.007H43.3057V169.5H44.5707V171.007H46.0447V172.03H44.5707ZM52.6565 171.007L48.9385 179.917H47.6405L48.8725 176.969L46.4855 171.007H47.8825L49.5875 175.627L51.3585 171.007H52.6565ZM54.8568 171.898C55.0695 171.62 55.3592 171.385 55.7258 171.194C56.0925 171.004 56.5068 170.908 56.9688 170.908C57.4968 170.908 57.9772 171.04 58.4098 171.304C58.8498 171.561 59.1945 171.924 59.4438 172.393C59.6932 172.863 59.8178 173.402 59.8178 174.01C59.8178 174.619 59.6932 175.165 59.4438 175.649C59.1945 176.126 58.8498 176.5 58.4098 176.771C57.9772 177.035 57.4968 177.167 56.9688 177.167C56.5068 177.167 56.0962 177.076 55.7368 176.892C55.3775 176.702 55.0842 176.467 54.8568 176.188V179.95H53.6028V171.007H54.8568V171.898ZM58.5418 174.01C58.5418 173.592 58.4538 173.233 58.2778 172.932C58.1092 172.624 57.8818 172.393 57.5958 172.239C57.3172 172.078 57.0165 171.997 56.6938 171.997C56.3785 171.997 56.0778 172.078 55.7918 172.239C55.5132 172.401 55.2858 172.635 55.1098 172.943C54.9412 173.251 54.8568 173.614 54.8568 174.032C54.8568 174.45 54.9412 174.817 55.1098 175.132C55.2858 175.44 55.5132 175.675 55.7918 175.836C56.0778 175.998 56.3785 176.078 56.6938 176.078C57.0165 176.078 57.3172 175.998 57.5958 175.836C57.8818 175.668 58.1092 175.426 58.2778 175.11C58.4538 174.795 58.5418 174.428 58.5418 174.01ZM66.6129 173.889C66.6129 174.117 66.5982 174.322 66.5689 174.505H61.9379C61.9746 174.989 62.1542 175.378 62.4769 175.671C62.7996 175.965 63.1956 176.111 63.6649 176.111C64.3396 176.111 64.8162 175.829 65.0949 175.264H66.4479C66.2646 175.822 65.9309 176.28 65.4469 176.639C64.9702 176.991 64.3762 177.167 63.6649 177.167C63.0856 177.167 62.5649 177.039 62.1029 176.782C61.6482 176.518 61.2889 176.152 61.0249 175.682C60.7682 175.206 60.6399 174.656 60.6399 174.032C60.6399 173.409 60.7646 172.863 61.0139 172.393C61.2706 171.917 61.6262 171.55 62.0809 171.293C62.5429 171.037 63.0709 170.908 63.6649 170.908C64.2369 170.908 64.7466 171.033 65.1939 171.282C65.6412 171.532 65.9896 171.884 66.2389 172.338C66.4882 172.786 66.6129 173.303 66.6129 173.889ZM65.3039 173.493C65.2966 173.031 65.1316 172.661 64.8089 172.382C64.4862 172.104 64.0866 171.964 63.6099 171.964C63.1772 171.964 62.8069 172.104 62.4989 172.382C62.1909 172.654 62.0076 173.024 61.9489 173.493H65.3039ZM70.2864 174.01C70.2864 173.402 70.4111 172.863 70.6604 172.393C70.9171 171.924 71.2617 171.561 71.6944 171.304C72.1344 171.04 72.6221 170.908 73.1574 170.908C73.5534 170.908 73.9421 170.996 74.3234 171.172C74.7121 171.341 75.0201 171.568 75.2474 171.854V168.928H76.5124V177.068H75.2474V176.155C75.0421 176.449 74.7561 176.691 74.3894 176.881C74.0301 177.072 73.6157 177.167 73.1464 177.167C72.6184 177.167 72.1344 177.035 71.6944 176.771C71.2617 176.5 70.9171 176.126 70.6604 175.649C70.4111 175.165 70.2864 174.619 70.2864 174.01ZM75.2474 174.032C75.2474 173.614 75.1594 173.251 74.9834 172.943C74.8147 172.635 74.5911 172.401 74.3124 172.239C74.0337 172.078 73.7331 171.997 73.4104 171.997C73.0877 171.997 72.7871 172.078 72.5084 172.239C72.2297 172.393 72.0024 172.624 71.8264 172.932C71.6577 173.233 71.5734 173.592 71.5734 174.01C71.5734 174.428 71.6577 174.795 71.8264 175.11C72.0024 175.426 72.2297 175.668 72.5084 175.836C72.7944 175.998 73.0951 176.078 73.4104 176.078C73.7331 176.078 74.0337 175.998 74.3124 175.836C74.5911 175.675 74.8147 175.44 74.9834 175.132C75.1594 174.817 75.2474 174.45 75.2474 174.032ZM83.7145 173.889C83.7145 174.117 83.6998 174.322 83.6705 174.505H79.0395C79.0761 174.989 79.2558 175.378 79.5785 175.671C79.9011 175.965 80.2971 176.111 80.7665 176.111C81.4411 176.111 81.9178 175.829 82.1965 175.264H83.5495C83.3661 175.822 83.0325 176.28 82.5485 176.639C82.0718 176.991 81.4778 177.167 80.7665 177.167C80.1871 177.167 79.6665 177.039 79.2045 176.782C78.7498 176.518 78.3905 176.152 78.1265 175.682C77.8698 175.206 77.7415 174.656 77.7415 174.032C77.7415 173.409 77.8661 172.863 78.1155 172.393C78.3721 171.917 78.7278 171.55 79.1825 171.293C79.6445 171.037 80.1725 170.908 80.7665 170.908C81.3385 170.908 81.8481 171.033 82.2955 171.282C82.7428 171.532 83.0911 171.884 83.3405 172.338C83.5898 172.786 83.7145 173.303 83.7145 173.889ZM82.4055 173.493C82.3981 173.031 82.2331 172.661 81.9105 172.382C81.5878 172.104 81.1881 171.964 80.7115 171.964C80.2788 171.964 79.9085 172.104 79.6005 172.382C79.2925 172.654 79.1091 173.024 79.0505 173.493H82.4055ZM86.4115 172.03V175.385C86.4115 175.613 86.4629 175.778 86.5655 175.88C86.6755 175.976 86.8589 176.023 87.1155 176.023H87.8855V177.068H86.8955C86.3309 177.068 85.8982 176.936 85.5975 176.672C85.2969 176.408 85.1465 175.979 85.1465 175.385V172.03H84.4315V171.007H85.1465V169.5H86.4115V171.007H87.8855V172.03H86.4115ZM88.6233 174.01C88.6233 173.402 88.748 172.863 88.9973 172.393C89.254 171.924 89.5986 171.561 90.0313 171.304C90.4713 171.04 90.9553 170.908 91.4833 170.908C91.96 170.908 92.3743 171.004 92.7263 171.194C93.0856 171.378 93.3716 171.609 93.5843 171.887V171.007H94.8493V177.068H93.5843V176.166C93.3716 176.452 93.082 176.691 92.7153 176.881C92.3486 177.072 91.9306 177.167 91.4613 177.167C90.9406 177.167 90.464 177.035 90.0313 176.771C89.5986 176.5 89.254 176.126 88.9973 175.649C88.748 175.165 88.6233 174.619 88.6233 174.01ZM93.5843 174.032C93.5843 173.614 93.4963 173.251 93.3203 172.943C93.1516 172.635 92.928 172.401 92.6493 172.239C92.3706 172.078 92.07 171.997 91.7473 171.997C91.4246 171.997 91.124 172.078 90.8453 172.239C90.5666 172.393 90.3393 172.624 90.1633 172.932C89.9946 173.233 89.9103 173.592 89.9103 174.01C89.9103 174.428 89.9946 174.795 90.1633 175.11C90.3393 175.426 90.5666 175.668 90.8453 175.836C91.1313 175.998 91.432 176.078 91.7473 176.078C92.07 176.078 92.3706 175.998 92.6493 175.836C92.928 175.675 93.1516 175.44 93.3203 175.132C93.4963 174.817 93.5843 174.45 93.5843 174.032ZM97.1344 170.204C96.9071 170.204 96.7164 170.127 96.5624 169.973C96.4084 169.819 96.3314 169.629 96.3314 169.401C96.3314 169.174 96.4084 168.983 96.5624 168.829C96.7164 168.675 96.9071 168.598 97.1344 168.598C97.3544 168.598 97.5414 168.675 97.6954 168.829C97.8494 168.983 97.9264 169.174 97.9264 169.401C97.9264 169.629 97.8494 169.819 97.6954 169.973C97.5414 170.127 97.3544 170.204 97.1344 170.204ZM97.7504 171.007V177.068H96.4964V171.007H97.7504ZM100.651 168.928V177.068H99.3968V168.928H100.651ZM104.497 177.167C104.021 177.167 103.592 177.083 103.21 176.914C102.836 176.738 102.539 176.504 102.319 176.21C102.099 175.91 101.982 175.576 101.967 175.209H103.265C103.287 175.466 103.408 175.682 103.628 175.858C103.856 176.027 104.138 176.111 104.475 176.111C104.827 176.111 105.099 176.045 105.289 175.913C105.487 175.774 105.586 175.598 105.586 175.385C105.586 175.158 105.476 174.989 105.256 174.879C105.044 174.769 104.703 174.648 104.233 174.516C103.779 174.392 103.408 174.271 103.122 174.153C102.836 174.036 102.587 173.856 102.374 173.614C102.169 173.372 102.066 173.053 102.066 172.657C102.066 172.335 102.162 172.041 102.352 171.777C102.543 171.506 102.814 171.293 103.166 171.139C103.526 170.985 103.936 170.908 104.398 170.908C105.088 170.908 105.641 171.084 106.059 171.436C106.485 171.781 106.712 172.254 106.741 172.855H105.487C105.465 172.584 105.355 172.368 105.157 172.206C104.959 172.045 104.692 171.964 104.354 171.964C104.024 171.964 103.771 172.027 103.595 172.151C103.419 172.276 103.331 172.441 103.331 172.646C103.331 172.808 103.39 172.943 103.507 173.053C103.625 173.163 103.768 173.251 103.936 173.317C104.105 173.376 104.354 173.453 104.684 173.548C105.124 173.666 105.484 173.787 105.762 173.911C106.048 174.029 106.294 174.205 106.499 174.439C106.705 174.674 106.811 174.986 106.818 175.374C106.818 175.719 106.723 176.027 106.532 176.298C106.342 176.57 106.07 176.782 105.718 176.936C105.374 177.09 104.967 177.167 104.497 177.167Z" fill="white"/>
<path d="M927 78.5684C927 78.2922 926.776 78.0684 926.5 78.0684C926.224 78.0684 926 78.2922 926 78.5684H927ZM61.6464 135.922C61.8417 136.117 62.1583 136.117 62.3536 135.922L65.5355 132.74C65.7308 132.545 65.7308 132.228 65.5355 132.033C65.3403 131.838 65.0237 131.838 64.8284 132.033L62 134.861L59.1716 132.033C58.9763 131.838 58.6597 131.838 58.4645 132.033C58.2692 132.228 58.2692 132.545 58.4645 132.74L61.6464 135.922ZM926 78.5684V83.0684H927V78.5684H926ZM902.5 106.568H86V107.568H902.5V106.568ZM61.5 131.068V135.568H62.5V131.068H61.5ZM86 106.568C72.469 106.568 61.5 117.537 61.5 131.068H62.5C62.5 118.09 73.0213 107.568 86 107.568V106.568ZM926 83.0684C926 96.0471 915.479 106.568 902.5 106.568V107.568C916.031 107.568 927 96.5993 927 83.0684H926Z" fill="#B3B3B3"/>
<path d="M127 173.068C126.724 173.068 126.5 173.292 126.5 173.568C126.5 173.845 126.724 174.068 127 174.068V173.068ZM171.354 173.922C171.549 173.727 171.549 173.41 171.354 173.215L168.172 170.033C167.976 169.838 167.66 169.838 167.464 170.033C167.269 170.228 167.269 170.545 167.464 170.74L170.293 173.568L167.464 176.397C167.269 176.592 167.269 176.909 167.464 177.104C167.66 177.299 167.976 177.299 168.172 177.104L171.354 173.922ZM127 174.068H171V173.068H127V174.068Z" fill="#B3B3B3"/>
<rect x="676" y="5.56836" width="124" height="70" rx="6" fill="#1B8013"/>
<path d="M694.168 27.9234V35.5684H692.914V32.2244H689.317V35.5684H688.063V27.9234H689.317V31.2014H692.914V27.9234H694.168ZM698.448 35.6674C697.876 35.6674 697.359 35.539 696.897 35.2824C696.435 35.0184 696.072 34.6517 695.808 34.1824C695.544 33.7057 695.412 33.1557 695.412 32.5324C695.412 31.9164 695.547 31.37 695.819 30.8934C696.09 30.4167 696.46 30.05 696.93 29.7934C697.399 29.5367 697.923 29.4084 698.503 29.4084C699.082 29.4084 699.606 29.5367 700.076 29.7934C700.545 30.05 700.915 30.4167 701.187 30.8934C701.458 31.37 701.594 31.9164 701.594 32.5324C701.594 33.1484 701.454 33.6947 701.176 34.1714C700.897 34.648 700.516 35.0184 700.032 35.2824C699.555 35.539 699.027 35.6674 698.448 35.6674ZM698.448 34.5784C698.77 34.5784 699.071 34.5014 699.35 34.3474C699.636 34.1934 699.867 33.9624 700.043 33.6544C700.219 33.3464 700.307 32.9724 700.307 32.5324C700.307 32.0924 700.222 31.722 700.054 31.4214C699.885 31.1134 699.661 30.8824 699.383 30.7284C699.104 30.5744 698.803 30.4974 698.481 30.4974C698.158 30.4974 697.857 30.5744 697.579 30.7284C697.307 30.8824 697.091 31.1134 696.93 31.4214C696.768 31.722 696.688 32.0924 696.688 32.5324C696.688 33.185 696.853 33.691 697.183 34.0504C697.52 34.4024 697.942 34.5784 698.448 34.5784ZM710.973 29.5074L709.092 35.5684H707.772L706.551 31.0914L705.33 35.5684H704.01L702.118 29.5074H703.394L704.659 34.3804L705.946 29.5074H707.255L708.487 34.3584L709.741 29.5074H710.973ZM716.231 30.5304V33.8854C716.231 34.1127 716.282 34.2777 716.385 34.3804C716.495 34.4757 716.678 34.5234 716.935 34.5234H717.705V35.5684H716.715C716.15 35.5684 715.718 35.4364 715.417 35.1724C715.116 34.9084 714.966 34.4794 714.966 33.8854V30.5304H714.251V29.5074H714.966V28.0004H716.231V29.5074H717.705V30.5304H716.231ZM721.49 35.6674C720.918 35.6674 720.401 35.539 719.939 35.2824C719.477 35.0184 719.114 34.6517 718.85 34.1824C718.586 33.7057 718.454 33.1557 718.454 32.5324C718.454 31.9164 718.589 31.37 718.861 30.8934C719.132 30.4167 719.502 30.05 719.972 29.7934C720.441 29.5367 720.965 29.4084 721.545 29.4084C722.124 29.4084 722.648 29.5367 723.118 29.7934C723.587 30.05 723.957 30.4167 724.229 30.8934C724.5 31.37 724.636 31.9164 724.636 32.5324C724.636 33.1484 724.496 33.6947 724.218 34.1714C723.939 34.648 723.558 35.0184 723.074 35.2824C722.597 35.539 722.069 35.6674 721.49 35.6674ZM721.49 34.5784C721.812 34.5784 722.113 34.5014 722.392 34.3474C722.678 34.1934 722.909 33.9624 723.085 33.6544C723.261 33.3464 723.349 32.9724 723.349 32.5324C723.349 32.0924 723.264 31.722 723.096 31.4214C722.927 31.1134 722.703 30.8824 722.425 30.7284C722.146 30.5744 721.845 30.4974 721.523 30.4974C721.2 30.4974 720.899 30.5744 720.621 30.7284C720.349 30.8824 720.133 31.1134 719.972 31.4214C719.81 31.722 719.73 32.0924 719.73 32.5324C719.73 33.185 719.895 33.691 720.225 34.0504C720.562 34.4024 720.984 34.5784 721.49 34.5784ZM728.315 32.5324C728.315 31.909 728.439 31.3627 728.689 30.8934C728.945 30.4167 729.297 30.05 729.745 29.7934C730.192 29.5367 730.705 29.4084 731.285 29.4084C732.018 29.4084 732.623 29.5844 733.1 29.9364C733.584 30.281 733.91 30.776 734.079 31.4214H732.726C732.616 31.1207 732.44 30.886 732.198 30.7174C731.956 30.5487 731.651 30.4644 731.285 30.4644C730.771 30.4644 730.361 30.6477 730.053 31.0144C729.752 31.3737 729.602 31.8797 729.602 32.5324C729.602 33.185 729.752 33.6947 730.053 34.0614C730.361 34.428 730.771 34.6114 731.285 34.6114C732.011 34.6114 732.491 34.2924 732.726 33.6544H734.079C733.903 34.2704 733.573 34.7617 733.089 35.1284C732.605 35.4877 732.003 35.6674 731.285 35.6674C730.705 35.6674 730.192 35.539 729.745 35.2824C729.297 35.0184 728.945 34.6517 728.689 34.1824C728.439 33.7057 728.315 33.1557 728.315 32.5324ZM738.463 29.4084C738.925 29.4084 739.336 29.5074 739.695 29.7054C740.062 29.9034 740.348 30.1967 740.553 30.5854C740.766 30.974 740.872 31.4434 740.872 31.9934V35.5684H739.629V32.1804C739.629 31.6377 739.494 31.2234 739.222 30.9374C738.951 30.644 738.581 30.4974 738.111 30.4974C737.642 30.4974 737.268 30.644 736.989 30.9374C736.718 31.2234 736.582 31.6377 736.582 32.1804V35.5684H735.328V27.4284H736.582V30.2114C736.795 29.9547 737.063 29.7567 737.385 29.6174C737.715 29.478 738.075 29.4084 738.463 29.4084ZM748.027 32.3894C748.027 32.6167 748.012 32.822 747.983 33.0054H743.352C743.389 33.4894 743.568 33.878 743.891 34.1714C744.214 34.4647 744.61 34.6114 745.079 34.6114C745.754 34.6114 746.23 34.329 746.509 33.7644H747.862C747.679 34.3217 747.345 34.78 746.861 35.1394C746.384 35.4914 745.79 35.6674 745.079 35.6674C744.5 35.6674 743.979 35.539 743.517 35.2824C743.062 35.0184 742.703 34.6517 742.439 34.1824C742.182 33.7057 742.054 33.1557 742.054 32.5324C742.054 31.909 742.179 31.3627 742.428 30.8934C742.685 30.4167 743.04 30.05 743.495 29.7934C743.957 29.5367 744.485 29.4084 745.079 29.4084C745.651 29.4084 746.161 29.533 746.608 29.7824C747.055 30.0317 747.404 30.3837 747.653 30.8384C747.902 31.2857 748.027 31.8027 748.027 32.3894ZM746.718 31.9934C746.711 31.5314 746.546 31.161 746.223 30.8824C745.9 30.6037 745.501 30.4644 745.024 30.4644C744.591 30.4644 744.221 30.6037 743.913 30.8824C743.605 31.1537 743.422 31.524 743.363 31.9934H746.718ZM748.843 32.5324C748.843 31.909 748.968 31.3627 749.217 30.8934C749.474 30.4167 749.826 30.05 750.273 29.7934C750.72 29.5367 751.234 29.4084 751.813 29.4084C752.546 29.4084 753.151 29.5844 753.628 29.9364C754.112 30.281 754.438 30.776 754.607 31.4214H753.254C753.144 31.1207 752.968 30.886 752.726 30.7174C752.484 30.5487 752.18 30.4644 751.813 30.4644C751.3 30.4644 750.889 30.6477 750.581 31.0144C750.28 31.3737 750.13 31.8797 750.13 32.5324C750.13 33.185 750.28 33.6947 750.581 34.0614C750.889 34.428 751.3 34.6114 751.813 34.6114C752.539 34.6114 753.019 34.2924 753.254 33.6544H754.607C754.431 34.2704 754.101 34.7617 753.617 35.1284C753.133 35.4877 752.532 35.6674 751.813 35.6674C751.234 35.6674 750.72 35.539 750.273 35.2824C749.826 35.0184 749.474 34.6517 749.217 34.1824C748.968 33.7057 748.843 33.1557 748.843 32.5324ZM758.255 32.5434L761.049 35.5684H759.355L757.111 32.9614V35.5684H755.857V27.4284H757.111V32.1584L759.311 29.5074H761.049L758.255 32.5434ZM770.261 29.5074L766.543 38.4174H765.245L766.477 35.4694L764.09 29.5074H765.487L767.192 34.1274L768.963 29.5074H770.261ZM773.836 35.6674C773.264 35.6674 772.747 35.539 772.285 35.2824C771.823 35.0184 771.46 34.6517 771.196 34.1824C770.932 33.7057 770.8 33.1557 770.8 32.5324C770.8 31.9164 770.936 31.37 771.207 30.8934C771.479 30.4167 771.849 30.05 772.318 29.7934C772.788 29.5367 773.312 29.4084 773.891 29.4084C774.471 29.4084 774.995 29.5367 775.464 29.7934C775.934 30.05 776.304 30.4167 776.575 30.8934C776.847 31.37 776.982 31.9164 776.982 32.5324C776.982 33.1484 776.843 33.6947 776.564 34.1714C776.286 34.648 775.904 35.0184 775.42 35.2824C774.944 35.539 774.416 35.6674 773.836 35.6674ZM773.836 34.5784C774.159 34.5784 774.46 34.5014 774.738 34.3474C775.024 34.1934 775.255 33.9624 775.431 33.6544C775.607 33.3464 775.695 32.9724 775.695 32.5324C775.695 32.0924 775.611 31.722 775.442 31.4214C775.274 31.1134 775.05 30.8824 774.771 30.7284C774.493 30.5744 774.192 30.4974 773.869 30.4974C773.547 30.4974 773.246 30.5744 772.967 30.7284C772.696 30.8824 772.48 31.1134 772.318 31.4214C772.157 31.722 772.076 32.0924 772.076 32.5324C772.076 33.185 772.241 33.691 772.571 34.0504C772.909 34.4024 773.33 34.5784 773.836 34.5784ZM783.711 29.5074V35.5684H782.457V34.8534C782.259 35.1027 781.999 35.3007 781.676 35.4474C781.361 35.5867 781.023 35.6564 780.664 35.6564C780.187 35.6564 779.758 35.5574 779.377 35.3594C779.003 35.1614 778.706 34.868 778.486 34.4794C778.273 34.0907 778.167 33.6214 778.167 33.0714V29.5074H779.41V32.8844C779.41 33.427 779.546 33.845 779.817 34.1384C780.088 34.4244 780.459 34.5674 780.928 34.5674C781.397 34.5674 781.768 34.4244 782.039 34.1384C782.318 33.845 782.457 33.427 782.457 32.8844V29.5074H783.711ZM786.62 30.3874C786.803 30.0794 787.045 29.841 787.346 29.6724C787.654 29.4964 788.017 29.4084 788.435 29.4084V30.7064H788.116C787.624 30.7064 787.25 30.831 786.994 31.0804C786.744 31.3297 786.62 31.7624 786.62 32.3784V35.5684H785.366V29.5074H786.62V30.3874ZM716.221 52.6674C715.745 52.6674 715.316 52.583 714.934 52.4144C714.56 52.2384 714.263 52.0037 714.043 51.7104C713.823 51.4097 713.706 51.076 713.691 50.7094H714.989C715.011 50.966 715.132 51.1824 715.352 51.3584C715.58 51.527 715.862 51.6114 716.199 51.6114C716.551 51.6114 716.823 51.5454 717.013 51.4134C717.211 51.274 717.31 51.098 717.31 50.8854C717.31 50.658 717.2 50.4894 716.98 50.3794C716.768 50.2694 716.427 50.1484 715.957 50.0164C715.503 49.8917 715.132 49.7707 714.846 49.6534C714.56 49.536 714.311 49.3564 714.098 49.1144C713.893 48.8724 713.79 48.5534 713.79 48.1574C713.79 47.8347 713.886 47.5414 714.076 47.2774C714.267 47.006 714.538 46.7934 714.89 46.6394C715.25 46.4854 715.66 46.4084 716.122 46.4084C716.812 46.4084 717.365 46.5844 717.783 46.9364C718.209 47.281 718.436 47.754 718.465 48.3554H717.211C717.189 48.084 717.079 47.8677 716.881 47.7064C716.683 47.545 716.416 47.4644 716.078 47.4644C715.748 47.4644 715.495 47.5267 715.319 47.6514C715.143 47.776 715.055 47.941 715.055 48.1464C715.055 48.3077 715.114 48.4434 715.231 48.5534C715.349 48.6634 715.492 48.7514 715.66 48.8174C715.829 48.876 716.078 48.953 716.408 49.0484C716.848 49.1657 717.208 49.2867 717.486 49.4114C717.772 49.5287 718.018 49.7047 718.223 49.9394C718.429 50.174 718.535 50.4857 718.542 50.8744C718.542 51.219 718.447 51.527 718.256 51.7984C718.066 52.0697 717.794 52.2824 717.442 52.4364C717.098 52.5904 716.691 52.6674 716.221 52.6674ZM722.295 49.5434L725.089 52.5684H723.395L721.151 49.9614V52.5684H719.897V44.4284H721.151V49.1584L723.351 46.5074H725.089L722.295 49.5434ZM726.626 45.7044C726.399 45.7044 726.208 45.6274 726.054 45.4734C725.9 45.3194 725.823 45.1287 725.823 44.9014C725.823 44.674 725.9 44.4834 726.054 44.3294C726.208 44.1754 726.399 44.0984 726.626 44.0984C726.846 44.0984 727.033 44.1754 727.187 44.3294C727.341 44.4834 727.418 44.674 727.418 44.9014C727.418 45.1287 727.341 45.3194 727.187 45.4734C727.033 45.6274 726.846 45.7044 726.626 45.7044ZM727.242 46.5074V52.5684H725.988V46.5074H727.242ZM731.946 46.4084C732.423 46.4084 732.848 46.5074 733.222 46.7054C733.604 46.9034 733.901 47.1967 734.113 47.5854C734.326 47.974 734.432 48.4434 734.432 48.9934V52.5684H733.189V49.1804C733.189 48.6377 733.054 48.2234 732.782 47.9374C732.511 47.644 732.141 47.4974 731.671 47.4974C731.202 47.4974 730.828 47.644 730.549 47.9374C730.278 48.2234 730.142 48.6377 730.142 49.1804V52.5684H728.888V46.5074H730.142V47.2004C730.348 46.951 730.608 46.7567 730.923 46.6174C731.246 46.478 731.587 46.4084 731.946 46.4084ZM740.352 47.5304V50.8854C740.352 51.1127 740.404 51.2777 740.506 51.3804C740.616 51.4757 740.8 51.5234 741.056 51.5234H741.826V52.5684H740.836C740.272 52.5684 739.839 52.4364 739.538 52.1724C739.238 51.9084 739.087 51.4794 739.087 50.8854V47.5304H738.372V46.5074H739.087V45.0004H740.352V46.5074H741.826V47.5304H740.352ZM748.438 46.5074L744.72 55.4174H743.422L744.654 52.4694L742.267 46.5074H743.664L745.369 51.1274L747.14 46.5074H748.438ZM750.639 47.3984C750.851 47.1197 751.141 46.885 751.508 46.6944C751.874 46.5037 752.289 46.4084 752.751 46.4084C753.279 46.4084 753.759 46.5404 754.192 46.8044C754.632 47.061 754.976 47.424 755.226 47.8934C755.475 48.3627 755.6 48.9017 755.6 49.5104C755.6 50.119 755.475 50.6654 755.226 51.1494C754.976 51.626 754.632 52 754.192 52.2714C753.759 52.5354 753.279 52.6674 752.751 52.6674C752.289 52.6674 751.878 52.5757 751.519 52.3924C751.159 52.2017 750.866 51.967 750.639 51.6884V55.4504H749.385V46.5074H750.639V47.3984ZM754.324 49.5104C754.324 49.0924 754.236 48.733 754.06 48.4324C753.891 48.1244 753.664 47.8934 753.378 47.7394C753.099 47.578 752.798 47.4974 752.476 47.4974C752.16 47.4974 751.86 47.578 751.574 47.7394C751.295 47.9007 751.068 48.1354 750.892 48.4434C750.723 48.7514 750.639 49.1144 750.639 49.5324C750.639 49.9504 750.723 50.317 750.892 50.6324C751.068 50.9404 751.295 51.175 751.574 51.3364C751.86 51.4977 752.16 51.5784 752.476 51.5784C752.798 51.5784 753.099 51.4977 753.378 51.3364C753.664 51.1677 753.891 50.9257 754.06 50.6104C754.236 50.295 754.324 49.9284 754.324 49.5104ZM762.395 49.3894C762.395 49.6167 762.38 49.822 762.351 50.0054H757.72C757.756 50.4894 757.936 50.878 758.259 51.1714C758.581 51.4647 758.977 51.6114 759.447 51.6114C760.121 51.6114 760.598 51.329 760.877 50.7644H762.23C762.046 51.3217 761.713 51.78 761.229 52.1394C760.752 52.4914 760.158 52.6674 759.447 52.6674C758.867 52.6674 758.347 52.539 757.885 52.2824C757.43 52.0184 757.071 51.6517 756.807 51.1824C756.55 50.7057 756.422 50.1557 756.422 49.5324C756.422 48.909 756.546 48.3627 756.796 47.8934C757.052 47.4167 757.408 47.05 757.863 46.7934C758.325 46.5367 758.853 46.4084 759.447 46.4084C760.019 46.4084 760.528 46.533 760.976 46.7824C761.423 47.0317 761.771 47.3837 762.021 47.8384C762.27 48.2857 762.395 48.8027 762.395 49.3894ZM761.086 48.9934C761.078 48.5314 760.913 48.161 760.591 47.8824C760.268 47.6037 759.868 47.4644 759.392 47.4644C758.959 47.4644 758.589 47.6037 758.281 47.8824C757.973 48.1537 757.789 48.524 757.731 48.9934H761.086Z" fill="white"/>
<rect x="490" y="5.56836" width="136" height="70" rx="28" fill="#E9C85B" fill-opacity="0.64"/>
<path d="M511.002 40.2294C511.002 39.4814 511.174 38.8104 511.519 38.2164C511.871 37.6224 512.344 37.1604 512.938 36.8304C513.539 36.493 514.195 36.3244 514.907 36.3244C515.721 36.3244 516.443 36.526 517.074 36.9294C517.712 37.3254 518.174 37.89 518.46 38.6234H516.953C516.755 38.22 516.48 37.9194 516.128 37.7214C515.776 37.5234 515.369 37.4244 514.907 37.4244C514.401 37.4244 513.95 37.538 513.554 37.7654C513.158 37.9927 512.846 38.319 512.619 38.7444C512.399 39.1697 512.289 39.6647 512.289 40.2294C512.289 40.794 512.399 41.289 512.619 41.7144C512.846 42.1397 513.158 42.4697 513.554 42.7044C513.95 42.9317 514.401 43.0454 514.907 43.0454C515.369 43.0454 515.776 42.9464 516.128 42.7484C516.48 42.5504 516.755 42.2497 516.953 41.8464H518.46C518.174 42.5797 517.712 43.1444 517.074 43.5404C516.443 43.9364 515.721 44.1344 514.907 44.1344C514.188 44.1344 513.532 43.9694 512.938 43.6394C512.344 43.302 511.871 42.8364 511.519 42.2424C511.174 41.6484 511.002 40.9774 511.002 40.2294ZM523.063 37.9084C523.525 37.9084 523.935 38.0074 524.295 38.2054C524.661 38.4034 524.947 38.6967 525.153 39.0854C525.365 39.474 525.472 39.9434 525.472 40.4934V44.0684H524.229V40.6804C524.229 40.1377 524.093 39.7234 523.822 39.4374C523.55 39.144 523.18 38.9974 522.711 38.9974C522.241 38.9974 521.867 39.144 521.589 39.4374C521.317 39.7234 521.182 40.1377 521.182 40.6804V44.0684H519.928V35.9284H521.182V38.7114C521.394 38.4547 521.662 38.2567 521.985 38.1174C522.315 37.978 522.674 37.9084 523.063 37.9084ZM529.7 44.1674C529.128 44.1674 528.611 44.039 528.149 43.7824C527.687 43.5184 527.324 43.1517 527.06 42.6824C526.796 42.2057 526.664 41.6557 526.664 41.0324C526.664 40.4164 526.8 39.87 527.071 39.3934C527.342 38.9167 527.713 38.55 528.182 38.2934C528.651 38.0367 529.176 37.9084 529.755 37.9084C530.334 37.9084 530.859 38.0367 531.328 38.2934C531.797 38.55 532.168 38.9167 532.439 39.3934C532.71 39.87 532.846 40.4164 532.846 41.0324C532.846 41.6484 532.707 42.1947 532.428 42.6714C532.149 43.148 531.768 43.5184 531.284 43.7824C530.807 44.039 530.279 44.1674 529.7 44.1674ZM529.7 43.0784C530.023 43.0784 530.323 43.0014 530.602 42.8474C530.888 42.6934 531.119 42.4624 531.295 42.1544C531.471 41.8464 531.559 41.4724 531.559 41.0324C531.559 40.5924 531.475 40.222 531.306 39.9214C531.137 39.6134 530.914 39.3824 530.635 39.2284C530.356 39.0744 530.056 38.9974 529.733 38.9974C529.41 38.9974 529.11 39.0744 528.831 39.2284C528.56 39.3824 528.343 39.6134 528.182 39.9214C528.021 40.222 527.94 40.5924 527.94 41.0324C527.94 41.685 528.105 42.191 528.435 42.5504C528.772 42.9024 529.194 43.0784 529.7 43.0784ZM536.715 44.1674C536.143 44.1674 535.626 44.039 535.164 43.7824C534.702 43.5184 534.339 43.1517 534.075 42.6824C533.811 42.2057 533.679 41.6557 533.679 41.0324C533.679 40.4164 533.814 39.87 534.086 39.3934C534.357 38.9167 534.727 38.55 535.197 38.2934C535.666 38.0367 536.19 37.9084 536.77 37.9084C537.349 37.9084 537.873 38.0367 538.343 38.2934C538.812 38.55 539.182 38.9167 539.454 39.3934C539.725 39.87 539.861 40.4164 539.861 41.0324C539.861 41.6484 539.721 42.1947 539.443 42.6714C539.164 43.148 538.783 43.5184 538.299 43.7824C537.822 44.039 537.294 44.1674 536.715 44.1674ZM536.715 43.0784C537.037 43.0784 537.338 43.0014 537.617 42.8474C537.903 42.6934 538.134 42.4624 538.31 42.1544C538.486 41.8464 538.574 41.4724 538.574 41.0324C538.574 40.5924 538.489 40.222 538.321 39.9214C538.152 39.6134 537.928 39.3824 537.65 39.2284C537.371 39.0744 537.07 38.9974 536.748 38.9974C536.425 38.9974 536.124 39.0744 535.846 39.2284C535.574 39.3824 535.358 39.6134 535.197 39.9214C535.035 40.222 534.955 40.5924 534.955 41.0324C534.955 41.685 535.12 42.191 535.45 42.5504C535.787 42.9024 536.209 43.0784 536.715 43.0784ZM543.3 44.1674C542.824 44.1674 542.395 44.083 542.013 43.9144C541.639 43.7384 541.342 43.5037 541.122 43.2104C540.902 42.9097 540.785 42.576 540.77 42.2094H542.068C542.09 42.466 542.211 42.6824 542.431 42.8584C542.659 43.027 542.941 43.1114 543.278 43.1114C543.63 43.1114 543.902 43.0454 544.092 42.9134C544.29 42.774 544.389 42.598 544.389 42.3854C544.389 42.158 544.279 41.9894 544.059 41.8794C543.847 41.7694 543.506 41.6484 543.036 41.5164C542.582 41.3917 542.211 41.2707 541.925 41.1534C541.639 41.036 541.39 40.8564 541.177 40.6144C540.972 40.3724 540.869 40.0534 540.869 39.6574C540.869 39.3347 540.965 39.0414 541.155 38.7774C541.346 38.506 541.617 38.2934 541.969 38.1394C542.329 37.9854 542.739 37.9084 543.201 37.9084C543.891 37.9084 544.444 38.0844 544.862 38.4364C545.288 38.781 545.515 39.254 545.544 39.8554H544.29C544.268 39.584 544.158 39.3677 543.96 39.2064C543.762 39.045 543.495 38.9644 543.157 38.9644C542.827 38.9644 542.574 39.0267 542.398 39.1514C542.222 39.276 542.134 39.441 542.134 39.6464C542.134 39.8077 542.193 39.9434 542.31 40.0534C542.428 40.1634 542.571 40.2514 542.739 40.3174C542.908 40.376 543.157 40.453 543.487 40.5484C543.927 40.6657 544.287 40.7867 544.565 40.9114C544.851 41.0287 545.097 41.2047 545.302 41.4394C545.508 41.674 545.614 41.9857 545.621 42.3744C545.621 42.719 545.526 43.027 545.335 43.2984C545.145 43.5697 544.873 43.7824 544.521 43.9364C544.177 44.0904 543.77 44.1674 543.3 44.1674ZM552.531 40.8894C552.531 41.1167 552.517 41.322 552.487 41.5054H547.856C547.893 41.9894 548.073 42.378 548.395 42.6714C548.718 42.9647 549.114 43.1114 549.583 43.1114C550.258 43.1114 550.735 42.829 551.013 42.2644H552.366C552.183 42.8217 551.849 43.28 551.365 43.6394C550.889 43.9914 550.295 44.1674 549.583 44.1674C549.004 44.1674 548.483 44.039 548.021 43.7824C547.567 43.5184 547.207 43.1517 546.943 42.6824C546.687 42.2057 546.558 41.6557 546.558 41.0324C546.558 40.409 546.683 39.8627 546.932 39.3934C547.189 38.9167 547.545 38.55 547.999 38.2934C548.461 38.0367 548.989 37.9084 549.583 37.9084C550.155 37.9084 550.665 38.033 551.112 38.2824C551.56 38.5317 551.908 38.8837 552.157 39.3384C552.407 39.7857 552.531 40.3027 552.531 40.8894ZM551.222 40.4934C551.215 40.0314 551.05 39.661 550.727 39.3824C550.405 39.1037 550.005 38.9644 549.528 38.9644C549.096 38.9644 548.725 39.1037 548.417 39.3824C548.109 39.6537 547.926 40.024 547.867 40.4934H551.222ZM558.823 44.1674C558.346 44.1674 557.917 44.083 557.536 43.9144C557.162 43.7384 556.865 43.5037 556.645 43.2104C556.425 42.9097 556.308 42.576 556.293 42.2094H557.591C557.613 42.466 557.734 42.6824 557.954 42.8584C558.181 43.027 558.464 43.1114 558.801 43.1114C559.153 43.1114 559.424 43.0454 559.615 42.9134C559.813 42.774 559.912 42.598 559.912 42.3854C559.912 42.158 559.802 41.9894 559.582 41.8794C559.369 41.7694 559.028 41.6484 558.559 41.5164C558.104 41.3917 557.734 41.2707 557.448 41.1534C557.162 41.036 556.913 40.8564 556.7 40.6144C556.495 40.3724 556.392 40.0534 556.392 39.6574C556.392 39.3347 556.487 39.0414 556.678 38.7774C556.869 38.506 557.14 38.2934 557.492 38.1394C557.851 37.9854 558.262 37.9084 558.724 37.9084C559.413 37.9084 559.967 38.0844 560.385 38.4364C560.81 38.781 561.038 39.254 561.067 39.8554H559.813C559.791 39.584 559.681 39.3677 559.483 39.2064C559.285 39.045 559.017 38.9644 558.68 38.9644C558.35 38.9644 558.097 39.0267 557.921 39.1514C557.745 39.276 557.657 39.441 557.657 39.6464C557.657 39.8077 557.716 39.9434 557.833 40.0534C557.95 40.1634 558.093 40.2514 558.262 40.3174C558.431 40.376 558.68 40.453 559.01 40.5484C559.45 40.6657 559.809 40.7867 560.088 40.9114C560.374 41.0287 560.62 41.2047 560.825 41.4394C561.03 41.674 561.137 41.9857 561.144 42.3744C561.144 42.719 561.049 43.027 560.858 43.2984C560.667 43.5697 560.396 43.7824 560.044 43.9364C559.699 44.0904 559.292 44.1674 558.823 44.1674ZM564.897 41.0434L567.691 44.0684H565.997L563.753 41.4614V44.0684H562.499V35.9284H563.753V40.6584L565.953 38.0074H567.691L564.897 41.0434ZM569.228 37.2044C569 37.2044 568.81 37.1274 568.656 36.9734C568.502 36.8194 568.425 36.6287 568.425 36.4014C568.425 36.174 568.502 35.9834 568.656 35.8294C568.81 35.6754 569 35.5984 569.228 35.5984C569.448 35.5984 569.635 35.6754 569.789 35.8294C569.943 35.9834 570.02 36.174 570.02 36.4014C570.02 36.6287 569.943 36.8194 569.789 36.9734C569.635 37.1274 569.448 37.2044 569.228 37.2044ZM569.844 38.0074V44.0684H568.59V38.0074H569.844ZM574.548 37.9084C575.025 37.9084 575.45 38.0074 575.824 38.2054C576.205 38.4034 576.502 38.6967 576.715 39.0854C576.928 39.474 577.034 39.9434 577.034 40.4934V44.0684H575.791V40.6804C575.791 40.1377 575.655 39.7234 575.384 39.4374C575.113 39.144 574.742 38.9974 574.273 38.9974C573.804 38.9974 573.43 39.144 573.151 39.4374C572.88 39.7234 572.744 40.1377 572.744 40.6804V44.0684H571.49V38.0074H572.744V38.7004C572.949 38.451 573.21 38.2567 573.525 38.1174C573.848 37.978 574.189 37.9084 574.548 37.9084ZM582.954 39.0304V42.3854C582.954 42.6127 583.005 42.7777 583.108 42.8804C583.218 42.9757 583.401 43.0234 583.658 43.0234H584.428V44.0684H583.438C582.873 44.0684 582.441 43.9364 582.14 43.6724C581.839 43.4084 581.689 42.9794 581.689 42.3854V39.0304H580.974V38.0074H581.689V36.5004H582.954V38.0074H584.428V39.0304H582.954ZM591.04 38.0074L587.322 46.9174H586.024L587.256 43.9694L584.869 38.0074H586.266L587.971 42.6274L589.742 38.0074H591.04ZM593.24 38.8984C593.453 38.6197 593.742 38.385 594.109 38.1944C594.476 38.0037 594.89 37.9084 595.352 37.9084C595.88 37.9084 596.36 38.0404 596.793 38.3044C597.233 38.561 597.578 38.924 597.827 39.3934C598.076 39.8627 598.201 40.4017 598.201 41.0104C598.201 41.619 598.076 42.1654 597.827 42.6494C597.578 43.126 597.233 43.5 596.793 43.7714C596.36 44.0354 595.88 44.1674 595.352 44.1674C594.89 44.1674 594.479 44.0757 594.12 43.8924C593.761 43.7017 593.467 43.467 593.24 43.1884V46.9504H591.986V38.0074H593.24V38.8984ZM596.925 41.0104C596.925 40.5924 596.837 40.233 596.661 39.9324C596.492 39.6244 596.265 39.3934 595.979 39.2394C595.7 39.078 595.4 38.9974 595.077 38.9974C594.762 38.9974 594.461 39.078 594.175 39.2394C593.896 39.4007 593.669 39.6354 593.493 39.9434C593.324 40.2514 593.24 40.6144 593.24 41.0324C593.24 41.4504 593.324 41.817 593.493 42.1324C593.669 42.4404 593.896 42.675 594.175 42.8364C594.461 42.9977 594.762 43.0784 595.077 43.0784C595.4 43.0784 595.7 42.9977 595.979 42.8364C596.265 42.6677 596.492 42.4257 596.661 42.1104C596.837 41.795 596.925 41.4284 596.925 41.0104ZM604.996 40.8894C604.996 41.1167 604.982 41.322 604.952 41.5054H600.321C600.358 41.9894 600.538 42.378 600.86 42.6714C601.183 42.9647 601.579 43.1114 602.048 43.1114C602.723 43.1114 603.2 42.829 603.478 42.2644H604.831C604.648 42.8217 604.314 43.28 603.83 43.6394C603.354 43.9914 602.76 44.1674 602.048 44.1674C601.469 44.1674 600.948 44.039 600.486 43.7824C600.032 43.5184 599.672 43.1517 599.408 42.6824C599.152 42.2057 599.023 41.6557 599.023 41.0324C599.023 40.409 599.148 39.8627 599.397 39.3934C599.654 38.9167 600.01 38.55 600.464 38.2934C600.926 38.0367 601.454 37.9084 602.048 37.9084C602.62 37.9084 603.13 38.033 603.577 38.2824C604.025 38.5317 604.373 38.8837 604.622 39.3384C604.872 39.7857 604.996 40.3027 604.996 40.8894ZM603.687 40.4934C603.68 40.0314 603.515 39.661 603.192 39.3824C602.87 39.1037 602.47 38.9644 601.993 38.9644C601.561 38.9644 601.19 39.1037 600.882 39.3824C600.574 39.6537 600.391 40.024 600.332 40.4934H603.687Z" fill="black" fill-opacity="0.8"/>
<path d="M443 40.0684C442.724 40.0684 442.5 40.2922 442.5 40.5684C442.5 40.8445 442.724 41.0684 443 41.0684V40.0684ZM487.354 40.9219C487.549 40.7267 487.549 40.4101 487.354 40.2148L484.172 37.0328C483.976 36.8376 483.66 36.8376 483.464 37.0328C483.269 37.2281 483.269 37.5447 483.464 37.7399L486.293 40.5684L483.464 43.3968C483.269 43.592 483.269 43.9086 483.464 44.1039C483.66 44.2992 483.976 44.2992 484.172 44.1039L487.354 40.9219ZM443 41.0684H487V40.0684H443V41.0684Z" fill="#B3B3B3"/>
<path d="M629 40.0684C628.724 40.0684 628.5 40.2922 628.5 40.5684C628.5 40.8445 628.724 41.0684 629 41.0684V40.0684ZM673.354 40.9219C673.549 40.7267 673.549 40.4101 673.354 40.2148L670.172 37.0328C669.976 36.8376 669.66 36.8376 669.464 37.0328C669.269 37.2281 669.269 37.5447 669.464 37.7399L672.293 40.5684L669.464 43.3968C669.269 43.592 669.269 43.9086 669.464 44.1039C669.66 44.2992 669.976 44.2992 670.172 44.1039L673.354 40.9219ZM629 41.0684H673V40.0684H629V41.0684Z" fill="#B3B3B3"/>
<path d="M803 40.0684C802.724 40.0684 802.5 40.2922 802.5 40.5684C802.5 40.8445 802.724 41.0684 803 41.0684V40.0684ZM847.354 40.9219C847.549 40.7267 847.549 40.4101 847.354 40.2148L844.172 37.0328C843.976 36.8376 843.66 36.8376 843.464 37.0328C843.269 37.2281 843.269 37.5447 843.464 37.7399L846.293 40.5684L843.464 43.3968C843.269 43.592 843.269 43.9086 843.464 44.1039C843.66 44.2992 843.976 44.2992 844.172 44.1039L847.354 40.9219ZM803 41.0684H847V40.0684H803V41.0684Z" fill="#B3B3B3"/>
</svg>
